
<svg width="512px" height="512px" viewBox="0 0 512 512" version="1.1" xmlns="http://www.w3.org/2000/svg" xmlns:xlink="http://www.w3.org/1999/xlink">
    <defs>
        <path d="M12.4157373,12.4786153 C-4.16325001,29.0932423 -4.13501844,55.9984921 12.4792583,72.5778287 L12.4792583,72.5778287 C29.093535,89.1642236 55.9982178,89.1359913 72.5842627,72.5213643 L72.5842627,72.5213643 C89.1632499,55.9067374 89.1350185,29.0014878 72.5207418,12.422151 L72.5207418,12.422151 C64.2277193,4.14306968 53.3585662,0 42.496471,0 L42.496471,0 C31.6061446,0 20.7158178,4.15718576 12.4157373,12.4786153" id="path-lzg0a4ml1--1"></path>
        <linearGradient x1="85.3544692%" y1="14.6441524%" x2="14.6443168%" y2="85.3557955%" id="linearGradient-lzg0a4ml1--3">
            <stop stop-color="#F9D423" offset="0%"></stop>
            <stop stop-color="#FF4D50" offset="100%"></stop>
        </linearGradient>
        <path d="M12.4186393,12.4786153 C-4.16069352,29.0932423 -4.13951942,55.9984921 12.4821616,72.5778287 L12.4821616,72.5778287 C29.0897265,89.1642236 56.0090861,89.1359913 72.5813608,72.5213643 L72.5813608,72.5213643 C89.1606935,55.9067374 89.1395194,29.0014878 72.5178382,12.422151 L72.5178382,12.422151 C64.2246429,4.14306968 53.3623216,0 42.5,0 L42.5,0 C31.6094463,0 20.7188927,4.15718576 12.4186393,12.4786153" id="path-lzg0a4ml1--4"></path>
        <linearGradient x1="6.68886312%" y1="75.0065038%" x2="93.3141253%" y2="24.9933736%" id="linearGradient-lzg0a4ml1--6">
            <stop stop-color="#2475FB" offset="0%"></stop>
            <stop stop-color="#641ACF" offset="100%"></stop>
        </linearGradient>
        <path d="M0,179 L88.2236677,179 C112.519639,122.368073 169.325112,82.6399289 235.528761,82.6399289 L235.528761,82.6399289 C264.369457,82.6399289 291.429597,90.177144 314.792212,103.38677 L314.792212,103.38677 C350.496664,123.552189 395.333642,118.3123 424.612298,89.7800753 L424.612298,89.7800753 L425,89.3971875 C380.349693,34.8640523 312.063942,0 235.528761,0 L235.528761,0 C122.542444,0 27.5339978,75.9677559 0,179" id="path-lzg0a4ml1--7"></path>
        <linearGradient x1="50.0002223%" y1="-0.00203842345%" x2="50.0002223%" y2="99.9993928%" id="linearGradient-lzg0a4ml1--9">
            <stop stop-color="#0EC6FD" offset="0%"></stop>
            <stop stop-color="#4959FF" offset="100%"></stop>
        </linearGradient>
        <path d="M0,104 L87.6510288,104 C111.7893,46.4639469 168.226063,6.10154462 234,6.10154462 L234,6.10154462 C234,6.10154462 205.467764,0 168.119067,0 L168.119067,0 C106.639232,0 21.2636488,16.5253169 0,104" id="path-lzg0a4ml1--10"></path>
        <linearGradient x1="49.9991928%" y1="0.00266191037%" x2="49.9991928%" y2="99.9989582%" id="linearGradient-lzg0a4ml1--12">
            <stop stop-color="#6911CA" offset="0%"></stop>
            <stop stop-color="#2475FB" offset="100%"></stop>
        </linearGradient>
        <path d="M0,0 C27.5339978,103.028163 122.542444,179 235.528761,179 L235.528761,179 C312.063942,179 380.349693,144.123148 425,89.6063536 L425,89.6063536 L424.612298,89.223481 C395.333642,60.6852966 350.496664,55.4456151 314.792212,75.6173256 L314.792212,75.6173256 C291.429597,88.8122476 264.369457,96.3562544 235.528761,96.3562544 L235.528761,96.3562544 C169.325112,96.3562544 112.519639,56.6296838 88.2236677,0 L88.2236677,0 L0,0 Z" id="path-lzg0a4ml1--13"></path>
        <linearGradient x1="50.0002223%" y1="99.9982167%" x2="50.0002223%" y2="0.000746652935%" id="linearGradient-lzg0a4ml1--15">
            <stop stop-color="#0EC6FD" offset="0%"></stop>
            <stop stop-color="#4959FF" offset="100%"></stop>
        </linearGradient>
        <path d="M0,0 C34.1816187,140.606595 234,97.9016103 234,97.9016103 L234,97.9016103 C168.226063,97.9016103 111.7893,57.5379075 87.6510288,0 L87.6510288,0 L0,0 Z" id="path-lzg0a4ml1--16"></path>
        <linearGradient x1="49.9991928%" y1="100.000805%" x2="49.9991928%" y2="0.00128562708%" id="linearGradient-lzg0a4ml1--18">
            <stop stop-color="#6911CA" offset="0%"></stop>
            <stop stop-color="#2475FB" offset="100%"></stop>
        </linearGradient>
    </defs>
    <g id="Page-2" stroke="none" stroke-width="1" fill="none" fill-rule="evenodd">
        <g id="Group" transform="translate(39.000000, 14.000000)">
            <g id="Fill-4-Clipped" transform="translate(21.000000, 202.000000)">
                <mask id="mask-lzg0a4ml1--2" fill="white">
                    <use xlink:href="#path-lzg0a4ml1--1"></use>
                </mask>
                <g id="path-1"></g>
                <path d="M12.4157373,12.4786153 C-4.16325001,29.0932423 -4.13501844,55.9984921 12.4792583,72.5778287 L12.4792583,72.5778287 C29.093535,89.1642236 55.9982178,89.1359913 72.5842627,72.5213643 L72.5842627,72.5213643 C89.1632499,55.9067374 89.1350185,29.0014878 72.5207418,12.422151 L72.5207418,12.422151 C64.2277193,4.14306968 53.3585662,0 42.496471,0 L42.496471,0 C31.6061446,0 20.7158178,4.15718576 12.4157373,12.4786153" id="Fill-4" fill="url(#linearGradient-lzg0a4ml1--3)" fill-rule="nonzero" mask="url(#mask-lzg0a4ml1--2)"></path>
            </g>
            <g id="Fill-7-Clipped" transform="translate(0.000000, 202.000000)">
                <mask id="mask-lzg0a4ml1--5" fill="white">
                    <use xlink:href="#path-lzg0a4ml1--4"></use>
                </mask>
                <g id="path-4"></g>
                <path d="M12.4186393,12.4786153 C-4.16069352,29.0932423 -4.13951942,55.9984921 12.4821616,72.5778287 L12.4821616,72.5778287 C29.0897265,89.1642236 56.0090861,89.1359913 72.5813608,72.5213643 L72.5813608,72.5213643 C89.1606935,55.9067374 89.1395194,29.0014878 72.5178382,12.422151 L72.5178382,12.422151 C64.2246429,4.14306968 53.3623216,0 42.5,0 L42.5,0 C31.6094463,0 20.7188927,4.15718576 12.4186393,12.4786153" id="Fill-7" fill="url(#linearGradient-lzg0a4ml1--6)" fill-rule="nonzero" mask="url(#mask-lzg0a4ml1--5)"></path>
            </g>
            <g id="Fill-10-Clipped" transform="translate(9.000000, 0.000000)">
                <mask id="mask-lzg0a4ml1--8" fill="white">
                    <use xlink:href="#path-lzg0a4ml1--7"></use>
                </mask>
                <g id="path-7"></g>
                <path d="M0,179 L88.2236677,179 C112.519639,122.368073 169.325112,82.6399289 235.528761,82.6399289 L235.528761,82.6399289 C264.369457,82.6399289 291.429597,90.177144 314.792212,103.38677 L314.792212,103.38677 C350.496664,123.552189 395.333642,118.3123 424.612298,89.7800753 L424.612298,89.7800753 L425,89.3971875 C380.349693,34.8640523 312.063942,0 235.528761,0 L235.528761,0 C122.542444,0 27.5339978,75.9677559 0,179" id="Fill-10" fill="url(#linearGradient-lzg0a4ml1--9)" fill-rule="nonzero" mask="url(#mask-lzg0a4ml1--8)"></path>
            </g>
            <g id="Fill-13-Clipped" transform="translate(8.000000, 77.000000)">
                <mask id="mask-lzg0a4ml1--11" fill="white">
                    <use xlink:href="#path-lzg0a4ml1--10"></use>
                </mask>
                <g id="path-10"></g>
                <path d="M0,104 L87.6510288,104 C111.7893,46.4639469 168.226063,6.10154462 234,6.10154462 L234,6.10154462 C234,6.10154462 205.467764,0 168.119067,0 L168.119067,0 C106.639232,0 21.2636488,16.5253169 0,104" id="Fill-13" fill="url(#linearGradient-lzg0a4ml1--12)" fill-rule="nonzero" mask="url(#mask-lzg0a4ml1--11)"></path>
            </g>
            <g id="Fill-16-Clipped" transform="translate(9.000000, 305.000000)">
                <mask id="mask-lzg0a4ml1--14" fill="white">
                    <use xlink:href="#path-lzg0a4ml1--13"></use>
                </mask>
                <g id="path-13"></g>
                <path d="M0,0 C27.5339978,103.028163 122.542444,179 235.528761,179 L235.528761,179 C312.063942,179 380.349693,144.123148 425,89.6063536 L425,89.6063536 L424.612298,89.223481 C395.333642,60.6852966 350.496664,55.4456151 314.792212,75.6173256 L314.792212,75.6173256 C291.429597,88.8122476 264.369457,96.3562544 235.528761,96.3562544 L235.528761,96.3562544 C169.325112,96.3562544 112.519639,56.6296838 88.2236677,0 L88.2236677,0 L0,0 Z" id="Fill-16" fill="url(#linearGradient-lzg0a4ml1--15)" fill-rule="nonzero" mask="url(#mask-lzg0a4ml1--14)"></path>
            </g>
            <g id="Group-21" transform="translate(8.000000, 305.000000)">
                <g id="Fill-19-Clipped" transform="translate(0.000000, 0.000000)">
                    <mask id="mask-lzg0a4ml1--17" fill="white">
                        <use xlink:href="#path-lzg0a4ml1--16"></use>
                    </mask>
                    <g id="path-16"></g>
                    <path d="M0,0 C34.1816187,140.606595 234,97.9016103 234,97.9016103 L234,97.9016103 C168.226063,97.9016103 111.7893,57.5379075 87.6510288,0 L87.6510288,0 L0,0 Z" id="Fill-19" fill="url(#linearGradient-lzg0a4ml1--18)" fill-rule="nonzero" mask="url(#mask-lzg0a4ml1--17)"></path>
                </g>
            </g>
        </g>
    </g>
</svg>
