<svg xmlns="http://www.w3.org/2000/svg" xmlns:xlink="http://www.w3.org/1999/xlink" width="465.106" height="465.106" viewBox="0 0 465.106 465.106">
  <defs>
    <filter id="Ellipse_52" x="0" y="0" width="465.106" height="465.106" filterUnits="userSpaceOnUse">
      <feOffset input="SourceAlpha"/>
      <feGaussianBlur stdDeviation="5" result="blur"/>
      <feFlood flood-color="#ff68fe"/>
      <feComposite operator="in" in2="blur"/>
      <feComposite in="SourceGraphic"/>
    </filter>
    <linearGradient id="linear-gradient" x1="0.224" y1="0.093" x2="0.5" y2="1" gradientUnits="objectBoundingBox">
      <stop offset="0" stop-color="#4fc6fa" stop-opacity="0.09"/>
      <stop offset="1" stop-color="#4fc6fa"/>
    </linearGradient>
    <filter id="Ellipse_53_-_Outline" x="58.653" y="58.982" width="347.793" height="347.793" filterUnits="userSpaceOnUse">
      <feOffset input="SourceAlpha"/>
      <feGaussianBlur stdDeviation="10" result="blur-2"/>
      <feFlood flood-color="#4fc6fa"/>
      <feComposite operator="in" in2="blur-2"/>
      <feComposite in="SourceGraphic"/>
    </filter>
  </defs>
  <g id="Group_6820" data-name="Group 6820" transform="translate(-12772.947 -12062.947)">
    <g id="Ellipse_101" data-name="Ellipse 101" transform="translate(12788 12078)" fill="#0f0b1a" stroke="#707070" stroke-width="1">
      <circle cx="217.5" cy="217.5" r="217.5" stroke="none"/>
      <circle cx="217.5" cy="217.5" r="217" fill="none"/>
    </g>
    <g id="Group_4700" data-name="Group 4700" transform="translate(12787.947 12077.947)">
      <g transform="matrix(1, 0, 0, 1, -15, -15)" filter="url(#Ellipse_52)">
        <path id="Ellipse_52-2" data-name="Ellipse 52" d="M217.553,6.834C101.362,6.834,6.834,101.362,6.834,217.553s94.528,210.719,210.719,210.719,210.719-94.528,210.719-210.719S333.744,6.834,217.553,6.834m0-6.834C337.7,0,435.106,97.4,435.106,217.553S337.7,435.106,217.553,435.106,0,337.7,0,217.553,97.4,0,217.553,0Z" transform="translate(15 15)" fill="#ff68fe"/>
      </g>
      <circle id="Ellipse_53" data-name="Ellipse 53" cx="143.896" cy="143.896" r="143.896" transform="translate(73.654 73.983)" fill="url(#linear-gradient)"/>
      <g transform="matrix(1, 0, 0, 1, -15, -15)" filter="url(#Ellipse_53_-_Outline)">
        <path id="Ellipse_53_-_Outline-2" data-name="Ellipse 53 - Outline" d="M143.9,4.11A139.786,139.786,0,0,0,45.052,242.74,139.786,139.786,0,1,0,242.74,45.052,138.871,138.871,0,0,0,143.9,4.11m0-4.11A143.9,143.9,0,1,1,0,143.9,143.9,143.9,0,0,1,143.9,0Z" transform="translate(88.65 88.98)" fill="#4fc6fa"/>
      </g>
      <g id="Group_4496" data-name="Group 4496" transform="translate(131.376 135.207)">
        <path id="Path_2082" data-name="Path 2082" d="M66.285,0A55.879,55.879,0,0,1,89.979,5.752c12.561,5.9,21.482,14.229,25.8,24.094a35.346,35.346,0,0,1-.747,29.555A29.582,29.582,0,0,1,93.163,76.139c6.166,10.162,6.768,23.46,1.324,35.052-6.67,14.208-20.552,22.691-37.133,22.691a60.769,60.769,0,0,1-25.823-6.187c-13.5-6.34-23.226-15.456-28.117-26.362a38.145,38.145,0,0,1,13.7-47.741,38.526,38.526,0,0,1,15.979-6.439,31.043,31.043,0,0,1-.226-26.33C39.076,7.59,51.258,0,66.285,0ZM57.354,128.95c14.838,0,26.745-7.237,32.669-19.855,5.318-11.323,4.051-24.458-3.229-33.462l-3.221-3.984,5.123-.032a24.635,24.635,0,0,0,21.868-14.311c4.01-8.54,4.25-17.352.693-25.483C107.428,23.069,99.346,15.6,87.883,10.216a51.013,51.013,0,0,0-21.6-5.284c-13.036,0-23.591,6.556-28.958,17.987A25.884,25.884,0,0,0,39.186,47.9l2.5,3.729-4.491.111c-11.515.285-23.932,8.45-28.882,18.992a33.788,33.788,0,0,0-.4,28.585c4.4,9.814,13.293,18.084,25.713,23.916A55.894,55.894,0,0,0,57.354,128.95ZM73.1,24.586h0a16.377,16.377,0,0,1,6.916,1.538,17.375,17.375,0,0,1,8.351,8.114A12.833,12.833,0,0,1,88.6,45.4c-2.909,6.2-9.7,8.453-15.077,8.5l-.6.005-.536-.272C61.1,47.907,56.538,39.842,60.191,32.062,62.322,27.521,67.389,24.586,73.1,24.586Zm.968,24.368c3.629-.179,8.229-1.733,10.067-5.647a7.992,7.992,0,0,0-.216-6.94,12.609,12.609,0,0,0-6-5.778,11.413,11.413,0,0,0-4.82-1.071c-3.749,0-7.143,1.865-8.445,4.64C61.369,41.157,69.722,46.657,74.069,48.953ZM51.5,69.362l.627.328C62.933,75.349,72.54,85.531,67.092,97.134l-.019.041c-3.079,6.256-8.433,9.7-15.075,9.7a22.485,22.485,0,0,1-9.442-2.237A20.42,20.42,0,0,1,32.511,94.617a16.235,16.235,0,0,1-.019-13.73c3.388-7.217,11.632-10.962,18.3-11.472ZM62.639,95.014c4.737-10.14-7.348-17.98-12.163-20.613-4.964.584-11.1,3.436-13.518,8.583a11.375,11.375,0,0,0,.055,9.616,15.49,15.49,0,0,0,7.64,7.575A17.54,17.54,0,0,0,52,101.944C55.293,101.944,59.813,100.741,62.639,95.014Z" transform="matrix(0.438, 0.899, -0.899, 0.438, 120.332, 0)" fill="#fff"/>
      </g>
    </g>
  </g>
</svg>
