<?xml version="1.0" encoding="UTF-8"?>
<!DOCTYPE svg PUBLIC "-//W3C//DTD SVG 1.1//EN" "http://www.w3.org/Graphics/SVG/1.1/DTD/svg11.dtd">
<!-- Creator: CorelDRAW -->
<svg xmlns="http://www.w3.org/2000/svg" xml:space="preserve" width="0.106661in" height="0.106661in" version="1.1" style="shape-rendering:geometricPrecision; text-rendering:geometricPrecision; image-rendering:optimizeQuality; fill-rule:evenodd; clip-rule:evenodd"
viewBox="0 0 106.66 106.66"
 xmlns:xlink="http://www.w3.org/1999/xlink"
 xmlns:xodm="http://www.corel.com/coreldraw/odm/2003">
 <defs>
  <style type="text/css">
   <![CDATA[
    .str1 {stroke:#FEFEFE;stroke-width:2.78;stroke-miterlimit:2.61313}
    .str0 {stroke:#FEFEFE;stroke-width:6.94;stroke-miterlimit:2.61313}
    .str2 {stroke:#FEFEFE;stroke-width:3;stroke-miterlimit:2.61313}
    .fil0 {fill:#FEFEFE}
    .fil4 {fill:#373435}
    .fil3 {fill:#56BD87}
    .fil2 {fill:#56BD87}
    .fil1 {fill:#4FB899}
    .fil5 {fill:url(#id1)}
    .fil6 {fill:url(#id2)}
   ]]>
  </style>
     <clipPath id="id0">
      <path d="M62.02 59.98l19.42 0 0 19.43 -19.42 0 0 -19.43z"/>
     </clipPath>
  <linearGradient id="id1" gradientUnits="userSpaceOnUse" x1="70.95" y1="60.72" x2="71.73" y2="79.4">
   <stop offset="0" style="stop-opacity:1; stop-color:#718FC8"/>
   <stop offset="0.25098" style="stop-opacity:1; stop-color:#B7C6E3"/>
   <stop offset="1" style="stop-opacity:1; stop-color:#FEFEFE"/>
  </linearGradient>
  <linearGradient id="id2" gradientUnits="userSpaceOnUse" x1="66.3" y1="68.43" x2="77.48" y2="71.14">
   <stop offset="0" style="stop-opacity:1; stop-color:#4AC0EF"/>
   <stop offset="0.788235" style="stop-opacity:0.584314; stop-color:#7989BD"/>
   <stop offset="1" style="stop-opacity:0.168627; stop-color:#A8518A"/>
  </linearGradient>
 </defs>
 <g id="Layer_x0020_1">
  <metadata id="CorelCorpID_0Corel-Layer"/>
  <g id="_2585707695760">
   <circle class="fil0" cx="53.33" cy="53.33" r="53.33"/>
   <polygon class="fil1" points="23.57,15.56 82.74,15.28 99.86,49.54 54.1,91.39 6.8,50.55 "/>
   <polygon class="fil2" points="54.1,91.39 99.86,49.54 82.74,15.28 23.57,15.56 6.8,50.55 "/>
   <polygon class="fil0 str0" points="34.84,33.14 72.52,33.14 72.52,39.22 56.79,39.22 56.79,71.95 49.53,71.95 49.53,39.22 34.84,39.22 "/>
   <ellipse class="fil3 str1" cx="53.33" cy="49.63" rx="18.59" ry="2.91"/>
   <ellipse class="fil0 str2" cx="62.01" cy="73.87" rx="0.76" ry="1.03"/>
   <g>
    <g style="clip-path:url(#id0)">
     <image x="62.02" y="59.98" width="19.42" height="19.43" xlink:href="logo_Images\logo_ImgID1.png"/>
    </g>
   </g>
   <g>
    <path class="fil4" d="M72.29 62.24c0,0 0,0 0,0l-0.55 7.41 -0.01 0.01 0 -0 0.55 -7.42c0,0 0.01,0 0.01,0zm5.07 2.54c0.01,0.01 0.02,0.02 0.03,0.04l-5.62 4.87 7.41 0.55c0,0 0,0.01 0,0.02 0,0 0,0 0,0 -0.16,2.06 -1.13,3.86 -2.58,5.1 -0.01,0.01 -0.02,0.02 -0.03,0.02 -1.44,1.23 -3.35,1.91 -5.39,1.76 -0,0 -0.01,0 -0.01,0 0,0 0,0 0,0l0.55 -7.41 -5.62 4.87c-0.01,-0.01 -0.02,-0.02 -0.03,-0.04l5.62 -4.87 -7.41 -0.55c0,-0 0,-0.01 0,-0.02 0,0 0,0 0,0 0.16,-2.06 1.13,-3.86 2.58,-5.1 0.01,-0.01 0.02,-0.02 0.03,-0.02l4.84 5.66 -0 0 0 0 0.01 0.01 0 0.01 -0.01 0 0 -0.02 -0.02 0.02 0.02 0 0 0.02 -0.01 0 0.01 0.01 0 -0.01 0.01 0 0 0.02 -0 0 0 0 0 -0 0.02 -0.02 0.01 0 -0 -0.01 -0 0 -0.02 0 0 -0.02 0.01 0 -0.01 -0.01 0 -0.02 5.62 -4.87zm-5.59 4.9l-0.01 0.01 -0.01 -0.01 0.02 0zm-0.04 0.03l-0.01 0.01 0 -0.02 0.01 0.01zm-0.55 7.42l0.55 -7.42 4.84 5.66m0.03 -0.02l-4.84 -5.65 7.42 0.55m-7.47 -0.56l-0.02 -0 0.01 -0.01 0.01 0.01zm-4.85 -5.67l4.84 5.65 0.01 0 -0 0 -0 -0.01 -7.42 -0.55"/>
    <path id="_1" class="fil5" d="M72.29 62.24c4.11,0.31 7.2,3.9 6.89,8.01 -0.31,4.11 -3.9,7.2 -8.01,6.89 -4.11,-0.31 -7.2,-3.9 -6.89,-8.01 0.31,-4.11 3.9,-7.2 8.01,-6.89z"/>
   </g>
   <path class="fil6" d="M70.91 72.16l4.78 -5.1c0.06,-0.06 0.11,-0.11 0.15,-0.17 0.25,-0.32 0.3,-0.72 0.17,-1.07 -0.15,-0.47 -0.6,-0.81 -1.13,-0.81l-6.88 0c-0.65,0 -1.19,0.53 -1.19,1.19l0 0c0,0.65 0.53,1.19 1.19,1.19l3.94 0 -4.69 5.01c-0.25,0.26 -0.35,0.6 -0.31,0.91 0.02,0.59 0.51,1.07 1.11,1.07l7.49 0c0.61,0 1.11,-0.5 1.11,-1.11l0 0c0,-0.61 -0.5,-1.11 -1.11,-1.11l-4.63 0z"/>
  </g>
 </g>
</svg>
