<svg width="257" height="342" viewBox="0 0 257 342" fill="none" xmlns="http://www.w3.org/2000/svg">
<mask id="mask0_73_175" style="mask-type:alpha" maskUnits="userSpaceOnUse" x="0" y="0" width="257" height="342">
<path d="M206.674 58.4508C205.327 48.7924 201.248 37.6717 190.743 29.8603C168.348 13.2755 184.432 0 184.432 0C184.432 0 143.836 8.69643 148.608 65.3002C155.765 63.7995 163.192 62.9914 170.811 62.9914C178.853 62.9914 186.703 63.9149 194.283 65.608C198.208 62.9914 202.364 60.6057 206.674 58.4508Z" fill="white"/>
<path d="M157.157 341.547C157.157 341.547 197.753 332.851 192.981 276.247C185.824 277.748 178.397 278.556 170.778 278.556C158.003 278.556 145.728 276.285 134.338 272.206C133.992 282.865 135.954 300.643 150.846 311.687C173.203 328.272 157.157 341.547 157.157 341.547Z" fill="white"/>
<path d="M69.3406 207.214C65.2233 195.824 62.9915 183.549 62.9915 170.774C62.9915 163.155 63.7995 155.728 65.3003 148.571C8.69644 143.799 0 184.396 0 184.396C0 184.396 13.2755 168.349 29.8603 190.706C40.9041 205.598 58.6817 207.56 69.3406 207.214Z" fill="white"/>
<path d="M80.5424 111.936C91.4322 95.3128 106.747 81.8448 124.833 73.3023C117.521 65.4909 103.553 54.3317 85.2369 57.0253C57.6854 61.1042 59.6479 40.3635 59.6479 40.3635C59.6479 40.3635 37.0602 75.2648 80.5424 111.936Z" fill="white"/>
<path d="M85.2369 284.517C103.553 287.249 117.521 276.052 124.833 268.24C106.747 259.698 91.3937 246.23 80.5424 229.606C37.0602 266.278 59.6479 301.141 59.6479 301.141C59.6479 301.141 57.6854 280.4 85.2369 284.517Z" fill="white"/>
<path d="M141.218 86.7247C158.849 80.1299 178.694 80.1148 196.657 85.5353C220.04 92.7926 239.779 110.439 250.093 132.588C252.939 138.897 255.664 145.476 255.935 152.493C242.791 144.874 228.381 139.936 213.942 135.434C190.845 127.107 166.664 121.325 144.801 109.882C139.712 106.841 133.222 103.724 131.837 97.385C131.28 91.9043 137.077 88.8478 141.218 86.7247Z" fill="white"/>
<path d="M87.9894 140.025C93.0936 126.172 101.465 113.314 112.833 103.783C115.724 127.558 125.842 150.534 142.555 167.819C162.596 188.643 191.144 201.426 220.188 200.944C231.722 201.306 242.999 198.641 254.247 196.488C243.18 236.479 199.35 263.024 158.741 256.64C134.229 253.508 111.598 238.993 97.9419 218.501C82.5388 195.855 78.6542 165.787 87.9894 140.025Z" fill="white"/>
<path d="M213.934 135.433C228.373 139.935 242.782 144.874 255.927 152.492C257.147 161.662 257.553 171.484 255.927 180.669C249.317 177.868 245.327 172.94 239.726 168.588C228.945 159.614 217.939 149.346 213.934 135.433Z" fill="#D9D9D9"/>
</mask>
<g mask="url(#mask0_73_175)">
<rect width="257" height="342" fill="url(#paint0_radial_73_175)"/>
</g>
<defs>
<radialGradient id="paint0_radial_73_175" cx="0" cy="0" r="1" gradientUnits="userSpaceOnUse" gradientTransform="translate(-35.0377 -51.3) rotate(53.779) scale(569.757 583.065)">
<stop offset="0.0386219" stop-color="#512763"/>
<stop offset="0.227035" stop-color="#A21E7C"/>
<stop offset="0.644652" stop-color="#FEAB53"/>
<stop offset="1" stop-color="#FFC481"/>
</radialGradient>
</defs>
</svg>
