<?xml version="1.0" encoding="UTF-8"?><svg id="a" xmlns="http://www.w3.org/2000/svg" xmlns:xlink="http://www.w3.org/1999/xlink" viewBox="0 0 512 512"><defs><style>.e{fill:url(#b);}.e,.f,.g{stroke:#202124;stroke-miterlimit:10;stroke-width:17.64px;}.f{fill:url(#c);}.g{fill:url(#d);}</style><linearGradient id="b" x1="158.17865" y1="306.19171" x2="293.78939" y2="95.78352" gradientTransform="matrix(1, 0, 0, 1, 0, 0)" gradientUnits="userSpaceOnUse"><stop offset="0" stop-color="#39a845"/><stop offset="1" stop-color="#7fd37f"/></linearGradient><linearGradient id="c" x1="248.40533" y1="432.66891" x2="395.97239" y2="302.15852" gradientTransform="matrix(1, 0, 0, 1, 0, 0)" gradientUnits="userSpaceOnUse"><stop offset="0" stop-color="#ffc300"/><stop offset="1" stop-color="#fee715"/></linearGradient><linearGradient id="d" x1="223.07643" y1="194.16682" x2="297.21609" y2="167.68273" gradientTransform="matrix(1, 0, 0, 1, 0, 0)" gradientUnits="userSpaceOnUse"><stop offset="0" stop-color="#ffd500"/><stop offset="1" stop-color="#fee715"/></linearGradient></defs><path class="e" d="M165.54239,110.60568c68.78516-2.88562,137.57031-5.7713,206.35547-8.65692-21.45178,52.21899-42.90369,104.43793-64.35547,156.65692-33.66669,1-67.33331,2-101,3-10.35437,57.66669-20.7088,115.33337-31.06317,173h-53.90491c14.65601-108,29.31207-216,43.96808-324Z"/><path class="f" d="M344.0541,339.60568h-75.38458c2.62427,18.66669,5.2486,37.33337,7.87286,56,41.50421-4.34802,83.00842-8.69592,124.5127-13.04395,1.49573,18.34802,2.99158,36.69592,4.4873,55.04395-65.66669-.66663-131.33331-1.33337-197-2,9.01501-45.17053,18.03009-90.341,27.0451-135.51147l107.9549-5.96747,.51172,45.47894Z"/><polygon class="g" points="232.20363 160.14202 219.54237 202.60566 274.22012 206.66171 293.37474 153.89464 232.20363 160.14202"/></svg>