<!-- by TradingView --><svg width="18" height="18" xmlns="http://www.w3.org/2000/svg"><path fill="url(#paint0_linear)" d="M0 0h18v18H0z"/><path fill-rule="evenodd" d="M6.6 6a.6.6 0 00-.6.6v4.8a.6.6 0 00.6.6h4.8a.6.6 0 00.6-.6V6.6a.6.6 0 00-.6-.6H6.6zM5.562 4C4.7 4 4 4.7 4 5.563v6.875C4 13.3 4.7 14 5.562 14h6.875C13.3 14 14 13.3 14 12.437V5.564C14 4.7 13.3 4 12.437 4H5.563z" fill="#fff"/><path d="M8 8.4c0-.22.18-.4.4-.4h1.2c.22 0 .4.18.4.4v1.2a.4.4 0 01-.4.4H8.4a.4.4 0 01-.4-.4V8.4z" fill="#fff"/><defs><linearGradient id="paint0_linear" x1="3.349" y1="3.122" x2="21.904" y2="24.434" gradientUnits="userSpaceOnUse"><stop stop-color="#1A1E21"/><stop offset="1" stop-color="#06060A"/></linearGradient></defs></svg>