<?xml version="1.0" encoding="UTF-8" standalone="no"?>
<!-- Created with Inkscape (http://www.inkscape.org/) -->

<svg
   width="48"
   height="48"
   viewBox="0 0 12.7 12.7"
   version="1.1"
   id="svg5"
   inkscape:version="1.1.1 (3bf5ae0d25, 2021-09-20)"
   sodipodi:docname="simoleon.svg"
   xmlns:inkscape="http://www.inkscape.org/namespaces/inkscape"
   xmlns:sodipodi="http://sodipodi.sourceforge.net/DTD/sodipodi-0.dtd"
   xmlns:xlink="http://www.w3.org/1999/xlink"
   xmlns="http://www.w3.org/2000/svg"
   xmlns:svg="http://www.w3.org/2000/svg">
  <sodipodi:namedview
     id="namedview7"
     pagecolor="#ffffff"
     bordercolor="#666666"
     borderopacity="1.0"
     inkscape:pageshadow="2"
     inkscape:pageopacity="0.0"
     inkscape:pagecheckerboard="0"
     inkscape:document-units="mm"
     showgrid="false"
     units="px"
     inkscape:zoom="7.3953472"
     inkscape:cx="11.696543"
     inkscape:cy="23.866357"
     inkscape:window-width="1920"
     inkscape:window-height="1016"
     inkscape:window-x="0"
     inkscape:window-y="0"
     inkscape:window-maximized="1"
     inkscape:current-layer="layer1" />
  <defs
     id="defs2">
    <linearGradient
       inkscape:collect="always"
       id="linearGradient9450">
      <stop
         style="stop-color:#1136d1;stop-opacity:1"
         offset="0"
         id="stop9446" />
      <stop
         style="stop-color:#31b1ff;stop-opacity:1"
         offset="1"
         id="stop9448" />
    </linearGradient>
    <linearGradient
       inkscape:collect="always"
       id="linearGradient8734">
      <stop
         style="stop-color:#dfde00;stop-opacity:0.50380933"
         offset="0"
         id="stop8730" />
      <stop
         style="stop-color:#f6e312;stop-opacity:0.02433206"
         offset="1"
         id="stop8732" />
    </linearGradient>
    <linearGradient
       inkscape:collect="always"
       id="linearGradient1100">
      <stop
         style="stop-color:#a7e829;stop-opacity:0.99607843"
         offset="0"
         id="stop1096" />
      <stop
         style="stop-color:#0a9412;stop-opacity:0.99607843"
         offset="1"
         id="stop1098" />
    </linearGradient>
    <radialGradient
       inkscape:collect="always"
       xlink:href="#linearGradient1100"
       id="radialGradient1102"
       cx="3.0565093"
       cy="2.6858499"
       fx="3.0565093"
       fy="2.6858499"
       r="6.3499999"
       gradientUnits="userSpaceOnUse"
       gradientTransform="matrix(0.74824688,-0.86888703,0.75628062,0.65127528,3.4939655,5.0126449)" />
    <radialGradient
       inkscape:collect="always"
       xlink:href="#linearGradient8734"
       id="radialGradient1102-3"
       cx="-5.4638882"
       cy="1.1821131"
       fx="-5.4638882"
       fy="1.1821131"
       r="6.3499999"
       gradientUnits="userSpaceOnUse"
       gradientTransform="matrix(1.015045,-1.1215234,1.2188937,1.1031715,7.3078393,-5.4417849)" />
    <linearGradient
       inkscape:collect="always"
       xlink:href="#linearGradient9450"
       id="linearGradient9452"
       x1="5.0419712"
       y1="10.886631"
       x2="7.6580353"
       y2="1.8132972"
       gradientUnits="userSpaceOnUse"
       gradientTransform="matrix(1.1470181,0,0,0.88951153,-0.93356655,0.70159779)" />
  </defs>
  <g
     inkscape:label="Livello 1"
     inkscape:groupmode="layer"
     id="layer1">
    <circle
       style="fill:url(#radialGradient1102);fill-opacity:1;stroke-width:0.248179;stroke-linecap:round;stroke-linejoin:round"
       id="path846"
       cx="6.3499999"
       cy="6.3499999"
       r="6.3499999" />
    <circle
       style="fill:url(#radialGradient1102-3);fill-opacity:1;stroke-width:0.248179;stroke-linecap:round;stroke-linejoin:round"
       id="path846-5"
       cx="8.7017279"
       cy="-2.2192171"
       r="6.3499999"
       transform="rotate(59.307261)" />
    <path
       id="path8860"
       style="fill:url(#linearGradient9452);fill-opacity:1;stroke-width:0.146489;stroke-linecap:round;stroke-linejoin:round"
       d="m 6.3499933,1.8326106 a 2.1217458,1.6454119 0 0 0 -0.1513066,0.00408 2.1217458,1.6454119 0 0 0 -0.053067,0.00442 2.1217458,1.6454119 0 0 0 -0.090784,0.00748 2.1217458,1.6454119 0 0 0 -0.067978,0.00918 2.1217458,1.6454119 0 0 0 -0.075872,0.010543 2.1217458,1.6454119 0 0 0 -0.065786,0.012584 2.1217458,1.6454119 0 0 0 -0.08289,0.016325 2.1217458,1.6454119 0 0 0 -0.051752,0.012924 2.1217458,1.6454119 0 0 0 -0.088152,0.022448 2.1217458,1.6454119 0 0 0 -0.05833,0.018026 2.1217458,1.6454119 0 0 0 -0.078065,0.025168 2.1217458,1.6454119 0 0 0 -0.054821,0.020066 2.1217458,1.6454119 0 0 0 -0.084643,0.03299 2.1217458,1.6454119 0 0 0 -0.038595,0.016665 2.1217458,1.6454119 0 0 0 -0.089467,0.041153 2.1217458,1.6454119 0 0 0 -0.041226,0.021087 2.1217458,1.6454119 0 0 0 -0.07982,0.042854 2.1217458,1.6454119 0 0 0 -0.048681,0.028909 2.1217458,1.6454119 0 0 0 -0.060961,0.038092 2.1217458,1.6454119 0 0 0 -0.057453,0.038432 2.1217458,1.6454119 0 0 0 -0.054383,0.039452 2.1217458,1.6454119 0 0 0 -0.026314,0.019046 2.1217458,1.6454119 0 0 0 -0.022807,0.019046 2.1217458,1.6454119 0 0 0 -0.057453,0.047955 2.1217458,1.6454119 0 0 0 -0.040349,0.036052 2.1217458,1.6454119 0 0 0 -0.053067,0.051016 2.1217458,1.6454119 0 0 0 -0.042103,0.042854 2.1217458,1.6454119 0 0 0 -0.041664,0.046595 2.1217458,1.6454119 0 0 0 -0.039911,0.046935 2.1217458,1.6454119 0 0 0 -0.041226,0.054078 2.1217458,1.6454119 0 0 0 -0.034647,0.047955 2.1217458,1.6454119 0 0 0 -0.029822,0.045915 2.1217458,1.6454119 0 0 0 -0.035525,0.058159 2.1217458,1.6454119 0 0 0 -0.027192,0.051016 2.1217458,1.6454119 0 0 0 -0.026752,0.052037 2.1217458,1.6454119 0 0 0 -0.026314,0.06088 2.1217458,1.6454119 0 0 0 -0.020174,0.050337 2.1217458,1.6454119 0 0 0 -0.022806,0.069042 2.1217458,1.6454119 0 0 0 -0.011842,0.038092 2.1217458,1.6454119 0 0 0 -0.017543,0.074144 2.1217458,1.6454119 0 0 0 -0.00965,0.043194 2.1217458,1.6454119 0 0 0 -0.00921,0.066321 2.1217458,1.6454119 0 0 0 -0.00614,0.047275 2.1217458,1.6454119 0 0 0 -0.00526,0.114617 2.1217458,1.6454119 0 0 0 0.00526,0.1146171 2.1217458,1.6454119 0 0 0 0.0057,0.043874 2.1217458,1.6454119 0 0 0 0.00965,0.070403 2.1217458,1.6454119 0 0 0 0.00877,0.038772 2.1217458,1.6454119 0 0 0 0.01842,0.077545 2.1217458,1.6454119 0 0 0 0.013158,0.041493 2.1217458,1.6454119 0 0 0 0.021051,0.064281 2.1217458,1.6454119 0 0 0 0.021928,0.054758 2.1217458,1.6454119 0 0 0 0.024999,0.057819 2.1217458,1.6454119 0 0 0 0.029384,0.057478 2.1217458,1.6454119 0 0 0 0.023243,0.043534 2.1217458,1.6454119 0 0 0 0.036839,0.060199 2.1217458,1.6454119 0 0 0 0.031577,0.048636 2.1217458,1.6454119 0 0 0 0.028507,0.039453 2.1217458,1.6454119 0 0 0 0.048242,0.06326 2.1217458,1.6454119 0 0 0 0.033331,0.039113 2.1217458,1.6454119 0 0 0 0.046488,0.052037 2.1217458,1.6454119 0 0 0 0.041226,0.042174 2.1217458,1.6454119 0 0 0 0.053068,0.051017 2.1217458,1.6454119 0 0 0 0.040348,0.036052 2.1217458,1.6454119 0 0 0 0.057453,0.047955 2.1217458,1.6454119 0 0 0 0.022806,0.019046 l 8.742e-4,-6.779e-4 a 2.1217458,1.6454119 0 0 0 0.4657606,0.2727682 2.1217458,1.6454119 0 0 0 -1.0880903,1.4362848 2.1217458,1.6454119 0 0 0 2.1217981,1.6454525 1.581298,1.2262952 0 0 1 1.1472968,0.3819435 1.581298,1.2262952 0 0 1 0.017104,0.014285 1.581298,1.2262952 0 0 1 0.010965,0.00952 1.581298,1.2262952 0 0 1 0.00307,0.00238 1.581298,1.2262952 0 0 1 0.024122,0.021767 1.581298,1.2262952 0 0 1 0.00439,0.00374 1.581298,1.2262952 0 0 1 0.00833,0.00782 1.581298,1.2262952 0 0 1 0.019296,0.018366 1.581298,1.2262952 0 0 1 0.020174,0.019726 1.581298,1.2262952 0 0 1 0.00657,0.0068 1.581298,1.2262952 0 0 1 0.01842,0.019046 1.581298,1.2262952 0 0 1 0.00746,0.00817 1.581298,1.2262952 0 0 1 0.016227,0.018025 1.581298,1.2262952 0 0 1 0.00877,0.00986 1.581298,1.2262952 0 0 1 0.014473,0.017006 1.581298,1.2262952 0 0 1 0.00921,0.011224 1.581298,1.2262952 0 0 1 0.012718,0.015985 1.581298,1.2262952 0 0 1 0.010083,0.012925 1.581298,1.2262952 0 0 1 0.050435,0.071083 1.581298,1.2262952 0 0 1 0.011842,0.018026 1.581298,1.2262952 0 0 1 0.00657,0.010543 1.581298,1.2262952 0 0 1 0.029384,0.051017 1.581298,1.2262952 0 0 1 0.00439,0.00782 1.581298,1.2262952 0 0 1 0.01228,0.02347 1.581298,1.2262952 0 0 1 0.00307,0.00612 1.581298,1.2262952 0 0 1 0.011842,0.02551 1.581298,1.2262952 0 0 1 0.00219,0.00474 1.581298,1.2262952 0 0 1 0.01228,0.027208 1.581298,1.2262952 0 0 1 0.00132,0.00302 1.581298,1.2262952 0 0 1 0.011401,0.029248 1.581298,1.2262952 0 0 1 0.022367,0.063604 1.581298,1.2262952 0 0 1 0.00132,0.00474 1.581298,1.2262952 0 0 1 0.022807,0.089789 1.581298,1.2262952 0 0 1 0.00132,0.00645 1.581298,1.2262952 0 0 1 0.015789,0.1210792 1.581298,1.2262952 0 0 1 8.742e-4,0.013604 1.581298,1.2262952 0 0 1 8.741e-4,0.018369 1.581298,1.2262952 0 0 1 0,0.00612 1.581298,1.2262952 0 0 1 4.385e-4,0.026188 1.581298,1.2262952 0 0 1 -4.385e-4,0.031974 1.581298,1.2262952 0 0 1 -8.741e-4,0.018705 1.581298,1.2262952 0 0 1 -0.012281,0.1091751 1.581298,1.2262952 0 0 1 -0.00439,0.025168 1.581298,1.2262952 0 0 1 -0.00132,0.0068 1.581298,1.2262952 0 0 1 -0.0057,0.02653 1.581298,1.2262952 0 0 1 -0.017104,0.063262 1.581298,1.2262952 0 0 1 -8.741e-4,0.0031 1.581298,1.2262952 0 0 1 -0.021928,0.063604 1.581298,1.2262952 0 0 1 -0.010965,0.02755 1.581298,1.2262952 0 0 1 -0.00132,0.00311 1.581298,1.2262952 0 0 1 -0.00132,0.00338 1.581298,1.2262952 0 0 1 -0.01228,0.02721 1.581298,1.2262952 0 0 1 -0.00219,0.00445 1.581298,1.2262952 0 0 1 -0.011842,0.025511 1.581298,1.2262952 0 0 1 -0.00307,0.00649 1.581298,1.2262952 0 0 1 -0.01228,0.023465 1.581298,1.2262952 0 0 1 -0.021929,0.038774 1.581298,1.2262952 0 0 1 -0.011842,0.019721 1.581298,1.2262952 0 0 1 -0.00657,0.010541 1.581298,1.2262952 0 0 1 -0.011842,0.018368 1.581298,1.2262952 0 0 1 -0.0079,0.011902 1.581298,1.2262952 0 0 1 -0.031577,0.044556 1.581298,1.2262952 0 0 1 -0.010966,0.014624 1.581298,1.2262952 0 0 1 -0.010083,0.012925 1.581298,1.2262952 0 0 1 -0.0364,0.043871 1.581298,1.2262952 0 0 1 -0.00877,0.00986 1.581298,1.2262952 0 0 1 -0.016227,0.01803 1.581298,1.2262952 0 0 1 -0.00746,0.00818 1.581298,1.2262952 0 0 1 -0.01842,0.019044 1.581298,1.2262952 0 0 1 -0.00657,0.00676 1.581298,1.2262952 0 0 1 -0.020173,0.020067 1.581298,1.2262952 0 0 1 -0.00526,0.00516 1.581298,1.2262952 0 0 1 -0.022367,0.020744 1.581298,1.2262952 0 0 1 -0.00439,0.0041 1.581298,1.2262952 0 0 1 -0.024122,0.02143 1.581298,1.2262952 0 0 1 -0.00307,0.0027 1.581298,1.2262952 0 0 1 -0.026752,0.0221 1.581298,1.2262952 0 0 1 -0.00132,0.0014 1.581298,1.2262952 0 0 1 -0.028945,0.02313 1.581298,1.2262952 0 0 1 -0.1986716,0.130262 1.581298,1.2262952 0 0 1 -0.00176,0.0014 1.581298,1.2262952 0 0 1 -0.104818,0.05305 1.581298,1.2262952 0 0 1 -0.00746,0.0034 1.581298,1.2262952 0 0 1 -0.224986,0.08503 1.581298,1.2262952 0 0 1 -0.014034,0.0044 1.581298,1.2262952 0 0 1 -0.1087649,0.02891 1.581298,1.2262952 0 0 1 -0.01228,0.0027 1.581298,1.2262952 0 0 1 -0.1210451,0.0238 1.581298,1.2262952 0 0 1 -8.741e-4,0 1.581298,1.2262952 0 0 1 -0.1280623,0.01666 1.581298,1.2262952 0 0 1 -8.741e-4,0 1.581298,1.2262952 0 0 1 -0.1263081,0.0082 1.581298,1.2262952 0 0 1 -0.00614,3.4e-4 1.581298,1.2262952 0 0 1 -1.1806244,-0.358225 l -0.3819939,0.296235 a 2.1217458,1.6454119 0 0 0 1.5003455,0.481936 2.1217458,1.6454119 0 0 0 0.1513064,-0.0044 2.1217458,1.6454119 0 0 0 0.00132,0 2.1217458,1.6454119 0 0 0 0.1438507,-0.0119 2.1217458,1.6454119 0 0 0 0.016666,-0.002 2.1217458,1.6454119 0 0 0 0.2736671,-0.04625 2.1217458,1.6454119 0 0 0 0.021489,-0.0047 2.1217458,1.6454119 0 0 0 0.1210451,-0.03129 2.1217458,1.6454119 0 0 0 0.026753,-0.0075 2.1217458,1.6454119 0 0 0 0.1144667,-0.03707 2.1217458,1.6454119 0 0 0 0.018858,-0.0065 2.1217458,1.6454119 0 0 0 0.1276237,-0.04966 2.1217458,1.6454119 0 0 0 0.00176,-6.59e-4 2.1217458,1.6454119 0 0 0 0.1245536,-0.05748 2.1217458,1.6454119 0 0 0 0.012718,-0.0065 2.1217458,1.6454119 0 0 0 0.1153437,-0.06224 2.1217458,1.6454119 0 0 0 0.00219,-0.0014 2.1217458,1.6454119 0 0 0 0.2267404,-0.152369 2.1217458,1.6454119 0 0 0 0.017104,-0.01326 2.1217458,1.6454119 0 0 0 0.01842,-0.01497 2.1217458,1.6454119 0 0 0 0.014911,-0.01224 2.1217458,1.6454119 0 0 0 0.019296,-0.01632 2.1217458,1.6454119 0 0 0 0.013157,-0.01122 2.1217458,1.6454119 0 0 0 0.053067,-0.04795 2.1217458,1.6454119 0 0 0 0.00965,-0.0092 2.1217458,1.6454119 0 0 0 0.052629,-0.05237 2.1217458,1.6454119 0 0 0 0.00657,-0.0068 2.1217458,1.6454119 0 0 0 0.05219,-0.05714 2.1217458,1.6454119 0 0 0 0.00351,-0.0041 2.1217458,1.6454119 0 0 0 0.050875,-0.06156 2.1217458,1.6454119 0 0 0 0.00132,-0.0014 2.1217458,1.6454119 0 0 0 0.072802,-0.1010125 2.1217458,1.6454119 0 0 0 0.010083,-0.015647 2.1217458,1.6454119 0 0 0 0.012718,-0.019391 2.1217458,1.6454119 0 0 0 0.017981,-0.029247 2.1217458,1.6454119 0 0 0 0.00351,-0.00614 2.1217458,1.6454119 0 0 0 0.016227,-0.028224 2.1217458,1.6454119 0 0 0 0.00439,-0.00783 2.1217458,1.6454119 0 0 0 0.032015,-0.061554 2.1217458,1.6454119 0 0 0 0.066663,-0.1601921 2.1217458,1.6454119 0 0 0 0.00614,-0.01803 2.1217458,1.6454119 0 0 0 0.00176,-0.00578 2.1217458,1.6454119 0 0 0 0.020173,-0.067341 2.1217458,1.6454119 0 0 0 0.00614,-0.02347 2.1217458,1.6454119 0 0 0 0.00307,-0.013262 2.1217458,1.6454119 0 0 0 0.0057,-0.025168 2.1217458,1.6454119 0 0 0 0.00263,-0.011906 2.1217458,1.6454119 0 0 0 0.00526,-0.026866 2.1217458,1.6454119 0 0 0 0.00176,-0.00987 2.1217458,1.6454119 0 0 0 0.00482,-0.028907 2.1217458,1.6454119 0 0 0 0.00132,-0.0085 2.1217458,1.6454119 0 0 0 0.00394,-0.030268 2.1217458,1.6454119 0 0 0 0,-3.396e-4 2.1217458,1.6454119 0 0 0 8.742e-4,-0.00645 2.1217458,1.6454119 0 0 0 0.00351,-0.032309 2.1217458,1.6454119 0 0 0 4.385e-4,-0.00513 2.1217458,1.6454119 0 0 0 4.385e-4,-0.00474 2.1217458,1.6454119 0 0 0 0.00219,-0.032651 2.1217458,1.6454119 0 0 0 0.00176,-0.035711 2.1217458,1.6454119 0 0 0 0,-0.00171 2.1217458,1.6454119 0 0 0 4.385e-4,-0.037409 2.1217458,1.6454119 0 0 0 -4.385e-4,-0.039115 2.1217458,1.6454119 0 0 0 -0.00439,-0.073124 2.1217458,1.6454119 0 0 0 -4.385e-4,-0.00513 2.1217458,1.6454119 0 0 0 -0.00351,-0.032309 2.1217458,1.6454119 0 0 0 -8.742e-4,-0.0068 2.1217458,1.6454119 0 0 0 -0.00394,-0.030611 2.1217458,1.6454119 0 0 0 -0.00132,-0.0085 2.1217458,1.6454119 0 0 0 -0.00482,-0.02857 2.1217458,1.6454119 0 0 0 -0.00176,-0.010201 2.1217458,1.6454119 0 0 0 -0.00526,-0.026866 2.1217458,1.6454119 0 0 0 -0.00263,-0.011906 2.1217458,1.6454119 0 0 0 -0.014911,-0.061899 2.1217458,1.6454119 0 0 0 0,-6.581e-4 2.1217458,1.6454119 0 0 0 -0.021928,-0.072102 2.1217458,1.6454119 0 0 0 -0.050435,-0.1306024 2.1217458,1.6454119 0 0 0 -0.0057,-0.012584 2.1217458,1.6454119 0 0 0 -0.011401,-0.024148 2.1217458,1.6454119 0 0 0 -0.00526,-0.011224 2.1217458,1.6454119 0 0 0 -0.00614,-0.011564 2.1217458,1.6454119 0 0 0 -0.011842,-0.023127 2.1217458,1.6454119 0 0 0 -0.014035,-0.026869 2.1217458,1.6454119 0 0 0 -0.00439,-0.00782 2.1217458,1.6454119 0 0 0 -0.016227,-0.027889 2.1217458,1.6454119 0 0 0 -0.00351,-0.00612 2.1217458,1.6454119 0 0 0 -0.017981,-0.02925 2.1217458,1.6454119 0 0 0 -0.00307,-0.00476 2.1217458,1.6454119 0 0 0 -0.019737,-0.03027 2.1217458,1.6454119 0 0 0 -0.00176,-0.00306 2.1217458,1.6454119 0 0 0 -0.021928,-0.03163 2.1217458,1.6454119 0 0 0 -8.742e-4,-0.00136 2.1217458,1.6454119 0 0 0 -0.049558,-0.066321 2.1217458,1.6454119 0 0 0 -0.024122,-0.03027 2.1217458,1.6454119 0 0 0 -0.00263,-0.00306 2.1217458,1.6454119 0 0 0 -0.024122,-0.028569 2.1217458,1.6454119 0 0 0 -0.00351,-0.00408 2.1217458,1.6454119 0 0 0 -0.023683,-0.026529 2.1217458,1.6454119 0 0 0 -0.00526,-0.00578 2.1217458,1.6454119 0 0 0 -0.023243,-0.024488 2.1217458,1.6454119 0 0 0 -0.00657,-0.00714 2.1217458,1.6454119 0 0 0 -0.022367,-0.022787 2.1217458,1.6454119 0 0 0 -0.00833,-0.00817 A 2.1217458,1.6454119 0 0 0 7.9757646,8.1645761 2.1217458,1.6454119 0 0 0 7.9533973,8.1441698 2.1217458,1.6454119 0 0 0 7.9332238,8.1261438 2.1217458,1.6454119 0 0 0 7.9301499,8.12376 2.1217458,1.6454119 0 0 0 7.8674427,8.0715894 2.1217458,1.6454119 0 0 0 7.3858938,7.785897 2.1217458,1.6454119 0 0 0 8.4717911,6.3499524 2.1217458,1.6454119 0 0 0 6.3499933,4.7044999 1.581298,1.2262952 0 0 1 5.2316419,4.3453437 1.581298,1.2262952 0 0 1 5.110158,4.2375288 1.581298,1.2262952 0 0 1 5.0325315,4.1548816 1.581298,1.2262952 0 0 1 4.9965694,4.1120276 1.581298,1.2262952 0 0 1 4.9663078,4.0698541 1.581298,1.2262952 0 0 1 4.9364853,4.0276806 1.581298,1.2262952 0 0 1 4.9071011,3.9776847 1.581298,1.2262952 0 0 1 4.8842946,3.9368712 1.581298,1.2262952 0 0 1 4.86105,3.8882354 1.581298,1.2262952 0 0 1 4.841754,3.8443614 1.581298,1.2262952 0 0 1 4.823772,3.7953854 1.581298,1.2262952 0 0 1 4.807545,3.7460694 a 1.581298,1.2262952 0 0 1 -0.01053,-0.040473 1.581298,1.2262952 0 0 1 -0.013157,-0.06088 1.581298,1.2262952 0 0 1 -0.00526,-0.036732 1.581298,1.2262952 0 0 1 -0.00657,-0.058159 1.581298,1.2262952 0 0 1 -0.00219,-0.045574 1.581298,1.2262952 0 0 1 0,-0.052377 1.581298,1.2262952 0 0 1 0.00219,-0.045574 1.581298,1.2262952 0 0 1 0.00657,-0.058159 1.581298,1.2262952 0 0 1 0.00526,-0.036732 1.581298,1.2262952 0 0 1 0.013157,-0.06088 1.581298,1.2262952 0 0 1 0.01053,-0.040473 1.581298,1.2262952 0 0 1 0.016227,-0.050337 1.581298,1.2262952 0 0 1 0.017104,-0.046595 1.581298,1.2262952 0 0 1 0.021491,-0.048296 1.581298,1.2262952 0 0 1 0.021489,-0.045574 1.581298,1.2262952 0 0 1 0.023243,-0.040814 1.581298,1.2262952 0 0 1 0.029384,-0.049996 1.581298,1.2262952 0 0 1 0.029823,-0.042174 1.581298,1.2262952 0 0 1 0.030262,-0.042514 1.581298,1.2262952 0 0 1 0.034647,-0.041153 1.581298,1.2262952 0 0 1 0.1162208,-0.1210792 1.581298,1.2262952 0 0 1 0.084206,-0.070743 1.581298,1.2262952 0 0 1 0.3008583,-0.182299 1.581298,1.2262952 0 0 1 0.054383,-0.023468 1.581298,1.2262952 0 0 1 0.054822,-0.023127 1.581298,1.2262952 0 0 1 0.059645,-0.021427 1.581298,1.2262952 0 0 1 0.057891,-0.019727 1.581298,1.2262952 0 0 1 0.056137,-0.015985 1.581298,1.2262952 0 0 1 0.068416,-0.018026 1.581298,1.2262952 0 0 1 0.046489,-0.010204 1.581298,1.2262952 0 0 1 0.074118,-0.014965 1.581298,1.2262952 0 0 1 0.060522,-0.00918 1.581298,1.2262952 0 0 1 0.0614,-0.00782 1.581298,1.2262952 0 0 1 0.065785,-0.00612 1.581298,1.2262952 0 0 1 0.063153,-0.00408 1.581298,1.2262952 0 0 1 0.060961,-0.0017 1.581298,1.2262952 0 0 1 1.1521213,0.3581359 L 7.8503385,2.3145466 A 2.1217458,1.6454119 0 0 0 6.3499933,1.8326106 Z m 0,3.2909049 a 1.581298,1.2262952 0 0 1 0.08289,0.0017 1.581298,1.2262952 0 0 1 0.041226,0.00204 1.581298,1.2262952 0 0 1 0.082451,0.0068 1.581298,1.2262952 0 0 1 0.040787,0.00442 1.581298,1.2262952 0 0 1 0.081574,0.011564 1.581298,1.2262952 0 0 1 0.040349,0.00714 1.581298,1.2262952 0 0 1 0.07982,0.016665 1.581298,1.2262952 0 0 1 0.03991,0.00952 1.581298,1.2262952 0 0 1 0.077627,0.021426 1.581298,1.2262952 0 0 1 0.038594,0.011904 1.581298,1.2262952 0 0 1 0.075873,0.026188 1.581298,1.2262952 0 0 1 0.036839,0.014285 1.581298,1.2262952 0 0 1 0.072802,0.03061 1.581298,1.2262952 0 0 1 0.035525,0.016325 1.581298,1.2262952 0 0 1 0.069732,0.035032 1.581298,1.2262952 0 0 1 0.033769,0.018366 1.581298,1.2262952 0 0 1 0.065786,0.039113 1.581298,1.2262952 0 0 1 0.031577,0.020747 1.581298,1.2262952 0 0 1 0.0614,0.042854 1.581298,1.2262952 0 0 1 0.029822,0.022448 1.581298,1.2262952 0 0 1 0.057014,0.046595 1.581298,1.2262952 0 0 1 0.027191,0.024148 1.581298,1.2262952 0 0 1 0.052189,0.049656 1.581298,1.2262952 0 0 1 0.024999,0.025848 1.581298,1.2262952 0 0 1 0.046927,0.053057 1.581298,1.2262952 0 0 1 0.021929,0.027208 1.581298,1.2262952 0 0 1 0.041226,0.055438 1.581298,1.2262952 0 0 1 0.019296,0.028569 1.581298,1.2262952 0 0 1 0.035962,0.057819 1.581298,1.2262952 0 0 1 0.016227,0.02959 1.581298,1.2262952 0 0 1 0.029384,0.05986 1.581298,1.2262952 0 0 1 0.013596,0.03027 1.581298,1.2262952 0 0 1 0.023245,0.06156 1.581298,1.2262952 0 0 1 0.01053,0.03129 1.581298,1.2262952 0 0 1 0.017104,0.06292 1.581298,1.2262952 0 0 1 0.00702,0.03163 1.581298,1.2262952 0 0 1 0.01053,0.063601 1.581298,1.2262952 0 0 1 0.00394,0.031971 1.581298,1.2262952 0 0 1 0.00439,0.063941 1.581298,1.2262952 0 0 1 4.385e-4,0.032311 1.581298,1.2262952 0 0 1 -0.00219,0.063941 1.581298,1.2262952 0 0 1 -0.00263,0.03231 1.581298,1.2262952 0 0 1 -0.00877,0.063601 1.581298,1.2262952 0 0 1 -0.0057,0.031971 1.581298,1.2262952 0 0 1 -0.01535,0.06326 1.581298,1.2262952 0 0 1 -0.00877,0.031289 1.581298,1.2262952 0 0 1 -0.021489,0.0619 1.581298,1.2262952 0 0 1 -0.01228,0.03061 1.581298,1.2262952 0 0 1 -0.02763,0.060539 1.581298,1.2262952 0 0 1 -0.01535,0.029929 1.581298,1.2262952 0 0 1 -0.03377,0.058499 1.581298,1.2262952 0 0 1 -0.01842,0.028909 1.581298,1.2262952 0 0 1 -0.039472,0.056458 1.581298,1.2262952 0 0 1 -0.021051,0.027549 1.581298,1.2262952 0 0 1 -0.045173,0.053737 1.581298,1.2262952 0 0 1 -0.023683,0.026188 1.581298,1.2262952 0 0 1 -0.050436,0.051017 1.581298,1.2262952 0 0 1 -0.026753,0.024828 1.581298,1.2262952 0 0 1 -0.05526,0.047616 1.581298,1.2262952 0 0 1 -0.028945,0.023127 1.581298,1.2262952 0 0 1 -0.060084,0.044214 1.581298,1.2262952 0 0 1 -0.031138,0.021087 1.581298,1.2262952 0 0 1 -0.064469,0.040473 1.581298,1.2262952 0 0 1 -0.032893,0.019046 1.581298,1.2262952 0 0 1 -0.068416,0.036392 1.581298,1.2262952 0 0 1 -0.035085,0.017346 1.581298,1.2262952 0 0 1 -0.071487,0.03197 1.581298,1.2262952 0 0 1 -0.03684,0.014965 1.581298,1.2262952 0 0 1 -0.074557,0.027549 1.581298,1.2262952 0 0 1 -0.038156,0.012584 1.581298,1.2262952 0 0 1 -0.077188,0.023127 1.581298,1.2262952 0 0 1 -0.039033,0.010204 1.581298,1.2262952 0 0 1 -0.07982,0.018366 1.581298,1.2262952 0 0 1 -0.039911,0.00782 1.581298,1.2262952 0 0 1 -0.081134,0.013264 1.581298,1.2262952 0 0 1 -0.040787,0.00544 1.581298,1.2262952 0 0 1 -0.082013,0.0085 1.581298,1.2262952 0 0 1 -0.041226,0.00306 1.581298,1.2262952 0 0 1 -0.124115,0.00374 1.581298,1.2262952 0 0 1 -1.5814958,-1.22642 1.581298,1.2262952 0 0 1 0.00482,-0.096251 1.581298,1.2262952 0 0 1 1.5766566,-1.1301857 z" />
  </g>
</svg>
