<svg width="256" height="256" viewBox="0 0 256 256" xmlns="http://www.w3.org/2000/svg">
<circle cx="128" cy="128" r="120" fill="#0f0f00"/>
<circle cx="128" cy="128" r="120" fill="none" stroke="#FFD700" stroke-width="4"/>
<circle cx="128" cy="128" r="100" fill="none" stroke="#FFD700" stroke-width="0.5" stroke-dasharray="6,5" opacity="0.5"/>
<polygon points="128,50 158,78 158,128 128,148 98,128 98,78" fill="none" stroke="#FFD700" stroke-width="1.5" opacity="0.6"/>
<line x1="128" y1="20" x2="128" y2="50" stroke="#FFD700" stroke-width="1.5" opacity="0.5"/>
<line x1="128" y1="206" x2="128" y2="236" stroke="#FFD700" stroke-width="1.5" opacity="0.5"/>
<line x1="20" y1="128" x2="50" y2="128" stroke="#FFD700" stroke-width="1.5" opacity="0.5"/>
<line x1="206" y1="128" x2="236" y2="128" stroke="#FFD700" stroke-width="1.5" opacity="0.5"/>
<circle cx="128" cy="20" r="3" fill="#FFD700"/>
<circle cx="128" cy="236" r="3" fill="#FFD700"/>
<circle cx="20" cy="128" r="3" fill="#FFD700"/>
<circle cx="236" cy="128" r="3" fill="#FFD700"/>
<text x="128" y="122" text-anchor="middle" font-family="Arial Black, Arial" font-weight="900" font-size="42" fill="#FFD700" letter-spacing="3">GACT</text>
<rect x="68" y="130" width="120" height="2" fill="#FFD700" opacity="0.8" rx="1"/>
<text x="128" y="155" text-anchor="middle" font-family="Arial, sans-serif" font-weight="400" font-size="11" fill="#FFC200" letter-spacing="4">TOKEN</text>
<text x="128" y="175" text-anchor="middle" font-family="Arial, sans-serif" font-weight="400" font-size="7" fill="#CC9A00" letter-spacing="2">GLOBAL ASSET CONTROL</text>
<circle cx="80" cy="78" r="2.5" fill="#FFD700" opacity="0.6"/>
<circle cx="176" cy="78" r="2.5" fill="#FFD700" opacity="0.6"/>
<circle cx="80" cy="178" r="2.5" fill="#FFD700" opacity="0.6"/>
<circle cx="176" cy="178" r="2.5" fill="#FFD700" opacity="0.6"/>
<circle cx="128" cy="128" r="120" fill="none" stroke="#FFD700" stroke-width="2" opacity="0.2"/>
</svg>
