<!-- by TradingView --><svg width="18" height="18" xmlns="http://www.w3.org/2000/svg"><path fill="#00529B" d="M0 0h18v18H0z"/><path d="M4.817 4.002C3.642 4.48 3 5.342 3 5.342c.177-.026.348-.182.53-.25 1.86-.699 3.27-.456 4.949.902 1.376 1.225 1.885 3.071 1.424 4.87a5.46 5.46 0 01-1.167 2.127c1.826-1.011 2.844-2.883 2.646-4.932-.177-1.538-1.314-3.11-2.742-3.77-.518-.26-1.875-.99-3.824-.287z" fill="#fff"/><path d="M8.731 13c1.595-.45 3.117-1.843 3.514-3.413.471-1.773-.005-3.372-1.425-4.587H13v8M4.503 13h3.862c-.614-1.16-1.669-1.953-2.905-2.365-.148 1.04-.498 1.839-.957 2.365z" fill="#fff"/><path d="M5.561 8.408c-.036-.016-.073-.03-.11-.045a6.99 6.99 0 01.09 1.45c1.257.556 2.316 1.625 2.757 2.866l.145.34A4.876 4.876 0 005.56 8.41z" fill="#fff"/><path d="M6.664 6.046c-.832-.39-1.797-.587-2.815-.44.448.172.914.72 1.244 1.521 1.44.437 2.696 1.563 3.205 2.923.401.928.522 1.935.308 2.962.472-.636.629-1.293.736-2.086a4.782 4.782 0 00-2.678-4.88z" fill="#fff"/></svg>