<svg viewBox="0 0 285.71 182.42" xmlns="http://www.w3.org/2000/svg" xmlns:xlink="http://www.w3.org/1999/xlink"><linearGradient id="a" gradientUnits="userSpaceOnUse" x1="214.29" x2="292.85" y1="314.71" y2="128.58"><stop offset=".01" stop-color="#1d5aaa"/><stop offset="1" stop-color="#16f8c8"/></linearGradient><ellipse cx="250" cy="227.55" fill="#0e095d" rx="91.22" ry="91.21" transform="matrix(.99999701 -.00244346 .00244346 .99999701 -159.35 -135.72)"/><path d="m264.6 143.25a54.64 54.64 0 0 0 -38.6 15.8 51.23 51.23 0 0 0 -15.31 36.45v102c0 7.88 6 14.22 13.49 14.22 7.47 0 13.48-6.34 13.48-14.22v-102c0-14.27 11.83-25.85 26.5-26.1h.47c14.9 0 27 11.69 27 26.12s-12.07 26.11-27 26.12v26.12c29.79 0 53.93-23.39 53.93-52.24s-24.17-52.27-53.96-52.27z" fill="url(#a)" transform="translate(-158.78 -136.34)"/><text x="-158.78" y="-136.34"/></svg>