<?xml version="1.0" encoding="UTF-8" standalone="no"?>
<svg
   xmlns:dc="http://purl.org/dc/elements/1.1/"
   xmlns:cc="http://creativecommons.org/ns#"
   xmlns:rdf="http://www.w3.org/1999/02/22-rdf-syntax-ns#"
   xmlns:svg="http://www.w3.org/2000/svg"
   xmlns="http://www.w3.org/2000/svg"
   xmlns:xlink="http://www.w3.org/1999/xlink"
   width="100"
   height="100"
   viewBox="0 0 100 100"
   version="1.1"
   id="svg8">
  <defs
     id="defs2">
    <linearGradient
       id="linearGradient12">
      <stop
         style="stop-color:#d53ae8;stop-opacity:1"
         offset="0"
         id="stop8" />
      <stop
         style="stop-color:#00febe;stop-opacity:1"
         offset="1"
         id="stop10" />
    </linearGradient>
    <linearGradient
       xlink:href="#linearGradient12"
       id="linearGradient14"
       x1="593.3689"
       y1="104.75898"
       x2="485.05164"
       y2="213.07623"
       gradientUnits="userSpaceOnUse"
       gradientTransform="matrix(0.80468773,0,0,0.80468749,105.95458,30.181993)" />
  </defs>
  <metadata
     id="metadata5">
    <rdf:RDF>
      <cc:Work
         rdf:about="">
        <dc:format>image/svg+xml</dc:format>
        <dc:type
           rdf:resource="http://purl.org/dc/dcmitype/StillImage" />
        <dc:title></dc:title>
      </cc:Work>
    </rdf:RDF>
  </metadata>
  <g
     id="layer1"
     transform="translate(1103.5427,256.19164)">
    <g
       id="layer1-2"
       transform="matrix(0.73818902,0,0,0.73818902,-1454.0014,-320.26533)">
      <circle
         style="fill:#ffffff;fill-opacity:1;stroke-width:0.239608"
         id="path841"
         cx="542.48798"
         cy="154.53181"
         r="67.73333" />
      <path
         style="fill:url(#linearGradient14);fill-opacity:1;stroke-width:0.213167"
         d="m 539.83763,208.75515 c -0.91842,-0.40093 -1.97293,-1.69211 -2.14874,-2.63099 -0.10466,-0.55896 0.0951,-2.16886 0.65569,-5.28539 0.44339,-2.46488 0.85099,-4.59882 0.90578,-4.74207 0.0779,-0.20365 -4.30575,-0.27346 -20.09953,-0.32005 l -20.19914,-0.0596 -1.70375,-0.58129 c -2.40342,-0.82003 -4.1826,-1.94964 -5.86414,-3.72318 -2.16801,-2.28661 -3.39997,-5.16403 -3.39997,-7.94106 0,-3.05169 3.19353,-5.15526 5.86181,-3.86115 1.12103,0.5437 2.15238,1.81442 2.35623,2.90313 l 0.13513,0.72159 h 2.63491 2.6349 l 0.0567,-30.99151 0.0567,-30.99154 0.49247,-1.22147 c 1.05848,-2.62534 3.13708,-4.69109 5.79495,-5.7591 1.04031,-0.41802 1.6444,-0.4775 5.58556,-0.54997 l 4.41909,-0.0813 v -5.10902 c 0,-4.12867 0.0633,-5.26066 0.32962,-5.89936 1.42464,-3.416052 6.0089,-3.416052 7.43355,0 0.1813,0.43469 0.32962,1.14747 0.32962,1.58393 v 0.79358 l 2.09435,-2.06151 c 2.90076,-2.85527 4.34834,-3.433244 6.3179,-2.52254 2.01447,0.93148 2.93777,3.13285 2.12818,5.0741 -0.18656,0.44734 -1.81208,2.29835 -3.88199,4.42051 l -3.56103,3.65092 23.42182,0.10668 23.42182,0.10668 1.16647,0.478 c 2.67968,1.09808 4.74404,3.15396 5.79218,5.76837 0.47268,1.17906 0.49207,1.47897 0.55829,8.63597 0.0377,4.07798 0.087,7.41449 0.10948,7.41449 0.0225,0 2.05323,0.5761 4.51277,1.2802 2.45954,0.70412 4.79784,1.18747 5.1711,1.28021 2.11472,0.52536 3.98858,2.16347 3.57902,4.35067 -0.21816,1.16507 -1.18075,2.15817 -7.36582,7.59918 l -5.85663,5.15208 -0.10649,16.25293 c -0.1063,16.22475 -0.10731,16.25494 -0.58358,17.42156 -1.09532,2.68296 -3.14288,4.74766 -5.75759,5.8058 -1.21112,0.49011 -1.29156,0.4938 -12.13381,0.55582 -8.34837,0.0477 -10.91521,0.12299 -10.91709,0.32005 -0.002,0.14169 0.34884,2.27608 0.77819,4.74309 0.9205,5.28907 0.89313,5.74056 -0.42826,7.06442 -0.97412,0.97594 -1.94601,1.29276 -3.2271,1.05197 -0.92608,-0.17405 -2.19453,-1.25906 -2.59525,-2.21994 -0.16511,-0.3959 -0.68441,-2.89228 -1.15397,-5.54749 -0.46957,-2.6552 -0.87335,-4.84727 -0.89726,-4.87122 -0.0239,-0.024 -0.40804,1.99082 -0.85359,4.47731 -0.44556,2.48648 -0.94877,4.96021 -1.11825,5.49717 -0.68224,2.1615 -2.94886,3.30392 -4.88137,2.4603 z m 26.54389,-65.18733 c 2.60604,-0.99178 4.92556,-3.30308 5.96638,-5.94525 0.69018,-1.75203 0.69018,-5.1716 0,-6.92364 -1.03617,-2.63038 -3.3249,-4.91798 -5.96638,-5.96346 -1.71428,-0.67849 -5.15147,-0.67849 -6.86575,0 -3.67203,1.45336 -6.22295,4.85118 -6.51538,8.6785 -0.36144,4.73031 2.77041,9.14451 7.41492,10.45102 1.57176,0.44214 4.39277,0.30162 5.96621,-0.29717 z m -4.82112,-6.07717 c -0.89912,-0.39251 -1.97171,-1.68555 -2.13893,-2.57855 -0.24033,-1.28349 0.0759,-2.25719 1.05002,-3.23314 1.53384,-1.53671 3.42047,-1.53671 4.95431,0 1.42962,1.4323 1.51972,3.28799 0.23101,4.7585 -1.11899,1.27683 -2.6704,1.67571 -4.09641,1.05319 z"
         id="path36" />
    </g>
  </g>
</svg>