<svg width="80" height="80" viewBox="0 0 80 80" fill="none" xmlns="http://www.w3.org/2000/svg">
<rect width="80" height="80" fill="#CCFF00"/>
<path d="M23.4081 34.8532C22.9134 35.3258 22.9134 36.1158 23.4081 36.5884L27.5043 40.5023C27.9682 40.9455 28.6985 40.9455 29.1623 40.5023L39.171 30.9393C39.6348 30.4961 40.3652 30.4961 40.829 30.9393L50.8377 40.5023C51.3015 40.9455 52.0318 40.9455 52.4957 40.5023L56.5919 36.5884C57.0866 36.1158 57.0866 35.3258 56.5919 34.8532L40.829 19.7921C40.3652 19.3489 39.6348 19.3489 39.171 19.7921L23.4081 34.8532Z" fill="black"/>
<path d="M23.4081 54.5588C22.9134 55.0314 22.9134 55.8214 23.4081 56.294L27.5043 60.2079C27.9682 60.6511 28.6985 60.6511 29.1623 60.2079L39.171 50.6449C39.6348 50.2017 40.3652 50.2017 40.829 50.6449L50.8377 60.2079C51.3015 60.6511 52.0318 60.6511 52.4957 60.2079L56.5919 56.294C57.0866 55.8214 57.0866 55.0314 56.5919 54.5588L40.829 39.4977C40.3652 39.0545 39.6348 39.0545 39.171 39.4977L23.4081 54.5588Z" fill="black"/>
</svg>