<svg width="349" height="349" viewBox="0 0 349 349" fill="none" xmlns="http://www.w3.org/2000/svg">
<path d="M169.738 2.74929C172.685 1.04802 176.315 1.04802 179.262 2.74929L320.86 84.5007C323.806 86.202 325.621 89.346 325.621 92.7486V256.251C325.621 259.654 323.806 262.798 320.86 264.499L179.262 346.251C176.315 347.952 172.685 347.952 169.738 346.251L28.1405 264.499C25.1938 262.798 23.3786 259.654 23.3786 256.251V92.7486C23.3786 89.346 25.1938 86.202 28.1405 84.5007L169.738 2.74929Z" fill="#2D2D34"/>
<path d="M266.909 136.24L239.805 136.246H239.74L238.327 142.435L223.255 208.461H220.547L205.476 142.435L204.06 136.246H176.877L176.871 136.276L160.392 208.461H157.621L141.137 136.276L141.132 136.246H113.948L97.4612 208.461H95.4499L78.214 136.246H59.7266L82.8379 227.689H110.051L126.538 155.478H128.552L145.447 227.689H172.655L189.464 155.478H191.478L208.334 227.689H235.542L252.321 155.478H254.336L270.828 227.689L289.283 227.684L266.909 136.24Z" fill="white"/>
</svg>
