<?xml version="1.0" encoding="utf-8"?>
<!-- Generator: Adobe Illustrator 16.0.0, SVG Export Plug-In . SVG Version: 6.00 Build 0)  -->
<!DOCTYPE svg PUBLIC "-//W3C//DTD SVG 1.1//EN" "http://www.w3.org/Graphics/SVG/1.1/DTD/svg11.dtd">
<svg version="1.1" id="Layer_1" xmlns="http://www.w3.org/2000/svg" xmlns:xlink="http://www.w3.org/1999/xlink" x="0px" y="0px"
	 width="340.156px" height="121.914px" viewBox="0 0 340.156 121.914" enable-background="new 0 0 340.156 121.914"
	 xml:space="preserve">
<g id="Guides_to_delete_18_">
	<g>
		<polygon fill="#E34E26" points="232.328,96.391 225.251,16.999 302.989,16.999 295.902,96.397 264.1,105.211 		"/>
		<polygon fill="#EF662A" points="264.119,23.488 264.119,98.468 289.833,91.34 295.893,23.488 		"/>
		<polygon fill="#FFFFFF" points="239.731,33.227 242.357,62.672 276.106,62.672 274.974,75.303 264.107,78.24 253.261,75.306 
			252.535,67.198 242.761,67.198 244.159,82.83 264.105,88.369 284.075,82.83 286.752,52.937 251.262,52.937 250.37,42.965 
			287.604,42.965 287.635,42.965 288.507,33.227 		"/>
		<g>
			<polygon fill="#EBEBEB" points="264.119,33.227 239.731,33.227 242.357,62.672 264.119,62.672 264.119,52.937 251.262,52.937 
				250.37,42.965 264.119,42.965 			"/>
			<polygon fill="#EBEBEB" points="264.119,78.236 264.107,78.24 253.261,75.306 252.535,67.198 242.761,67.198 244.159,82.83 
				264.105,88.369 264.119,88.366 			"/>
		</g>
	</g>
</g>
<g>
	<polygon points="49.581,66.137 67.223,66.137 67.223,56.073 49.581,56.073 49.581,52.54 69.059,52.54 69.059,41.845 37.468,41.845 
		37.468,80.629 69.321,80.629 69.321,69.934 49.581,69.934 	"/>
	<polygon points="94.343,55.152 86.142,41.845 73.796,41.845 73.796,80.629 85.805,80.629 85.805,62.021 93.583,73.909 
		94.891,73.909 102.723,61.92 102.723,80.629 114.891,80.629 114.891,41.845 102.545,41.845 	"/>
	<path d="M133.724,41.582l-16.506,39.047h12.934l2.626-6.562h12.805l2.677,6.562h13.138L144.89,41.582H133.724z M141.834,64.107
		h-5.257l2.645-6.664L141.834,64.107z"/>
	<rect x="163.936" y="41.845" width="12.271" height="38.784"/>
	<polygon points="194.423,69.67 194.423,41.845 182.205,41.845 182.205,80.628 212.221,80.628 212.221,69.67 	"/>
</g>
</svg>
