<svg xmlns="http://www.w3.org/2000/svg" xmlns:xlink="http://www.w3.org/1999/xlink" width="256" height="256" viewBox="0 0 256 256"><defs><style>.a{clip-path:url(#d);}.b{fill:url(#a);}.c{fill:url(#b);}.d{fill:#fff;}</style><linearGradient id="a" x1="0.843" y1="0.135" x2="0.206" y2="0.886" gradientUnits="objectBoundingBox"><stop offset="0" stop-color="#b6509e"/><stop offset="1" stop-color="#2ebac6"/></linearGradient><linearGradient id="b" x1="0.907" y1="0.227" x2="0.163" y2="0.853" xlink:href="#a"/><clipPath id="d"><rect width="256" height="256"/></clipPath></defs><g id="c" class="a"><path class="b" d="M128,256a128.976,128.976,0,0,1-25.8-2.6,127.309,127.309,0,0,1-45.77-19.261,128.366,128.366,0,0,1-46.375-56.315A127.357,127.357,0,0,1,2.6,153.8a129.251,129.251,0,0,1,0-51.593,127.31,127.31,0,0,1,19.26-45.77A128.372,128.372,0,0,1,78.177,10.059,127.33,127.33,0,0,1,102.2,2.6a129.244,129.244,0,0,1,51.593,0,127.308,127.308,0,0,1,45.77,19.26,128.367,128.367,0,0,1,46.375,56.316A127.343,127.343,0,0,1,253.4,102.2a129.248,129.248,0,0,1,0,51.593,127.3,127.3,0,0,1-19.26,45.77,128.382,128.382,0,0,1-56.316,46.375A127.4,127.4,0,0,1,153.8,253.4,128.977,128.977,0,0,1,128,256Zm0-242.287a115.145,115.145,0,0,0-23.033,2.322A113.657,113.657,0,0,0,64.1,33.232,114.622,114.622,0,0,0,22.7,83.515a113.7,113.7,0,0,0-6.659,21.452,115.4,115.4,0,0,0,0,46.065,113.66,113.66,0,0,0,17.2,40.866,114.627,114.627,0,0,0,50.282,41.407,113.75,113.75,0,0,0,21.453,6.658,115.381,115.381,0,0,0,46.065,0,113.609,113.609,0,0,0,40.866-17.2A114.622,114.622,0,0,0,233.3,172.485a113.741,113.741,0,0,0,6.659-21.453,115.4,115.4,0,0,0,0-46.065,113.662,113.662,0,0,0-17.2-40.865A114.619,114.619,0,0,0,172.485,22.7a113.74,113.74,0,0,0-21.453-6.659A115.145,115.145,0,0,0,128,13.714Z"/><g transform="translate(18 18)"><circle class="c" cx="98" cy="98" r="98" transform="translate(12 12)"/><path class="d" d="M88.527,86.276,55.381,6.168C53.508,2.029,50.739,0,47.074,0H44.142c-3.665,0-6.434,2.029-8.307,6.168L21.42,41.068H10.507a5.968,5.968,0,0,0-5.945,5.925v.081A5.968,5.968,0,0,0,10.507,53h5.864L2.607,86.276A7.02,7.02,0,0,0,2.2,88.548a6.264,6.264,0,0,0,1.629,4.464,5.716,5.716,0,0,0,4.4,1.7,5.954,5.954,0,0,0,3.421-1.136,7.228,7.228,0,0,0,2.362-3L29.157,53H39.663a5.968,5.968,0,0,0,5.945-5.925v-.162a5.968,5.968,0,0,0-5.945-5.925H34.043L45.608,12.174l31.518,78.4a7.228,7.228,0,0,0,2.362,3,5.954,5.954,0,0,0,3.421,1.136,5.716,5.716,0,0,0,4.4-1.7,6.264,6.264,0,0,0,1.629-4.464A5.366,5.366,0,0,0,88.527,86.276Z" transform="translate(64.357 62.768)"/></g></g></svg>