<svg width="67" height="76" viewBox="0 0 67 76" fill="none" xmlns="http://www.w3.org/2000/svg">
<path d="M31.8078 17.1004C30.9448 13.2729 33.5554 9.43111 37.4593 9.04143C39.8787 8.79997 38.5136 5.89053 45.5804 5.83793C49.8956 5.80446 50.106 7.83654 52.2528 7.66919C57.0126 7.29386 59.1929 7.16237 60.0679 7.41099C62.6593 8.1521 55.7097 12.4601 52.2528 15.3002C48.7959 18.1403 50.0175 23.6436 50.0175 23.6436C50.0175 23.6436 54.4044 36.5771 54.8036 48.1862C55.21 60.008 59.4248 74.5552 59.4248 74.5552H15.1042C15.1042 74.5552 17.5881 59.5562 24.937 44.0025C27.3134 38.9725 29.1829 35.1857 30.5814 32.4293C32.678 28.3006 33.2685 23.5719 32.2477 19.0559L31.8078 17.1004Z" fill="#EC9A4A"/>
<path d="M36.9358 10.8775L33.0725 5.13513C33.0725 5.13513 30.634 7.83659 30.842 11.5947C31.05 15.3528 32.1999 18.3794 32.1999 18.3794L36.9358 10.8775Z" fill="#EC9A4A"/>
<path d="M46.8748 7.66639L46.1299 0.785593C46.1299 0.785593 43.4462 1.85064 41.8802 5.27329C40.3143 8.69594 39.9225 11.9098 39.9225 11.9098L46.8748 7.66639Z" fill="#EC9A4A"/>
<path d="M19.4744 74.5528H12.7853C12.7853 74.5528 9.53674e-06 73.7256 9.53674e-06 63.0489C9.53674e-06 54.6912 8.28845 52.7619 12.9 55.1358C16.8972 57.1942 16.4167 60.3331 16.4167 60.3331C16.4167 60.3331 11.6067 59.4606 11.0664 62.4728C10.2177 67.1991 18.0997 70.7278 18.0997 70.7278L19.4744 74.5528Z" fill="#EC9A4A"/>
<path d="M62.0998 8.48682L52.279 11.413C52.279 11.413 51.5881 13.0936 49.8094 13.3901C48.0308 13.6865 46.5485 14.081 44.8679 15.3671C43.1873 16.6509 42.5944 18.1331 42.5944 18.1331C42.5944 18.1331 45.9533 19.5173 46.2497 23.3711C46.5462 27.2248 43.6726 30.2657 43.6726 30.2657C43.6726 30.2657 47.4881 35.6878 50.3999 43.3212C52.7428 49.4604 55.339 54.5453 55.339 54.5453C55.339 54.5453 54.1939 41.2006 53.8974 34.3801C53.601 27.5595 50.5003 18.5706 52.279 16.4955C54.0576 14.4204 60.4909 14.4109 61.6217 12.79C63.2139 10.5045 62.0998 8.48682 62.0998 8.48682Z" fill="#FFECDD"/>
<path d="M61.7509 10.0407C60.9151 10.0407 60.2376 9.36321 60.2376 8.52744C60.2376 7.69167 60.9151 7.01416 61.7509 7.01416C62.5866 7.01416 63.2642 7.69167 63.2642 8.52744C63.2642 9.36321 62.5866 10.0407 61.7509 10.0407Z" fill="#0D4D90"/>
<path d="M51.2224 17.5714L60.1874 21.6355L57.9162 22.1137L56.0037 23.309L53.8521 25.5801L53.6131 26.7755H52.7763L51.2224 17.5714Z" fill="#FFECDD"/>
<path d="M52.0591 17.0932C52.3995 15.1359 62.2201 18.4728 64.3717 20.2658C63.8936 21.2221 61.7413 21.5956 60.7851 21.5159C56.1233 21.1275 51.581 19.8425 52.0591 17.0932Z" fill="#EB5757" stroke="#EB5757" stroke-width="0.478133"/>
<path d="M59.2311 74.3496C57.2787 68.0542 53.4218 49.6541 53.613 26.4168C53.6529 25.8192 54.5454 24.1218 57.7967 22.1136C58.8725 21.4492 63.8252 21.755 64.636 20.5597" stroke="#0D4D90" stroke-linecap="round"/>
<path d="M58.1419 21.3817L58.3611 19.3565C58.3611 19.3565 59.151 19.67 59.612 20.6773C60.0729 21.6847 59.612 21.6354 59.612 21.6354L58.1419 21.3817Z" fill="#FFECDD"/>
<path d="M59.0418 13.4982L58.8226 15.5234C58.8226 15.5234 58.0327 15.2099 57.5718 14.2025C57.1109 13.1951 57.5718 13.2444 57.5718 13.2444L59.0418 13.4982Z" fill="#FFECDD"/>
<path d="M60.3382 13.2592L60.5574 15.2844C60.5574 15.2844 61.3473 14.9709 61.8082 13.9635C62.2691 12.9561 62.339 11.3557 62.339 11.3557L60.3382 13.2592Z" fill="#FFECDD"/>
<path d="M60.0938 21.6355C57.6234 21.6753 53.3859 21.0617 52.0471 18.2886C51.1927 16.5187 54.5732 14.7927 57.6652 14.2244C57.6652 15.0851 58.4701 15.4596 58.8725 15.5393L59.3386 13.7463C59.6215 13.7065 60.2113 13.6029 60.3069 13.5072C60.4025 13.4116 60.546 13.7463 60.785 15.1807C61.9804 14.7026 63.2474 10.8775 62.0999 9.44312" stroke="#0D4D90"/>
<path d="M53.0534 74.7659C50.3867 71.2659 45.3534 61.5659 46.5534 50.7659" stroke="#0D4D90" stroke-linecap="round"/>
<path d="M31.3717 54.2659C34.0384 56.9325 37.8717 63.9659 31.8717 70.7659C33.5384 70.7659 37.6717 71.5659 38.8717 74.7659" stroke="#0D4D90" stroke-linecap="round"/>
<path d="M54.3716 72.7659C54.3716 73.0992 54.5716 73.9659 55.3716 74.7659" stroke="#0D4D90" stroke-linecap="round"/>
<path d="M56.3716 72.7659C56.3716 73.0992 56.5716 73.9659 57.3716 74.7659" stroke="#0D4D90" stroke-linecap="round"/>
<path d="M32.3716 73.7659C32.8716 73.7659 33.9716 74.0659 34.3716 75.2659" stroke="#0D4D90" stroke-linecap="round"/>
<path d="M35.3716 73.7659C35.7049 73.7659 36.5716 74.0659 37.3716 75.2659" stroke="#0D4D90" stroke-linecap="round"/>
<path d="M32.8717 6.76587C32.8717 7.93254 33.3717 10.6659 35.3717 12.2659" stroke="#0D4D90" stroke-linecap="round"/>
<path d="M45.3717 3.26587C44.705 4.43254 43.6717 7.16587 44.8717 8.76587" stroke="#0D4D90" stroke-linecap="round"/>
<path d="M46.8717 11.7659C47.8717 12.2659 50.0717 12.6659 50.8717 10.2659" stroke="#0D4D90" stroke-linecap="round"/>
</svg>
