<svg clip-rule="evenodd" fill-rule="evenodd" stroke-linejoin="round" stroke-miterlimit="1.41421" viewBox="0 0 512 512" xmlns="http://www.w3.org/2000/svg"><circle cx="256" cy="256" fill="#fff" r="256" stroke-width="1.48447"/><g fill-rule="nonzero"><path d="m368.847 90.814h29.194l-144.341 169.366-133.541 157.239h-29.199l143.267-167.966z" fill="#333257"/><path d="m373.316 277.309h-55.924v-28.716h143.108v28.716h-55.936v147.614h-31.248z" fill="#72bec3"/><g fill="#333257"><path d="m79.62 169.659v.945c0 36.86 25.409 63.443 55.676 63.443 31.901 0 54.613-27.525 54.613-62.517v-.926c0-36.403-25.422-63.459-55.704-63.459-31.891 0-54.585 28.46-54.585 62.514m-28.12 1.871v-.926c0-43.864 33.513-83.527 83.796-83.527 49.739 0 82.721 39.663 82.721 82.582v.945c0 43.848-33.513 83.508-83.812 83.508-49.729 0-82.705-39.191-82.705-82.582"/><path d="m59.656 171.442v-.842c0-39.559 30.238-75.338 75.588-75.338 44.861 0 74.603 35.779 74.603 74.484v.854c0 39.553-30.218 75.332-75.587 75.332-44.848 0-74.604-35.355-74.604-74.49"/></g></g></svg>