<svg width="1438" height="1438" viewBox="0 0 1438 1438" fill="none" xmlns="http://www.w3.org/2000/svg">
<path d="M271.084 1260.83C270.07 1271.99 273.479 1283.11 280.579 1291.78C287.678 1300.46 297.899 1306 309.044 1307.22C822.813 1310.84 1318.91 1287.14 1318.91 1210.21C1318.91 976.024 271.084 1260.83 271.084 1260.83Z" fill="url(#paint0_linear_108_134)"/>
<path d="M271.082 1260.83C270.071 1272.02 273.508 1283.17 280.649 1291.85C287.79 1300.53 298.062 1306.05 309.243 1307.22C823.012 1311.24 1318.3 1294.97 1318.91 1210.21C1318.91 976.024 271.082 1260.83 271.082 1260.83ZM309.243 1303.21H305.226C297.206 1302.26 289.658 1298.91 283.567 1293.61C277.477 1288.31 273.125 1281.29 271.082 1273.48C273.347 1281.74 278.193 1289.06 284.914 1294.37C291.635 1299.69 299.878 1302.71 308.439 1303C821.807 1299.79 1310.07 1142.33 1310.07 1211.42C1310.07 1280.51 822.61 1307.22 309.243 1303.21Z" fill="url(#paint1_linear_108_134)"/>
<g opacity="0.3">
<path opacity="0.06" d="M309.435 606.665C304.604 606.195 299.728 606.687 295.088 608.111C290.449 609.536 286.137 611.865 282.403 614.965C278.668 618.065 275.584 621.873 273.329 626.171C271.074 630.469 269.693 635.171 269.265 640.005V1260.83C268.912 1266.45 269.671 1272.08 271.5 1277.41C273.329 1282.73 276.192 1287.65 279.924 1291.86C283.656 1296.08 288.184 1299.52 293.248 1301.98C298.312 1304.45 303.813 1305.89 309.435 1306.22C882.454 1309.63 1438.4 1470.11 1438 1389.37V698.854C1438.4 616.506 882.454 607.066 309.435 606.665V606.665Z" fill="url(#paint2_linear_108_134)"/>
<path opacity="0.13" d="M309.216 606.665C299.78 606.214 290.535 609.434 283.421 615.649C276.307 621.865 271.875 630.594 271.055 640.005V1260.83C270.395 1272.16 274.25 1283.3 281.776 1291.81C289.303 1300.31 299.89 1305.49 311.225 1306.22C880.227 1309.43 1432.16 1462.08 1431.96 1384.15V701.264C1430.35 622.331 878.419 607.468 309.216 606.665Z" fill="url(#paint3_linear_108_134)"/>
<path opacity="0.19" d="M309.216 606.665C299.792 606.264 290.575 609.501 283.472 615.707C276.368 621.913 271.923 630.613 271.055 640.005V1260.83C270.395 1272.16 274.25 1283.3 281.776 1291.81C289.303 1300.31 299.89 1305.49 311.225 1306.22C876.21 1309.23 1424.32 1454.04 1423.92 1378.72V705.482C1422.52 628.356 873.599 607.669 309.216 606.665V606.665Z" fill="url(#paint4_linear_108_134)"/>
<path opacity="0.25" d="M309.216 606.665C299.792 606.264 290.575 609.501 283.472 615.707C276.368 621.913 271.923 630.613 271.055 640.005V1260.83C270.395 1272.16 274.25 1283.3 281.776 1291.81C289.303 1300.31 299.89 1305.49 311.225 1306.22C872.193 1309.23 1415.89 1446.81 1415.89 1373.3V708.695C1414.48 634.181 870.385 608.07 309.216 606.665V606.665Z" fill="url(#paint5_linear_108_134)"/>
<path opacity="0.31" d="M309.228 606.665C299.804 606.264 290.586 609.501 283.483 615.707C276.38 621.913 271.934 630.613 271.067 640.005V1260.83C270.713 1266.44 271.475 1272.06 273.306 1277.37C275.138 1282.69 278.003 1287.59 281.738 1291.79C285.472 1295.99 290.001 1299.41 295.064 1301.85C300.127 1304.29 305.623 1305.71 311.236 1306.02C868.187 1309.03 1408.47 1437.97 1408.07 1367.88V711.909C1406.66 640.005 866.581 608.271 309.228 606.665Z" fill="url(#paint6_linear_108_134)"/>
<path opacity="0.38" d="M309.228 606.665C299.816 606.313 290.625 609.568 283.533 615.764C276.44 621.961 271.981 630.632 271.067 640.005V1260.83C270.713 1266.44 271.475 1272.06 273.306 1277.37C275.138 1282.69 278.003 1287.59 281.738 1291.79C285.472 1295.99 290.001 1299.41 295.064 1301.85C300.127 1304.29 305.623 1305.71 311.236 1306.02C864.17 1308.83 1400.43 1429.94 1400.23 1362.46V715.122C1398.63 646.031 862.564 608.472 309.228 606.665V606.665Z" fill="url(#paint7_linear_108_134)"/>
<path opacity="0.44" d="M309.228 606.665C299.804 606.264 290.586 609.501 283.483 615.707C276.38 621.913 271.934 630.613 271.067 640.005V1260.83C270.713 1266.44 271.475 1272.06 273.306 1277.37C275.138 1282.69 278.003 1287.59 281.738 1291.79C285.472 1295.99 290.001 1299.41 295.064 1301.85C300.127 1304.29 305.623 1305.71 311.236 1306.02C860.153 1308.63 1392.4 1421.91 1392.2 1357.03V718.336C1390.59 651.855 858.547 607.669 309.228 606.665V606.665Z" fill="url(#paint8_linear_108_134)"/>
<path opacity="0.5" d="M309.228 606.866C299.823 606.412 290.606 609.604 283.497 615.778C276.388 621.951 271.935 630.63 271.067 640.005V1260.83C270.713 1266.44 271.475 1272.06 273.306 1277.37C275.138 1282.69 278.003 1287.59 281.738 1291.79C285.472 1295.99 290.001 1299.41 295.064 1301.85C300.127 1304.29 305.623 1305.71 311.236 1306.02C856.136 1308.43 1384.57 1413.87 1384.37 1351.61V721.55C1382.76 657.881 854.53 607.669 309.228 606.866V606.866Z" fill="url(#paint9_linear_108_134)"/>
<path opacity="0.56" d="M309.228 606.866C299.823 606.412 290.606 609.604 283.497 615.778C276.388 621.951 271.935 630.63 271.067 640.005V1260.83C270.713 1266.44 271.475 1272.06 273.306 1277.37C275.138 1282.69 278.003 1287.59 281.738 1291.79C285.472 1295.99 290.001 1299.41 295.064 1301.85C300.127 1304.29 305.623 1305.71 311.236 1306.02C852.12 1308.23 1375.73 1406.44 1375.73 1346.19V724.763C1375.73 664.509 850.513 607.87 309.228 606.866Z" fill="url(#paint10_linear_108_134)"/>
<path opacity="0.63" d="M309.228 606.866C299.823 606.412 290.606 609.604 283.497 615.778C276.388 621.951 271.935 630.63 271.067 640.005V1260.83C270.713 1266.44 271.475 1272.06 273.306 1277.37C275.138 1282.69 278.003 1287.59 281.738 1291.79C285.472 1295.99 290.001 1299.41 295.064 1301.85C300.127 1304.29 305.623 1305.71 311.236 1306.02C848.103 1308.03 1368.7 1398.01 1368.5 1340.96V728.178C1366.89 669.53 846.496 607.87 309.228 606.866Z" fill="url(#paint11_linear_108_134)"/>
<path opacity="0.69" d="M309.228 606.866C299.811 606.361 290.566 609.535 283.446 615.719C276.325 621.902 271.887 630.611 271.067 640.005V1260.83C270.713 1266.44 271.475 1272.06 273.306 1277.37C275.138 1282.69 278.003 1287.59 281.738 1291.79C285.472 1295.99 290.001 1299.41 295.064 1301.85C300.127 1304.29 305.623 1305.71 311.236 1306.02C844.086 1307.82 1360.67 1389.97 1360.47 1335.54V731.391C1358.86 675.556 842.479 608.071 309.228 606.866V606.866Z" fill="url(#paint12_linear_108_134)"/>
<path opacity="0.75" d="M309.228 606.866C299.811 606.361 290.566 609.535 283.446 615.719C276.325 621.902 271.887 630.611 271.067 640.005V1260.83C270.713 1266.44 271.475 1272.06 273.306 1277.37C275.138 1282.69 278.003 1287.59 281.738 1291.79C285.472 1295.99 290.001 1299.41 295.064 1301.85C300.127 1304.29 305.623 1305.71 311.236 1306.02C840.069 1307.82 1352.83 1381.94 1352.43 1330.12V734.605C1351.03 681.38 838.462 608.271 309.228 606.866V606.866Z" fill="url(#paint13_linear_108_134)"/>
<path opacity="0.81" d="M309.228 606.866C299.823 606.412 290.606 609.604 283.497 615.778C276.388 621.951 271.935 630.63 271.067 640.005V1260.83C270.713 1266.44 271.475 1272.06 273.306 1277.37C275.138 1282.69 278.003 1287.59 281.738 1291.79C285.472 1295.99 290.001 1299.41 295.064 1301.85C300.127 1304.29 305.623 1305.71 311.236 1306.02C836.052 1307.62 1344.8 1373.9 1344.6 1324.7V737.818C1342.99 687.205 834.646 608.271 309.228 606.866V606.866Z" fill="url(#paint14_linear_108_134)"/>
<path opacity="0.88" d="M309.228 606.866C299.823 606.412 290.606 609.604 283.497 615.778C276.388 621.951 271.935 630.63 271.067 640.005V1260.83C270.713 1266.44 271.475 1272.06 273.306 1277.37C275.138 1282.69 278.003 1287.59 281.738 1291.79C285.472 1295.99 290.001 1299.41 295.064 1301.85C300.127 1304.29 305.623 1305.71 311.236 1306.02C830.227 1307.22 1335.56 1365.87 1335.56 1319.27V741.233C1335.56 693.23 830.629 608.472 309.228 606.866Z" fill="url(#paint15_linear_108_134)"/>
<path opacity="0.94" d="M309.228 606.866C299.823 606.412 290.606 609.604 283.497 615.778C276.388 621.951 271.935 630.63 271.067 640.005V1260.83C270.713 1266.44 271.475 1272.06 273.306 1277.37C275.138 1282.69 278.003 1287.59 281.738 1291.79C285.472 1295.99 290.001 1299.41 295.064 1301.85C300.127 1304.29 305.623 1305.71 311.236 1306.02C828.018 1307.22 1328.93 1357.84 1328.73 1313.85V744.446C1327.13 699.055 826.612 608.472 309.228 606.866V606.866Z" fill="url(#paint16_linear_108_134)"/>
<path opacity="0.3" d="M309.228 606.866C299.823 606.412 290.606 609.604 283.497 615.778C276.388 621.951 271.935 630.63 271.067 640.005V1260.83C270.713 1266.44 271.475 1272.06 273.306 1277.37C275.138 1282.69 278.003 1287.59 281.738 1291.79C285.472 1295.99 290.001 1299.41 295.064 1301.85C300.127 1304.29 305.623 1305.71 311.236 1306.02C824.001 1308.03 1321.1 1349.8 1320.7 1308.63V747.66C1319.29 704.678 822.595 611.485 309.228 606.866V606.866Z" fill="url(#paint17_linear_108_134)"/>
</g>
<path d="M525.342 959.554C558.884 1083.48 678.991 1178.08 739.647 1174.06C741.656 1174.06 969.618 1131.48 1094.34 923C1191.55 760.715 1158.41 604.054 1026.26 601.643C978.857 604.254 461.473 724.763 525.342 959.554ZM1014.21 164.197C931.039 93.3898 829.547 47.5406 721.441 31.9395C613.334 16.3383 503.02 31.6211 403.227 76.0244C390.63 81.3206 378.357 87.3566 366.472 94.1007C358.438 98.3186 350.203 102.737 342.37 107.357H344.177C321.215 123.398 300.888 142.912 283.923 165.201C117.621 386.134 675.175 544.804 973.233 545.205C1109.61 644.424 1147.97 268.437 1014.21 164.197Z" fill="#B598A7"/>
<path d="M436.779 168.615C360.256 283.701 105.179 364.844 63.2019 352.19L68.6248 341.746C83.0842 313.738 99.6693 286.88 118.234 261.407C136.463 236.131 156.607 212.294 178.489 190.106C200.658 168.282 224.424 148.141 249.589 129.852C265.255 118.403 281.724 107.558 298.395 97.716C324.253 83.438 353.217 75.7144 382.751 75.221C496.431 77.4303 436.98 168.615 436.377 169.419L436.779 168.615ZM374.114 982.25C379.537 1018.4 374.114 1161.41 366.482 1173.46C360.055 1173.46 346.397 1174.66 308.437 1153.37C288.565 1141.78 269.385 1129.04 250.995 1115.21C200.435 1078.11 155.864 1033.47 118.837 982.853C100.272 957.38 83.6868 930.522 69.2273 902.514C54.1823 874.462 41.4207 845.245 31.0662 815.145C20.8738 784.478 13.15 753.046 7.96873 721.148C-2.65624 655.833 -2.65624 589.23 7.96873 523.915C13.15 492.017 20.8738 460.585 31.0662 429.918C33.0747 423.692 35.284 417.667 37.4934 411.641C81.4791 470.289 132.494 523.313 175.878 582.362C219.261 641.411 273.891 730.588 285.34 750.271C357.042 871.985 368.491 947.102 374.114 983.254V982.25ZM1221.69 622.13C1221.79 698.93 1207.34 775.054 1179.11 846.477C1107.21 923.804 622.162 733.4 616.739 731.391C551.061 702.268 349.008 613.895 331.334 474.908C305.224 274.06 710.736 135.676 889.089 130.253C910.378 130.253 975.453 130.253 1013.41 162.188C1079.08 219.468 1131.71 290.162 1167.74 369.503C1203.77 448.845 1222.38 534.99 1222.3 622.13H1221.69ZM893.708 1164.02C840.885 1188.72 782.639 1170.65 797.703 1119.23C826.826 1020.21 1080.3 918.381 1136.33 913.359C1143.16 913.359 1146.17 917.376 1143.16 922.799C1084.77 1025.39 998.203 1109.1 893.708 1164.02Z" fill="url(#paint18_radial_108_134)"/>
<path d="M309.253 600.84C298.775 601.102 288.813 605.45 281.496 612.955C274.179 620.46 270.085 630.528 270.088 641.01V1260.83C270.083 1271.27 274.149 1281.31 281.424 1288.81C288.699 1296.31 298.609 1300.68 309.052 1301C822.821 1296.18 1319.52 1126.46 1318.92 1209.21V510.057C1319.52 426.906 823.022 597.024 309.253 600.84Z" fill="url(#paint19_linear_108_134)"/>
<path d="M385.174 1029.25C403.451 1029.25 421.326 1027.84 439.001 1026.84L490.82 1023.42C507.691 1022.22 524.361 1020.81 540.63 1019.21L589.235 1014.59L636.434 1009.57C652.101 1007.96 667.365 1006.15 682.83 1004.14L728.423 998.318L773.212 992.092L818.403 985.866L863.794 978.836L909.186 971.405L955.18 963.571L1002.38 955.337L1050.58 946.901L1100.19 938.265L1151.81 930.03C1169.28 927.419 1185.15 925.009 1207.04 922.398C1230.71 918.91 1254.64 917.632 1278.55 918.582C1301.04 919.987 1318.71 925.812 1318.71 941.478V887.048C1318.71 871.583 1301.64 866.964 1280.75 864.353C1258.35 863.182 1235.89 864.124 1213.67 867.164C1193.59 869.575 1177.72 871.784 1162.05 874.194C1146.39 876.604 1130.92 878.814 1115.86 881.425L1071.07 888.856L1026.88 896.689L982.295 905.526L935.899 913.56L887.294 921.594L835.073 929.829L778.434 938.465V883.835L835.073 874.998L887.294 866.763L935.899 858.729L982.295 850.695L1027.08 842.862L1071.27 835.23L1116.06 827.597L1162.25 820.367C1177.92 817.957 1192.98 815.747 1213.87 813.337C1236.1 810.296 1258.56 809.355 1280.96 810.525C1301.04 812.333 1318.92 817.756 1318.92 833.221V779.595C1318.92 764.129 1301.84 759.51 1280.96 756.698C1258.56 755.629 1236.1 756.57 1213.87 759.51C1193.79 761.92 1177.92 764.13 1162.25 766.54L1116.06 773.77L1071.27 781.402L1027.08 789.235L982.295 796.868L935.899 805.102L887.294 813.136L835.073 821.572L778.434 830.208V776.18L835.073 767.544L887.294 759.309L935.899 751.074L982.295 743.04L1027.08 735.408L1071.27 727.575L1116.06 719.943L1162.25 712.712C1177.92 710.503 1192.98 708.093 1213.87 705.683C1236.11 702.843 1258.56 701.902 1280.96 702.871C1301.04 704.678 1318.92 710.302 1318.92 725.768V671.94C1318.92 656.475 1301.84 651.856 1280.96 649.244C1258.56 648.074 1236.1 649.016 1213.87 652.056C1193.79 654.467 1177.92 656.676 1162.25 659.086C1146.59 661.496 1131.12 663.705 1116.06 666.317L1071.27 673.748L1027.08 681.581L982.295 689.414L935.899 697.247L887.294 704.678L835.073 712.913L778.434 721.55V668.526L835.073 659.889L887.494 651.655C904.165 649.044 920.233 646.232 935.899 643.42L982.295 635.587L1027.08 627.754L1071.27 619.921L1116.06 612.489C1131.12 609.878 1146.59 607.468 1162.25 605.259C1177.92 603.049 1192.98 600.639 1213.87 598.229C1236.1 595.188 1258.56 594.247 1280.96 595.417C1301.04 597.024 1318.92 602.648 1318.92 618.113V564.085C1318.92 548.62 1301.84 544 1280.96 541.389C1258.56 540.219 1236.1 541.16 1213.87 544.201C1193.79 546.611 1177.92 548.82 1162.25 551.231C1146.59 553.641 1131.12 556.051 1116.06 558.461L1071.27 566.093L1027.08 573.726L982.295 581.559L935.899 589.593L887.494 597.626L835.073 605.861L778.434 614.699V560.269C623.15 584.428 466.384 597.85 309.253 600.438C298.775 600.7 288.813 605.048 281.496 612.553C274.179 620.058 270.085 630.126 270.088 640.608V1032.26H328.936C347.615 1032.26 366.696 1030.05 385.174 1029.25V1029.25Z" fill="url(#paint20_linear_108_134)"/>
<path d="M384.948 1136.9L438.976 1134.49L490.795 1131.08L540.605 1126.46L589.21 1121.84L636.41 1116.82L682.806 1111.4L728.398 1106.37L773.187 1099.55L817.976 1092.72L863.569 1086.29L909.161 1079.06L955.155 1071.03L1002.35 1062.99L1050.56 1054.56L1100.17 1046.12L1151.79 1037.89C1169.26 1035.27 1185.13 1032.86 1207.02 1030.05C1230.7 1026.7 1254.62 1025.35 1278.52 1026.04C1301.02 1027.64 1318.69 1033.27 1318.69 1049.13V994.703C1318.69 979.037 1300.81 973.212 1278.52 971.605C1254.62 970.856 1230.7 972.133 1207.02 975.421C1185.13 978.233 1169.26 980.643 1151.79 983.254L1100.17 991.489L1050.56 1000.13L1002.35 1008.56L955.155 1016.6L909.161 1024.63C893.897 1027.24 878.833 1029.65 863.569 1031.86L818.378 1039.09L773.187 1046.12L727.996 1052.35L682.404 1058.17C666.939 1059.98 651.674 1061.99 636.008 1063.59L588.809 1068.61L540.204 1073.23C523.935 1074.84 507.265 1076.25 490.393 1077.45L438.575 1080.87C420.9 1081.87 403.024 1082.67 384.546 1083.28L328.51 1085.08C309.429 1085.69 291.152 1086.29 271.067 1086.29V1140.12H329.916L384.948 1136.9Z" fill="url(#paint21_linear_108_134)"/>
<path d="M1278.55 1079.26C1254.65 1078.51 1230.73 1079.79 1207.04 1083.08C1185.15 1085.69 1169.28 1088.3 1151.81 1090.91L1100.39 1099.14L1050.58 1107.78L1002.38 1116.22L955.18 1124.25L909.186 1132.08L863.593 1139.51L818.403 1146.54L773.212 1153.37L728.021 1159.8L682.83 1166.63L636.434 1172.05L589.235 1177.07L540.63 1181.69L490.82 1185.91L439.001 1189.12L384.973 1191.73L328.936 1193.34H270.088V1246.97H328.936C347.615 1246.97 366.696 1246.97 384.973 1245.16C403.25 1243.35 421.326 1243.75 439.001 1242.75C456.676 1241.75 473.748 1240.74 490.82 1239.34L540.63 1235.32L589.235 1230.7L636.434 1225.68L682.83 1220.05L728.423 1214.23L773.212 1206.8L818.001 1199.97L863.192 1192.94L909.186 1186.71L955.18 1178.88L1002.38 1170.85L1050.58 1162.41L1100.39 1153.77L1151.81 1145.54C1169.28 1142.73 1185.15 1140.32 1207.04 1137.71C1230.73 1134.42 1254.65 1133.14 1278.55 1133.89C1301.04 1135.3 1318.71 1141.12 1318.71 1156.79V1102.16C1318.92 1086.29 1301.04 1080.87 1278.55 1079.26V1079.26Z" fill="url(#paint22_linear_108_134)"/>
<path d="M381.558 975.622L431.77 973.413L478.97 970.601L524.964 966.986L570.958 962.768L618.157 957.948C634.225 956.341 650.695 954.332 667.566 952.324L720.389 945.696C738.867 943.286 758.148 940.474 778.434 937.461V560.269C623.15 584.428 466.384 597.85 309.253 600.438C298.775 600.7 288.813 605.048 281.496 612.553C274.179 620.058 270.085 630.126 270.088 640.608V977.831H328.334L381.558 975.622Z" fill="url(#paint23_linear_108_134)"/>
<path d="M391.579 616.707C389.57 622.732 388.566 625.745 386.758 631.771H371.293L383.746 640.407C381.938 646.433 380.934 649.445 378.925 655.471L391.579 646.433L404.031 655.069C402.023 649.244 401.219 646.433 399.211 640.407L411.663 630.766H396.198L391.579 616.707Z" fill="url(#paint24_linear_108_134)"/>
<path d="M435.79 802.291C433.982 808.316 432.978 811.329 430.969 817.354H415.504L428.157 825.991C426.149 832.016 425.145 835.029 423.337 841.054L435.79 831.213L448.443 839.648C446.434 833.824 445.43 831.012 443.623 825.187L456.075 815.145L440.61 816.149C438.802 811.128 437.798 808.115 435.79 802.291V802.291Z" fill="url(#paint25_linear_108_134)"/>
<path d="M440.61 891.869C438.802 886.044 437.798 883.232 435.79 877.408C433.982 883.433 432.978 886.446 430.969 892.471H415.504L428.157 901.108C426.149 907.133 425.145 910.146 423.337 916.171L435.79 906.33L448.443 914.765C446.434 908.941 445.43 906.129 443.623 900.304L456.075 890.262L440.61 891.869Z" fill="url(#paint26_linear_108_134)"/>
<path d="M391.579 766.74C389.57 772.967 388.566 775.779 386.758 781.804H371.293L383.746 790.641C381.938 796.667 380.934 799.679 378.925 805.705L391.579 796.064L404.031 804.701C402.023 798.876 401.219 795.863 399.211 790.039C404.232 786.022 406.843 784.214 411.663 780.197H396.198C393.989 775.578 392.985 772.766 391.579 766.74V766.74Z" fill="url(#paint27_linear_108_134)"/>
<path d="M391.579 841.858C389.57 847.883 388.566 850.896 386.758 856.921H371.293L383.746 865.758C381.938 871.784 380.934 874.797 378.925 880.822L391.579 870.98L404.031 879.818C402.023 873.792 401.219 870.981 399.211 865.156L411.663 855.314H396.198L391.579 841.858Z" fill="url(#paint28_linear_108_134)"/>
<path d="M391.579 691.824C389.57 697.85 388.566 700.862 386.758 706.888H371.293L383.746 715.725C381.938 721.751 380.934 724.763 378.925 730.789L391.579 721.148L404.031 729.784C402.023 723.96 401.219 720.947 399.211 715.123C404.232 711.306 406.843 709.298 411.663 705.281H396.198L391.579 691.824Z" fill="url(#paint29_linear_108_134)"/>
<path d="M525.347 870.981C523.339 877.207 522.334 880.22 520.527 886.245L505.062 887.651L517.514 895.685C515.706 901.911 514.702 904.924 512.694 910.949L525.347 900.706L537.8 908.941C535.791 903.116 534.988 900.304 532.979 894.48L545.633 884.036L529.967 885.442L525.347 870.981Z" fill="url(#paint30_linear_108_134)"/>
<path d="M435.79 727.173C433.982 733.199 432.978 736.212 430.969 742.438H415.504L428.157 751.074C426.149 757.1 425.145 760.112 423.337 766.339L435.79 756.296L448.443 764.933C446.434 759.108 445.43 756.095 443.623 750.271L456.075 740.228L440.61 741.233L435.79 727.173V727.173Z" fill="url(#paint31_linear_108_134)"/>
<path d="M480.548 837.037C478.741 843.063 477.736 846.075 475.728 852.302H460.263L472.916 860.737C470.908 866.763 469.903 869.775 468.096 875.801L480.548 865.758L493.202 873.993C491.193 868.169 490.189 865.357 488.381 859.532L500.834 849.289L485.369 850.494C483.36 845.272 482.557 842.862 480.548 837.037V837.037Z" fill="url(#paint32_linear_108_134)"/>
<path d="M485.369 926.615C483.36 920.791 482.557 917.979 480.548 912.154C478.741 918.18 477.736 921.193 475.728 927.218L460.263 928.423L472.916 936.658C470.908 942.683 469.903 945.897 468.096 951.922L480.548 941.88L493.202 950.115C491.193 944.29 490.189 941.478 488.381 935.654L500.834 925.41L485.369 926.615Z" fill="url(#paint33_linear_108_134)"/>
<path d="M435.79 652.056C433.982 658.282 432.978 661.295 430.969 667.321H415.504L428.157 675.756C426.149 681.983 425.145 684.995 423.337 691.021L435.79 681.179L448.443 689.615C446.434 683.79 445.43 680.777 443.623 674.953L456.075 665.111H440.61C438.802 660.893 437.798 658.082 435.79 652.056V652.056Z" fill="url(#paint34_linear_108_134)"/>
<path d="M480.548 761.92C478.54 767.946 477.736 771.159 475.728 777.185H460.263L472.916 785.62C470.908 791.646 469.903 794.658 468.096 800.684L480.548 790.641L493.202 799.077C491.193 793.252 490.189 790.24 488.381 784.415L500.834 774.373L485.369 775.578C483.36 770.757 482.557 767.745 480.548 761.92V761.92Z" fill="url(#paint35_linear_108_134)"/>
<path d="M395.796 931.637L391.579 916.975C389.57 923 388.566 926.013 386.758 932.038H371.293L383.746 940.675C381.938 946.7 380.934 949.713 378.925 955.738L391.579 946.098L404.031 954.935L399.211 940.072L411.663 930.432L395.796 931.637Z" fill="url(#paint36_linear_108_134)"/>
<path d="M301.591 769.352C299.583 775.176 298.779 778.189 296.771 784.214H281.306L293.758 793.252C291.951 799.278 290.946 802.09 289.139 808.115L301.591 798.876L314.044 807.914C312.236 801.889 311.232 799.077 309.424 793.052L321.877 783.612H306.412C304.403 778.189 303.6 775.176 301.591 769.352V769.352Z" fill="url(#paint37_linear_108_134)"/>
<path d="M301.591 694.234L296.771 709.097H281.306L293.758 718.135C291.951 724.161 290.946 727.173 289.139 732.998L301.591 723.759L314.044 732.797C312.236 726.772 311.232 723.96 309.424 717.934L321.877 708.494H306.412C304.403 703.072 303.6 700.059 301.591 694.234V694.234Z" fill="url(#paint38_linear_108_134)"/>
<path d="M306.412 934.248L301.591 919.385C299.583 925.41 298.779 928.423 296.771 934.248H281.306L293.758 943.286L289.139 958.349L301.591 948.909L314.044 957.948C312.236 952.123 311.232 949.11 309.424 943.085L321.877 933.846L306.412 934.248Z" fill="url(#paint39_linear_108_134)"/>
<path d="M468.096 726.772L480.548 716.729L493.202 724.964C491.193 719.14 490.189 716.127 488.381 710.302L500.834 700.26L485.369 701.465C483.36 695.64 482.557 692.628 480.548 686.803C478.741 693.029 477.736 696.042 475.728 702.067L460.263 703.072L472.916 711.507C471.912 717.533 469.903 720.545 468.096 726.772V726.772Z" fill="url(#paint40_linear_108_134)"/>
<path d="M468.096 651.655L480.548 641.612L493.202 649.847C491.193 644.022 490.189 641.21 488.381 635.386L500.834 625.143L485.369 626.348L480.548 611.887C478.741 617.912 477.736 620.925 475.728 626.95H460.263L472.916 635.386C471.912 642.416 469.903 645.629 468.096 651.655V651.655Z" fill="url(#paint41_linear_108_134)"/>
<path d="M301.591 845.272C299.583 851.297 298.779 854.31 296.771 860.336H281.306L293.758 869.575C291.951 875.6 290.946 878.412 289.139 884.437L301.591 875.198L314.044 884.036L309.424 869.374L321.877 859.934H306.412C304.403 853.306 303.6 850.293 301.591 845.272V845.272Z" fill="url(#paint42_linear_108_134)"/>
<path d="M346.39 655.672C344.583 661.697 343.578 664.71 341.57 670.735H326.104L338.557 679.572L333.938 694.636L346.39 685.196L359.044 694.033C357.035 688.008 356.031 684.995 354.223 679.171L366.676 669.53H351.21L346.39 655.672Z" fill="url(#paint43_linear_108_134)"/>
<path d="M346.39 730.789C344.583 736.814 343.578 739.827 341.57 745.852H326.104L338.557 754.69L333.938 769.753L346.39 760.112L359.044 768.95C357.035 763.125 356.031 760.112 354.223 754.288L366.676 744.647L351.411 744.848L346.39 730.789Z" fill="url(#paint44_linear_108_134)"/>
<path d="M351.406 895.685C349.397 889.86 348.393 886.848 346.585 881.023C344.577 887.048 343.774 890.061 341.765 895.886H326.3L338.752 904.924C336.945 910.748 335.94 913.761 333.932 919.787L346.585 910.347L359.038 919.184C357.23 913.159 356.226 910.347 354.419 904.321L366.871 894.882L351.406 895.685Z" fill="url(#paint45_linear_108_134)"/>
<path d="M346.39 805.102C344.382 811.128 343.578 814.141 341.57 820.166H326.104L338.557 829.204L333.938 844.268L346.39 834.627L358.843 843.464L354.223 828.802L366.676 819.162H351.21C349.202 814.743 348.399 811.73 346.39 805.102V805.102Z" fill="url(#paint46_linear_108_134)"/>
<path d="M301.591 619.117C299.583 625.143 298.779 628.155 296.771 633.98H281.306L293.758 643.018L289.139 658.082L301.591 648.642L314.245 657.68C312.236 651.855 311.232 648.843 309.424 642.817L321.877 633.377H306.412L301.591 619.117Z" fill="url(#paint47_linear_108_134)"/>
<path d="M525.347 796.064C523.339 802.09 522.334 805.102 520.527 811.329L505.062 812.534L517.514 820.768C515.706 826.794 514.702 829.807 512.694 836.033L525.347 825.79L537.8 833.824C535.791 827.999 534.988 825.187 532.979 819.363L545.633 808.918L529.967 810.324L525.347 796.064Z" fill="url(#paint48_linear_108_134)"/>
<path d="M704.109 776.783C702.301 783.009 701.297 786.022 699.289 792.248L683.823 794.257L696.477 801.889C694.468 808.115 693.464 811.128 691.656 817.354L704.109 806.508L716.762 814.141C714.754 808.517 713.75 805.504 711.942 799.88L724.395 789.035L708.929 791.043C706.921 785.018 706.117 782.407 704.109 776.783V776.783Z" fill="url(#paint49_linear_108_134)"/>
<path d="M704.109 701.666C702.301 707.892 701.297 711.106 699.289 717.131L683.823 719.139L696.477 726.772C694.468 732.998 693.464 736.011 691.656 742.237L704.109 731.391L716.762 739.023C714.754 733.4 713.75 730.588 711.942 724.763L724.395 713.917L708.929 715.926C707.122 710.302 706.117 707.49 704.109 701.666V701.666Z" fill="url(#paint50_linear_108_134)"/>
<path d="M708.929 865.357C706.921 859.532 706.117 856.72 704.109 851.097C702.301 857.323 701.297 860.336 699.289 866.562L683.823 868.57L696.477 876.203C694.468 882.228 693.464 885.442 691.656 891.668L704.109 880.822L716.762 888.454C714.754 882.63 713.75 879.818 711.942 874.194L724.395 863.348L708.929 865.357Z" fill="url(#paint51_linear_108_134)"/>
<path d="M659.307 669.731L654.688 684.594L639.223 686.401L651.675 694.033C649.868 700.26 648.863 703.272 646.855 709.499L659.307 698.854L671.961 706.486C669.952 700.862 668.948 698.05 667.141 692.226L679.593 681.581L664.128 683.388C662.32 678.367 661.316 675.355 659.307 669.731V669.731Z" fill="url(#paint52_linear_108_134)"/>
<path d="M704.109 626.549C702.301 632.775 701.297 635.989 699.289 642.215L683.823 644.022L696.477 651.655C694.468 657.881 693.464 661.095 691.656 667.12L704.109 656.475L716.762 664.107C714.754 658.283 713.75 655.471 711.942 649.646L724.395 638.8C718.369 638.8 715.156 640.206 708.929 640.809C707.122 635.185 706.117 632.373 704.109 626.549V626.549Z" fill="url(#paint53_linear_108_134)"/>
<path d="M659.307 594.614L654.688 610.079L639.223 611.887L651.675 619.519C649.868 625.745 648.863 628.959 646.855 634.984L659.307 624.339L671.961 632.172C669.952 626.348 668.948 623.536 667.141 617.711L679.593 607.066L664.128 608.874C662.32 604.254 661.316 600.438 659.307 594.614V594.614Z" fill="url(#paint54_linear_108_134)"/>
<path d="M748.908 733.4C747.1 739.626 746.096 742.639 744.087 748.865L728.622 750.873L741.276 758.506C739.267 764.732 738.263 767.745 736.455 773.971L748.908 763.125L761.36 770.557L756.741 756.296L769.193 744.848L753.728 747.057C751.92 741.835 750.916 739.023 748.908 733.4V733.4Z" fill="url(#paint55_linear_108_134)"/>
<path d="M748.908 658.282C747.1 664.509 746.096 667.521 744.087 673.748L728.622 675.957L741.276 683.388C739.267 689.615 738.263 692.627 736.455 698.854L748.908 688.008L761.561 695.439C759.553 689.816 758.548 687.004 756.741 681.179L769.193 670.333L753.126 672.543C751.92 666.718 750.916 664.509 748.908 658.282V658.282Z" fill="url(#paint56_linear_108_134)"/>
<path d="M753.102 897.693C751.094 892.07 750.29 889.258 748.282 883.433C746.273 889.659 745.47 892.873 743.461 899.099L727.996 901.108L740.449 908.539L735.829 924.205L748.282 913.159L760.734 920.791C758.927 914.966 757.922 912.154 755.914 906.531L768.567 895.484L753.102 897.693Z" fill="url(#paint57_linear_108_134)"/>
<path d="M748.908 584.17L744.288 599.635L728.622 601.844L741.276 609.276C739.267 615.502 738.263 618.515 736.455 624.741C741.476 620.523 744.087 618.314 748.908 613.895L761.561 621.327C759.553 615.703 758.548 612.891 756.741 607.066L769.193 596.221L753.728 598.43C751.92 591.601 750.916 588.789 748.908 584.17V584.17Z" fill="url(#paint58_linear_108_134)"/>
<path d="M748.908 808.316C747.1 814.542 746.096 817.756 744.087 823.982L728.622 825.991L741.075 833.623L736.455 849.088L748.908 838.242L761.36 845.674C759.553 839.849 758.548 837.037 756.741 831.413L769.193 820.367L753.728 822.576C751.72 816.952 750.916 814.141 748.908 808.316V808.316Z" fill="url(#paint59_linear_108_134)"/>
<path d="M659.307 744.848L654.688 760.313L639.223 761.92L651.675 769.753C649.868 775.979 648.863 778.992 646.855 785.218L659.307 774.574L671.961 782.206C669.952 776.582 668.948 773.569 667.141 767.946L679.593 757.301L664.128 759.108C662.32 753.284 661.316 750.472 659.307 744.848V744.848Z" fill="url(#paint60_linear_108_134)"/>
<path d="M525.347 645.83C523.339 651.855 522.334 654.868 520.527 661.094L505.062 662.3L517.514 670.534C515.706 676.56 514.702 679.773 512.694 685.799L525.347 675.555L537.8 683.589C535.791 677.966 534.988 674.953 532.979 669.128L545.633 658.885L529.967 660.291L525.347 645.83Z" fill="url(#paint61_linear_108_134)"/>
<path d="M569.951 829.405L565.331 844.669L549.665 846.075L562.318 854.109C560.31 860.336 559.306 863.348 557.498 869.575L569.951 859.13L582.604 867.164C580.596 861.34 579.792 858.528 577.784 852.703L590.236 842.259L574.771 843.866C572.361 838.041 572.361 835.23 569.951 829.405V829.405Z" fill="url(#paint62_linear_108_134)"/>
<path d="M659.307 819.764L654.688 835.229L639.223 837.037L652.679 845.272C650.872 851.498 649.868 854.511 647.859 860.737L660.312 850.092L672.965 857.724C670.957 851.9 669.952 849.088 668.145 843.464L680.597 832.618L665.132 834.627C662.32 828.401 661.316 825.187 659.307 819.764V819.764Z" fill="url(#paint63_linear_108_134)"/>
<path d="M569.951 679.171L565.331 694.636L549.665 696.042L562.318 704.076C560.31 710.101 559.306 713.315 557.498 719.34L569.951 709.097L582.604 716.93C580.596 711.306 579.792 708.294 577.784 702.469L590.236 692.226L574.771 693.632C572.361 687.807 572.361 684.594 569.951 679.171V679.171Z" fill="url(#paint64_linear_108_134)"/>
<path d="M569.951 905.526L565.331 920.791L549.665 922.197L562.318 930.231C560.31 936.457 559.306 939.47 557.498 945.696L569.951 935.252L582.604 943.286C580.596 937.461 579.792 934.649 577.784 928.825L590.236 918.381L574.771 919.787C572.361 913.159 572.361 910.146 569.951 905.526V905.526Z" fill="url(#paint65_linear_108_134)"/>
<path d="M525.347 720.947C523.339 726.973 522.334 729.985 520.527 736.211L505.062 737.417L517.514 745.651C515.706 751.677 514.702 754.89 512.694 760.916L525.347 750.673L537.8 758.706C535.791 752.882 534.988 750.07 532.979 744.245L545.633 734.002L529.967 735.408L525.347 720.947Z" fill="url(#paint66_linear_108_134)"/>
<path d="M569.951 604.254C568.143 610.28 567.139 613.293 565.331 619.519L549.665 620.925L562.318 628.959C560.31 635.185 559.306 638.198 557.498 644.223L569.951 633.98L582.604 641.813C580.596 636.189 579.792 633.177 577.784 627.553L590.437 617.109L574.771 618.515C572.361 612.891 572.361 609.878 569.951 604.254V604.254Z" fill="url(#paint67_linear_108_134)"/>
<path d="M569.951 754.288C568.143 760.514 567.139 763.527 565.331 769.552L549.665 771.159L562.318 779.193C560.31 785.218 559.507 788.432 557.498 794.457L569.951 784.013L582.604 792.047C580.596 786.223 579.792 783.411 577.784 777.586L590.236 767.142L574.771 768.749C572.361 762.924 572.361 760.112 569.951 754.288V754.288Z" fill="url(#paint68_linear_108_134)"/>
<path d="M664.128 909.342C662.32 903.518 661.316 900.706 659.307 894.881L654.688 910.347L639.223 912.154L651.675 919.987C649.868 926.013 648.863 929.226 646.855 935.453C651.876 931.034 654.487 929.026 659.307 924.607L671.961 932.44C669.952 926.615 668.948 923.804 667.141 918.18L679.593 907.334L664.128 909.342Z" fill="url(#paint69_linear_108_134)"/>
<path d="M619.571 876.805C617.562 870.981 616.759 868.169 614.751 862.344C612.943 868.57 611.939 871.583 609.93 877.809L594.465 879.416L607.118 887.249C605.11 893.476 604.106 896.488 602.298 902.715L614.751 892.07L627.404 900.103C625.395 894.279 624.391 891.467 622.584 885.642L635.036 874.997L619.571 876.805Z" fill="url(#paint70_linear_108_134)"/>
<path d="M614.751 637.194C612.943 643.42 611.939 646.433 609.93 652.659L594.465 654.065L607.118 662.099C605.11 668.325 604.106 671.338 602.298 677.564L614.751 666.919L627.404 674.752C625.395 669.128 624.391 666.116 622.584 660.492L635.036 649.847L619.571 651.454C617.763 645.83 616.759 643.018 614.751 637.194V637.194Z" fill="url(#paint71_linear_108_134)"/>
<path d="M614.751 787.428C612.943 793.453 611.939 796.667 609.93 802.692L594.465 805.102L607.118 812.935C605.11 819.162 604.106 822.174 602.298 828.401L614.751 817.957L627.404 825.79C625.395 819.965 624.391 817.153 622.584 811.329L635.036 800.884L619.571 802.491C617.763 795.863 616.759 793.051 614.751 787.428V787.428Z" fill="url(#paint72_linear_108_134)"/>
<path d="M614.751 712.311C612.943 718.336 611.939 721.55 609.93 727.575L594.465 729.182L607.118 737.216C605.11 743.241 604.106 746.455 602.298 752.48L614.751 742.036L627.404 749.869C625.395 744.045 624.391 741.233 622.584 735.609L635.036 724.964L619.571 726.571C617.763 720.947 616.759 717.934 614.751 712.311V712.311Z" fill="url(#paint73_linear_108_134)"/>
<defs>
<linearGradient id="paint0_linear_108_134" x1="270.079" y1="1212.02" x2="1318.91" y2="1212.02" gradientUnits="userSpaceOnUse">
<stop stop-color="#600000"/>
<stop offset="0.33" stop-color="#630000"/>
<stop offset="0.59" stop-color="#6D0000"/>
<stop offset="0.83" stop-color="#7E0000"/>
<stop offset="1" stop-color="#8F0000"/>
</linearGradient>
<linearGradient id="paint1_linear_108_134" x1="794.491" y1="1117.42" x2="794.491" y2="1306.82" gradientUnits="userSpaceOnUse">
<stop offset="0.35" stop-color="#BF1010"/>
<stop offset="0.65" stop-color="#BD1010"/>
<stop offset="0.75" stop-color="#B60F0F"/>
<stop offset="0.83" stop-color="#AB0D0D"/>
<stop offset="0.89" stop-color="#9A0A0A"/>
<stop offset="0.94" stop-color="#840606"/>
<stop offset="0.99" stop-color="#690202"/>
<stop offset="1" stop-color="#600000"/>
</linearGradient>
<linearGradient id="paint2_linear_108_134" x1="270.068" y1="1009.36" x2="1438" y2="1009.36" gradientUnits="userSpaceOnUse">
<stop offset="0.38" stop-opacity="0.06"/>
<stop offset="1" stop-opacity="0"/>
</linearGradient>
<linearGradient id="paint3_linear_108_134" x1="270.051" y1="1006.55" x2="1430.15" y2="1006.55" gradientUnits="userSpaceOnUse">
<stop offset="0.38" stop-opacity="0.13"/>
<stop offset="1" stop-opacity="0"/>
</linearGradient>
<linearGradient id="paint4_linear_108_134" x1="270.051" y1="1003.54" x2="1422.11" y2="1003.54" gradientUnits="userSpaceOnUse">
<stop offset="0.38" stop-opacity="0.19"/>
<stop offset="1" stop-opacity="0"/>
</linearGradient>
<linearGradient id="paint5_linear_108_134" x1="270.051" y1="1000.73" x2="1414.28" y2="1000.73" gradientUnits="userSpaceOnUse">
<stop offset="0.38" stop-opacity="0.25"/>
<stop offset="1" stop-opacity="0"/>
</linearGradient>
<linearGradient id="paint6_linear_108_134" x1="270.062" y1="997.715" x2="1406.26" y2="997.715" gradientUnits="userSpaceOnUse">
<stop offset="0.38" stop-opacity="0.31"/>
<stop offset="1" stop-opacity="0"/>
</linearGradient>
<linearGradient id="paint7_linear_108_134" x1="270.062" y1="994.904" x2="1398.43" y2="994.904" gradientUnits="userSpaceOnUse">
<stop offset="0.38" stop-opacity="0.38"/>
<stop offset="1" stop-opacity="0"/>
</linearGradient>
<linearGradient id="paint8_linear_108_134" x1="270.062" y1="991.891" x2="1390.39" y2="991.891" gradientUnits="userSpaceOnUse">
<stop offset="0.38" stop-opacity="0.44"/>
<stop offset="1" stop-opacity="0"/>
</linearGradient>
<linearGradient id="paint9_linear_108_134" x1="270.062" y1="989.079" x2="1382.56" y2="989.079" gradientUnits="userSpaceOnUse">
<stop offset="0.38" stop-opacity="0.5"/>
<stop offset="1" stop-opacity="0"/>
</linearGradient>
<linearGradient id="paint10_linear_108_134" x1="270.062" y1="986.267" x2="1374.53" y2="986.267" gradientUnits="userSpaceOnUse">
<stop offset="0.38" stop-opacity="0.56"/>
<stop offset="1" stop-opacity="0"/>
</linearGradient>
<linearGradient id="paint11_linear_108_134" x1="270.062" y1="983.254" x2="1366.69" y2="983.254" gradientUnits="userSpaceOnUse">
<stop offset="0.38" stop-opacity="0.63"/>
<stop offset="1" stop-opacity="0"/>
</linearGradient>
<linearGradient id="paint12_linear_108_134" x1="270.062" y1="980.443" x2="1358.66" y2="980.443" gradientUnits="userSpaceOnUse">
<stop offset="0.38" stop-opacity="0.69"/>
<stop offset="1" stop-opacity="0"/>
</linearGradient>
<linearGradient id="paint13_linear_108_134" x1="270.062" y1="977.631" x2="1350.62" y2="977.631" gradientUnits="userSpaceOnUse">
<stop offset="0.38" stop-opacity="0.75"/>
<stop offset="1" stop-opacity="0"/>
</linearGradient>
<linearGradient id="paint14_linear_108_134" x1="270.062" y1="974.819" x2="1342.79" y2="974.819" gradientUnits="userSpaceOnUse">
<stop offset="0.38" stop-opacity="0.81"/>
<stop offset="1" stop-opacity="0"/>
</linearGradient>
<linearGradient id="paint15_linear_108_134" x1="270.062" y1="972.007" x2="1334.76" y2="972.007" gradientUnits="userSpaceOnUse">
<stop offset="0.38" stop-opacity="0.88"/>
<stop offset="1" stop-opacity="0"/>
</linearGradient>
<linearGradient id="paint16_linear_108_134" x1="270.062" y1="969.396" x2="1326.92" y2="969.396" gradientUnits="userSpaceOnUse">
<stop offset="0.38" stop-opacity="0.94"/>
<stop offset="1" stop-opacity="0"/>
</linearGradient>
<linearGradient id="paint17_linear_108_134" x1="270.062" y1="966.785" x2="1318.89" y2="966.785" gradientUnits="userSpaceOnUse">
<stop offset="0.38"/>
<stop offset="1" stop-opacity="0"/>
</linearGradient>
<radialGradient id="paint18_radial_108_134" cx="0" cy="0" r="1" gradientUnits="userSpaceOnUse" gradientTransform="translate(-166.64 -89.7392) rotate(42.7095) scale(2179.1 2331.5)">
<stop offset="0.0386219" stop-color="#512763"/>
<stop offset="0.227035" stop-color="#A21E7C"/>
<stop offset="0.644652" stop-color="#FEAB53"/>
<stop offset="1" stop-color="#FFC481"/>
</radialGradient>
<linearGradient id="paint19_linear_108_134" x1="270.088" y1="893.676" x2="1318.92" y2="893.676" gradientUnits="userSpaceOnUse">
<stop stop-color="#BF1010"/>
<stop offset="0.02" stop-color="#C11212"/>
<stop offset="0.24" stop-color="#D22323"/>
<stop offset="0.49" stop-color="#DC2D2D"/>
<stop offset="0.79" stop-color="#DF3030"/>
<stop offset="0.84" stop-color="#DC2E2E"/>
<stop offset="0.88" stop-color="#D22626"/>
<stop offset="0.92" stop-color="#C11919"/>
<stop offset="0.95" stop-color="#A90808"/>
<stop offset="0.97" stop-color="#9F0000"/>
<stop offset="1" stop-color="#DF3030"/>
</linearGradient>
<linearGradient id="paint20_linear_108_134" x1="270.088" y1="786.424" x2="1318.92" y2="786.424" gradientUnits="userSpaceOnUse">
<stop stop-color="#DFDFDF"/>
<stop offset="0.02" stop-color="#E1E1E1"/>
<stop offset="0.24" stop-color="#F2F2F2"/>
<stop offset="0.49" stop-color="#FCFCFC"/>
<stop offset="0.79" stop-color="white"/>
<stop offset="0.84" stop-color="#FCFCFC"/>
<stop offset="0.88" stop-color="#F2F2F2"/>
<stop offset="0.92" stop-color="#E1E1E1"/>
<stop offset="0.95" stop-color="#C9C9C9"/>
<stop offset="0.97" stop-color="#BFBFBF"/>
<stop offset="1" stop-color="white"/>
</linearGradient>
<linearGradient id="paint21_linear_108_134" x1="22218.8" y1="11172.2" x2="76925.6" y2="11172.2" gradientUnits="userSpaceOnUse">
<stop stop-color="#DFDFDF"/>
<stop offset="0.02" stop-color="#E1E1E1"/>
<stop offset="0.24" stop-color="#F2F2F2"/>
<stop offset="0.49" stop-color="#FCFCFC"/>
<stop offset="0.79" stop-color="white"/>
<stop offset="0.84" stop-color="#FCFCFC"/>
<stop offset="0.88" stop-color="#F2F2F2"/>
<stop offset="0.92" stop-color="#E1E1E1"/>
<stop offset="0.95" stop-color="#C9C9C9"/>
<stop offset="0.97" stop-color="#BFBFBF"/>
<stop offset="1" stop-color="white"/>
</linearGradient>
<linearGradient id="paint22_linear_108_134" x1="22238.9" y1="12129.6" x2="76998.2" y2="12129.6" gradientUnits="userSpaceOnUse">
<stop stop-color="#DFDFDF"/>
<stop offset="0.02" stop-color="#E1E1E1"/>
<stop offset="0.24" stop-color="#F2F2F2"/>
<stop offset="0.49" stop-color="#FCFCFC"/>
<stop offset="0.79" stop-color="white"/>
<stop offset="0.84" stop-color="#FCFCFC"/>
<stop offset="0.88" stop-color="#F2F2F2"/>
<stop offset="0.92" stop-color="#E1E1E1"/>
<stop offset="0.95" stop-color="#C9C9C9"/>
<stop offset="0.97" stop-color="#BFBFBF"/>
<stop offset="1" stop-color="white"/>
</linearGradient>
<linearGradient id="paint23_linear_108_134" x1="270.088" y1="769.15" x2="1318.92" y2="769.15" gradientUnits="userSpaceOnUse">
<stop stop-color="#00209F"/>
<stop offset="0.02" stop-color="#0222A1"/>
<stop offset="0.24" stop-color="#1333B2"/>
<stop offset="0.49" stop-color="#1D3DBC"/>
<stop offset="0.79" stop-color="#2040BF"/>
<stop offset="0.84" stop-color="#1E3DBC"/>
<stop offset="0.88" stop-color="#1933B2"/>
<stop offset="0.92" stop-color="#1122A1"/>
<stop offset="0.95" stop-color="#050A89"/>
<stop offset="0.97" stop-color="#00007F"/>
<stop offset="1" stop-color="#2040BF"/>
</linearGradient>
<linearGradient id="paint24_linear_108_134" x1="1217.05" y1="2151.75" x2="3325.2" y2="2151.75" gradientUnits="userSpaceOnUse">
<stop stop-color="#DFDFDF"/>
<stop offset="0.02" stop-color="#E1E1E1"/>
<stop offset="0.24" stop-color="#F2F2F2"/>
<stop offset="0.49" stop-color="#FCFCFC"/>
<stop offset="0.79" stop-color="white"/>
<stop offset="0.84" stop-color="#FCFCFC"/>
<stop offset="0.88" stop-color="#F2F2F2"/>
<stop offset="0.92" stop-color="#E1E1E1"/>
<stop offset="0.95" stop-color="#C9C9C9"/>
<stop offset="0.97" stop-color="#BFBFBF"/>
<stop offset="1" stop-color="white"/>
</linearGradient>
<linearGradient id="paint25_linear_108_134" x1="1265.47" y1="2695.9" x2="3384.1" y2="2695.9" gradientUnits="userSpaceOnUse">
<stop stop-color="#DFDFDF"/>
<stop offset="0.02" stop-color="#E1E1E1"/>
<stop offset="0.24" stop-color="#F2F2F2"/>
<stop offset="0.49" stop-color="#FCFCFC"/>
<stop offset="0.79" stop-color="white"/>
<stop offset="0.84" stop-color="#FCFCFC"/>
<stop offset="0.88" stop-color="#F2F2F2"/>
<stop offset="0.92" stop-color="#E1E1E1"/>
<stop offset="0.95" stop-color="#C9C9C9"/>
<stop offset="0.97" stop-color="#BFBFBF"/>
<stop offset="1" stop-color="white"/>
</linearGradient>
<linearGradient id="paint26_linear_108_134" x1="1265.47" y1="2915.6" x2="3384.1" y2="2915.6" gradientUnits="userSpaceOnUse">
<stop stop-color="#DFDFDF"/>
<stop offset="0.02" stop-color="#E1E1E1"/>
<stop offset="0.24" stop-color="#F2F2F2"/>
<stop offset="0.49" stop-color="#FCFCFC"/>
<stop offset="0.79" stop-color="white"/>
<stop offset="0.84" stop-color="#FCFCFC"/>
<stop offset="0.88" stop-color="#F2F2F2"/>
<stop offset="0.92" stop-color="#E1E1E1"/>
<stop offset="0.95" stop-color="#C9C9C9"/>
<stop offset="0.97" stop-color="#BFBFBF"/>
<stop offset="1" stop-color="white"/>
</linearGradient>
<linearGradient id="paint27_linear_108_134" x1="1217.05" y1="2601.19" x2="3325.2" y2="2601.19" gradientUnits="userSpaceOnUse">
<stop stop-color="#DFDFDF"/>
<stop offset="0.02" stop-color="#E1E1E1"/>
<stop offset="0.24" stop-color="#F2F2F2"/>
<stop offset="0.49" stop-color="#FCFCFC"/>
<stop offset="0.79" stop-color="white"/>
<stop offset="0.84" stop-color="#FCFCFC"/>
<stop offset="0.88" stop-color="#F2F2F2"/>
<stop offset="0.92" stop-color="#E1E1E1"/>
<stop offset="0.95" stop-color="#C9C9C9"/>
<stop offset="0.97" stop-color="#BFBFBF"/>
<stop offset="1" stop-color="white"/>
</linearGradient>
<linearGradient id="paint28_linear_108_134" x1="1217.05" y1="2821.64" x2="3325.2" y2="2821.64" gradientUnits="userSpaceOnUse">
<stop stop-color="#DFDFDF"/>
<stop offset="0.02" stop-color="#E1E1E1"/>
<stop offset="0.24" stop-color="#F2F2F2"/>
<stop offset="0.49" stop-color="#FCFCFC"/>
<stop offset="0.79" stop-color="white"/>
<stop offset="0.84" stop-color="#FCFCFC"/>
<stop offset="0.88" stop-color="#F2F2F2"/>
<stop offset="0.92" stop-color="#E1E1E1"/>
<stop offset="0.95" stop-color="#C9C9C9"/>
<stop offset="0.97" stop-color="#BFBFBF"/>
<stop offset="1" stop-color="white"/>
</linearGradient>
<linearGradient id="paint29_linear_108_134" x1="1217.05" y1="2380.54" x2="3325.2" y2="2380.54" gradientUnits="userSpaceOnUse">
<stop stop-color="#DFDFDF"/>
<stop offset="0.02" stop-color="#E1E1E1"/>
<stop offset="0.24" stop-color="#F2F2F2"/>
<stop offset="0.49" stop-color="#FCFCFC"/>
<stop offset="0.79" stop-color="white"/>
<stop offset="0.84" stop-color="#FCFCFC"/>
<stop offset="0.88" stop-color="#F2F2F2"/>
<stop offset="0.92" stop-color="#E1E1E1"/>
<stop offset="0.95" stop-color="#C9C9C9"/>
<stop offset="0.97" stop-color="#BFBFBF"/>
<stop offset="1" stop-color="white"/>
</linearGradient>
<linearGradient id="paint30_linear_108_134" x1="1355.03" y1="2960.55" x2="3474.06" y2="2960.55" gradientUnits="userSpaceOnUse">
<stop stop-color="#DFDFDF"/>
<stop offset="0.02" stop-color="#E1E1E1"/>
<stop offset="0.24" stop-color="#F2F2F2"/>
<stop offset="0.49" stop-color="#FCFCFC"/>
<stop offset="0.79" stop-color="white"/>
<stop offset="0.84" stop-color="#FCFCFC"/>
<stop offset="0.88" stop-color="#F2F2F2"/>
<stop offset="0.92" stop-color="#E1E1E1"/>
<stop offset="0.95" stop-color="#C9C9C9"/>
<stop offset="0.97" stop-color="#BFBFBF"/>
<stop offset="1" stop-color="white"/>
</linearGradient>
<linearGradient id="paint31_linear_108_134" x1="1265.47" y1="2493.92" x2="3384.1" y2="2493.92" gradientUnits="userSpaceOnUse">
<stop stop-color="#DFDFDF"/>
<stop offset="0.02" stop-color="#E1E1E1"/>
<stop offset="0.24" stop-color="#F2F2F2"/>
<stop offset="0.49" stop-color="#FCFCFC"/>
<stop offset="0.79" stop-color="white"/>
<stop offset="0.84" stop-color="#FCFCFC"/>
<stop offset="0.88" stop-color="#F2F2F2"/>
<stop offset="0.92" stop-color="#E1E1E1"/>
<stop offset="0.95" stop-color="#C9C9C9"/>
<stop offset="0.97" stop-color="#BFBFBF"/>
<stop offset="1" stop-color="white"/>
</linearGradient>
<linearGradient id="paint32_linear_108_134" x1="1310.23" y1="2797.7" x2="3428.86" y2="2797.7" gradientUnits="userSpaceOnUse">
<stop stop-color="#DFDFDF"/>
<stop offset="0.02" stop-color="#E1E1E1"/>
<stop offset="0.24" stop-color="#F2F2F2"/>
<stop offset="0.49" stop-color="#FCFCFC"/>
<stop offset="0.79" stop-color="white"/>
<stop offset="0.84" stop-color="#FCFCFC"/>
<stop offset="0.88" stop-color="#F2F2F2"/>
<stop offset="0.92" stop-color="#E1E1E1"/>
<stop offset="0.95" stop-color="#C9C9C9"/>
<stop offset="0.97" stop-color="#BFBFBF"/>
<stop offset="1" stop-color="white"/>
</linearGradient>
<linearGradient id="paint33_linear_108_134" x1="1310.23" y1="3072.35" x2="3428.86" y2="3072.35" gradientUnits="userSpaceOnUse">
<stop stop-color="#DFDFDF"/>
<stop offset="0.02" stop-color="#E1E1E1"/>
<stop offset="0.24" stop-color="#F2F2F2"/>
<stop offset="0.49" stop-color="#FCFCFC"/>
<stop offset="0.79" stop-color="white"/>
<stop offset="0.84" stop-color="#FCFCFC"/>
<stop offset="0.88" stop-color="#F2F2F2"/>
<stop offset="0.92" stop-color="#E1E1E1"/>
<stop offset="0.95" stop-color="#C9C9C9"/>
<stop offset="0.97" stop-color="#BFBFBF"/>
<stop offset="1" stop-color="white"/>
</linearGradient>
<linearGradient id="paint34_linear_108_134" x1="1265.47" y1="2264.02" x2="3384.1" y2="2264.02" gradientUnits="userSpaceOnUse">
<stop stop-color="#DFDFDF"/>
<stop offset="0.02" stop-color="#E1E1E1"/>
<stop offset="0.24" stop-color="#F2F2F2"/>
<stop offset="0.49" stop-color="#FCFCFC"/>
<stop offset="0.79" stop-color="white"/>
<stop offset="0.84" stop-color="#FCFCFC"/>
<stop offset="0.88" stop-color="#F2F2F2"/>
<stop offset="0.92" stop-color="#E1E1E1"/>
<stop offset="0.95" stop-color="#C9C9C9"/>
<stop offset="0.97" stop-color="#BFBFBF"/>
<stop offset="1" stop-color="white"/>
</linearGradient>
<linearGradient id="paint35_linear_108_134" x1="1310.23" y1="2577.61" x2="3428.86" y2="2577.61" gradientUnits="userSpaceOnUse">
<stop stop-color="#DFDFDF"/>
<stop offset="0.02" stop-color="#E1E1E1"/>
<stop offset="0.24" stop-color="#F2F2F2"/>
<stop offset="0.49" stop-color="#FCFCFC"/>
<stop offset="0.79" stop-color="white"/>
<stop offset="0.84" stop-color="#FCFCFC"/>
<stop offset="0.88" stop-color="#F2F2F2"/>
<stop offset="0.92" stop-color="#E1E1E1"/>
<stop offset="0.95" stop-color="#C9C9C9"/>
<stop offset="0.97" stop-color="#BFBFBF"/>
<stop offset="1" stop-color="white"/>
</linearGradient>
<linearGradient id="paint36_linear_108_134" x1="1217.05" y1="3031.53" x2="3325.2" y2="3031.53" gradientUnits="userSpaceOnUse">
<stop stop-color="#DFDFDF"/>
<stop offset="0.02" stop-color="#E1E1E1"/>
<stop offset="0.24" stop-color="#F2F2F2"/>
<stop offset="0.49" stop-color="#FCFCFC"/>
<stop offset="0.79" stop-color="white"/>
<stop offset="0.84" stop-color="#FCFCFC"/>
<stop offset="0.88" stop-color="#F2F2F2"/>
<stop offset="0.92" stop-color="#E1E1E1"/>
<stop offset="0.95" stop-color="#C9C9C9"/>
<stop offset="0.97" stop-color="#BFBFBF"/>
<stop offset="1" stop-color="white"/>
</linearGradient>
<linearGradient id="paint37_linear_108_134" x1="1131.27" y1="2598.61" x2="3250.31" y2="2598.61" gradientUnits="userSpaceOnUse">
<stop stop-color="#DFDFDF"/>
<stop offset="0.02" stop-color="#E1E1E1"/>
<stop offset="0.24" stop-color="#F2F2F2"/>
<stop offset="0.49" stop-color="#FCFCFC"/>
<stop offset="0.79" stop-color="white"/>
<stop offset="0.84" stop-color="#FCFCFC"/>
<stop offset="0.88" stop-color="#F2F2F2"/>
<stop offset="0.92" stop-color="#E1E1E1"/>
<stop offset="0.95" stop-color="#C9C9C9"/>
<stop offset="0.97" stop-color="#BFBFBF"/>
<stop offset="1" stop-color="white"/>
</linearGradient>
<linearGradient id="paint38_linear_108_134" x1="1131.27" y1="2378.52" x2="3250.31" y2="2378.52" gradientUnits="userSpaceOnUse">
<stop stop-color="#DFDFDF"/>
<stop offset="0.02" stop-color="#E1E1E1"/>
<stop offset="0.24" stop-color="#F2F2F2"/>
<stop offset="0.49" stop-color="#FCFCFC"/>
<stop offset="0.79" stop-color="white"/>
<stop offset="0.84" stop-color="#FCFCFC"/>
<stop offset="0.88" stop-color="#F2F2F2"/>
<stop offset="0.92" stop-color="#E1E1E1"/>
<stop offset="0.95" stop-color="#C9C9C9"/>
<stop offset="0.97" stop-color="#BFBFBF"/>
<stop offset="1" stop-color="white"/>
</linearGradient>
<linearGradient id="paint39_linear_108_134" x1="1131.27" y1="3049.58" x2="3249.5" y2="3049.58" gradientUnits="userSpaceOnUse">
<stop stop-color="#DFDFDF"/>
<stop offset="0.02" stop-color="#E1E1E1"/>
<stop offset="0.24" stop-color="#F2F2F2"/>
<stop offset="0.49" stop-color="#FCFCFC"/>
<stop offset="0.79" stop-color="white"/>
<stop offset="0.84" stop-color="#FCFCFC"/>
<stop offset="0.88" stop-color="#F2F2F2"/>
<stop offset="0.92" stop-color="#E1E1E1"/>
<stop offset="0.95" stop-color="#C9C9C9"/>
<stop offset="0.97" stop-color="#BFBFBF"/>
<stop offset="1" stop-color="white"/>
</linearGradient>
<linearGradient id="paint40_linear_108_134" x1="1310.23" y1="2409.85" x2="3428.86" y2="2409.85" gradientUnits="userSpaceOnUse">
<stop stop-color="#DFDFDF"/>
<stop offset="0.02" stop-color="#E1E1E1"/>
<stop offset="0.24" stop-color="#F2F2F2"/>
<stop offset="0.49" stop-color="#FCFCFC"/>
<stop offset="0.79" stop-color="white"/>
<stop offset="0.84" stop-color="#FCFCFC"/>
<stop offset="0.88" stop-color="#F2F2F2"/>
<stop offset="0.92" stop-color="#E1E1E1"/>
<stop offset="0.95" stop-color="#C9C9C9"/>
<stop offset="0.97" stop-color="#BFBFBF"/>
<stop offset="1" stop-color="white"/>
</linearGradient>
<linearGradient id="paint41_linear_108_134" x1="1310.23" y1="2177.55" x2="3428.86" y2="2177.55" gradientUnits="userSpaceOnUse">
<stop stop-color="#DFDFDF"/>
<stop offset="0.02" stop-color="#E1E1E1"/>
<stop offset="0.24" stop-color="#F2F2F2"/>
<stop offset="0.49" stop-color="#FCFCFC"/>
<stop offset="0.79" stop-color="white"/>
<stop offset="0.84" stop-color="#FCFCFC"/>
<stop offset="0.88" stop-color="#F2F2F2"/>
<stop offset="0.92" stop-color="#E1E1E1"/>
<stop offset="0.95" stop-color="#C9C9C9"/>
<stop offset="0.97" stop-color="#BFBFBF"/>
<stop offset="1" stop-color="white"/>
</linearGradient>
<linearGradient id="paint42_linear_108_134" x1="1131.27" y1="2839.96" x2="3249.91" y2="2839.96" gradientUnits="userSpaceOnUse">
<stop stop-color="#DFDFDF"/>
<stop offset="0.02" stop-color="#E1E1E1"/>
<stop offset="0.24" stop-color="#F2F2F2"/>
<stop offset="0.49" stop-color="#FCFCFC"/>
<stop offset="0.79" stop-color="white"/>
<stop offset="0.84" stop-color="#FCFCFC"/>
<stop offset="0.88" stop-color="#F2F2F2"/>
<stop offset="0.92" stop-color="#E1E1E1"/>
<stop offset="0.95" stop-color="#C9C9C9"/>
<stop offset="0.97" stop-color="#BFBFBF"/>
<stop offset="1" stop-color="white"/>
</linearGradient>
<linearGradient id="paint43_linear_108_134" x1="1176.07" y1="2274.26" x2="3294.71" y2="2274.26" gradientUnits="userSpaceOnUse">
<stop stop-color="#DFDFDF"/>
<stop offset="0.02" stop-color="#E1E1E1"/>
<stop offset="0.24" stop-color="#F2F2F2"/>
<stop offset="0.49" stop-color="#FCFCFC"/>
<stop offset="0.79" stop-color="white"/>
<stop offset="0.84" stop-color="#FCFCFC"/>
<stop offset="0.88" stop-color="#F2F2F2"/>
<stop offset="0.92" stop-color="#E1E1E1"/>
<stop offset="0.95" stop-color="#C9C9C9"/>
<stop offset="0.97" stop-color="#BFBFBF"/>
<stop offset="1" stop-color="white"/>
</linearGradient>
<linearGradient id="paint44_linear_108_134" x1="1176.07" y1="2495.1" x2="3294.71" y2="2495.1" gradientUnits="userSpaceOnUse">
<stop stop-color="#DFDFDF"/>
<stop offset="0.02" stop-color="#E1E1E1"/>
<stop offset="0.24" stop-color="#F2F2F2"/>
<stop offset="0.49" stop-color="#FCFCFC"/>
<stop offset="0.79" stop-color="white"/>
<stop offset="0.84" stop-color="#FCFCFC"/>
<stop offset="0.88" stop-color="#F2F2F2"/>
<stop offset="0.92" stop-color="#E1E1E1"/>
<stop offset="0.95" stop-color="#C9C9C9"/>
<stop offset="0.97" stop-color="#BFBFBF"/>
<stop offset="1" stop-color="white"/>
</linearGradient>
<linearGradient id="paint45_linear_108_134" x1="1176.27" y1="2925.81" x2="3294.9" y2="2925.81" gradientUnits="userSpaceOnUse">
<stop stop-color="#DFDFDF"/>
<stop offset="0.02" stop-color="#E1E1E1"/>
<stop offset="0.24" stop-color="#F2F2F2"/>
<stop offset="0.49" stop-color="#FCFCFC"/>
<stop offset="0.79" stop-color="white"/>
<stop offset="0.84" stop-color="#FCFCFC"/>
<stop offset="0.88" stop-color="#F2F2F2"/>
<stop offset="0.92" stop-color="#E1E1E1"/>
<stop offset="0.95" stop-color="#C9C9C9"/>
<stop offset="0.97" stop-color="#BFBFBF"/>
<stop offset="1" stop-color="white"/>
</linearGradient>
<linearGradient id="paint46_linear_108_134" x1="1176.07" y1="2724.99" x2="3294.71" y2="2724.99" gradientUnits="userSpaceOnUse">
<stop stop-color="#DFDFDF"/>
<stop offset="0.02" stop-color="#E1E1E1"/>
<stop offset="0.24" stop-color="#F2F2F2"/>
<stop offset="0.49" stop-color="#FCFCFC"/>
<stop offset="0.79" stop-color="white"/>
<stop offset="0.84" stop-color="#FCFCFC"/>
<stop offset="0.88" stop-color="#F2F2F2"/>
<stop offset="0.92" stop-color="#E1E1E1"/>
<stop offset="0.95" stop-color="#C9C9C9"/>
<stop offset="0.97" stop-color="#BFBFBF"/>
<stop offset="1" stop-color="white"/>
</linearGradient>
<linearGradient id="paint47_linear_108_134" x1="1131.27" y1="2166.4" x2="3250.31" y2="2166.4" gradientUnits="userSpaceOnUse">
<stop stop-color="#DFDFDF"/>
<stop offset="0.02" stop-color="#E1E1E1"/>
<stop offset="0.24" stop-color="#F2F2F2"/>
<stop offset="0.49" stop-color="#FCFCFC"/>
<stop offset="0.79" stop-color="white"/>
<stop offset="0.84" stop-color="#FCFCFC"/>
<stop offset="0.88" stop-color="#F2F2F2"/>
<stop offset="0.92" stop-color="#E1E1E1"/>
<stop offset="0.95" stop-color="#C9C9C9"/>
<stop offset="0.97" stop-color="#BFBFBF"/>
<stop offset="1" stop-color="white"/>
</linearGradient>
<linearGradient id="paint48_linear_108_134" x1="1355.03" y1="2736.15" x2="3474.06" y2="2736.15" gradientUnits="userSpaceOnUse">
<stop stop-color="#DFDFDF"/>
<stop offset="0.02" stop-color="#E1E1E1"/>
<stop offset="0.24" stop-color="#F2F2F2"/>
<stop offset="0.49" stop-color="#FCFCFC"/>
<stop offset="0.79" stop-color="white"/>
<stop offset="0.84" stop-color="#FCFCFC"/>
<stop offset="0.88" stop-color="#F2F2F2"/>
<stop offset="0.92" stop-color="#E1E1E1"/>
<stop offset="0.95" stop-color="#C9C9C9"/>
<stop offset="0.97" stop-color="#BFBFBF"/>
<stop offset="1" stop-color="white"/>
</linearGradient>
<linearGradient id="paint49_linear_108_134" x1="1534.2" y1="2707.98" x2="3652.42" y2="2707.98" gradientUnits="userSpaceOnUse">
<stop stop-color="#DFDFDF"/>
<stop offset="0.02" stop-color="#E1E1E1"/>
<stop offset="0.24" stop-color="#F2F2F2"/>
<stop offset="0.49" stop-color="#FCFCFC"/>
<stop offset="0.79" stop-color="white"/>
<stop offset="0.84" stop-color="#FCFCFC"/>
<stop offset="0.88" stop-color="#F2F2F2"/>
<stop offset="0.92" stop-color="#E1E1E1"/>
<stop offset="0.95" stop-color="#C9C9C9"/>
<stop offset="0.97" stop-color="#BFBFBF"/>
<stop offset="1" stop-color="white"/>
</linearGradient>
<linearGradient id="paint50_linear_108_134" x1="1534.2" y1="2481.12" x2="3652.42" y2="2481.12" gradientUnits="userSpaceOnUse">
<stop stop-color="#DFDFDF"/>
<stop offset="0.02" stop-color="#E1E1E1"/>
<stop offset="0.24" stop-color="#F2F2F2"/>
<stop offset="0.49" stop-color="#FCFCFC"/>
<stop offset="0.79" stop-color="white"/>
<stop offset="0.84" stop-color="#FCFCFC"/>
<stop offset="0.88" stop-color="#F2F2F2"/>
<stop offset="0.92" stop-color="#E1E1E1"/>
<stop offset="0.95" stop-color="#C9C9C9"/>
<stop offset="0.97" stop-color="#BFBFBF"/>
<stop offset="1" stop-color="white"/>
</linearGradient>
<linearGradient id="paint51_linear_108_134" x1="1534.2" y1="2934.03" x2="3652.42" y2="2934.03" gradientUnits="userSpaceOnUse">
<stop stop-color="#DFDFDF"/>
<stop offset="0.02" stop-color="#E1E1E1"/>
<stop offset="0.24" stop-color="#F2F2F2"/>
<stop offset="0.49" stop-color="#FCFCFC"/>
<stop offset="0.79" stop-color="white"/>
<stop offset="0.84" stop-color="#FCFCFC"/>
<stop offset="0.88" stop-color="#F2F2F2"/>
<stop offset="0.92" stop-color="#E1E1E1"/>
<stop offset="0.95" stop-color="#C9C9C9"/>
<stop offset="0.97" stop-color="#BFBFBF"/>
<stop offset="1" stop-color="white"/>
</linearGradient>
<linearGradient id="paint52_linear_108_134" x1="1484.98" y1="2350.32" x2="3593.53" y2="2350.32" gradientUnits="userSpaceOnUse">
<stop stop-color="#DFDFDF"/>
<stop offset="0.02" stop-color="#E1E1E1"/>
<stop offset="0.24" stop-color="#F2F2F2"/>
<stop offset="0.49" stop-color="#FCFCFC"/>
<stop offset="0.79" stop-color="white"/>
<stop offset="0.84" stop-color="#FCFCFC"/>
<stop offset="0.88" stop-color="#F2F2F2"/>
<stop offset="0.92" stop-color="#E1E1E1"/>
<stop offset="0.95" stop-color="#C9C9C9"/>
<stop offset="0.97" stop-color="#BFBFBF"/>
<stop offset="1" stop-color="white"/>
</linearGradient>
<linearGradient id="paint53_linear_108_134" x1="1534.2" y1="2254.27" x2="3652.42" y2="2254.27" gradientUnits="userSpaceOnUse">
<stop stop-color="#DFDFDF"/>
<stop offset="0.02" stop-color="#E1E1E1"/>
<stop offset="0.24" stop-color="#F2F2F2"/>
<stop offset="0.49" stop-color="#FCFCFC"/>
<stop offset="0.79" stop-color="white"/>
<stop offset="0.84" stop-color="#FCFCFC"/>
<stop offset="0.88" stop-color="#F2F2F2"/>
<stop offset="0.92" stop-color="#E1E1E1"/>
<stop offset="0.95" stop-color="#C9C9C9"/>
<stop offset="0.97" stop-color="#BFBFBF"/>
<stop offset="1" stop-color="white"/>
</linearGradient>
<linearGradient id="paint54_linear_108_134" x1="1484.98" y1="2150.09" x2="3593.53" y2="2150.09" gradientUnits="userSpaceOnUse">
<stop stop-color="#DFDFDF"/>
<stop offset="0.02" stop-color="#E1E1E1"/>
<stop offset="0.24" stop-color="#F2F2F2"/>
<stop offset="0.49" stop-color="#FCFCFC"/>
<stop offset="0.79" stop-color="white"/>
<stop offset="0.84" stop-color="#FCFCFC"/>
<stop offset="0.88" stop-color="#F2F2F2"/>
<stop offset="0.92" stop-color="#E1E1E1"/>
<stop offset="0.95" stop-color="#C9C9C9"/>
<stop offset="0.97" stop-color="#BFBFBF"/>
<stop offset="1" stop-color="white"/>
</linearGradient>
<linearGradient id="paint55_linear_108_134" x1="1578.59" y1="2576.96" x2="3697.22" y2="2576.96" gradientUnits="userSpaceOnUse">
<stop stop-color="#DFDFDF"/>
<stop offset="0.02" stop-color="#E1E1E1"/>
<stop offset="0.24" stop-color="#F2F2F2"/>
<stop offset="0.49" stop-color="#FCFCFC"/>
<stop offset="0.79" stop-color="white"/>
<stop offset="0.84" stop-color="#FCFCFC"/>
<stop offset="0.88" stop-color="#F2F2F2"/>
<stop offset="0.92" stop-color="#E1E1E1"/>
<stop offset="0.95" stop-color="#C9C9C9"/>
<stop offset="0.97" stop-color="#BFBFBF"/>
<stop offset="1" stop-color="white"/>
</linearGradient>
<linearGradient id="paint56_linear_108_134" x1="1578.59" y1="2350.11" x2="3697.22" y2="2350.11" gradientUnits="userSpaceOnUse">
<stop stop-color="#DFDFDF"/>
<stop offset="0.02" stop-color="#E1E1E1"/>
<stop offset="0.24" stop-color="#F2F2F2"/>
<stop offset="0.49" stop-color="#FCFCFC"/>
<stop offset="0.79" stop-color="white"/>
<stop offset="0.84" stop-color="#FCFCFC"/>
<stop offset="0.88" stop-color="#F2F2F2"/>
<stop offset="0.92" stop-color="#E1E1E1"/>
<stop offset="0.95" stop-color="#C9C9C9"/>
<stop offset="0.97" stop-color="#BFBFBF"/>
<stop offset="1" stop-color="white"/>
</linearGradient>
<linearGradient id="paint57_linear_108_134" x1="1577.96" y1="3041.09" x2="3696.6" y2="3041.09" gradientUnits="userSpaceOnUse">
<stop stop-color="#DFDFDF"/>
<stop offset="0.02" stop-color="#E1E1E1"/>
<stop offset="0.24" stop-color="#F2F2F2"/>
<stop offset="0.49" stop-color="#FCFCFC"/>
<stop offset="0.79" stop-color="white"/>
<stop offset="0.84" stop-color="#FCFCFC"/>
<stop offset="0.88" stop-color="#F2F2F2"/>
<stop offset="0.92" stop-color="#E1E1E1"/>
<stop offset="0.95" stop-color="#C9C9C9"/>
<stop offset="0.97" stop-color="#BFBFBF"/>
<stop offset="1" stop-color="white"/>
</linearGradient>
<linearGradient id="paint58_linear_108_134" x1="1578.59" y1="2124.26" x2="3697.22" y2="2124.26" gradientUnits="userSpaceOnUse">
<stop stop-color="#DFDFDF"/>
<stop offset="0.02" stop-color="#E1E1E1"/>
<stop offset="0.24" stop-color="#F2F2F2"/>
<stop offset="0.49" stop-color="#FCFCFC"/>
<stop offset="0.79" stop-color="white"/>
<stop offset="0.84" stop-color="#FCFCFC"/>
<stop offset="0.88" stop-color="#F2F2F2"/>
<stop offset="0.92" stop-color="#E1E1E1"/>
<stop offset="0.95" stop-color="#C9C9C9"/>
<stop offset="0.97" stop-color="#BFBFBF"/>
<stop offset="1" stop-color="white"/>
</linearGradient>
<linearGradient id="paint59_linear_108_134" x1="1578.59" y1="2813.49" x2="3697.22" y2="2813.49" gradientUnits="userSpaceOnUse">
<stop stop-color="#DFDFDF"/>
<stop offset="0.02" stop-color="#E1E1E1"/>
<stop offset="0.24" stop-color="#F2F2F2"/>
<stop offset="0.49" stop-color="#FCFCFC"/>
<stop offset="0.79" stop-color="white"/>
<stop offset="0.84" stop-color="#FCFCFC"/>
<stop offset="0.88" stop-color="#F2F2F2"/>
<stop offset="0.92" stop-color="#E1E1E1"/>
<stop offset="0.95" stop-color="#C9C9C9"/>
<stop offset="0.97" stop-color="#BFBFBF"/>
<stop offset="1" stop-color="white"/>
</linearGradient>
<linearGradient id="paint60_linear_108_134" x1="1484.98" y1="2601.89" x2="3593.53" y2="2601.89" gradientUnits="userSpaceOnUse">
<stop stop-color="#DFDFDF"/>
<stop offset="0.02" stop-color="#E1E1E1"/>
<stop offset="0.24" stop-color="#F2F2F2"/>
<stop offset="0.49" stop-color="#FCFCFC"/>
<stop offset="0.79" stop-color="white"/>
<stop offset="0.84" stop-color="#FCFCFC"/>
<stop offset="0.88" stop-color="#F2F2F2"/>
<stop offset="0.92" stop-color="#E1E1E1"/>
<stop offset="0.95" stop-color="#C9C9C9"/>
<stop offset="0.97" stop-color="#BFBFBF"/>
<stop offset="1" stop-color="white"/>
</linearGradient>
<linearGradient id="paint61_linear_108_134" x1="1355.03" y1="2287.35" x2="3474.06" y2="2287.35" gradientUnits="userSpaceOnUse">
<stop stop-color="#DFDFDF"/>
<stop offset="0.02" stop-color="#E1E1E1"/>
<stop offset="0.24" stop-color="#F2F2F2"/>
<stop offset="0.49" stop-color="#FCFCFC"/>
<stop offset="0.79" stop-color="white"/>
<stop offset="0.84" stop-color="#FCFCFC"/>
<stop offset="0.88" stop-color="#F2F2F2"/>
<stop offset="0.92" stop-color="#E1E1E1"/>
<stop offset="0.95" stop-color="#C9C9C9"/>
<stop offset="0.97" stop-color="#BFBFBF"/>
<stop offset="1" stop-color="white"/>
</linearGradient>
<linearGradient id="paint62_linear_108_134" x1="1399.63" y1="2846.32" x2="3518.27" y2="2846.32" gradientUnits="userSpaceOnUse">
<stop stop-color="#DFDFDF"/>
<stop offset="0.02" stop-color="#E1E1E1"/>
<stop offset="0.24" stop-color="#F2F2F2"/>
<stop offset="0.49" stop-color="#FCFCFC"/>
<stop offset="0.79" stop-color="white"/>
<stop offset="0.84" stop-color="#FCFCFC"/>
<stop offset="0.88" stop-color="#F2F2F2"/>
<stop offset="0.92" stop-color="#E1E1E1"/>
<stop offset="0.95" stop-color="#C9C9C9"/>
<stop offset="0.97" stop-color="#BFBFBF"/>
<stop offset="1" stop-color="white"/>
</linearGradient>
<linearGradient id="paint63_linear_108_134" x1="1506.02" y1="2857.76" x2="3667.02" y2="2857.76" gradientUnits="userSpaceOnUse">
<stop stop-color="#DFDFDF"/>
<stop offset="0.02" stop-color="#E1E1E1"/>
<stop offset="0.24" stop-color="#F2F2F2"/>
<stop offset="0.49" stop-color="#FCFCFC"/>
<stop offset="0.79" stop-color="white"/>
<stop offset="0.84" stop-color="#FCFCFC"/>
<stop offset="0.88" stop-color="#F2F2F2"/>
<stop offset="0.92" stop-color="#E1E1E1"/>
<stop offset="0.95" stop-color="#C9C9C9"/>
<stop offset="0.97" stop-color="#BFBFBF"/>
<stop offset="1" stop-color="white"/>
</linearGradient>
<linearGradient id="paint64_linear_108_134" x1="1399.63" y1="2395.62" x2="3518.27" y2="2395.62" gradientUnits="userSpaceOnUse">
<stop stop-color="#DFDFDF"/>
<stop offset="0.02" stop-color="#E1E1E1"/>
<stop offset="0.24" stop-color="#F2F2F2"/>
<stop offset="0.49" stop-color="#FCFCFC"/>
<stop offset="0.79" stop-color="white"/>
<stop offset="0.84" stop-color="#FCFCFC"/>
<stop offset="0.88" stop-color="#F2F2F2"/>
<stop offset="0.92" stop-color="#E1E1E1"/>
<stop offset="0.95" stop-color="#C9C9C9"/>
<stop offset="0.97" stop-color="#BFBFBF"/>
<stop offset="1" stop-color="white"/>
</linearGradient>
<linearGradient id="paint65_linear_108_134" x1="1399.63" y1="3072.68" x2="3518.27" y2="3072.68" gradientUnits="userSpaceOnUse">
<stop stop-color="#DFDFDF"/>
<stop offset="0.02" stop-color="#E1E1E1"/>
<stop offset="0.24" stop-color="#F2F2F2"/>
<stop offset="0.49" stop-color="#FCFCFC"/>
<stop offset="0.79" stop-color="white"/>
<stop offset="0.84" stop-color="#FCFCFC"/>
<stop offset="0.88" stop-color="#F2F2F2"/>
<stop offset="0.92" stop-color="#E1E1E1"/>
<stop offset="0.95" stop-color="#C9C9C9"/>
<stop offset="0.97" stop-color="#BFBFBF"/>
<stop offset="1" stop-color="white"/>
</linearGradient>
<linearGradient id="paint66_linear_108_134" x1="1355.03" y1="2511.54" x2="3474.06" y2="2511.54" gradientUnits="userSpaceOnUse">
<stop stop-color="#DFDFDF"/>
<stop offset="0.02" stop-color="#E1E1E1"/>
<stop offset="0.24" stop-color="#F2F2F2"/>
<stop offset="0.49" stop-color="#FCFCFC"/>
<stop offset="0.79" stop-color="white"/>
<stop offset="0.84" stop-color="#FCFCFC"/>
<stop offset="0.88" stop-color="#F2F2F2"/>
<stop offset="0.92" stop-color="#E1E1E1"/>
<stop offset="0.95" stop-color="#C9C9C9"/>
<stop offset="0.97" stop-color="#BFBFBF"/>
<stop offset="1" stop-color="white"/>
</linearGradient>
<linearGradient id="paint67_linear_108_134" x1="1403.84" y1="2162.64" x2="3533.37" y2="2162.64" gradientUnits="userSpaceOnUse">
<stop stop-color="#DFDFDF"/>
<stop offset="0.02" stop-color="#E1E1E1"/>
<stop offset="0.24" stop-color="#F2F2F2"/>
<stop offset="0.49" stop-color="#FCFCFC"/>
<stop offset="0.79" stop-color="white"/>
<stop offset="0.84" stop-color="#FCFCFC"/>
<stop offset="0.88" stop-color="#F2F2F2"/>
<stop offset="0.92" stop-color="#E1E1E1"/>
<stop offset="0.95" stop-color="#C9C9C9"/>
<stop offset="0.97" stop-color="#BFBFBF"/>
<stop offset="1" stop-color="white"/>
</linearGradient>
<linearGradient id="paint68_linear_108_134" x1="1399.63" y1="2620.97" x2="3518.27" y2="2620.97" gradientUnits="userSpaceOnUse">
<stop stop-color="#DFDFDF"/>
<stop offset="0.02" stop-color="#E1E1E1"/>
<stop offset="0.24" stop-color="#F2F2F2"/>
<stop offset="0.49" stop-color="#FCFCFC"/>
<stop offset="0.79" stop-color="white"/>
<stop offset="0.84" stop-color="#FCFCFC"/>
<stop offset="0.88" stop-color="#F2F2F2"/>
<stop offset="0.92" stop-color="#E1E1E1"/>
<stop offset="0.95" stop-color="#C9C9C9"/>
<stop offset="0.97" stop-color="#BFBFBF"/>
<stop offset="1" stop-color="white"/>
</linearGradient>
<linearGradient id="paint69_linear_108_134" x1="1484.98" y1="3064.63" x2="3593.53" y2="3064.63" gradientUnits="userSpaceOnUse">
<stop stop-color="#DFDFDF"/>
<stop offset="0.02" stop-color="#E1E1E1"/>
<stop offset="0.24" stop-color="#F2F2F2"/>
<stop offset="0.49" stop-color="#FCFCFC"/>
<stop offset="0.79" stop-color="white"/>
<stop offset="0.84" stop-color="#FCFCFC"/>
<stop offset="0.88" stop-color="#F2F2F2"/>
<stop offset="0.92" stop-color="#E1E1E1"/>
<stop offset="0.95" stop-color="#C9C9C9"/>
<stop offset="0.97" stop-color="#BFBFBF"/>
<stop offset="1" stop-color="white"/>
</linearGradient>
<linearGradient id="paint70_linear_108_134" x1="1444.43" y1="2955.96" x2="3563.07" y2="2955.96" gradientUnits="userSpaceOnUse">
<stop stop-color="#DFDFDF"/>
<stop offset="0.02" stop-color="#E1E1E1"/>
<stop offset="0.24" stop-color="#F2F2F2"/>
<stop offset="0.49" stop-color="#FCFCFC"/>
<stop offset="0.79" stop-color="white"/>
<stop offset="0.84" stop-color="#FCFCFC"/>
<stop offset="0.88" stop-color="#F2F2F2"/>
<stop offset="0.92" stop-color="#E1E1E1"/>
<stop offset="0.95" stop-color="#C9C9C9"/>
<stop offset="0.97" stop-color="#BFBFBF"/>
<stop offset="1" stop-color="white"/>
</linearGradient>
<linearGradient id="paint71_linear_108_134" x1="1444.43" y1="2277.85" x2="3563.07" y2="2277.85" gradientUnits="userSpaceOnUse">
<stop stop-color="#DFDFDF"/>
<stop offset="0.02" stop-color="#E1E1E1"/>
<stop offset="0.24" stop-color="#F2F2F2"/>
<stop offset="0.49" stop-color="#FCFCFC"/>
<stop offset="0.79" stop-color="white"/>
<stop offset="0.84" stop-color="#FCFCFC"/>
<stop offset="0.88" stop-color="#F2F2F2"/>
<stop offset="0.92" stop-color="#E1E1E1"/>
<stop offset="0.95" stop-color="#C9C9C9"/>
<stop offset="0.97" stop-color="#BFBFBF"/>
<stop offset="1" stop-color="white"/>
</linearGradient>
<linearGradient id="paint72_linear_108_134" x1="1444.43" y1="2759.05" x2="3563.07" y2="2759.05" gradientUnits="userSpaceOnUse">
<stop stop-color="#DFDFDF"/>
<stop offset="0.02" stop-color="#E1E1E1"/>
<stop offset="0.24" stop-color="#F2F2F2"/>
<stop offset="0.49" stop-color="#FCFCFC"/>
<stop offset="0.79" stop-color="white"/>
<stop offset="0.84" stop-color="#FCFCFC"/>
<stop offset="0.88" stop-color="#F2F2F2"/>
<stop offset="0.92" stop-color="#E1E1E1"/>
<stop offset="0.95" stop-color="#C9C9C9"/>
<stop offset="0.97" stop-color="#BFBFBF"/>
<stop offset="1" stop-color="white"/>
</linearGradient>
<linearGradient id="paint73_linear_108_134" x1="1444.43" y1="2495.04" x2="3563.07" y2="2495.04" gradientUnits="userSpaceOnUse">
<stop stop-color="#DFDFDF"/>
<stop offset="0.02" stop-color="#E1E1E1"/>
<stop offset="0.24" stop-color="#F2F2F2"/>
<stop offset="0.49" stop-color="#FCFCFC"/>
<stop offset="0.79" stop-color="white"/>
<stop offset="0.84" stop-color="#FCFCFC"/>
<stop offset="0.88" stop-color="#F2F2F2"/>
<stop offset="0.92" stop-color="#E1E1E1"/>
<stop offset="0.95" stop-color="#C9C9C9"/>
<stop offset="0.97" stop-color="#BFBFBF"/>
<stop offset="1" stop-color="white"/>
</linearGradient>
</defs>
</svg>
