<?xml version="1.0" encoding="utf-8"?>
<svg viewBox="0 0 64 64" xmlns="http://www.w3.org/2000/svg">
  <g transform="matrix(0.124421, 0, 0, 0.124421, 0, 0)" style="">
    <g>
      <g>
        <path d="M256,0C114.837,0,0,114.837,0,256s114.837,256,256,256s256-114.837,256-256S397.163,0,256,0z M416,245.333 c5.888,0,10.667,4.779,10.667,10.667c0,94.101-76.565,170.667-170.667,170.667c-5.888,0-10.667-4.779-10.667-10.667 c0-5.888,4.779-10.667,10.667-10.667c82.347,0,149.333-66.987,149.333-149.333C405.333,250.112,410.112,245.333,416,245.333z M362.667,256c0-5.888,4.779-10.667,10.667-10.667c5.888,0,10.667,4.779,10.667,10.667c0,70.592-57.408,128-128,128 c-5.888,0-10.667-4.779-10.667-10.667c0-5.888,4.779-10.667,10.667-10.667C314.816,362.667,362.667,314.816,362.667,256z M64,256 c0,5.888-4.779,10.667-10.667,10.667S42.667,261.888,42.667,256c0-117.632,95.701-213.333,213.333-213.333 c5.888,0,10.667,4.779,10.667,10.667S261.888,64,256,64C150.144,64,64,150.144,64,256z M96,266.667 c-5.888,0-10.667-4.779-10.667-10.667c0-94.101,76.565-170.667,170.667-170.667c5.888,0,10.667,4.779,10.667,10.667 s-4.779,10.667-10.667,10.667c-82.347,0-149.333,66.987-149.333,149.333C106.667,261.888,101.888,266.667,96,266.667z M149.333,256c0,5.888-4.779,10.667-10.667,10.667S128,261.888,128,256c0-70.592,57.408-128,128-128 c5.888,0,10.667,4.779,10.667,10.667s-4.779,10.667-10.667,10.667C197.184,149.333,149.333,197.184,149.333,256z M192,256 c0-35.285,28.715-64,64-64s64,28.715,64,64s-28.715,64-64,64S192,291.285,192,256z M256,469.333 c-5.888,0-10.667-4.779-10.667-10.667S250.112,448,256,448c105.856,0,192-86.144,192-192c0-5.888,4.779-10.667,10.667-10.667 s10.667,4.779,10.667,10.667C469.333,373.632,373.632,469.333,256,469.333z"/>
        <path d="M277.333,256c0-11.776-9.557-21.333-21.333-21.333s-21.333,9.557-21.333,21.333s9.557,21.333,21.333,21.333 S277.333,267.776,277.333,256z"/>
      </g>
    </g>
  </g>
  <g transform="matrix(1, 0, 0, 1, 12.331527, -14.230463)"/>
  <g transform="matrix(1, 0, 0, 1, 12.331527, -14.230463)"/>
  <g transform="matrix(1, 0, 0, 1, 12.331527, -14.230463)"/>
  <g transform="matrix(1, 0, 0, 1, 12.331527, -14.230463)"/>
  <g transform="matrix(1, 0, 0, 1, 12.331527, -14.230463)"/>
  <g transform="matrix(1, 0, 0, 1, 12.331527, -14.230463)"/>
  <g transform="matrix(1, 0, 0, 1, 12.331527, -14.230463)"/>
  <g transform="matrix(1, 0, 0, 1, 12.331527, -14.230463)"/>
  <g transform="matrix(1, 0, 0, 1, 12.331527, -14.230463)"/>
  <g transform="matrix(1, 0, 0, 1, 12.331527, -14.230463)"/>
  <g transform="matrix(1, 0, 0, 1, 12.331527, -14.230463)"/>
  <g transform="matrix(1, 0, 0, 1, 12.331527, -14.230463)"/>
  <g transform="matrix(1, 0, 0, 1, 12.331527, -14.230463)"/>
  <g transform="matrix(1, 0, 0, 1, 12.331527, -14.230463)"/>
  <g transform="matrix(1, 0, 0, 1, 12.331527, -14.230463)"/>
</svg>