<?xml version="1.0" standalone="no"?>
<!DOCTYPE svg PUBLIC "-//W3C//DTD SVG 20010904//EN"
 "http://www.w3.org/TR/2001/REC-SVG-20010904/DTD/svg10.dtd">
<svg version="1.0" xmlns="http://www.w3.org/2000/svg"
 width="32.000000pt" height="32.000000pt" viewBox="0 0 32.000000 32.000000"
 preserveAspectRatio="xMidYMid meet">

<g transform="translate(0.000000,32.000000) scale(0.100000,-0.100000)"
fill="#000000" stroke="none">
<path d="M105 274 c-27 -14 -56 -30 -62 -36 -18 -15 -16 -42 5 -61 20 -19 32
-13 32 14 0 13 9 17 38 17 20 0 43 -5 50 -10 8 -7 12 -7 12 1 0 6 10 12 23 12
18 1 19 2 4 6 -13 3 -17 11 -14 24 3 10 1 22 -4 25 -5 3 -7 9 -4 14 3 4 -2 11
-11 14 -19 7 -10 10 -69 -20z"/>
<path d="M251 143 c-1 -46 -3 -51 -21 -46 -16 4 -20 14 -20 45 0 51 -24 47
-28 -5 -4 -50 -30 -50 -34 1 -2 25 -8 37 -18 37 -18 0 -27 -64 -11 -74 5 -4
11 -25 12 -48 3 -39 4 -40 31 -33 15 5 33 12 39 16 8 5 9 3 4 -5 -6 -10 -3
-11 14 -2 11 7 21 14 21 17 0 3 -5 2 -12 -2 -7 -4 -8 -3 -4 4 4 6 13 9 21 5 8
-3 15 0 15 7 0 6 4 8 10 5 6 -3 7 1 4 10 -4 8 -10 39 -14 68 l-8 52 -1 -52z"/>
<path d="M165 10 c-16 -7 -17 -9 -3 -9 9 -1 20 4 23 9 7 11 7 11 -20 0z"/>
</g>
</svg>
