<?xml version="1.0" encoding="UTF-8"?>
<!DOCTYPE svg PUBLIC "-//W3C//DTD SVG 1.1//EN" "http://www.w3.org/Graphics/SVG/1.1/DTD/svg11.dtd">
<svg xmlns="http://www.w3.org/2000/svg" version="1.1" width="82px" height="82px" style="shape-rendering:geometricPrecision; text-rendering:geometricPrecision; image-rendering:optimizeQuality; fill-rule:evenodd; clip-rule:evenodd" xmlns:xlink="http://www.w3.org/1999/xlink">
<g><path style="opacity:1" fill="#f3e2a6" d="M 47.5,7.5 C 47.5,8.16667 47.5,8.83333 47.5,9.5C 46.1667,9.5 44.8333,9.5 43.5,9.5C 40.0063,8.66485 36.3397,8.66485 32.5,9.5C 31.1667,9.5 29.8333,9.5 28.5,9.5C 34.4787,6.53476 40.812,5.86809 47.5,7.5 Z"/></g>
<g><path style="opacity:0.635" fill="#f9e8b7" d="M 47.5,7.5 C 53.1094,8.63456 57.7761,11.3012 61.5,15.5C 60.8333,15.5 60.1667,15.5 59.5,15.5C 58.609,14.8902 57.609,14.5569 56.5,14.5C 53.9875,12.0743 50.9875,10.4076 47.5,9.5C 47.5,8.83333 47.5,8.16667 47.5,7.5 Z"/></g>
<g><path style="opacity:1" fill="#875c0f" d="M 43.5,9.5 C 43.5,9.83333 43.5,10.1667 43.5,10.5C 41.1667,10.5 38.8333,10.5 36.5,10.5C 34.7839,10.6287 33.1172,10.962 31.5,11.5C 29.2872,12.7729 26.9538,13.7729 24.5,14.5C 26.8633,12.3199 29.53,10.6532 32.5,9.5C 36.3397,8.66485 40.0063,8.66485 43.5,9.5 Z"/></g>
<g><path style="opacity:1" fill="#d0a940" d="M 36.5,10.5 C 38.8333,11.1667 41.1667,11.8333 43.5,12.5C 35.5272,12.6737 35.5272,13.1737 43.5,14C 42.552,14.4828 41.552,14.6495 40.5,14.5C 39.391,14.5569 38.391,14.8902 37.5,15.5C 37.1667,15.5 36.8333,15.5 36.5,15.5C 35.3915,14.71 34.0581,14.21 32.5,14C 31.7476,13.3292 31.4142,12.4959 31.5,11.5C 33.1172,10.962 34.7839,10.6287 36.5,10.5 Z"/></g>
<g><path style="opacity:1" fill="#e1c060" d="M 36.5,10.5 C 38.8333,10.5 41.1667,10.5 43.5,10.5C 48.0875,11.0627 52.4208,12.396 56.5,14.5C 56.9731,15.9063 57.9731,16.573 59.5,16.5C 59.631,17.2389 59.4643,17.9056 59,18.5C 58.3292,17.7476 57.4959,17.4142 56.5,17.5C 54.0465,15.9402 51.3798,14.9402 48.5,14.5C 46.9724,13.6908 45.3057,13.0241 43.5,12.5C 41.1667,11.8333 38.8333,11.1667 36.5,10.5 Z"/></g>
<g><path style="opacity:1" fill="#6d4c0b" d="M 43.5,10.5 C 43.5,10.1667 43.5,9.83333 43.5,9.5C 44.8333,9.5 46.1667,9.5 47.5,9.5C 50.9875,10.4076 53.9875,12.0743 56.5,14.5C 52.4208,12.396 48.0875,11.0627 43.5,10.5 Z"/></g>
<g><path style="opacity:0.945" fill="#c3a656" d="M 28.5,9.5 C 29.8333,9.5 31.1667,9.5 32.5,9.5C 29.53,10.6532 26.8633,12.3199 24.5,14.5C 22.6854,15.6298 20.6854,16.2964 18.5,16.5C 21.2749,13.3954 24.6082,11.0621 28.5,9.5 Z"/></g>
<g><path style="opacity:1" fill="#c59929" d="M 31.5,11.5 C 31.4142,12.4959 31.7476,13.3292 32.5,14C 34.0581,14.21 35.3915,14.71 36.5,15.5C 36.1667,15.5 35.8333,15.5 35.5,15.5C 32.9162,16.0483 31.9162,17.715 32.5,20.5C 32.1667,20.5 31.8333,20.5 31.5,20.5C 31.1583,19.6618 30.4916,19.3284 29.5,19.5C 29.8039,18.8501 30.1373,18.1835 30.5,17.5C 29.7435,16.2267 29.0768,16.2267 28.5,17.5C 26.6882,18.3482 25.1882,18.3482 24,17.5C 23.5304,16.4232 23.6971,15.4232 24.5,14.5C 26.9538,13.7729 29.2872,12.7729 31.5,11.5 Z"/></g>
<g><path style="opacity:1" fill="#e5cc6a" d="M 43.5,12.5 C 45.3057,13.0241 46.9724,13.6908 48.5,14.5C 48.9175,15.2216 49.5842,15.7216 50.5,16C 48.2028,16.0178 45.8695,15.8511 43.5,15.5C 42.8333,15.5 42.1667,15.5 41.5,15.5C 40.8333,15.5 40.5,15.1667 40.5,14.5C 41.552,14.6495 42.552,14.4828 43.5,14C 35.5272,13.1737 35.5272,12.6737 43.5,12.5 Z"/></g>
<g><path style="opacity:1" fill="#6b4d06" d="M 56.5,14.5 C 57.609,14.5569 58.609,14.8902 59.5,15.5C 59.5,15.8333 59.5,16.1667 59.5,16.5C 57.9731,16.573 56.9731,15.9063 56.5,14.5 Z"/></g>
<g><path style="opacity:1" fill="#f5d973" d="M 41.5,15.5 C 42.1667,15.5 42.8333,15.5 43.5,15.5C 43.5,18.1667 43.5,20.8333 43.5,23.5C 43.5,24.1667 43.5,24.8333 43.5,25.5C 42.8333,25.1667 42.1667,24.8333 41.5,24.5C 41.5,21.5 41.5,18.5 41.5,15.5 Z"/></g>
<g><path style="opacity:1" fill="#b18324" d="M 24.5,14.5 C 23.6971,15.4232 23.5304,16.4232 24,17.5C 25.1882,18.3482 26.6882,18.3482 28.5,17.5C 27.2112,18.6366 26.2112,19.9699 25.5,21.5C 24.8333,22.5 24.1667,23.5 23.5,24.5C 23.5979,22.4471 22.9313,20.7804 21.5,19.5C 21.44,18.9569 21.1067,18.6236 20.5,18.5C 17.828,19.861 15.4947,21.5276 13.5,23.5C 14.7859,20.883 16.4525,18.5496 18.5,16.5C 20.6854,16.2964 22.6854,15.6298 24.5,14.5 Z"/></g>
<g><path style="opacity:1" fill="#e0b93d" d="M 35.5,15.5 C 35.8333,15.5 36.1667,15.5 36.5,15.5C 36.8333,15.5 37.1667,15.5 37.5,15.5C 38.6336,18.3704 39.3003,21.3704 39.5,24.5C 38.8724,22.3384 37.539,20.6718 35.5,19.5C 35.5,18.1667 35.5,16.8333 35.5,15.5 Z"/></g>
<g><path style="opacity:1" fill="#d0a629" d="M 35.5,15.5 C 35.5,16.8333 35.5,18.1667 35.5,19.5C 35.4095,22.1522 36.0762,24.4855 37.5,26.5C 37.5,26.8333 37.5,27.1667 37.5,27.5C 36.6236,27.6309 35.9569,27.2975 35.5,26.5C 34.999,24.1643 33.999,22.1643 32.5,20.5C 31.9162,17.715 32.9162,16.0483 35.5,15.5 Z"/></g>
<g><path style="opacity:1" fill="#f7e286" d="M 48.5,14.5 C 51.3798,14.9402 54.0465,15.9402 56.5,17.5C 56.8333,18.1667 57.1667,18.8333 57.5,19.5C 55.8333,18.8333 54.1667,18.1667 52.5,17.5C 50.6096,17.2965 49.1096,17.9632 48,19.5C 47.6667,19.1667 47.3333,18.8333 47,18.5C 44.8933,21.3764 45.7267,23.0431 49.5,23.5C 47.9504,24.7199 46.2837,24.7199 44.5,23.5C 44.1667,23.5 43.8333,23.5 43.5,23.5C 43.5,20.8333 43.5,18.1667 43.5,15.5C 45.8695,15.8511 48.2028,16.0178 50.5,16C 49.5842,15.7216 48.9175,15.2216 48.5,14.5 Z"/></g>
<g><path style="opacity:1" fill="#ad8e39" d="M 59.5,16.5 C 61.914,17.9108 63.5806,19.9108 64.5,22.5C 63.2058,21.7101 62.0391,20.7101 61,19.5C 60.5357,20.0944 60.369,20.7611 60.5,21.5C 59.5,20.8333 58.5,20.1667 57.5,19.5C 57.1667,18.8333 56.8333,18.1667 56.5,17.5C 57.4959,17.4142 58.3292,17.7476 59,18.5C 59.4643,17.9056 59.631,17.2389 59.5,16.5 Z"/></g>
<g><path style="opacity:1" fill="#f9e58e" d="M 52.5,17.5 C 53.8333,18.5 53.8333,19.5 52.5,20.5C 51.448,20.3505 50.448,20.5172 49.5,21C 50.5981,21.7697 50.5981,22.603 49.5,23.5C 45.7267,23.0431 44.8933,21.3764 47,18.5C 47.3333,18.8333 47.6667,19.1667 48,19.5C 49.1096,17.9632 50.6096,17.2965 52.5,17.5 Z"/></g>
<g><path style="opacity:1" fill="#edd173" d="M 52.5,17.5 C 54.1667,18.1667 55.8333,18.8333 57.5,19.5C 58.5,20.1667 59.5,20.8333 60.5,21.5C 60.6716,22.4916 60.3382,23.1583 59.5,23.5C 59.1667,22.5 58.5,21.8333 57.5,21.5C 55.5853,21.7845 53.9187,21.4511 52.5,20.5C 53.8333,19.5 53.8333,18.5 52.5,17.5 Z"/></g>
<g><path style="opacity:1" fill="#aa700c" d="M 21.5,19.5 C 22.9313,20.7804 23.5979,22.4471 23.5,24.5C 23.5,24.8333 23.5,25.1667 23.5,25.5C 21.567,25.2714 19.9003,24.4381 18.5,23C 19.7101,21.9609 20.7101,20.7942 21.5,19.5 Z"/></g>
<g><path style="opacity:0.863" fill="#edd99e" d="M 59.5,16.5 C 59.5,16.1667 59.5,15.8333 59.5,15.5C 60.1667,15.5 60.8333,15.5 61.5,15.5C 64.6448,18.4595 67.3115,21.7929 69.5,25.5C 68.8333,25.5 68.1667,25.5 67.5,25.5C 66.7281,24.3065 65.7281,23.3065 64.5,22.5C 63.5806,19.9108 61.914,17.9108 59.5,16.5 Z"/></g>
<g><path style="opacity:1" fill="#ac7914" d="M 21.5,19.5 C 20.7101,20.7942 19.7101,21.9609 18.5,23C 19.9003,24.4381 21.567,25.2714 23.5,25.5C 23.9382,25.4346 24.2716,25.6012 24.5,26C 23.6195,26.7083 22.9528,27.5416 22.5,28.5C 21.8333,28.5 21.1667,28.5 20.5,28.5C 19.2101,27.9423 18.3768,26.9423 18,25.5C 17.3333,27.5 16,28.8333 14,29.5C 13.2404,31.9808 14.0737,33.6475 16.5,34.5C 16.5,35.1667 16.1667,35.5 15.5,35.5C 14.391,35.5569 13.391,35.8902 12.5,36.5C 12.5,34.5 12.5,32.5 12.5,30.5C 12.9926,28.1944 13.3259,25.861 13.5,23.5C 15.4947,21.5276 17.828,19.861 20.5,18.5C 21.1067,18.6236 21.44,18.9569 21.5,19.5 Z"/></g>
<g><path style="opacity:1" fill="#eac755" d="M 40.5,14.5 C 40.5,15.1667 40.8333,15.5 41.5,15.5C 41.5,18.5 41.5,21.5 41.5,24.5C 40.9569,24.56 40.6236,24.8933 40.5,25.5C 41.1799,26.8599 41.8466,28.1932 42.5,29.5C 41.5,29.5 40.5,29.5 39.5,29.5C 38.8843,28.7978 38.8843,27.7978 39.5,26.5C 39.5,25.8333 39.5,25.1667 39.5,24.5C 39.3003,21.3704 38.6336,18.3704 37.5,15.5C 38.391,14.8902 39.391,14.5569 40.5,14.5 Z"/></g>
<g><path style="opacity:1" fill="#f7df7f" d="M 52.5,20.5 C 53.9187,21.4511 55.5853,21.7845 57.5,21.5C 57.5,21.8333 57.5,22.1667 57.5,22.5C 54.362,23.1262 51.5287,24.4595 49,26.5C 46.9737,26.0853 45.4737,25.0853 44.5,23.5C 46.2837,24.7199 47.9504,24.7199 49.5,23.5C 50.5981,22.603 50.5981,21.7697 49.5,21C 50.448,20.5172 51.448,20.3505 52.5,20.5 Z"/></g>
<g><path style="opacity:1" fill="#bd8b13" d="M 29.5,19.5 C 29.3079,22.212 29.3079,24.8787 29.5,27.5C 26.7209,26.3832 26.3876,25.2166 28.5,24C 27.6266,22.955 26.6266,22.1217 25.5,21.5C 26.2112,19.9699 27.2112,18.6366 28.5,17.5C 29.0768,16.2267 29.7435,16.2267 30.5,17.5C 30.1373,18.1835 29.8039,18.8501 29.5,19.5 Z"/></g>
<g><path style="opacity:1" fill="#e8c753" d="M 57.5,21.5 C 58.5,21.8333 59.1667,22.5 59.5,23.5C 59.427,25.0269 60.0937,26.0269 61.5,26.5C 61.7373,27.791 61.404,28.791 60.5,29.5C 58.3635,28.5974 56.3635,27.4307 54.5,26C 55.9423,25.6232 56.9423,24.7899 57.5,23.5C 57.5,23.1667 57.5,22.8333 57.5,22.5C 57.5,22.1667 57.5,21.8333 57.5,21.5 Z"/></g>
<g><path style="opacity:1" fill="#ca9b20" d="M 31.5,20.5 C 31.8333,20.5 32.1667,20.5 32.5,20.5C 33.999,22.1643 34.999,24.1643 35.5,26.5C 35.9569,27.2975 36.6236,27.6309 37.5,27.5C 37.573,29.0269 36.9063,30.0269 35.5,30.5C 34.9423,29.2101 33.9423,28.3768 32.5,28C 34.9011,27.195 34.7344,26.3617 32,25.5C 31.7266,23.8988 31.2266,22.3988 30.5,21C 30.7284,20.6012 31.0618,20.4346 31.5,20.5 Z"/></g>
<g><path style="opacity:1" fill="#dab434" d="M 35.5,19.5 C 37.539,20.6718 38.8724,22.3384 39.5,24.5C 39.5,25.1667 39.5,25.8333 39.5,26.5C 38.8333,26.5 38.1667,26.5 37.5,26.5C 36.0762,24.4855 35.4095,22.1522 35.5,19.5 Z"/></g>
<g><path style="opacity:1" fill="#f7db74" d="M 57.5,22.5 C 57.5,22.8333 57.5,23.1667 57.5,23.5C 53.7988,25.5054 50.1321,27.5054 46.5,29.5C 46.1667,29.5 45.8333,29.5 45.5,29.5C 45.6869,28.1832 45.0202,26.8499 43.5,25.5C 43.5,24.8333 43.5,24.1667 43.5,23.5C 43.8333,23.5 44.1667,23.5 44.5,23.5C 45.4737,25.0853 46.9737,26.0853 49,26.5C 51.5287,24.4595 54.362,23.1262 57.5,22.5 Z"/></g>
<g><path style="opacity:1" fill="#deb74b" d="M 64.5,22.5 C 65.0138,24.3664 65.6805,26.1997 66.5,28C 66.3333,28.5 66.1667,29 66,29.5C 65.0814,26.5984 64.2481,26.2651 63.5,28.5C 62.8333,27.8333 62.1667,27.1667 61.5,26.5C 60.0937,26.0269 59.427,25.0269 59.5,23.5C 60.3382,23.1583 60.6716,22.4916 60.5,21.5C 60.369,20.7611 60.5357,20.0944 61,19.5C 62.0391,20.7101 63.2058,21.7101 64.5,22.5 Z"/></g>
<g><path style="opacity:1" fill="#b48308" d="M 25.5,21.5 C 26.6266,22.1217 27.6266,22.955 28.5,24C 26.3876,25.2166 26.7209,26.3832 29.5,27.5C 27.3926,28.4682 25.0593,28.8016 22.5,28.5C 22.9528,27.5416 23.6195,26.7083 24.5,26C 24.2716,25.6012 23.9382,25.4346 23.5,25.5C 23.5,25.1667 23.5,24.8333 23.5,24.5C 24.1667,23.5 24.8333,22.5 25.5,21.5 Z"/></g>
<g><path style="opacity:1" fill="#cb9a25" d="M 29.5,19.5 C 30.4916,19.3284 31.1583,19.6618 31.5,20.5C 31.0618,20.4346 30.7284,20.6012 30.5,21C 31.2266,22.3988 31.7266,23.8988 32,25.5C 34.7344,26.3617 34.9011,27.195 32.5,28C 33.9423,28.3768 34.9423,29.2101 35.5,30.5C 35.5,31.1667 35.1667,31.5 34.5,31.5C 33.221,30.2848 32.221,30.6182 31.5,32.5C 30.3579,30.0283 28.3579,29.0283 25.5,29.5C 24.1667,29.5 22.8333,29.5 21.5,29.5C 21.1667,29.5 20.8333,29.5 20.5,29.5C 20.5,29.1667 20.5,28.8333 20.5,28.5C 21.1667,28.5 21.8333,28.5 22.5,28.5C 25.0593,28.8016 27.3926,28.4682 29.5,27.5C 29.3079,24.8787 29.3079,22.212 29.5,19.5 Z"/></g>
<g><path style="opacity:1" fill="#f2d26a" d="M 41.5,24.5 C 42.1667,24.8333 42.8333,25.1667 43.5,25.5C 45.0202,26.8499 45.6869,28.1832 45.5,29.5C 45.5,30.1667 45.5,30.8333 45.5,31.5C 44.5,30.8333 43.5,30.1667 42.5,29.5C 41.8466,28.1932 41.1799,26.8599 40.5,25.5C 40.6236,24.8933 40.9569,24.56 41.5,24.5 Z"/></g>
<g><path style="opacity:1" fill="#dac173" d="M 67.5,25.5 C 68.1667,25.5 68.8333,25.5 69.5,25.5C 69.4095,28.1522 70.0762,30.4855 71.5,32.5C 72.5884,35.5558 72.5884,38.5558 71.5,41.5C 70.8333,41.8333 70.1667,42.1667 69.5,42.5C 69.6653,38.8183 69.4986,35.1516 69,31.5C 68.7679,30.2625 68.2679,29.2625 67.5,28.5C 67.5,27.5 67.5,26.5 67.5,25.5 Z"/></g>
<g><path style="opacity:1" fill="#f2d165" d="M 57.5,23.5 C 56.9423,24.7899 55.9423,25.6232 54.5,26C 56.3635,27.4307 58.3635,28.5974 60.5,29.5C 60.6716,30.4916 60.3382,31.1583 59.5,31.5C 58.713,29.8958 57.3797,29.2291 55.5,29.5C 53.7376,30.2623 52.7376,31.5956 52.5,33.5C 52.1667,33.5 51.8333,33.5 51.5,33.5C 50.4019,32.603 50.4019,31.7697 51.5,31C 50.3284,30.6466 49.1618,30.8132 48,31.5C 46.9701,31.1639 46.4701,30.4972 46.5,29.5C 50.1321,27.5054 53.7988,25.5054 57.5,23.5 Z"/></g>
<g><path style="opacity:1" fill="#f7ebc1" d="M 69.5,25.5 C 70.9238,27.5145 71.5905,29.8478 71.5,32.5C 70.0762,30.4855 69.4095,28.1522 69.5,25.5 Z"/></g>
<g><path style="opacity:1" fill="#9c690c" d="M 20.5,28.5 C 20.5,28.8333 20.5,29.1667 20.5,29.5C 19.4937,29.9377 19.4937,30.6043 20.5,31.5C 19.5,31.5 18.5,31.5 17.5,31.5C 16.596,32.209 16.2627,33.209 16.5,34.5C 14.0737,33.6475 13.2404,31.9808 14,29.5C 16,28.8333 17.3333,27.5 18,25.5C 18.3768,26.9423 19.2101,27.9423 20.5,28.5 Z"/></g>
<g><path style="opacity:1" fill="#804d02" d="M 25.5,29.5 C 28.3579,29.0283 30.3579,30.0283 31.5,32.5C 31.1583,33.3382 30.4916,33.6716 29.5,33.5C 28.8166,31.8235 27.4832,31.1568 25.5,31.5C 25.5,30.8333 25.5,30.1667 25.5,29.5 Z"/></g>
<g><path style="opacity:1" fill="#704801" d="M 39.5,30.5 C 39.5,30.1667 39.5,29.8333 39.5,29.5C 40.5,29.5 41.5,29.5 42.5,29.5C 43.5,30.1667 44.5,30.8333 45.5,31.5C 46.1157,32.7978 46.1157,33.7978 45.5,34.5C 44.3176,31.9908 42.3176,30.6574 39.5,30.5 Z"/></g>
<g><path style="opacity:1" fill="#6b4001" d="M 55.5,29.5 C 57.3797,29.2291 58.713,29.8958 59.5,31.5C 59.5,31.8333 59.5,32.1667 59.5,32.5C 58.1283,31.4884 56.795,30.4884 55.5,29.5 Z"/></g>
<g><path style="opacity:1" fill="#cca133" d="M 61.5,26.5 C 62.1667,27.1667 62.8333,27.8333 63.5,28.5C 64.3094,29.4687 65.3094,30.3021 66.5,31C 65.565,33.3806 65.2317,35.8806 65.5,38.5C 65.1667,38.5 64.8333,38.5 64.5,38.5C 64.6621,36.4727 64.4955,34.4727 64,32.5C 63.51,33.7932 63.3433,35.1266 63.5,36.5C 62.1667,35.1667 60.8333,33.8333 59.5,32.5C 59.5,32.1667 59.5,31.8333 59.5,31.5C 60.3382,31.1583 60.6716,30.4916 60.5,29.5C 61.404,28.791 61.7373,27.791 61.5,26.5 Z"/></g>
<g><path style="opacity:1" fill="#b78a22" d="M 64.5,22.5 C 65.7281,23.3065 66.7281,24.3065 67.5,25.5C 67.5,26.5 67.5,27.5 67.5,28.5C 67.366,30.2915 67.6993,31.9582 68.5,33.5C 67.5028,33.4701 66.8361,33.9701 66.5,35C 66.7386,36.7811 67.0719,38.6144 67.5,40.5C 67.1667,40.8333 66.8333,41.1667 66.5,41.5C 65.6143,40.675 65.281,39.675 65.5,38.5C 65.2317,35.8806 65.565,33.3806 66.5,31C 65.3094,30.3021 64.3094,29.4687 63.5,28.5C 64.2481,26.2651 65.0814,26.5984 66,29.5C 66.1667,29 66.3333,28.5 66.5,28C 65.6805,26.1997 65.0138,24.3664 64.5,22.5 Z"/></g>
<g><path style="opacity:1" fill="#e2ba45" d="M 45.5,29.5 C 45.8333,29.5 46.1667,29.5 46.5,29.5C 46.4701,30.4972 46.9701,31.1639 48,31.5C 49.1618,30.8132 50.3284,30.6466 51.5,31C 50.4019,31.7697 50.4019,32.603 51.5,33.5C 51.4045,36.6916 52.0712,39.6916 53.5,42.5C 52.2921,41.7659 50.9587,41.4326 49.5,41.5C 49.6646,38.4816 49.498,35.4816 49,32.5C 48.0617,34.4885 47.2283,36.4885 46.5,38.5C 45.609,37.8902 44.609,37.5569 43.5,37.5C 42.5084,37.6716 41.8417,37.3382 41.5,36.5C 43.4832,36.8432 44.8166,36.1765 45.5,34.5C 46.1157,33.7978 46.1157,32.7978 45.5,31.5C 45.5,30.8333 45.5,30.1667 45.5,29.5 Z"/></g>
<g><path style="opacity:1" fill="#dcaf3d" d="M 37.5,26.5 C 38.1667,26.5 38.8333,26.5 39.5,26.5C 38.8843,27.7978 38.8843,28.7978 39.5,29.5C 39.5,29.8333 39.5,30.1667 39.5,30.5C 37.5544,31.0347 36.5544,32.368 36.5,34.5C 35.391,34.5569 34.391,34.8902 33.5,35.5C 33.5,34.5 33.5,33.5 33.5,32.5C 34.1667,32.5 34.5,32.1667 34.5,31.5C 35.1667,31.5 35.5,31.1667 35.5,30.5C 36.9063,30.0269 37.573,29.0269 37.5,27.5C 37.5,27.1667 37.5,26.8333 37.5,26.5 Z"/></g>
<g><path style="opacity:1" fill="#d3a933" d="M 39.5,30.5 C 42.3176,30.6574 44.3176,31.9908 45.5,34.5C 44.8166,36.1765 43.4832,36.8432 41.5,36.5C 41.1667,36.5 40.8333,36.5 40.5,36.5C 40.2488,34.8297 39.5822,33.3297 38.5,32C 39.056,31.6174 39.3893,31.1174 39.5,30.5 Z"/></g>
<g><path style="opacity:1" fill="#b69451" d="M 13.5,23.5 C 13.3259,25.861 12.9926,28.1944 12.5,30.5C 11.5184,33.9619 11.185,37.6286 11.5,41.5C 10.5655,42.5676 10.2322,43.901 10.5,45.5C 7.58845,37.7046 8.58845,30.3712 13.5,23.5 Z"/></g>
<g><path style="opacity:1" fill="#946106" d="M 17.5,31.5 C 18.5,31.5 19.5,31.5 20.5,31.5C 20.1832,35.7016 20.5166,39.7016 21.5,43.5C 21.3893,44.1174 21.056,44.6174 20.5,45C 24.0252,45.1787 27.3586,45.6787 30.5,46.5C 30.1667,46.5 29.8333,46.5 29.5,46.5C 25.1726,46.9843 21.1726,46.3177 17.5,44.5C 18.1129,40.312 18.1129,35.9787 17.5,31.5 Z"/></g>
<g><path style="opacity:1" fill="#754000" d="M 20.5,29.5 C 20.8333,29.5 21.1667,29.5 21.5,29.5C 21.5,34.1667 21.5,38.8333 21.5,43.5C 20.5166,39.7016 20.1832,35.7016 20.5,31.5C 19.4937,30.6043 19.4937,29.9377 20.5,29.5 Z"/></g>
<g><path style="opacity:1" fill="#c89726" d="M 25.5,31.5 C 27.4832,31.1568 28.8166,31.8235 29.5,33.5C 29.7845,35.4147 29.4511,37.0813 28.5,38.5C 28.5,37.8333 28.1667,37.5 27.5,37.5C 25.4506,36.7269 24.1173,35.2269 23.5,33C 23.8361,31.9701 24.5028,31.4701 25.5,31.5 Z"/></g>
<g><path style="opacity:1" fill="#9a6910" d="M 15.5,35.5 C 15.6761,38.7273 16.3428,41.7273 17.5,44.5C 17.5,45.5 17.5,46.5 17.5,47.5C 16.5272,46.2086 15.5272,46.2086 14.5,47.5C 12.9064,44.0145 12.2397,40.3479 12.5,36.5C 13.391,35.8902 14.391,35.5569 15.5,35.5 Z"/></g>
<g><path style="opacity:1" fill="#c59826" d="M 39.5,30.5 C 39.3893,31.1174 39.056,31.6174 38.5,32C 39.5822,33.3297 40.2488,34.8297 40.5,36.5C 41.6557,38.8239 42.6557,41.1572 43.5,43.5C 43.5,44.1667 43.8333,44.5 44.5,44.5C 44.1583,45.3382 43.4916,45.6716 42.5,45.5C 42.0559,42.2736 40.3893,39.9403 37.5,38.5C 36.5713,37.3112 36.238,35.9778 36.5,34.5C 36.5544,32.368 37.5544,31.0347 39.5,30.5 Z"/></g>
<g><path style="opacity:1" fill="#c69924" d="M 55.5,29.5 C 56.795,30.4884 58.1283,31.4884 59.5,32.5C 60.0283,33.8474 60.195,35.1807 60,36.5C 58.0175,37.7112 56.1841,37.7112 54.5,36.5C 53.5987,35.7095 52.9321,34.7095 52.5,33.5C 52.7376,31.5956 53.7376,30.2623 55.5,29.5 Z"/></g>
<g><path style="opacity:1" fill="#b4821b" d="M 21.5,29.5 C 22.8333,29.5 24.1667,29.5 25.5,29.5C 25.5,30.1667 25.5,30.8333 25.5,31.5C 24.5028,31.4701 23.8361,31.9701 23.5,33C 24.1173,35.2269 25.4506,36.7269 27.5,37.5C 26.5084,37.3284 25.8417,37.6618 25.5,38.5C 23.9014,39.7985 23.4014,41.4652 24,43.5C 26.3806,44.435 28.8806,44.7683 31.5,44.5C 31.5,45.1667 31.5,45.8333 31.5,46.5C 31.1667,46.5 30.8333,46.5 30.5,46.5C 27.3586,45.6787 24.0252,45.1787 20.5,45C 21.056,44.6174 21.3893,44.1174 21.5,43.5C 21.5,38.8333 21.5,34.1667 21.5,29.5 Z"/></g>
<g><path style="opacity:1" fill="#713c00" d="M 25.5,38.5 C 25.8417,37.6618 26.5084,37.3284 27.5,37.5C 28.1667,37.5 28.5,37.8333 28.5,38.5C 29.463,39.3635 29.463,40.0302 28.5,40.5C 27.7348,39.3881 26.7348,38.7214 25.5,38.5 Z"/></g>
<g><path style="opacity:1" fill="#8a5905" d="M 33.5,32.5 C 33.5,33.5 33.5,34.5 33.5,35.5C 33.2069,38.7543 33.8736,41.7543 35.5,44.5C 31.9239,42.1768 30.7573,38.8434 32,34.5C 32.2784,33.5842 32.7784,32.9175 33.5,32.5 Z"/></g>
<g><path style="opacity:1" fill="#d7ac37" d="M 43.5,37.5 C 44.609,37.5569 45.609,37.8902 46.5,38.5C 46.5,40.5 46.5,42.5 46.5,44.5C 45.8333,44.5 45.1667,44.5 44.5,44.5C 43.8333,44.5 43.5,44.1667 43.5,43.5C 43.5,41.5 43.5,39.5 43.5,37.5 Z"/></g>
<g><path style="opacity:1" fill="#95690e" d="M 49.5,41.5 C 49.5,41.8333 49.5,42.1667 49.5,42.5C 48.1429,41.4097 47.1429,40.0764 46.5,38.5C 47.2283,36.4885 48.0617,34.4885 49,32.5C 49.498,35.4816 49.6646,38.4816 49.5,41.5 Z"/></g>
<g><path style="opacity:1" fill="#b37f20" d="M 17.5,31.5 C 18.1129,35.9787 18.1129,40.312 17.5,44.5C 16.3428,41.7273 15.6761,38.7273 15.5,35.5C 16.1667,35.5 16.5,35.1667 16.5,34.5C 16.2627,33.209 16.596,32.209 17.5,31.5 Z"/></g>
<g><path style="opacity:1" fill="#b4821a" d="M 34.5,31.5 C 34.5,32.1667 34.1667,32.5 33.5,32.5C 32.7784,32.9175 32.2784,33.5842 32,34.5C 30.7573,38.8434 31.9239,42.1768 35.5,44.5C 35.5,44.8333 35.5,45.1667 35.5,45.5C 34.0413,45.5674 32.7079,45.2341 31.5,44.5C 31.6495,43.448 31.4828,42.448 31,41.5C 29.3745,41.8541 27.5412,41.8541 25.5,41.5C 25.5,40.5 25.5,39.5 25.5,38.5C 26.7348,38.7214 27.7348,39.3881 28.5,40.5C 29.463,40.0302 29.463,39.3635 28.5,38.5C 29.4511,37.0813 29.7845,35.4147 29.5,33.5C 30.4916,33.6716 31.1583,33.3382 31.5,32.5C 32.221,30.6182 33.221,30.2848 34.5,31.5 Z"/></g>
<g><path style="opacity:1" fill="#c89e1d" d="M 51.5,33.5 C 51.8333,33.5 52.1667,33.5 52.5,33.5C 52.9321,34.7095 53.5987,35.7095 54.5,36.5C 54.3433,37.8734 54.51,39.2068 55,40.5C 56.417,41.0779 57.2504,42.0779 57.5,43.5C 56.0413,43.5674 54.7079,43.2341 53.5,42.5C 52.0712,39.6916 51.4045,36.6916 51.5,33.5 Z"/></g>
<g><path style="opacity:1" fill="#c2911b" d="M 59.5,32.5 C 60.8333,33.8333 62.1667,35.1667 63.5,36.5C 63.5,38.5 63.5,40.5 63.5,42.5C 62.391,42.5569 61.391,42.8902 60.5,43.5C 59.7978,42.8843 58.7978,42.8843 57.5,43.5C 57.2504,42.0779 56.417,41.0779 55,40.5C 54.51,39.2068 54.3433,37.8734 54.5,36.5C 56.1841,37.7112 58.0175,37.7112 60,36.5C 60.195,35.1807 60.0283,33.8474 59.5,32.5 Z"/></g>
<g><path style="opacity:1" fill="#d2a72e" d="M 36.5,34.5 C 36.238,35.9778 36.5713,37.3112 37.5,38.5C 40.3893,39.9403 42.0559,42.2736 42.5,45.5C 40.0971,45.552 37.7638,45.2186 35.5,44.5C 33.8736,41.7543 33.2069,38.7543 33.5,35.5C 34.391,34.8902 35.391,34.5569 36.5,34.5 Z"/></g>
<g><path style="opacity:1" fill="#c2941e" d="M 25.5,38.5 C 25.5,39.5 25.5,40.5 25.5,41.5C 27.5412,41.8541 29.3745,41.8541 31,41.5C 31.4828,42.448 31.6495,43.448 31.5,44.5C 28.8806,44.7683 26.3806,44.435 24,43.5C 23.4014,41.4652 23.9014,39.7985 25.5,38.5 Z"/></g>
<g><path style="opacity:1" fill="#7c4f00" d="M 40.5,36.5 C 40.8333,36.5 41.1667,36.5 41.5,36.5C 41.8417,37.3382 42.5084,37.6716 43.5,37.5C 43.5,39.5 43.5,41.5 43.5,43.5C 42.6557,41.1572 41.6557,38.8239 40.5,36.5 Z"/></g>
<g><path style="opacity:1" fill="#dbab41" d="M 49.5,42.5 C 49.5,42.1667 49.5,41.8333 49.5,41.5C 50.9587,41.4326 52.2921,41.7659 53.5,42.5C 54.7079,43.2341 56.0413,43.5674 57.5,43.5C 58.7978,42.8843 59.7978,42.8843 60.5,43.5C 60.5,43.8333 60.5,44.1667 60.5,44.5C 56.3925,46.1449 52.7258,45.4782 49.5,42.5 Z"/></g>
<g><path style="opacity:1" fill="#d3ba8c" d="M 71.5,41.5 C 71.8294,44.2282 71.1628,46.5615 69.5,48.5C 69.5,46.8333 69.5,45.1667 69.5,43.5C 69.5,43.1667 69.5,42.8333 69.5,42.5C 70.1667,42.1667 70.8333,41.8333 71.5,41.5 Z"/></g>
<g><path style="opacity:1" fill="#c29223" d="M 68.5,33.5 C 68.6646,36.5184 68.498,39.5184 68,42.5C 67.8784,44.437 67.045,45.7703 65.5,46.5C 64.612,43.9455 64.2786,41.2788 64.5,38.5C 64.8333,38.5 65.1667,38.5 65.5,38.5C 65.281,39.675 65.6143,40.675 66.5,41.5C 66.8333,41.1667 67.1667,40.8333 67.5,40.5C 67.0719,38.6144 66.7386,36.7811 66.5,35C 66.8361,33.9701 67.5028,33.4701 68.5,33.5 Z"/></g>
<g><path style="opacity:1" fill="#6d3e00" d="M 35.5,45.5 C 35.5,45.1667 35.5,44.8333 35.5,44.5C 37.7638,45.2186 40.0971,45.552 42.5,45.5C 43.4916,45.6716 44.1583,45.3382 44.5,44.5C 45.1667,44.5 45.8333,44.5 46.5,44.5C 46.5,44.8333 46.5,45.1667 46.5,45.5C 43.6085,46.4025 40.6085,46.7359 37.5,46.5C 36.8333,46.1667 36.1667,45.8333 35.5,45.5 Z"/></g>
<g><path style="opacity:1" fill="#673601" d="M 49.5,42.5 C 52.7258,45.4782 56.3925,46.1449 60.5,44.5C 60.1667,45.5 59.5,46.1667 58.5,46.5C 55.7628,46.5987 53.0961,46.2653 50.5,45.5C 49.8902,44.609 49.5569,43.609 49.5,42.5 Z"/></g>
<g><path style="opacity:1" fill="#b88719" d="M 64.5,38.5 C 64.2786,41.2788 64.612,43.9455 65.5,46.5C 64.8902,47.391 64.5569,48.391 64.5,49.5C 64.1667,49.5 63.8333,49.5 63.5,49.5C 62.4537,47.2151 62.4537,44.8817 63.5,42.5C 63.5,40.5 63.5,38.5 63.5,36.5C 63.3433,35.1266 63.51,33.7932 64,32.5C 64.4955,34.4727 64.6621,36.4727 64.5,38.5 Z"/></g>
<g><path style="opacity:0.922" fill="#846326" d="M 11.5,41.5 C 12.0303,46.0903 13.3637,50.4237 15.5,54.5C 13.0764,51.9922 11.4097,48.9922 10.5,45.5C 10.2322,43.901 10.5655,42.5676 11.5,41.5 Z"/></g>
<g><path style="opacity:1" fill="#cfa441" d="M 12.5,30.5 C 12.5,32.5 12.5,34.5 12.5,36.5C 12.2397,40.3479 12.9064,44.0145 14.5,47.5C 15.5272,46.2086 16.5272,46.2086 17.5,47.5C 17.631,48.2389 17.4643,48.9056 17,49.5C 16.3457,48.3044 15.8457,48.3044 15.5,49.5C 16.2458,50.7362 16.5792,52.0695 16.5,53.5C 16.5,54.1667 16.5,54.8333 16.5,55.5C 15.8333,55.5 15.5,55.1667 15.5,54.5C 13.3637,50.4237 12.0303,46.0903 11.5,41.5C 11.185,37.6286 11.5184,33.9619 12.5,30.5 Z"/></g>
<g><path style="opacity:1" fill="#b07f18" d="M 46.5,38.5 C 47.1429,40.0764 48.1429,41.4097 49.5,42.5C 49.5569,43.609 49.8902,44.609 50.5,45.5C 50.8333,46.1667 51.1667,46.8333 51.5,47.5C 50.0357,46.5946 48.7024,46.5946 47.5,47.5C 47.6716,46.5084 47.3382,45.8417 46.5,45.5C 46.5,45.1667 46.5,44.8333 46.5,44.5C 46.5,42.5 46.5,40.5 46.5,38.5 Z"/></g>
<g><path style="opacity:1" fill="#d2a62b" d="M 31.5,44.5 C 32.7079,45.2341 34.0413,45.5674 35.5,45.5C 36.1667,45.8333 36.8333,46.1667 37.5,46.5C 37.5,46.8333 37.5,47.1667 37.5,47.5C 37.9742,50.4566 37.9742,53.29 37.5,56C 36.8742,56.7504 36.3742,57.5838 36,58.5C 35.0228,57.2264 34.1894,57.2264 33.5,58.5C 32.0114,56.9487 29.6781,55.9487 26.5,55.5C 25.0857,53.4017 25.7524,52.4017 28.5,52.5C 28.369,53.2389 28.5357,53.9056 29,54.5C 31.5886,53.792 33.7553,52.4587 35.5,50.5C 34.6754,48.2997 33.3421,47.9663 31.5,49.5C 31.5,48.5 31.5,47.5 31.5,46.5C 31.5,45.8333 31.5,45.1667 31.5,44.5 Z"/></g>
<g><path style="opacity:1" fill="#ab780f" d="M 46.5,45.5 C 47.3382,45.8417 47.6716,46.5084 47.5,47.5C 47.8333,48.1667 48.1667,48.8333 48.5,49.5C 45.8536,51.1033 44.1869,53.1033 43.5,55.5C 42.1974,53.2431 42.864,51.4098 45.5,50C 44.0217,47.9614 42.0217,47.1281 39.5,47.5C 38.8333,47.5 38.1667,47.5 37.5,47.5C 37.5,47.1667 37.5,46.8333 37.5,46.5C 40.6085,46.7359 43.6085,46.4025 46.5,45.5 Z"/></g>
<g><path style="opacity:1" fill="#b48218" d="M 17.5,44.5 C 21.1726,46.3177 25.1726,46.9843 29.5,46.5C 27.5372,47.9599 25.7038,49.6266 24,51.5C 22.371,51.8363 20.871,51.1696 19.5,49.5C 18.8333,48.8333 18.1667,48.1667 17.5,47.5C 17.5,46.5 17.5,45.5 17.5,44.5 Z"/></g>
<g><path style="opacity:1" fill="#a87214" d="M 50.5,45.5 C 53.0961,46.2653 55.7628,46.5987 58.5,46.5C 57.8333,47.8333 57.1667,49.1667 56.5,50.5C 54.8506,49.5272 53.184,48.5272 51.5,47.5C 51.1667,46.8333 50.8333,46.1667 50.5,45.5 Z"/></g>
<g><path style="opacity:1" fill="#a0700d" d="M 67.5,28.5 C 68.2679,29.2625 68.7679,30.2625 69,31.5C 69.4986,35.1516 69.6653,38.8183 69.5,42.5C 69.5,42.8333 69.5,43.1667 69.5,43.5C 68.8354,45.3691 68.1687,47.3691 67.5,49.5C 66.4728,50.7914 65.4728,50.7914 64.5,49.5C 64.5569,48.391 64.8902,47.391 65.5,46.5C 67.045,45.7703 67.8784,44.437 68,42.5C 68.498,39.5184 68.6646,36.5184 68.5,33.5C 67.6993,31.9582 67.366,30.2915 67.5,28.5 Z"/></g>
<g><path style="opacity:1" fill="#d6ae2b" d="M 28.5,52.5 C 28.5,50.5 29.5,49.5 31.5,49.5C 33.3421,47.9663 34.6754,48.2997 35.5,50.5C 33.7553,52.4587 31.5886,53.792 29,54.5C 28.5357,53.9056 28.369,53.2389 28.5,52.5 Z"/></g>
<g><path style="opacity:1" fill="#c99c23" d="M 37.5,47.5 C 38.1667,47.5 38.8333,47.5 39.5,47.5C 39.5,48.1667 39.8333,48.5 40.5,48.5C 39.5045,51.8211 38.5045,55.1544 37.5,58.5C 36.3112,59.4287 34.9778,59.762 33.5,59.5C 33.5,59.1667 33.5,58.8333 33.5,58.5C 34.1894,57.2264 35.0228,57.2264 36,58.5C 36.3742,57.5838 36.8742,56.7504 37.5,56C 37.9742,53.29 37.9742,50.4566 37.5,47.5 Z"/></g>
<g><path style="opacity:1" fill="#ab790f" d="M 63.5,42.5 C 62.4537,44.8817 62.4537,47.2151 63.5,49.5C 61.3588,51.3075 59.0254,51.9742 56.5,51.5C 56.5,51.1667 56.5,50.8333 56.5,50.5C 57.1667,49.1667 57.8333,47.8333 58.5,46.5C 59.5,46.1667 60.1667,45.5 60.5,44.5C 60.5,44.1667 60.5,43.8333 60.5,43.5C 61.391,42.8902 62.391,42.5569 63.5,42.5 Z"/></g>
<g><path style="opacity:1" fill="#ae7b0c" d="M 51.5,47.5 C 53.184,48.5272 54.8506,49.5272 56.5,50.5C 56.5,50.8333 56.5,51.1667 56.5,51.5C 55.1667,52.8333 55.1667,54.1667 56.5,55.5C 54.8525,57.3264 52.8525,58.6597 50.5,59.5C 51.2341,58.2921 51.5674,56.9587 51.5,55.5C 53.2252,55.1575 53.7252,54.1575 53,52.5C 51.7292,51.1175 50.2292,50.1175 48.5,49.5C 48.1667,48.8333 47.8333,48.1667 47.5,47.5C 48.7024,46.5946 50.0357,46.5946 51.5,47.5 Z"/></g>
<g><path style="opacity:1" fill="#ab740c" d="M 48.5,49.5 C 50.2292,50.1175 51.7292,51.1175 53,52.5C 53.7252,54.1575 53.2252,55.1575 51.5,55.5C 50.448,55.3505 49.448,55.5172 48.5,56C 49.4506,56.7175 49.6172,57.5509 49,58.5C 47.9887,57.6634 46.8221,57.33 45.5,57.5C 44.8333,56.8333 44.1667,56.1667 43.5,55.5C 44.1869,53.1033 45.8536,51.1033 48.5,49.5 Z"/></g>
<g><path style="opacity:1" fill="#a57817" d="M 17.5,47.5 C 18.1667,48.1667 18.8333,48.8333 19.5,49.5C 19.5,50.1667 19.5,50.8333 19.5,51.5C 19.8588,53.371 20.8588,54.871 22.5,56C 21.944,56.3826 21.6107,56.8826 21.5,57.5C 19.8333,56.1667 18.1667,54.8333 16.5,53.5C 16.5792,52.0695 16.2458,50.7362 15.5,49.5C 15.8457,48.3044 16.3457,48.3044 17,49.5C 17.4643,48.9056 17.631,48.2389 17.5,47.5 Z"/></g>
<g><path style="opacity:1" fill="#b28114" d="M 63.5,49.5 C 63.6085,51.5138 62.9418,53.1805 61.5,54.5C 60.7784,54.0825 60.2784,53.4158 60,52.5C 58.9609,53.7101 57.7942,54.7101 56.5,55.5C 55.1667,54.1667 55.1667,52.8333 56.5,51.5C 59.0254,51.9742 61.3588,51.3075 63.5,49.5 Z"/></g>
<g><path style="opacity:1" fill="#ca9a22" d="M 29.5,46.5 C 29.8333,46.5 30.1667,46.5 30.5,46.5C 30.8333,46.5 31.1667,46.5 31.5,46.5C 31.5,47.5 31.5,48.5 31.5,49.5C 29.5,49.5 28.5,50.5 28.5,52.5C 25.7524,52.4017 25.0857,53.4017 26.5,55.5C 25.8333,55.5 25.1667,55.5 24.5,55.5C 22.8333,54.1667 21.1667,52.8333 19.5,51.5C 19.5,50.8333 19.5,50.1667 19.5,49.5C 20.871,51.1696 22.371,51.8363 24,51.5C 25.7038,49.6266 27.5372,47.9599 29.5,46.5 Z"/></g>
<g><path style="opacity:1" fill="#d9b650" d="M 16.5,53.5 C 18.1667,54.8333 19.8333,56.1667 21.5,57.5C 22.5846,59.5869 24.2512,60.9202 26.5,61.5C 26.8333,62.1667 27.1667,62.8333 27.5,63.5C 26.1667,63.1667 24.8333,62.8333 23.5,62.5C 22.5,60.8333 21.1667,59.5 19.5,58.5C 18.1667,57.8333 17.1667,56.8333 16.5,55.5C 16.5,54.8333 16.5,54.1667 16.5,53.5 Z"/></g>
<g><path style="opacity:1" fill="#b48211" d="M 39.5,47.5 C 42.0217,47.1281 44.0217,47.9614 45.5,50C 42.864,51.4098 42.1974,53.2431 43.5,55.5C 44.1667,56.1667 44.8333,56.8333 45.5,57.5C 42.9028,57.7208 42.9028,58.2208 45.5,59C 47.1341,59.4935 48.8008,59.6602 50.5,59.5C 50.5,59.8333 50.5,60.1667 50.5,60.5C 49.5,60.5 48.5,60.5 47.5,60.5C 44.9179,60.9746 42.9179,60.3079 41.5,58.5C 41.2103,55.0762 40.877,51.7429 40.5,48.5C 39.8333,48.5 39.5,48.1667 39.5,47.5 Z"/></g>
<g><path style="opacity:1" fill="#aa7615" d="M 61.5,54.5 C 61.1667,55.1667 60.8333,55.8333 60.5,56.5C 58.4944,58.1733 56.4944,59.84 54.5,61.5C 53.1508,61.1543 51.8175,60.821 50.5,60.5C 50.5,60.1667 50.5,59.8333 50.5,59.5C 52.8525,58.6597 54.8525,57.3264 56.5,55.5C 57.7942,54.7101 58.9609,53.7101 60,52.5C 60.2784,53.4158 60.7784,54.0825 61.5,54.5 Z"/></g>
<g><path style="opacity:1" fill="#ac832a" d="M 69.5,43.5 C 69.5,45.1667 69.5,46.8333 69.5,48.5C 68.1486,52.5416 65.8152,55.8749 62.5,58.5C 62.1667,58.5 61.8333,58.5 61.5,58.5C 61.1667,57.8333 60.8333,57.1667 60.5,56.5C 60.8333,55.8333 61.1667,55.1667 61.5,54.5C 62.9418,53.1805 63.6085,51.5138 63.5,49.5C 63.8333,49.5 64.1667,49.5 64.5,49.5C 65.4728,50.7914 66.4728,50.7914 67.5,49.5C 68.1687,47.3691 68.8354,45.3691 69.5,43.5 Z"/></g>
<g><path style="opacity:1" fill="#d4a535" d="M 24.5,55.5 C 25.1667,55.5 25.8333,55.5 26.5,55.5C 29.6781,55.9487 32.0114,56.9487 33.5,58.5C 33.5,58.8333 33.5,59.1667 33.5,59.5C 33.5,59.8333 33.5,60.1667 33.5,60.5C 32.5,60.5 31.5,60.5 30.5,60.5C 28.5,58.8333 26.5,57.1667 24.5,55.5 Z"/></g>
<g><path style="opacity:1" fill="#9c6d12" d="M 19.5,51.5 C 21.1667,52.8333 22.8333,54.1667 24.5,55.5C 26.5,57.1667 28.5,58.8333 30.5,60.5C 29.0413,60.4326 27.7079,60.7659 26.5,61.5C 24.2512,60.9202 22.5846,59.5869 21.5,57.5C 21.6107,56.8826 21.944,56.3826 22.5,56C 20.8588,54.871 19.8588,53.371 19.5,51.5 Z"/></g>
<g><path style="opacity:1" fill="#a97706" d="M 51.5,55.5 C 51.5674,56.9587 51.2341,58.2921 50.5,59.5C 48.8008,59.6602 47.1341,59.4935 45.5,59C 42.9028,58.2208 42.9028,57.7208 45.5,57.5C 46.8221,57.33 47.9887,57.6634 49,58.5C 49.6172,57.5509 49.4506,56.7175 48.5,56C 49.448,55.5172 50.448,55.3505 51.5,55.5 Z"/></g>
<g><path style="opacity:1" fill="#c39420" d="M 40.5,48.5 C 40.877,51.7429 41.2103,55.0762 41.5,58.5C 39.5,58.5 38.5,59.5 38.5,61.5C 36.5853,61.7845 34.9187,61.4511 33.5,60.5C 33.5,60.1667 33.5,59.8333 33.5,59.5C 34.9778,59.762 36.3112,59.4287 37.5,58.5C 38.5045,55.1544 39.5045,51.8211 40.5,48.5 Z"/></g>
<g><path style="opacity:0.161" fill="#82691b" d="M 19.5,58.5 C 21.1667,59.5 22.5,60.8333 23.5,62.5C 21.1667,62.1667 19.8333,60.8333 19.5,58.5 Z"/></g>
<g><path style="opacity:1" fill="#be8e21" d="M 41.5,58.5 C 42.9179,60.3079 44.9179,60.9746 47.5,60.5C 45.3621,61.4045 43.0288,62.0711 40.5,62.5C 39.5836,62.4573 38.9169,62.1239 38.5,61.5C 38.5,59.5 39.5,58.5 41.5,58.5 Z"/></g>
<g><path style="opacity:1" fill="#b88c1f" d="M 60.5,56.5 C 60.8333,57.1667 61.1667,57.8333 61.5,58.5C 57.4528,62.192 52.7862,64.8587 47.5,66.5C 47.1583,65.6618 46.4916,65.3284 45.5,65.5C 46.1667,64.8333 46.8333,64.1667 47.5,63.5C 50.5983,63.5875 50.9316,63.0875 48.5,62C 49.4158,61.7216 50.0825,61.2216 50.5,60.5C 51.8175,60.821 53.1508,61.1543 54.5,61.5C 56.4944,59.84 58.4944,58.1733 60.5,56.5 Z"/></g>
<g><path style="opacity:1" fill="#ab811b" d="M 30.5,60.5 C 32.3713,61.7972 34.3713,62.7972 36.5,63.5C 33.6558,64.5511 30.6558,64.5511 27.5,63.5C 27.1667,62.8333 26.8333,62.1667 26.5,61.5C 27.7079,60.7659 29.0413,60.4326 30.5,60.5 Z"/></g>
<g><path style="opacity:1" fill="#9d6b0d" d="M 30.5,60.5 C 31.5,60.5 32.5,60.5 33.5,60.5C 34.9187,61.4511 36.5853,61.7845 38.5,61.5C 38.9169,62.1239 39.5836,62.4573 40.5,62.5C 43.0288,62.0711 45.3621,61.4045 47.5,60.5C 48.5,60.5 49.5,60.5 50.5,60.5C 50.0825,61.2216 49.4158,61.7216 48.5,62C 50.9316,63.0875 50.5983,63.5875 47.5,63.5C 47.0831,62.8761 46.4164,62.5427 45.5,62.5C 43.4629,64.0621 41.4629,64.7287 39.5,64.5C 38.391,64.4431 37.391,64.1098 36.5,63.5C 34.3713,62.7972 32.3713,61.7972 30.5,60.5 Z"/></g>
<g><path style="opacity:0.741" fill="#a2864e" d="M 23.5,62.5 C 24.8333,62.8333 26.1667,63.1667 27.5,63.5C 32.5794,66.8501 38.2461,68.1835 44.5,67.5C 45.1667,67.5 45.5,67.8333 45.5,68.5C 37.1168,70.5698 29.7834,68.5698 23.5,62.5 Z"/></g>
<g><path style="opacity:1" fill="#b38216" d="M 47.5,63.5 C 46.8333,64.1667 46.1667,64.8333 45.5,65.5C 43.2646,65.7947 41.2646,65.4614 39.5,64.5C 41.4629,64.7287 43.4629,64.0621 45.5,62.5C 46.4164,62.5427 47.0831,62.8761 47.5,63.5 Z"/></g>
<g><path style="opacity:1" fill="#d5a93a" d="M 27.5,63.5 C 30.6558,64.5511 33.6558,64.5511 36.5,63.5C 37.391,64.1098 38.391,64.4431 39.5,64.5C 41.2646,65.4614 43.2646,65.7947 45.5,65.5C 46.4916,65.3284 47.1583,65.6618 47.5,66.5C 46.209,66.2627 45.209,66.596 44.5,67.5C 38.2461,68.1835 32.5794,66.8501 27.5,63.5 Z"/></g>
<g><path style="opacity:1" fill="#9f7f42" d="M 61.5,58.5 C 61.8333,58.5 62.1667,58.5 62.5,58.5C 58.2306,64.1373 52.5639,67.4706 45.5,68.5C 45.5,67.8333 45.1667,67.5 44.5,67.5C 45.209,66.596 46.209,66.2627 47.5,66.5C 52.7862,64.8587 57.4528,62.192 61.5,58.5 Z"/></g>
</svg>
