<?xml version="1.0" standalone="no"?>
<!DOCTYPE svg PUBLIC "-//W3C//DTD SVG 20010904//EN"
 "http://www.w3.org/TR/2001/REC-SVG-20010904/DTD/svg10.dtd">
<svg version="1.0" xmlns="http://www.w3.org/2000/svg"
 width="32.000000pt" height="32.000000pt" viewBox="0 0 32.000000 32.000000"
 preserveAspectRatio="xMidYMid meet">

<g transform="translate(0.000000,32.000000) scale(0.100000,-0.100000)"
fill="#000000" stroke="none">
<path d="M84 301 c-64 -39 -93 -103 -80 -176 5 -24 12 -35 24 -35 12 0 14 -3
4 -8 -9 -6 -5 -15 15 -34 42 -38 67 -48 120 -47 26 1 41 3 32 6 -9 2 -21 16
-28 30 -10 23 -10 25 6 19 17 -6 17 -5 1 8 -23 17 -23 30 -2 22 14 -5 15 -4 4
9 -7 8 -9 15 -5 15 4 0 3 6 -2 13 -13 16 -15 117 -2 117 5 0 12 -6 15 -14 7
-18 56 -15 71 4 16 21 39 -1 28 -27 -7 -16 -9 -15 -14 7 -6 20 -8 22 -13 8 -4
-9 1 -23 11 -32 17 -16 20 -35 8 -66 -12 -34 -15 -60 -5 -60 5 0 6 -6 3 -12
-4 -7 3 -2 14 12 40 48 41 144 2 198 -42 60 -145 81 -207 43z m13 -67 c-3 -3
-12 -4 -19 -1 -8 3 -5 6 6 6 11 1 17 -2 13 -5z m28 -24 c-3 -5 -1 -10 4 -10 6
0 10 -11 9 -25 -1 -14 -6 -25 -11 -25 -5 0 -7 -7 -4 -15 4 -8 2 -17 -3 -20 -6
-4 -10 -15 -10 -25 0 -10 -4 -22 -10 -25 -14 -8 -52 14 -44 26 4 7 10 6 19 -1
8 -7 16 -7 19 -2 3 6 -1 12 -9 16 -8 3 -15 12 -15 21 0 8 -5 15 -11 15 -6 0
-7 5 -2 13 4 6 6 22 5 34 -3 18 3 22 30 26 18 2 34 5 36 5 2 1 0 -2 -3 -8z"/>
<path d="M170 209 c0 -11 4 -18 10 -14 5 3 7 12 3 20 -7 21 -13 19 -13 -6z"/>
<path d="M200 169 c-12 -9 -12 -10 4 -5 10 4 25 1 32 -5 9 -7 14 -8 14 -1 0 5
-7 13 -16 16 -19 7 -16 8 -34 -5z"/>
<path d="M210 134 c0 -8 5 -12 10 -9 6 3 10 10 10 16 0 5 -4 9 -10 9 -5 0 -10
-7 -10 -16z"/>
<path d="M198 108 c5 -5 16 -8 23 -6 8 3 3 7 -10 11 -17 4 -21 3 -13 -5z"/>
</g>
</svg>
