<svg version="1.2" xmlns="http://www.w3.org/2000/svg" viewBox="0 0 32 32" width="32" height="32">
	<style>
		.s0 { fill: #009393 } 
		.s1 { fill: #fcfefe } 
		.s2 { fill: #019393 } 
		.s3 { fill: #039494 } 
		.s4 { fill: #f5fbfb } 
		.s5 { fill: #a1d7d7 } 
		.s6 { fill: #57b7b7 } 
		.s7 { fill: #33a8a8 } 
		.s8 { fill: #6bc0c0 } 
		.s9 { fill: #b7e0e0 } 
		.s10 { fill: #d7eded } 
		.s11 { fill: #89cdcd } 
		.s12 { fill: #52b5b5 } 
		.s13 { fill: #b5dfdf } 
		.s14 { fill: #4db3b3 } 
		.s15 { fill: #b2dede } 
		.s16 { fill: #d6eded } 
		.s17 { fill: #d5eded } 
		.s18 { fill: #46b0b0 } 
		.s19 { fill: #38aaaa } 
		.s20 { fill: #55b7b7 } 
		.s21 { fill: #56b7b7 } 
		.s22 { fill: #2fa6a6 } 
		.s23 { fill: #c1e4e4 } 
		.s24 { fill: #8dcece } 
		.s25 { fill: #95d2d2 } 
		.s26 { fill: #53b6b6 } 
		.s27 { fill: #cce9e9 } 
		.s28 { fill: #34a8a8 } 
		.s29 { fill: #afdddd } 
		.s30 { fill: #45b0b0 } 
		.s31 { fill: #61bcbc } 
		.s32 { fill: #afdcdc } 
		.s33 { fill: #3fadad } 
		.s34 { fill: #35a9a9 } 
		.s35 { fill: #97d2d2 } 
		.s36 { fill: #b8e1e1 } 
		.s37 { fill: #bbe2e2 } 
		.s38 { fill: #3eadad } 
		.s39 { fill: #d9efef } 
		.s40 { fill: #c4e6e6 } 
		.s41 { fill: #6ac0c0 } 
		.s42 { fill: #52b6b6 } 
	</style>
	<path class="s0" d="m14.78-0.01q0.14 0 0.29 0 0.31 0 0.62 0 0.39 0 0.78 0 0.3 0 0.61 0 0.14 0 0.28 0c1.13 0 1.13 0 1.58 0.07q0.03 0.03 0.06 0.06 0.14 0.02 0.28 0.04c0.28 0.02 0.28 0.02 0.35 0.09q0.09 0.01 0.19 0.02c0.22 0.04 0.39 0.1 0.6 0.18q0.26 0.09 0.53 0.14c0.27 0.07 0.49 0.15 0.74 0.28 0.17 0.05 0.17 0.05 0.31 0.07q0 0.06 0 0.12 0.06 0.01 0.12 0.02 0.38 0.1 0.76 0.23 0 0.06 0 0.13 0.12 0 0.25 0 0 0.06 0 0.12 0.12 0 0.25 0 0 0.06 0 0.13 0.04 0.01 0.09 0.02 0.31 0.09 0.59 0.23 0 0.06 0 0.12 0.05 0.01 0.1 0.02 0.28 0.09 0.53 0.23 0 0.06 0 0.13 0.06 0.01 0.11 0.02c0.14 0.04 0.14 0.04 0.26 0.1q0 0.06 0 0.13 0.09 0 0.19 0 0 0.06 0 0.12 0.09 0 0.19 0 0 0.06 0 0.13 0.06 0 0.12 0 0 0.06 0 0.12 0.06 0.02 0.12 0.03c0.13 0.03 0.13 0.03 0.26 0.1q0 0.06 0 0.12 0.06 0 0.12 0 0 0.06 0 0.13 0.07 0.02 0.15 0.05c0.17 0.07 0.17 0.07 0.35 0.2q0 0.06 0 0.12 0.06 0 0.13 0 0 0.06 0 0.13 0.06 0 0.12 0 0 0.06 0 0.12 0.06 0 0.13 0 0 0.06 0 0.13 0.06 0 0.12 0 0 0.06 0 0.12 0.06 0 0.13 0 0 0.06 0 0.13 0.06 0 0.12 0 0 0.06 0 0.12 0.06 0 0.13 0 0 0.06 0 0.13 0.06 0 0.12 0 0 0.06 0 0.12 0.06 0 0.13 0 0 0.06 0 0.13 0.06 0 0.12 0 0 0.06 0 0.12 0.06 0 0.13 0 0 0.06 0 0.13 0.06 0 0.12 0 0 0.06 0 0.12 0.06 0 0.13 0 0 0.06 0 0.13 0.06 0 0.12 0c0.25 0.36 0.25 0.36 0.25 0.5q0.06 0 0.13 0 0 0.06 0 0.12 0.06 0 0.12 0c0.25 0.36 0.25 0.36 0.25 0.5q0.06 0 0.13 0c0.12 0.19 0.12 0.19 0.12 0.38q0.06 0 0.13 0c0.12 0.18 0.12 0.18 0.12 0.37q0.06 0 0.13 0c0.25 0.42 0.25 0.42 0.25 0.63q0.06 0 0.12 0c0.09 0.16 0.13 0.24 0.13 0.43q0.06 0 0.12 0 0.07 0.12 0.13 0.24 0.03 0.06 0.07 0.13c0.05 0.13 0.05 0.13 0.05 0.38q0.06 0 0.13 0c0.09 0.22 0.12 0.33 0.12 0.57q0.06 0 0.13 0 0 0.15 0 0.31 0.06 0 0.12 0 0 0.15 0 0.31 0.06 0 0.13 0 0.02 0.08 0.04 0.15c0.02 0.1 0.02 0.1 0.05 0.19 0.02 0.1 0.02 0.1 0.05 0.19 0.03 0.15 0.03 0.15 0.11 0.22q0 0.19 0 0.38 0.06 0 0.12 0 0.02 0.1 0.03 0.21c0.01 0.21 0.01 0.21 0.1 0.29q0.03 0.22 0.06 0.43 0.03 0.04 0.06 0.07 0.04 0.14 0.07 0.27 0.01 0.08 0.03 0.16c0.09 0.61 0.1 1.23 0.1 1.85q0 0.15 0 0.3 0 0.31 0 0.63 0 0.39 0 0.79 0 0.31 0 0.62 0 0.14 0 0.29c0 1.14 0 1.14-0.07 1.59q-0.03 0.03-0.06 0.06-0.02 0.14-0.04 0.28c-0.02 0.28-0.02 0.28-0.09 0.34q-0.01 0.1-0.02 0.2c-0.04 0.22-0.1 0.39-0.18 0.6q-0.09 0.26-0.14 0.53c-0.07 0.27-0.15 0.49-0.28 0.74-0.05 0.17-0.05 0.17-0.07 0.31q-0.06 0-0.12 0-0.01 0.06-0.02 0.12c-0.08 0.35-0.22 0.68-0.36 1q-0.06 0-0.12 0 0 0.13 0 0.25-0.06 0-0.13 0-0.01 0.05-0.02 0.1-0.09 0.31-0.23 0.59-0.06 0-0.12 0-0.01 0.05-0.02 0.1-0.09 0.28-0.23 0.53-0.06 0-0.13 0 0 0.09 0 0.18-0.06 0-0.12 0 0 0.1 0 0.19-0.06 0-0.13 0-0.06 0.19-0.12 0.38-0.06 0-0.13 0 0 0.06 0 0.12-0.06 0-0.12 0-0.02 0.06-0.03 0.12c-0.03 0.13-0.03 0.13-0.1 0.26q-0.06 0-0.12 0 0 0.06 0 0.12-0.06 0-0.13 0-0.02 0.07-0.04 0.14c-0.09 0.19-0.19 0.33-0.33 0.49q-0.06 0-0.13 0 0 0.06 0 0.12-0.06 0-0.12 0 0 0.06 0 0.13-0.06 0-0.13 0 0 0.06 0 0.12-0.06 0-0.12 0 0 0.06 0 0.13-0.06 0-0.13 0 0 0.06 0 0.12-0.06 0-0.12 0 0 0.06 0 0.13-0.06 0-0.13 0 0 0.06 0 0.12-0.06 0-0.12 0 0 0.06 0 0.13-0.06 0-0.13 0 0 0.06 0 0.12-0.06 0-0.12 0 0 0.06 0 0.13-0.06 0-0.13 0 0 0.06 0 0.12-0.06 0-0.12 0 0 0.06 0 0.13-0.12 0.09-0.24 0.18c-0.07 0.06-0.07 0.06-0.14 0.11-0.12 0.08-0.12 0.08-0.25 0.08q0 0.06 0 0.13c-0.27 0.25-0.27 0.25-0.5 0.25q0 0.06 0 0.12c-0.36 0.25-0.36 0.25-0.5 0.25q0 0.06 0 0.13c-0.41 0.25-0.41 0.25-0.62 0.25q0 0.06 0 0.12c-0.42 0.25-0.42 0.25-0.63 0.25q0 0.06 0 0.13-0.24 0.12-0.48 0.25-0.07 0.03-0.14 0.07-0.07 0.03-0.13 0.07-0.06 0.03-0.13 0.06c-0.12 0.05-0.12 0.05-0.37 0.05q0 0.06 0 0.12-0.08 0.03-0.17 0.06c-0.48 0.17-0.48 0.17-0.95 0.36-0.33 0.14-0.58 0.22-0.94 0.21q0 0.06 0 0.12-0.11 0.02-0.21 0.03c-0.22 0.01-0.22 0.01-0.29 0.1q-0.22 0.03-0.44 0.06-0.03 0.03-0.06 0.06-0.22 0.03-0.44 0.05c-0.12 0-0.12 0-0.18 0.08-0.56 0.09-1.13 0.07-1.69 0.07q-0.15 0-0.29 0-0.3 0-0.6 0-0.38 0-0.76 0-0.29 0-0.59 0-0.14 0-0.28 0c-1.09 0-1.09 0-1.54-0.07q-0.04-0.03-0.07-0.07-0.14-0.01-0.28-0.03c-0.27-0.02-0.27-0.02-0.34-0.09q-0.11-0.02-0.22-0.03c-0.22-0.03-0.22-0.03-0.28-0.1q-0.22-0.03-0.44-0.06 0-0.06 0-0.12c-0.08 0-0.08 0-0.16 0.01-0.21-0.01-0.34-0.06-0.53-0.15q-0.21-0.08-0.42-0.14-0.49-0.15-0.95-0.35 0-0.06 0-0.12-0.06-0.01-0.13-0.02-0.35-0.1-0.67-0.27c-0.07-0.03-0.07-0.03-0.13-0.06q-0.16-0.08-0.32-0.15 0-0.06 0-0.13-0.05-0.01-0.1-0.02-0.28-0.09-0.53-0.23 0-0.06 0-0.12-0.05-0.01-0.1-0.02-0.27-0.09-0.52-0.23 0-0.06 0-0.13-0.07-0.02-0.15-0.05c-0.16-0.07-0.16-0.07-0.35-0.2q0-0.06 0-0.12-0.06-0.01-0.11-0.02c-0.16-0.05-0.26-0.13-0.39-0.23q0-0.06 0-0.13c-0.07-0.02-0.07-0.02-0.14-0.04-0.19-0.09-0.33-0.19-0.49-0.33q0-0.06 0-0.13-0.06 0-0.12 0 0-0.06 0-0.12-0.06 0-0.13 0 0-0.06 0-0.13-0.06 0-0.12 0 0-0.06 0-0.12-0.06 0-0.13 0 0-0.06 0-0.13-0.06 0-0.12 0 0-0.06 0-0.12-0.06 0-0.13 0 0-0.06 0-0.13-0.06 0-0.12 0 0-0.06 0-0.12-0.06 0-0.13 0 0-0.06 0-0.13-0.06 0-0.12 0 0-0.06 0-0.12-0.06 0-0.13 0 0-0.06 0-0.13-0.06 0-0.12 0 0-0.06 0-0.12-0.06 0-0.13 0-0.09-0.12-0.18-0.24-0.06-0.07-0.11-0.14c-0.08-0.12-0.08-0.12-0.08-0.25q-0.06 0-0.13 0 0-0.06 0-0.12-0.06 0-0.12 0c-0.13-0.19-0.13-0.19-0.13-0.38q-0.06 0-0.12 0 0-0.06 0-0.12-0.06 0-0.13 0-0.06-0.19-0.12-0.38-0.06 0-0.13 0 0-0.09 0-0.19-0.06 0-0.12 0 0-0.09 0-0.18-0.06 0-0.13 0c-0.25-0.42-0.25-0.42-0.25-0.63q-0.06 0-0.12 0-0.07-0.12-0.13-0.24-0.03-0.06-0.07-0.13c-0.05-0.13-0.05-0.13-0.05-0.32q-0.06 0-0.13 0 0-0.12 0-0.25-0.06 0-0.12 0-0.04-0.11-0.08-0.22-0.09-0.25-0.22-0.48c-0.08-0.17-0.08-0.17-0.08-0.42q-0.06 0-0.12 0-0.02-0.06-0.04-0.12-0.09-0.37-0.24-0.71-0.16-0.43-0.24-0.88c-0.03-0.16-0.03-0.16-0.11-0.23q-0.03-0.22-0.06-0.44-0.03-0.03-0.06-0.06-0.03-0.21-0.05-0.43c0-0.13 0-0.13-0.08-0.19-0.09-0.57-0.07-1.16-0.07-1.73q0-0.15 0-0.3 0-0.31 0-0.63 0-0.39 0-0.79 0-0.31 0-0.62 0-0.15 0-0.29c0-0.63 0.01-1.25 0.14-1.87 0.01-0.07 0.01-0.07 0.03-0.15 0.03-0.12 0.03-0.12 0.09-0.19q0.02-0.1 0.03-0.21c0.03-0.22 0.03-0.22 0.1-0.29q0.03-0.21 0.06-0.43 0.06 0 0.12 0 0-0.08-0.01-0.16c0.01-0.26 0.1-0.43 0.2-0.66 0.04-0.17 0.04-0.17 0.06-0.31q0.06 0 0.13 0 0-0.15 0-0.31 0.06 0 0.12 0 0-0.15 0-0.31 0.06 0 0.13 0 0.01-0.07 0.02-0.14 0.05-0.22 0.1-0.43 0.06 0 0.13 0c0.01-0.06 0.01-0.06 0.02-0.12q0.08-0.33 0.23-0.63 0.06 0 0.12 0 0.02-0.05 0.03-0.11 0.04-0.16 0.1-0.32 0.06 0 0.12 0c0.01-0.05 0.01-0.05 0.02-0.1q0.09-0.28 0.23-0.53 0.06 0 0.13 0 0.01-0.06 0.02-0.11c0.04-0.14 0.04-0.14 0.1-0.26q0.06 0 0.13 0 0.01-0.06 0.02-0.12c0.04-0.13 0.04-0.13 0.1-0.26q0.06 0 0.13 0 0.02-0.07 0.05-0.14c0.07-0.17 0.07-0.17 0.2-0.36q0.06 0 0.12 0 0-0.06 0-0.12 0.06 0 0.13 0 0.02-0.07 0.05-0.15c0.07-0.17 0.07-0.17 0.2-0.35q0.06 0 0.12 0 0-0.06 0-0.13 0.06 0 0.13 0 0-0.06 0-0.12 0.06 0 0.12 0 0-0.06 0-0.13 0.06 0 0.13 0 0-0.06 0-0.12 0.06 0 0.12 0 0-0.06 0-0.13 0.06 0 0.13 0 0-0.06 0-0.12 0.06 0 0.12 0 0-0.06 0-0.13 0.06 0 0.13 0 0-0.06 0-0.12 0.06 0 0.12 0 0-0.06 0-0.13 0.06 0 0.13 0 0-0.06 0-0.12 0.06 0 0.12 0 0-0.06 0-0.13 0.06 0 0.13 0 0-0.06 0-0.12 0.06 0 0.12 0 0-0.06 0-0.13 0.06 0 0.13 0 0-0.06 0-0.12c0.36-0.25 0.36-0.25 0.5-0.25q0-0.06 0-0.13 0.06 0 0.12 0 0-0.06 0-0.12c0.19-0.13 0.19-0.13 0.38-0.13q0-0.06 0-0.12 0.06 0 0.12 0 0-0.06 0-0.13 0.09 0 0.19 0 0-0.06 0-0.12 0.09 0 0.19 0 0-0.06 0-0.13c0.19-0.12 0.19-0.12 0.37-0.12q0-0.06 0-0.13c0.42-0.25 0.42-0.25 0.63-0.25q0-0.06 0-0.12 0.12-0.07 0.24-0.13 0.06-0.03 0.13-0.07c0.13-0.05 0.13-0.05 0.32-0.05q0-0.06 0-0.13 0.12 0 0.25 0 0-0.06 0-0.12 0.12 0 0.25 0 0-0.06 0-0.13 0.14-0.06 0.29-0.12c0.08-0.04 0.08-0.04 0.17-0.07 0.16-0.06 0.16-0.06 0.41-0.06q0-0.06 0-0.12 0.06-0.02 0.12-0.04 0.37-0.09 0.71-0.24 0.43-0.16 0.88-0.24c0.16-0.03 0.16-0.03 0.23-0.11q0.22-0.03 0.44-0.06 0.03-0.03 0.06-0.06 0.21-0.03 0.43-0.05c0.13 0 0.13 0 0.19-0.08 0.57-0.09 1.15-0.07 1.72-0.07z"/>
	<path class="s1" d="m10.04 8.11c0.08 0 0.08 0 0.17 0q0.27 0 0.55 0 0.2 0 0.4 0 0.65 0 1.3 0c0.12 0 0.12 0 0.23 0q1.05-0.01 2.09-0.01 1.34 0 2.68-0.01 0.94 0 1.88 0 0.57 0 1.13-0.01 0.53 0 1.06 0 0.19 0 0.38 0 0.27 0 0.53 0 0.08 0 0.16 0c0.27 0 0.42 0.03 0.62 0.23 0.16 0.19 0.16 0.19 0.16 0.31q0.06 0 0.12 0c0.25 0.41 0.25 0.41 0.25 0.69q0.06 0 0.13 0 0.06 0.22 0.12 0.44 0.06 0 0.13 0 0.03 0.08 0.06 0.17 0.2 0.44 0.46 0.84c0.09 0.15 0.13 0.26 0.16 0.43q0.09 0.03 0.19 0.06 0.1 0.22 0.19 0.44c0.09 0.21 0.11 0.24 0.31 0.37 0.13 0.2 0.16 0.4 0.19 0.63q0.09 0.03 0.19 0.06 0.1 0.22 0.18 0.44c0.07 0.16 0.1 0.23 0.24 0.33 0.18 0.14 0.24 0.29 0.33 0.5 0.05 0.12 0.05 0.12 0.18 0.17q0.03 0.24 0.07 0.5 0.06 0 0.12 0c0.13 0.33 0.24 0.63 0.19 1-0.16 0.26-0.39 0.44-0.62 0.63q-0.51 0.44-0.92 0.98c-0.09 0.07-0.09 0.07-0.27 0.07q0 0.07 0 0.13c-0.09 0.08-0.09 0.08-0.2 0.18q-0.36 0.3-0.69 0.64-0.05 0.05-0.11 0.11-0.16 0.16-0.32 0.32c-0.79 0.8-0.79 0.8-1.05 1.03q-0.55 0.48-1.05 1-0.18 0.18-0.36 0.37c-0.53 0.52-0.53 0.52-1.01 1.08-0.11 0.1-0.2 0.12-0.34 0.14q0 0.07 0 0.13-0.06 0-0.12 0c-0.02 0.06-0.02 0.06-0.03 0.11-0.04 0.16-0.09 0.22-0.2 0.33-0.06 0.05-0.06 0.05-0.11 0.1q-0.05 0.06-0.11 0.12-0.06 0.05-0.12 0.11-0.12 0.13-0.25 0.25-0.19 0.19-0.37 0.37-0.52 0.53-1.08 1.01-0.43 0.4-0.82 0.83c-0.34 0.34-0.59 0.55-1.07 0.61-0.71-0.09-1.23-0.83-1.67-1.34-0.51-0.6-0.51-0.6-1.17-1q0-0.06 0-0.13-0.07 0-0.13 0 0-0.06 0-0.12-0.06 0-0.12 0 0-0.06 0-0.13-0.07 0-0.13 0 0-0.06 0-0.12-0.06 0-0.12 0 0-0.06 0-0.13-0.07 0-0.13 0 0-0.06 0-0.12-0.06 0-0.12 0 0-0.06 0-0.13-0.1 0-0.19 0 0-0.06 0-0.12-0.06 0-0.13 0c-0.09-0.09-0.09-0.09-0.19-0.22q-0.3-0.35-0.64-0.67c-0.1-0.11-0.1-0.11-0.23-0.3q-0.09-0.03-0.19-0.06c-0.09-0.09-0.09-0.09-0.18-0.21q-0.3-0.35-0.63-0.67-0.37-0.36-0.71-0.75-0.42-0.48-0.91-0.89c-0.19-0.17-0.19-0.17-0.25-0.36q-0.07-0.03-0.13-0.06 0-0.06 0-0.12-0.06 0-0.12 0 0-0.06 0-0.13-0.07 0-0.13 0 0-0.06 0-0.12-0.06 0-0.12 0 0-0.06 0-0.13-0.13-0.03-0.25-0.06 0-0.06 0-0.13-0.07 0-0.13 0 0-0.06 0-0.12-0.06 0-0.12 0 0-0.06 0-0.13-0.07 0-0.13 0 0-0.06 0-0.12-0.06-0.01-0.11-0.02c-0.16-0.05-0.22-0.11-0.33-0.23q-0.05-0.06-0.11-0.12-0.05-0.06-0.11-0.12-0.49-0.55-1.05-1.04c-0.46-0.43-0.46-0.43-0.52-0.76 0.03-0.53 0.44-1.03 0.73-1.46q0.15-0.24 0.3-0.48 0.33-0.53 0.67-1.06 0.09-0.15 0.18-0.3 0.22-0.35 0.44-0.69c0.1-0.16 0.1-0.16 0.16-0.35q0.06 0 0.13 0 0.01-0.07 0.03-0.14c0.11-0.27 0.25-0.47 0.42-0.7q0.14-0.22 0.23-0.47c0.09-0.12 0.09-0.12 0.18-0.23q0.2-0.26 0.35-0.54c0.16-0.32 0.43-0.78 0.78-0.89q0.33-0.05 0.67-0.04z"/>
	<path class="s2" d="m11.13 11c3.21 0 6.43 0 9.74 0q0 0.86 0 1.75-1.81 0-3.68 0 0 0.62 0 1.25c0.34 0 0.34 0 0.69-0.01q0.19 0 0.37 0.01 0.03 0.03 0.06 0.06 0.22 0.03 0.44 0.05c0.85 0.1 1.65 0.28 2.44 0.64q0.08 0.03 0.16 0.06c0.18 0.08 0.27 0.16 0.4 0.32q0.05 0.38 0.04 0.77 0 0.19 0 0.38 0 0.12 0 0.24c0 0.11 0 0.11 0 0.22-0.05 0.25-0.16 0.35-0.35 0.51-0.13 0.08-0.13 0.08-0.26 0.14-0.06 0.03-0.06 0.03-0.12 0.05q-0.06 0.03-0.12 0.06c-0.06 0.03-0.06 0.03-0.11 0.06-0.22 0.1-0.45 0.13-0.68 0.16-0.34 0.05-0.34 0.05-0.65 0.15q-0.23 0.04-0.46 0.07c-0.07 0.01-0.07 0.01-0.13 0.02-0.55 0.07-1.11 0.04-1.66 0.04q0 0.06 0 0.12 0 0.6 0 1.21 0 0.23 0 0.46 0.01 0.32 0.01 0.65 0 0.1 0 0.2 0 0.09 0 0.19 0 0.08 0 0.17c-0.01 0.12-0.01 0.12-0.07 0.19q-0.26 0.01-0.53 0.01-0.07 0-0.15 0-0.17 0-0.34 0-0.25 0-0.51 0-0.16 0-0.32 0-0.08 0-0.16 0c-0.36-0.01-0.36-0.01-0.43-0.08q-0.01-0.14-0.01-0.28c0-0.1 0-0.1 0-0.19q0-0.1 0-0.2 0-0.1 0-0.21 0-0.32 0.01-0.65 0-0.22 0-0.44 0-0.54 0-1.09-0.07 0-0.15 0-0.31-0.01-0.62-0.02-0.1 0-0.21 0c-0.43-0.01-0.81-0.07-1.23-0.18q-0.33-0.08-0.67-0.13c-0.65-0.11-1.09-0.41-1.62-0.79q0-0.86 0-1.75c1.26-0.95 2.97-1.06 4.5-1.19q0.03-0.62 0.06-1.25-1.81 0-3.69 0 0-0.86 0-1.75z"/>
	<path class="s3" d="m21.56 15q0.09 0.06 0.19 0.13 0.01 0.37 0.02 0.75 0 0.13 0 0.26 0.01 0.18 0.01 0.37 0 0.11 0.01 0.23c-0.05 0.26-0.15 0.34-0.35 0.51-0.13 0.08-0.13 0.08-0.26 0.14q-0.06 0.02-0.12 0.05-0.06 0.03-0.12 0.06-0.06 0.03-0.11 0.06c-0.22 0.1-0.45 0.13-0.68 0.16-0.34 0.05-0.34 0.05-0.65 0.15q-0.23 0.04-0.46 0.07-0.06 0.01-0.13 0.02c-0.55 0.07-1.11 0.04-1.66 0.04q0 0.06 0 0.12 0 0.6 0 1.21 0 0.23 0 0.46 0.01 0.32 0.01 0.65 0 0.1 0 0.2 0 0.09 0 0.19 0 0.08 0 0.17c-0.01 0.12-0.01 0.12-0.07 0.19q-0.26 0.01-0.53 0.01-0.07 0-0.15 0-0.17 0-0.34 0-0.25 0-0.51 0-0.16 0-0.32 0-0.08 0-0.16 0c-0.36-0.01-0.36-0.01-0.43-0.08q-0.01-0.14-0.01-0.28c0-0.1 0-0.1 0-0.19q0-0.1 0-0.2 0-0.1 0-0.21 0-0.32 0.01-0.65 0-0.22 0-0.44 0-0.54 0-1.09-0.07 0-0.15 0-0.31-0.01-0.62-0.02-0.1 0-0.21 0c-0.43-0.01-0.81-0.07-1.23-0.18q-0.33-0.08-0.67-0.13c-0.65-0.11-1.09-0.41-1.62-0.79q0-0.86 0-1.75 0.06 0 0.13 0 0 0.37 0 0.75 0.08-0.05 0.17-0.1c0.2-0.09 0.2-0.09 0.39-0.09q0-0.06 0-0.12 0.6-0.22 1.23-0.33c0.08-0.01 0.08-0.01 0.17-0.03q0.24-0.04 0.47-0.08c0.09-0.02 0.09-0.02 0.19-0.04q0.28-0.04 0.57-0.04c0.1-0.01 0.1-0.01 0.21-0.01q0.1-0.01 0.21-0.01 0.11 0 0.22-0.01 0.27-0.01 0.54-0.02 0 0.06 0 0.11 0.02 0.24 0.03 0.48 0 0.09 0 0.17 0.01 0.08 0.01 0.16 0.01 0.08 0.01 0.15c0 0.12 0 0.12 0.08 0.18q0.26 0.02 0.52 0.02 0.08 0 0.16 0.01 0.25 0 0.51 0.01 0.17 0 0.34 0.01 0.42 0.01 0.84 0.02 0-0.65 0-1.32c1.05-0.01 2.03 0.1 3.06 0.32q0 0.06 0 0.12c0.12-0.01 0.12-0.01 0.24-0.02 0.4 0 0.72 0.17 1.08 0.33q-0.04-0.4-0.07-0.81z"/>
	<path class="s4" d="m14.75 15.06q0 0.06 0 0.11 0.02 0.24 0.03 0.48 0 0.09 0 0.17 0.01 0.08 0.01 0.16 0.01 0.08 0.01 0.15c0 0.12 0 0.12 0.07 0.18q0.27 0.02 0.53 0.02 0.08 0 0.16 0.01 0.25 0 0.51 0.01 0.17 0 0.34 0.01 0.42 0.01 0.84 0.01 0-0.64 0-1.31c1.05-0.01 2.03 0.1 3.06 0.31q0 0.07 0 0.13 0.09 0.01 0.18 0.02 0.58 0.09 1.07 0.42c-0.02 0.16-0.04 0.23-0.17 0.34-0.89 0.59-2.29 0.71-3.33 0.77-0.17 0.01-0.17 0.01-0.3 0.04q-0.25 0.05-0.51 0.04c-0.11 0-0.11 0-0.22 0-0.12 0-0.12 0-0.25 0q-0.12 0-0.25 0-0.26 0-0.52 0-0.34 0-0.68 0-0.25 0-0.51 0-0.19 0-0.37 0c-0.11 0-0.11 0-0.23 0q-0.1 0-0.2 0c-0.14-0.01-0.14-0.01-0.21-0.07q-0.17-0.02-0.33-0.03c-1.05-0.09-2.09-0.26-2.98-0.84q0-0.16 0-0.32c0.17-0.09 0.24-0.12 0.44-0.12q0-0.06 0-0.13 0.6-0.21 1.23-0.32c0.08-0.01 0.08-0.01 0.17-0.03q0.24-0.04 0.47-0.08 0.1-0.02 0.2-0.04 0.36-0.05 0.74-0.06c0.07 0 0.07 0 0.14-0.01q0.43-0.02 0.86-0.02z"/>
	<path class="s5" d="m11.5 10.87q0.12 0 0.25 0 0.14 0 0.28 0 0.14 0 0.28 0 0.39 0 0.79 0 0.41 0 0.81 0 0.69 0 1.38 0 0.79 0 1.59 0 0.68 0 1.36 0 0.41 0 0.82 0 0.38 0 0.76 0 0.15 0 0.29 0 0.19 0 0.38 0c0.11 0 0.11 0 0.22 0 0.16 0 0.16 0 0.29 0.07q0 0.92 0 1.87-1.85 0-3.75 0 0 0.59 0 1.19-0.03 0-0.06 0 0-0.62 0-1.25 1.81 0 3.68 0 0-0.86 0-1.75c-3.21 0-6.43 0-9.75 0q0 0.86 0 1.75 1.82 0 3.69 0 0 0.62 0 1.25c-0.09 0.1-0.19 0.08-0.33 0.08q-0.08 0.01-0.16 0.01-0.08 0-0.17 0.01c-0.08 0-0.08 0-0.17 0.01q-0.21 0.01-0.42 0.01c0.06-0.12 0.06-0.12 0.25-0.18q0.44-0.01 0.88 0 0-0.53 0-1.07-1.79 0-3.63 0 0-0.47 0-0.96 0-0.15 0-0.3 0-0.12 0-0.24 0-0.12 0-0.25c0.01-0.32 0.15-0.25 0.44-0.25z"/>
	<path class="s6" d="m10.81 17.25q0.22 0.03 0.44 0.06 0 0.06 0 0.13c0.09 0.01 0.09 0.01 0.19 0.02q0.12 0.02 0.24 0.04 0.12 0.01 0.25 0.03c0.19 0.03 0.19 0.03 0.26 0.1q0.22 0.03 0.43 0.06 0 0.06 0 0.12 0.06 0 0.11 0 0.67 0 1.34 0.06c0.1 0.01 0.1 0.01 0.21 0.02q0.1 0.01 0.21 0.01c0.09 0.01 0.09 0.01 0.18 0.02 0.14 0.02 0.14 0.02 0.2 0.08q0.01 0.14 0.01 0.29c0 0.09 0 0.09 0 0.18q0 0.1 0 0.21 0 0.1 0 0.2 0 0.33 0 0.66 0 0.22 0 0.44 0 0.54-0.01 1.08 1.11 0 2.25 0 0-0.33 0-0.67 0-0.31 0-0.63 0-0.22 0-0.45 0-0.32 0-0.63 0-0.1 0-0.21 0-0.09 0-0.18 0-0.08 0-0.17c0-0.12 0-0.12 0.07-0.18q0.18-0.02 0.37-0.02c0.12-0.01 0.12-0.01 0.23-0.01q0.12 0 0.25-0.01 0.11 0 0.24-0.01 0.3-0.01 0.59-0.02 0 0.04 0 0.07-0.52 0.08-1.05 0.06-0.09 0-0.17 0-0.2 0-0.4 0 0 0.06 0 0.12 0 0.6 0 1.21 0 0.23 0 0.46 0.01 0.32 0.01 0.65 0 0.1 0 0.2 0 0.09 0 0.19 0 0.08 0 0.17c-0.01 0.12-0.01 0.12-0.07 0.19q-0.26 0.01-0.53 0.01-0.07 0-0.15 0-0.17 0-0.34 0-0.25 0-0.51 0-0.16 0-0.32 0-0.08 0-0.16 0c-0.36-0.01-0.36-0.01-0.43-0.08q-0.01-0.14-0.01-0.28 0-0.09 0-0.19 0-0.1 0-0.2 0-0.1 0-0.21 0-0.32 0.01-0.65 0-0.22 0-0.44 0-0.54 0-1.09-0.07 0-0.15 0-0.31-0.01-0.62-0.02c-0.1 0-0.1 0-0.21 0-0.43-0.01-0.81-0.07-1.23-0.18q-0.33-0.09-0.68-0.13c-0.39-0.07-0.72-0.19-1.05-0.42q0-0.03 0-0.06z"/>
	<path class="s7" d="m11.13 11c3.21 0 6.43 0 9.74 0q0 0.86 0 1.75-1.78 0-3.62 0 0-0.03 0-0.06 1.75 0 3.56 0 0-0.8 0-1.63c-3.15 0-6.31 0-9.56 0q0.03 0.77 0.06 1.56 1.7 0.04 3.44 0.07 0 0.03 0 0.06-1.79 0-3.63 0 0-0.86 0-1.75z"/>
	<path class="s8" d="m14.34 15q0.08 0 0.17 0 0.21 0 0.43 0 0 0.58 0 1.19 1.11 0.03 2.25 0.06 0-0.62 0-1.25 0.29 0 0.59 0 0.09 0 0.19-0.01 0.48 0 0.97 0.07 0 0.03 0 0.07-0.85 0.02-1.69-0.07 0 0.65 0 1.31-0.5 0.01-1.01 0.01-0.17 0-0.34 0-0.25 0.01-0.49 0.01-0.08 0-0.16 0-0.19 0-0.37-0.02c-0.13-0.12-0.13-0.12-0.14-0.24q0-0.08 0-0.15 0-0.08 0-0.16 0-0.09 0-0.17 0-0.09 0-0.17 0.01-0.21 0.01-0.42c-0.09 0.02-0.09 0.02-0.19 0.03q-0.38 0.05-0.77 0.04-0.07 0-0.14 0-0.17 0-0.34-0.01 0-0.03 0-0.06c0.35-0.07 0.68-0.07 1.03-0.06z"/>
	<path class="s9" d="m11.06 10.94q0.03 0 0.06 0 0 0.89 0 1.81 1.82 0 3.69 0 0 0.62 0 1.25c-0.09 0.1-0.19 0.08-0.33 0.08q-0.08 0.01-0.16 0.01-0.08 0-0.17 0.01c-0.08 0-0.08 0-0.17 0.01q-0.21 0.01-0.42 0.02c0.06-0.13 0.06-0.13 0.25-0.19q0.44-0.01 0.88 0 0-0.53 0-1.06-1.79 0-3.63 0 0-0.96 0-1.94z"/>
	<path class="s10" d="m9.5 8.13c4.46-0.01 8.91-0.01 13.5-0.01q0.09 0.13 0.19 0.25-0.16-0.03-0.32-0.06 0.01-0.06 0.01-0.12c-4.42 0-8.83 0-13.38 0q0-0.03 0-0.07z"/>
	<path class="s11" d="m26.81 16c0 0.19 0 0.19-0.15 0.35q-0.1 0.1-0.2 0.19-0.1 0.1-0.2 0.21c-0.05 0.05-0.05 0.05-0.11 0.1q-0.16 0.16-0.31 0.35c-0.66 0.76-0.66 0.76-0.99 0.95-0.18 0.11-0.32 0.25-0.48 0.4q-0.04 0.05-0.08 0.09-0.14 0.14-0.28 0.28-0.18 0.19-0.36 0.37-0.04 0.04-0.09 0.09-0.23 0.23-0.48 0.45c-0.43 0.36-0.81 0.77-1.2 1.17q-0.13 0.12-0.26 0.25-0.31 0.31-0.62 0.63-0.06-0.04-0.12-0.07 0.46-0.47 0.93-0.93 0.16-0.16 0.32-0.32 0.22-0.23 0.45-0.46 0.07-0.07 0.15-0.14 0.37-0.38 0.78-0.73 0.27-0.24 0.51-0.5 0.11-0.11 0.22-0.22 0.17-0.17 0.33-0.34 0.17-0.17 0.33-0.33c0.05-0.05 0.05-0.05 0.1-0.1q0.12-0.12 0.25-0.24 0.06 0 0.13 0 0-0.06 0-0.12 0.06-0.04 0.13-0.08 0.29-0.2 0.51-0.47 0.09-0.1 0.18-0.2 0.05-0.05 0.09-0.1 0.25-0.27 0.52-0.53z"/>
	<path class="s12" d="m11.94 16.75q0.38 0.04 0.76 0.13 0.47 0.09 0.95 0.1c0.16 0.02 0.16 0.02 0.23 0.08q0.17 0.01 0.34 0.01c0.11 0 0.11 0 0.23 0q0.12 0 0.24 0 0.13 0 0.25 0 0.27 0 0.53 0 0.33 0 0.67 0 0.26 0 0.52 0 0.18 0 0.37 0 0.11 0 0.22 0 0.1 0 0.2 0 0.22-0.01 0.43-0.07 0.33-0.03 0.66-0.04 0.24-0.02 0.46-0.09 0.13 0 0.27 0c0.11 0 0.11 0 0.23 0-0.66 0.4-1.62 0.34-2.37 0.34q-0.14 0-0.29 0-0.29 0-0.59 0-0.38-0.01-0.77-0.01-0.36 0-0.73 0-0.07 0-0.14 0-0.2 0-0.39 0-0.11 0-0.23 0c-0.18-0.01-0.18-0.01-0.36-0.08q-0.31-0.02-0.61-0.03c-0.33-0.02-0.33-0.02-0.39-0.09q-0.15-0.02-0.29-0.04-0.08 0-0.16-0.01-0.06-0.01-0.12-0.01 0-0.06 0-0.13-0.06-0.03-0.12-0.06z"/>
	<path class="s13" d="m13.5 14.13q0 0.03 0 0.06c-0.07 0.01-0.07 0.01-0.14 0.02-1.09 0.18-1.09 0.18-2.16 0.48q-0.06 0.02-0.12 0.04c-0.29 0.11-0.48 0.26-0.7 0.46q-0.07 0-0.13 0 0 0.86 0 1.75-0.03 0-0.06 0 0-0.9 0-1.82c0.5-0.37 0.5-0.37 0.69-0.43q0.03-0.06 0.06-0.13c0.14-0.05 0.14-0.05 0.31-0.1 0.21-0.04 0.21-0.04 0.38-0.15q0.19-0.03 0.38-0.04c0.12-0.01 0.12-0.01 0.18-0.08q0.65-0.09 1.31-0.07z"/>
	<path class="s14" d="m10.81 17.25q0.22 0.03 0.44 0.06 0 0.06 0 0.13c0.09 0.01 0.09 0.01 0.19 0.02q0.12 0.02 0.24 0.04 0.12 0.01 0.25 0.03c0.19 0.03 0.19 0.03 0.26 0.1q0.22 0.03 0.43 0.06 0 0.06 0 0.12 0.06 0 0.11 0 0.67 0 1.34 0.07 0.11 0 0.22 0.01 0.26 0.02 0.52 0.05c0.03 0.06 0.03 0.06 0.06 0.12-0.77 0.02-1.55 0.02-2.3-0.2q-0.28-0.07-0.57-0.11c-0.45-0.07-0.82-0.18-1.19-0.44q0-0.03 0-0.06z"/>
	<path class="s15" d="m19.38 17.88c-0.19 0.12-0.27 0.14-0.48 0.17q-0.08 0.02-0.17 0.03-0.09 0.01-0.18 0.02c-0.08 0.01-0.08 0.01-0.17 0.03-0.36 0.05-0.69 0.06-1.07 0.06q0 1.44 0 2.94-0.03 0-0.06 0 0-1.54 0-3.13 0.58-0.03 1.19-0.06c0.33-0.05 0.6-0.07 0.94-0.06z"/>
	<path class="s16" d="m17.25 12.81q1.79 0 3.63 0 0 0.03 0 0.06-1.76 0-3.57 0 0 0.53 0 1.07c0.35 0 0.35 0 0.69-0.01 0.36 0 0.36 0 0.5 0.07q0.21 0.02 0.41 0.04 0.11 0 0.23 0.01c0.08 0.01 0.08 0.01 0.17 0.01q0 0.06 0 0.13-0.25-0.02-0.49-0.03-0.07 0-0.15-0.01c-0.35-0.02-0.35-0.02-0.42-0.09q-0.25-0.02-0.5-0.03-0.25-0.02-0.5-0.03 0-0.58 0-1.19z"/>
	<path class="s17" d="m12.88 17.94q0.92 0.06 1.87 0.12 0 1.51 0 3.06-0.03 0-0.06 0 0-1.44 0-2.93-0.4 0-0.82 0-0.27-0.03-0.55-0.07c-0.06 0-0.06 0-0.13-0.01q-0.16-0.02-0.32-0.05 0-0.06 0-0.12z"/>
	<path class="s18" d="m21.56 15q0.09 0.06 0.19 0.13 0 0.89 0 1.81-0.06 0.03-0.12 0.06 0-0.4 0-0.81-0.1 0-0.19 0 0.03-0.13 0.06-0.25c-0.2-0.14-0.39-0.2-0.62-0.27-0.13-0.04-0.13-0.04-0.25-0.17 0.36 0.04 0.66 0.17 1 0.31q-0.04-0.4-0.07-0.81z"/>
	<path class="s19" d="m14.81 12.75q0.03 0 0.06 0 0.01 0.34 0.01 0.68 0 0.1 0 0.2 0 0.09 0 0.19 0 0.08 0 0.17c-0.01 0.13-0.01 0.13-0.07 0.2q-0.13 0.01-0.27 0.02-0.08 0-0.16 0-0.09 0.01-0.18 0.01-0.17 0.01-0.34 0.01-0.07 0.01-0.15 0.01-0.23 0.02-0.46 0.07-0.13 0.01-0.27 0.01c-0.11-0.01-0.11-0.01-0.23-0.01q0-0.03 0-0.06c1.37-0.2 1.37-0.2 2-0.25q0.03-0.62 0.06-1.25z"/>
	<path class="s20" d="m26.81 16c0 0.19 0 0.19-0.15 0.35q-0.1 0.1-0.2 0.19-0.1 0.1-0.2 0.21-0.05 0.05-0.11 0.1-0.16 0.16-0.31 0.35-0.4 0.45-0.84 0.86-0.06-0.03-0.12-0.06 0.04-0.04 0.09-0.09 0.06-0.06 0.12-0.12 0.06-0.05 0.12-0.11c0.12-0.12 0.12-0.12 0.17-0.3 0.06-0.05 0.06-0.05 0.13-0.09 0.21-0.12 0.36-0.28 0.51-0.46q0.09-0.1 0.18-0.2 0.05-0.05 0.09-0.1 0.25-0.27 0.52-0.53z"/>
	<path class="s21" d="m10.25 15.19q0.06 0 0.13 0-0.01 0.37-0.01 0.75 0.07 0 0.13 0 0 0.12 0 0.25-0.06 0-0.13 0 0 0.4 0 0.81-0.06-0.03-0.12-0.06 0-0.86 0-1.75z"/>
	<path class="s8" d="m17.25 14q0.25 0 0.5 0 0.07 0 0.14-0.01 0.18 0 0.36 0.01 0.03 0.03 0.06 0.06 0.25 0.04 0.51 0.07 0.07 0.01 0.14 0.02 0.18 0.02 0.35 0.04 0 0.03 0 0.06-0.37-0.01-0.75-0.03-0.11 0-0.22 0-0.52-0.02-1.03-0.1-0.03-0.06-0.06-0.12z"/>
	<path class="s22" d="m11.94 16.75q0.38 0.04 0.76 0.13 0.47 0.09 0.95 0.1c0.16 0.02 0.16 0.02 0.23 0.08q0.17 0.02 0.34 0.04c0.1 0.01 0.1 0.01 0.19 0.01 0.08 0.01 0.08 0.01 0.15 0.01q0 0.04 0 0.07-0.18 0-0.36 0-0.1 0-0.21 0c-0.18 0-0.18 0-0.36-0.07q-0.31-0.02-0.61-0.03c-0.33-0.02-0.33-0.02-0.39-0.09q-0.15-0.02-0.29-0.04-0.08 0-0.16-0.01-0.06-0.01-0.12-0.01 0-0.06 0-0.13-0.06-0.03-0.12-0.06z"/>
	<path class="s23" d="m14.69 12.94q0.03 0 0.06 0 0 0.55 0 1.12c-0.59 0.03-0.59 0.03-1.19 0.07 0.07-0.13 0.07-0.13 0.25-0.19q0.44-0.01 0.88 0 0-0.5 0-1z"/>
	<path class="s24" d="m26.25 13.5c0.19 0.13 0.23 0.18 0.32 0.38 0.08 0.19 0.08 0.19 0.24 0.31q0.03 0.24 0.07 0.5-0.1-0.03-0.19-0.07-0.08-0.15-0.14-0.31-0.08-0.18-0.19-0.35c-0.11-0.21-0.11-0.21-0.11-0.46z"/>
	<path class="s25" d="m13.5 14.13q0 0.03 0 0.06-0.35 0.06-0.7 0.13-0.1 0.01-0.2 0.03c-0.1 0.02-0.1 0.02-0.2 0.04q-0.09 0.02-0.18 0.03c-0.15 0.02-0.26 0-0.41-0.05 0.53-0.3 1.1-0.25 1.69-0.25z"/>
	<path class="s26" d="m19.38 14.25c0.39 0.01 0.75 0.09 1.12 0.21q0.07 0.03 0.13 0.05c0.3 0.1 0.3 0.1 0.37 0.24-0.35-0.03-0.6-0.1-0.92-0.25q-0.34-0.13-0.7-0.19 0-0.03 0-0.06z"/>
	<path class="s27" d="m11.25 17.56q0.27 0.05 0.54 0.09 0.07 0.01 0.15 0.02 0.44 0.07 0.87 0.21 0 0.03 0 0.06c-0.44 0.02-0.78-0.03-1.19-0.19q-0.1-0.04-0.22-0.07-0.07-0.03-0.15-0.05 0-0.04 0-0.07z"/>
	<path class="s12" d="m13.19 15.13q0 0.03 0 0.06-0.8 0.12-1.63 0.25c0.07-0.13 0.07-0.13 0.25-0.19 0.45-0.12 0.91-0.13 1.38-0.13z"/>
	<path class="s28" d="m15.31 26.06q0.1 0.05 0.19 0.1c0.34 0.14 0.65 0.11 1 0.03-0.09 0.12-0.09 0.12-0.25 0.25-0.4 0.05-0.61-0.03-0.94-0.25q0-0.06 0-0.13z"/>
	<path class="s29" d="m12.38 15.38c-0.09 0.01-0.09 0.01-0.18 0.03q-0.11 0.03-0.22 0.05-0.11 0.02-0.23 0.05c-0.19 0.04-0.19 0.04-0.31 0.18q-0.25 0.04-0.5 0.06 0-0.06 0-0.13c1.04-0.37 1.04-0.37 1.43-0.25z"/>
	<path class="s30" d="m20.31 17.69c-0.44 0.11-0.85 0.21-1.31 0.18q0.12-0.03 0.25-0.06 0-0.06 0-0.12 0.2-0.02 0.39-0.04 0.11-0.01 0.22-0.02c0.17 0 0.29 0 0.45 0.06z"/>
	<path class="s30" d="m20.88 21.88q0.06 0.03 0.12 0.06-0.17 0.17-0.33 0.34c-0.05 0.05-0.05 0.05-0.1 0.1q-0.12 0.13-0.26 0.25-0.09 0-0.18 0 0-0.07 0-0.13 0.06 0 0.12 0 0-0.06 0-0.12 0.07-0.04 0.14-0.08 0.27-0.18 0.49-0.42z"/>
	<path class="s31" d="m20.5 16.63q0 0.06 0 0.12c-0.33 0.11-0.59 0.14-0.94 0.13 0.14-0.15 0.21-0.16 0.4-0.2q0.07-0.02 0.15-0.03c0.14-0.02 0.14-0.02 0.39-0.02z"/>
	<path class="s32" d="m8.56 9.06q0.03 0.06 0.06 0.13-0.08 0.22-0.18 0.43-0.06 0-0.13 0-0.02 0.06-0.05 0.12c-0.07 0.13-0.07 0.13-0.26 0.26q0.16-0.33 0.37-0.63 0.1-0.15 0.19-0.31z"/>
	<path class="s33" d="m11.13 15.44q0.18 0 0.37 0c-0.15 0.13-0.22 0.18-0.42 0.2-0.07-0.01-0.07-0.01-0.14-0.01q0 0.06 0 0.12-0.19 0.06-0.38 0.13c0.14-0.16 0.14-0.16 0.31-0.32q0.13 0 0.25 0 0-0.06 0-0.12z"/>
	<path class="s34" d="m27.13 15q0.09 0.03 0.18 0.06 0 0.31 0 0.63-0.06 0-0.12 0-0.03-0.34-0.06-0.69z"/>
	<path class="s35" d="m23.38 8.63q0.06-0.01 0.12-0.01c0.25 0.4 0.25 0.4 0.23 0.59q-0.02 0.05-0.04 0.1c-0.21-0.22-0.29-0.38-0.31-0.69z"/>
	<path class="s36" d="m5.69 13.69q0.03 0.06 0.06 0.12-0.09 0.22-0.19 0.44-0.06 0-0.12 0-0.06 0.12-0.13 0.25c0-0.23 0.07-0.31 0.19-0.5q0.05-0.09 0.11-0.18 0.04-0.06 0.08-0.13z"/>
	<path class="s37" d="m20.44 14.44c0.31 0.03 0.54 0.09 0.81 0.25q0.03 0.06 0.06 0.12-0.44-0.14-0.87-0.31 0-0.03 0-0.06z"/>
	<path class="s8" d="m21 17.44c-0.24 0.17-0.4 0.21-0.69 0.18 0.21-0.17 0.43-0.31 0.69-0.18z"/>
	<path class="s38" d="m11.94 16.75c0.3 0.03 0.47 0.05 0.75 0.19q-0.31 0-0.63 0 0-0.06 0-0.13-0.06-0.03-0.12-0.06z"/>
	<path class="s39" d="m9.25 8.19q0.06 0.03 0.13 0.06c-0.15 0.2-0.27 0.34-0.51 0.44 0.1-0.21 0.21-0.35 0.38-0.5z"/>
	<path class="s40" d="m10.69 17.25c0.21 0.08 0.38 0.17 0.56 0.31q-0.15 0-0.31 0 0-0.06 0-0.12-0.13 0-0.25 0 0-0.09 0-0.19z"/>
	<path class="s41" d="m25.63 12.44c0.2 0.14 0.3 0.2 0.36 0.45q0 0.09 0.01 0.17-0.06-0.03-0.12-0.06 0-0.12 0-0.25-0.13-0.03-0.25-0.06 0-0.13 0-0.25z"/>
	<path class="s8" d="m24.75 10.94c0.21 0.14 0.3 0.2 0.36 0.45q0.01 0.09 0.02 0.17-0.07-0.03-0.13-0.06 0-0.12 0-0.25-0.12-0.03-0.25-0.06 0-0.13 0-0.25z"/>
	<path class="s42" d="m21.06 14.75q0.22 0.06 0.44 0.13 0.03 0.06 0.06 0.12-0.21-0.03-0.43-0.06-0.04-0.09-0.07-0.19z"/>
</svg>