<svg id="svg" version="1.1" xmlns="http://www.w3.org/2000/svg" xmlns:xlink="http://www.w3.org/1999/xlink" width="400" height="400" viewBox="0, 0, 400,400"><g id="svgg"><path id="path0" d="M111.753 104.492 L 111.714 108.203 126.560 108.203 L 141.406 108.203 141.406 111.719 L 141.406 115.234 145.508 115.234 L 149.609 115.234 149.609 118.945 L 149.609 122.656 153.223 122.657 L 156.836 122.658 156.711 118.944 L 156.587 115.231 199.875 115.330 L 243.164 115.430 243.164 119.043 L 243.164 122.657 246.777 122.657 L 250.391 122.656 250.391 118.922 L 250.391 115.187 253.950 115.266 L 257.509 115.344 257.563 111.871 L 257.617 108.398 274.512 108.297 L 291.406 108.195 291.406 104.488 L 291.406 100.781 274.428 100.781 L 257.450 100.781 257.338 104.590 L 257.227 108.398 254.688 108.445 C 253.291 108.471,251.665 108.515,251.074 108.543 L 250.000 108.594 250.000 111.914 L 250.000 115.234 246.680 115.234 L 243.359 115.234 243.359 111.816 L 243.359 108.398 200.098 108.481 L 156.836 108.563 156.723 111.899 L 156.610 115.234 153.110 115.234 L 149.609 115.234 149.610 111.816 L 149.611 108.398 145.704 108.522 L 141.797 108.646 141.797 104.713 L 141.797 100.781 126.794 100.781 L 111.792 100.781 111.753 104.492 M97.559 108.522 L 96.484 108.646 96.484 111.940 L 96.484 115.234 92.788 115.234 L 89.092 115.234 88.980 118.848 L 88.867 122.461 85.449 122.574 L 82.031 122.687 82.031 142.593 L 82.031 162.500 85.547 162.500 L 89.063 162.500 89.063 166.379 L 89.063 170.257 92.612 170.382 C 96.900 170.534,96.484 170.967,96.484 166.341 L 96.484 162.500 92.773 162.500 L 89.063 162.500 89.063 142.578 L 89.063 122.656 92.773 122.656 L 96.484 122.656 96.484 118.945 L 96.484 115.234 104.297 115.234 L 112.109 115.234 112.109 111.914 C 112.109 110.088,111.978 108.593,111.816 108.591 C 111.655 108.590,108.623 108.546,105.078 108.493 C 101.533 108.441,98.149 108.454,97.559 108.522 M297.363 108.506 L 291.406 108.614 291.406 111.924 L 291.406 115.234 297.461 115.234 L 303.516 115.234 303.516 118.945 L 303.516 122.656 307.422 122.656 L 311.328 122.656 311.328 142.578 L 311.328 162.500 307.422 162.500 L 303.516 162.500 303.516 166.392 L 303.516 170.284 299.707 170.396 L 295.898 170.508 295.935 177.148 L 295.972 183.789 299.744 183.901 L 303.516 184.013 303.576 188.784 C 303.706 198.929,303.705 212.446,303.574 214.396 L 303.438 216.438 296.055 216.325 L 288.671 216.211 288.671 220.020 L 288.672 223.828 296.191 223.827 L 303.711 223.826 303.588 227.929 L 303.465 232.031 299.682 232.030 L 295.898 232.029 296.024 235.546 L 296.149 239.063 288.504 239.063 L 280.859 239.063 280.859 242.969 L 280.859 246.875 284.766 246.875 L 288.672 246.875 288.672 250.781 L 288.672 254.688 284.766 254.688 L 280.859 254.688 280.859 258.594 L 280.859 262.500 276.758 262.500 L 272.656 262.500 272.656 266.227 L 272.656 269.954 265.039 269.840 L 257.421 269.727 257.421 273.730 L 257.422 277.734 250.488 277.735 L 243.555 277.736 243.555 281.739 L 243.555 285.742 250.475 285.849 L 257.394 285.955 257.506 281.943 L 257.617 277.930 265.137 277.824 L 272.656 277.718 272.656 273.820 L 272.656 269.922 276.953 269.922 L 281.250 269.922 281.250 265.983 L 281.250 262.044 284.863 262.160 L 288.477 262.275 288.588 258.481 L 288.700 254.688 292.397 254.688 L 296.094 254.688 296.094 250.781 L 296.094 246.875 299.902 246.875 L 303.711 246.876 303.597 239.454 L 303.483 232.031 307.575 232.031 L 311.668 232.031 311.596 227.930 L 311.523 223.828 318.652 223.828 L 325.781 223.828 325.781 220.117 L 325.781 216.406 318.596 216.406 L 311.411 216.406 311.397 214.355 C 311.390 213.228,311.371 205.933,311.356 198.145 L 311.328 183.984 307.422 183.984 L 303.516 183.984 303.516 177.126 L 303.516 170.268 307.520 170.342 L 311.523 170.415 311.438 166.458 L 311.353 162.500 315.247 162.500 L 319.141 162.500 319.141 142.578 L 319.141 122.656 315.466 122.656 L 311.792 122.656 311.513 118.945 L 311.235 115.234 307.390 115.234 L 303.545 115.234 303.433 111.816 L 303.320 108.398 297.363 108.506 M135.547 133.301 L 135.547 137.109 139.272 137.109 L 142.997 137.109 142.885 133.366 L 142.773 129.622 139.160 129.557 L 135.547 129.492 135.547 133.301 M257.421 133.301 L 257.422 137.109 261.328 137.109 L 265.234 137.109 265.234 141.211 L 265.234 145.313 268.904 145.313 C 273.224 145.313,273.047 145.510,273.047 140.684 L 273.047 137.291 269.238 137.298 L 265.430 137.305 265.318 133.522 L 265.207 129.739 261.313 129.615 L 257.420 129.492 257.421 133.301 M127.734 141.197 L 127.734 145.313 123.828 145.313 L 119.922 145.313 119.922 149.609 L 119.922 153.906 123.828 153.906 L 127.734 153.906 127.734 149.609 L 127.734 145.313 131.654 145.313 L 135.574 145.313 135.463 141.309 L 135.352 137.305 131.543 137.193 L 127.734 137.081 127.734 141.197 M272.656 149.609 L 272.656 153.906 276.563 153.906 L 280.469 153.906 280.469 149.609 L 280.469 145.313 276.563 145.313 L 272.656 145.313 272.656 149.609 M112.890 158.301 L 112.891 162.500 116.419 162.500 L 119.948 162.500 119.837 158.365 L 119.727 154.229 116.308 154.165 L 112.890 154.102 112.890 158.301 M284.082 154.197 L 280.469 154.326 280.469 158.413 L 280.469 162.500 284.180 162.500 L 287.891 162.500 287.891 158.203 C 287.891 155.840,287.847 153.943,287.793 153.987 C 287.739 154.032,286.069 154.126,284.082 154.197 M96.573 177.037 L 96.680 183.789 100.314 183.789 L 103.947 183.789 103.948 177.148 L 103.949 170.508 100.207 170.396 L 96.466 170.284 96.573 177.037 M141.797 180.268 L 141.797 183.984 138.281 183.984 L 134.766 183.984 134.766 200.195 L 134.766 216.406 138.281 216.406 L 141.797 216.406 141.797 220.313 L 141.797 224.219 149.219 224.219 L 156.641 224.219 156.641 220.313 L 156.641 216.406 160.786 216.406 L 164.932 216.406 164.781 212.305 L 164.629 208.203 168.642 208.203 L 172.656 208.203 172.656 196.094 L 172.656 183.984 168.652 183.985 L 164.648 183.986 164.648 180.372 L 164.648 176.758 153.223 176.654 L 141.797 176.551 141.797 180.268 M235.547 180.267 L 235.547 183.984 231.641 183.984 L 227.734 183.984 227.734 196.094 L 227.734 208.203 231.675 208.203 L 235.616 208.203 235.484 212.207 L 235.352 216.211 239.283 216.321 L 243.215 216.432 243.190 220.228 L 243.164 224.023 250.391 224.023 L 257.617 224.023 257.545 220.215 L 257.473 216.406 261.745 216.406 L 266.016 216.406 266.016 200.195 L 266.016 183.984 261.695 183.984 L 257.375 183.984 257.454 180.371 L 257.534 176.758 246.540 176.654 L 235.547 176.550 235.547 180.267 M257.422 191.429 L 257.422 198.828 252.637 198.828 L 247.852 198.828 247.916 191.309 C 247.952 187.173,247.996 183.789,248.013 183.789 C 248.031 183.789,250.155 183.843,252.734 183.910 L 257.422 184.030 257.422 191.429 M88.956 200.195 L 89.046 216.406 81.632 216.406 L 74.219 216.406 74.219 220.117 L 74.219 223.828 81.641 223.828 L 89.063 223.828 89.063 227.930 L 89.063 232.031 92.773 232.031 L 96.484 232.031 96.484 239.453 L 96.484 246.875 100.400 246.875 L 104.316 246.875 104.094 250.781 L 103.871 254.688 107.795 254.688 L 111.719 254.688 111.719 258.385 L 111.719 262.082 115.723 262.193 L 119.727 262.305 119.838 266.113 L 119.950 269.922 123.842 269.922 L 127.734 269.922 127.734 273.828 L 127.734 277.734 134.961 277.734 L 142.188 277.734 142.188 281.827 L 142.188 285.920 149.316 286.026 L 156.445 286.133 156.557 289.941 L 156.669 293.750 200.014 293.750 L 243.359 293.750 243.359 289.844 L 243.359 285.938 200.000 285.938 C 176.152 285.938,156.661 285.806,156.687 285.645 C 156.712 285.483,156.712 283.638,156.687 281.543 L 156.641 277.734 149.414 277.734 L 142.188 277.734 142.188 273.828 L 142.188 269.922 134.961 269.922 L 127.734 269.922 127.734 266.113 L 127.733 262.305 123.829 262.305 L 119.924 262.305 119.923 258.496 L 119.922 254.688 116.042 254.688 L 112.161 254.688 112.038 250.780 L 111.914 246.873 115.918 246.874 L 119.922 246.875 119.922 242.969 L 119.922 239.063 111.914 239.063 L 103.906 239.063 103.906 235.547 L 103.906 232.031 100.195 232.031 L 96.484 232.031 96.484 227.832 L 96.484 223.633 104.199 223.633 L 111.914 223.633 111.914 219.998 L 111.914 216.363 104.183 216.287 L 96.451 216.211 96.476 200.098 L 96.501 183.984 92.684 183.984 L 88.867 183.984 88.956 200.195 M157.031 191.406 L 157.031 198.828 152.734 198.828 L 148.438 198.828 148.438 191.406 L 148.438 183.984 152.734 183.984 L 157.031 183.984 157.031 191.406 M179.688 231.641 L 179.688 239.063 183.398 239.063 L 187.109 239.063 187.109 242.969 L 187.109 246.875 191.190 246.875 L 195.272 246.875 195.194 254.590 L 195.117 262.305 180.755 262.390 C 163.255 262.494,164.379 262.776,164.487 258.311 L 164.569 254.903 160.800 254.762 L 157.031 254.621 157.031 258.365 L 157.031 262.109 160.974 262.109 L 164.917 262.109 164.783 266.016 L 164.648 269.923 180.078 269.923 L 195.508 269.924 195.384 266.016 L 195.261 262.109 200.169 262.109 L 205.078 262.109 205.078 254.492 L 205.078 246.875 209.375 246.875 L 213.672 246.875 213.672 242.969 L 213.672 239.063 217.578 239.063 L 221.484 239.063 221.484 231.641 L 221.484 224.219 217.578 224.219 L 213.672 224.219 213.672 231.641 L 213.672 239.063 200.391 239.063 L 187.109 239.063 187.109 231.641 L 187.109 224.219 183.398 224.219 L 179.688 224.219 179.688 231.641 M235.547 258.369 L 235.547 262.109 239.405 262.109 L 243.264 262.109 243.214 258.496 L 243.164 254.883 239.355 254.755 L 235.547 254.628 235.547 258.369 M205.635 262.377 C 205.388 262.565,205.223 264.174,205.233 266.309 L 205.250 269.922 220.383 269.922 L 235.517 269.922 235.477 266.211 L 235.437 262.500 225.397 262.500 C 219.875 262.500,213.264 262.401,210.706 262.279 C 208.148 262.157,205.866 262.201,205.635 262.377 " stroke="none" fill="#3a3735" fill-rule="evenodd"></path><path id="path1" d="M292.184 100.582 C 292.449 100.902,292.825 101.065,293.019 100.945 C 293.518 100.637,293.041 100.000,292.312 100.000 C 291.815 100.000,291.791 100.109,292.184 100.582 M157.813 107.714 C 157.813 108.110,157.996 108.133,158.594 107.813 C 159.023 107.583,159.375 107.324,159.375 107.237 C 159.375 107.151,159.023 107.106,158.594 107.139 C 158.164 107.171,157.813 107.430,157.813 107.714 M112.109 112.027 L 112.109 115.656 104.296 115.543 L 96.484 115.430 96.484 119.043 L 96.484 122.656 92.773 122.656 L 89.063 122.656 89.063 142.578 L 89.063 162.500 92.773 162.500 L 96.484 162.500 96.484 166.406 L 96.484 170.313 100.391 170.313 L 104.297 170.313 104.297 177.148 L 104.297 183.984 100.391 183.984 L 96.484 183.984 96.484 200.000 L 96.484 216.016 104.297 216.016 L 112.109 216.016 112.109 219.922 L 112.109 223.828 104.297 223.828 L 96.484 223.828 96.484 227.930 L 96.484 232.031 100.418 232.031 L 104.352 232.031 104.227 235.548 L 104.102 239.064 112.012 239.063 L 119.922 239.063 119.922 242.969 L 119.922 246.875 116.016 246.875 L 112.109 246.875 112.109 250.781 L 112.109 254.688 116.016 254.688 L 119.922 254.688 119.922 258.398 L 119.922 262.109 123.828 262.109 L 127.734 262.109 127.734 265.820 L 127.734 269.531 134.961 269.531 L 142.188 269.531 142.188 273.633 L 142.188 277.734 149.609 277.734 L 157.031 277.734 157.031 281.836 L 157.031 285.938 200.195 285.938 L 243.359 285.938 243.359 281.836 L 243.359 277.734 250.391 277.734 L 257.422 277.734 257.422 273.610 L 257.422 269.485 265.040 269.606 L 272.657 269.727 272.657 265.918 L 272.656 262.109 276.758 262.109 L 280.859 262.109 280.859 258.398 L 280.859 254.688 284.570 254.688 L 288.281 254.688 288.281 250.781 L 288.281 246.875 284.570 246.875 L 280.859 246.875 280.859 242.969 L 280.859 239.063 288.281 239.063 L 295.703 239.063 295.703 235.547 L 295.703 232.031 299.609 232.031 L 303.516 232.031 303.516 227.930 L 303.516 223.828 295.898 223.828 L 288.281 223.828 288.281 219.922 L 288.281 216.016 295.898 216.016 L 303.516 216.016 303.516 200.000 L 303.516 183.984 299.609 183.984 L 295.703 183.984 295.703 177.148 L 295.703 170.313 299.609 170.313 L 303.516 170.313 303.516 166.406 L 303.516 162.500 307.422 162.500 L 311.328 162.500 311.328 142.552 L 311.328 122.604 307.421 122.728 L 303.514 122.852 303.515 119.238 L 303.516 115.625 297.461 115.625 L 291.406 115.625 291.406 112.109 L 291.406 108.594 274.609 108.594 L 257.813 108.594 257.813 112.133 L 257.813 115.672 254.265 115.594 L 250.718 115.516 250.652 122.423 L 250.586 129.329 238.345 129.411 L 226.105 129.492 226.041 133.301 L 225.978 137.109 223.145 137.109 L 220.313 137.109 220.313 141.211 L 220.313 145.313 200.586 145.313 L 180.859 145.313 180.859 141.211 L 180.859 137.109 177.539 137.109 L 174.219 137.109 174.219 133.192 L 174.219 129.275 161.914 129.384 L 149.609 129.492 149.609 126.465 L 149.609 123.438 153.203 123.438 C 155.776 123.438,156.677 123.318,156.375 123.016 C 156.119 122.760,154.705 122.645,152.780 122.723 L 149.608 122.852 149.608 119.238 L 149.609 115.625 145.508 115.625 L 141.406 115.625 141.406 112.119 L 141.406 108.612 126.758 108.505 L 112.109 108.398 112.109 112.027 M248.977 112.575 C 248.819 112.830,248.898 113.109,249.152 113.194 C 249.406 113.279,249.498 113.536,249.356 113.766 C 249.200 114.018,249.283 114.069,249.568 113.893 C 249.898 113.689,249.917 113.456,249.632 113.113 C 249.408 112.844,249.341 112.508,249.483 112.366 C 249.624 112.225,249.633 112.109,249.502 112.109 C 249.372 112.109,249.135 112.319,248.977 112.575 M87.797 116.199 C 87.696 116.730,87.742 117.084,87.900 116.986 C 88.320 116.727,88.652 115.234,88.290 115.234 C 88.121 115.234,87.899 115.669,87.797 116.199 M157.112 119.434 L 157.193 123.242 157.322 119.629 L 157.451 116.016 199.999 116.016 L 242.548 116.016 242.678 119.434 L 242.808 122.852 242.888 119.238 L 242.969 115.625 200.000 115.625 L 157.031 115.625 157.112 119.434 M243.555 123.047 C 243.401 123.296,244.527 123.438,246.657 123.438 C 248.625 123.438,250.000 123.277,250.000 123.047 C 250.000 122.819,248.706 122.656,246.898 122.656 C 245.192 122.656,243.687 122.832,243.555 123.047 M142.969 133.203 L 142.969 137.109 139.258 137.109 L 135.547 137.109 135.547 141.211 L 135.547 145.313 131.641 145.313 L 127.734 145.313 127.734 149.805 L 127.734 154.297 123.828 154.297 L 119.922 154.297 119.922 158.398 L 119.922 162.500 112.305 162.500 L 104.688 162.500 104.688 149.805 L 104.688 137.109 108.789 137.109 L 112.891 137.109 112.891 133.203 L 112.891 129.297 127.930 129.297 L 142.969 129.297 142.969 133.203 M287.500 133.203 L 287.500 137.109 291.211 137.109 L 294.922 137.109 294.922 149.805 L 294.922 162.500 287.695 162.500 L 280.469 162.500 280.469 158.398 L 280.469 154.297 276.563 154.297 L 272.656 154.297 272.656 149.805 L 272.656 145.313 268.945 145.313 L 265.234 145.313 265.234 141.211 L 265.234 137.109 261.328 137.109 L 257.422 137.109 257.422 133.203 L 257.422 129.297 272.461 129.297 L 287.500 129.297 287.500 133.203 M243.652 172.936 C 243.062 173.026,242.095 173.026,241.504 172.936 C 240.913 172.847,241.396 172.773,242.578 172.773 C 243.760 172.773,244.243 172.847,243.652 172.936 M164.844 180.273 L 164.844 183.984 168.750 183.984 L 172.656 183.984 172.656 196.094 L 172.656 208.203 168.750 208.203 L 164.844 208.203 164.844 212.305 L 164.844 216.406 160.938 216.406 L 157.031 216.406 157.031 220.314 L 157.031 224.222 145.898 224.200 L 134.766 224.177 134.766 204.081 L 134.766 183.984 138.281 183.984 L 141.797 183.984 141.797 180.273 L 141.797 176.563 153.320 176.563 L 164.844 176.563 164.844 180.273 M257.813 180.260 L 257.813 183.958 261.924 184.069 L 266.035 184.180 266.035 200.195 L 266.035 216.211 261.924 216.322 L 257.813 216.433 257.813 220.326 L 257.813 224.219 250.391 224.219 L 242.969 224.219 242.969 220.313 L 242.969 216.406 239.037 216.406 L 235.106 216.406 235.229 212.304 L 235.352 208.201 231.445 208.202 L 227.539 208.203 227.539 196.093 L 227.539 183.984 231.543 183.984 L 235.547 183.984 235.547 180.273 L 235.547 176.563 246.680 176.563 L 257.813 176.563 257.813 180.260 M148.747 191.406 L 148.861 198.828 152.848 198.828 L 156.836 198.828 156.836 191.406 L 156.836 183.984 152.734 183.984 L 148.633 183.984 148.747 191.406 M226.953 196.094 L 226.953 208.203 200.000 208.203 L 173.047 208.203 173.047 196.094 L 173.047 183.984 200.000 183.984 L 226.953 183.984 226.953 196.094 M248.047 191.406 L 248.047 198.828 252.734 198.828 L 257.422 198.828 257.422 191.406 L 257.422 183.984 252.734 183.984 L 248.047 183.984 248.047 191.406 M274.609 203.053 L 274.609 216.211 270.703 216.230 L 266.797 216.249 266.796 202.949 L 266.795 189.648 270.702 189.772 L 274.609 189.896 274.609 203.053 M133.984 203.125 L 133.984 216.406 132.481 216.406 C 131.654 216.406,129.632 216.293,127.989 216.154 L 125.000 215.901 125.000 212.573 C 125.000 208.470,125.290 208.488,125.443 212.600 L 125.556 215.625 127.329 215.580 C 128.304 215.555,128.794 215.454,128.418 215.356 C 127.606 215.143,127.499 214.453,128.279 214.453 C 128.578 214.453,128.924 214.189,129.048 213.867 C 129.171 213.545,129.552 213.281,129.894 213.281 C 130.235 213.281,130.419 213.125,130.301 212.935 C 130.035 212.505,131.030 211.629,131.384 211.983 C 131.525 212.124,131.641 211.953,131.641 211.602 C 131.641 211.252,132.006 210.770,132.452 210.531 C 132.906 210.288,133.172 209.857,133.055 209.553 C 132.940 209.254,133.059 208.872,133.318 208.704 C 133.588 208.529,132.787 208.301,131.445 208.171 L 129.102 207.944 131.348 207.878 L 133.594 207.813 133.594 199.042 L 133.594 190.272 131.152 190.133 L 128.711 189.994 131.348 189.919 L 133.984 189.844 133.984 203.125 M267.188 198.985 L 267.188 207.735 270.485 207.695 L 273.782 207.654 273.903 203.436 L 274.023 199.217 270.898 199.146 L 267.773 199.075 270.898 198.854 C 273.556 198.666,274.016 198.531,273.975 197.949 C 273.948 197.573,273.904 195.684,273.877 193.750 L 273.828 190.234 270.508 190.234 L 267.188 190.234 267.188 198.985 M267.218 209.668 C 267.235 210.474,267.335 210.923,267.439 210.666 C 267.543 210.410,267.925 210.295,268.287 210.410 C 268.838 210.586,268.851 210.554,268.371 210.214 C 267.692 209.735,267.927 209.413,269.124 209.183 C 269.809 209.051,269.940 209.154,269.742 209.672 C 269.603 210.032,269.615 210.203,269.768 210.050 C 269.920 209.897,270.281 209.968,270.570 210.207 C 270.955 210.527,271.094 210.527,271.094 210.204 C 271.094 209.963,270.918 209.766,270.703 209.766 C 270.488 209.766,270.313 209.584,270.313 209.361 C 270.313 209.087,270.564 209.092,271.094 209.375 C 271.735 209.718,271.875 209.672,271.875 209.119 C 271.875 208.515,271.940 208.524,272.493 209.203 C 273.102 209.950,273.107 209.950,272.860 209.180 C 272.694 208.662,272.741 208.530,272.998 208.789 C 273.211 209.004,273.455 209.883,273.541 210.742 C 273.681 212.141,273.704 212.090,273.762 210.254 L 273.828 208.203 270.508 208.203 L 267.188 208.203 267.218 209.668 M172.573 212.402 L 172.461 216.211 168.848 216.323 L 165.234 216.436 165.234 212.515 L 165.234 208.594 168.959 208.594 L 172.685 208.594 172.573 212.402 M234.766 212.500 L 234.766 216.406 231.315 216.406 C 227.130 216.406,227.514 216.834,227.664 212.339 L 227.788 208.594 231.277 208.594 L 234.766 208.594 234.766 212.500 M312.891 216.016 C 313.213 216.224,313.828 216.385,314.258 216.373 L 315.039 216.351 314.258 216.016 C 313.090 215.514,312.114 215.514,312.891 216.016 M318.569 215.965 C 318.890 216.285,321.902 216.288,322.100 215.968 C 322.208 215.793,321.419 215.682,320.347 215.722 C 319.275 215.762,318.475 215.871,318.569 215.965 M138.119 216.696 L 141.277 216.826 141.147 220.132 C 141.068 222.156,141.169 223.438,141.407 223.438 C 141.637 223.438,141.797 221.999,141.797 219.922 L 141.797 216.406 138.379 216.486 L 134.961 216.565 138.119 216.696 M164.844 220.508 L 164.844 224.219 161.133 224.219 L 157.422 224.219 157.422 220.508 L 157.422 216.797 161.133 216.797 L 164.844 216.797 164.844 220.508 M242.578 220.508 L 242.578 224.219 238.867 224.219 L 235.156 224.219 235.156 220.508 L 235.156 216.797 238.867 216.797 L 242.578 216.797 242.578 220.508 M266.016 220.508 L 266.016 224.219 262.109 224.219 L 258.203 224.219 258.203 220.508 L 258.203 216.797 262.109 216.797 L 266.016 216.797 266.016 220.508 M326.453 222.640 C 326.339 223.078,326.404 223.535,326.599 223.655 C 326.794 223.776,326.953 223.678,326.953 223.438 C 326.953 223.192,327.167 223.129,327.441 223.294 C 327.747 223.478,327.715 223.303,327.357 222.829 C 327.041 222.412,326.756 222.019,326.723 221.957 C 326.689 221.895,326.568 222.202,326.453 222.640 M72.042 223.854 C 72.042 224.564,72.098 224.586,72.497 224.041 C 72.901 223.488,72.974 223.506,73.158 224.210 C 73.271 224.644,73.601 224.986,73.889 224.969 C 74.287 224.946,74.295 224.890,73.923 224.740 C 73.653 224.632,73.544 224.362,73.680 224.142 C 73.934 223.732,73.176 223.064,72.447 223.053 C 72.224 223.050,72.042 223.410,72.042 223.854 M85.221 224.561 C 84.875 224.780,85.092 224.877,85.866 224.848 C 86.508 224.824,86.952 224.673,86.853 224.512 C 86.616 224.126,85.871 224.149,85.221 224.561 M221.484 231.792 L 221.484 239.366 217.676 239.312 L 213.867 239.258 213.867 246.778 L 213.867 254.297 209.863 254.297 L 205.859 254.297 205.859 250.795 L 205.859 247.294 209.668 247.166 L 213.477 247.039 209.487 246.957 L 205.497 246.875 205.385 250.515 C 205.324 252.517,205.329 255.945,205.397 258.132 L 205.521 262.109 220.534 262.109 L 235.547 262.109 235.547 258.398 L 235.547 254.688 239.453 254.688 L 243.359 254.688 243.359 258.398 L 243.359 262.109 239.453 262.109 L 235.547 262.109 235.547 266.016 L 235.547 269.922 220.313 269.922 L 205.078 269.922 205.078 266.016 L 205.078 262.109 200.391 262.109 L 195.703 262.109 195.703 266.016 L 195.703 269.922 180.078 269.922 L 164.453 269.922 164.453 266.016 L 164.453 262.109 160.633 262.109 L 156.812 262.109 156.822 258.398 L 156.831 254.688 160.837 254.688 L 164.844 254.688 164.844 258.398 L 164.844 262.109 179.883 262.109 L 194.922 262.109 194.922 254.492 L 194.922 246.875 191.309 246.955 L 187.695 247.036 191.113 247.166 L 194.531 247.296 194.531 250.796 L 194.531 254.297 190.797 254.297 L 187.064 254.297 187.111 250.684 C 187.138 248.696,187.148 245.294,187.134 243.122 L 187.109 239.174 183.301 239.216 L 179.492 239.258 179.492 231.738 L 179.491 224.219 200.488 224.219 L 221.484 224.219 221.484 231.792 M296.374 227.246 C 296.284 227.837,296.211 227.354,296.211 226.172 C 296.211 224.990,296.284 224.507,296.374 225.098 C 296.463 225.688,296.463 226.655,296.374 227.246 M303.046 227.441 L 302.968 230.664 302.834 227.588 L 302.700 224.512 300.336 224.780 C 298.707 224.964,298.051 224.918,298.228 224.633 C 298.368 224.405,299.528 224.219,300.804 224.219 L 303.125 224.219 303.046 227.441 M156.641 228.320 L 156.641 232.031 149.219 232.031 L 141.797 232.031 141.797 228.320 L 141.797 224.609 149.219 224.609 L 156.641 224.609 156.641 228.320 M257.813 228.320 L 257.813 232.031 250.391 232.031 L 242.969 232.031 242.969 228.320 L 242.969 224.609 250.391 224.609 L 257.813 224.609 257.813 228.320 M93.666 232.752 C 93.972 232.947,94.057 233.357,93.884 233.807 C 93.632 234.464,93.669 234.482,94.222 233.972 C 94.873 233.371,94.491 232.416,93.605 232.428 C 93.326 232.432,93.348 232.551,93.666 232.752 M275.586 270.703 C 275.817 271.077,275.243 271.275,274.414 271.107 C 274.199 271.064,274.165 271.170,274.337 271.342 C 274.974 271.979,276.797 271.739,276.852 271.010 C 276.886 270.556,276.632 270.313,276.125 270.313 C 275.696 270.313,275.453 270.488,275.586 270.703 M145.562 286.416 C 145.669 286.589,145.922 286.630,146.124 286.505 C 146.325 286.381,146.581 286.515,146.692 286.804 C 146.944 287.463,148.922 287.413,149.146 286.742 C 149.269 286.374,148.971 286.313,147.996 286.506 C 147.009 286.701,146.826 286.662,147.266 286.350 C 147.725 286.024,147.582 285.952,146.609 286.017 C 145.926 286.062,145.454 286.242,145.562 286.416 M152.409 286.280 C 151.985 286.548,151.997 286.652,152.474 286.835 C 152.796 286.959,153.157 286.807,153.276 286.499 C 153.517 285.869,153.188 285.786,152.409 286.280 M143.303 286.842 C 143.829 287.480,145.832 287.633,145.444 287.006 C 145.332 286.825,145.037 286.751,144.788 286.841 C 144.540 286.930,143.984 286.823,143.555 286.602 C 142.860 286.244,142.832 286.271,143.303 286.842 M218.066 294.019 C 218.442 294.118,219.058 294.118,219.434 294.019 C 219.810 293.921,219.502 293.841,218.750 293.841 C 217.998 293.841,217.690 293.921,218.066 294.019 M238.184 294.026 C 238.667 294.119,239.458 294.119,239.941 294.026 C 240.425 293.933,240.029 293.856,239.063 293.856 C 238.096 293.856,237.700 293.933,238.184 294.026 " stroke="none" fill="#f6eddb" fill-rule="evenodd"></path><path id="path2" d="M291.545 104.492 C 291.544 106.426,291.610 107.266,291.692 106.359 C 291.774 105.453,291.775 103.871,291.694 102.844 C 291.613 101.817,291.546 102.559,291.545 104.492 M111.055 104.688 C 111.055 105.869,111.128 106.353,111.217 105.762 C 111.307 105.171,111.307 104.204,111.217 103.613 C 111.128 103.022,111.055 103.506,111.055 104.688 M256.376 105.740 C 256.352 106.667,256.452 106.950,256.679 106.591 C 257.106 105.917,257.130 104.794,256.722 104.543 C 256.552 104.438,256.397 104.976,256.376 105.740 M109.772 106.475 C 109.782 107.111,110.444 107.913,110.836 107.762 C 111.044 107.683,110.889 107.279,110.490 106.865 C 110.092 106.452,109.768 106.276,109.772 106.475 M292.416 106.543 C 292.290 106.668,292.188 106.947,292.188 107.161 C 292.188 107.376,292.299 107.441,292.434 107.305 C 292.570 107.170,293.009 107.235,293.411 107.449 C 294.346 107.950,294.340 107.766,293.392 106.955 C 292.981 106.602,292.541 106.417,292.416 106.543 M217.676 107.691 C 218.052 107.789,218.667 107.789,219.043 107.691 C 219.419 107.593,219.111 107.513,218.359 107.513 C 217.607 107.513,217.300 107.593,217.676 107.691 M256.250 107.790 C 256.250 107.993,255.591 108.229,254.785 108.315 C 253.720 108.429,253.844 108.462,255.241 108.435 C 256.953 108.402,258.528 107.422,256.868 107.422 C 256.528 107.422,256.250 107.588,256.250 107.790 M102.637 108.493 C 104.194 108.567,106.743 108.567,108.301 108.493 C 109.858 108.419,108.584 108.358,105.469 108.358 C 102.354 108.358,101.079 108.419,102.637 108.493 M143.665 108.492 C 144.801 108.571,146.558 108.570,147.572 108.490 C 148.585 108.410,147.656 108.345,145.508 108.346 C 143.359 108.347,142.530 108.412,143.665 108.492 M158.487 108.485 C 159.181 108.571,160.411 108.573,161.222 108.488 C 162.032 108.404,161.465 108.333,159.961 108.331 C 158.457 108.330,157.794 108.399,158.487 108.485 M166.113 108.472 C 166.489 108.571,167.104 108.571,167.480 108.472 C 167.856 108.374,167.549 108.294,166.797 108.294 C 166.045 108.294,165.737 108.374,166.113 108.472 M169.438 108.479 C 169.924 108.573,170.627 108.569,171.001 108.472 C 171.374 108.374,170.977 108.297,170.117 108.302 C 169.258 108.306,168.952 108.386,169.438 108.479 M172.559 108.479 C 173.042 108.572,173.833 108.572,174.316 108.479 C 174.800 108.386,174.404 108.310,173.438 108.310 C 172.471 108.310,172.075 108.386,172.559 108.479 M180.777 108.493 C 182.128 108.569,184.238 108.569,185.465 108.491 C 186.691 108.414,185.586 108.351,183.008 108.352 C 180.430 108.353,179.426 108.416,180.777 108.493 M193.457 108.493 C 195.122 108.567,197.847 108.567,199.512 108.493 C 201.177 108.420,199.814 108.360,196.484 108.360 C 193.154 108.360,191.792 108.420,193.457 108.493 M205.371 108.492 C 206.714 108.569,208.911 108.569,210.254 108.492 C 211.597 108.416,210.498 108.354,207.813 108.354 C 205.127 108.354,204.028 108.416,205.371 108.492 M214.366 108.490 C 215.285 108.572,216.691 108.571,217.491 108.487 C 218.291 108.403,217.539 108.336,215.820 108.337 C 214.102 108.338,213.447 108.407,214.366 108.490 M223.350 108.490 C 224.269 108.572,225.675 108.571,226.475 108.487 C 227.275 108.403,226.523 108.336,224.805 108.337 C 223.086 108.338,222.431 108.407,223.350 108.490 M231.348 108.494 C 233.228 108.566,236.304 108.566,238.184 108.494 C 240.063 108.422,238.525 108.364,234.766 108.364 C 231.006 108.364,229.468 108.422,231.348 108.494 M243.488 110.742 C 243.489 112.246,243.560 112.813,243.644 112.003 C 243.729 111.193,243.728 109.962,243.641 109.269 C 243.555 108.575,243.486 109.238,243.488 110.742 M294.238 108.493 C 295.903 108.567,298.628 108.567,300.293 108.493 C 301.958 108.420,300.596 108.360,297.266 108.360 C 293.936 108.360,292.573 108.420,294.238 108.493 M156.356 110.938 C 156.356 111.904,156.433 112.300,156.526 111.816 C 156.619 111.333,156.619 110.542,156.526 110.059 C 156.433 109.575,156.356 109.971,156.356 110.938 M88.811 118.555 C 88.809 120.488,88.875 121.329,88.957 120.422 C 89.039 119.515,89.040 117.933,88.959 116.906 C 88.879 115.879,88.812 116.621,88.811 118.555 M142.487 115.517 C 143.190 115.604,144.244 115.603,144.831 115.513 C 145.418 115.424,144.844 115.353,143.555 115.355 C 142.266 115.358,141.785 115.431,142.487 115.517 M159.846 115.524 C 161.287 115.599,163.748 115.599,165.315 115.525 C 166.882 115.450,165.703 115.389,162.695 115.388 C 159.688 115.388,158.405 115.449,159.846 115.524 M169.244 115.515 C 169.837 115.604,170.716 115.602,171.197 115.509 C 171.677 115.417,171.191 115.343,170.117 115.346 C 169.043 115.349,168.650 115.425,169.244 115.515 M179.590 115.525 C 181.362 115.597,184.263 115.597,186.035 115.525 C 187.808 115.453,186.357 115.393,182.813 115.393 C 179.268 115.393,177.817 115.453,179.590 115.525 M196.582 115.527 C 200.610 115.590,207.202 115.590,211.230 115.527 C 215.259 115.463,211.963 115.411,203.906 115.411 C 195.850 115.411,192.554 115.463,196.582 115.527 M221.582 115.523 C 222.817 115.601,224.839 115.601,226.074 115.523 C 227.310 115.446,226.299 115.382,223.828 115.382 C 221.357 115.382,220.347 115.446,221.582 115.523 M234.100 115.525 C 235.775 115.598,238.411 115.598,239.959 115.524 C 241.507 115.450,240.137 115.390,236.914 115.391 C 233.691 115.391,232.425 115.452,234.100 115.525 M254.004 115.514 C 254.595 115.604,255.562 115.604,256.152 115.514 C 256.743 115.425,256.260 115.351,255.078 115.351 C 253.896 115.351,253.413 115.425,254.004 115.514 M311.445 117.188 C 311.445 118.369,311.518 118.853,311.608 118.262 C 311.697 117.671,311.697 116.704,311.608 116.113 C 311.518 115.522,311.445 116.006,311.445 117.188 M185.254 116.285 C 185.630 116.383,186.245 116.383,186.621 116.285 C 186.997 116.187,186.689 116.106,185.938 116.106 C 185.186 116.106,184.878 116.187,185.254 116.285 M250.508 117.969 C 250.508 119.150,250.581 119.634,250.670 119.043 C 250.760 118.452,250.760 117.485,250.670 116.895 C 250.581 116.304,250.508 116.787,250.508 117.969 M242.313 119.141 C 242.313 120.537,242.383 121.108,242.470 120.410 C 242.557 119.712,242.557 118.569,242.470 117.871 C 242.383 117.173,242.313 117.744,242.313 119.141 M312.216 120.703 C 312.216 121.670,312.292 122.065,312.385 121.582 C 312.478 121.099,312.478 120.308,312.385 119.824 C 312.292 119.341,312.216 119.736,312.216 120.703 M250.360 121.582 C 250.243 122.421,250.303 122.900,250.500 122.703 C 250.688 122.515,250.779 121.856,250.702 121.239 C 250.574 120.206,250.546 120.234,250.360 121.582 M81.738 122.459 C 81.470 122.764,81.276 123.593,81.309 124.300 L 81.367 125.586 81.538 124.414 C 81.761 122.894,82.240 122.349,83.525 122.152 C 84.534 121.998,84.529 121.991,83.398 121.948 C 82.754 121.924,82.007 122.154,81.738 122.459 M149.775 126.172 L 149.805 129.102 161.998 129.205 L 174.191 129.308 174.302 133.111 L 174.414 136.914 177.637 137.028 L 180.859 137.141 180.859 140.990 C 180.859 144.139,180.972 144.881,181.477 145.075 C 182.284 145.385,218.888 145.385,219.695 145.075 C 220.200 144.881,220.313 144.137,220.313 140.974 L 220.313 137.109 223.047 137.109 L 225.781 137.109 225.781 133.209 L 225.781 129.308 237.988 129.205 L 250.195 129.102 250.225 126.172 L 250.254 123.242 250.110 126.069 L 249.966 128.895 237.776 128.998 L 225.586 129.102 225.474 132.715 L 225.361 136.328 222.851 136.328 C 219.712 136.328,219.531 136.603,219.531 141.381 L 219.531 144.922 200.645 144.922 L 181.758 144.922 181.497 140.944 C 181.354 138.756,181.196 136.928,181.146 136.883 C 181.037 136.784,176.743 136.378,175.488 136.349 C 175.005 136.337,174.630 136.196,174.656 136.035 C 174.681 135.874,174.681 134.204,174.656 132.324 L 174.609 128.906 162.322 128.906 L 150.034 128.906 149.890 126.074 L 149.746 123.242 149.775 126.172 M118.262 129.589 C 121.323 129.655,126.333 129.655,129.395 129.589 C 132.456 129.523,129.951 129.469,123.828 129.469 C 117.705 129.469,115.200 129.523,118.262 129.589 M137.402 129.583 C 138.315 129.665,139.810 129.665,140.723 129.583 C 141.636 129.501,140.889 129.433,139.063 129.433 C 137.236 129.433,136.489 129.501,137.402 129.583 M259.473 129.584 C 260.493 129.664,262.163 129.664,263.184 129.584 C 264.204 129.504,263.369 129.438,261.328 129.438 C 259.287 129.438,258.452 129.504,259.473 129.584 M271.410 129.589 C 274.485 129.655,279.407 129.655,282.348 129.589 C 285.289 129.522,282.773 129.468,276.758 129.469 C 270.742 129.469,268.336 129.523,271.410 129.589 M113.281 133.766 C 113.281 137.065,113.209 137.448,112.631 137.226 C 112.194 137.058,112.074 137.126,112.264 137.434 C 112.472 137.770,111.564 137.891,108.812 137.891 L 105.078 137.891 105.078 149.831 L 105.078 161.772 108.740 161.648 C 111.853 161.542,112.375 161.611,112.219 162.109 C 112.056 162.630,112.084 162.630,112.469 162.109 C 112.724 161.765,112.879 160.050,112.846 157.955 C 112.773 153.427,112.702 153.516,116.429 153.516 L 119.531 153.516 119.537 149.707 C 119.545 144.671,119.421 144.803,123.975 144.990 L 127.734 145.144 127.734 140.931 L 127.734 136.719 131.348 136.672 C 133.335 136.647,135.093 136.647,135.254 136.672 C 135.415 136.698,135.547 135.235,135.547 133.421 L 135.547 130.123 124.414 130.090 L 113.281 130.057 113.281 133.766 M265.375 133.594 C 265.375 135.635,265.441 136.470,265.521 135.449 C 265.602 134.429,265.602 132.759,265.521 131.738 C 265.441 130.718,265.375 131.553,265.375 133.594 M266.097 133.301 L 266.211 136.523 269.317 136.639 C 273.400 136.791,273.438 136.833,273.438 141.244 L 273.438 144.891 276.855 145.004 L 280.273 145.117 280.384 149.512 L 280.494 153.906 279.212 153.965 C 277.963 154.022,277.959 154.028,279.051 154.191 C 279.668 154.283,280.363 154.168,280.594 153.937 C 281.084 153.447,287.357 153.358,287.652 153.837 C 287.761 154.013,287.881 156.035,287.917 158.329 C 287.956 160.769,288.144 162.500,288.370 162.500 C 288.582 162.500,288.671 162.280,288.567 162.012 C 288.424 161.640,289.114 161.554,291.455 161.651 L 294.531 161.778 294.531 149.849 L 294.531 137.920 290.918 137.808 L 287.305 137.695 287.193 133.887 L 287.081 130.078 276.533 130.078 L 265.984 130.078 266.097 133.301 M81.341 134.766 C 81.341 135.518,81.421 135.825,81.519 135.449 C 81.618 135.073,81.618 134.458,81.519 134.082 C 81.421 133.706,81.341 134.014,81.341 134.766 M291.316 137.392 C 292.018 137.479,293.072 137.478,293.659 137.388 C 294.246 137.299,293.672 137.228,292.383 137.230 C 291.094 137.233,290.613 137.306,291.316 137.392 M81.341 150.000 C 81.341 150.752,81.421 151.060,81.519 150.684 C 81.618 150.308,81.618 149.692,81.519 149.316 C 81.421 148.940,81.341 149.248,81.341 150.000 M121.582 154.191 C 122.388 154.275,123.706 154.275,124.512 154.191 C 125.317 154.107,124.658 154.038,123.047 154.038 C 121.436 154.038,120.776 154.107,121.582 154.191 M292.090 162.385 C 292.573 162.478,293.364 162.478,293.848 162.385 C 294.331 162.292,293.936 162.216,292.969 162.216 C 292.002 162.216,291.606 162.292,292.090 162.385 M88.669 167.086 L 88.477 171.868 90.362 171.785 C 91.399 171.740,92.337 171.559,92.445 171.384 C 92.553 171.208,92.019 171.107,91.257 171.158 C 90.495 171.210,89.775 171.155,89.658 171.038 C 89.540 170.920,90.457 170.808,91.695 170.787 C 92.932 170.767,93.726 170.843,93.457 170.955 C 92.578 171.322,92.944 171.714,94.238 171.792 C 94.937 171.835,95.771 171.698,96.094 171.488 C 96.560 171.184,96.480 171.103,95.703 171.094 C 94.928 171.084,94.848 171.004,95.313 170.703 C 95.716 170.443,94.836 170.323,92.494 170.318 L 89.090 170.313 88.975 166.309 L 88.861 162.305 88.669 167.086 M311.435 164.063 C 311.435 165.029,311.511 165.425,311.604 164.941 C 311.697 164.458,311.697 163.667,311.604 163.184 C 311.511 162.700,311.435 163.096,311.435 164.063 M87.956 167.969 C 87.914 168.721,87.771 169.775,87.637 170.313 C 87.451 171.059,87.504 171.187,87.861 170.855 C 88.146 170.591,88.270 169.674,88.180 168.512 C 88.067 167.062,88.013 166.931,87.956 167.969 M303.603 176.855 L 303.690 183.398 303.808 177.051 L 303.926 170.703 305.381 170.766 C 306.823 170.828,306.825 170.830,305.566 170.986 C 303.149 171.286,304.309 171.820,307.226 171.750 C 310.116 171.681,311.351 171.149,308.887 171.035 C 307.797 170.985,307.865 170.938,309.375 170.703 C 310.765 170.487,310.337 170.418,307.324 170.371 L 303.516 170.313 303.603 176.855 M104.059 178.125 C 104.059 181.025,104.121 182.212,104.196 180.762 C 104.271 179.312,104.271 176.938,104.196 175.488 C 104.121 174.038,104.059 175.225,104.059 178.125 M257.561 180.664 C 257.559 182.598,257.625 183.438,257.707 182.531 C 257.789 181.625,257.790 180.043,257.709 179.016 C 257.629 177.989,257.562 178.730,257.561 180.664 M90.918 183.882 C 92.046 183.961,93.892 183.961,95.020 183.882 C 96.147 183.803,95.225 183.738,92.969 183.738 C 90.713 183.738,89.790 183.803,90.918 183.882 M305.362 183.876 C 306.056 183.962,307.286 183.963,308.097 183.879 C 308.907 183.794,308.340 183.724,306.836 183.722 C 305.332 183.720,304.669 183.789,305.362 183.876 M310.833 183.911 C 311.186 184.136,311.343 186.693,311.426 193.573 L 311.538 202.930 311.629 193.262 C 311.712 184.278,311.670 183.594,311.035 183.600 C 310.556 183.604,310.495 183.697,310.833 183.911 M87.774 184.507 C 87.663 184.795,87.711 185.630,87.881 186.363 C 88.174 187.633,88.189 187.609,88.185 185.840 C 88.182 183.894,88.105 183.644,87.774 184.507 M173.047 184.352 C 173.047 184.638,179.757 184.766,194.792 184.766 C 206.751 184.766,216.463 184.697,216.374 184.614 C 215.952 184.221,173.047 183.962,173.047 184.352 M88.650 187.402 C 88.638 189.067,88.632 192.539,88.637 195.117 C 88.643 198.381,88.534 199.538,88.281 198.926 C 88.080 198.442,87.828 198.047,87.720 198.047 C 87.479 198.047,87.896 199.262,88.333 199.834 C 88.510 200.066,88.707 203.757,88.770 208.038 C 88.833 212.318,88.925 208.745,88.974 200.098 C 89.022 191.450,88.975 184.375,88.867 184.375 C 88.760 184.375,88.662 185.737,88.650 187.402 M148.600 191.406 C 148.600 195.381,148.658 197.007,148.729 195.020 C 148.799 193.032,148.799 189.780,148.729 187.793 C 148.658 185.806,148.600 187.432,148.600 191.406 M173.145 197.852 C 173.150 198.711,173.230 199.017,173.323 198.531 C 173.417 198.045,173.413 197.342,173.315 196.968 C 173.217 196.595,173.141 196.992,173.145 197.852 M311.462 209.180 C 311.463 210.898,311.532 211.553,311.615 210.634 C 311.697 209.715,311.696 208.309,311.612 207.509 C 311.528 206.709,311.461 207.461,311.462 209.180 M182.156 207.715 C 187.273 207.776,195.535 207.776,200.515 207.714 C 205.496 207.653,201.309 207.602,191.211 207.602 C 181.113 207.602,177.038 207.653,182.156 207.715 M165.234 208.890 C 165.234 209.052,166.069 209.132,167.090 209.066 C 170.058 208.875,170.314 208.688,167.676 208.639 C 166.333 208.614,165.234 208.727,165.234 208.890 M227.900 209.117 C 227.790 209.404,227.751 211.030,227.814 212.730 L 227.930 215.820 231.349 215.845 L 234.768 215.869 231.419 215.731 L 228.070 215.594 228.195 212.093 C 228.320 208.590,228.275 208.138,227.900 209.117 M235.268 210.352 C 235.271 211.426,235.347 211.819,235.437 211.225 C 235.526 210.631,235.524 209.752,235.431 209.272 C 235.339 208.792,235.265 209.277,235.268 210.352 M171.875 212.289 L 171.875 215.595 168.457 215.710 L 165.039 215.825 168.605 216.018 L 172.172 216.211 172.238 212.598 C 172.275 210.610,172.208 208.984,172.090 208.984 C 171.972 208.984,171.875 210.472,171.875 212.289 M234.481 213.672 C 234.481 214.639,234.558 215.034,234.651 214.551 C 234.744 214.067,234.744 213.276,234.651 212.793 C 234.558 212.310,234.481 212.705,234.481 213.672 M87.921 215.554 C 87.901 215.889,87.585 215.991,87.012 215.845 L 86.133 215.621 87.015 216.075 C 87.985 216.574,88.476 216.349,88.157 215.552 C 87.989 215.130,87.947 215.130,87.921 215.554 M73.950 219.922 C 73.995 222.569,73.873 224.224,73.633 224.231 C 73.418 224.237,73.555 224.425,73.938 224.648 C 74.321 224.870,74.936 224.973,75.305 224.876 C 75.823 224.740,75.786 224.690,75.144 224.655 C 74.194 224.603,73.666 216.406,74.614 216.406 C 74.851 216.406,74.937 216.230,74.805 216.016 C 74.127 214.919,73.884 216.029,73.950 219.922 M96.434 216.122 C 96.600 216.288,100.064 216.376,104.130 216.317 L 111.523 216.209 103.827 216.015 C 99.594 215.908,96.267 215.956,96.434 216.122 M325.521 216.573 C 325.767 217.095,326.030 217.459,326.106 217.384 C 326.348 217.141,325.741 215.625,325.401 215.625 C 325.221 215.625,325.275 216.052,325.521 216.573 M292.480 216.307 C 294.468 216.378,297.720 216.378,299.707 216.307 C 301.694 216.236,300.068 216.178,296.094 216.178 C 292.119 216.178,290.493 216.236,292.480 216.307 M137.207 217.066 C 137.583 217.164,138.198 217.164,138.574 217.066 C 138.950 216.968,138.643 216.888,137.891 216.888 C 137.139 216.888,136.831 216.968,137.207 217.066 M156.779 220.117 C 156.778 222.051,156.844 222.891,156.926 221.984 C 157.008 221.078,157.009 219.496,156.928 218.469 C 156.847 217.442,156.780 218.184,156.779 220.117 M157.502 220.230 L 157.422 223.859 160.840 223.746 L 164.258 223.633 164.282 220.214 L 164.306 216.795 164.169 220.116 L 164.032 223.438 160.938 223.438 L 157.843 223.438 157.713 220.020 L 157.583 216.602 157.502 220.230 M160.456 217.080 C 161.158 217.167,162.213 217.165,162.800 217.076 C 163.387 216.987,162.813 216.916,161.523 216.918 C 160.234 216.920,159.754 216.993,160.456 217.080 M235.545 220.168 L 235.352 223.734 238.965 223.801 L 242.578 223.867 242.498 220.234 L 242.417 216.602 242.287 220.020 L 242.157 223.438 239.063 223.438 L 235.968 223.438 235.853 220.020 L 235.738 216.602 235.545 220.168 M237.394 217.079 C 238.087 217.165,239.318 217.167,240.128 217.082 C 240.938 216.997,240.371 216.927,238.867 216.925 C 237.363 216.923,236.700 216.993,237.394 217.079 M258.203 220.313 L 258.203 223.828 262.012 223.747 L 265.820 223.666 262.207 223.537 L 258.594 223.408 258.594 220.317 L 258.594 217.226 260.840 217.086 L 263.086 216.945 260.645 216.871 L 258.203 216.797 258.203 220.313 M265.620 219.451 L 265.811 222.070 265.934 219.767 C 266.002 218.501,265.917 217.322,265.744 217.148 C 265.571 216.975,265.515 218.011,265.620 219.451 M288.380 218.555 C 288.384 219.414,288.464 219.720,288.558 219.234 C 288.651 218.748,288.647 218.045,288.550 217.671 C 288.452 217.298,288.375 217.695,288.380 218.555 M134.935 220.604 L 134.961 223.633 137.990 223.659 L 141.018 223.686 138.103 223.545 L 135.189 223.405 135.048 220.490 L 134.908 217.576 134.935 220.604 M325.781 220.898 L 325.781 223.828 318.555 223.828 C 313.729 223.828,311.328 223.966,311.328 224.242 C 311.328 224.469,311.492 224.554,311.692 224.431 C 311.892 224.307,312.166 224.385,312.301 224.603 C 312.436 224.821,312.843 224.988,313.207 224.973 C 313.745 224.950,313.723 224.883,313.086 224.609 C 312.535 224.373,312.996 224.274,314.648 224.274 C 316.301 224.274,316.762 224.373,316.211 224.609 C 315.465 224.930,315.470 224.946,316.309 224.973 C 316.792 224.988,317.188 224.824,317.188 224.609 C 317.188 224.395,318.110 224.231,319.238 224.246 C 320.744 224.266,321.082 224.363,320.508 224.609 C 319.877 224.880,320.002 224.950,321.159 224.973 C 321.962 224.988,322.678 224.786,322.788 224.512 C 322.946 224.121,322.991 224.121,323.016 224.512 C 323.033 224.780,323.321 225.000,323.656 225.000 C 324.039 225.000,324.156 224.819,323.972 224.512 C 323.777 224.189,323.905 224.207,324.349 224.567 C 324.717 224.867,325.132 224.998,325.270 224.860 C 325.408 224.722,325.272 224.598,324.967 224.585 C 324.663 224.571,324.810 224.401,325.293 224.207 C 326.106 223.880,326.754 217.969,325.977 217.969 C 325.869 217.969,325.781 219.287,325.781 220.898 M76.146 224.116 C 76.979 224.217,77.304 224.393,77.002 224.579 C 76.712 224.758,77.038 224.888,77.809 224.900 C 78.850 224.916,78.950 224.858,78.320 224.597 C 77.565 224.285,77.568 224.273,78.385 224.246 C 78.851 224.231,79.320 224.438,79.429 224.707 C 79.586 225.098,79.632 225.098,79.657 224.707 C 79.674 224.431,80.200 224.219,80.865 224.219 C 81.512 224.219,82.414 224.438,82.869 224.707 C 83.530 225.098,83.731 225.098,83.873 224.707 C 83.982 224.406,84.793 224.219,85.993 224.219 C 87.093 224.219,87.839 224.377,87.712 224.582 C 87.588 224.782,87.693 225.073,87.945 225.229 C 88.220 225.399,88.298 225.343,88.140 225.087 C 87.996 224.854,88.057 224.553,88.275 224.418 C 88.514 224.270,88.669 224.688,88.666 225.465 C 88.661 226.443,88.568 226.615,88.281 226.172 C 87.977 225.700,87.901 225.762,87.897 226.488 C 87.893 226.984,88.057 227.287,88.261 227.161 C 88.474 227.029,88.693 227.896,88.774 229.188 C 88.870 230.724,88.938 230.228,88.989 227.637 L 89.063 223.828 81.934 223.891 C 78.013 223.925,75.408 224.026,76.146 224.116 M141.920 228.418 L 141.896 232.031 149.268 232.031 L 156.641 232.031 156.560 228.223 L 156.480 224.414 156.350 227.832 L 156.220 231.250 149.219 231.250 L 142.218 231.250 142.080 228.027 L 141.943 224.805 141.920 228.418 M243.440 227.605 C 243.320 232.378,242.757 232.031,250.628 232.031 L 257.422 232.031 257.342 228.223 L 257.261 224.414 257.131 227.832 L 257.001 231.250 250.391 231.250 L 243.780 231.250 243.650 227.832 L 243.520 224.414 243.440 227.605 M187.109 225.378 C 187.109 225.564,187.329 225.805,187.598 225.913 C 187.965 226.061,187.969 226.118,187.612 226.141 C 187.261 226.164,187.136 227.800,187.132 232.412 L 187.126 238.652 200.399 238.759 L 213.672 238.867 213.672 232.171 C 213.672 226.318,213.591 225.443,213.030 225.228 C 212.043 224.849,187.109 224.994,187.109 225.378 M303.678 239.258 C 303.679 243.340,303.737 244.957,303.807 242.851 C 303.877 240.745,303.877 237.405,303.806 235.429 C 303.736 233.453,303.678 235.176,303.678 239.258 M309.961 232.813 C 309.522 233.297,309.434 233.594,309.728 233.594 C 309.989 233.594,310.112 233.740,310.001 233.919 C 309.891 234.098,310.062 234.245,310.382 234.245 C 310.782 234.245,310.838 234.119,310.560 233.841 C 309.939 233.220,310.074 232.820,311.035 232.434 C 311.607 232.204,311.697 232.072,311.291 232.056 C 310.948 232.042,310.350 232.383,309.961 232.813 M295.831 234.961 C 295.833 236.465,295.904 237.032,295.988 236.222 C 296.073 235.411,296.071 234.181,295.985 233.487 C 295.899 232.794,295.830 233.457,295.831 234.961 M104.013 248.438 C 104.013 249.404,104.089 249.800,104.182 249.316 C 104.275 248.833,104.275 248.042,104.182 247.559 C 104.089 247.075,104.013 247.471,104.013 248.438 M296.169 250.514 C 296.128 252.623,295.921 254.671,295.710 255.065 C 295.429 255.589,295.473 255.837,295.873 255.991 C 296.174 256.106,296.520 255.939,296.643 255.619 C 296.769 255.291,296.698 255.142,296.480 255.276 C 296.268 255.407,296.094 255.343,296.094 255.134 C 296.094 254.924,296.226 254.694,296.387 254.622 C 296.548 254.551,296.582 252.734,296.462 250.586 L 296.245 246.680 296.169 250.514 M187.498 250.523 C 187.392 252.421,187.378 254.047,187.467 254.136 C 187.830 254.494,194.531 254.276,194.531 253.906 C 194.531 253.677,193.169 253.516,191.227 253.516 L 187.922 253.516 187.806 250.293 L 187.691 247.070 187.498 250.523 M205.185 248.828 C 205.185 249.795,205.261 250.190,205.354 249.707 C 205.447 249.224,205.447 248.433,205.354 247.949 C 205.261 247.466,205.185 247.861,205.185 248.828 M213.281 250.391 L 213.281 253.516 209.787 253.516 L 206.293 253.516 206.146 251.660 L 206.000 249.805 205.933 251.953 L 205.865 254.102 209.717 254.226 L 213.568 254.350 213.640 250.808 C 213.679 248.860,213.615 247.266,213.496 247.266 C 213.378 247.266,213.281 248.672,213.281 250.391 M288.415 250.586 C 288.417 252.305,288.485 252.959,288.568 252.040 C 288.650 251.122,288.649 249.715,288.565 248.915 C 288.481 248.115,288.414 248.867,288.415 250.586 M194.258 251.172 C 194.258 252.354,194.331 252.837,194.420 252.246 C 194.510 251.655,194.510 250.688,194.420 250.098 C 194.331 249.507,194.258 249.990,194.258 251.172 M205.169 253.125 C 205.169 253.877,205.249 254.185,205.347 253.809 C 205.446 253.433,205.446 252.817,205.347 252.441 C 205.249 252.065,205.169 252.373,205.169 253.125 M103.224 254.102 C 103.228 254.961,103.308 255.267,103.401 254.781 C 103.495 254.295,103.491 253.592,103.393 253.218 C 103.296 252.845,103.219 253.242,103.224 254.102 M288.379 254.297 C 288.468 254.627,289.034 254.910,289.679 254.945 C 290.662 254.998,290.685 254.979,289.844 254.808 C 289.307 254.698,288.722 254.407,288.544 254.160 C 288.329 253.860,288.274 253.905,288.379 254.297 M106.348 255.090 C 105.864 255.285,105.469 255.625,105.469 255.847 C 105.469 256.427,106.077 256.343,106.621 255.688 C 106.878 255.378,107.471 255.051,107.939 254.959 C 108.693 254.813,108.701 254.791,108.008 254.765 C 107.578 254.750,106.831 254.896,106.348 255.090 M110.037 254.961 C 109.649 255.061,109.400 255.349,109.483 255.599 C 109.658 256.125,111.328 256.312,111.328 255.806 C 111.328 255.621,111.108 255.456,110.840 255.441 C 110.571 255.426,110.703 255.263,111.133 255.078 C 111.968 254.719,111.261 254.644,110.037 254.961 M291.564 255.018 C 291.738 255.299,291.540 255.487,291.039 255.518 C 289.721 255.598,289.533 255.648,289.193 256.013 C 288.772 256.464,291.459 255.963,291.916 255.506 C 292.108 255.314,292.045 255.036,291.771 254.867 C 291.458 254.673,291.385 254.727,291.564 255.018 M113.574 262.397 C 114.702 262.476,116.548 262.476,117.676 262.397 C 118.804 262.318,117.881 262.254,115.625 262.254 C 113.369 262.254,112.446 262.318,113.574 262.397 M179.204 262.386 C 179.690 262.479,180.393 262.476,180.766 262.378 C 181.140 262.280,180.742 262.204,179.883 262.208 C 179.023 262.212,178.718 262.292,179.204 262.386 M218.262 262.392 C 218.960 262.479,220.103 262.479,220.801 262.392 C 221.499 262.305,220.928 262.234,219.531 262.234 C 218.135 262.234,217.563 262.305,218.262 262.392 M226.855 262.399 C 228.413 262.474,230.962 262.474,232.520 262.399 C 234.077 262.325,232.803 262.265,229.688 262.265 C 226.572 262.265,225.298 262.325,226.855 262.399 M274.512 262.392 C 275.210 262.479,276.353 262.479,277.051 262.392 C 277.749 262.305,277.178 262.234,275.781 262.234 C 274.385 262.234,273.813 262.305,274.512 262.392 M282.715 262.395 C 283.628 262.478,285.122 262.478,286.035 262.395 C 286.948 262.313,286.201 262.246,284.375 262.246 C 282.549 262.246,281.802 262.313,282.715 262.395 M195.451 265.820 C 195.450 267.754,195.516 268.594,195.598 267.688 C 195.680 266.781,195.681 265.199,195.600 264.172 C 195.519 263.145,195.452 263.887,195.451 265.820 M164.590 266.016 C 164.590 267.842,164.657 268.589,164.739 267.676 C 164.821 266.763,164.821 265.269,164.739 264.355 C 164.657 263.442,164.590 264.189,164.590 266.016 M118.945 264.208 C 118.945 264.782,119.129 265.065,119.426 264.950 C 119.774 264.817,119.797 264.559,119.510 264.023 C 119.000 263.070,118.945 263.088,118.945 264.208 M118.985 268.682 C 118.652 269.670,118.839 270.027,119.760 270.162 C 120.170 270.222,120.240 270.107,119.986 269.793 C 119.782 269.542,119.542 268.984,119.453 268.555 C 119.302 267.826,119.270 267.835,118.985 268.682 M272.668 270.898 C 272.668 271.717,272.771 271.908,273.009 271.532 C 273.197 271.236,273.546 271.114,273.784 271.262 C 274.023 271.410,274.221 271.300,274.225 271.019 C 274.229 270.648,274.334 270.668,274.609 271.094 C 274.916 271.568,274.989 271.511,274.994 270.801 C 275.001 269.818,274.616 269.681,273.890 270.407 C 273.504 270.793,273.330 270.773,273.037 270.309 C 272.758 269.869,272.668 270.013,272.668 270.898 M125.614 270.926 C 124.860 271.680,124.856 271.745,125.564 271.745 C 125.875 271.745,126.094 271.554,126.053 271.322 C 126.011 271.089,126.209 270.947,126.494 271.006 C 126.778 271.065,126.900 270.933,126.764 270.713 C 126.437 270.184,126.337 270.203,125.614 270.926 M140.808 279.068 C 140.817 280.031,140.946 280.298,141.272 280.027 C 141.520 279.822,141.665 279.353,141.594 278.987 C 141.524 278.620,141.453 278.188,141.436 278.027 C 141.338 277.069,140.798 277.964,140.808 279.068 M257.422 282.021 C 257.422 285.397,257.312 286.130,256.738 286.566 C 256.362 286.851,256.253 287.090,256.495 287.097 C 257.656 287.130,258.640 279.213,257.604 278.177 C 257.504 278.077,257.422 279.806,257.422 282.021 M156.777 282.031 C 156.777 283.857,156.844 284.604,156.927 283.691 C 157.009 282.778,157.009 281.284,156.927 280.371 C 156.844 279.458,156.777 280.205,156.777 282.031 M243.359 289.648 C 243.359 291.976,243.442 293.798,243.542 293.698 C 243.820 293.420,243.873 285.930,243.599 285.656 C 243.467 285.524,243.359 287.321,243.359 289.648 M244.733 286.585 C 245.021 286.874,245.489 287.107,245.773 287.103 C 246.154 287.099,246.136 286.998,245.703 286.719 C 245.227 286.411,245.277 286.339,245.973 286.334 C 246.444 286.331,246.938 286.505,247.072 286.721 C 247.335 287.147,250.196 287.044,250.647 286.592 C 250.799 286.440,250.188 286.388,249.290 286.475 C 248.391 286.562,247.656 286.476,247.656 286.283 C 247.656 286.089,246.881 285.961,245.933 285.996 C 244.491 286.051,244.295 286.147,244.733 286.585 M252.830 286.554 C 253.202 286.926,255.074 287.027,254.849 286.664 C 254.735 286.479,254.183 286.328,253.623 286.328 C 253.063 286.328,252.706 286.430,252.830 286.554 " stroke="none" fill="#d49084" fill-rule="evenodd"></path><path id="path3" d="M156.772 118.750 C 156.772 120.361,156.841 121.021,156.925 120.215 C 157.009 119.409,157.009 118.091,156.925 117.285 C 156.841 116.479,156.772 117.139,156.772 118.750 M243.080 120.117 C 243.083 121.191,243.159 121.584,243.249 120.991 C 243.339 120.397,243.336 119.518,243.244 119.038 C 243.151 118.557,243.078 119.043,243.080 120.117 M265.099 129.785 C 265.199 129.946,270.186 130.078,276.181 130.078 L 287.081 130.078 287.193 133.887 L 287.305 137.695 290.918 137.808 L 294.531 137.920 294.531 149.819 L 294.531 161.719 291.602 161.719 C 289.990 161.719,288.672 161.871,288.672 162.056 C 288.672 162.242,290.077 162.374,291.795 162.349 L 294.918 162.305 294.919 149.805 L 294.920 137.305 291.210 137.308 L 287.500 137.311 287.500 133.511 L 287.500 129.711 276.209 129.601 C 269.999 129.541,264.999 129.624,265.099 129.785 M112.972 133.691 L 113.054 137.695 113.182 133.893 L 113.309 130.090 124.526 129.980 L 135.742 129.870 124.316 129.779 L 112.891 129.688 112.972 133.691 M104.687 149.705 L 104.687 162.305 108.398 162.305 C 110.439 162.305,112.109 162.173,112.109 162.012 C 112.109 161.851,110.527 161.719,108.594 161.719 L 105.078 161.719 105.078 149.805 L 105.078 137.891 108.812 137.891 C 113.647 137.891,113.315 137.288,108.423 137.185 L 104.688 137.106 104.687 149.705 M269.829 137.386 C 270.315 137.479,271.018 137.476,271.391 137.378 C 271.765 137.280,271.367 137.204,270.508 137.208 C 269.648 137.212,269.343 137.292,269.829 137.386 M114.756 154.193 C 115.675 154.275,117.081 154.274,117.881 154.190 C 118.681 154.106,117.930 154.039,116.211 154.040 C 114.492 154.042,113.838 154.110,114.756 154.193 M282.129 154.193 C 283.149 154.274,284.819 154.274,285.840 154.193 C 286.860 154.113,286.025 154.047,283.984 154.047 C 281.943 154.047,281.108 154.113,282.129 154.193 M295.794 178.516 C 295.794 179.268,295.874 179.575,295.972 179.199 C 296.071 178.823,296.071 178.208,295.972 177.832 C 295.874 177.456,295.794 177.764,295.794 178.516 M235.247 213.281 C 235.247 214.033,235.327 214.341,235.426 213.965 C 235.524 213.589,235.524 212.974,235.426 212.598 C 235.327 212.222,235.247 212.529,235.247 213.281 M101.660 223.707 C 102.036 223.805,102.651 223.805,103.027 223.707 C 103.403 223.609,103.096 223.528,102.344 223.528 C 101.592 223.528,101.284 223.609,101.660 223.707 M187.109 224.629 C 187.109 224.856,192.193 225.000,200.195 225.000 C 208.861 225.000,213.281 224.865,213.281 224.600 C 213.281 224.335,208.879 224.210,200.195 224.229 C 192.213 224.247,187.109 224.403,187.109 224.629 M195.047 249.609 C 195.047 251.006,195.118 251.577,195.204 250.879 C 195.291 250.181,195.291 249.038,195.204 248.340 C 195.118 247.642,195.047 248.213,195.047 249.609 M195.028 256.641 C 195.028 257.607,195.104 258.003,195.198 257.520 C 195.291 257.036,195.291 256.245,195.198 255.762 C 195.104 255.278,195.028 255.674,195.028 256.641 M167.491 262.396 C 168.410 262.478,169.816 262.477,170.616 262.393 C 171.416 262.309,170.664 262.242,168.945 262.243 C 167.227 262.245,166.572 262.313,167.491 262.396 M173.150 262.390 C 173.744 262.479,174.623 262.477,175.103 262.384 C 175.583 262.292,175.098 262.218,174.023 262.221 C 172.949 262.224,172.556 262.300,173.150 262.390 M176.660 262.379 C 177.036 262.477,177.651 262.477,178.027 262.379 C 178.403 262.280,178.096 262.200,177.344 262.200 C 176.592 262.200,176.284 262.280,176.660 262.379 M181.738 262.379 C 182.114 262.477,182.729 262.477,183.105 262.379 C 183.481 262.280,183.174 262.200,182.422 262.200 C 181.670 262.200,181.362 262.280,181.738 262.379 M185.063 262.386 C 185.549 262.479,186.252 262.476,186.626 262.378 C 186.999 262.280,186.602 262.204,185.742 262.208 C 184.883 262.212,184.577 262.292,185.063 262.386 M192.676 262.379 C 193.052 262.477,193.667 262.477,194.043 262.379 C 194.419 262.280,194.111 262.200,193.359 262.200 C 192.607 262.200,192.300 262.280,192.676 262.379 M213.175 262.391 C 213.868 262.478,215.099 262.479,215.909 262.394 C 216.720 262.310,216.152 262.239,214.648 262.238 C 213.145 262.236,212.481 262.305,213.175 262.391 " stroke="none" fill="#c24045" fill-rule="evenodd"></path><path id="path4" d="M119.629 108.496 C 123.657 108.559,130.249 108.559,134.277 108.496 C 138.306 108.432,135.010 108.380,126.953 108.380 C 118.896 108.380,115.601 108.432,119.629 108.496 M257.677 108.496 C 257.512 108.763,270.082 108.757,285.547 108.484 C 288.877 108.425,284.009 108.338,274.730 108.290 C 265.451 108.242,257.777 108.335,257.677 108.496 M303.627 110.742 C 303.630 111.816,303.706 112.209,303.796 111.616 C 303.886 111.022,303.883 110.143,303.791 109.663 C 303.698 109.182,303.624 109.668,303.627 110.742 M148.242 115.234 L 146.680 115.514 148.121 115.570 C 148.914 115.600,149.672 115.449,149.805 115.234 C 149.937 115.020,149.992 114.869,149.925 114.899 C 149.859 114.930,149.102 115.081,148.242 115.234 M100.509 115.526 C 102.614 115.596,105.954 115.596,107.930 115.525 C 109.907 115.454,108.184 115.397,104.102 115.397 C 100.020 115.398,98.403 115.455,100.509 115.526 M172.949 115.517 C 173.647 115.604,174.790 115.604,175.488 115.517 C 176.187 115.430,175.615 115.359,174.219 115.359 C 172.822 115.359,172.251 115.430,172.949 115.517 M228.809 115.510 C 229.292 115.603,230.083 115.603,230.566 115.510 C 231.050 115.417,230.654 115.341,229.688 115.341 C 228.721 115.341,228.325 115.417,228.809 115.510 M293.848 115.514 C 294.438 115.604,295.405 115.604,295.996 115.514 C 296.587 115.425,296.104 115.351,294.922 115.351 C 293.740 115.351,293.257 115.425,293.848 115.514 M297.954 115.511 C 298.440 115.604,299.143 115.601,299.516 115.503 C 299.890 115.405,299.492 115.329,298.633 115.333 C 297.773 115.337,297.468 115.417,297.954 115.511 M157.633 116.325 C 157.517 116.441,157.422 118.012,157.422 119.815 C 157.422 121.901,157.280 123.005,157.031 122.852 C 156.816 122.719,156.641 122.840,156.642 123.121 C 156.642 123.513,155.862 123.603,153.321 123.506 L 150.000 123.380 150.000 126.143 L 150.000 128.906 162.305 128.906 L 174.609 128.906 174.656 132.324 C 174.681 134.204,174.681 135.874,174.656 136.035 C 174.630 136.196,175.005 136.337,175.488 136.349 C 176.743 136.378,181.037 136.784,181.146 136.883 C 181.196 136.928,181.354 138.756,181.497 140.944 L 181.758 144.922 200.645 144.922 L 219.531 144.922 219.531 141.381 C 219.531 136.603,219.712 136.328,222.851 136.328 L 225.361 136.328 225.474 132.715 L 225.586 129.102 237.776 128.998 L 249.966 128.895 250.112 126.264 C 250.256 123.674,250.258 123.680,250.227 126.624 C 250.209 128.269,250.336 129.528,250.508 129.421 C 250.679 129.314,250.787 127.737,250.747 125.917 C 250.695 123.580,250.552 122.729,250.259 123.022 C 249.760 123.521,243.220 123.588,243.527 123.091 C 243.645 122.901,243.407 122.658,242.999 122.551 C 242.347 122.381,242.257 121.979,242.266 119.284 L 242.275 116.211 200.060 116.162 C 176.841 116.136,157.749 116.209,157.633 116.325 M81.424 126.987 C 81.280 127.221,81.357 127.607,81.597 127.847 C 81.916 128.166,82.031 128.053,82.031 127.422 C 82.031 126.479,81.828 126.333,81.424 126.987 M225.902 132.227 C 225.904 133.516,225.977 133.996,226.064 133.294 C 226.151 132.592,226.149 131.537,226.060 130.950 C 225.971 130.363,225.900 130.938,225.902 132.227 M265.795 133.398 L 265.820 136.914 269.239 136.938 L 272.658 136.963 269.352 136.826 L 266.046 136.689 265.907 133.286 L 265.769 129.883 265.795 133.398 M131.250 136.719 L 127.539 136.960 131.129 137.035 C 133.186 137.077,134.823 136.943,134.961 136.719 C 135.094 136.504,135.148 136.362,135.082 136.403 C 135.015 136.444,133.291 136.586,131.250 136.719 M273.220 141.308 L 273.242 145.117 276.661 145.141 L 280.080 145.166 276.773 145.029 L 273.465 144.892 273.331 141.195 L 273.197 137.498 273.220 141.308 M121.387 145.208 C 122.300 145.290,123.794 145.290,124.707 145.208 C 125.620 145.126,124.873 145.058,123.047 145.058 C 121.221 145.058,120.474 145.126,121.387 145.208 M119.676 149.609 C 119.676 151.865,119.740 152.788,119.819 151.660 C 119.898 150.532,119.898 148.687,119.819 147.559 C 119.740 146.431,119.676 147.354,119.676 149.609 M114.756 153.802 C 115.675 153.885,117.081 153.884,117.881 153.800 C 118.681 153.716,117.930 153.648,116.211 153.650 C 114.492 153.651,113.838 153.720,114.756 153.802 M282.531 153.803 C 283.558 153.884,285.140 153.883,286.047 153.801 C 286.954 153.719,286.113 153.653,284.180 153.654 C 282.246 153.655,281.504 153.722,282.531 153.803 M241.504 172.936 C 242.095 173.026,243.062 173.026,243.652 172.936 C 244.243 172.847,243.760 172.773,242.578 172.773 C 241.396 172.773,240.913 172.847,241.504 172.936 M309.234 183.398 C 309.330 183.649,309.648 183.854,309.941 183.854 C 310.233 183.854,310.394 183.649,310.298 183.398 C 310.201 183.148,309.883 182.943,309.591 182.943 C 309.298 182.943,309.138 183.148,309.234 183.398 M193.277 184.274 C 194.628 184.350,196.738 184.350,197.965 184.273 C 199.191 184.195,198.086 184.133,195.508 184.134 C 192.930 184.134,191.926 184.197,193.277 184.274 M208.984 184.375 C 213.890 184.517,208.868 184.626,194.878 184.681 L 173.154 184.766 173.195 196.094 L 173.236 207.422 191.403 207.514 L 209.570 207.606 191.211 207.813 L 172.852 208.019 199.912 208.111 L 226.973 208.203 226.942 196.094 L 226.911 183.984 214.139 184.069 C 202.348 184.148,201.952 184.171,208.984 184.375 M156.802 191.602 C 156.802 195.469,156.861 196.998,156.932 195.000 C 157.003 193.002,157.003 189.838,156.931 187.969 C 156.860 186.100,156.802 187.734,156.802 191.602 M227.442 186.523 C 227.447 187.383,227.527 187.688,227.620 187.202 C 227.713 186.717,227.710 186.013,227.612 185.640 C 227.514 185.267,227.438 185.664,227.442 186.523 M266.796 202.949 L 266.797 216.249 270.703 216.230 L 274.609 216.211 274.609 203.053 L 274.609 189.896 270.702 189.772 L 266.795 189.648 266.796 202.949 M131.152 190.133 L 133.594 190.272 133.594 199.042 L 133.594 207.813 131.348 207.878 L 129.102 207.944 131.445 208.171 C 132.787 208.301,133.588 208.529,133.318 208.704 C 133.059 208.872,132.940 209.254,133.055 209.553 C 133.172 209.857,132.906 210.288,132.452 210.531 C 132.006 210.770,131.641 211.252,131.641 211.602 C 131.641 211.953,131.525 212.124,131.384 211.983 C 131.030 211.629,130.035 212.505,130.301 212.935 C 130.419 213.125,130.235 213.281,129.894 213.281 C 129.552 213.281,129.171 213.545,129.048 213.867 C 128.924 214.189,128.578 214.453,128.279 214.453 C 127.499 214.453,127.606 215.143,128.418 215.356 C 128.794 215.454,128.304 215.555,127.329 215.580 L 125.556 215.625 125.443 212.600 C 125.290 208.488,125.000 208.470,125.000 212.573 L 125.000 215.901 127.989 216.154 C 129.632 216.293,131.645 216.406,132.461 216.406 L 133.946 216.406 133.974 203.125 L 134.003 189.844 131.357 189.919 L 128.711 189.994 131.152 190.133 M273.877 193.750 C 273.904 195.684,273.948 197.573,273.975 197.949 C 274.016 198.531,273.556 198.666,270.898 198.854 L 267.773 199.075 270.898 199.146 L 274.023 199.217 273.903 203.436 L 273.782 207.654 270.485 207.695 L 267.188 207.735 267.188 198.985 L 267.188 190.234 270.508 190.234 L 273.828 190.234 273.877 193.750 M273.762 210.254 C 273.704 212.090,273.681 212.141,273.541 210.742 C 273.455 209.883,273.211 209.004,272.998 208.789 C 272.741 208.530,272.694 208.662,272.860 209.180 C 273.107 209.950,273.102 209.950,272.493 209.203 C 271.940 208.524,271.875 208.515,271.875 209.119 C 271.875 209.672,271.735 209.718,271.094 209.375 C 270.564 209.092,270.313 209.087,270.313 209.361 C 270.313 209.584,270.488 209.766,270.703 209.766 C 270.918 209.766,271.094 209.963,271.094 210.204 C 271.094 210.527,270.955 210.527,270.570 210.207 C 270.281 209.968,269.920 209.897,269.768 210.050 C 269.615 210.203,269.603 210.032,269.742 209.672 C 269.940 209.154,269.809 209.051,269.124 209.183 C 267.927 209.413,267.692 209.735,268.371 210.214 C 268.851 210.554,268.838 210.586,268.287 210.410 C 267.925 210.295,267.543 210.410,267.439 210.666 C 267.335 210.923,267.235 210.474,267.218 209.668 L 267.188 208.203 270.508 208.203 L 273.828 208.203 273.762 210.254 M167.773 208.952 L 165.430 209.180 165.316 212.402 L 165.203 215.625 168.539 215.625 L 171.875 215.625 171.875 212.109 C 171.875 208.121,172.375 208.506,167.773 208.952 M172.408 212.305 C 172.409 214.453,172.475 215.282,172.554 214.147 C 172.633 213.012,172.632 211.254,172.552 210.241 C 172.472 209.228,172.407 210.156,172.408 212.305 M228.385 208.854 C 228.242 208.997,228.125 210.579,228.125 212.370 L 228.125 215.625 231.348 215.625 L 234.570 215.624 234.511 212.597 C 234.478 210.932,234.435 209.351,234.413 209.082 C 234.372 208.560,228.887 208.353,228.385 208.854 M227.690 216.129 C 227.861 216.299,229.567 216.386,231.481 216.322 L 234.961 216.205 231.170 216.013 C 229.085 215.907,227.519 215.959,227.690 216.129 M166.906 216.303 C 167.933 216.384,169.515 216.383,170.422 216.301 C 171.329 216.219,170.488 216.153,168.555 216.154 C 166.621 216.155,165.879 216.222,166.906 216.303 M135.350 217.124 C 135.244 217.230,135.156 218.695,135.156 220.378 L 135.156 223.438 138.184 223.510 L 141.211 223.583 137.891 223.828 L 134.570 224.073 137.695 224.140 C 140.813 224.207,142.533 223.804,141.244 223.309 C 140.903 223.178,140.625 222.792,140.625 222.450 C 140.625 222.108,140.757 221.910,140.918 222.009 C 141.342 222.271,141.233 218.274,140.797 217.578 C 140.445 217.016,135.842 216.632,135.350 217.124 M157.813 220.186 L 157.813 223.438 160.938 223.438 L 164.063 223.438 164.060 220.215 L 164.057 216.992 160.935 216.963 L 157.813 216.934 157.813 220.186 M164.453 220.298 L 164.453 223.799 160.840 223.928 L 157.227 224.057 161.035 224.138 L 164.844 224.219 164.844 220.508 C 164.844 218.467,164.756 216.797,164.648 216.797 C 164.541 216.797,164.453 218.372,164.453 220.298 M235.295 220.117 C 235.294 222.051,235.360 222.891,235.442 221.984 C 235.524 221.078,235.525 219.496,235.444 218.469 C 235.363 217.442,235.296 218.184,235.295 220.117 M235.938 220.215 L 235.938 223.438 239.063 223.438 L 242.188 223.438 242.188 220.215 L 242.188 216.992 239.064 216.992 L 235.939 216.992 235.938 220.215 M260.840 217.081 L 258.594 217.226 258.594 220.332 L 258.594 223.438 262.125 223.438 L 265.657 223.438 265.543 220.239 L 265.430 217.041 264.258 216.988 C 263.613 216.959,262.075 217.001,260.840 217.081 M237.025 224.117 C 238.160 224.196,239.918 224.195,240.931 224.115 C 241.944 224.035,241.016 223.970,238.867 223.971 C 236.719 223.972,235.890 224.037,237.025 224.117 M260.059 224.116 C 261.187 224.195,263.032 224.195,264.160 224.116 C 265.288 224.037,264.365 223.973,262.109 223.973 C 259.854 223.973,258.931 224.037,260.059 224.116 M296.211 226.172 C 296.211 227.354,296.284 227.837,296.374 227.246 C 296.463 226.655,296.463 225.688,296.374 225.098 C 296.284 224.507,296.211 224.990,296.211 226.172 M298.228 224.633 C 298.051 224.918,298.707 224.964,300.336 224.780 L 302.700 224.512 302.834 227.588 L 302.968 230.664 303.046 227.441 L 303.125 224.219 300.804 224.219 C 299.528 224.219,298.368 224.405,298.228 224.633 M142.188 227.930 L 142.188 231.250 149.219 231.250 L 156.250 231.250 156.250 227.930 L 156.250 224.609 149.219 224.609 L 142.188 224.609 142.188 227.930 M243.111 228.320 C 243.112 230.469,243.178 231.298,243.257 230.163 C 243.336 229.028,243.336 227.270,243.255 226.256 C 243.175 225.243,243.110 226.172,243.111 228.320 M243.750 227.930 L 243.750 231.250 250.391 231.250 L 257.031 231.250 257.031 227.930 L 257.031 224.609 250.391 224.609 L 243.750 224.609 243.750 227.930 M257.565 228.320 C 257.566 230.469,257.631 231.298,257.710 230.163 C 257.789 229.028,257.789 227.270,257.708 226.256 C 257.628 225.243,257.564 226.172,257.565 228.320 M179.431 235.742 C 179.432 237.461,179.501 238.115,179.583 237.197 C 179.666 236.278,179.665 234.872,179.581 234.072 C 179.497 233.272,179.429 234.023,179.431 235.742 M104.034 236.133 C 104.036 237.637,104.107 238.204,104.191 237.394 C 104.276 236.583,104.274 235.353,104.188 234.659 C 104.102 233.966,104.033 234.629,104.034 236.133 M194.043 238.964 C 197.534 239.029,203.247 239.029,206.738 238.964 C 210.229 238.899,207.373 238.846,200.391 238.846 C 193.408 238.846,190.552 238.899,194.043 238.964 M181.744 239.343 C 182.337 239.433,183.216 239.430,183.697 239.337 C 184.177 239.245,183.691 239.171,182.617 239.174 C 181.543 239.177,181.150 239.253,181.744 239.343 M213.537 246.663 C 213.351 247.147,212.586 247.266,209.659 247.266 L 206.012 247.266 206.101 248.730 C 206.151 249.536,206.204 250.942,206.220 251.855 L 206.250 253.516 209.766 253.516 L 213.281 253.516 213.281 250.469 C 213.281 248.644,213.467 247.237,213.743 246.960 C 213.998 246.705,214.107 246.399,213.987 246.279 C 213.867 246.158,213.664 246.331,213.537 246.663 M187.270 247.233 C 187.182 247.323,187.142 248.817,187.182 250.553 L 187.255 253.711 187.500 250.391 L 187.745 247.070 187.818 250.293 L 187.891 253.516 191.113 253.514 L 194.336 253.513 194.336 250.414 L 194.336 247.316 190.884 247.193 C 188.985 247.126,187.359 247.144,187.270 247.233 M206.938 254.183 C 207.424 254.276,208.127 254.272,208.501 254.175 C 208.874 254.077,208.477 254.000,207.617 254.005 C 206.758 254.009,206.452 254.089,206.938 254.183 M104.985 254.964 C 105.471 255.057,106.174 255.054,106.548 254.956 C 106.921 254.858,106.523 254.782,105.664 254.786 C 104.805 254.790,104.499 254.870,104.985 254.964 M205.223 258.594 C 205.223 260.850,205.287 261.772,205.366 260.645 C 205.445 259.517,205.445 257.671,205.366 256.543 C 205.287 255.415,205.223 256.338,205.223 258.594 M293.555 254.970 C 293.984 255.076,294.528 255.318,294.763 255.507 C 294.997 255.697,295.305 255.737,295.446 255.596 C 296.043 254.999,295.611 254.690,294.238 254.733 C 293.394 254.759,293.105 254.860,293.555 254.970 M131.738 269.822 C 133.403 269.895,136.128 269.895,137.793 269.822 C 139.458 269.748,138.096 269.688,134.766 269.688 C 131.436 269.688,130.073 269.748,131.738 269.822 M261.621 269.820 C 262.964 269.897,265.161 269.897,266.504 269.820 C 267.847 269.744,266.748 269.682,264.063 269.682 C 261.377 269.682,260.278 269.744,261.621 269.820 M128.418 278.010 C 128.901 278.103,129.692 278.103,130.176 278.010 C 130.659 277.917,130.264 277.841,129.297 277.841 C 128.330 277.841,127.935 277.917,128.418 278.010 M131.738 278.004 C 132.114 278.102,132.729 278.102,133.105 278.004 C 133.481 277.905,133.174 277.825,132.422 277.825 C 131.670 277.825,131.362 277.905,131.738 278.004 M137.598 278.014 C 138.188 278.104,139.155 278.104,139.746 278.014 C 140.337 277.925,139.854 277.851,138.672 277.851 C 137.490 277.851,137.007 277.925,137.598 278.014 M260.844 278.011 C 261.330 278.104,262.033 278.101,262.407 278.003 C 262.780 277.905,262.383 277.829,261.523 277.833 C 260.664 277.837,260.358 277.917,260.844 278.011 M154.688 286.750 C 154.236 287.067,154.314 287.100,155.029 286.898 C 155.610 286.733,155.867 286.782,155.715 287.027 C 155.582 287.242,155.740 287.520,156.066 287.646 C 156.549 287.831,156.582 287.730,156.245 287.101 C 155.777 286.225,155.520 286.168,154.688 286.750 " stroke="none" fill="#d0b8a6" fill-rule="evenodd"></path></g></svg>