<?xml version="1.0" standalone="no"?>
<!DOCTYPE svg PUBLIC "-//W3C//DTD SVG 20010904//EN"
 "http://www.w3.org/TR/2001/REC-SVG-20010904/DTD/svg10.dtd">
<svg version="1.0" xmlns="http://www.w3.org/2000/svg"
 width="500.000000pt" height="500.000000pt" viewBox="0 0 500.000000 500.000000"
 preserveAspectRatio="xMidYMid meet">

<g transform="translate(0.000000,500.000000) scale(0.100000,-0.100000)"
fill="#000000" stroke="none">
<path d="M0 3899 l0 -1102 38 7 c20 4 106 8 190 9 146 2 153 3 150 22 -3 19
-12 20 -143 23 -77 1 -146 5 -154 8 -33 11 8 17 141 20 79 1 146 3 150 3 4 1
2 12 -4 26 -13 29 -44 33 -51 8 -4 -17 -5 -17 -6 0 -1 15 -12 17 -76 17 -43 0
-75 4 -75 10 0 6 16 10 35 10 31 0 35 3 36 28 l1 27 7 -25 c4 -14 12 -25 19
-24 7 1 21 2 31 3 11 0 22 9 24 19 4 16 5 16 6 0 2 -31 57 -19 56 12 0 12 -21
16 -110 20 -101 5 -106 6 -55 12 30 4 81 8 113 8 57 0 57 0 57 30 l0 30 -77 2
-78 1 78 10 c75 10 77 11 77 38 l0 28 -108 4 -107 3 108 2 107 2 0 30 c0 34
-10 38 -100 43 -45 3 -40 4 23 5 l77 2 0 297 c0 163 2 294 5 291 3 -3 6 -101
6 -219 1 -118 3 -222 6 -231 4 -15 16 -18 74 -18 54 0 69 3 69 15 0 9 6 12 15
9 8 -4 13 -9 11 -13 -3 -4 21 -6 52 -5 78 3 85 6 32 14 l-45 7 43 1 42 2 0
104 c0 91 -2 105 -17 109 -16 4 -16 5 -1 6 12 1 18 12 21 44 l4 42 1 -42 c2
-41 4 -43 32 -43 l30 0 0 151 c0 122 -3 153 -15 166 -20 20 -14 37 14 41 16 3
24 -2 28 -17 5 -20 12 -21 109 -21 l103 0 4 43 4 42 1 -42 c2 -39 5 -43 27
-43 16 0 23 4 19 13 -3 8 2 20 11 27 13 11 15 53 17 284 l3 271 2 -260 c3
-192 7 -261 16 -267 9 -6 8 -8 -2 -8 -12 0 -12 -3 -3 -12 7 -7 12 -20 12 -30
0 -18 11 -24 24 -11 4 4 25 6 46 4 39 -2 40 -1 40 28 0 26 4 31 23 30 16 -1
18 -2 5 -6 -11 -3 -18 -14 -18 -29 0 -19 5 -24 24 -24 26 0 49 41 27 48 -22 7
-10 21 15 16 43 -8 62 4 66 41 2 19 -1 37 -7 39 -6 3 -5 5 3 5 6 1 12 9 13 19
0 10 3 12 6 5 8 -22 32 -14 48 17 10 19 15 51 13 90 -1 32 1 62 5 66 4 4 7 -2
7 -14 0 -18 6 -22 30 -22 25 0 44 14 106 79 42 44 109 101 150 127 68 44 74
51 75 84 2 30 3 31 6 8 2 -16 6 -28 9 -28 3 0 37 18 77 39 40 21 89 44 110 51
20 6 35 16 32 21 -4 5 1 6 9 3 8 -3 30 1 48 9 70 31 397 95 419 81 6 -4 47 -6
90 -5 46 1 79 -2 79 -8 0 -5 -6 -11 -12 -13 -7 -3 29 -13 79 -23 89 -17 93
-18 87 -41 -8 -30 23 -46 41 -21 7 10 18 17 24 17 25 0 166 -73 261 -136 56
-37 105 -62 112 -58 6 4 8 3 4 -4 -3 -6 8 -21 26 -33 18 -12 47 -34 63 -48 17
-14 25 -20 18 -12 -7 9 -9 21 -3 36 5 13 6 26 3 29 -4 3 -1 6 5 6 7 0 12 -13
12 -30 0 -32 22 -50 63 -50 20 0 23 -4 20 -22 -4 -28 5 -43 35 -52 21 -7 22
-5 22 55 0 34 3 59 6 56 4 -4 6 -49 6 -102 l-1 -95 27 -1 c17 -1 21 -3 10 -6
-21 -5 -24 -46 -5 -62 8 -6 22 -29 32 -51 15 -33 23 -40 47 -40 15 0 28 5 28
10 0 6 -5 10 -11 10 -8 0 -9 4 0 13 6 8 8 17 4 20 -3 4 -1 7 5 7 7 0 12 -15
12 -35 0 -32 2 -35 30 -35 25 0 30 4 30 25 0 13 -8 29 -17 34 -17 10 -17 10 0
11 9 0 17 5 17 12 0 6 3 8 6 5 4 -3 7 -39 8 -79 l1 -73 62 0 c64 0 101 -14 42
-16 -32 -2 -54 -3 -90 -7 -11 -2 -14 -10 -11 -32 3 -24 9 -30 28 -30 17 0 24
6 24 20 0 11 5 20 10 20 6 0 10 -8 10 -19 0 -13 9 -20 29 -23 28 -4 29 -3 33
39 2 24 -1 48 -6 53 -12 12 0 40 17 40 8 0 21 -7 28 -16 11 -14 11 -18 -1 -28
-21 -16 -16 -326 5 -326 21 0 25 14 15 49 -7 24 -6 31 6 31 10 0 14 -12 14
-38 0 -35 2 -38 30 -40 25 -2 30 1 30 20 1 20 2 21 13 7 7 -9 24 -19 40 -23
26 -6 27 -5 27 34 0 35 3 40 23 39 16 -1 18 -2 5 -6 -13 -3 -18 -15 -18 -39
l0 -34 68 -1 c37 -1 55 -4 40 -6 -15 -2 -29 -12 -31 -21 -4 -15 -5 -15 -6 1
-1 13 -10 17 -36 17 -32 0 -35 -2 -35 -30 0 -24 4 -30 23 -31 12 0 43 -2 70
-5 l47 -4 0 115 c0 85 -3 115 -12 115 -10 0 -10 2 0 9 9 6 13 30 12 82 -3 141
0 302 5 297 3 -3 5 -89 5 -191 1 -140 4 -187 13 -187 9 0 9 -2 0 -8 -16 -10
-16 -144 0 -154 9 -6 9 -8 0 -8 -8 0 -13 -14 -13 -35 0 -21 5 -35 13 -35 9 0
9 -2 0 -8 -6 -4 -11 -33 -11 -69 l0 -63 39 0 c22 0 39 -5 39 -11 0 -7 -11 -9
-30 -6 -16 4 -32 2 -35 -3 -4 -6 92 -11 262 -12 147 -1 229 -4 180 -5 l-87 -4
0 -54 0 -55 43 -1 42 -2 -40 -6 c-36 -5 -40 -9 -43 -38 l-3 -33 92 0 c51 0 90
-2 87 -5 -3 -3 -44 -6 -92 -6 l-86 0 0 -30 0 -29 80 0 c47 0 80 -4 80 -10 0
-5 -3 -9 -7 -9 -5 1 -41 1 -80 0 l-73 -1 0 -30 0 -30 61 0 c40 0 58 -4 54 -11
-4 -6 -19 -10 -33 -9 -72 5 -82 2 -82 -29 l0 -30 76 0 c81 0 118 -10 43 -12
-117 -2 -114 -1 -117 -38 -3 -34 -3 -34 35 -29 21 3 49 1 63 -3 l25 -7 -25 -2
c-14 -2 -41 -3 -60 -4 -32 -1 -35 -4 -38 -33 l-3 -31 82 -1 c88 -1 124 -10 43
-12 -122 -2 -119 -1 -122 -36 l-3 -33 61 1 c67 1 87 -6 46 -17 -35 -8 -36 -43
-1 -45 14 -1 31 -2 38 -3 6 -1 17 -5 23 -11 20 -17 -6 -25 -88 -25 -63 0 -78
-3 -78 -15 0 -10 11 -15 35 -15 21 0 35 5 35 13 0 22 20 -17 20 -40 0 -18 6
-23 25 -23 20 0 25 5 25 25 0 14 5 25 10 25 6 0 10 -11 10 -25 0 -14 5 -25 12
-25 9 0 9 -3 0 -12 -7 -7 -12 -25 -12 -40 0 -24 4 -28 30 -28 27 0 30 3 30 34
0 19 -6 37 -12 39 -7 3 8 6 35 6 46 1 47 2 47 34 1 29 2 30 12 12 7 -11 11
-44 11 -72 -1 -29 3 -53 8 -53 5 0 9 71 9 164 0 148 -2 165 -17 169 -17 4 -17
5 0 6 13 1 17 10 17 35 0 28 -4 35 -22 39 l-23 4 23 2 c18 1 22 7 22 35 0 24
-5 36 -17 39 -17 4 -17 5 0 6 13 1 17 10 17 36 0 26 -3 33 -15 29 -8 -4 -15
-1 -15 5 0 6 7 11 15 11 10 0 15 10 15 30 0 20 -5 30 -15 30 -8 0 -15 5 -15
10 0 6 7 10 15 10 22 0 20 57 -2 63 -17 4 -17 5 0 6 16 1 17 51 17 906 l0 905
-349 0 c-270 0 -350 -3 -354 -12 -4 -10 -6 -10 -6 0 -1 9 -149 12 -705 12
l-705 0 -4 -52 -3 -53 -2 53 -2 52 -709 0 c-558 0 -710 -3 -714 -12 -4 -10 -6
-10 -6 0 -1 9 -152 12 -721 12 l-720 0 0 -1101z m3933 618 c2 -408 3 -437 19
-437 13 0 17 -7 16 -25 -3 -27 -16 -32 -39 -12 -12 10 -14 81 -11 466 1 249 5
452 7 449 3 -3 6 -201 8 -441z m-1051 260 c2 -48 0 -87 -4 -87 -5 0 -8 44 -7
98 1 117 7 111 11 -11z m-2115 -24 c-3 -10 -5 -2 -5 17 0 19 2 27 5 18 2 -10
2 -26 0 -35z m3 -382 c1 -184 -2 -336 -5 -339 -3 -3 -5 149 -5 338 0 189 2
341 5 339 2 -3 5 -155 5 -338z m320 314 c0 -14 -4 -25 -9 -25 -4 0 -6 11 -3
25 2 14 6 25 8 25 2 0 4 -11 4 -25z m1893 -22 c-7 -2 -19 -2 -25 0 -7 3 -2 5
12 5 14 0 19 -2 13 -5z m-1891 -43 c3 -16 1 -30 -4 -30 -4 0 -8 14 -8 30 0 17
2 30 4 30 2 0 6 -13 8 -30z m765 -36 c-3 -3 -12 -4 -19 -1 -8 3 -5 6 6 6 11 1
17 -2 13 -5z m2440 -66 c-3 -7 -5 -2 -5 12 0 14 2 19 5 13 2 -7 2 -19 0 -25z
m-937 -83 c10 2 17 -6 18 -22 l2 -24 -29 23 c-16 13 -26 27 -23 32 2 4 7 4 11
-2 3 -5 13 -8 21 -7z m-1913 -77 c-3 -8 -6 -5 -6 6 -1 11 2 17 5 13 3 -3 4
-12 1 -19z m2850 0 c-3 -8 -6 -5 -6 6 -1 11 2 17 5 13 3 -3 4 -12 1 -19z
m-2774 -18 c-3 -11 -7 -20 -9 -20 -2 0 -4 9 -4 20 0 11 4 20 9 20 5 0 7 -9 4
-20z m2774 -57 c-3 -10 -5 -2 -5 17 0 19 2 27 5 18 2 -10 2 -26 0 -35z m0 -75
c-2 -13 -4 -5 -4 17 -1 22 1 32 4 23 2 -10 2 -28 0 -40z m-599 -95 c-10 -2
-28 -2 -40 0 -13 2 -5 4 17 4 22 1 32 -1 23 -4z m-3311 -80 c-3 -10 -5 -4 -5
12 0 17 2 24 5 18 2 -7 2 -21 0 -30z m540 -35 c-3 -7 -5 -2 -5 12 0 14 2 19 5
13 2 -7 2 -19 0 -25z m-540 -20 c-3 -7 -5 -2 -5 12 0 14 2 19 5 13 2 -7 2 -19
0 -25z m5 -43 c-2 -14 -6 -25 -8 -25 -2 0 -4 11 -4 25 0 14 4 25 9 25 4 0 6
-11 3 -25z m231 18 c-13 -2 -33 -2 -45 0 -13 2 -3 4 22 4 25 0 35 -2 23 -4z
m3524 0 c-20 -2 -52 -2 -70 0 -17 2 0 4 38 4 39 0 53 -2 32 -4z m90 1 c-3 -3
-12 -4 -19 -1 -8 3 -5 6 6 6 11 1 17 -2 13 -5z m433 -290 c0 -146 -3 -263 -7
-261 -8 5 -6 527 2 527 3 0 5 -120 5 -266z m-3977 129 c-7 -2 -19 -2 -25 0 -7
3 -2 5 12 5 14 0 19 -2 13 -5z m3477 3 c0 -2 -7 -6 -15 -10 -8 -3 -15 -1 -15
4 0 6 7 10 15 10 8 0 15 -2 15 -4z m83 -3 c-7 -2 -19 -2 -25 0 -7 3 -2 5 12 5
14 0 19 -2 13 -5z m-3556 -45 c-3 -8 -6 -5 -6 6 -1 11 2 17 5 13 3 -3 4 -12 1
-19z m3560 -34 c-3 -3 -12 -4 -19 -1 -8 3 -5 6 6 6 11 1 17 -2 13 -5z m-3620
-80 c-3 -3 -12 -4 -19 -1 -8 3 -5 6 6 6 11 1 17 -2 13 -5z m-12 -74 c3 -5 1
-10 -4 -10 -6 0 -11 5 -11 10 0 6 2 10 4 10 3 0 8 -4 11 -10z m3768 -7 c-7 -2
-19 -2 -25 0 -7 3 -2 5 12 5 14 0 19 -2 13 -5z m524 -369 c-3 -3 -12 -4 -19
-1 -8 3 -5 6 6 6 11 1 17 -2 13 -5z m-87 -154 c0 -5 -2 -10 -4 -10 -3 0 -8 5
-11 10 -3 6 -1 10 4 10 6 0 11 -4 11 -10z m7 -156 c-3 -3 -12 -4 -19 -1 -8 3
-5 6 6 6 11 1 17 -2 13 -5z m68 -164 c3 -5 1 -10 -4 -10 -6 0 -11 5 -11 10 0
6 2 10 4 10 3 0 8 -4 11 -10z m75 0 c0 -5 -2 -10 -4 -10 -3 0 -8 5 -11 10 -3
6 -1 10 4 10 6 0 11 -4 11 -10z m4 -81 c-6 -11 -24 -2 -24 11 0 5 7 7 15 4 8
-4 12 -10 9 -15z m-67 5 c-3 -3 -12 -4 -19 -1 -8 3 -5 6 6 6 11 1 17 -2 13 -5z
m21 -71 c-10 -2 -26 -2 -35 0 -10 3 -2 5 17 5 19 0 27 -2 18 -5z"/>
<path d="M2443 4713 c9 -2 23 -2 30 0 6 3 -1 5 -18 5 -16 0 -22 -2 -12 -5z"/>
<path d="M2358 4703 c12 -2 32 -2 45 0 12 2 2 4 -23 4 -25 0 -35 -2 -22 -4z"/>
<path d="M2298 4693 c6 -2 18 -2 25 0 6 3 1 5 -13 5 -14 0 -19 -2 -12 -5z"/>
<path d="M2258 4683 c7 -3 16 -2 19 1 4 3 -2 6 -13 5 -11 0 -14 -3 -6 -6z"/>
<path d="M2295 4669 c-55 -10 -102 -18 -104 -19 -2 0 17 -22 41 -48 66 -70
183 -255 231 -364 14 -32 28 -58 30 -58 8 0 -13 81 -30 114 -24 48 -132 208
-161 239 -14 15 -20 27 -14 27 16 0 91 -96 163 -210 54 -85 71 -94 32 -16 -8
15 -10 25 -5 22 6 -4 10 57 11 164 l2 170 -48 -1 c-26 -1 -93 -10 -148 -20z
m86 -146 c13 -16 12 -17 -3 -4 -10 7 -18 15 -18 17 0 8 8 3 21 -13z m86 -25
c-3 -7 -5 -2 -5 12 0 14 2 19 5 13 2 -7 2 -19 0 -25z m7 -58 c5 -19 2 -16 -13
10 -11 19 -20 39 -21 45 0 16 27 -28 34 -55z m-33 -2 c11 -22 18 -42 15 -45
-2 -3 -17 18 -31 47 -15 29 -21 49 -16 45 6 -3 21 -24 32 -47z"/>
<path d="M2025 4615 c-25 -12 -26 -14 -5 -9 28 7 60 23 45 23 -5 0 -23 -6 -40
-14z"/>
<path d="M2033 4597 l-83 -31 91 -58 c50 -33 92 -58 93 -56 5 11 -7 178 -12
177 -4 -1 -44 -15 -89 -32z"/>
<path d="M2170 4623 c0 -13 35 -59 100 -128 46 -49 90 -114 90 -131 0 -5 -12
9 -25 30 -13 22 -42 58 -63 80 -21 23 -57 65 -80 94 l-42 54 0 -85 0 -84 69
-52 c73 -54 132 -116 157 -164 8 -15 24 -37 34 -47 48 -48 106 -204 90 -245
-8 -20 -6 -23 7 -18 12 5 14 1 8 -18 -5 -16 -4 -21 3 -14 5 6 12 29 15 53 4
35 2 42 -9 38 -11 -4 -14 13 -15 92 -1 53 -4 84 -6 68 -4 -27 -7 -23 -33 41
-29 71 -119 234 -170 308 -35 50 -130 143 -130 128z m230 -347 c37 -53 100
-182 99 -205 l-1 -26 -8 26 c-19 63 -97 194 -155 261 -144 164 -154 178 -54
74 57 -60 111 -118 119 -130z"/>
<path d="M1875 4544 c-16 -8 -37 -22 -45 -31 -8 -9 -9 -13 -3 -9 7 4 21 3 30
-3 16 -9 14 -11 -14 -17 -18 -3 -39 -14 -47 -23 -13 -15 -2 -16 150 -16 l165
0 -28 22 c-30 25 -155 93 -169 93 -5 0 -22 -7 -39 -16z"/>
<path d="M1786 4485 c-11 -8 -15 -15 -9 -15 6 0 16 7 23 15 16 19 11 19 -14 0z"/>
<path d="M3230 4431 c0 -29 17 -35 30 -10 8 15 9 19 1 15 -6 -4 -11 -2 -11 3
0 6 -4 11 -10 11 -5 0 -10 -9 -10 -19z"/>
<path d="M1680 4410 c-19 -16 -31 -29 -26 -30 5 0 2 -8 -5 -17 -13 -16 -12
-17 3 -5 10 8 16 18 15 23 -1 5 12 20 28 33 17 14 28 25 25 26 -3 0 -21 -13
-40 -30z"/>
<path d="M2840 4425 c-22 -27 12 -49 38 -23 8 8 9 15 1 25 -15 17 -24 16 -39
-2z m30 -5 c0 -5 -7 -10 -16 -10 -8 0 -12 5 -9 10 3 6 10 10 16 10 5 0 9 -4 9
-10z"/>
<path d="M1792 4423 c-13 -5 25 -36 120 -101 l48 -33 53 44 c29 23 64 51 77
60 21 15 23 19 10 27 -15 10 -285 13 -308 3z"/>
<path d="M1705 4400 c-3 -6 1 -7 9 -4 18 7 21 14 7 14 -6 0 -13 -4 -16 -10z"/>
<path d="M1758 4344 l-2 -69 -3 58 c-2 31 -7 57 -11 57 -4 0 -23 -10 -43 -23
-47 -29 -200 -171 -175 -163 10 4 59 13 109 22 49 9 98 21 109 27 16 10 22 9
32 -5 24 -33 70 -33 121 -2 25 16 45 32 45 36 0 4 -30 28 -67 53 -38 25 -78
53 -90 61 l-23 16 -2 -68z"/>
<path d="M2180 4403 c0 -5 14 -22 31 -39 62 -58 196 -220 227 -274 18 -30 32
-49 32 -41 0 18 -61 131 -70 131 -5 0 -22 24 -38 53 -17 28 -47 68 -69 88 -53
50 -113 93 -113 82z"/>
<path d="M2043 4342 l-72 -56 42 -29 c23 -15 64 -39 91 -53 l49 -26 -6 39 c-4
21 -7 68 -7 104 0 44 -4 68 -12 72 -7 2 -45 -21 -85 -51z"/>
<path d="M2160 4383 c0 -15 11 -29 105 -135 103 -117 158 -181 178 -208 10
-14 4 2 -14 35 -44 82 -268 339 -269 308z"/>
<path d="M1598 4328 c-14 -13 -40 -41 -59 -63 l-34 -39 30 21 c41 29 100 91
93 98 -3 4 -17 -4 -30 -17z"/>
<path d="M2160 4268 l0 -87 43 -21 c23 -11 34 -18 24 -15 -69 19 -67 19 -67
-16 0 -33 4 -36 81 -74 45 -22 87 -40 93 -40 6 0 13 -2 16 -5 11 -12 102 -62
97 -53 -9 14 -112 93 -122 93 -4 0 -2 -7 5 -15 20 -24 1 -17 -39 14 -20 15
-56 38 -79 50 -24 12 -42 25 -39 27 7 7 63 -22 105 -53 33 -24 48 -28 34 -7
-4 6 -18 18 -32 27 -13 9 -19 17 -13 17 6 0 24 -10 40 -23 15 -13 46 -34 68
-46 22 -13 50 -35 63 -50 18 -21 21 -22 16 -6 -9 23 -44 72 -44 59 0 -4 -12 4
-27 18 -16 14 -39 32 -53 41 -13 10 -20 17 -14 17 5 0 30 -14 55 -32 l44 -32
-45 51 c-25 28 -72 82 -105 120 -33 37 -70 82 -82 98 l-22 30 -1 -87z"/>
<path d="M3410 4346 c0 -2 8 -10 18 -17 15 -13 16 -12 3 4 -13 16 -21 21 -21
13z"/>
<path d="M3045 4280 c-3 -5 -1 -10 4 -10 6 0 11 5 11 10 0 6 -2 10 -4 10 -3 0
-8 -4 -11 -10z"/>
<path d="M3480 4270 c0 -4 11 -17 25 -30 21 -19 24 -30 19 -56 -5 -29 -3 -34
18 -39 20 -5 33 -26 68 -108 27 -63 44 -118 44 -144 1 -22 4 -39 8 -37 12 8
29 -74 38 -184 10 -124 2 -324 -13 -315 -6 3 -8 -9 -5 -33 3 -22 -1 -129 -9
-238 -12 -184 -27 -278 -91 -574 -2 -12 -13 -27 -23 -33 -13 -6 -19 -21 -19
-42 0 -18 -7 -63 -16 -102 -8 -38 -17 -79 -18 -90 -22 -137 -92 -355 -141
-435 -47 -77 -124 -180 -135 -180 -5 0 -12 16 -16 35 -3 19 -10 38 -15 41 -13
8 -11 -9 7 -52 l16 -38 -112 -108 c-62 -60 -114 -107 -116 -105 -2 1 -34 -25
-71 -60 -63 -59 -94 -79 -77 -50 5 8 2 7 -9 -2 -15 -12 -21 -11 -45 10 l-27
24 24 -27 c20 -23 22 -30 11 -43 -31 -37 -168 -85 -244 -85 -34 0 -48 12 -26
23 6 3 5 4 -2 3 -7 -2 -13 -12 -13 -23 0 -12 -3 -24 -6 -27 -10 -10 -234 51
-288 78 -28 14 -55 26 -61 26 -6 0 -11 -40 -11 -102 -2 -92 -3 -97 -9 -48 -5
30 -8 81 -9 112 -1 49 -4 59 -23 69 -13 7 -27 17 -31 23 -5 6 -6 -43 -3 -109
l5 -120 -14 110 c-7 61 -20 125 -27 142 -13 30 -14 21 -16 -120 -2 -83 -4
-163 -6 -177 -3 -14 -5 -29 -5 -34 -1 -5 -4 -6 -7 -3 -4 4 -8 79 -9 168 -2
100 -7 165 -14 172 -6 6 -11 16 -11 21 0 6 5 4 10 -4 8 -12 10 -9 10 13 0 15
-4 27 -10 27 -5 0 -10 -4 -10 -10 0 -5 -7 -7 -15 -4 -8 4 -15 17 -15 29 0 13
-5 27 -12 31 -8 5 -9 2 -3 -12 4 -10 9 -100 10 -199 3 -196 1 -190 -16 44 -6
84 -15 165 -19 180 -5 15 -6 -6 -3 -50 7 -95 -7 -401 -17 -374 -4 11 -9 120
-12 241 -4 191 -7 224 -23 245 -13 18 -15 19 -9 4 13 -31 18 -478 5 -470 -7 4
-11 68 -12 178 0 95 -4 195 -9 222 -4 28 -5 -37 -2 -151 3 -110 1 -214 -3
-230 l-8 -29 -7 25 c-5 14 -9 102 -10 195 0 94 -5 188 -10 210 -5 26 -6 0 -3
-75 6 -127 -11 -381 -26 -408 -10 -16 -10 -16 -11 1 0 12 -8 17 -29 17 -17 0
-33 5 -36 10 -4 6 8 10 28 10 32 0 35 3 39 35 2 19 -1 37 -7 40 -6 3 -6 7 3
11 6 3 12 15 12 25 0 11 -5 17 -10 14 -6 -3 -10 1 -10 9 0 10 -9 16 -25 16
-14 0 -25 -6 -25 -12 0 -10 -2 -10 -8 -1 -5 7 -40 13 -87 16 l-80 3 83 2 82 2
0 35 0 35 -79 0 c-43 0 -92 3 -109 6 l-31 6 0 -112 c0 -62 -3 -115 -6 -118 -3
-3 -5 27 -5 66 0 47 -4 72 -11 72 -8 0 -8 4 0 14 13 15 5 65 -10 68 -30 5 -34
0 -40 -42 l-6 -45 -1 47 c-2 40 -5 47 -24 51 l-23 4 23 2 c16 1 22 7 22 26 0
22 -4 25 -36 25 -36 0 -36 -1 -31 -33 l5 -32 -44 0 c-24 0 -44 3 -44 8 0 4 16
7 35 7 32 0 35 3 35 28 l0 28 -94 3 c-69 1 -95 -2 -98 -11 -3 -7 -6 -159 -7
-338 -1 -178 -4 -326 -6 -329 -3 -2 -5 72 -5 165 0 122 -4 174 -12 183 -10 11
-10 14 0 18 8 3 12 36 12 118 0 100 -2 114 -18 118 -16 4 -16 5 1 6 12 1 17
10 17 31 0 24 -5 31 -27 36 -19 5 -30 2 -40 -11 -12 -18 -13 -18 -13 -1 0 15
-7 17 -40 14 -22 -2 -40 0 -40 4 0 5 18 8 40 8 37 0 40 2 40 29 0 34 -6 36
-132 40 l-88 2 -1 -28 c-1 -15 -3 -53 -5 -83 -1 -30 -3 -82 -3 -114 -1 -33 -3
-57 -6 -54 -2 2 -5 84 -5 181 l-1 177 -31 0 c-29 0 -30 -1 -26 -40 2 -22 0
-40 -4 -40 -5 0 -8 18 -8 40 l0 39 -71 0 c-39 0 -73 2 -77 5 -3 3 29 6 71 6
l77 0 0 34 0 35 -147 -2 -148 -2 -6 -70 -5 -70 -2 72 -2 72 -157 4 -158 3 158
2 157 2 0 114 0 115 -37 4 -38 4 38 1 c35 2 37 4 37 36 0 33 -2 35 -37 39
l-38 4 38 1 c37 2 38 3 35 35 -3 30 -6 32 -48 38 l-45 6 48 1 c45 2 47 3 47
32 0 17 -1 30 -2 30 -2 0 -43 3 -93 7 -50 3 -92 7 -94 9 -2 2 39 4 92 4 l97 0
0 30 0 30 -62 1 c-35 0 -85 4 -113 9 -48 7 -48 7 28 9 l77 1 0 30 c0 28 -2 30
-42 32 -24 1 -56 2 -73 3 -16 1 -50 2 -74 3 -24 1 -42 5 -39 8 4 3 72 5 152 5
92 -1 146 3 146 9 0 6 -69 10 -190 10 l-190 0 0 -1120 0 -1120 2500 0 2500 0
0 1064 c0 1005 -1 1065 -17 1069 -17 4 -17 5 0 6 15 1 17 15 17 153 0 126 -2
149 -13 134 -11 -15 -30 -17 -137 -17 -141 0 -180 -6 -180 -25 0 -11 16 -13
80 -8 52 3 80 2 80 -5 0 -6 -12 -8 -28 -5 -19 4 -34 0 -45 -11 -10 -9 -17 -11
-17 -5 0 7 -13 10 -32 8 -29 -3 -33 -7 -36 -35 l-3 -33 116 1 c64 1 119 -2
122 -5 7 -6 -35 -8 -159 -7 -46 1 -78 -3 -78 -9 0 -9 23 -11 198 -12 34 0 62
-4 62 -9 0 -5 -58 -9 -130 -9 -80 0 -130 -4 -130 -10 0 -6 38 -10 93 -10 50 0
86 -4 80 -8 -7 -5 -39 -7 -70 -5 -86 5 -103 -2 -103 -37 l0 -30 98 -1 c116 -1
111 -8 -8 -11 l-85 -3 -3 -32 c-3 -32 -3 -32 50 -36 l53 -3 -52 -2 -53 -2 0
-35 c0 -21 5 -35 13 -35 9 0 9 -2 -1 -9 -8 -5 -13 -23 -12 -42 5 -82 -1 -279
-7 -279 -5 0 -7 72 -6 159 l1 160 -69 0 -70 0 3 -32 c2 -23 9 -33 28 -38 17
-5 5 -7 -37 -8 -59 -1 -62 -2 -66 -28 l-4 -28 -2 28 c-1 24 -5 27 -36 27 -33
0 -35 -2 -35 -35 l0 -35 122 0 c67 0 119 -2 117 -5 -3 -2 -71 -5 -152 -6 -101
-1 -147 -5 -148 -13 0 -6 -2 -39 -5 -73 l-4 -62 47 -4 48 -3 -47 -2 c-43 -2
-48 -4 -48 -26 0 -43 16 -47 220 -46 105 1 194 -1 198 -4 6 -7 11 -7 -223 -10
-260 -5 -265 -5 -266 -36 0 -24 -1 -24 -9 -4 -5 12 -20 24 -33 26 -21 4 -26 1
-29 -24 l-5 -28 68 0 c56 0 68 3 72 17 4 17 5 17 6 1 0 -10 9 -18 19 -18 16
-1 16 -1 0 -10 -14 -9 -17 -32 -17 -170 l-1 -160 167 -3 c95 -1 33 -3 -142 -5
-207 -1 -315 2 -325 9 -11 8 28 9 138 5 l152 -5 0 124 0 124 -52 4 -53 3 53 2
52 2 0 34 0 35 -62 0 c-35 -1 -69 -5 -75 -11 -9 -7 -13 -7 -13 0 0 6 -28 10
-70 10 -45 0 -70 -4 -70 -11 0 -8 -4 -7 -12 1 -7 7 -20 12 -30 12 -14 0 -18
-8 -18 -35 l0 -34 118 -4 117 -3 -117 -2 -118 -2 0 -34 c0 -24 5 -36 18 -39
16 -4 16 -5 0 -6 -16 -1 -18 -12 -18 -80 0 -75 1 -80 23 -84 l22 -4 -22 -2
c-19 -1 -23 -7 -24 -33 -1 -18 -5 -44 -9 -58 -5 -15 -8 50 -9 158 l-1 182 -30
0 c-28 0 -30 -2 -30 -40 0 -40 0 -40 -39 -40 -40 0 -40 0 -44 -43 l-4 -42 -1
43 c-2 40 -4 42 -32 42 -27 0 -30 -3 -30 -34 0 -33 -1 -34 -46 -38 -25 -2 -51
0 -57 4 -9 6 -9 8 1 8 18 0 15 57 -4 64 -32 12 -34 4 -35 -121 -1 -101 -3
-117 -9 -78 -5 28 -9 84 -10 125 -1 50 -4 68 -10 55 -7 -18 -8 -19 -15 -2 -11
26 -35 21 -35 -8 0 -14 -4 -25 -10 -25 -5 0 -10 10 -10 23 0 17 -6 22 -29 24
-25 2 -30 -2 -34 -25 l-4 -27 -2 28 c-1 24 -5 27 -36 27 -32 0 -35 -2 -35 -30
l0 -30 105 0 c58 0 105 -4 105 -8 0 -4 -37 -8 -82 -8 -46 -1 -107 -3 -135 -5
-46 -3 -53 -7 -53 -26 0 -12 -6 -24 -12 -27 -7 -3 5 -5 27 -4 22 0 47 -2 55
-5 8 -3 24 -8 35 -11 11 -2 -13 -4 -53 -3 l-73 2 5 -120 5 -120 -14 65 c-16
74 -12 403 7 548 9 76 14 88 63 155 102 141 122 188 180 420 19 76 35 141 35
143 0 2 26 16 58 30 79 35 139 102 201 226 70 140 92 231 94 388 2 110 -1 131
-20 173 -29 63 -63 77 -117 48 -22 -12 -42 -19 -44 -16 -3 3 0 59 7 125 23
213 10 556 -25 673 -3 9 -1 17 4 17 6 0 13 -11 16 -24 5 -20 12 -24 36 -24 26
1 30 5 30 30 0 27 -1 28 -55 28 -42 0 -55 3 -55 15 0 12 13 15 55 15 52 0 55
1 55 25 0 22 -4 25 -32 25 -45 0 -79 -10 -72 -21 3 -5 1 -9 -4 -9 -5 0 -21 26
-35 58 -15 31 -35 71 -44 87 -30 54 -33 64 -33 99 0 31 -3 34 -35 38 -19 2
-35 1 -35 -2z m275 -349 c3 -5 1 -12 -5 -16 -5 -3 -10 1 -10 9 0 18 6 21 15 7z
m75 -811 c23 -23 26 -40 8 -40 -8 0 -6 -5 4 -10 19 -12 43 -75 33 -90 -3 -5
-12 -10 -20 -10 -8 0 -17 -5 -21 -11 -4 -8 1 -9 16 -4 l23 7 -7 -111 c-7 -105
-18 -165 -37 -185 -5 -6 -9 -19 -9 -30 0 -26 -74 -170 -119 -229 -33 -44 -110
-97 -142 -97 -21 0 0 110 29 149 l26 36 -28 -25 -28 -25 20 35 c11 19 27 76
36 125 9 50 23 115 31 145 7 30 24 120 36 199 20 129 25 147 48 167 32 29 75
30 101 4z m1160 -734 c0 -11 -19 -15 -25 -6 -3 5 1 10 9 10 9 0 16 -2 16 -4z
m-3 -92 c-3 -3 -12 -4 -19 -1 -8 3 -5 6 6 6 11 1 17 -2 13 -5z m-7 -34 c0 -5
-2 -10 -4 -10 -3 0 -8 5 -11 10 -3 6 -1 10 4 10 6 0 11 -4 11 -10z m5 -40 c3
-5 2 -10 -4 -10 -5 0 -13 5 -16 10 -3 6 -2 10 4 10 5 0 13 -4 16 -10z m-365
-316 c0 -2 -9 -4 -21 -4 -11 0 -18 4 -14 10 5 8 35 3 35 -6z m-4353 -80 c-3
-3 -12 -4 -19 -1 -8 3 -5 6 6 6 11 1 17 -2 13 -5z m4126 -81 c-7 -2 -19 -2
-25 0 -7 3 -2 5 12 5 14 0 19 -2 13 -5z m-1171 -446 c-3 -205 -8 -287 -16
-284 -6 2 -16 52 -22 118 l-12 114 3 -112 c3 -104 -4 -137 -19 -97 -3 9 -6 59
-7 112 0 64 -3 90 -9 77 -5 -11 -9 -64 -9 -117 -1 -106 -20 -139 -23 -40 l-1
57 -6 -55 c-6 -53 -7 -55 -38 -58 l-33 -3 -1 148 c-2 188 -7 166 -11 -41 -2
-117 -6 -160 -16 -164 -9 -3 -11 42 -10 207 l3 211 53 52 52 53 1 -65 2 -65 7
65 c3 36 10 71 14 78 14 23 22 12 19 -25 -2 -31 0 -28 8 12 7 35 20 59 42 80
18 17 33 30 33 30 1 0 -1 -130 -4 -288z m1445 151 c-2 -18 -4 -6 -4 27 0 33 2
48 4 33 2 -15 2 -42 0 -60z m0 -100 c-3 -8 -6 -5 -6 6 -1 11 2 17 5 13 3 -3 4
-12 1 -19z m-1688 -108 c1 -101 -13 -209 -29 -224 -9 -8 -10 13 -6 84 6 104 3
102 -14 -7 -13 -80 -27 -98 -23 -30 1 23 0 33 -3 22 -3 -11 -9 -29 -14 -40 -6
-11 -11 -51 -13 -90 -2 -38 -4 4 -6 95 -3 174 -5 187 -16 78 -4 -38 -11 -68
-16 -68 -5 0 -9 33 -9 73 0 50 -3 67 -10 57 -5 -8 -10 -38 -10 -66 l0 -51 -41
7 c-27 5 -51 18 -69 39 -24 26 -37 31 -77 32 l-48 1 55 13 c68 17 202 81 244
116 93 80 91 79 98 61 4 -9 7 -55 7 -102z m-2106 103 c-7 -2 -19 -2 -25 0 -7
3 -2 5 12 5 14 0 19 -2 13 -5z m3185 0 c-16 -2 -40 -2 -55 0 -16 2 -3 4 27 4
30 0 43 -2 28 -4z m-278 -133 c0 -11 -4 -20 -9 -20 -5 0 -7 9 -4 20 3 11 7 20
9 20 2 0 4 -9 4 -20z m-2843 -43 c-8 -13 -12 -29 -8 -36 5 -7 6 -23 3 -37 -5
-29 -42 -33 -63 -7 -13 15 -11 16 14 11 15 -3 30 -1 34 5 3 6 1 7 -5 3 -7 -4
-12 -2 -12 3 0 6 -8 11 -17 12 -15 0 -15 2 2 9 19 8 19 9 -2 9 -14 1 -23 7
-23 16 0 17 32 33 69 34 22 1 23 0 8 -22z m2551 16 c-15 -2 -42 -2 -60 0 -18
2 -6 4 27 4 33 0 48 -2 33 -4z m355 -10 c-29 -2 -77 -2 -105 0 -29 2 -6 3 52
3 58 0 81 -1 53 -3z m-3076 -95 c-3 -7 -5 -2 -5 12 0 14 2 19 5 13 2 -7 2 -19
0 -25z m12 -46 c13 -25 -21 -48 -39 -27 -15 18 -6 45 14 45 9 0 20 -8 25 -18z
m2811 -18 c0 -16 -31 -19 -46 -4 -5 5 -59 11 -119 13 l-110 3 117 2 c68 1 120
6 123 12 9 14 35 -7 35 -26z m358 9 c4 -25 -22 -37 -38 -17 -10 11 -10 17 0
29 17 20 34 14 38 -12z m357 -13 c-6 -9 -9 -9 -16 1 -10 17 0 34 13 21 6 -6 7
-16 3 -22z m-2853 -45 l-4 -65 39 0 c37 0 40 -3 68 -55 19 -34 35 -53 43 -50
9 3 11 -1 7 -14 -9 -28 15 -71 39 -71 19 -1 19 -2 4 -11 -17 -9 -17 -12 -2
-41 12 -24 18 -28 25 -17 6 10 9 10 9 2 0 -7 11 -13 25 -13 19 0 26 7 33 33 8
31 7 32 -27 38 l-36 6 41 2 c44 1 64 15 64 43 0 10 6 18 13 18 9 0 9 2 -1 9
-10 6 -9 10 7 14 14 3 21 13 21 30 0 18 10 31 35 46 19 11 35 24 35 29 0 4 21
5 48 2 l47 -5 0 -275 0 -275 -47 -3 -48 -3 -1 68 c-3 136 0 127 -39 134 l-35
6 32 2 c24 1 31 5 30 20 -1 12 -9 19 -23 19 -18 0 -28 -13 -48 -58 -14 -32
-26 -60 -26 -63 0 -4 -12 -31 -26 -62 -21 -44 -31 -55 -51 -55 -19 0 -28 9
-45 48 -11 26 -27 55 -36 65 -8 9 -12 17 -8 17 4 0 -4 15 -18 33 -14 19 -24
36 -21 39 11 11 -19 58 -37 58 -16 0 -18 -10 -18 -119 0 -66 -3 -126 -6 -135
-4 -11 -19 -16 -50 -16 l-44 0 -1 50 c-1 28 -3 55 -4 60 -1 6 -3 28 -4 50 -1
31 -5 40 -18 40 -17 1 -17 1 0 14 15 12 22 66 7 66 -3 0 -5 35 -5 77 0 52 -4
78 -13 81 -17 5 -15 22 2 22 10 0 13 10 10 38 -3 31 1 39 19 47 18 8 22 19 25
68 2 31 -1 57 -5 57 -54 4 -118 11 -122 15 -2 3 29 5 70 5 l75 0 -4 -65z m193
55 c-11 -5 -27 -9 -35 -9 -9 0 -8 4 5 9 11 5 27 9 35 9 9 0 8 -4 -5 -9z m879
1 c7 -11 -14 -20 -31 -13 -7 2 -10 8 -7 13 7 12 31 12 38 0z m1171 -1 c-33 -4
-64 -3 -69 2 -6 4 21 7 60 7 l69 -2 -60 -7z m232 -252 c-1 -40 -3 -10 -3 67 0
77 1 110 3 73 2 -37 2 -100 0 -140z m-1689 131 c53 0 117 -4 142 -7 41 -6 45
-10 48 -37 1 -16 -1 -35 -5 -41 -7 -10 -128 -23 -220 -24 -20 0 -23 -5 -23
-41 0 -24 4 -38 10 -34 6 3 10 -4 10 -17 0 -18 -2 -20 -10 -8 -8 13 -10 12
-10 -2 0 -16 10 -18 73 -18 39 0 89 -3 110 -7 37 -6 38 -6 35 -47 l-3 -41
-107 -3 -108 -3 0 -69 0 -69 123 -3 122 -3 3 -41 3 -42 -50 -7 c-46 -6 -291 2
-300 11 -2 2 -6 45 -9 96 -2 51 -10 96 -16 101 -8 5 -6 10 4 17 10 6 11 10 3
10 -18 0 -18 141 -1 158 9 9 10 15 2 20 -15 9 -15 125 0 134 6 4 23 8 39 8 24
0 27 4 28 33 2 30 2 30 6 5 l4 -28 97 -1z m556 -3 c27 -3 51 -8 53 -9 2 -2 4
-21 6 -43 l2 -39 -127 -3 -128 -3 0 -64 0 -65 68 -1 c37 -1 81 -4 97 -8 27 -6
30 -10 30 -46 l0 -40 -97 -3 -98 -3 0 -115 0 -115 -47 3 c-40 3 -48 6 -53 28
-12 47 -12 487 0 509 9 18 20 21 73 21 36 0 68 5 75 12 9 9 12 9 12 0 0 -14
53 -5 59 10 1 5 8 3 15 -5 6 -8 33 -17 60 -21z m421 -46 c14 -27 30 -50 36
-50 5 0 8 -4 5 -8 -6 -10 28 -100 102 -275 28 -66 54 -132 57 -148 7 -29 6
-29 -42 -29 l-48 0 -27 60 -26 60 -114 0 -113 0 -19 -48 c-11 -26 -23 -53 -29
-59 -13 -18 -87 -17 -87 0 0 24 66 205 150 412 53 131 56 135 95 135 32 0 37
-5 60 -50z m359 -2 c8 -68 8 -220 -1 -380 l-6 -128 -43 0 c-35 0 -44 4 -50 23
-4 12 -12 25 -18 29 -8 6 -7 8 2 8 15 0 16 52 0 68 -9 9 -9 12 0 12 7 0 12 13
12 30 0 17 -5 30 -11 30 -8 0 -8 4 -1 13 6 7 11 75 11 164 1 84 4 159 7 168 4
10 20 15 49 15 l42 0 7 -52z m-2807 -320 c-3 -7 -5 -2 -5 12 0 14 2 19 5 13 2
-7 2 -19 0 -25z m3176 13 c-4 -3 -11 -10 -15 -15 -5 -5 -8 0 -8 12 0 15 4 20
16 15 9 -3 12 -9 7 -12z"/>
<path d="M3799 3043 c-13 -16 -12 -17 4 -4 16 13 21 21 13 21 -2 0 -10 -8 -17
-17z"/>
<path d="M3725 2939 c-4 -6 -5 -12 -2 -15 2 -3 7 2 10 11 7 17 1 20 -8 4z"/>
<path d="M3779 2773 c-13 -16 -12 -17 4 -4 16 13 21 21 13 21 -2 0 -10 -8 -17
-17z"/>
<path d="M3680 2691 c0 -6 4 -13 10 -16 6 -3 7 1 4 9 -7 18 -14 21 -14 7z"/>
<path d="M3705 2528 l-50 -53 53 50 c48 46 57 55 49 55 -1 0 -25 -24 -52 -52z"/>
<path d="M3032 1330 c0 -14 2 -19 5 -12 2 6 2 18 0 25 -3 6 -5 1 -5 -13z"/>
<path d="M3094 1215 c0 -55 1 -76 3 -47 2 29 2 74 0 100 -2 26 -3 2 -3 -53z"/>
<path d="M2955 1280 c-4 -23 -5 -44 -2 -46 3 -3 8 13 12 36 4 23 5 44 2 46 -3
3 -8 -13 -12 -36z"/>
<path d="M3124 643 c-3 -10 -10 -28 -15 -41 -5 -13 -9 -32 -9 -43 0 -18 6 -20
43 -18 49 3 67 14 67 40 0 12 -7 19 -20 19 -11 0 -20 5 -20 10 0 6 6 10 14 10
9 0 12 7 9 18 -6 25 -61 29 -69 5z"/>
<path d="M1450 4233 l0 -38 20 25 c25 32 25 50 0 50 -16 0 -20 -7 -20 -37z"/>
<path d="M1910 4240 c-29 -25 -32 -31 -20 -40 8 -5 19 -10 23 -10 4 0 49 -17
100 -39 107 -45 147 -58 132 -43 -20 21 -134 72 -191 87 l-59 15 55 -5 c30 -3
84 -19 119 -35 68 -32 81 -35 81 -20 0 5 -18 19 -41 30 -22 12 -62 37 -89 56
-26 19 -54 34 -61 34 -8 0 -30 -14 -49 -30z"/>
<path d="M3233 4234 c-9 -23 13 -40 32 -24 12 10 13 16 4 26 -15 18 -28 18
-36 -2z"/>
<path d="M3358 4223 c7 -3 16 -2 19 1 4 3 -2 6 -13 5 -11 0 -14 -3 -6 -6z"/>
<path d="M1645 4214 c-75 -18 -156 -46 -153 -54 10 -28 136 -160 153 -160 11
0 37 19 58 43 l39 42 -34 -45 c-26 -34 -33 -51 -29 -71 3 -15 48 -71 102 -126
79 -82 99 -98 116 -92 11 4 67 57 124 119 78 83 103 117 101 134 -1 13 4 29
13 36 37 30 20 40 -224 131 -58 22 -119 39 -135 39 -17 0 -49 2 -71 4 -22 3
-49 2 -60 0z m112 -116 c-2 -18 -4 -4 -4 32 0 36 2 50 4 33 2 -18 2 -48 0 -65z
m13 -92 c0 -3 -4 -8 -10 -11 -5 -3 -10 -1 -10 4 0 6 5 11 10 11 6 0 10 -2 10
-4z"/>
<path d="M3110 4210 c0 -5 5 -10 10 -10 6 0 10 5 10 10 0 6 -4 10 -10 10 -5 0
-10 -4 -10 -10z"/>
<path d="M1467 4073 c-4 -37 -7 -129 -6 -203 0 -109 3 -131 12 -116 26 41 129
167 133 163 3 -2 -25 -43 -61 -91 -77 -103 -81 -129 -35 -212 17 -30 44 -79
61 -110 21 -37 34 -52 39 -43 5 6 8 129 8 271 l0 259 -66 72 c-36 40 -69 73
-72 75 -4 1 -10 -28 -13 -65z"/>
<path d="M2980 4130 c-8 -5 -10 -10 -5 -10 6 0 17 5 25 10 8 5 11 10 5 10 -5
0 -17 -5 -25 -10z"/>
<path d="M1417 4073 c-29 -66 -43 -115 -52 -188 -6 -47 -4 -53 32 -100 l38
-50 7 175 c4 96 9 185 11 198 8 40 -10 23 -36 -35z"/>
<path d="M3469 4093 l-24 -28 28 24 c25 23 32 31 24 31 -2 0 -14 -12 -28 -27z"/>
<path d="M2828 4064 c-16 -8 -28 -17 -28 -20 0 -2 10 1 23 7 12 7 24 11 27 10
2 -1 6 2 8 8 5 14 3 13 -30 -5z"/>
<path d="M2160 4056 c0 -7 7 -19 16 -27 14 -11 236 -90 241 -85 4 4 -234 126
-246 126 -6 0 -11 -6 -11 -14z"/>
<path d="M2525 4049 c-4 -6 -5 -12 -2 -15 2 -3 7 2 10 11 7 17 1 20 -8 4z"/>
<path d="M2824 4015 c-4 -9 -2 -21 4 -27 15 -15 44 -1 40 19 -4 23 -36 29 -44
8z m26 -5 c0 -5 -4 -10 -10 -10 -5 0 -10 5 -10 10 0 6 5 10 10 10 6 0 10 -4
10 -10z"/>
<path d="M1313 4013 c-21 -8 -16 -43 6 -43 20 0 35 25 25 41 -6 10 -12 10 -31
2z"/>
<path d="M2715 4000 c-13 -6 -15 -9 -5 -9 8 0 22 4 30 9 18 12 2 12 -25 0z"/>
<path d="M2171 3986 c-8 -10 -11 -84 -8 -257 2 -134 6 -254 9 -265 6 -32 309
-360 320 -348 3 2 3 120 0 262 -4 220 -7 259 -21 269 -15 12 -14 14 2 27 14
11 17 30 17 119 l0 105 -57 20 c-246 87 -246 87 -262 68z m229 -286 c12 -8 11
-10 -7 -10 -13 0 -23 5 -23 10 0 13 11 13 30 0z m5 -40 c3 -5 -1 -10 -9 -10
-9 0 -16 5 -16 10 0 6 4 10 9 10 6 0 13 -4 16 -10z m-55 -15 c0 -2 -10 -10
-22 -16 -21 -11 -22 -11 -9 4 13 16 31 23 31 12z m-70 -48 c0 -2 -10 -12 -22
-23 l-23 -19 19 23 c18 21 26 27 26 19z m-50 -40 c0 -2 -12 -14 -27 -28 l-28
-24 24 28 c23 25 31 32 31 24z"/>
<path d="M2553 3975 c-6 -14 -7 -25 -2 -25 11 0 22 25 17 39 -1 6 -8 -1 -15
-14z"/>
<path d="M2655 3980 c-13 -6 -15 -9 -5 -9 8 0 22 4 30 9 18 12 2 12 -25 0z"/>
<path d="M2128 3970 c-1 -5 -49 -59 -105 -119 -69 -73 -103 -117 -103 -133 0
-15 31 -53 97 -120 54 -54 93 -98 86 -98 -6 0 -49 40 -95 89 -122 127 -117
128 -253 -20 -60 -67 -112 -125 -114 -131 -2 -7 11 -9 40 -4 53 7 338 11 345
4 2 -3 -79 -7 -182 -10 -223 -6 -224 -7 -217 -104 l5 -60 140 -1 140 -2 -4 44
-3 44 30 -6 c16 -4 50 -12 75 -20 l45 -13 -40 6 c-22 3 -52 8 -67 11 -27 5
-28 4 -28 -34 l0 -39 107 -27 c82 -20 109 -24 115 -14 5 8 8 7 8 -5 0 -10 14
-25 31 -33 26 -14 151 -121 148 -128 0 -1 5 -14 11 -29 11 -23 16 -26 34 -16
20 10 20 9 5 -7 -15 -15 -14 -23 12 -93 15 -42 30 -89 34 -104 6 -31 32 -38
42 -11 6 15 7 15 13 -2 4 -11 9 43 13 119 4 99 9 142 20 154 20 24 11 45 -14
32 -10 -6 -19 -16 -19 -23 0 -8 4 -7 10 3 5 8 12 12 15 8 3 -3 -2 -13 -11 -23
-16 -15 -18 -15 -26 -1 -5 9 -17 16 -26 17 -12 0 -11 3 6 9 12 5 22 15 22 21
0 6 -40 53 -88 103 -48 50 -114 120 -147 156 -57 64 -69 70 -132 70 -13 0 -23
5 -23 10 0 6 7 10 15 10 9 0 19 8 22 18 4 9 10 20 15 23 11 7 18 489 7 489 -4
0 -9 -4 -11 -10z m-211 -382 c-3 -8 -6 -5 -6 6 -1 11 2 17 5 13 3 -3 4 -12 1
-19z m-160 -224 c-3 -3 -12 -4 -19 -1 -8 3 -5 6 6 6 11 1 17 -2 13 -5z m390
-101 c-2 -16 -4 -5 -4 22 0 28 2 40 4 28 2 -13 2 -35 0 -50z m308 -223 c-3 -5
-12 -10 -18 -10 -7 0 -6 4 3 10 19 12 23 12 15 0z m22 -177 c-2 -16 -4 -3 -4
27 0 30 2 43 4 28 2 -16 2 -40 0 -55z"/>
<path d="M3331 3963 c0 -11 3 -13 6 -5 2 6 9 12 15 12 6 0 8 -7 4 -15 -3 -8
-1 -15 4 -15 6 0 10 9 10 20 0 13 -7 20 -20 20 -13 0 -20 -6 -19 -17z"/>
<path d="M2600 3960 c-8 -5 -10 -10 -5 -10 6 0 17 5 25 10 8 5 11 10 5 10 -5
0 -17 -5 -25 -10z"/>
<path d="M774 3897 c3 -28 6 -98 6 -154 l0 -101 70 0 70 0 0 73 0 74 -42 4
-43 4 42 1 c37 2 42 5 46 30 l4 27 2 -27 c1 -24 5 -28 31 -28 28 0 30 2 30 40
0 32 4 40 18 39 10 0 12 -3 5 -6 -15 -5 -18 -73 -4 -73 6 0 6 -12 1 -31 -11
-39 -6 -49 26 -49 19 0 24 5 25 28 1 15 3 52 4 82 2 30 1 69 -2 86 l-5 32
-145 1 -146 1 7 -53z m179 -20 c18 -4 17 -5 -5 -6 -24 -1 -28 3 -27 27 1 22 2
23 6 5 2 -13 13 -24 26 -26z"/>
<path d="M1643 3933 c-10 -4 -13 -61 -13 -241 l0 -237 115 120 c79 83 114 127
115 144 0 16 -26 50 -87 113 -93 94 -110 108 -130 101z"/>
<path d="M3710 3856 c0 -9 7 -16 16 -16 9 0 14 5 12 12 -6 18 -28 21 -28 4z"/>
<path d="M3815 3862 c-2 -2 -1 -10 1 -17 3 -7 1 -16 -5 -20 -18 -10 -12 -25 9
-25 13 0 20 7 20 20 0 11 5 20 10 20 6 0 10 -9 10 -19 0 -11 8 -22 18 -24 16
-4 16 -5 0 -6 -14 -1 -18 -10 -18 -36 0 -32 2 -35 30 -35 l31 0 -3 73 -3 72
-48 0 c-26 1 -49 -1 -52 -3z"/>
<path d="M1332 3795 c0 -16 2 -22 5 -12 2 9 2 23 0 30 -3 6 -5 -1 -5 -18z"/>
<path d="M1342 3740 c-7 -39 -13 -105 -14 -148 l-2 -77 -6 90 c-5 77 -6 69 -6
-60 0 -82 1 -123 3 -90 3 40 7 55 13 45 7 -11 13 -5 26 25 9 22 28 65 42 95
15 30 25 60 23 65 -2 6 -3 19 -3 30 0 11 -15 38 -32 58 l-32 38 -12 -71z"/>
<path d="M930 3755 c0 -32 2 -35 30 -35 28 0 30 3 30 35 0 32 -2 35 -30 35
-28 0 -30 -3 -30 -35z"/>
<path d="M3822 3781 c-11 -7 -11 -9 2 -14 10 -4 16 -1 16 8 0 17 -1 17 -18 6z"/>
<path d="M1322 3740 c0 -14 2 -19 5 -12 2 6 2 18 0 25 -3 6 -5 1 -5 -13z"/>
<path d="M3831 3734 c0 -11 3 -14 6 -6 3 7 2 16 -1 19 -3 4 -6 -2 -5 -13z"/>
<path d="M3086 3733 c-9 -10 -7 -43 3 -43 17 0 41 12 41 21 0 11 -36 30 -44
22z"/>
<path d="M3530 3695 c0 -18 5 -25 20 -25 15 0 20 7 20 25 0 18 -5 25 -20 25
-15 0 -20 -7 -20 -25z"/>
<path d="M932 3681 c1 -24 6 -30 30 -33 27 -4 28 -3 26 29 -2 29 -6 33 -29 33
-24 0 -28 -4 -27 -29z m25 -13 c-3 -8 -6 -5 -6 6 -1 11 2 17 5 13 3 -3 4 -12
1 -19z"/>
<path d="M1040 3695 c0 -8 2 -15 4 -15 2 0 6 7 10 15 3 8 1 15 -4 15 -6 0 -10
-7 -10 -15z"/>
<path d="M1016 3674 c-8 -20 -8 -24 2 -24 4 0 8 9 9 20 2 24 -3 26 -11 4z"/>
<path d="M2502 3660 c0 -14 2 -19 5 -12 2 6 2 18 0 25 -3 6 -5 1 -5 -13z"/>
<path d="M1045 3660 c-3 -5 -1 -10 4 -10 6 0 11 5 11 10 0 6 -2 10 -4 10 -3 0
-8 -4 -11 -10z"/>
<path d="M1409 3595 c-20 -44 -42 -98 -50 -120 -16 -47 -18 -232 -4 -317 l10
-58 28 23 c15 12 29 35 32 52 21 140 25 211 23 345 l-3 155 -36 -80z m11 -323
c-9 -13 -10 -2 -6 47 3 35 7 89 8 120 1 31 4 10 5 -47 2 -63 -1 -109 -7 -120z"/>
<path d="M1467 3477 c-4 -95 -10 -196 -13 -223 l-6 -49 27 40 c15 22 45 63 65
90 47 63 56 107 31 143 -10 15 -36 60 -58 100 l-40 73 -6 -174z"/>
<path d="M700 3600 c0 -19 5 -30 14 -30 8 0 21 -3 30 -6 13 -5 16 1 16 30 0
33 -2 36 -30 36 -27 0 -30 -3 -30 -30z"/>
<path d="M780 3598 c0 -30 3 -33 30 -34 28 -1 30 2 30 32 0 31 -3 34 -30 34
-27 0 -30 -3 -30 -32z"/>
<path d="M860 3600 c0 -27 3 -30 31 -30 22 0 28 4 22 13 -4 6 -6 20 -5 30 2
12 -4 17 -22 17 -22 0 -26 -4 -26 -30z m35 11 c3 -5 1 -12 -5 -16 -5 -3 -10 1
-10 9 0 18 6 21 15 7z"/>
<path d="M3950 3600 c0 -20 5 -30 15 -30 10 0 15 10 15 30 0 20 -5 30 -15 30
-10 0 -15 -10 -15 -30z"/>
<path d="M4080 3600 c0 -25 4 -30 25 -30 14 0 25 5 25 10 0 6 -6 9 -12 8 -7
-2 -14 7 -16 20 -5 33 -22 27 -22 -8z"/>
<path d="M4121 3614 c0 -11 3 -14 6 -6 3 7 2 16 -1 19 -3 4 -6 -2 -5 -13z"/>
<path d="M4000 3593 c0 -19 5 -23 30 -23 17 0 30 5 30 11 0 6 -9 9 -20 6 -12
-3 -24 1 -30 11 -8 15 -9 14 -10 -5z"/>
<path d="M3250 3565 c19 -19 36 -35 39 -35 3 0 -10 16 -29 35 -19 19 -36 35
-39 35 -3 0 10 -16 29 -35z"/>
<path d="M700 3520 c0 -23 4 -30 20 -30 11 0 23 0 28 0 4 0 7 14 8 30 1 27 -2
30 -27 30 -25 0 -29 -4 -29 -30z"/>
<path d="M780 3470 c0 -45 4 -80 10 -80 5 0 7 7 4 15 -5 11 1 15 20 15 22 0
26 4 26 31 0 28 -3 31 -25 27 -14 -3 -25 -1 -25 3 0 5 11 9 25 9 21 0 25 5 25
30 0 27 -3 30 -30 30 l-30 0 0 -80z"/>
<path d="M860 3520 c0 -26 3 -30 28 -29 16 1 20 3 10 6 -10 2 -18 13 -18 23 0
10 8 21 18 23 10 3 6 5 -10 6 -25 1 -28 -3 -28 -29z"/>
<path d="M3955 3520 c0 -37 19 -34 23 3 2 17 -1 27 -10 27 -8 0 -13 -12 -13
-30z"/>
<path d="M4200 3531 c0 -20 -4 -23 -25 -18 -15 2 -24 0 -22 -6 1 -5 17 -11 35
-13 31 -4 32 -2 26 24 -9 36 -14 41 -14 13z"/>
<path d="M4224 3534 c3 -9 6 -22 6 -29 0 -7 14 -15 30 -17 28 -4 30 -3 30 29
0 31 -2 33 -36 33 -29 0 -35 -3 -30 -16z"/>
<path d="M2831 3461 c-16 -28 14 -51 36 -28 13 13 14 19 3 31 -17 21 -27 20
-39 -3z m29 -1 c0 -5 -5 -10 -11 -10 -5 0 -7 5 -4 10 3 6 8 10 11 10 2 0 4 -4
4 -10z"/>
<path d="M702 3448 c2 -17 11 -24 31 -26 23 -3 27 0 27 22 0 22 -4 26 -31 26
-26 0 -30 -3 -27 -22z"/>
<path d="M860 3443 c1 -24 2 -25 11 -10 5 9 17 17 24 17 8 0 15 5 15 10 0 6
-11 10 -25 10 -21 0 -25 -5 -25 -27z"/>
<path d="M4160 3461 c0 -5 -3 -16 -6 -25 -5 -13 1 -16 28 -16 30 0 34 3 33 23
-1 16 -9 23 -28 25 -15 2 -27 -1 -27 -7z"/>
<path d="M4230 3445 c0 -21 5 -25 28 -25 22 0 27 5 28 25 2 21 -2 25 -27 25
-24 0 -29 -4 -29 -25z"/>
<path d="M4001 3443 c-1 -19 4 -23 32 -23 22 0 28 3 18 9 -8 5 -20 7 -27 4 -7
-2 -14 4 -17 14 -4 14 -5 14 -6 -4z"/>
<path d="M4120 3449 c0 -5 5 -7 10 -4 6 3 10 8 10 11 0 2 -4 4 -10 4 -5 0 -10
-5 -10 -11z"/>
<path d="M3955 3439 c-10 -15 1 -23 20 -15 9 3 13 10 10 16 -8 13 -22 13 -30
-1z"/>
<path d="M880 3430 c0 -5 7 -10 16 -10 8 0 12 5 9 10 -3 6 -10 10 -16 10 -5 0
-9 -4 -9 -10z"/>
<path d="M3361 3427 c-9 -11 -8 -17 3 -26 18 -15 48 -3 44 18 -4 21 -32 26
-47 8z"/>
<path d="M4084 3429 c-3 -5 6 -9 20 -9 31 0 34 6 6 13 -11 3 -23 1 -26 -4z"/>
<path d="M1569 3353 c-14 -21 -49 -72 -77 -114 -43 -62 -51 -81 -44 -99 l8
-23 25 31 c13 16 50 47 83 67 57 36 58 38 52 74 -3 20 -6 51 -6 69 0 42 -11
41 -41 -5z"/>
<path d="M394 3328 l1 -53 60 1 c164 2 163 2 157 29 -4 23 -9 25 -55 25 -77 0
-46 14 36 16 90 2 89 2 83 13 -4 5 0 12 6 14 7 3 -1 6 -19 6 -17 1 -34 -5 -36
-11 -4 -10 -6 -10 -6 0 -1 9 -31 12 -115 12 l-114 0 2 -52z m69 5 c-7 -2 -19
-2 -25 0 -7 3 -2 5 12 5 14 0 19 -2 13 -5z"/>
<path d="M705 3370 c-9 -15 3 -30 24 -30 10 0 21 9 24 20 4 16 0 20 -18 20
-13 0 -27 -4 -30 -10z"/>
<path d="M780 3362 c0 -15 6 -18 31 -14 19 3 26 7 19 12 -9 6 -9 9 1 13 8 3
-1 6 -18 6 -26 1 -33 -3 -33 -17z"/>
<path d="M860 3365 c0 -8 7 -15 15 -15 8 0 15 4 15 9 0 5 -7 11 -15 15 -9 3
-15 0 -15 -9z"/>
<path d="M4306 3373 c-17 -17 0 -23 64 -23 40 0 70 4 70 10 0 12 2 11 -71 16
-31 1 -59 0 -63 -3z"/>
<path d="M4457 3373 c-4 -3 -7 -15 -7 -25 0 -16 -9 -18 -70 -18 l-70 0 0 -30
0 -30 175 0 175 0 0 24 c0 13 -3 37 -6 54 -6 31 -8 31 -63 31 -31 -1 -62 -6
-68 -11 -9 -7 -13 -7 -13 1 0 12 -42 15 -53 4z m64 -65 l-5 -33 -6 30 c-7 32
-3 48 9 41 4 -3 5 -20 2 -38z"/>
<path d="M630 3305 c0 -21 5 -25 30 -25 17 0 30 5 30 10 0 6 -4 10 -10 10 -5
0 -10 5 -10 11 0 5 5 7 12 3 7 -4 8 -3 4 4 -4 7 -18 12 -32 12 -19 0 -24 -5
-24 -25z"/>
<path d="M700 3305 c0 -21 5 -25 30 -25 25 0 30 4 30 25 0 21 -5 25 -30 25
-25 0 -30 -4 -30 -25z"/>
<path d="M780 3305 c0 -23 3 -25 28 -19 34 8 32 7 24 20 -4 6 -17 14 -29 18
-20 6 -23 4 -23 -19z"/>
<path d="M880 3301 c0 -17 18 -21 24 -6 3 9 0 15 -9 15 -8 0 -15 -4 -15 -9z"/>
<path d="M3371 3272 c-1 -20 -5 -22 -23 -16 -35 12 -234 6 -278 -8 -62 -21
-179 -51 -198 -53 -13 -1 -27 -6 -30 -12 -4 -6 -25 -20 -47 -31 -50 -25 -85
-63 -118 -127 -28 -55 -49 -116 -43 -122 2 -3 9 12 16 31 6 19 25 47 42 61 96
81 474 213 498 175 5 -9 9 -9 14 -1 4 6 37 11 77 11 54 0 71 -3 76 -16 4 -12
8 -12 13 -3 6 8 32 0 96 -32 77 -38 91 -49 101 -79 9 -25 12 -29 12 -13 1 12
-3 33 -8 46 -14 36 -104 121 -150 142 -29 13 -41 25 -44 44 -4 23 -4 24 -6 3z"/>
<path d="M4462 3251 c-5 -3 -12 -13 -15 -21 -4 -12 -6 -11 -6 3 -1 13 -10 17
-35 17 -32 0 -35 -2 -33 -27 3 -31 37 -44 63 -23 8 7 14 8 14 3 0 -6 41 -10
103 -9 l102 1 0 30 c0 35 -31 48 -51 21 -10 -14 -13 -14 -17 -2 -4 10 -22 14
-60 14 -30 0 -59 -3 -65 -7z"/>
<path d="M400 3222 l0 -28 143 4 c88 3 145 9 150 16 6 8 10 8 14 -1 2 -7 15
-13 28 -13 13 0 26 6 28 13 4 10 6 10 6 0 1 -15 67 -18 76 -3 3 5 15 6 28 1
14 -6 30 -5 41 1 9 5 27 8 39 5 12 -3 45 -1 72 3 32 5 -33 8 -178 9 -126 0
-260 6 -298 13 -59 9 -72 9 -80 -3 -6 -10 -9 -10 -9 -1 0 7 -13 12 -30 12 -26
0 -30 -4 -30 -28z"/>
<path d="M4307 3230 c-5 -21 6 -33 35 -35 13 -1 18 6 18 27 0 23 -4 28 -24 28
-15 0 -26 -7 -29 -20z"/>
<path d="M3551 3183 c0 -5 4 -17 9 -28 8 -18 9 -17 9 8 1 15 -3 27 -9 27 -5 0
-10 -3 -9 -7z"/>
<path d="M1688 3173 c-21 -2 -38 -6 -38 -8 0 -2 7 -20 17 -39 16 -34 18 -35
62 -31 43 5 44 4 14 -5 -53 -17 -41 -34 20 -27 32 3 45 2 32 -3 -11 -5 -30 -9
-42 -9 -27 -1 -31 -21 -5 -21 13 0 14 -2 3 -9 -13 -9 -51 17 -45 30 2 4 -3 12
-11 19 -11 9 -24 6 -63 -15 -49 -27 -125 -94 -142 -126 -17 -31 19 -31 69 -1
72 45 139 82 148 82 4 0 -5 -9 -22 -20 -36 -24 -30 -26 14 -4 18 9 62 21 99
27 37 6 69 12 70 13 10 7 -12 44 -26 44 -13 0 -14 2 -4 9 11 7 10 16 -7 48
-27 54 -36 57 -143 46z m119 -79 c-3 -3 -12 -4 -19 -1 -8 3 -5 6 6 6 11 1 17
-2 13 -5z m-162 -78 c-27 -13 -72 -43 -100 -67 -27 -24 -42 -34 -34 -21 22 30
97 87 134 100 52 18 52 12 0 -12z"/>
<path d="M4452 3172 c-79 -3 -83 -4 -80 -25 4 -32 51 -36 66 -5 l11 23 0 -22
c1 -19 7 -23 31 -23 17 0 30 5 30 11 0 8 4 8 14 0 9 -7 38 -11 73 -9 55 3 58
5 61 30 4 30 21 28 -206 20z"/>
<path d="M394 3155 c-13 -32 6 -35 184 -30 97 3 226 6 286 6 175 2 229 16 66
18 -135 2 -277 7 -443 16 -70 4 -89 2 -93 -10z"/>
<path d="M1832 3153 c8 -10 23 -40 33 -66 19 -50 38 -67 77 -67 70 0 215 -103
278 -198 16 -25 30 -41 30 -36 0 6 -14 32 -32 60 -18 27 -31 52 -30 56 2 10
-75 72 -128 102 -25 14 -41 26 -37 26 12 0 70 -31 90 -48 19 -17 24 -3 5 16
-7 7 -10 12 -6 12 3 0 26 -27 52 -60 64 -81 109 -168 104 -202 -3 -15 0 -24 5
-21 19 11 -1 92 -36 150 -68 112 -108 149 -195 177 -42 14 -95 30 -117 35 -22
5 -31 9 -19 10 17 1 120 -27 199 -54 17 -6 16 -3 -5 15 -24 21 -24 22 -3 16
36 -11 151 -136 178 -193 34 -72 31 -81 -5 -13 -30 59 -95 140 -111 140 -6 0
8 -21 30 -47 44 -53 101 -155 101 -182 0 -10 9 -17 20 -18 17 -2 19 2 14 25
-4 15 -11 37 -15 50 -5 13 -5 21 0 18 5 -3 14 -26 20 -50 8 -34 15 -44 26 -40
17 7 13 48 -11 117 -13 36 -22 50 -83 127 -45 58 -309 160 -414 160 -28 0 -29
-1 -15 -17z m111 -30 c-7 -2 -19 -2 -25 0 -7 3 -2 5 12 5 14 0 19 -2 13 -5z
m64 -89 c-3 -3 -12 -4 -19 -1 -8 3 -5 6 6 6 11 1 17 -2 13 -5z m284 -96 c11
-21 11 -22 -4 -9 -10 7 -17 17 -17 22 0 15 9 10 21 -13z"/>
<path d="M4317 3163 c-10 -10 -8 -43 2 -43 23 0 41 14 41 31 0 19 -29 27 -43
12z m30 -9 c-3 -3 -12 -4 -19 -1 -8 3 -5 6 6 6 11 1 17 -2 13 -5z"/>
<path d="M1554 3135 c-77 -38 -112 -80 -116 -139 -2 -37 1 -51 14 -59 13 -9
24 -2 61 39 25 27 69 63 99 78 29 16 55 30 57 32 2 2 -4 19 -13 39 -20 42 -35
43 -102 10z"/>
<path d="M3139 3090 c-14 -25 -33 -43 -48 -47 -23 -6 -24 -7 -6 -13 16 -6 12
-10 -23 -19 -117 -32 -231 -114 -282 -204 -33 -57 -41 -99 -15 -77 12 10 20 9
41 -5 15 -9 23 -12 20 -6 -9 14 -7 14 62 -5 l58 -16 -3 -37 -3 -36 13 34 c13
35 13 35 72 32 33 -1 63 -5 67 -7 5 -3 8 -26 8 -51 0 -57 7 -53 14 7 2 25 5
46 5 48 1 1 18 2 39 3 20 0 46 4 57 8 14 6 25 2 38 -13 17 -19 18 -19 9 -1 -9
17 -3 24 40 53 48 32 50 33 69 16 10 -9 21 -15 24 -12 3 3 -1 11 -10 18 -17
14 -20 40 -4 40 5 0 8 4 5 8 -4 7 94 73 128 86 7 2 7 8 -1 17 -10 9 -13 10
-13 1 0 -36 -99 5 -158 66 -12 12 -28 22 -34 22 -7 -1 -2 -7 12 -15 30 -17 24
-19 -19 -4 -31 11 -31 12 -16 35 8 13 11 24 6 24 -5 0 -13 -5 -16 -10 -4 -6
-23 -8 -43 -5 -29 4 -32 3 -17 -5 14 -6 4 -8 -35 -3 -30 3 -56 7 -58 8 -7 6
39 85 55 94 16 9 17 10 1 11 -9 0 -27 -18 -39 -40z m-54 -196 c-18 -13 -21
-13 -33 3 -11 15 -10 20 5 30 14 11 20 10 33 -3 13 -14 13 -17 -5 -30z m121
14 c-4 6 -3 12 3 12 16 0 23 -54 11 -86 -6 -16 -23 -45 -36 -64 -25 -34 -24
-34 10 4 34 37 56 88 56 129 0 23 10 22 51 -6 52 -34 51 -68 -3 -122 -65 -65
-131 -81 -268 -68 -64 6 -120 17 -140 28 -19 10 -48 22 -65 26 -23 5 -25 7 -8
8 15 1 25 9 29 25 3 13 20 38 38 55 l33 32 17 -46 c18 -46 58 -85 109 -104 15
-6 27 -7 27 -2 0 5 -11 12 -24 15 -13 3 -38 19 -55 35 -24 23 -31 37 -31 68 0
21 4 33 8 26 5 -8 13 -9 22 -3 8 6 11 10 7 10 -8 0 17 30 25 30 2 0 4 -9 5
-21 3 -37 23 -51 62 -45 20 3 42 7 49 8 7 1 12 17 13 37 0 20 3 30 6 24 2 -7
9 -13 15 -13 6 0 7 8 4 17 -6 14 -3 14 15 -3 12 -10 19 -13 15 -6z"/>
<path d="M3108 2723 c7 -3 16 -2 19 1 4 3 -2 6 -13 5 -11 0 -14 -3 -6 -6z"/>
<path d="M1176 3101 c-16 -18 -16 -20 5 -35 15 -10 27 -12 33 -6 16 16 30 12
16 -5 -10 -12 -10 -18 1 -32 13 -15 15 -13 21 13 7 27 7 27 4 -5 -2 -22 5 -49
20 -75 l24 -41 0 40 c0 58 -18 114 -45 141 -29 29 -56 31 -79 5z"/>
<path d="M1382 3087 l-32 -32 19 -32 c37 -60 43 -54 55 50 3 26 2 47 -2 47 -5
0 -22 -15 -40 -33z"/>
<path d="M3336 3111 c-4 -7 -5 -15 -2 -18 9 -9 19 4 14 18 -4 11 -6 11 -12 0z"/>
<path d="M4464 3093 c-6 -2 -9 -15 -6 -28 3 -18 11 -25 28 -25 20 0 24 5 24
28 0 27 -17 36 -46 25z"/>
<path d="M4530 3070 l0 -30 60 0 c33 0 61 3 61 8 8 47 6 52 -22 52 -16 0 -29
-5 -29 -12 0 -9 -3 -9 -12 0 -7 7 -22 12 -35 12 -19 0 -23 -5 -23 -30z"/>
<path d="M392 3072 c-2 -7 -2 -15 1 -18 10 -10 281 -3 293 7 8 7 14 7 19 -1
10 -16 55 -12 55 5 0 20 -360 27 -368 7z"/>
<path d="M770 3064 c0 -12 6 -15 23 -10 12 3 28 6 35 6 6 0 12 5 12 10 0 6
-16 10 -35 10 -26 0 -35 -4 -35 -16z"/>
<path d="M3295 3070 c27 -12 35 -12 35 0 0 6 -12 10 -27 9 -25 0 -26 -1 -8 -9z"/>
<path d="M4311 3063 c-1 -19 4 -23 27 -22 22 1 23 2 5 6 -12 2 -24 12 -26 21
-3 12 -5 10 -6 -5z"/>
<path d="M4392 3061 c-11 -7 -11 -9 2 -14 10 -4 16 -1 16 8 0 17 -1 17 -18 6z"/>
<path d="M1142 3038 c-7 -7 -12 -25 -12 -42 0 -37 15 -24 25 22 7 35 5 38 -13
20z"/>
<path d="M1167 3008 c-7 -50 -5 -53 34 -73 l29 -16 0 36 c0 42 -13 71 -39 84
-16 9 -19 5 -24 -31z"/>
<path d="M2120 3036 c0 -2 8 -10 18 -17 15 -13 16 -12 3 4 -13 16 -21 21 -21
13z"/>
<path d="M2984 3014 c-23 -8 -59 -31 -80 -50 l-39 -35 41 31 c23 17 68 40 100
50 33 10 50 19 39 19 -11 0 -39 -7 -61 -15z"/>
<path d="M4623 3023 c-18 -3 -23 -11 -23 -34 0 -24 4 -29 25 -29 22 0 25 4 25
35 0 19 -1 34 -2 34 -2 -1 -13 -4 -25 -6z"/>
<path d="M3410 3016 c0 -2 8 -10 18 -17 15 -13 16 -12 3 4 -13 16 -21 21 -21
13z"/>
<path d="M4495 3010 c3 -5 8 -10 11 -10 2 0 4 5 4 10 0 6 -5 10 -11 10 -5 0
-7 -4 -4 -10z"/>
<path d="M4539 3011 c9 -6 10 -11 2 -15 -6 -4 -11 -11 -11 -15 0 -10 50 -21
51 -12 7 50 6 51 -25 51 -21 0 -27 -3 -17 -9z"/>
<path d="M1350 2999 c0 -8 5 -33 10 -57 6 -24 12 -72 14 -107 3 -63 56 -325
66 -325 3 0 19 27 37 59 l32 59 -38 74 c-27 52 -44 102 -56 170 -13 75 -22
102 -41 119 -17 16 -24 18 -24 8z"/>
<path d="M1757 2991 c-32 -11 -75 -30 -95 -44 -20 -13 -48 -30 -62 -37 -23
-12 -24 -12 -11 4 8 10 28 24 44 32 16 9 26 18 23 21 -3 3 -25 -7 -48 -23 -24
-16 -52 -33 -63 -38 -18 -8 -16 -10 15 -15 28 -5 35 -10 34 -28 -1 -12 8 -30
20 -40 21 -18 21 -18 3 3 -17 21 -17 22 15 35 18 7 39 21 45 30 7 9 26 21 42
27 28 10 28 10 34 -38 7 -55 18 -77 53 -103 l24 -18 -25 37 c-42 62 -28 144
24 144 14 0 17 -6 14 -23 -2 -12 0 -34 6 -50 13 -32 53 -37 84 -9 19 17 20 16
8 -8 l-12 -25 20 24 c12 13 21 34 21 47 0 27 4 28 49 13 27 -10 31 -15 31 -47
0 -42 -27 -89 -62 -108 -13 -8 -17 -13 -9 -14 21 0 80 67 89 102 4 18 12 33
18 35 5 2 32 -20 59 -48 28 -29 44 -49 38 -45 -9 5 -11 2 -7 -8 3 -9 10 -13
15 -10 5 2 18 0 29 -6 27 -15 25 -5 -11 52 -46 71 -130 143 -197 168 -81 31
-182 35 -255 11z m143 -75 c0 -16 -21 -36 -37 -36 -17 0 -17 47 0 53 17 6 37
-3 37 -17z"/>
<path d="M2844 2988 l-19 -23 23 19 c21 18 27 26 19 26 -2 0 -12 -10 -23 -22z"/>
<path d="M400 2981 c0 -17 6 -21 29 -21 16 0 32 6 34 13 4 10 6 10 6 0 1 -16
61 -18 61 -2 0 6 8 8 19 4 10 -3 29 -1 42 4 30 12 34 11 -88 18 -100 5 -103 4
-103 -16z"/>
<path d="M627 2984 c3 -9 12 -13 22 -8 9 3 34 9 56 11 62 8 55 13 -18 13 -56
0 -65 -2 -60 -16z"/>
<path d="M3591 2991 c-7 -5 -12 -14 -10 -20 2 -6 10 -2 17 9 14 22 13 23 -7
11z"/>
<path d="M1236 2898 c-4 -46 -2 -99 3 -118 7 -29 9 -21 10 50 1 59 4 80 11 70
5 -8 10 -54 10 -102 0 -54 4 -89 11 -94 19 -11 6 204 -15 244 -9 18 -18 32
-20 32 -2 0 -7 -37 -10 -82z"/>
<path d="M2340 2953 c0 -5 9 -37 20 -71 11 -35 20 -75 20 -88 0 -15 6 -24 16
-24 14 0 15 7 10 43 -10 59 -67 181 -66 140z"/>
<path d="M4553 2943 c-33 -6 -32 -49 2 -55 23 -5 25 -2 25 28 0 19 -1 33 -2
33 -2 -1 -13 -4 -25 -6z"/>
<path d="M4600 2921 c0 -26 14 -41 41 -41 5 0 9 16 9 35 0 31 -3 35 -25 35
-21 0 -25 -5 -25 -29z"/>
<path d="M400 2910 c0 -26 3 -29 23 -26 12 3 25 5 28 5 4 1 6 12 5 26 -1 20
-6 25 -28 25 -24 0 -28 -4 -28 -30z"/>
<path d="M1150 2918 c1 -30 32 -99 53 -117 16 -12 17 -8 17 46 0 54 -2 60 -29
76 -38 22 -41 22 -41 -5z"/>
<path d="M1420 2931 c0 -5 7 -44 15 -86 13 -69 60 -175 85 -190 12 -7 65 75
62 95 -2 9 0 11 5 5 5 -7 16 -2 29 11 l21 22 -32 25 c-35 28 -50 26 -34 -5 6
-11 9 -22 6 -24 -2 -3 -10 9 -17 25 -7 17 -27 39 -46 50 -19 11 -34 26 -34 33
0 9 -3 9 -10 -2 -7 -11 -11 -9 -19 12 -10 27 -31 47 -31 29z m180 -126 c13
-14 21 -25 18 -25 -2 0 -15 11 -28 25 -13 14 -21 25 -18 25 2 0 15 -11 28 -25z"/>
<path d="M4468 2933 c12 -2 22 -9 22 -14 0 -5 4 -9 8 -9 5 0 9 7 9 15 0 10
-10 15 -31 14 -24 -1 -26 -3 -8 -6z"/>
<path d="M475 2900 c-3 -5 3 -10 14 -10 12 0 21 5 21 10 0 6 -6 10 -14 10 -8
0 -18 -4 -21 -10z"/>
<path d="M1138 2855 c3 -27 9 -61 14 -75 6 -19 7 -15 3 15 -3 29 -2 35 5 20 5
-11 9 -38 9 -59 1 -45 28 -106 67 -151 25 -30 25 -30 20 -5 -14 70 -18 104
-13 99 4 -3 13 -36 21 -73 8 -38 21 -75 29 -83 13 -13 13 -7 0 44 -31 132 -34
139 -87 195 -29 30 -57 71 -63 89 -10 32 -11 30 -5 -16z"/>
<path d="M4478 2893 c6 -2 18 -2 25 0 6 3 1 5 -13 5 -14 0 -19 -2 -12 -5z"/>
<path d="M1304 2805 c3 -98 27 -196 56 -235 19 -25 19 -25 5 35 -7 33 -19 74
-26 90 -6 17 -14 56 -16 87 -8 104 -23 122 -19 23z"/>
<path d="M4549 2863 c-10 -2 -16 -14 -16 -28 0 -20 5 -25 23 -25 20 0 24 5 24
30 0 17 -3 29 -7 29 -5 -1 -15 -3 -24 -6z"/>
<path d="M4618 2863 c-19 -5 -26 -53 -9 -53 5 0 16 -3 25 -6 13 -5 16 1 16 30
0 20 -3 35 -7 35 -5 -1 -16 -3 -25 -6z"/>
<path d="M396 2853 c-3 -3 -6 -12 -6 -20 0 -10 25 -13 111 -13 98 0 110 2 99
15 -15 18 -50 20 -50 3 0 -9 -3 -8 -10 2 -9 15 -130 26 -144 13z"/>
<path d="M4462 2835 c-1 -21 3 -25 23 -25 20 0 25 5 25 25 0 19 -5 25 -23 25
-17 0 -23 -6 -25 -25z"/>
<path d="M626 2835 c-4 -11 2 -15 24 -15 20 0 30 5 30 15 0 9 -9 15 -24 15
-13 0 -26 -7 -30 -15z"/>
<path d="M713 2835 c0 -8 9 -15 19 -15 10 0 18 5 18 12 0 6 -3 8 -7 5 -3 -4
-11 -2 -18 3 -8 7 -12 5 -12 -5z"/>
<path d="M2 2761 c3 -23 7 -26 41 -25 20 0 105 1 187 2 126 2 150 4 150 17 0
12 -14 15 -62 15 -62 0 -207 8 -281 14 -36 3 -38 2 -35 -23z"/>
<path d="M4532 2758 c2 -25 8 -34 26 -36 19 -3 22 1 22 32 0 32 -3 36 -26 36
-23 0 -25 -3 -22 -32z"/>
<path d="M4607 2783 c-4 -3 -7 -19 -7 -35 0 -23 4 -28 25 -28 22 0 25 4 25 35
0 27 -4 35 -18 35 -10 0 -22 -3 -25 -7z"/>
<path d="M1341 2764 c0 -11 3 -14 6 -6 3 7 2 16 -1 19 -3 4 -6 -2 -5 -13z"/>
<path d="M4482 2755 c-10 -21 -9 -25 3 -25 9 0 15 10 15 25 0 14 -2 25 -3 25
-2 0 -9 -11 -15 -25z"/>
<path d="M390 2755 c0 -12 15 -15 70 -15 54 0 70 3 70 14 0 11 -16 15 -70 15
-55 0 -70 -3 -70 -14z"/>
<path d="M547 2754 c7 -18 54 -16 61 4 2 8 -8 12 -32 12 -28 0 -34 -3 -29 -16z"/>
<path d="M630 2756 c0 -8 8 -13 18 -11 9 2 20 4 25 4 20 2 4 21 -18 21 -15 0
-25 -6 -25 -14z"/>
<path d="M2630 2760 c-13 -8 -12 -10 3 -10 9 0 17 5 17 10 0 12 -1 12 -20 0z"/>
<path d="M1690 2733 c13 -18 27 -33 32 -33 16 0 6 15 -25 40 l-31 25 24 -32z"/>
<path d="M2388 2697 c-1 -62 -1 -62 -8 -17 -7 44 -7 44 -8 9 -3 -50 -45 -181
-77 -235 -15 -25 -46 -69 -71 -99 -41 -51 -57 -99 -38 -118 8 -8 116 81 131
107 15 28 43 164 44 213 0 21 4 47 9 58 7 17 9 15 9 -11 1 -43 -35 -237 -48
-263 -14 -24 -14 -24 28 -10 17 6 31 18 32 27 0 13 2 13 9 -3 6 -16 9 -17 13
-5 4 8 6 26 5 40 -1 14 1 66 5 115 l7 90 -24 -100 c-26 -107 -44 -161 -51
-153 -3 2 4 36 15 74 22 75 50 243 50 298 0 21 -6 36 -15 40 -12 4 -15 -6 -17
-57z"/>
<path d="M2439 2752 c-1 -4 -2 -96 -3 -204 -1 -152 2 -198 12 -198 9 0 13 32
14 123 5 243 4 276 -9 282 -7 2 -14 1 -14 -3z"/>
<path d="M2484 2560 c0 -113 2 -159 3 -102 2 56 2 148 0 205 -1 56 -3 10 -3
-103z"/>
<path d="M1662 2709 c32 -40 54 -54 63 -39 3 5 -7 15 -22 23 -16 7 -27 18 -26
23 1 5 -9 14 -22 20 -22 11 -22 9 7 -27z"/>
<path d="M2291 2741 c-3 -29 -73 -109 -131 -150 -33 -23 -60 -46 -60 -51 0
-17 12 -40 20 -35 4 2 5 -6 3 -18 -3 -13 2 -29 10 -35 34 -28 203 211 195 275
-4 26 -5 26 -16 -12 -15 -48 -52 -99 -107 -146 l-40 -34 45 50 c61 67 92 120
87 147 -2 13 -5 17 -6 9z"/>
<path d="M2342 2708 c-15 -59 -76 -158 -141 -231 -53 -59 -53 -61 -48 -111 l5
-51 -15 43 c-8 24 -21 42 -30 42 -23 0 -186 -51 -200 -62 -16 -13 -18 -178 -3
-178 17 0 113 47 176 87 138 86 251 272 269 441 3 34 4 62 2 62 -3 0 -10 -19
-15 -42z"/>
<path d="M1606 2731 c-10 -15 81 -104 97 -94 6 4 -1 15 -18 28 -15 13 -37 35
-50 50 -16 20 -24 25 -29 16z"/>
<path d="M1351 2704 c0 -11 3 -14 6 -6 3 7 2 16 -1 19 -3 4 -6 -2 -5 -13z"/>
<path d="M2175 2710 c-4 -6 -15 -8 -24 -5 -10 3 -29 1 -42 -5 -21 -9 -19 -9
11 -4 19 4 32 3 27 -2 -4 -4 -26 -10 -49 -13 -23 -3 -43 -11 -45 -17 -6 -18
98 13 121 36 11 11 17 20 14 20 -4 0 -10 -5 -13 -10z"/>
<path d="M2180 2690 c-19 -17 -43 -30 -55 -30 -32 0 -65 -11 -65 -22 0 -5 10
-6 23 -2 51 16 52 16 33 0 -10 -8 -24 -17 -30 -19 -6 -2 -8 -8 -4 -12 9 -9
103 61 124 92 19 29 16 29 -26 -7z"/>
<path d="M1572 2686 c-10 -23 -8 -27 34 -51 55 -32 58 -43 4 -15 -42 21 -70
26 -70 11 0 -5 29 -39 64 -75 35 -36 60 -66 55 -66 -5 0 -36 28 -70 62 -68 69
-68 69 -112 -16 -29 -54 -28 -62 11 -78 27 -10 183 -57 192 -58 3 0 5 50 5
112 l0 112 -44 41 c-54 50 -55 51 -69 21z"/>
<path d="M2227 2704 c-3 -3 -3 -12 -1 -19 3 -8 -4 -16 -16 -20 -32 -10 -130
-86 -125 -96 12 -19 165 101 165 129 0 13 -13 16 -23 6z"/>
<path d="M4623 2702 c-29 -4 -30 -28 -2 -37 25 -8 32 -3 27 22 -2 12 -10 17
-25 15z"/>
<path d="M6 2684 c-9 -22 0 -32 26 -29 13 1 91 3 173 4 148 1 197 10 165 30
-8 6 -92 10 -186 10 -148 1 -173 -1 -178 -15z"/>
<path d="M1764 2692 c3 -6 -2 -12 -11 -15 -15 -3 17 -15 120 -43 9 -3 17 -1
17 5 0 6 -8 11 -17 12 -10 0 -36 7 -58 15 l-40 13 40 -5 c22 -3 48 -7 58 -10
9 -3 17 -1 17 4 0 5 -21 13 -47 16 -27 4 -56 10 -67 13 -11 3 -16 1 -12 -5z"/>
<path d="M4390 2690 c-8 -5 -12 -12 -9 -15 4 -3 12 1 19 10 14 17 11 19 -10 5z"/>
<path d="M4450 2685 c0 -10 10 -15 30 -15 20 0 30 5 30 15 0 10 -10 15 -30 15
-20 0 -30 -5 -30 -15z"/>
<path d="M4527 2686 c-5 -13 1 -16 29 -16 24 0 34 4 32 13 -7 19 -54 21 -61 3z"/>
<path d="M4670 2680 c0 -16 7 -20 35 -20 28 0 35 4 35 20 0 16 -7 20 -35 20
-28 0 -35 -4 -35 -20z"/>
<path d="M396 2681 c-4 -5 -2 -12 4 -16 13 -8 192 3 202 13 4 4 -40 8 -97 10
-61 2 -106 -1 -109 -7z"/>
<path d="M635 2680 c-4 -6 5 -10 19 -10 14 0 26 5 26 10 0 6 -9 10 -19 10 -11
0 -23 -4 -26 -10z"/>
<path d="M1294 2668 c3 -13 8 -41 11 -63 9 -51 39 -110 67 -129 12 -9 24 -14
26 -12 2 3 -12 31 -31 63 -19 33 -42 83 -51 111 -18 53 -30 70 -22 30z"/>
<path d="M1963 2682 c-29 -2 -53 -8 -53 -14 0 -6 11 -8 25 -6 14 3 28 1 31 -3
3 -5 -9 -9 -25 -9 -33 0 -42 -16 -13 -23 16 -4 16 -5 0 -6 -10 0 -18 -6 -18
-12 0 -6 6 -9 13 -6 8 3 39 8 70 12 56 7 79 24 35 26 -20 0 -20 1 -5 7 14 6
15 10 5 22 -9 11 -29 14 -65 12z m20 -49 c-7 -2 -19 -2 -25 0 -7 3 -2 5 12 5
14 0 19 -2 13 -5z"/>
<path d="M1730 2655 c0 -8 48 -26 108 -40 28 -7 52 -9 52 -4 0 4 -19 13 -42
19 -24 6 -56 15 -72 20 -33 11 -46 12 -46 5z"/>
<path d="M3281 2640 c0 -8 4 -22 9 -30 12 -18 12 -2 0 25 -6 13 -9 15 -9 5z"/>
<path d="M3460 2634 c0 -8 5 -12 10 -9 6 3 10 10 10 16 0 5 -4 9 -10 9 -5 0
-10 -7 -10 -16z"/>
<path d="M1 2442 l-2 -193 113 5 c62 2 117 5 121 5 5 1 5 6 2 11 -3 6 -30 10
-58 11 -29 0 -45 3 -37 6 8 3 18 11 22 17 5 8 8 7 8 -1 0 -8 13 -13 30 -13 28
0 30 3 30 35 0 21 -5 36 -12 37 -7 0 -17 2 -23 3 -5 2 -17 3 -25 4 -11 1 -15
11 -14 36 2 34 -8 46 -21 25 -5 -8 -12 -7 -22 1 -11 10 -16 10 -22 0 -6 -9
-10 -7 -14 8 -4 18 0 21 26 22 18 1 38 1 45 0 7 -1 12 10 12 29 0 28 -3 30
-34 30 -28 0 -35 -4 -39 -22 -3 -18 -5 -16 -6 7 -1 30 1 31 34 27 30 -4 35 -1
35 15 0 17 -6 20 -40 18 -42 -2 -64 10 -33 18 10 2 54 5 98 7 101 2 118 4 133
14 7 4 20 5 30 2 9 -3 24 -1 32 4 10 7 -29 10 -120 11 -74 0 -160 4 -191 8
l-56 7 -2 -194z m94 -152 c3 -5 1 -10 -4 -10 -6 0 -11 5 -11 10 0 6 2 10 4 10
3 0 8 -4 11 -10z"/>
<path d="M1716 2632 c-13 -13 -3 -21 42 -35 65 -21 132 -29 132 -18 0 6 -19
15 -42 21 -24 6 -50 13 -58 17 -40 15 -69 21 -74 15z"/>
<path d="M396 2609 c4 -7 27 -9 67 -4 85 9 84 15 -2 15 -50 0 -70 -3 -65 -11z"/>
<path d="M4548 2612 c-56 -7 -26 -22 42 -22 56 0 70 3 70 15 0 16 -24 17 -112
7z"/>
<path d="M1221 2590 c7 -14 42 -57 78 -97 49 -53 69 -69 78 -61 9 8 2 18 -30
45 -23 19 -64 58 -90 86 -29 31 -43 42 -36 27z"/>
<path d="M1975 2603 c-11 -2 -31 -6 -43 -9 -15 -3 -22 -10 -18 -19 2 -7 0 -15
-5 -17 -15 -5 1 -38 18 -38 8 0 45 7 83 16 52 11 68 19 63 30 -3 8 -15 15 -27
15 -16 1 -17 2 -3 6 9 2 17 9 17 14 0 9 -47 10 -85 2z m28 -30 c-13 -2 -33 -2
-45 0 -13 2 -3 4 22 4 25 0 35 -2 23 -4z"/>
<path d="M4395 2600 c3 -5 12 -7 20 -3 21 7 19 13 -6 13 -11 0 -18 -4 -14 -10z"/>
<path d="M4450 2600 c0 -5 14 -10 30 -10 17 0 30 5 30 10 0 6 -13 10 -30 10
-16 0 -30 -4 -30 -10z"/>
<path d="M1190 2597 c0 -38 107 -205 156 -244 38 -29 77 -53 88 -53 6 0 -38
66 -59 90 -8 8 -53 59 -100 113 -47 54 -85 96 -85 94z m172 -222 c4 -5 8 -14
8 -20 0 -12 -79 65 -92 90 -9 17 64 -43 84 -70z"/>
<path d="M1702 2588 c5 -15 82 -42 146 -53 35 -6 42 -4 42 9 0 10 -9 16 -24
16 -13 0 -53 9 -88 20 -74 23 -81 24 -76 8z"/>
<path d="M1695 2484 c4 -49 9 -91 11 -93 2 -2 36 -9 76 -16 95 -17 108 -9 108
63 l0 53 -42 -5 c-24 -3 -59 -2 -78 3 -31 8 -28 9 33 10 37 1 67 5 67 9 0 5
-33 18 -72 29 -40 11 -81 24 -91 28 -17 7 -18 2 -12 -81z"/>
<path d="M2025 2524 c-27 -8 -61 -14 -75 -14 -38 0 -50 -18 -50 -76 0 -75 10
-78 114 -45 48 15 91 32 97 38 6 6 5 20 -1 39 l-11 30 -66 -13 c-36 -8 -73
-12 -82 -10 -9 1 19 9 62 16 52 8 77 17 77 26 0 22 -11 23 -65 9z"/>
<path d="M3096 2531 c-7 -11 3 -41 14 -41 4 0 8 11 8 25 0 25 -12 33 -22 16z"/>
<path d="M4791 2513 c-6 -10 -11 -13 -11 -6 0 24 -30 1 -30 -23 0 -20 5 -24
30 -24 28 0 30 3 30 35 0 39 -4 43 -19 18z"/>
<path d="M4908 2524 c-5 -4 -8 -20 -8 -36 0 -24 4 -28 30 -28 28 0 30 3 30 36
0 41 -20 43 -31 3 -6 -24 -6 -24 -10 4 -2 16 -7 25 -11 21z"/>
<path d="M4713 2475 c0 -8 4 -15 9 -15 4 0 8 7 8 15 0 8 -4 15 -8 15 -5 0 -9
-7 -9 -15z"/>
<path d="M1468 2433 c6 -11 41 -58 78 -104 37 -46 84 -109 105 -139 71 -100
169 -220 169 -207 0 3 -11 31 -24 61 -13 29 -27 69 -31 87 -3 19 -22 82 -41
141 l-36 108 -71 20 c-77 22 -111 33 -141 45 -16 7 -17 5 -8 -12z"/>
<path d="M1390 2415 c0 -19 31 -75 41 -75 4 0 1 19 -6 42 -12 42 -35 64 -35
33z"/>
<path d="M170 2400 c0 -16 7 -20 30 -20 36 0 41 25 8 34 -35 9 -38 8 -38 -14z"/>
<path d="M250 2396 c0 -9 5 -16 10 -16 6 0 10 4 10 9 0 6 -4 13 -10 16 -5 3
-10 -1 -10 -9z"/>
<path d="M1450 2409 c-2 -48 89 -183 223 -329 46 -50 91 -105 101 -123 13 -23
4 -16 -30 23 -27 30 -74 82 -104 115 -30 33 -77 88 -104 123 -27 34 -51 62
-53 62 -7 0 132 -245 164 -288 14 -19 54 -47 93 -67 78 -39 88 -42 69 -18 -13
15 -12 15 9 4 40 -21 34 -7 -18 45 -27 27 -50 53 -50 57 0 16 -69 109 -230
312 -22 28 -47 59 -55 70 -8 11 -15 17 -15 14z"/>
<path d="M280 2390 c0 -5 5 -10 10 -10 6 0 10 5 10 10 0 6 -4 10 -10 10 -5 0
-10 -4 -10 -10z"/>
<path d="M400 2390 c0 -5 12 -10 26 -10 14 0 23 4 19 10 -3 6 -15 10 -26 10
-10 0 -19 -4 -19 -10z"/>
<path d="M4088 2393 c7 -3 16 -2 19 1 4 3 -2 6 -13 5 -11 0 -14 -3 -6 -6z"/>
<path d="M4468 2393 c12 -2 30 -2 40 0 9 3 -1 5 -23 4 -22 0 -30 -2 -17 -4z"/>
<path d="M4542 2384 c9 -9 21 -13 27 -10 20 13 11 26 -16 26 -25 0 -26 -1 -11
-16z"/>
<path d="M4596 2385 c4 -8 16 -15 29 -15 13 0 25 7 29 15 4 12 -3 15 -29 15
-26 0 -33 -3 -29 -15z"/>
<path d="M3285 2380 c-7 -12 2 -12 30 0 19 8 19 9 -2 9 -12 1 -25 -3 -28 -9z"/>
<path d="M1710 2363 c0 -2 18 -63 40 -136 44 -144 110 -308 121 -302 4 3 7 94
8 203 2 152 -1 201 -11 209 -12 10 -158 34 -158 26z"/>
<path d="M3094 2359 c-10 -17 13 -36 27 -22 12 12 4 33 -11 33 -5 0 -12 -5
-16 -11z m26 -9 c0 -5 -4 -10 -10 -10 -5 0 -10 5 -10 10 0 6 5 10 10 10 6 0
10 -4 10 -10z"/>
<path d="M250 2325 c0 -19 5 -35 10 -35 6 0 10 16 8 35 -1 19 -6 35 -10 35 -4
0 -8 -16 -8 -35z"/>
<path d="M280 2356 c0 -2 7 -6 15 -10 8 -3 15 -1 15 4 0 6 -7 10 -15 10 -8 0
-15 -2 -15 -4z"/>
<path d="M4626 2334 c-3 -8 -10 -12 -16 -9 -5 3 -10 -1 -10 -9 0 -10 9 -16 25
-16 20 0 25 5 25 25 0 28 -15 34 -24 9z"/>
<path d="M2446 2324 c-3 -9 -6 -29 -6 -46 0 -16 -9 -41 -20 -55 -23 -29 -27
-8 -5 21 8 11 15 36 14 55 -1 36 -1 36 -10 -8 -5 -25 -14 -49 -20 -55 -9 -8
-10 -6 -5 9 9 24 21 92 15 85 -22 -26 -32 -43 -21 -36 15 9 15 6 -3 -37 -17
-41 -19 -59 -5 -37 14 21 13 -5 0 -31 -16 -28 5 -24 28 6 12 14 23 21 27 16 3
-6 -3 -16 -15 -23 -24 -15 -26 -25 -5 -25 8 0 13 3 10 5 -7 7 15 32 27 32 6 0
5 -7 -2 -15 -8 -9 -8 -15 -2 -15 6 0 17 -7 25 -15 13 -12 15 -11 19 14 2 16 1
37 -3 47 -6 15 -8 13 -8 -10 l-1 -29 -18 24 c-14 18 -17 36 -13 74 4 45 5 47
12 20 7 -29 7 -29 8 8 1 38 -12 50 -23 21z"/>
<path d="M280 2315 c0 -9 5 -15 11 -13 6 2 11 8 11 13 0 5 -5 11 -11 13 -6 2
-11 -4 -11 -13z"/>
<path d="M4460 2320 c0 -5 11 -10 25 -10 14 0 25 5 25 10 0 6 -11 10 -25 10
-14 0 -25 -4 -25 -10z"/>
<path d="M4532 2318 c7 -20 48 -23 48 -4 0 11 -9 16 -26 16 -16 0 -24 -5 -22
-12z"/>
<path d="M330 2310 c0 -5 5 -10 10 -10 6 0 10 5 10 10 0 6 -4 10 -10 10 -5 0
-10 -4 -10 -10z"/>
<path d="M2326 2281 c-18 -34 -21 -55 -6 -46 6 4 8 -7 5 -27 -5 -32 -5 -32 4
-5 6 16 7 35 5 42 -3 7 0 23 6 35 6 12 9 24 7 27 -3 3 -13 -9 -21 -26z"/>
<path d="M2352 2285 c-17 -37 -14 -45 4 -12 9 16 14 31 11 33 -2 2 -9 -7 -15
-21z"/>
<path d="M3460 2268 c-15 -21 -17 -28 -6 -19 16 13 41 51 33 51 -2 0 -14 -15
-27 -32z"/>
<path d="M2257 2272 c-10 -10 -14 -22 -10 -27 5 -4 2 -5 -5 -1 -17 10 -44 -13
-38 -31 3 -8 2 -12 -2 -9 -7 4 -80 -71 -255 -260 -26 -28 -47 -56 -47 -63 0
-16 47 -14 111 5 52 15 313 144 334 165 12 12 -13 30 -36 26 -9 -1 -26 7 -38
17 -17 15 -21 31 -21 80 0 40 6 69 16 84 20 29 13 39 -9 14z"/>
<path d="M2075 2228 c-44 -27 -101 -56 -126 -65 -46 -17 -47 -18 -53 -67 -3
-28 -6 -82 -6 -121 l0 -69 113 119 c175 185 175 185 170 223 -3 17 -8 32 -12
31 -3 -1 -42 -23 -86 -51z"/>
<path d="M2721 2258 c6 -12 15 -33 20 -47 5 -17 8 -20 8 -8 1 18 -25 77 -35
77 -2 0 1 -10 7 -22z"/>
<path d="M4610 2270 c-11 -7 -7 -10 18 -10 20 0 31 4 27 10 -8 13 -26 13 -45
0z"/>
<path d="M263 2263 c9 -2 25 -2 35 0 9 3 1 5 -18 5 -19 0 -27 -2 -17 -5z"/>
<path d="M328 2263 c6 -2 18 -2 25 0 6 3 1 5 -13 5 -14 0 -19 -2 -12 -5z"/>
<path d="M4398 2263 c7 -3 16 -2 19 1 4 3 -2 6 -13 5 -11 0 -14 -3 -6 -6z"/>
<path d="M4463 2263 c9 -2 25 -2 35 0 9 3 1 5 -18 5 -19 0 -27 -2 -17 -5z"/>
<path d="M4543 2263 c9 -2 23 -2 30 0 6 3 -1 5 -18 5 -16 0 -22 -2 -12 -5z"/>
<path d="M2457 2245 c-4 -8 -2 -17 2 -20 5 -2 11 4 14 15 6 23 -8 27 -16 5z"/>
<path d="M400 2231 c0 -6 29 -10 65 -10 35 0 67 4 70 10 4 5 -23 9 -64 9 -39
0 -71 -4 -71 -9z"/>
<path d="M4323 2233 c9 -2 23 -2 30 0 6 3 -1 5 -18 5 -16 0 -22 -2 -12 -5z"/>
<path d="M4393 2233 c9 -2 25 -2 35 0 9 3 1 5 -18 5 -19 0 -27 -2 -17 -5z"/>
<path d="M4456 2230 c7 -7 19 -7 35 -1 23 9 22 10 -10 10 -24 1 -32 -2 -25 -9z"/>
<path d="M4530 2230 c0 -5 11 -10 25 -10 14 0 25 5 25 10 0 6 -11 10 -25 10
-14 0 -25 -4 -25 -10z"/>
<path d="M4600 2230 c0 -5 11 -10 25 -10 14 0 25 5 25 10 0 6 -11 10 -25 10
-14 0 -25 -4 -25 -10z"/>
<path d="M2301 2204 c0 -11 3 -14 6 -6 3 7 2 16 -1 19 -3 4 -6 -2 -5 -13z"/>
<path d="M1504 2195 c3 -11 10 -41 16 -67 16 -77 76 -233 114 -302 43 -77 136
-197 148 -190 21 13 3 71 -58 185 -37 68 -74 133 -84 144 -10 11 -46 72 -80
135 -33 63 -59 106 -56 95z"/>
<path d="M320 2170 c0 -26 4 -30 28 -30 24 0 28 4 30 30 2 27 0 30 -28 30 -27
0 -30 -3 -30 -30z"/>
<path d="M400 2170 c0 -25 4 -30 24 -30 23 0 36 16 36 46 0 9 -11 14 -30 14
-27 0 -30 -3 -30 -30z"/>
<path d="M478 2175 c-3 -14 -1 -25 3 -25 5 0 9 11 9 25 0 14 -2 25 -4 25 -2 0
-6 -11 -8 -25z"/>
<path d="M4530 2170 c0 -25 4 -30 23 -30 31 0 35 5 29 35 -3 18 -11 25 -28 25
-20 0 -24 -5 -24 -30z"/>
<path d="M4600 2170 c0 -25 4 -30 24 -30 26 0 36 14 28 43 -3 10 -14 17 -28
17 -20 0 -24 -5 -24 -30z"/>
<path d="M2659 2173 c0 -10 -3 -13 -5 -7 -3 6 -16 9 -29 6 -14 -2 -22 -9 -18
-15 4 -6 0 -8 -9 -4 -13 5 -14 1 -5 -24 8 -20 18 -29 34 -29 28 0 32 36 6 43
-10 3 -4 5 14 6 37 1 46 11 27 29 -12 11 -14 10 -15 -5z"/>
<path d="M2726 2147 c-8 -20 -27 -40 -47 -50 -22 -11 -28 -17 -15 -17 22 0 86
62 86 84 0 25 -9 19 -24 -17z"/>
<path d="M4463 2165 c3 -29 37 -33 37 -5 0 18 -3 20 -14 11 -11 -9 -15 -9 -20
1 -3 7 -5 4 -3 -7z"/>
<path d="M2533 2136 c-31 -15 -33 -81 -3 -89 22 -6 28 8 8 16 -7 3 6 2 28 0
24 -3 50 0 60 6 18 11 17 12 -3 6 -20 -6 -37 8 -38 30 0 6 -4 10 -10 11 -5 0
-9 -7 -7 -18 2 -10 0 -18 -5 -18 -13 0 -12 54 0 62 18 11 -5 7 -30 -6z m7 -36
c0 -11 -4 -20 -8 -20 -4 0 -8 9 -8 20 0 11 4 20 8 20 4 0 8 -9 8 -20z"/>
<path d="M2365 2120 c-3 -5 0 -10 9 -10 8 0 23 -3 33 -6 16 -6 16 -5 -2 9 -24
19 -32 21 -40 7z"/>
<path d="M2473 2110 c-1 -11 2 -20 8 -20 5 0 9 9 9 20 0 11 -4 20 -8 20 -4 0
-8 -9 -9 -20z"/>
<path d="M4588 2122 c-57 -3 -58 -4 -58 -32 0 -26 4 -30 29 -30 25 0 30 5 34
28 l4 27 2 -27 c1 -22 6 -28 25 -28 17 0 26 7 30 26 9 35 2 40 -66 36z"/>
<path d="M3329 2103 c-13 -16 -12 -17 4 -4 16 13 21 21 13 21 -2 0 -10 -8 -17
-17z"/>
<path d="M4475 2111 c28 -7 28 -8 8 -14 -11 -4 -24 -14 -27 -22 -4 -11 2 -15
24 -15 27 0 30 3 30 30 0 27 -3 30 -32 29 l-33 -1 30 -7z"/>
<path d="M400 2080 c0 -15 7 -20 27 -20 l26 0 -23 20 c-13 11 -25 20 -27 20
-1 0 -3 -9 -3 -20z"/>
<path d="M2390 2012 c0 -26 3 -57 6 -69 12 -44 24 -23 24 41 0 48 -4 65 -15
70 -12 4 -15 -4 -15 -42z"/>
<path d="M4525 2040 c-3 -5 -3 -21 1 -35 6 -25 9 -26 68 -23 l61 3 1 33 c1 29
-2 32 -27 32 -15 0 -30 -6 -32 -12 -4 -10 -6 -10 -6 0 -1 14 -57 17 -66 2z"/>
<path d="M400 2011 c0 -28 3 -31 29 -31 20 0 31 6 34 18 4 16 5 16 6 0 1 -13
10 -18 31 -18 61 0 17 47 -53 56 l-47 7 0 -32z"/>
<path d="M2283 2002 c-54 -27 -73 -42 -73 -57 0 -14 -3 -16 -8 -7 -7 10 -24 6
-78 -19 -83 -37 -150 -59 -185 -59 -39 0 -41 -9 -12 -59 15 -25 32 -55 38 -66
30 -55 90 -141 104 -149 9 -5 38 -34 66 -64 73 -79 79 -81 129 -35 l41 38 -44
-47 -44 -47 -33 27 c-18 15 -51 49 -74 75 -24 26 -44 46 -47 43 -2 -2 11 -35
30 -72 19 -38 42 -89 51 -114 9 -25 23 -53 31 -64 13 -18 16 -17 55 14 22 17
38 36 34 41 -3 5 3 9 13 9 23 0 100 147 84 163 -6 6 -14 2 -23 -12 -17 -28
-32 -27 -17 0 10 20 4 30 -70 102 -44 44 -81 85 -81 90 0 6 9 2 20 -8 20 -18
27 -11 12 12 -8 13 -73 12 -177 -1 -44 -5 -42 -4 15 9 72 16 316 137 312 155
-1 6 5 13 13 16 22 9 19 126 -4 123 -3 0 -39 -17 -78 -37z"/>
<path d="M2430 1976 c0 -48 4 -65 15 -70 12 -4 15 6 15 64 0 56 -3 70 -15 70
-12 0 -15 -14 -15 -64z"/>
<path d="M2471 1998 c1 -24 5 -56 9 -73 6 -23 8 -12 9 43 1 42 -3 72 -9 72 -5
0 -9 -19 -9 -42z"/>
<path d="M4396 2025 c4 -8 1 -15 -5 -15 -6 0 -11 -7 -11 -15 0 -19 17 -19 37
0 17 18 11 45 -11 45 -10 0 -13 -6 -10 -15z"/>
<path d="M4450 2010 c0 -27 3 -30 30 -30 27 0 30 3 30 30 0 27 -3 30 -30 30
-27 0 -30 -3 -30 -30z"/>
<path d="M4310 1994 c0 -8 5 -12 10 -9 6 4 8 11 5 16 -9 14 -15 11 -15 -7z"/>
<path d="M400 1936 l0 -36 66 0 c40 0 63 4 59 10 -3 5 -1 19 5 30 11 20 9 21
-21 18 -26 -2 -35 -9 -40 -28 -6 -25 -6 -24 -10 5 -3 24 -9 31 -31 33 -26 3
-28 1 -28 -32z"/>
<path d="M4457 1963 c-4 -3 -7 -19 -7 -35 0 -24 4 -28 30 -28 28 0 30 3 30 35
0 30 -3 35 -23 35 -13 0 -27 -3 -30 -7z"/>
<path d="M4333 1946 c-32 -15 -31 -45 2 -38 18 3 25 11 25 28 0 13 -1 23 -2
23 -2 -1 -13 -6 -25 -13z"/>
<path d="M4378 1930 c-4 -28 -3 -30 29 -30 30 0 33 3 33 30 0 26 -3 30 -29 30
-24 0 -29 -5 -33 -30z"/>
<path d="M550 1918 c0 -19 2 -20 10 -8 8 12 10 12 10 1 0 -8 2 -12 5 -9 8 7
-5 38 -16 38 -5 0 -9 -10 -9 -22z"/>
<path d="M1680 1936 c0 -5 93 -182 106 -200 12 -18 16 -14 43 45 21 47 26 67
17 75 -11 11 -166 86 -166 80z"/>
<path d="M3102 1894 c-19 -21 -8 -60 17 -60 11 0 18 2 16 5 -3 2 0 10 7 18 9
11 7 18 -8 33 -17 16 -21 17 -32 4z"/>
<path d="M2347 1866 c-36 -20 -54 -36 -45 -39 9 -4 8 -6 -4 -6 -9 -1 -19 -5
-23 -10 -3 -5 40 6 96 25 55 19 104 34 107 34 17 -1 -28 -21 -75 -35 -62 -18
-70 -29 -15 -20 l37 6 -33 -17 c-23 -12 -36 -14 -44 -6 -12 12 -65 -1 -82 -19
-8 -9 -7 -10 3 -4 20 12 82 15 76 4 -4 -5 16 -7 45 -4 28 3 57 2 63 -2 31 -19
37 -11 37 47 0 55 -1 58 -27 63 -16 3 -35 0 -43 -7 -22 -18 -99 -50 -105 -44
-3 3 17 15 44 27 27 11 53 26 56 31 11 17 -8 11 -68 -24z m131 -51 c0 -30 -15
-42 -31 -26 -9 9 -8 11 6 6 10 -4 17 -2 17 4 0 6 -10 11 -22 11 -23 0 -23 1 2
14 14 8 26 14 26 15 1 1 2 -10 2 -24z m-48 -19 c0 -2 -11 -6 -25 -8 -13 -3
-22 -1 -19 3 5 9 44 13 44 5z"/>
<path d="M2581 1896 c2 -2 18 -6 34 -10 22 -5 26 -4 15 4 -14 9 -59 15 -49 6z"/>
<path d="M399 1843 c0 -27 -3 -96 -5 -156 l-5 -108 137 2 c75 0 143 3 151 6 7
3 13 18 13 34 l0 29 -85 -2 c-47 0 -88 2 -92 5 -3 4 17 7 45 7 l52 0 0 34 c0
35 0 35 -52 39 l-53 3 53 2 c52 2 52 2 50 32 -2 33 -14 40 -21 13 -4 -17 -5
-17 -6 0 -2 28 -29 20 -34 -10 -4 -26 -4 -26 -6 5 l-1 32 -67 1 c-38 1 -56 4
-40 6 23 4 27 9 27 39 0 31 -2 34 -30 34 -29 0 -30 -2 -31 -47z"/>
<path d="M2510 1878 c0 -11 12 -10 30 2 12 7 10 9 -8 7 -12 0 -22 -5 -22 -9z"/>
<path d="M4310 1854 c0 -30 3 -34 25 -34 22 0 25 4 25 33 0 27 -4 32 -25 33
-22 2 -25 -2 -25 -32z"/>
<path d="M470 1850 c0 -27 3 -30 30 -30 19 0 30 5 30 14 0 8 3 21 6 30 5 13
-1 16 -30 16 -33 0 -36 -2 -36 -30z"/>
<path d="M550 1847 c0 -14 6 -24 15 -24 16 0 18 7 9 31 -9 24 -24 19 -24 -7z"/>
<path d="M1855 1803 c-29 -68 -55 -152 -55 -175 0 -22 69 -97 164 -178 l28
-25 -4 38 c-2 20 -1 37 3 37 3 0 9 -21 12 -47 4 -40 11 -53 49 -84 23 -21 56
-45 72 -55 l29 -17 -6 36 c-7 46 -112 266 -164 343 -21 32 -51 80 -66 106 -15
26 -32 50 -37 53 -5 3 -17 -11 -25 -32z"/>
<path d="M2785 1787 l29 -26 -42 4 c-23 2 -45 6 -49 8 -14 9 -197 -13 -207
-24 -8 -8 -5 -9 12 -4 21 6 264 11 287 5 6 -1 26 -2 45 -1 l35 2 -40 13 c-22
7 -54 21 -70 30 l-30 18 30 -25z"/>
<path d="M4232 1770 c0 -19 2 -27 5 -17 2 9 2 25 0 35 -3 9 -5 1 -5 -18z"/>
<path d="M740 1771 c0 -5 -8 -11 -17 -13 -15 -3 -14 -5 5 -10 17 -5 22 -2 22
13 0 10 -2 19 -5 19 -3 0 -5 -4 -5 -9z"/>
<path d="M630 1760 c0 -5 10 -10 23 -10 18 0 19 2 7 10 -19 13 -30 13 -30 0z"/>
<path d="M4040 1761 c0 -6 5 -13 10 -16 6 -3 10 1 10 9 0 9 -4 16 -10 16 -5 0
-10 -4 -10 -9z"/>
<path d="M2210 1742 c0 -5 9 -17 20 -27 11 -10 20 -14 20 -9 0 5 9 -4 19 -21
34 -55 104 -114 141 -120 32 -5 33 -5 10 5 -69 30 -141 102 -140 141 1 8 9 -2
20 -22 20 -38 55 -68 133 -113 49 -28 78 -29 41 -1 -14 11 -15 14 -4 15 8 0 2
8 -15 19 -16 10 -48 37 -69 60 -29 32 -36 45 -27 54 15 15 14 27 -4 27 -42 0
3 -96 64 -137 39 -26 34 -30 -9 -8 -33 17 -96 101 -92 121 2 9 -6 14 -20 15
-13 0 -31 2 -40 4 -12 2 -15 -2 -11 -13 4 -15 3 -15 -10 1 -15 18 -27 22 -27
9z"/>
<path d="M2376 1723 c-12 -29 8 -32 49 -7 l40 24 -41 0 c-30 0 -44 -5 -48 -17z"/>
<path d="M625 1701 c-8 -30 5 -44 36 -39 19 2 25 10 27 36 3 31 2 32 -27 30
-22 -2 -31 -8 -36 -27z"/>
<path d="M710 1701 c0 -18 6 -31 17 -35 23 -9 32 4 26 37 -8 39 -43 38 -43 -2z"/>
<path d="M2435 1703 c-23 -15 -34 -28 -27 -31 7 -2 19 2 27 8 10 8 15 9 15 2
0 -6 -8 -15 -17 -21 -14 -7 -15 -12 -4 -24 6 -9 25 -20 41 -25 24 -9 28 -8 23
4 -3 8 -11 14 -18 14 -8 0 -17 5 -21 12 -5 8 0 9 14 6 20 -6 22 -2 22 38 0 24
-3 44 -7 43 -5 0 -26 -12 -48 -26z m45 -18 c0 -8 -4 -15 -10 -15 -5 0 -10 7
-10 15 0 8 5 15 10 15 6 0 10 -7 10 -15z"/>
<path d="M4258 1723 c-23 -4 -28 -9 -28 -34 0 -25 4 -29 29 -29 26 0 29 3 29
35 0 19 -1 34 -1 34 -1 -1 -14 -4 -29 -6z"/>
<path d="M4051 1713 c0 -6 -10 -15 -21 -18 -11 -3 -20 -13 -20 -22 0 -12 3
-13 14 -4 11 9 15 9 19 -1 8 -23 19 -1 14 29 -2 15 -5 23 -6 16z"/>
<path d="M4192 1713 c-10 -4 -10 -8 -1 -19 13 -16 -2 -19 -18 -3 -7 7 -12 4
-16 -10 -4 -18 -1 -21 24 -21 26 0 29 4 29 30 0 17 -1 30 -2 29 -2 0 -9 -3
-16 -6z"/>
<path d="M781 1693 c-1 -16 3 -20 19 -16 11 3 20 10 20 15 0 6 -6 8 -14 5 -8
-3 -17 -1 -20 6 -2 7 -5 2 -5 -10z"/>
<path d="M2210 1702 c0 -11 116 -122 126 -122 5 0 -21 29 -56 65 -68 68 -70
70 -70 57z"/>
<path d="M3010 1689 c-7 -11 -10 -23 -7 -25 2 -2 9 7 15 21 14 30 7 33 -8 4z"/>
<path d="M3957 1703 c-13 -12 -7 -43 8 -43 9 0 15 9 15 25 0 24 -10 32 -23 18z"/>
<path d="M4080 1679 c0 -11 5 -17 10 -14 6 3 10 13 10 21 0 8 -4 14 -10 14 -5
0 -10 -9 -10 -21z"/>
<path d="M4120 1670 c0 -5 5 -10 11 -10 5 0 7 5 4 10 -3 6 -8 10 -11 10 -2 0
-4 -4 -4 -10z"/>
<path d="M710 1620 c0 -16 4 -30 9 -30 25 0 41 14 41 36 0 19 -5 24 -25 24
-21 0 -25 -5 -25 -30z"/>
<path d="M3952 1633 c-7 -13 -4 -23 9 -37 19 -19 19 -19 19 12 0 36 -15 50
-28 25z"/>
<path d="M4000 1620 c0 -32 -4 -31 93 -34 39 -1 42 1 45 27 3 25 1 27 -32 27
-24 0 -36 -5 -39 -17 -4 -17 -5 -17 -6 0 -1 18 -21 24 -21 6 0 -6 -7 -3 -16 5
-21 22 -24 20 -24 -14z"/>
<path d="M4191 1640 c-8 -4 -20 -6 -28 -3 -9 3 -13 -3 -13 -21 0 -23 4 -26 33
-26 28 0 33 3 32 25 -2 31 -7 36 -24 25z"/>
<path d="M4241 1642 c-15 -5 -14 -49 2 -55 19 -7 47 17 47 41 0 20 -17 25 -49
14z"/>
<path d="M780 1598 c0 -11 7 -18 18 -18 14 0 15 2 2 10 -12 8 -11 10 8 10 12
0 22 4 22 9 0 5 -11 8 -25 7 -17 -1 -25 -7 -25 -18z"/>
<path d="M2659 1603 c-13 -16 -12 -17 4 -4 16 13 21 21 13 21 -2 0 -10 -8 -17
-17z"/>
<path d="M702 1535 c-2 -33 -1 -35 28 -35 26 0 30 3 30 29 0 21 -6 30 -22 35
-34 9 -34 9 -36 -29z"/>
<path d="M2508 1553 c-5 -20 -3 -22 26 -16 40 8 46 13 14 13 -15 0 -28 6 -30
12 -3 7 -7 3 -10 -9z"/>
<path d="M2548 1563 c7 -3 16 -2 19 1 4 3 -2 6 -13 5 -11 0 -14 -3 -6 -6z"/>
<path d="M3950 1551 c-16 -31 -12 -51 10 -51 16 0 20 7 20 35 0 39 -14 46 -30
16z"/>
<path d="M3996 1554 c-15 -39 -7 -54 29 -54 33 0 35 2 35 35 0 32 -3 35 -29
35 -17 0 -31 -6 -35 -16z"/>
<path d="M780 1530 c0 -26 4 -30 28 -30 25 0 29 4 30 30 1 27 -3 30 -29 30
-26 0 -29 -3 -29 -30z"/>
<path d="M868 1553 c6 -2 18 -2 25 0 6 3 1 5 -13 5 -14 0 -19 -2 -12 -5z"/>
<path d="M2596 1551 c-4 -5 3 -7 14 -4 23 6 26 13 6 13 -8 0 -17 -4 -20 -9z"/>
<path d="M4070 1530 c0 -28 3 -30 35 -30 32 0 35 2 35 30 0 28 -3 30 -35 30
-32 0 -35 -2 -35 -30z"/>
<path d="M2349 1475 l-35 -75 40 -1 41 -2 -38 -6 c-66 -11 -41 -26 48 -29 79
-3 85 -1 85 17 0 16 -8 21 -42 24 l-43 4 43 1 42 2 0 65 c0 62 -1 65 -24 65
-13 0 -36 2 -52 5 -28 5 -31 1 -65 -70z"/>
<path d="M2825 1474 c-18 -16 -22 -22 -9 -15 18 9 53 42 43 41 -2 -1 -17 -12
-34 -26z"/>
<path d="M780 1455 l0 -35 71 0 c61 0 70 2 65 16 -3 9 -6 22 -6 30 0 8 -10 14
-24 14 -17 0 -27 -8 -34 -27 l-10 -28 -1 33 c-1 29 -4 32 -31 32 -28 0 -30 -3
-30 -35z"/>
<path d="M3907 1483 c-11 -10 -8 -53 3 -53 6 0 10 14 10 30 0 31 -2 35 -13 23z"/>
<path d="M1100 1450 c0 -20 5 -30 15 -30 10 0 15 10 15 30 0 20 -5 30 -15 30
-10 0 -15 -10 -15 -30z"/>
<path d="M3710 1451 c0 -16 6 -21 24 -21 31 0 29 34 -2 38 -17 3 -22 -2 -22
-17z"/>
<path d="M3873 1449 c-1 -10 2 -19 8 -19 11 0 12 27 1 34 -4 2 -9 -4 -9 -15z"/>
<path d="M3800 1440 c-12 -8 -9 -10 13 -10 16 0 26 4 22 10 -8 12 -16 12 -35
0z"/>
<path d="M1023 1403 c-7 -3 -13 -18 -13 -34 0 -27 3 -29 36 -29 29 0 35 3 30
16 -3 9 -6 21 -6 29 0 14 -28 24 -47 18z"/>
<path d="M1100 1375 c0 -24 5 -35 15 -35 10 0 15 11 15 35 0 24 -5 35 -15 35
-10 0 -15 -11 -15 -35z"/>
<path d="M3570 1381 c0 -24 4 -31 19 -31 15 0 19 6 17 28 -5 40 -36 43 -36 3z"/>
<path d="M3710 1380 c0 -27 3 -30 30 -30 27 0 30 3 30 30 0 27 -3 30 -30 30
-27 0 -30 -3 -30 -30z"/>
<path d="M3780 1380 c0 -28 3 -30 35 -30 32 0 35 2 35 30 0 28 -3 30 -35 30
-32 0 -35 -2 -35 -30z"/>
<path d="M3648 1392 c-10 -2 -18 -12 -18 -23 0 -14 7 -19 30 -19 25 0 30 4 30
23 0 23 -8 27 -42 19z"/>
<path d="M1150 1363 c0 -20 5 -23 35 -23 21 0 35 5 35 13 0 21 -14 32 -42 32
-23 1 -28 -4 -28 -22z"/>
<path d="M3360 1370 c-9 -17 -8 -20 10 -20 13 0 20 7 20 20 0 11 -4 20 -10 20
-5 0 -14 -9 -20 -20z"/>
<path d="M2684 1368 c-5 -7 -3 -8 5 -3 7 4 23 -3 39 -16 l27 -24 -24 28 c-27
30 -36 33 -47 15z"/>
<path d="M3410 1365 c0 -8 4 -15 10 -15 5 0 7 7 4 15 -4 8 -8 15 -10 15 -2 0
-4 -7 -4 -15z"/>
<path d="M3540 1371 c0 -5 -8 -12 -17 -14 -14 -4 -12 -5 5 -6 13 -1 22 5 22
14 0 8 -2 15 -5 15 -3 0 -5 -4 -5 -9z"/>
<path d="M1230 1355 c0 -7 13 -12 30 -11 39 1 39 23 0 23 -17 0 -30 -6 -30
-12z"/>
<path d="M2235 1325 c-49 -44 -50 -45 -30 -61 39 -31 96 -54 177 -74 45 -11
84 -18 86 -15 2 2 -38 47 -89 99 l-94 96 -50 -45z m80 -85 c13 -5 14 -9 5 -9
-8 0 -24 4 -35 9 -13 5 -14 9 -5 9 8 0 24 -4 35 -9z"/>
<path d="M2350 1323 c65 -75 134 -142 142 -137 10 6 10 54 2 118 l-7 46 -80 0
-80 0 23 -27z"/>
<path d="M3630 1300 c0 -27 3 -30 30 -30 27 0 30 3 30 30 0 27 -3 30 -30 30
-27 0 -30 -3 -30 -30z"/>
<path d="M1390 1296 c0 -20 5 -26 23 -26 20 1 20 2 4 11 -9 6 -15 14 -12 19 3
5 1 11 -5 15 -6 4 -10 -5 -10 -19z"/>
<path d="M1450 1291 c0 -12 6 -21 15 -21 8 0 15 4 15 9 0 5 -7 14 -15 21 -13
10 -15 9 -15 -9z"/>
<path d="M3295 1280 c-3 -5 1 -10 9 -10 9 0 16 5 16 10 0 6 -4 10 -9 10 -6 0
-13 -4 -16 -10z"/>
</g>
</svg>
