<?xml version="1.0" encoding="UTF-8"?>
<svg version="1.1" xmlns="http://www.w3.org/2000/svg" width="32" height="32">
<path d="M0 0 C0.80308594 0.27199219 1.60617188 0.54398437 2.43359375 0.82421875 C5.44409115 2.23788446 6.99367476 3.32344898 9 6 C10.69641755 11.43634577 10.81983203 17.58495781 9 23 C5.17329237 27.48421753 0.80868185 29.69274394 -5.03515625 30.33203125 C-8.46732228 29.94766483 -10.40840841 28.96704899 -13.3125 27.125 C-14.17488281 26.59132813 -15.03726562 26.05765625 -15.92578125 25.5078125 C-18 24 -18 24 -19 22 C-19.15029677 19.50565168 -19.23122109 17.05774702 -19.25 14.5625 C-19.270625 13.88123047 -19.29125 13.19996094 -19.3125 12.49804688 C-19.35161074 7.50653922 -19.35161074 7.50653922 -17.75 5.19921875 C-16.88375 4.60560547 -16.88375 4.60560547 -16 4 C-15.00226562 3.29617188 -15.00226562 3.29617188 -13.984375 2.578125 C-8.95568183 -0.41095836 -5.83066126 -1.97826007 0 0 Z " fill="#9C61E4" transform="translate(21,2)"/>
<path d="M0 0 C2.38720833 2.38720833 1.60759647 8.24272321 1.66845703 11.54663086 C1.57244814 15.29216772 1.45324285 17.37925436 -0.796875 20.4609375 C-4.99623587 23.34975958 -8.83787593 24.79417293 -14 24 C-13.86722656 23.443125 -13.73445312 22.88625 -13.59765625 22.3125 C-12.41779695 17.2141299 -11.56750461 12.20212559 -11 7 C-9.68 7.33 -8.36 7.66 -7 8 C-7 10.31 -7 12.62 -7 15 C-6.01 15 -5.02 15 -4 15 C-4.66 11.7 -5.32 8.4 -6 5 C-7.32 4.67 -8.64 4.34 -10 4 C-9.625 2.0625 -9.625 2.0625 -9 0 C-5.90842747 -1.54578627 -3.31526981 -0.60277633 0 0 Z " fill="#E75677" transform="translate(29,7)"/>
<path d="M0 0 C0.66 0.33 1.32 0.66 2 1 C3.24024621 5.96098482 3.10151176 10.92441192 3 16 C3.99 16 4.98 16 6 16 C6 13.69 6 11.38 6 9 C7.32 9 8.64 9 10 9 C10 11.31 10 13.62 10 16 C10.66 16 11.32 16 12 16 C12.04241723 18.33294775 12.04092937 20.66702567 12 23 C11.67 23.33 11.34 23.66 11 24 C11.99 24.66 12.98 25.32 14 26 C7.62641069 27.00635621 2.96694869 23.6106256 -2 20 C-3.50929383 16.98141234 -3.22510073 13.87099046 -3.25 10.5625 C-3.270625 9.88123047 -3.29125 9.19996094 -3.3125 8.49804688 C-3.35199003 3.45813136 -3.35199003 3.45813136 -1.484375 1.02734375 C-0.99453125 0.68832031 -0.5046875 0.34929688 0 0 Z " fill="#4C5DB6" transform="translate(5,6)"/>
<path d="M0 0 C2.5 0.3125 2.5 0.3125 5 1 C6.60725635 4.21451269 6.05748185 7.43612536 6 11 C5.01 11 4.02 11 3 11 C2.67 8.69 2.34 6.38 2 4 C1.01 3.67 0.02 3.34 -1 3 C-1 5.64 -1 8.28 -1 11 C-1.99 11 -2.98 11 -4 11 C-4.33 8.69 -4.66 6.38 -5 4 C-5.66 4 -6.32 4 -7 4 C-7.33 6.31 -7.66 8.62 -8 11 C-8.99 11 -9.98 11 -11 11 C-11 7.7 -11 4.4 -11 1 C-9.370625 1.020625 -7.74125 1.04125 -6.0625 1.0625 C-4.37500659 1.08386068 -2.68608966 1.07205511 -1 1 C-0.67 0.67 -0.34 0.34 0 0 Z " fill="#F3F2FB" transform="translate(19,11)"/>
<path d="M0 0 C0.99 0.33 1.98 0.66 3 1 C3 3.31 3 5.62 3 8 C3.66 8 4.32 8 5 8 C5.04241723 10.33294775 5.04092937 12.66702567 5 15 C4.67 15.33 4.34 15.66 4 16 C4.99 16.66 5.98 17.32 7 18 C1.70558305 18.50423019 -0.81413519 17.18923033 -5 14 C-4.01 13.67 -3.02 13.34 -2 13 C-2 11.68 -2 10.36 -2 9 C-2.66 8.67 -3.32 8.34 -4 8 C-3.01 8 -2.02 8 -1 8 C-1.020625 6.865625 -1.04125 5.73125 -1.0625 4.5625 C-1 1 -1 1 0 0 Z " fill="#645DE9" transform="translate(12,14)"/>
<path d="M0 0 C1.86440575 1.86440575 1.17374427 4.8824617 1.1875 7.375 C1.20167969 8.53773437 1.21585938 9.70046875 1.23046875 10.8984375 C1 14 1 14 -1 17 C-1.10957031 16.38511719 -1.21914063 15.77023438 -1.33203125 15.13671875 C-1.49058594 14.32847656 -1.64914063 13.52023438 -1.8125 12.6875 C-1.96332031 11.88699219 -2.11414063 11.08648437 -2.26953125 10.26171875 C-3.08777781 7.72821736 -3.93781542 6.64974767 -6 5 C-8.10332891 4.28552357 -8.10332891 4.28552357 -10 4 C-9.625 2.0625 -9.625 2.0625 -9 0 C-5.90842747 -1.54578627 -3.31526981 -0.60277633 0 0 Z " fill="#FC8843" transform="translate(29,7)"/>
<path d="M0 0 C2.9375 2.0625 2.9375 2.0625 5 4 C3.02 4.33 1.04 4.66 -1 5 C-1.66 6.98 -2.32 8.96 -3 11 C-3.33 11 -3.66 11 -4 11 C-4 9.02 -4 7.04 -4 5 C-4.66 5 -5.32 5 -6 5 C-6 3.68 -6 2.36 -6 1 C-6.99 0.67 -7.98 0.34 -9 0 C-5.81229009 -1.59385496 -3.40972958 -0.75129635 0 0 Z " fill="#E362AA" transform="translate(21,2)"/>
<path d="M0 0 C2.5 1.25 2.5 1.25 5 3 C5 4.32 5 5.64 5 7 C5.66 7 6.32 7 7 7 C7 8.32 7 9.64 7 11 C4.69 10.67 2.38 10.34 0 10 C0 6.7 0 3.4 0 0 Z " fill="#2AC0E0" transform="translate(3,16)"/>
<path d="M0 0 C3.06970545 3.06970545 3.67838781 6.73327826 4 11 C2.625 14.5625 2.625 14.5625 1 17 C-0.32 16.67 -1.64 16.34 -3 16 C-2.67 15.67 -2.34 15.34 -2 15 C-1.60056824 12.47804033 -1.24920152 9.97036344 -0.9375 7.4375 C-0.84662109 6.72658203 -0.75574219 6.01566406 -0.66210938 5.28320312 C-0.43760497 3.52261597 -0.21831603 1.76136522 0 0 Z " fill="#C24CC5" transform="translate(18,14)"/>
<path d="M0 0 C0.99 0 1.98 0 3 0 C3 1.32 3 2.64 3 4 C3.66 4 4.32 4 5 4 C5 5.98 5 7.96 5 10 C3.35 9.67 1.7 9.34 0 9 C-0.87890625 2.84765625 -0.87890625 2.84765625 -1 1 C-0.67 0.67 -0.34 0.34 0 0 Z " fill="#CC55E3" transform="translate(12,3)"/>
<path d="M0 0 C1.66611905 -0.042721 3.33382885 -0.04063832 5 0 C6 1 6 1 6.09765625 3.94140625 C6.08605469 5.13636719 6.07445312 6.33132813 6.0625 7.5625 C6.05347656 8.76003906 6.04445313 9.95757812 6.03515625 11.19140625 C6.02355469 12.11824219 6.01195312 13.04507812 6 14 C4.25434889 10.78360346 3.795563 8.67986596 4 5 C3.34 5 2.68 5 2 5 C2 4.34 2 3.68 2 3 C1.34 3 0.68 3 0 3 C0 2.01 0 1.02 0 0 Z " fill="#E6982A" transform="translate(24,7)"/>
<path d="M0 0 C2.4375 0.375 2.4375 0.375 5 1 C6.60725635 4.21451269 6.05748185 7.43612536 6 11 C5.01 11 4.02 11 3 11 C2.87625 9.88625 2.7525 8.7725 2.625 7.625 C2.3534187 3.96896323 2.3534187 3.96896323 0 2 C0 1.34 0 0.68 0 0 Z " fill="#FCE7E8" transform="translate(19,11)"/>
<path d="M0 0 C0.99 0 1.98 0 3 0 C3 2.1875 3 2.1875 2 5 C-0.46066713 7.0496546 -3.05423654 8.73494821 -6 10 C-6.66 9.67 -7.32 9.34 -8 9 C-7.34 7.35 -6.68 5.7 -6 4 C-5.67 4.66 -5.34 5.32 -5 6 C-4.01 6 -3.02 6 -2 6 C-2 5.34 -2 4.68 -2 4 C-1.34 4 -0.68 4 0 4 C0 2.68 0 1.36 0 0 Z " fill="#9B444E" transform="translate(27,21)"/>
<path d="M0 0 C1.98 0.495 1.98 0.495 4 1 C3.67 2.65 3.34 4.3 3 6 C3.99 6.33 4.98 6.66 6 7 C6 7.66 6 8.32 6 9 C7.65 9 9.3 9 11 9 C11 9.33 11 9.66 11 10 C5.70558305 10.50423019 3.18586481 9.18923033 -1 6 C-0.01 5.67 0.98 5.34 2 5 C2 3.68 2 2.36 2 1 C1.34 0.67 0.68 0.34 0 0 Z " fill="#3975AB" transform="translate(8,22)"/>
<path d="M0 0 C0.99 0.495 0.99 0.495 2 1 C2.26140296 2.99319761 2.51730424 4.98774473 2.71484375 6.98828125 C3.04185546 9.29528168 3.76711723 11.02738757 5 13 C4.01 13.495 4.01 13.495 3 14 C1.51171875 12.85546875 1.51171875 12.85546875 0 11 C-0.29296875 8.30078125 -0.29296875 8.30078125 -0.1875 5.3125 C-0.16042969 4.31863281 -0.13335937 3.32476563 -0.10546875 2.30078125 C-0.07066406 1.54152344 -0.03585937 0.78226563 0 0 Z " fill="#4980F3" transform="translate(11,17)"/>
<path d="M0 0 C2.475 0.495 2.475 0.495 5 1 C5 2.98 5 4.96 5 7 C2.5 5.75 2.5 5.75 0 4 C0 2.68 0 1.36 0 0 Z " fill="#4B86FA" transform="translate(3,12)"/>
<path d="M0 0 C0.99 0.33 1.98 0.66 3 1 C3.6875 3.0625 3.6875 3.0625 4 5 C3.01 5 2.02 5 1 5 C0.67 5.66 0.34 6.32 0 7 C-0.38133299 5.0085944 -0.71325582 3.00720923 -1 1 C-0.67 0.67 -0.34 0.34 0 0 Z " fill="#7954FB" transform="translate(7,6)"/>
<path d="M0 0 C-1.32 0.33 -2.64 0.66 -4 1 C-4 2.32 -4 3.64 -4 5 C-5.32 5 -6.64 5 -8 5 C-7.625 3.0625 -7.625 3.0625 -7 1 C-4.53721199 -0.231394 -2.7204945 -0.07159196 0 0 Z " fill="#F7765F" transform="translate(27,6)"/>
<path d="M0 0 C0.66 0 1.32 0 2 0 C2 2.31 2 4.62 2 7 C1.01 6.34 0.02 5.68 -1 5 C-0.67 3.35 -0.34 1.7 0 0 Z " fill="#8155D9" transform="translate(15,22)"/>
</svg>
