<svg xmlns="http://www.w3.org/2000/svg" viewBox="0 0 512 512" id="rupee">
  <circle cx="256" cy="256" r="252.5" fill="#ffbc5b"></circle>
  <circle cx="256" cy="256" r="252.5" fill="#ffbc5b"></circle>
  <path fill="#e88f37" d="M256 3.5c-5.038 0-10.036.165-15 .456C373.467 11.719 478.5 121.586 478.5 256c0 134.415-105.033 244.281-237.5 252.044 4.964.291 9.962.456 15 .456 139.452 0 252.5-113.048 252.5-252.5S395.452 3.5 256 3.5Z"></path>
  <circle cx="256" cy="256" r="194.454" fill="#ffd597"></circle>
  <path fill="#ffe6c2" d="M107.182 459.983a251.834 251.834 0 0 0 62.65 33.424l323.575-323.575a251.858 251.858 0 0 0-33.424-62.65Z"></path>
  <path fill="#ffce8d" d="M473.565 187.443a3.503 3.503 0 0 1-.041 2.291c-.153.417-1.318.149-1.615.482-.394.443.028 1.446-.575 1.644a3.53 3.53 0 0 1-1.101.178 3.486 3.486 0 0 1-3.31-2.385l-.05-.157a3.5 3.5 0 1 1 6.681-2.088"></path>
  <path fill="#fff4e1" d="m216.764 446.475 229.711-229.712a193.372 193.372 0 0 0-28.239-67.834L148.93 418.237a193.38 193.38 0 0 0 67.835 28.238Z"></path>
  <path fill="#ffe6c2" d="M18.593 342.168a251.313 251.313 0 0 0 18.734 40.148L382.316 37.327a251.332 251.332 0 0 0-40.148-18.734Z"></path>
  <path fill="#d8721d" d="M333.348 27.414a252.266 252.266 0 0 1 37.274 21.607l11.694-11.694-.012-.007a253.411 253.411 0 0 0-3.729-2.104c-.436-.243-.87-.491-1.308-.732a255.06 255.06 0 0 0-3.478-1.864c-.54-.285-1.079-.573-1.622-.855a252.52 252.52 0 0 0-3.402-1.728 254.96 254.96 0 0 0-1.755-.872q-1.688-.828-3.391-1.63-.91-.429-1.823-.85-1.704-.788-3.421-1.553c-.606-.269-1.216-.533-1.825-.798a255.22 255.22 0 0 0-3.503-1.497c-.577-.24-1.158-.473-1.738-.71a251.38 251.38 0 0 0-3.664-1.47c-.48-.188-.966-.366-1.448-.55a252.704 252.704 0 0 0-4.022-1.512l-.007-.002Z"></path>
  <path fill="#fff4e1" d="M80.325 339.318 339.318 80.325a192.883 192.883 0 0 0-44.082-14.8L65.525 295.236a192.863 192.863 0 0 0 14.8 44.082Z"></path>
  <path fill="#e88f37" d="M326.384 206.716h-.028l-16.65.03a74.849 74.849 0 0 0-13.668-30.257l30.374-.056a15.142 15.142 0 0 0-.028-30.284h-.028l-89.858.167c-.32-.004-.639-.023-.96-.023h-.183l-49.774.117c-18.847.046-20.529 30.04.1 30.284l50.82-.095a45.47 45.47 0 0 1 41.862 30.206l-92.775.172a15.142 15.142 0 0 0 .028 30.283h.028l92.724-.172a45.522 45.522 0 0 1-42.726 30.338l-50.06.118c-13.569.03-20.201 17.413-10.042 26.443l110.483 98.507a15.142 15.142 0 0 0 20.153-22.603l-80.929-72.157 10.466-.025a75.88 75.88 0 0 0 74.023-60.679l16.676-.03a15.142 15.142 0 0 0-.028-30.284Z"></path>
  <circle cx="400.794" cy="256" r="20.322" fill="#e88f37"></circle>
  <circle cx="111.206" cy="256" r="20.322" fill="#e88f37"></circle>
  <path fill="#e88f37" d="M256.218 484h-.1a2.326 2.326 0 0 1-.118 0h-.1a3.5 3.5 0 1 1 0-7h.219a3.543 3.543 0 0 1 3.55 3.5 3.458 3.458 0 0 1-3.45 3.5zm-21.245-.966a3.33 3.33 0 0 1-.31-.014l-.1-.008a3.5 3.5 0 0 1 .615-6.973 3.543 3.543 0 0 1 3.229 3.799 3.461 3.461 0 0 1-3.434 3.196zm42.168-.01a3.5 3.5 0 0 1-.313-6.986l.108-.01a3.5 3.5 0 1 1 .615 6.973l-.307-3.487.217 3.495c-.107.01-.213.014-.32.014zm-63.015-2.898a3.458 3.458 0 0 1-.613-.055l-.217-.04a3.523 3.523 0 1 1 .83.095zm83.893-.029a3.498 3.498 0 0 1-.738-6.92l.177-.035a3.5 3.5 0 0 1 1.252 6.887l-.626-3.443.598 3.449a3.575 3.575 0 0 1-.663.062zm-104.375-4.824a3.525 3.525 0 0 1-.926-.124c-.04-.011-.178-.05-.219-.063a3.526 3.526 0 1 1 1.145.187z"></path>
  <path fill="#ffce8d" d="M194.587 468.404a3.5 3.5 0 0 0-4.384 2.297 3.464 3.464 0 0 0 .074 2.26l4.49-4.488c-.062-.02-.117-.052-.18-.069Z"></path>
  <path fill="#e88f37" d="M318.421 475.257a3.505 3.505 0 0 1-1.003-6.856c.041-.013.178-.052.22-.063a3.5 3.5 0 1 1 1.841 6.754l-.92-3.377.9 3.381a3.498 3.498 0 0 1-1.038.16Z"></path>
  <path fill="#ffce8d" d="M173.715 468.507a3.508 3.508 0 0 1-1.234-.225 8.406 8.406 0 0 1-.218-.086 3.525 3.525 0 1 1 1.452.31Z"></path>
  <path fill="#e88f37" d="M338.352 468.485a3.506 3.506 0 0 1-1.316-6.747c.04-.018.175-.07.217-.086a3.5 3.5 0 1 1 2.457 6.555l-1.228-3.278 1.21 3.285a3.474 3.474 0 0 1-1.34.271Z"></path>
  <path fill="#ffce8d" d="M154.483 459.873a3.428 3.428 0 0 1-1.536-.365 15.867 15.867 0 0 0-.13-.066 3.5 3.5 0 1 1 3.212-6.22 3.543 3.543 0 0 1 1.56 4.717 3.491 3.491 0 0 1-3.106 1.934Z"></path>
  <path fill="#e88f37" d="M357.585 459.83a3.5 3.5 0 0 1-1.608-6.61l.129-.066a3.5 3.5 0 1 1 3.13 6.262l-1.565-3.131 1.517 3.155a3.492 3.492 0 0 1-1.603.39Z"></path>
  <path fill="#ffce8d" d="M136.232 449.474a3.518 3.518 0 0 1-1.858-.53l-.204-.13a3.527 3.527 0 1 1 2.062.66Z"></path>
  <path fill="#e88f37" d="M375.848 449.442a3.509 3.509 0 0 1-1.94-6.425l.203-.13a3.5 3.5 0 1 1 3.691 5.947l-1.845-2.974 1.83 2.984a3.444 3.444 0 0 1-1.939.598zm17.256-12.12a3.5 3.5 0 0 1-2.15-6.264l.079-.061a3.5 3.5 0 1 1 4.297 5.525l-.08.062a3.483 3.483 0 0 1-2.146.737zm16.035-13.666a3.494 3.494 0 0 1-2.431-6.007l.126-.12a3.5 3.5 0 0 1 4.74 5.152l-2.37-2.576 2.346 2.599a3.518 3.518 0 0 1-2.41.952zm14.696-15.016a3.51 3.51 0 0 1-2.664-5.794l.162-.183a3.5 3.5 0 0 1 5.153 4.74l-2.576-2.37 2.564 2.382a3.44 3.44 0 0 1-2.639 1.225zm13.26-16.387a3.497 3.497 0 0 1-2.846-5.526l.094-.129a3.5 3.5 0 1 1 5.625 4.166l-2.812-2.083 2.789 2.116a3.51 3.51 0 0 1-2.85 1.456zm11.67-17.503a3.502 3.502 0 0 1-2.998-5.302 3.541 3.541 0 0 1 4.812-1.253 3.458 3.458 0 0 1 1.26 4.738l-.07.117a3.498 3.498 0 0 1-3.004 1.7z"></path>
  <path fill="#d8721d" d="m451.77 373.05.068-.117a3.416 3.416 0 0 0-.13-3.66q-1.386 2.754-2.837 5.47a3.493 3.493 0 0 0 2.898-1.693Z"></path>
  <path fill="#ffce8d" d="M53.265 356.274a3.424 3.424 0 0 1-3.1-1.94l-.065-.134a3.5 3.5 0 0 1 6.344-2.96 3.519 3.519 0 0 1-3.179 5.034Z"></path>
  <path fill="#e88f37" d="M458.73 356.209a3.502 3.502 0 0 1-3.169-4.98l.065-.133a3.5 3.5 0 1 1 6.3 3.048l-.021.046a3.506 3.506 0 0 1-3.175 2.019Z"></path>
  <path fill="#d8721d" d="m461.905 354.19.021-.046a3.489 3.489 0 0 0-1.37-4.517 250.095 250.095 0 0 1-2.679 6.464 3.442 3.442 0 0 0 4.028-1.9Z"></path>
  <path fill="#ffce8d" d="M45.096 336.874a3.43 3.43 0 0 1-3.231-2.232l-.067-.184a3.5 3.5 0 0 1 6.62-2.276 3.542 3.542 0 0 1-2.11 4.479 3.591 3.591 0 0 1-1.212.213Z"></path>
  <path fill="#e88f37" d="M466.89 336.786a3.496 3.496 0 0 1-3.304-4.613l.067-.185a3.5 3.5 0 1 1 6.555 2.457l-.01.024a3.535 3.535 0 0 1-3.308 2.317Z"></path>
  <path fill="#d8721d" d="M466.89 336.786a3.535 3.535 0 0 0 3.308-2.316l.01-.025a3.47 3.47 0 0 0-2.67-4.67q-1.021 3.349-2.137 6.655a3.497 3.497 0 0 0 .332.156 3.449 3.449 0 0 0 1.157.2Z"></path>
  <path fill="#e88f37" d="M38.843 316.832a3.502 3.502 0 0 1-3.375-2.58 13.862 13.862 0 0 1-.05-.194 3.5 3.5 0 1 1 3.425 2.774zm434.337-.133a3.5 3.5 0 0 1-3.398-4.3c.008-.032.04-.16.05-.193a3.5 3.5 0 0 1 6.753 1.842l-.006.024a3.534 3.534 0 0 1-3.399 2.627z"></path>
  <path fill="#d8721d" d="M473.18 316.7a3.534 3.534 0 0 0 3.399-2.628l.007-.024a3.495 3.495 0 0 0-3.812-4.392q-.704 3.25-1.485 6.468a3.507 3.507 0 0 0 1.04.468 3.461 3.461 0 0 0 .851.107Z"></path>
  <path fill="#e88f37" d="M34.47 296.243a3.5 3.5 0 0 1-3.459-2.991l3.463-.509-3.466.487a3.524 3.524 0 0 1 2.877-4.01 3.478 3.478 0 0 1 4.017 2.798c.007.04.03.177.035.216a3.5 3.5 0 0 1-3.468 4.009zm443.08-.112a3.551 3.551 0 1 1 .523-7.072 3.507 3.507 0 0 1 2.952 3.98l-.035.217a3.5 3.5 0 0 1-3.44 2.875z"></path>
  <path fill="#d8721d" d="M477.55 296.13a3.5 3.5 0 0 0 3.44-2.874c.007-.04.03-.177.035-.216a3.477 3.477 0 0 0-4.715-3.77q-.405 3.074-.883 6.126a3.425 3.425 0 0 0 2.123.735Z"></path>
  <path fill="#e88f37" d="M32.044 275.34a3.5 3.5 0 0 1-3.49-3.295l3.493-.205-3.495.181a3.522 3.522 0 0 1 3.222-3.745 3.466 3.466 0 0 1 3.753 3.156c.003.035.013.168.014.203a3.5 3.5 0 0 1-3.289 3.699q-.104.006-.208.006zm447.922-.121c-.102 0-.207-.004-.311-.014a3.55 3.55 0 1 1 3.808-3.381l-.014.202a3.5 3.5 0 0 1-3.483 3.193z"></path>
  <path fill="#d8721d" d="M479.966 275.219a3.5 3.5 0 0 0 3.483-3.193l.014-.202a3.501 3.501 0 0 0-5.273-3.221q-.145 2.95-.36 5.883a3.475 3.475 0 0 0 1.825.719c.104.01.209.014.311.014Z"></path>
  <path fill="#e88f37" d="M31.561 254.287c-.035 0-.07 0-.104-.002a3.499 3.499 0 0 1-3.396-3.6l3.498.102-3.498-.127a3.524 3.524 0 0 1 3.5-3.447h.04a3.477 3.477 0 0 1 3.46 3.473l-.004.203a3.5 3.5 0 0 1-3.496 3.398zm448.877-.12a3.55 3.55 0 1 1 3.496-3.702l.004.202a3.5 3.5 0 0 1-3.5 3.5z"></path>
  <path fill="#d8721d" d="M478.47 253.56a3.498 3.498 0 0 0 5.468-2.893l-.004-.202a3.494 3.494 0 0 0-5.582-2.706q.093 2.893.118 5.801Z"></path>
  <path fill="#e88f37" d="M33.008 233.286a3.503 3.503 0 0 1-3.48-3.91l.013-.099a3.5 3.5 0 1 1 6.95.819l-.011.1a3.5 3.5 0 0 1-3.472 3.09zm445.972-.112a3.501 3.501 0 0 1-3.47-3.08l-.013-.11a3.5 3.5 0 0 1 6.95-.818l.012.087a3.5 3.5 0 0 1-3.479 3.92z"></path>
  <path fill="#d8721d" d="M477.433 232.796a3.396 3.396 0 0 0 1.972.352 3.5 3.5 0 0 0 3.054-3.895l-.011-.087a3.505 3.505 0 0 0-3.885-3.066 3.468 3.468 0 0 0-1.746.731q.342 2.972.616 5.965Z"></path>
  <path fill="#e88f37" d="M36.4 212.51a3.504 3.504 0 0 1-3.427-4.227l3.424.727-3.407-.804a3.5 3.5 0 1 1 6.855 1.412c0 .007-.023.111-.024.118a3.502 3.502 0 0 1-3.42 2.775zm439.178-.104a3.5 3.5 0 0 1-3.424-2.795 3.542 3.542 0 0 1 2.701-4.18 3.452 3.452 0 0 1 4.13 2.65c0 .007.023.111.024.118a3.5 3.5 0 0 1-2.721 4.134 3.464 3.464 0 0 1-.71.073z"></path>
  <path fill="#d8721d" d="M474.723 212.287a3.48 3.48 0 0 0 4.286-4.088c0-.007-.023-.111-.024-.118a3.452 3.452 0 0 0-4.13-2.65 3.399 3.399 0 0 0-1.311.586q.626 3.121 1.179 6.27Z"></path>
  <path fill="#e88f37" d="M41.73 192.163a3.505 3.505 0 0 1-3.354-4.53l.07-.22a3.502 3.502 0 1 1 3.284 4.75zm7.22-19.833a3.4 3.4 0 0 1-1.347-.276 3.457 3.457 0 0 1-1.87-4.526l.061-.141a3.5 3.5 0 0 1 6.414 2.806 3.576 3.576 0 0 1-3.258 2.137z"></path>
  <path fill="#ffce8d" d="M463 172.286a3.501 3.501 0 0 1-3.208-2.097c-.006-.016-.052-.125-.06-.141a3.5 3.5 0 1 1 6.456-2.707l.019.042a3.502 3.502 0 0 1-3.207 4.903Z"></path>
  <path fill="#e88f37" d="M58.028 153.34a3.412 3.412 0 0 1-1.614-.404 3.457 3.457 0 0 1-1.464-4.691l.047-.088a3.5 3.5 0 1 1 6.175 3.295 3.578 3.578 0 0 1-3.144 1.888Z"></path>
  <path fill="#ffce8d" d="M453.893 153.285a3.463 3.463 0 0 1-3.023-1.76l-.091-.166a3.5 3.5 0 0 1 6.176-3.295l.013.025a3.508 3.508 0 0 1-3.075 5.196Z"></path>
  <path fill="#e88f37" d="M68.867 135.347a3.5 3.5 0 0 1-2.894-5.464l2.897 1.964-2.872-2.002a3.5 3.5 0 0 1 5.855 3.837l-.087.13a3.495 3.495 0 0 1-2.9 1.535Z"></path>
  <path fill="#ffce8d" d="M443.075 135.259a3.497 3.497 0 0 1-2.931-1.582 3.543 3.543 0 0 1 .958-4.871 3.458 3.458 0 0 1 4.81.905l.087.13a3.5 3.5 0 0 1-2.924 5.418Z"></path>
  <path fill="#e88f37" d="M81.352 118.347a3.482 3.482 0 0 1-2.727-5.645l.073-.089a3.5 3.5 0 1 1 5.425 4.422 3.573 3.573 0 0 1-2.771 1.312zm349.231-.032a3.491 3.491 0 0 1-2.724-1.3 3.536 3.536 0 0 1 .475-4.958 3.462 3.462 0 0 1 4.897.47l.073.09a3.5 3.5 0 0 1-2.72 5.698zM95.345 102.687a3.5 3.5 0 0 1-2.474-5.974l2.474 2.474-2.463-2.487a3.475 3.475 0 0 1 4.924-.183 3.527 3.527 0 0 1 .185 4.97l-.171.175a3.489 3.489 0 0 1-2.475 1.025zm321.227-.087a3.526 3.526 0 1 1 2.404-6.046l.12.123a3.5 3.5 0 0 1-2.524 5.923zM110.763 88.263a3.484 3.484 0 0 1-2.29-6.12l.075-.065a3.5 3.5 0 1 1 4.522 5.344 3.566 3.566 0 0 1-2.307.841zm290.413-.027a3.483 3.483 0 0 1-2.259-.828 3.543 3.543 0 0 1-.449-4.965 3.458 3.458 0 0 1 4.895-.443l.076.064a3.5 3.5 0 0 1-2.263 6.172zm-273.79-12.815a3.497 3.497 0 0 1-2.044-6.34l.152-.107a3.501 3.501 0 1 1 1.891 6.447zm257.121-.064a3.45 3.45 0 0 1-1.942-.6l-.089-.06a3.5 3.5 0 0 1 3.937-5.789l.076.053a3.508 3.508 0 0 1-1.982 6.396zM145.16 64.16a3.5 3.5 0 0 1-1.729-6.545l1.726 3.045-1.644-3.091a3.5 3.5 0 1 1 3.461 6.084l-.092.052a3.482 3.482 0 0 1-1.722.455zm221.585-.055a3.48 3.48 0 0 1-1.728-.459 3.542 3.542 0 0 1-1.356-4.795 3.458 3.458 0 0 1 4.725-1.34l.092.051a3.5 3.5 0 0 1-1.733 6.543zm-202.755-9.52a3.513 3.513 0 0 1-3.214-2.043 3.458 3.458 0 0 1 1.704-4.61l.09-.041a3.5 3.5 0 0 1 2.882 6.38 3.547 3.547 0 0 1-1.462.314z"></path>
  <path fill="#ffce8d" d="M347.979 54.577a3.492 3.492 0 0 1-1.438-.311 3.543 3.543 0 0 1-1.795-4.651 3.455 3.455 0 0 1 4.585-1.77l.09.041a3.5 3.5 0 0 1-1.442 6.691Z"></path>
  <path fill="#e88f37" d="M183.555 46.887a3.517 3.517 0 0 1-3.33-2.354 3.472 3.472 0 0 1 2.14-4.437l.126-.042a3.5 3.5 0 1 1 1.064 6.833Z"></path>
  <path fill="#ffce8d" d="M328.396 46.872a3.492 3.492 0 0 1-1.107-.18l-.126-.043a3.5 3.5 0 0 1 2.275-6.62l.063.022a3.5 3.5 0 0 1-1.105 6.82Z"></path>
  <path fill="#e88f37" d="M203.811 41.061a3.53 3.53 0 0 1-3.443-2.689 3.458 3.458 0 0 1 2.535-4.19c.015-.005.129-.031.145-.035a3.5 3.5 0 0 1 1.551 6.826 3.565 3.565 0 0 1-.788.088zm104.355-.004a3.51 3.51 0 0 1-.754-.083l-.168-.04a3.5 3.5 0 1 1 1.648-6.802l-.824 3.401.857-3.393a3.502 3.502 0 0 1-.759 6.917zm-83.761-3.865a3.5 3.5 0 0 1-.454-6.97l.459 3.47-.421-3.476a3.5 3.5 0 0 1 1.044 6.922l-.164.023a3.546 3.546 0 0 1-.464.03zm63.074-.017a3.55 3.55 0 0 1-3.519-3.999 3.46 3.46 0 0 1 3.875-2.985l.165.023a3.5 3.5 0 0 1-.521 6.961zm-42.019-1.933a3.542 3.542 0 0 1-3.544-3.344 3.459 3.459 0 0 1 3.293-3.648l.1-.005a3.5 3.5 0 1 1 .309 6.994 3.455 3.455 0 0 1-.158.003zm21.057-.002c-.053 0-.104-.001-.157-.004a3.543 3.543 0 0 1-3.393-3.653 3.441 3.441 0 0 1 3.602-3.344l.1.004a3.5 3.5 0 0 1-.152 6.997z"></path>
  <path fill="#d8721d" d="M441.991 125.174a250.985 250.985 0 0 1 28.502 67.571l22.914-22.913v-.004c-.319-.875-.65-1.743-.977-2.614q-.451-1.202-.912-2.4-.526-1.355-1.065-2.704c-.303-.755-.613-1.506-.922-2.257q-1.007-2.44-2.062-4.855c-.284-.648-.563-1.3-.851-1.945-.44-.982-.89-1.958-1.342-2.933q-.41-.888-.827-1.773-.716-1.515-1.447-3.022c-.19-.39-.387-.775-.579-1.164q-1.586-3.202-3.257-6.355c-.136-.255-.269-.512-.405-.767q-.904-1.687-1.834-3.359-.253-.455-.509-.91-3.077-5.49-6.415-10.81l-.117-.188q-4.696-7.465-9.89-14.573l-.013-.017Z"></path>
  <path fill="#d8721d" d="M446.41 132.754a3.475 3.475 0 0 0-.41-2.913l-.087-.13a3.392 3.392 0 0 0-2.06-1.406q1.3 2.211 2.558 4.45zm9.87 19.58a3.523 3.523 0 0 0 .688-4.245l-.013-.025a3.493 3.493 0 0 0-3.516-1.818q1.46 3.022 2.841 6.087zm7.904 19.727c.072-.026.147-.038.218-.069a3.502 3.502 0 0 0 1.805-4.61l-.019-.041a3.491 3.491 0 0 0-4.444-1.916q1.266 3.296 2.44 6.636zm9.381 15.382-.01-.035a3.481 3.481 0 0 0-5.08-1.988q.954 3.288 1.827 6.612a3.52 3.52 0 0 0 1.033-.172c.027-.009.051-.025.079-.035l2.095-2.096a3.485 3.485 0 0 0 .056-2.286z"></path>
  <path d="M256 512A256 256 0 0 1 74.98 74.98a256 256 0 0 1 362.04 362.04A254.324 254.324 0 0 1 256 512Zm0-505A249 249 0 0 0 79.93 432.07 249 249 0 1 0 432.07 79.93 247.368 247.368 0 0 0 256 7Z"></path>
  <path d="M256.218 484h-.318a3.5 3.5 0 0 1 0-7h.218a3.543 3.543 0 0 1 3.55 3.5 3.458 3.458 0 0 1-3.45 3.5zm-21.245-.966q-.154 0-.31-.013l-.151-.015a3.5 3.5 0 0 1 .717-6.963 3.542 3.542 0 0 1 3.176 3.819 3.462 3.462 0 0 1-3.432 3.172zm42.187-.012a3.5 3.5 0 0 1-.385-6.979l.16-.015a3.5 3.5 0 0 1 .616 6.973l-.308-3.486.268 3.49a3.525 3.525 0 0 1-.35.017zm-63.035-2.897a3.515 3.515 0 0 1-.661-.063l-.068-.012a3.5 3.5 0 1 1 1.252-6.887l.13.024a3.5 3.5 0 0 1-.653 6.938zm83.856-.02a3.5 3.5 0 0 1-.604-6.947 3.54 3.54 0 0 1 4.098 2.795 3.458 3.458 0 0 1-2.715 4.068l-.166.03a3.547 3.547 0 0 1-.613.054zm-104.352-4.833a3.47 3.47 0 0 1-.96-.137l-.122-.035a3.5 3.5 0 0 1 1.992-6.711 3.543 3.543 0 0 1 2.411 4.351 3.476 3.476 0 0 1-3.321 2.532zm124.831-.028a3.5 3.5 0 0 1-.995-6.856l.124-.036a3.5 3.5 0 1 1 1.935 6.727l-.967-3.364.9 3.384a3.5 3.5 0 0 1-.997.145zm-144.77-6.741a3.441 3.441 0 0 1-1.254-.238l-.128-.051a3.5 3.5 0 1 1 2.617-6.492 3.543 3.543 0 0 1 1.991 4.555 3.484 3.484 0 0 1-3.227 2.226zm164.699-.036a3.5 3.5 0 0 1-1.31-6.747l.128-.05a3.5 3.5 0 0 1 2.547 6.52l-1.273-3.26 1.215 3.282a3.492 3.492 0 0 1-1.307.255zm-183.88-8.59a3.481 3.481 0 0 1-1.604-.39l1.607-3.11-1.63 3.098a3.52 3.52 0 0 1-1.574-4.686 3.48 3.48 0 0 1 4.64-1.607c.027.013.143.071.17.086a3.5 3.5 0 0 1-1.61 6.61zm203.076-.046a3.5 3.5 0 0 1-1.568-6.632 3.54 3.54 0 0 1 4.73 1.522 3.457 3.457 0 0 1-1.47 4.673l-.13.066a3.486 3.486 0 0 1-1.562.37zm-221.37-10.36a3.482 3.482 0 0 1-1.842-.527l-.168-.107a3.505 3.505 0 1 1 2.01.634zm239.66-.058a3.5 3.5 0 0 1-1.896-6.445l.094-.06a3.5 3.5 0 1 1 3.766 5.902l-1.883-2.951 1.809 2.998a3.484 3.484 0 0 1-1.89.556zm-256.89-12.025a3.481 3.481 0 0 1-2.147-.738l2.148-2.762-2.195 2.726a3.5 3.5 0 0 1 4.232-5.575l.112.086a3.5 3.5 0 0 1-2.15 6.263zm274.12-.07a3.5 3.5 0 0 1-2.12-6.287 3.542 3.542 0 0 1 4.931.625 3.458 3.458 0 0 1-.587 4.865l-.111.085a3.483 3.483 0 0 1-2.114.713zm-290.2-13.58a3.411 3.411 0 0 1-2.32-.908 9.016 9.016 0 0 0-.1-.094 3.5 3.5 0 0 1 4.795-5.1 3.517 3.517 0 0 1-2.375 6.102zm306.227-.065a3.5 3.5 0 0 1-2.371-6.076 3.528 3.528 0 0 1 4.97.132 3.474 3.474 0 0 1-.13 4.926l-.1.094a3.49 3.49 0 0 1-2.37.924zM88.186 408.679a3.409 3.409 0 0 1-2.545-1.136l-.119-.132a3.5 3.5 0 0 1 5.301-4.573 3.518 3.518 0 0 1-2.637 5.84zm335.656-.071a3.5 3.5 0 0 1-2.627-5.812l.096-.107a3.5 3.5 0 1 1 5.197 4.689l-2.599-2.344 2.562 2.386a3.493 3.493 0 0 1-2.63 1.188zM74.975 392.355a3.497 3.497 0 0 1-2.834-1.441l2.83-2.059-2.848 2.034a3.5 3.5 0 0 1 5.57-4.239l.11.146a3.5 3.5 0 0 1-2.828 5.56zm362.119-.093a3.5 3.5 0 0 1-2.81-5.583 3.544 3.544 0 0 1 4.913-.779 3.46 3.46 0 0 1 .79 4.84 7.06 7.06 0 0 0-.078.106 3.495 3.495 0 0 1-2.815 1.416zM63.303 374.85a3.51 3.51 0 0 1-2.986-1.66 7.056 7.056 0 0 1-.11-.183 3.508 3.508 0 1 1 3.096 1.843zm385.462-.101a3.5 3.5 0 0 1-2.985-5.324 3.541 3.541 0 0 1 4.81-1.223 3.457 3.457 0 0 1 1.248 4.73l-.083.14a3.497 3.497 0 0 1-2.99 1.677zM53.326 356.315a3.511 3.511 0 0 1-3.151-1.961 11.788 11.788 0 0 1-.092-.194 3.507 3.507 0 1 1 3.243 2.155zm405.399-.134a3.435 3.435 0 0 1-1.463-.326 3.476 3.476 0 0 1-1.719-4.585l.092-.194a3.5 3.5 0 1 1 6.281 3.089l-3.14-1.544 3.13 1.564a3.544 3.544 0 0 1-3.181 1.996zm-413.63-19.307a3.43 3.43 0 0 1-3.23-2.231c-.011-.03-.057-.155-.067-.186a3.5 3.5 0 1 1 6.619-2.275 3.542 3.542 0 0 1-2.11 4.479 3.579 3.579 0 0 1-1.211.213zm421.795-.088a3.437 3.437 0 0 1-1.158-.2 3.479 3.479 0 0 1-2.146-4.413l.066-.185a3.5 3.5 0 0 1 6.555 2.458l-3.277-1.23 3.267 1.254a3.534 3.534 0 0 1-3.307 2.316zm-428.084-20a3.437 3.437 0 0 1-3.338-2.535l-.047-.18a3.5 3.5 0 1 1 6.797-1.673 3.543 3.543 0 0 1-2.507 4.272 3.604 3.604 0 0 1-.905.117zm434.374-.088a3.437 3.437 0 0 1-.852-.106 3.479 3.479 0 0 1-2.547-4.194l.05-.192a3.5 3.5 0 0 1 6.754 1.841l-3.377-.92 3.37.945a3.533 3.533 0 0 1-3.398 2.626zM34.47 296.245a3.502 3.502 0 0 1-3.458-2.984l3.462-.517-3.465.493a3.522 3.522 0 0 1 2.875-4.018 3.476 3.476 0 0 1 4.02 2.81l.032.199a3.505 3.505 0 0 1-3.466 4.017zm443.08-.114a3.539 3.539 0 0 1-.613-.054 3.5 3.5 0 0 1-2.837-4.055 3.552 3.552 0 0 1 4.016-2.896 3.458 3.458 0 0 1 2.907 3.922l-.03.19a3.5 3.5 0 0 1-3.443 2.893zM32.044 275.34a3.5 3.5 0 0 1-3.491-3.295l3.494-.205-3.495.182a3.523 3.523 0 0 1 3.22-3.745 3.469 3.469 0 0 1 3.754 3.152l.015.205a3.501 3.501 0 0 1-3.289 3.7q-.104.006-.208.006zm447.922-.121c-.104 0-.207-.005-.312-.014a3.55 3.55 0 1 1 3.809-3.38l-.015.201a3.5 3.5 0 0 1-3.482 3.193zM31.56 254.288c-.036 0-.07 0-.105-.002a3.5 3.5 0 0 1-3.395-3.601l3.498.103-3.498-.127a3.5 3.5 0 0 1 7 .026l-.004.204a3.5 3.5 0 0 1-3.496 3.397zm448.877-.12a3.55 3.55 0 1 1 3.497-3.703c.002.035.003.169.003.203a3.5 3.5 0 0 1-3.5 3.5zm-447.43-20.882a3.603 3.603 0 0 1-.413-.025 3.5 3.5 0 0 1-3.067-3.885l.012-.1a3.5 3.5 0 1 1 6.951.819l-.012.099a3.5 3.5 0 0 1-3.471 3.092zm445.971-.112a3.5 3.5 0 0 1-3.471-3.092 3.542 3.542 0 0 1 3.057-3.934 3.457 3.457 0 0 1 3.882 3.012l.012.104a3.5 3.5 0 0 1-3.066 3.885 3.588 3.588 0 0 1-.414.025zM36.391 212.46a3.418 3.418 0 0 1-.705-.074 3.457 3.457 0 0 1-2.715-4.092l.022-.107a3.5 3.5 0 1 1 6.848 1.452 3.562 3.562 0 0 1-3.45 2.821zm439.186-.055a3.501 3.501 0 0 1-3.42-2.774l-.022-.108a3.5 3.5 0 0 1 6.851-1.432l-3.425.716 3.444-.628a3.502 3.502 0 0 1-3.428 4.226zM41.715 192.096a3.41 3.41 0 0 1-1.05-.165 3.458 3.458 0 0 1-2.285-4.313l.06-.188a3.5 3.5 0 0 1 6.631 2.244 3.571 3.571 0 0 1-3.356 2.422zm428.507-.069a3.468 3.468 0 0 1-3.294-2.358c-.011-.03-.051-.156-.06-.188a3.5 3.5 0 0 1 6.69-2.058l-3.345 1.03 3.352-1.006a3.51 3.51 0 0 1-3.343 4.58zM48.96 172.391a3.504 3.504 0 0 1-3.235-4.845c.014-.035.069-.162.085-.196a3.501 3.501 0 1 1 3.15 5.04zm414.013-.126a3.458 3.458 0 0 1-3.163-2.039l-.085-.197a3.5 3.5 0 0 1 6.47-2.67l-3.235 1.335 3.243-1.315a3.51 3.51 0 0 1-3.23 4.886zM58.026 153.34a3.417 3.417 0 0 1-1.614-.402 3.458 3.458 0 0 1-1.464-4.692l.047-.088a3.5 3.5 0 1 1 6.176 3.294 3.576 3.576 0 0 1-3.145 1.888zm395.868-.053a3.463 3.463 0 0 1-3.024-1.76l-.09-.167a3.5 3.5 0 1 1 6.175-3.294l-3.088 1.647 3.102-1.622a3.51 3.51 0 0 1-3.075 5.196zm-385.03-17.993a3.482 3.482 0 0 1-2.907-5.387l.071-.107a3.5 3.5 0 0 1 5.793 3.931 3.58 3.58 0 0 1-2.957 1.563zm374.21-.034a3.498 3.498 0 0 1-2.9-1.535c-.004-.008-.066-.1-.07-.107a3.5 3.5 0 1 1 5.824-3.883l-2.912 1.941 2.952-1.882a3.501 3.501 0 0 1-2.894 5.466zm-361.73-16.85a3.502 3.502 0 0 1-2.74-5.681l.134-.165a3.502 3.502 0 1 1 2.606 5.845zm349.24-.096a3.53 3.53 0 1 1 2.628-5.813l.113.14a3.5 3.5 0 0 1-2.741 5.673zm-335.24-15.626a3.5 3.5 0 0 1-2.5-5.949l2.5 2.45-2.457-2.494a3.5 3.5 0 0 1 5.054 4.844l-.096.099a3.49 3.49 0 0 1-2.5 1.05zm321.227-.085a3.49 3.49 0 0 1-2.5-1.051l-.07-.072a3.5 3.5 0 0 1 5-4.898l.07.071a3.5 3.5 0 0 1-2.5 5.95zM110.734 88.313a3.5 3.5 0 0 1-2.262-6.171l.047-.04a3.5 3.5 0 1 1 4.58 5.293l-.106.09a3.485 3.485 0 0 1-2.259.828zm290.442-.078a3.485 3.485 0 0 1-2.259-.828 3.543 3.543 0 0 1-.45-4.965 3.459 3.459 0 0 1 4.895-.443l.076.064a3.5 3.5 0 0 1-2.262 6.172zM127.379 75.428a3.5 3.5 0 0 1-2.003-6.372l.048-.034a3.5 3.5 0 0 1 4.068 5.696l-.116.082a3.485 3.485 0 0 1-1.997.628zm257.147-.066a3.485 3.485 0 0 1-1.997-.628 3.543 3.543 0 0 1-.913-4.901 3.459 3.459 0 0 1 4.831-.9l.082.057a3.5 3.5 0 0 1-2.003 6.372zM145.16 64.16a3.5 3.5 0 0 1-1.728-6.546l1.725 3.045-1.643-3.091a3.5 3.5 0 1 1 3.46 6.084l-.091.052a3.482 3.482 0 0 1-1.723.456zm221.585-.056a3.48 3.48 0 0 1-1.727-.458 3.542 3.542 0 0 1-1.357-4.795 3.458 3.458 0 0 1 4.726-1.342l.092.053a3.5 3.5 0 0 1-1.734 6.542zm-202.755-9.52a3.513 3.513 0 0 1-3.214-2.043 3.458 3.458 0 0 1 1.705-4.61l.09-.041a3.5 3.5 0 0 1 2.881 6.38 3.547 3.547 0 0 1-1.462.314zm183.99-.007a3.492 3.492 0 0 1-1.439-.31 3.543 3.543 0 0 1-1.795-4.652 3.455 3.455 0 0 1 4.585-1.77l.091.041a3.5 3.5 0 0 1-1.442 6.691zm-164.424-7.69a3.518 3.518 0 0 1-3.331-2.354 3.472 3.472 0 0 1 2.14-4.437l.126-.042a3.5 3.5 0 1 1 1.065 6.833zm144.84-.015a3.49 3.49 0 0 1-1.107-.18l-.126-.043a3.5 3.5 0 0 1 2.275-6.62l.064.022a3.5 3.5 0 0 1-1.106 6.821zm-124.584-5.81a3.531 3.531 0 0 1-3.444-2.69 3.458 3.458 0 0 1 2.535-4.19c.016-.005.13-.032.146-.036a3.5 3.5 0 0 1 1.55 6.827 3.537 3.537 0 0 1-.787.089zm104.355-.005a3.51 3.51 0 0 1-.755-.082l-.168-.04a3.5 3.5 0 1 1 1.649-6.803l-.825 3.402.858-3.394a3.502 3.502 0 0 1-.759 6.917zm-83.76-3.866a3.5 3.5 0 0 1-.456-6.97l.46 3.47-.422-3.475a3.5 3.5 0 0 1 1.044 6.922l-.164.023a3.543 3.543 0 0 1-.463.03zm63.072-.016a3.55 3.55 0 0 1-3.518-3.999 3.457 3.457 0 0 1 3.875-2.985l.164.023a3.5 3.5 0 0 1-.52 6.961zm-42.018-1.933a3.542 3.542 0 0 1-3.544-3.344 3.458 3.458 0 0 1 3.293-3.648l.1-.005a3.5 3.5 0 1 1 .308 6.993 3.482 3.482 0 0 1-.157.004zm21.057-.002c-.053 0-.105-.001-.158-.004a3.544 3.544 0 0 1-3.392-3.653 3.438 3.438 0 0 1 3.601-3.344l.1.004a3.5 3.5 0 0 1-.151 6.997zM256 453.954c-109.152 0-197.954-88.802-197.954-197.954S146.848 58.046 256 58.046 453.954 146.848 453.954 256 365.152 453.954 256 453.954zm0-388.908C150.708 65.046 65.046 150.708 65.046 256S150.708 446.954 256 446.954 446.954 361.292 446.954 256 361.292 65.046 256 65.046z"></path>
  <path d="M296.095 399.834a18.612 18.612 0 0 1-12.4-4.728L173.21 296.6a18.766 18.766 0 0 1 12.362-32.555l50.06-.119a42.045 42.045 0 0 0 37.456-23.327l-87.438.162a18.642 18.642 0 0 1-.07-37.283l87.509-.162a42.02 42.02 0 0 0-36.662-23.216l-50.74.095c-12.693-.15-18.407-9.623-18.366-18.361.043-9.152 6.454-18.894 18.25-18.922l49.966-.119c.219 0 .436.007.652.015l.351.01 89.808-.168a18.642 18.642 0 0 1 .07 37.284l-23.72.044a77.59 77.59 0 0 1 9.813 23.264l13.837-.025h.035a18.642 18.642 0 0 1 .035 37.283l-13.874.026a79.512 79.512 0 0 1-76.824 60.684l-1.313.003 74.098 66.066a18.642 18.642 0 0 1-12.411 32.556zm-17.727-166.246a3.5 3.5 0 0 1 3.3 4.667 49.06 49.06 0 0 1-46.019 32.67l-50.06.119a11.769 11.769 0 0 0-7.724 20.327l110.488 98.51a11.642 11.642 0 0 0 15.495-17.378l-80.93-72.157a3.5 3.5 0 0 1 2.321-6.113l10.466-.024a72.466 72.466 0 0 0 70.6-57.874 3.5 3.5 0 0 1 3.424-2.805l16.676-.031a11.642 11.642 0 0 0-.021-23.283l-16.671.03h-.007a3.5 3.5 0 0 1-3.43-2.802 70.945 70.945 0 0 0-13.03-28.845 3.5 3.5 0 0 1 2.785-5.61l30.374-.056a11.642 11.642 0 0 0-.021-23.284l-89.88.167a24.48 24.48 0 0 1-.55-.013c-.139-.005-.277-.01-.416-.01h-.183l-49.765.118c-7.36.017-11.24 6.027-11.268 11.954-.024 5.164 2.947 11.23 11.4 11.329l50.771-.094a48.97 48.97 0 0 1 45.17 32.538 3.5 3.5 0 0 1-3.294 4.667l-92.774.172a11.642 11.642 0 0 0 .021 23.283l92.745-.172zm122.426 46.234A23.822 23.822 0 1 1 424.615 256a23.849 23.849 0 0 1-23.821 23.822zm0-40.644A16.822 16.822 0 1 0 417.615 256a16.841 16.841 0 0 0-16.821-16.822zm-289.588 40.644A23.822 23.822 0 1 1 135.028 256a23.849 23.849 0 0 1-23.822 23.822zm0-40.644A16.822 16.822 0 1 0 128.028 256a16.84 16.84 0 0 0-16.822-16.822z"></path>
</svg>
