<?xml version="1.0" encoding="UTF-8" standalone="no"?>
<!-- Created with Inkscape (http://www.inkscape.org/) -->

<svg
   xmlns:dc="http://purl.org/dc/elements/1.1/"
   xmlns:cc="http://creativecommons.org/ns#"
   xmlns:rdf="http://www.w3.org/1999/02/22-rdf-syntax-ns#"
   xmlns:svg="http://www.w3.org/2000/svg"
   xmlns="http://www.w3.org/2000/svg"
   xmlns:sodipodi="http://sodipodi.sourceforge.net/DTD/sodipodi-0.dtd"
   xmlns:inkscape="http://www.inkscape.org/namespaces/inkscape"
   width="100mm"
   height="100mm"
   viewBox="0 0 100 100"
   version="1.1"
   id="svg8"
   inkscape:version="0.92.5 (2060ec1f9f, 2020-04-08)"
   sodipodi:docname="Subida Logo03.svg">
  <defs
     id="defs2" />
  <sodipodi:namedview
     id="base"
     pagecolor="#ffffff"
     bordercolor="#666666"
     borderopacity="1.0"
     inkscape:pageopacity="0.0"
     inkscape:pageshadow="2"
     inkscape:zoom="1.4"
     inkscape:cx="303.684"
     inkscape:cy="161.28571"
     inkscape:document-units="mm"
     inkscape:current-layer="layer1"
     showgrid="false"
     inkscape:window-width="1848"
     inkscape:window-height="1016"
     inkscape:window-x="72"
     inkscape:window-y="27"
     inkscape:window-maximized="1" />
  <metadata
     id="metadata5">
    <rdf:RDF>
      <cc:Work
         rdf:about="">
        <dc:format>image/svg+xml</dc:format>
        <dc:type
           rdf:resource="http://purl.org/dc/dcmitype/StillImage" />
        <dc:title></dc:title>
      </cc:Work>
    </rdf:RDF>
  </metadata>
  <g
     inkscape:label="Layer 1"
     inkscape:groupmode="layer"
     id="layer1"
     transform="translate(0,-197)">
    <rect
       style="fill:#7878ff;stroke-width:0.26458332;fill-opacity:1"
       id="rect20"
       width="100.07318"
       height="99.869202"
       x="0"
       y="197.17484" />
    <path
       style="fill:#ffffff;fill-opacity:1;stroke:none;stroke-width:0.28178141px;stroke-linecap:butt;stroke-linejoin:miter;stroke-opacity:1"
       d="m 68.12055,213.15319 3.150045,4.32128 13.411622,44.50671 -22.920794,34.97584 -53.5781133,0.0307 18.5332183,-59.71785 z"
       id="path827"
       inkscape:connector-curvature="0"
       sodipodi:nodetypes="ccccccc" />
    <path
       style="fill:#4f4f00;fill-opacity:1;stroke:none;stroke-width:0.26996538px;stroke-linecap:butt;stroke-linejoin:miter;stroke-opacity:1"
       d="m 48.067004,264.54108 v 4.82165 L 21.67823,297 8.1833097,296.98772 Z"
       id="path898"
       inkscape:connector-curvature="0" />
    <path
       style="fill:#4f4f00;fill-opacity:1;stroke:none;stroke-width:0.26458332px;stroke-linecap:butt;stroke-linejoin:miter;stroke-opacity:1"
       d="m 66.155072,214.21153 -38.09034,32.61214 -1.776751,-6.65603 z"
       id="path894"
       inkscape:connector-curvature="0"
       sodipodi:nodetypes="cccc" />
    <path
       style="fill:#4f4f00;fill-opacity:1;stroke:none;stroke-width:0.28600132px;stroke-linecap:butt;stroke-linejoin:miter;stroke-opacity:1"
       d="m 52.113456,239.93161 v 4.0958 l 26.490784,29.80059 3.837937,-6.15924 z"
       id="path896"
       inkscape:connector-curvature="0"
       sodipodi:nodetypes="ccccc" />
    <path
       style="fill:#808000;fill-opacity:1;stroke-width:0.20127244"
       d="m 0.08098859,296.96711 c -0.07373447,-14.14924 -0.13918521,-43.11097 -0.06847332,-47.53708 0.3060386,-0.23428 0.79428989,-0.9401 2.11482443,-1.38182 1.3205346,-0.44172 3.752803,-2.27193 4.0168685,-2.97386 0.2640656,-0.70193 1.6366564,-1.79529 1.8114519,-2.10591 0.1747955,-0.31061 1.5960043,-1.37971 2.5184389,-1.91064 0.922435,-0.53093 3.599058,-2.16337 3.975075,-2.54277 0.982425,-1.03631 2.767718,-1.71072 3.221275,-2.32045 0.687971,-0.96972 2.342705,-1.97649 2.89161,-2.90918 0.548906,-0.93269 1.785054,0.35806 6.034794,-1.57025 0.771065,-0.36244 0.99144,-0.60509 1.414267,-1.55718 0.275479,-0.6203 0.550715,-1.37293 0.611633,-1.6725 0.11413,-0.56126 0.335185,-0.63676 2.378602,-0.81235 1.051185,-1.47082 0.391118,-4.13868 1.94492,-5.06282 0.369359,-0.24336 1.24797,-0.55709 1.952472,-0.69717 1.342364,-0.27575 2.737405,-0.87931 3.851535,-1.15071 1.11413,-0.2714 1.846953,-0.73205 3.220358,-1.05648 1.373406,-0.32443 3.928876,-1.04534 4.27813,-1.24582 1.395345,-0.85745 3.724,-1.10927 4.778979,-2.03651 1.054978,-0.92725 1.947022,-0.93533 2.96511,-1.38477 l 1.052873,-0.46491 2.722638,-1.10959 c 0.881933,-0.35942 2.416022,0.5266 3.334788,0.58612 l 5.051915,0.10821 -35.520366,25.95611 17.432297,24.4263 -38.3717896,32.3938 c -0.003,0.19569 51.8655346,0.16611 52.0662086,-0.0307 l 16.900994,-29.1672 -26.548961,-27.80537 18.627973,-21.98083 c 1.313949,0.39225 3.679934,3.26904 4.275521,4.13547 0.503535,1.21159 0.975241,2.72693 1.712732,3.85725 0.225117,0.33342 0.779,0.82783 1.23085,1.09869 0.45185,0.27086 1.293938,0.79969 1.871303,1.17517 0.577366,0.37548 1.033902,0.67318 1.997216,1.25092 0.963314,0.57774 1.555804,0.99287 1.555804,1.11914 0,0.12627 -0.350164,-0.14734 0.290703,0.15354 0.640866,0.30089 1.82786,2.17463 2.44107,2.44288 1.11649,1.73744 1.127359,3.16266 2.093266,5.66785 0.279897,0.63478 0.729882,1.89097 1.323859,2.02695 0.593977,0.13599 2.11047,1.41585 2.302854,1.98967 0.192382,0.57383 0.233809,0.79495 0.337551,2.27268 0.103742,1.47773 0.508972,3.63312 0.983339,4.21767 0.08983,0.11071 0.743912,0.56066 1.453509,0.99991 1.052805,0.65169 1.554602,1.14234 2.727446,2.66685 0.7905,1.02753 1.5367,1.86824 1.658239,1.86824 0.121532,0 0.467984,0.317 0.769903,0.70445 0.500906,0.38081 0.188042,0.95165 0.571476,1.23711 l 0.004,40.15099 c 0,0 -96.3481638,0.0169 -100.26156141,-0.0191 z"
       id="path18"
       inkscape:connector-curvature="0"
       sodipodi:nodetypes="cczzzzcczcccccczzczccscccccccccccszzzzcczzzsscsccccc" />
    <path
       sodipodi:type="star"
       style="fill:#ffffff;fill-opacity:1;stroke:none;stroke-width:0.65284133"
       id="path833"
       sodipodi:sides="3"
       sodipodi:cx="70.292343"
       sodipodi:cy="215.80396"
       sodipodi:r1="24.072889"
       sodipodi:r2="12.036445"
       sodipodi:arg1="1.1938871"
       sodipodi:arg2="2.2410847"
       inkscape:flatsided="false"
       inkscape:rounded="0"
       inkscape:randomized="0"
       d="M 79.152332,238.18709 62.815159,225.23623 46.477988,212.28536 65.862349,204.61239 85.24671,196.93941 82.199521,217.56325 Z"
       inkscape:transform-center-x="-1.8482167"
       inkscape:transform-center-y="0.45737803"
       transform="matrix(0.6883852,0.04280338,-0.04280338,0.6883852,35.661504,58.984672)" />
    <ellipse
       id="path22"
       cx="12.095239"
       cy="208.74255"
       rx="18.906116"
       ry="18.930561"
       style="stroke-width:0.26458332;fill:#ffff00" />
  </g>
</svg>
