<svg width="128" height="128" viewBox="0 0 128 128" fill="none" xmlns="http://www.w3.org/2000/svg">
<circle cx="64" cy="64" r="64" fill="#1149FF"/>
<g clip-path="url(#clip0_1118_9345)">
<path d="M35.5501 54.905C35.5501 37.499 48.316 24.5 66.3774 24.5C84.297 24.5 97.4412 37.499 97.4412 55.1456C97.4412 72.4336 84.7746 85.31 65.7628 85.31H51.082V102.541C51.082 103.376 50.9638 103.485 50.1363 103.485H43.316C43.316 103.485 37.3326 103.485 36.4957 103.485C35.6588 103.485 35.5501 103.367 35.5501 102.541V54.905ZM81.9093 55.0229C81.9093 45.8316 76.1741 38.8107 66.3774 38.8107C56.4484 38.8107 51.082 45.8458 51.082 54.905V71.004H65.777C76.1741 71.004 81.9093 64.2048 81.9093 55.0229Z" fill="white"/>
</g>
<defs>
<clipPath id="clip0_1118_9345">
<rect width="62.3981" height="78.985" fill="white" transform="translate(35 24.5)"/>
</clipPath>
</defs>
</svg>
