<svg xmlns="http://www.w3.org/2000/svg" xmlns:xlink="http://www.w3.org/1999/xlink" width="130" height="130" viewBox="0 0 130 130">
  <defs>
    <clipPath id="clip-logo">
      <rect width="130" height="130"/>
    </clipPath>
  </defs>
  <g id="logo" clip-path="url(#clip-logo)">
    <rect width="130" height="130" fill="#fff"/>
    <g id="Group_49" data-name="Group 49" transform="translate(0 3)">
      <g id="Group_59897" data-name="Group 59897" transform="translate(0 -3)">
        <g id="Vector">
          <path id="Path_243" data-name="Path 243" d="M130,65A65,65,0,1,1,65,0,65,65,0,0,1,130,65Z"/>
          <path id="Path_244" data-name="Path 244" d="M49.994,10.156Q70.841,23.58,77.551,28.772c3.841,2.978,2.3,32.358,2.275,38.22-.044,8.453-2.774,12.71-11.532,12.71q-24.738-.013-49.474.015c-5.546,0-8.636-5.043-8.651-10.447q-.031-18.232,0-36.447,0-2.34,3.421-4.748,20.2-14.231,27.9-18.664Q45.4,7.2,49.994,10.156Zm22.972,23.1-25.7-17.027a3.786,3.786,0,0,0-4.024-.089q-10.614,6.293-21.42,13.75c-3.6,2.488-5.637,3.321-5.67,7.4q-.058,16.327.106,32.654c.03,2.8,1.808,4.181,4.645,4.181q24.8.013,48.552-.015a4.013,4.013,0,0,0,2.822-1.146,3.987,3.987,0,0,0,.866-1.276,3.948,3.948,0,0,0,.307-1.507q.031-17.86.015-35.762a1.261,1.261,0,0,0-.1-.644A1.275,1.275,0,0,0,72.965,33.254Z" transform="translate(19.846 16.539)" fill="#fff"/>
          <path id="Path_245" data-name="Path 245" d="M43.238,23.759l-2.26-1.8a1.225,1.225,0,0,1-.325-.393,1.2,1.2,0,0,1-.127-.493,1.1,1.1,0,0,1,.092-.493,1.156,1.156,0,0,1,.3-.408l2.742-2.426a.983.983,0,0,1,1.135-.242,1.019,1.019,0,0,1,.328.242l8.352,7.531A3.028,3.028,0,0,1,51.4,30.546L16.86,30.531a1.22,1.22,0,0,1-.656-.189,1.187,1.187,0,0,1-.446-.511,4.621,4.621,0,0,1-.089-4.048,1.279,1.279,0,0,1,.508-.6,1.315,1.315,0,0,1,.771-.2H42.8a.667.667,0,0,0,.4-.124.661.661,0,0,0,.257-.331.687.687,0,0,0-.222-.765Z" transform="translate(29.798 34.046)" fill="#fff"/>
          <path id="Path_246" data-name="Path 246" d="M26.522,30.046l1.327,1.327a.795.795,0,0,1,.34.668.774.774,0,0,1-.1.372.816.816,0,0,1-.266.284l-2.381,2.142a1.367,1.367,0,0,1-1.793.015Q19.691,31.49,16,27.875a2.323,2.323,0,0,1-.665-1.25c-.632-3.424,1.885-4.154,4.78-4.125q16.127.151,31.806.476a2.027,2.027,0,0,1,.756.168,2,2,0,0,1,.632.44,1.961,1.961,0,0,1,.411.647,1.886,1.886,0,0,1,.13.753q-.093,3.47-2.4,3.528-11.682.315-24.437.343Q25.3,28.856,26.522,30.046Z" transform="translate(29.783 43.977)" fill="#fff"/>
        </g>
      </g>
    </g>
  </g>
</svg>
