<!-- by TradingView --><svg width="18" height="18" xmlns="http://www.w3.org/2000/svg"><path fill="#0078B9" d="M0 0h18v18H0z"/><path d="M13 5.868v-.036c0-.935-.008-1.446-.498-1.98-.547-.597-1.535-.852-2.8-.852h-3.67a.518.518 0 00-.518.424l-1.51 9.227a.289.289 0 00.071.243.314.314 0 00.24.106H6.58l.529-3.28a.573.573 0 01.07-.082.5.5 0 01.347-.144h1.098c1.127 0 2.288-.561 3.14-1.097.846-.533 1.226-1.528 1.235-2.529z" fill="#fff"/><path d="M12.957 6.337a4.803 4.803 0 01-.04.193c-.51 2.228-2.256 2.998-4.486 2.998H7.295c-.273 0-.502.169-.545.397l-.581 3.136-.165.654a.212.212 0 00.007.106.238.238 0 00.059.093.29.29 0 00.099.064c.038.015.08.023.121.023h2.014c.239 0 .441-.148.479-.348l.02-.087.38-1.811.024-.113c.037-.2.24-.348.478-.348h.302c1.95 0 3.478-.674 3.925-2.623.186-.814.09-1.494-.404-1.973a1.921 1.921 0 00-.551-.361z" fill="#ADCFE5"/><path d="M12.423 6.156a4.636 4.636 0 00-.496-.094A7.396 7.396 0 0010.926 6H7.892a.537.537 0 00-.315.099.4.4 0 00-.163.25L6.77 9.823l-.019.101a.456.456 0 01.186-.284.612.612 0 01.36-.113H8.43c2.23 0 3.976-.77 4.486-2.998a4.19 4.19 0 00.04-.193 3 3 0 00-.534-.181z" fill="#E6EFF6"/></svg>