<svg width="65" height="65" viewBox="0 0 65 65" fill="none" xmlns="http://www.w3.org/2000/svg">
<path d="M7.02455 32.3096C7.02455 46.2521 18.3677 57.5945 32.3095 57.5945C46.2514 57.5945 57.5945 46.2521 57.5945 32.3096C57.5945 21.099 50.2586 11.5746 40.1368 8.2706C41.5207 9.84555 42.9143 11.4381 44.2864 13.0234L44.6634 13.4583C45.4382 14.3527 46.2234 15.262 46.9976 16.1941C49.2426 18.2351 51.0357 20.7233 52.2616 23.4988C53.4875 26.2742 54.1191 29.2754 54.1157 32.3096C54.1157 44.3528 44.3527 54.1157 32.3095 54.1157C20.2663 54.1157 10.504 44.3528 10.504 32.3096C10.504 25.2077 13.9009 18.9007 19.1568 14.9195C19.2783 14.7836 19.394 14.6497 19.5188 14.5119C21.4123 12.4319 23.2927 10.2603 25.1088 8.16335C25.1433 8.12435 25.1771 8.0847 25.2115 8.04505C14.716 11.1209 7.02455 20.8312 7.02455 32.3096Z" fill="url(#paint0_linear_609_171)"/>
<path d="M35.334 2.8054C36.088 3.66297 36.8407 4.51988 37.5921 5.37615C50.221 7.839 59.7532 18.9611 59.7532 32.3095C59.7532 47.4662 47.4682 59.7532 32.3096 59.7532C17.1509 59.7532 4.86655 47.4682 4.86655 32.3095C4.86655 18.7479 14.705 7.48475 27.6335 5.265C28.0573 4.78053 28.4823 4.29693 28.9088 3.8142C29.2188 3.46255 29.5256 3.1083 29.8343 2.75665C14.6354 4.0183 2.652 16.7901 2.652 32.3095C2.652 48.6629 15.9569 61.9671 32.3096 61.9671C48.6623 61.9671 61.9671 48.6629 61.9671 32.3095C61.9671 16.9773 50.2716 4.3251 35.334 2.8054Z" fill="url(#paint1_linear_609_171)"/>
<path d="M32.5 0C14.5795 0 0 14.5795 0 32.5C0 50.4205 14.5795 65 32.5 65C50.4205 65 65 50.4205 65 32.5C65 14.5795 50.4205 0 32.5 0ZM32.3095 64.1225C14.7401 64.1225 0.4966 49.8797 0.4966 32.3095C0.4966 14.7394 14.7401 0.4966 32.3095 0.4966C49.879 0.4966 64.1225 14.7401 64.1225 32.3095C64.1225 49.879 49.8797 64.1225 32.3095 64.1225Z" fill="url(#paint2_linear_609_171)"/>
<path d="M35.9814 38.573C35.2593 38.7556 34.5904 38.9747 33.9014 39.0891C30.2419 39.7014 26.6799 37.8879 24.949 34.5599C22.3912 29.64 25.363 23.4572 30.81 22.3789C36.1348 21.3239 40.9923 25.2759 41.015 30.693C41.0274 33.2683 41.0872 35.8456 41.0033 38.4176C40.8824 42.1044 39.598 45.2901 36.6152 47.6307C34.9083 48.9704 32.9316 49.6828 30.7983 49.9363C28.0062 50.2844 25.1727 49.8337 22.6265 48.6363C20.0948 47.4598 18.0258 45.6859 16.302 43.5234C13.5603 40.0849 12.324 36.1017 12.4066 31.7382C12.4651 28.626 13.4609 25.7381 14.9078 23.0016C16.3937 20.191 18.3164 17.7099 20.4516 15.3602C23.2083 12.3279 25.8622 9.20205 28.5623 6.11845C29.7538 4.75735 30.9569 3.40665 32.1373 2.03775C32.4623 1.66335 32.6794 1.70235 32.9934 2.06115C36.4384 5.9969 39.91 9.9008 43.3297 13.8509C45.0379 15.8243 46.7701 17.7944 48.2866 19.9121C50.9451 23.6243 52.7365 27.7264 52.6949 32.3921C52.6604 36.1823 51.4956 39.6884 49.35 42.8135C48.492 44.0642 47.4442 45.1958 46.4009 46.3054C45.4214 47.3454 43.8744 47.3363 42.9481 46.3957C41.888 45.32 41.8847 43.8731 42.9949 42.8071C45.929 39.9906 47.5969 36.543 47.7887 32.5085C47.8595 31.007 47.452 29.4301 47.0015 27.9676C46.0707 24.9418 44.2858 22.373 42.2344 19.9992C39.1983 16.4892 36.1244 13.0072 33.0694 9.51145C32.6144 8.99145 32.5091 8.99145 32.0535 9.51145C29.0674 12.9357 26.0605 16.3416 23.0958 19.7814C20.6596 22.6096 18.5874 25.6659 17.7073 29.3657C16.3859 34.9206 18.8084 40.82 24.1053 43.81C26.923 45.4032 29.9442 45.6872 32.9453 44.1389C34.8836 43.1386 36.0913 40.7063 35.9814 38.573ZM36.0796 30.7223C36.0887 28.6917 34.5813 27.1473 32.578 27.1271C30.5923 27.1102 28.9497 28.7287 28.951 30.7021C28.951 32.6521 30.5682 34.2589 32.5306 34.2693C34.5293 34.2803 36.0698 32.7399 36.0796 30.7223Z" fill="url(#paint3_linear_609_171)"/>
<defs>
<linearGradient id="paint0_linear_609_171" x1="0" y1="32.5" x2="65" y2="32.5" gradientUnits="userSpaceOnUse">
<stop offset="0.02" stop-color="#F63548"/>
<stop offset="0.98" stop-color="#9300A9"/>
</linearGradient>
<linearGradient id="paint1_linear_609_171" x1="2652" y1="32361.6" x2="61967.1" y2="32361.6" gradientUnits="userSpaceOnUse">
<stop offset="0.02" stop-color="#F63548"/>
<stop offset="0.98" stop-color="#9300A9"/>
</linearGradient>
<linearGradient id="paint2_linear_609_171" x1="0" y1="32500" x2="65000" y2="32500" gradientUnits="userSpaceOnUse">
<stop offset="0.02" stop-color="#F63548"/>
<stop offset="0.98" stop-color="#9300A9"/>
</linearGradient>
<linearGradient id="paint3_linear_609_171" x1="47433.1" y1="14052.4" x2="19930.3" y2="47090.6" gradientUnits="userSpaceOnUse">
<stop offset="0.02" stop-color="#F63548"/>
<stop offset="0.98" stop-color="#9300A9"/>
</linearGradient>
</defs>
</svg>
