<?xml version="1.0" encoding="utf-8"?>
<!-- Generator: Adobe Illustrator 23.0.3, SVG Export Plug-In . SVG Version: 6.00 Build 0)  -->
<svg version="1.1" id="Layer_1" xmlns="http://www.w3.org/2000/svg" xmlns:xlink="http://www.w3.org/1999/xlink" x="0px" y="0px"
	 viewBox="0 0 500 500" style="enable-background:new 0 0 500 500;" xml:space="preserve">
<style type="text/css">
	.st0{fill:#2BFFF9;}
	.st1{fill:#EC008C;}
</style>
<g>
	<g>
		<circle cx="250" cy="250" r="241"/>
		<path class="st0" d="M425,75C378.2,28.3,316,2.6,250,2.6C184,2.6,121.8,28.3,75,75C28.3,121.8,2.6,184,2.6,250
			c0,66,25.7,128.2,72.4,175c46.8,46.7,108.9,72.4,175,72.4c66.2,0,128.4-25.7,175-72.4c46.7-46.8,72.4-108.9,72.4-175
			S471.7,121.8,425,75z M250,484.6C120.6,484.6,15.4,379.4,15.4,250C15.4,120.6,120.6,15.4,250,15.4
			c129.4,0,234.6,105.2,234.6,234.6C484.6,379.4,379.4,484.6,250,484.6z"/>
	</g>
	<g>
		<path class="st1" d="M235.6,299.2c-6.2-5.9-12.4-11.9-18.5-18c-17.7-17.8-34.8-36.2-51-55.5c-2-2.4-3.8-4.6-5.8-7
			c-3.3,9.6-5.2,20.1-5.2,30.9c0,34.1,18,63.9,45,80.7c4.2-3.4,8.4-7,12.5-10.5C220.4,313,228.1,306.2,235.6,299.2z"/>
		<path class="st1" d="M241.4,267.2c4.5,4.5,9.1,9,13.8,13.6c3.9-3.7,7.8-7.6,11.6-11.4c17.5-17.4,34.5-35.3,50.8-53.8
			c4-4.6,8.1-9.2,12-14c0.4-0.5,0.9-1.1,1.3-1.6c-16.7-27.1-46.6-45.2-80.9-45.2c-31.2,0-58.8,15-76.1,38.3
			c5.6,6.9,11.3,13.6,17.1,20.3C207.2,231.8,224,249.8,241.4,267.2z"/>
		<path class="st1" d="M291.1,283.4c-5.4,5.4-10.8,10.6-16.3,15.8c6.8,6.3,13.6,12.5,20.6,18.5c3.4,3,6.8,5.9,10.2,8.9
			c23.9-17.2,39.4-45.2,39.4-77c0-7.6-0.9-14.9-2.6-21.8c-0.1,0.1-0.1,0.1-0.2,0.2C326,247.2,308.9,265.6,291.1,283.4z"/>
		<path class="st1" d="M255.3,317.3c-6.5,5.8-13.1,11.6-19.8,17.2c-2.9,2.4-5.7,4.7-8.7,7.1c7.5,1.9,15.2,2.9,23.2,2.9
			c10.8,0,21.2-1.9,31-5.2c-2.9-2.4-5.7-4.6-8.6-7.1C266.7,327.4,261,322.4,255.3,317.3z"/>
		<path class="st0" d="M266.8,269.5c-3.8,3.8-7.8,7.6-11.6,11.4c-1.7,1.7-3.4,3.2-5.1,4.9c-6.4-6.1-12.7-12.2-18.9-18.5
			c-17.4-17.4-34.2-35.4-50.4-53.9c-8.1-9.2-15.9-18.7-23.5-28.3c-7.6-9.6-14.9-19.4-21.4-29.5c-3.3-5-6.5-10.1-9.2-15.3
			c-1.4-2.6-2.7-5.2-3.8-7.8c-1.2-2.6-2.2-5.2-2.9-7.7c-0.3-1.2-0.6-2.4-0.8-3.4c-0.1-1-0.2-1.8-0.1-2.4c0.5,0,1.1,0,1.7,0.1
			c1.2,0.2,2.5,0.4,3.7,0.7c1.6,0.4,3.2,0.9,4.9,1.4c1.1,0.3,2.2,0.7,3.3,1.1c5.6,1.9,11.2,4.3,16.7,6.9c5.5,2.7,11,5.4,16.4,8.4
			c10.8,5.9,21.4,12.3,31.8,19l0,0c1.1,0.7,2.7,0.5,3.5-0.6c0.9-1.2,0.8-2.9-0.4-3.7c-0.5-0.4-1.1-0.9-1.7-1.3
			c-9.2-7.4-18.7-14.6-28.5-21.2c-5.2-3.5-10.4-7-15.9-10.3c-5.4-3.2-10.9-6.5-16.8-9.4c-3-1.5-6-2.9-9.2-3.9
			c-1.6-0.5-3.2-1.1-5-1.4c-0.1,0-0.2,0-0.3-0.1c-1.9-0.4-3.9-0.7-6.5-0.6c-1.3,0.1-2.8,0.3-4.5,1c-0.9,0.3-1.8,0.8-2.7,1.4
			c-0.5,0.3-0.9,0.7-1.3,1.1c-0.1,0.1-0.2,0.2-0.3,0.3l-0.2,0.2c-0.1,0.2-0.3,0.3-0.4,0.5c-1.1,1.3-2,2.7-2.6,4
			c-0.6,1.4-1,2.8-1.2,3.9c-0.4,2.6-0.4,4.7-0.2,6.8c0.2,2.1,0.6,3.9,1,5.7c0.9,3.5,2,6.8,3.2,9.9c1.3,3.1,2.7,6.1,4.1,9
			c3,5.9,6.1,11.5,9.4,16.9c6.7,10.9,14,21.3,21.4,31.5c5.7,7.7,11.6,15.2,17.7,22.6c1.9,2.4,3.8,4.7,5.8,7
			c16.1,19.3,33.2,37.7,51,55.5c6.1,6.1,12.3,12.1,18.5,18c-7.6,7-15.2,13.9-23,20.6c-4.1,3.5-8.3,7.1-12.5,10.5
			c-5.3,4.4-10.6,8.7-16,12.9c-9.6,7.6-19.5,14.9-29.6,21.3c-5,3.2-10.2,6.4-15.4,9c-2.6,1.4-5.2,2.7-7.8,3.7
			c-0.7,0.3-1.4,0.6-2.1,0.8c-1.9,0.7-3.7,1.3-5.5,1.8c-1.2,0.3-2.3,0.5-3.1,0.5c-0.7,0.1-1.3,0-1.6,0c0-0.1,0-0.1,0-0.2
			c-0.1-0.7,0-1.8,0.1-2.9c0.1-0.6,0.1-1.2,0.3-1.8l0.2-0.9l0.2-1c0.6-2.6,1.6-5.2,2.6-8c2.1-5.4,4.3-11,6.9-16.5
			c1.3-2.8,2.7-5.5,4.1-8.2c1.5-2.7,3-5.4,4.4-8.1c2.3-3.9,4.6-8,7-11.9c0.8-1.4,1.7-2.8,2.5-4c3.2-5.2,6.7-10.5,9.7-15.9
			c0.4-0.8,0.3-1.7-0.3-2.4c-0.8-0.8-2-0.7-2.8,0c-2.2,2.3-4.3,4.5-6.4,6.9l-3.1,3.5c-1,1.2-2.1,2.4-3,3.5c-4,4.8-8.1,9.7-11.9,14.8
			c-3.8,5-7.5,10.2-11.1,15.5c-1.8,2.7-3.5,5.4-5.2,8.2c-1.7,2.9-3.2,5.7-4.6,8.8c-1.4,3-2.7,6.2-3.6,9.6c-1,3.4-1.9,7.2-1.6,11.9
			c0.1,0.6,0.1,1.3,0.2,1.9c0.1,0.6,0.3,1.4,0.5,2c0.1,0.3,0.2,0.7,0.4,1.1c0.1,0.4,0.3,0.7,0.4,1.1c0.1,0.4,0.4,0.7,0.6,1.1
			s0.4,0.7,0.7,1.1c0.5,0.7,1.1,1.4,1.7,2.1c0.6,0.6,1.3,1.2,1.9,1.7c0.3,0.2,0.7,0.5,1,0.7c0.4,0.2,0.7,0.4,1.1,0.6
			c0.4,0.2,0.7,0.4,1.1,0.5c0.3,0.1,0.7,0.3,1.1,0.4c2.8,1,5.2,1.1,7.4,1.1c1.8,0,3.3-0.3,4.8-0.5c0.4-0.1,0.8-0.1,1.2-0.2
			c3.7-0.8,7.1-1.9,10.3-3s6.3-2.6,9.2-4c5.9-2.9,11.6-6,17.1-9.3c21.9-13.4,42-28.8,61.3-45c8.5-7.1,16.8-14.5,25-21.8
			c1.7,1.6,3.4,3.1,5.2,4.6c5.7,5.1,11.4,10,17.3,15c2.9,2.4,5.6,4.7,8.6,7.1c2.1,1.7,4,3.2,6.1,4.9c4.9,3.9,9.9,7.8,15,11.5
			c10.1,7.6,20.5,14.9,31.4,21.5c5.4,3.3,11,6.6,16.8,9.5c3,1.5,5.9,2.9,9,4.2c3,1.3,6.3,2.6,9.7,3.4c1.8,0.5,3.5,0.9,5.4,1.2
			c1.9,0.3,3.9,0.5,6.2,0.4c1.2-0.1,2.4-0.2,3.7-0.5c1.3-0.3,2.6-0.7,3.9-1.4c1.4-0.7,2.8-1.7,3.8-2.9c1.2-1.2,2.2-2.7,2.8-4
			c1.3-2.9,1.5-5.4,1.6-7.6c0-2.3-0.3-4.2-0.7-6.1c-0.8-3.7-2-7-3.3-10.1c-1.4-3.1-2.9-6.1-4.4-9s-3.2-5.6-4.9-8.4
			c-3.4-5.4-7.1-10.6-10.8-15.7c-1.3-1.8-2.7-3.4-3.9-5.1c-6.4-8.3-13.1-16.2-20.1-23.9c-0.8-0.9-2.1-1-3-0.4
			c-1.1,0.7-1.4,2.2-0.7,3.2l0,0c6.9,10.3,13.5,20.9,19.6,31.5c3,5.3,5.9,10.7,8.6,16.1c2.6,5.4,5,11,6.7,16.4
			c0.9,2.7,1.6,5.4,1.9,7.8c0.1,0.6,0.1,1.2,0.2,1.7c0,0.3,0,0.5,0,0.7c0,0.3,0,0.5,0,0.8c0,0.5-0.1,0.9-0.2,1.2
			c-0.2,0-0.6,0.1-1.3,0.1c-0.8,0-1.9-0.1-3-0.4c-1.2-0.2-2.4-0.6-3.6-1c-2.6-0.8-5.1-1.9-7.8-3c-2.6-1.2-5.2-2.6-7.8-3.9
			c-5.2-2.9-10.3-6-15.3-9.3c-10-6.7-19.9-14.1-29.4-21.6c-4.8-3.8-9.5-7.7-14.3-11.6s-9.3-8-14-12c-6.9-6.1-13.8-12.3-20.6-18.5
			c5.5-5.2,10.9-10.5,16.3-15.8c17.8-17.8,34.9-36.2,51.1-55.5c8.1-9.6,16-19.5,23.6-29.6s14.9-20.5,21.6-31.4
			c3.3-5.4,6.7-11,9.6-16.8c1.5-2.9,3-5.9,4.2-9c1.4-3,2.6-6.2,3.6-9.6c1-3.4,1.9-7,2-11.3c0-2.2-0.2-4.6-1.2-7.4
			c-0.5-1.4-1.3-2.8-2.3-4c-0.3-0.3-0.5-0.6-0.8-0.9l-0.4-0.5l-0.5-0.4c-0.7-0.6-1.4-1.1-2.1-1.5c-0.4-0.2-0.7-0.4-1.1-0.6
			s-0.7-0.3-1.1-0.5c-0.4-0.1-0.7-0.3-1.1-0.4c-0.3-0.1-0.5-0.1-0.8-0.2c-0.1,0-0.2,0-0.2-0.1l-1-0.2c-0.3-0.1-0.6-0.1-1-0.1
			c-0.6-0.1-1.3-0.2-1.8-0.2c-0.6,0-1.2,0-1.7,0l-1.6,0.1c-0.5,0.1-1,0.1-1.5,0.2c-0.5,0.1-1,0.2-1.5,0.3c-1.9,0.4-3.6,0.9-5.3,1.4
			c-0.8,0.3-1.7,0.6-2.5,0.9c-0.8,0.3-1.6,0.6-2.4,1c-6.2,2.7-11.9,5.8-17.4,9.1c-5.5,3.3-10.7,6.9-15.9,10.6
			c-5.1,3.6-10.1,7.6-15,11.5l-14.6,11.9l0,0c-1.2,0.9-1.5,2.6-0.6,3.8c0.9,1.4,2.7,1.8,4,0.9l6.3-3.9l1.7-1.1l3.9-2.5l3.9-2.6
			c5.2-3.3,10.5-6.5,15.8-9.5c5.3-3,10.7-6,16.1-8.6c5.4-2.7,11-5,16.4-6.7c2.8-0.8,5.4-1.5,7.8-1.8c0.3,0,0.6-0.1,0.9-0.1h0.8h0.7
			c0.3,0,0.4,0,0.6,0c0.2,0,0.4,0.1,0.5,0.1h0.1c0.1,0.2,0.1,0.7,0.1,1.4c0,0.1,0,0.3,0,0.5c-0.1,1.9-0.7,4.4-1.6,6.9
			c-0.9,2.6-2,5.2-3.2,7.8c-1.3,2.7-2.6,5.2-4,7.8c-2.9,5.2-6.1,10.3-9.4,15.3c-6.8,10-14.1,19.9-21.7,29.5
			c-3.4,4.2-6.9,8.5-10.4,12.7c-0.4,0.5-0.9,1.1-1.3,1.6c-3.9,4.7-8,9.3-12,14C301.3,234.2,284.3,252.1,266.8,269.5 M119.3,380.9
			L119.3,380.9L119.3,380.9C119.3,380.9,119.2,380.9,119.3,380.9C119.2,380.8,119.2,380.8,119.3,380.9
			C119.2,380.8,119.2,380.8,119.3,380.9C119.2,380.8,119.2,380.8,119.3,380.9z M381.4,380.8c0,0.1-0.1,0.2-0.1,0.2
			C381.3,381.1,381.3,380.9,381.4,380.8z M381.6,118.4L381.6,118.4c-0.1,0-0.1-0.1-0.2-0.1l0,0C381.5,118.3,381.6,118.3,381.6,118.4
			L381.6,118.4z M117.9,119C117.8,119,117.8,119,117.9,119C117.5,119.1,117.6,119,117.9,119z"/>
	</g>
</g>
</svg>
