<svg id="Layer_1" xmlns="http://www.w3.org/2000/svg" viewBox="0 0 841.89 684.92"><style>.st0{fill:#fff}.st1{fill:url(#SVGID_1_)}.st2,.st3{fill:#27363b;stroke:#27363b}.st2{stroke-width:3;stroke-linecap:round;stroke-linejoin:round}.st3{stroke-miterlimit:10}</style><path class="st0" d="M200.26 373.31L222.1 423.47 327.33 525.78 313.83 481.64z"/><path class="st0" d="M432.81 368.5L435.99 421.01 545.73 523.21 552.82 478.85z"/><linearGradient id="SVGID_1_" gradientUnits="userSpaceOnUse" x1="199.214" y1="320.388" x2="666.14" y2="320.388"><stop offset=".099" stop-color="#27363B"/><stop offset=".309" stop-color="#EB4960"/><stop offset=".506" stop-color="#F4837D"/><stop offset=".688" stop-color="#FCD5B4"/><stop offset=".96" stop-color="#99B998"/></linearGradient><path class="st1" d="M199.21 370.91L431.78 159.14 666.14 365.6 552.82 478.85 432.81 368.5 313.83 481.64z"/><path class="st2" d="M431.78 159.14L199.21 370.91"/><path class="st2" d="M666.14 365.6L431.78 159.14"/><path class="st2" d="M313.83 481.64L432.81 368.25"/><path class="st2" d="M432.81 368.25L552.82 478.85"/><path class="st2" d="M552.82 478.85L666.14 365.6"/><path class="st2" d="M199.21 370.91L313.83 481.64"/><path class="st2" d="M435.99 421.01L327.33 525.78"/><path class="st2" d="M545.73 523.21L435.99 421.01"/><path class="st2" d="M649.66 418.55L545.73 523.21"/><path class="st2" d="M327.33 525.78L222.1 423.47"/><path class="st2" d="M199.21 370.91L222.1 423.47"/><path class="st2" d="M649.66 418.55L666.14 365.6"/><path class="st2" d="M432.81 368.25L435.99 421.01"/><path class="st2" d="M313.83 481.64L327.33 525.78"/><path class="st2" d="M552.82 478.85L545.73 523.21"/><path class="st3" d="M313.83 481.64L327.33 525.78 435.99 421.01 432.81 368.25z"/><path class="st3" d="M552.82 478.85L545.73 523.21 649.66 418.55 663.48 368.25z"/></svg>