<?xml version="1.0" encoding="utf-8"?>
<!-- Generator: Adobe Illustrator 23.0.3, SVG Export Plug-In . SVG Version: 6.00 Build 0)  -->
<svg version="1.1" id="Layer_1" xmlns="http://www.w3.org/2000/svg" xmlns:xlink="http://www.w3.org/1999/xlink" x="0px" y="0px"
	 viewBox="0 0 500 500" style="enable-background:new 0 0 500 500;" xml:space="preserve">
<style type="text/css">
	.st0{fill:#2BFFF9;}
	.st1{fill:#EC008C;}
</style>
<g>
	<g>
		<circle cx="250" cy="250" r="245"/>
		<path class="st0" d="M250,498c-66.2,0-128.5-25.8-175.4-72.6C27.8,378.5,2,316.2,2,250S27.8,121.5,74.6,74.6
			C121.5,27.8,183.8,2,250,2s128.5,25.8,175.4,72.6C472.2,121.5,498,183.8,498,250s-25.8,128.5-72.6,175.4S316.2,498,250,498z
			 M250,8C116.6,8,8,116.6,8,250s108.6,242,242,242s242-108.6,242-242S383.4,8,250,8z"/>
	</g>
	<g>
		<path class="st1" d="M235.4,300c-6.3-6-12.6-12.1-18.8-18.3c-18-18.1-35.4-36.8-51.8-56.4c-2-2.4-3.9-4.7-5.9-7.1
			c-3.4,9.8-5.3,20.4-5.3,31.4c0,34.7,18.3,65,45.7,82c4.3-3.5,8.5-7.1,12.7-10.7C219.9,314.1,227.7,307.1,235.4,300z"/>
		<path class="st1" d="M241.3,267.5c4.6,4.6,9.3,9.2,14,13.8c4-3.8,7.9-7.7,11.8-11.6c17.8-17.7,35.1-35.9,51.6-54.7
			c4.1-4.7,8.2-9.4,12.2-14.2c0.4-0.5,0.9-1.1,1.3-1.6c-17-27.6-47.4-46-82.2-46c-31.7,0-59.8,15.3-77.4,38.9
			c5.7,7,11.5,13.8,17.4,20.6C206.5,231.5,223.6,249.8,241.3,267.5z"/>
		<path class="st1" d="M291.8,284c-5.5,5.5-11,10.8-16.6,16.1c6.9,6.4,13.8,12.7,20.9,18.8c3.5,3,6.9,6,10.4,9
			c24.3-17.5,40.1-46,40.1-78.3c0-7.7-0.9-15.1-2.6-22.2c-0.1,0.1-0.1,0.1-0.2,0.2C327.3,247.2,309.9,265.9,291.8,284z"/>
		<path class="st1" d="M255.4,318.4c-6.6,5.9-13.3,11.8-20.1,17.5c-2.9,2.4-5.8,4.8-8.8,7.2c7.6,1.9,15.5,2.9,23.6,2.9
			c11,0,21.6-1.9,31.5-5.3c-2.9-2.4-5.8-4.7-8.7-7.2C267,328.7,261.2,323.6,255.4,318.4z"/>
		<path class="st0" d="M267.1,269.8c-3.9,3.9-7.9,7.7-11.8,11.6c-1.7,1.7-3.5,3.3-5.2,5c-6.5-6.2-12.9-12.4-19.2-18.8
			c-17.7-17.7-34.8-36-51.2-54.8c-8.2-9.4-16.2-19-23.9-28.8s-15.1-19.7-21.8-30c-3.4-5.1-6.6-10.3-9.4-15.6
			c-1.4-2.6-2.7-5.3-3.9-7.9c-1.2-2.6-2.2-5.3-2.9-7.8c-0.3-1.2-0.6-2.4-0.8-3.5c-0.1-1-0.2-1.8-0.1-2.4c0.5,0,1.1,0,1.7,0.1
			c1.2,0.2,2.5,0.4,3.8,0.7c1.6,0.4,3.3,0.9,5,1.4c1.1,0.3,2.2,0.7,3.4,1.1c5.7,1.9,11.4,4.4,17,7c5.6,2.7,11.2,5.5,16.7,8.5
			c11,6,21.8,12.5,32.3,19.3l0,0c1.1,0.7,2.7,0.5,3.6-0.6c0.9-1.2,0.8-2.9-0.4-3.8c-0.5-0.4-1.1-0.9-1.7-1.3
			c-9.4-7.5-19-14.8-29-21.6c-5.3-3.6-10.6-7.1-16.2-10.5c-5.5-3.3-11.1-6.6-17.1-9.6c-3-1.5-6.1-2.9-9.4-4
			c-1.6-0.5-3.3-1.1-5.1-1.4c-0.1,0-0.2,0-0.3-0.1c-1.9-0.4-4-0.7-6.6-0.6c-1.3,0.1-2.8,0.3-4.6,1c-0.9,0.3-1.8,0.8-2.7,1.4
			c-0.5,0.3-0.9,0.7-1.3,1.1c-0.1,0.1-0.2,0.2-0.3,0.3l-0.2,0.2c-0.1,0.2-0.3,0.3-0.4,0.5c-1.1,1.3-2,2.7-2.6,4.1s-1,2.8-1.2,4
			c-0.4,2.6-0.4,4.8-0.2,6.9c0.2,2.1,0.6,4,1,5.8c0.9,3.6,2,6.9,3.3,10.1s2.7,6.2,4.2,9.2c3,6,6.2,11.7,9.6,17.2
			c6.8,11.1,14.2,21.7,21.8,32c5.8,7.8,11.8,15.5,18,23c1.9,2.4,3.9,4.8,5.9,7.1c16.4,19.6,33.8,38.3,51.8,56.4
			c6.2,6.2,12.5,12.3,18.8,18.3c-7.7,7.1-15.5,14.1-23.4,20.9c-4.2,3.6-8.4,7.2-12.7,10.7c-5.4,4.5-10.8,8.8-16.3,13.1
			c-9.8,7.7-19.8,15.1-30.1,21.7c-5.1,3.3-10.4,6.5-15.7,9.2c-2.6,1.4-5.3,2.7-7.9,3.8c-0.7,0.3-1.4,0.6-2.1,0.8
			c-1.9,0.7-3.8,1.3-5.6,1.8c-1.2,0.3-2.3,0.5-3.2,0.5c-0.7,0.1-1.3,0-1.6,0c0-0.1,0-0.1,0-0.2c-0.1-0.7,0-1.8,0.1-2.9
			c0.1-0.6,0.1-1.2,0.3-1.8l0.2-0.9l0.2-1c0.6-2.6,1.6-5.3,2.6-8.1c2.1-5.5,4.4-11.2,7-16.8c1.3-2.8,2.7-5.6,4.2-8.3
			c1.5-2.7,3-5.5,4.5-8.2c2.3-4,4.7-8.1,7.1-12.1c0.8-1.4,1.7-2.8,2.5-4.1c3.3-5.3,6.8-10.7,9.9-16.2c0.4-0.8,0.3-1.7-0.3-2.4
			c-0.8-0.8-2-0.7-2.8,0c-2.2,2.3-4.4,4.6-6.5,7l-3.2,3.6c-1,1.2-2.1,2.4-3.1,3.6c-4.1,4.9-8.2,9.9-12.1,15s-7.6,10.4-11.3,15.8
			c-1.8,2.7-3.6,5.5-5.3,8.3c-1.7,2.9-3.3,5.8-4.7,8.9c-1.4,3.1-2.7,6.3-3.7,9.8s-1.9,7.3-1.6,12.1c0.1,0.6,0.1,1.3,0.2,1.9
			s0.3,1.4,0.5,2c0.1,0.3,0.2,0.7,0.4,1.1c0.1,0.4,0.3,0.7,0.4,1.1s0.4,0.7,0.6,1.1s0.4,0.7,0.7,1.1c0.5,0.7,1.1,1.4,1.7,2.1
			c0.6,0.6,1.3,1.2,1.9,1.7c0.3,0.2,0.7,0.5,1,0.7c0.4,0.2,0.7,0.4,1.1,0.6s0.7,0.4,1.1,0.5c0.3,0.1,0.7,0.3,1.1,0.4
			c2.8,1,5.3,1.1,7.5,1.1c1.8,0,3.4-0.3,4.9-0.5c0.4-0.1,0.8-0.1,1.2-0.2c3.8-0.8,7.2-1.9,10.5-3.1s6.4-2.6,9.4-4.1
			c6-2.9,11.8-6.1,17.4-9.5c22.3-13.6,42.7-29.3,62.3-45.7c8.6-7.2,17.1-14.7,25.4-22.2c1.7,1.6,3.5,3.2,5.3,4.7
			c5.8,5.2,11.6,10.2,17.6,15.2c2.9,2.4,5.7,4.8,8.7,7.2c2.1,1.7,4.1,3.3,6.2,5c5,4,10.1,7.9,15.2,11.7
			c10.3,7.7,20.8,15.1,31.9,21.9c5.5,3.4,11.2,6.7,17.1,9.7c3,1.5,6,2.9,9.1,4.3c3.1,1.3,6.4,2.6,9.9,3.5c1.8,0.5,3.6,0.9,5.5,1.2
			c1.9,0.3,4,0.5,6.3,0.4c1.2-0.1,2.4-0.2,3.8-0.5c1.3-0.3,2.6-0.7,4-1.4c1.4-0.7,2.8-1.7,3.9-2.9c1.2-1.2,2.2-2.7,2.8-4.1
			c1.3-2.9,1.5-5.5,1.6-7.7c0-2.3-0.3-4.3-0.7-6.2c-0.8-3.8-2-7.1-3.4-10.3c-1.4-3.2-2.9-6.2-4.5-9.1s-3.3-5.7-5-8.5
			c-3.5-5.5-7.2-10.8-11-16c-1.3-1.8-2.7-3.5-4-5.2c-6.5-8.4-13.3-16.5-20.4-24.3c-0.8-0.9-2.1-1-3.1-0.4c-1.1,0.7-1.4,2.2-0.7,3.3
			l0,0c7,10.5,13.7,21.2,19.9,32c3.1,5.4,6,10.9,8.7,16.4c2.6,5.5,5.1,11.2,6.8,16.7c0.9,2.7,1.6,5.5,1.9,7.9
			c0.1,0.6,0.1,1.2,0.2,1.7c0,0.3,0,0.5,0,0.7c0,0.3,0,0.5,0,0.8c0,0.5-0.1,0.9-0.2,1.2c-0.2,0-0.6,0.1-1.3,0.1
			c-0.8,0-1.9-0.1-3.1-0.4c-1.2-0.2-2.4-0.6-3.7-1c-2.6-0.8-5.2-1.9-7.9-3.1c-2.6-1.2-5.3-2.6-7.9-4c-5.3-2.9-10.5-6.1-15.6-9.5
			c-10.2-6.8-20.2-14.3-29.9-22c-4.9-3.9-9.7-7.8-14.5-11.8s-9.5-8.1-14.2-12.2c-7-6.2-14-12.5-20.9-18.8
			c5.6-5.3,11.1-10.7,16.6-16.1c18.1-18.1,35.5-36.8,52-56.4c8.2-9.8,16.3-19.8,24-30.1s15.1-20.8,22-31.9
			c3.4-5.5,6.8-11.2,9.8-17.1c1.5-2.9,3-6,4.3-9.1c1.4-3.1,2.6-6.3,3.7-9.8c1-3.5,1.9-7.1,2-11.5c0-2.2-0.2-4.7-1.2-7.5
			c-0.5-1.4-1.3-2.8-2.3-4.1c-0.3-0.3-0.5-0.6-0.8-0.9l-0.4-0.5l-0.5-0.4c-0.7-0.6-1.4-1.1-2.1-1.5c-0.4-0.2-0.7-0.4-1.1-0.6
			s-0.7-0.3-1.1-0.5c-0.4-0.1-0.7-0.3-1.1-0.4c-0.3-0.1-0.5-0.1-0.8-0.2c-0.1,0-0.2,0-0.2-0.1l-1-0.2c-0.3-0.1-0.6-0.1-1-0.1
			c-0.6-0.1-1.3-0.2-1.8-0.2c-0.6,0-1.2,0-1.7,0l-1.6,0.1c-0.5,0.1-1,0.1-1.5,0.2s-1,0.2-1.5,0.3c-1.9,0.4-3.7,0.9-5.4,1.4
			c-0.8,0.3-1.7,0.6-2.5,0.9s-1.6,0.6-2.4,1c-6.3,2.7-12.1,5.9-17.7,9.3s-10.9,7-16.2,10.8c-5.2,3.7-10.3,7.7-15.3,11.7L303,148.5
			l0,0c-1.2,0.9-1.5,2.6-0.6,3.9c0.9,1.4,2.7,1.8,4.1,0.9l6.4-4l1.7-1.1l4-2.5l4-2.6c5.3-3.4,10.7-6.6,16.1-9.7
			c5.4-3.1,10.9-6.1,16.4-8.7c5.5-2.7,11.2-5.1,16.7-6.8c2.8-0.8,5.5-1.5,7.9-1.8c0.3,0,0.6-0.1,0.9-0.1h0.8h0.7c0.3,0,0.4,0,0.6,0
			s0.4,0.1,0.5,0.1h0.1c0.1,0.2,0.1,0.7,0.1,1.4c0,0.1,0,0.3,0,0.5c-0.1,1.9-0.7,4.5-1.6,7c-0.9,2.6-2,5.3-3.3,7.9
			c-1.3,2.7-2.6,5.3-4.1,7.9c-2.9,5.3-6.2,10.5-9.6,15.6c-6.9,10.2-14.3,20.2-22.1,30c-3.5,4.3-7,8.6-10.6,12.9
			c-0.4,0.5-0.9,1.1-1.3,1.6c-4,4.8-8.1,9.5-12.2,14.2C302.2,233.9,284.9,252.1,267.1,269.8 M117.1,383.1L117.1,383.1L117.1,383.1
			C117.1,383.1,117,383.1,117.1,383.1C117,383,117,383,117.1,383.1C117,383,117,383,117.1,383.1C117,383,117,383,117.1,383.1z
			 M383.6,383c0,0.1-0.1,0.2-0.1,0.2C383.5,383.3,383.5,383.1,383.6,383z M383.8,116.2L383.8,116.2c-0.1,0-0.1-0.1-0.2-0.1l0,0
			C383.7,116.1,383.8,116.1,383.8,116.2L383.8,116.2z M115.7,116.8C115.6,116.8,115.6,116.8,115.7,116.8
			C115.3,116.9,115.4,116.8,115.7,116.8z"/>
	</g>
</g>
</svg>
