<svg width="3199" height="2619" viewBox="0 0 3199 2619" fill="none" xmlns="http://www.w3.org/2000/svg">
<path d="M1086.6 2.38915e-05C1107.58 2.48078e-05 1124.59 16.9937 1124.59 37.9565L1124.59 2581.04C1124.59 2602.01 1107.58 2619 1086.6 2619H577.492C556.509 2619 539.499 2602.01 539.499 2581.04L539.499 37.9565C539.499 16.9937 556.509 7.4282e-07 577.492 1.65913e-06L1086.6 2.38915e-05Z" fill="url(#paint0_linear)"/>
<path d="M0 37.9565C0 16.9937 17.01 0 37.9929 0H1907.24C1957.6 0 1998.43 40.7849 1998.43 91.0957V584.53H292.545C130.977 584.53 0 453.679 0 292.265V37.9565Z" fill="url(#paint1_linear)"/>
<path d="M539.499 2072.43C539.499 2051.46 556.509 2034.47 577.492 2034.47H1838.86C1872.43 2034.47 1899.64 2061.66 1899.64 2095.2V2619H832.044C670.476 2619 539.499 2488.15 539.499 2326.73V2072.43Z" fill="url(#paint2_linear)"/>
<path d="M1884.45 1.56609e-05C2060.09 1.77534e-05 2233.95 35.0626 2395.75 103.117C2557.56 171.171 2704.04 270.837 2826.54 396.227C2949.03 521.618 3045.06 670.19 3108.95 833.17C3172.84 996.149 3203.29 1170.23 3198.51 1345.13C3193.73 1520.03 3153.82 1692.2 3081.13 1851.48C3008.43 2010.75 2904.43 2153.9 2775.27 2272.47C2646.11 2391.04 2494.41 2482.62 2329.12 2541.8C2163.84 2600.99 1988.32 2626.58 1812.94 2617.06L1844.72 2035.99C1942.16 2041.28 2039.68 2027.06 2131.51 1994.17C2223.34 1961.29 2307.63 1910.41 2379.39 1844.53C2451.16 1778.65 2508.94 1699.12 2549.33 1610.63C2589.72 1522.13 2611.89 1426.47 2614.55 1329.3C2617.2 1232.12 2600.28 1135.4 2564.79 1044.85C2529.29 954.296 2475.94 871.749 2407.88 802.081C2339.82 732.413 2258.43 677.038 2168.53 639.227C2078.63 601.416 1982.03 581.935 1884.45 581.935V1.56609e-05Z" fill="url(#paint3_linear)"/>
<path d="M1542.51 1047.6C1542.51 1035.02 1552.72 1024.83 1565.31 1024.83H1823.66C1978.93 1024.83 2104.81 1150.58 2104.81 1305.7C2104.81 1460.83 1978.93 1586.58 1823.66 1586.58H1565.31C1552.72 1586.58 1542.51 1576.39 1542.51 1563.81V1047.6Z" fill="url(#paint4_linear)"/>
<path d="M1151.18 2034.47C1129.91 2028.4 1124.59 2009.17 1124.59 2000.31L1086.6 2019.29V2072.43L1151.18 2064.83C1160.05 2057.24 1172.46 2040.54 1151.18 2034.47Z" fill="url(#paint5_linear)"/>
<path d="M1125.41 615.373C1126.15 593.279 1143.54 583.466 1152.14 581.321L1124.51 549.091L1072.9 561.962L1095.92 622.728C1105.44 629.482 1124.66 637.467 1125.41 615.373Z" fill="url(#paint6_linear)"/>
<defs>
<linearGradient id="paint0_linear" x1="1599.5" y1="0" x2="1599.5" y2="2619" gradientUnits="userSpaceOnUse">
<stop stop-color="#AA83FD"/>
<stop offset="1" stop-color="#584ACF"/>
</linearGradient>
<linearGradient id="paint1_linear" x1="1599.5" y1="0" x2="1599.5" y2="2619" gradientUnits="userSpaceOnUse">
<stop stop-color="#AA83FD"/>
<stop offset="1" stop-color="#584ACF"/>
</linearGradient>
<linearGradient id="paint2_linear" x1="1599.5" y1="0" x2="1599.5" y2="2619" gradientUnits="userSpaceOnUse">
<stop stop-color="#AA83FD"/>
<stop offset="1" stop-color="#584ACF"/>
</linearGradient>
<linearGradient id="paint3_linear" x1="1599.5" y1="0" x2="1599.5" y2="2619" gradientUnits="userSpaceOnUse">
<stop stop-color="#AA83FD"/>
<stop offset="1" stop-color="#584ACF"/>
</linearGradient>
<linearGradient id="paint4_linear" x1="1599.5" y1="0" x2="1599.5" y2="2619" gradientUnits="userSpaceOnUse">
<stop stop-color="#AA83FD"/>
<stop offset="1" stop-color="#584ACF"/>
</linearGradient>
<linearGradient id="paint5_linear" x1="1599.5" y1="0" x2="1599.5" y2="2619" gradientUnits="userSpaceOnUse">
<stop stop-color="#AA83FD"/>
<stop offset="1" stop-color="#584ACF"/>
</linearGradient>
<linearGradient id="paint6_linear" x1="1599.5" y1="0" x2="1599.5" y2="2619" gradientUnits="userSpaceOnUse">
<stop stop-color="#AA83FD"/>
<stop offset="1" stop-color="#584ACF"/>
</linearGradient>
</defs>
</svg>
