<?xml version="1.0" encoding="UTF-8" standalone="no"?>
<!DOCTYPE svg PUBLIC "-//W3C//DTD SVG 1.1//EN" "http://www.w3.org/Graphics/SVG/1.1/DTD/svg11.dtd">
<svg xmlns="http://www.w3.org/2000/svg" version="1.1" viewBox="0.00 0.00 1024.00 1024.00">
<g stroke-width="2.00" fill="none" stroke-linecap="butt">
<path stroke="#80848e" d="
  M 204.43 248.63
  C 172.02 287.56 147.82 332.61 133.27 380.71
  Q 121.89 418.30 117.48 461.35
  C 115.85 477.29 115.79 494.35 116.02 509.76
  Q 116.73 558.17 131.28 605.84
  Q 136.74 623.75 138.97 629.65
  Q 146.64 650.10 155.33 667.42
  C 189.96 736.48 244.31 795.22 310.63 835.16
  C 348.83 858.16 392.50 874.13 436.24 882.70
  Q 438.35 883.11 455.45 886.08
  C 460.72 886.99 465.64 887.13 470.90 887.94
  Q 475.28 888.61 482.52 889.12
  Q 508.86 891.00 527.45 890.13
  Q 550.44 889.06 571.15 885.96
  C 595.01 882.40 618.68 876.73 641.75 868.71
  Q 652.79 864.88 655.87 863.70
  C 672.16 857.49 691.07 848.73 706.35 839.96
  Q 746.82 816.74 778.82 787.25
  Q 794.84 772.48 807.13 758.93
  Q 859.31 701.47 885.37 629.77
  C 919.06 537.05 914.93 433.38 876.52 342.74
  Q 863.83 312.78 841.84 278.63
  Q 836.08 269.67 827.55 258.57
  Q 817.56 245.58 811.92 239.22
  Q 778.31 201.41 735.97 172.81
  Q 666.84 126.14 585.16 110.99
  Q 570.07 108.19 556.57 107.03
  Q 536.31 105.27 516.04 105.04
  C 495.39 104.80 472.88 106.50 452.84 109.33
  C 422.08 113.67 391.21 121.55 362.21 133.46
  Q 345.67 140.24 334.11 145.99
  Q 295.09 165.40 260.93 193.08
  Q 252.55 199.86 243.13 208.12
  Q 237.31 213.23 221.49 229.31
  Q 215.26 235.63 204.43 248.63"
/>
<path stroke="#052f64" d="
  M 205.23 249.25
  C 172.90 288.09 148.76 333.03 134.25 381.01
  Q 122.91 418.51 118.51 461.46
  C 116.89 477.36 116.83 494.37 117.06 509.75
  Q 117.77 558.04 132.29 605.59
  Q 137.74 623.45 139.96 629.34
  Q 147.62 649.74 156.29 667.01
  C 190.84 735.90 245.06 794.49 311.22 834.33
  C 349.33 857.27 392.89 873.19 436.52 881.74
  Q 438.63 882.15 455.69 885.11
  C 460.94 886.02 465.85 886.15 471.10 886.96
  Q 475.47 887.63 482.69 888.14
  Q 508.97 890.01 527.51 889.14
  Q 550.44 888.07 571.10 884.98
  C 594.90 881.42 618.51 875.77 641.53 867.76
  Q 652.54 863.94 655.61 862.77
  C 671.86 856.57 690.72 847.83 705.96 839.08
  Q 746.33 815.91 778.25 786.49
  Q 794.23 771.76 806.49 758.24
  Q 858.53 700.92 884.52 629.39
  C 918.12 536.90 913.99 433.48 875.67 343.07
  Q 863.01 313.18 841.07 279.12
  Q 835.32 270.18 826.81 259.11
  Q 816.85 246.15 811.22 239.81
  Q 777.69 202.10 735.45 173.57
  Q 666.49 127.02 585.01 111.92
  Q 569.95 109.13 556.49 107.97
  Q 536.28 106.22 516.06 105.99
  C 495.46 105.75 473.00 107.45 453.01 110.27
  C 422.33 114.60 391.54 122.47 362.61 134.35
  Q 346.11 141.12 334.58 146.85
  Q 295.66 166.22 261.58 193.83
  Q 253.22 200.60 243.83 208.84
  Q 238.02 213.94 222.24 229.98
  Q 216.03 236.28 205.23 249.25"
/>
<path stroke="#85abd6" d="
  M 540.19 778.86
  L 565.90 779.10"
/>
<path stroke="#052f64" d="
  M 565.90 779.10
  Q 581.38 778.98 596.61 775.79
  Q 611.77 772.61 621.67 769.61
  Q 640.41 763.93 661.35 753.15
  Q 669.08 749.18 677.85 743.34
  Q 689.90 735.32 693.59 732.33
  Q 703.15 724.58 711.36 716.19
  Q 719.00 708.38 725.96 699.25
  Q 735.10 687.26 739.05 681.09
  Q 752.64 659.85 761.94 633.37
  C 765.46 623.37 768.09 611.88 769.76 602.12
  Q 771.97 589.31 772.90 573.49
  Q 773.76 558.95 772.77 551.07
  C 771.89 544.02 771.40 537.62 770.29 530.97
  Q 766.76 509.81 758.88 488.83
  Q 755.78 480.56 751.23 472.02
  Q 742.65 455.91 732.72 442.80
  Q 718.22 423.66 697.34 408.90
  Q 687.17 401.71 678.15 396.84
  Q 660.13 387.11 636.92 380.84
  C 632.74 379.71 629.29 379.27 624.90 378.30
  C 612.12 375.45 598.49 375.14 584.43 375.77
  C 578.06 376.06 572.34 377.06 566.78 377.72
  Q 553.16 379.34 536.79 384.89
  Q 511.63 393.44 488.84 410.37
  Q 468.91 425.17 454.30 443.30
  C 446.92 452.47 441.34 462.92 437.15 471.13
  A 0.23 0.23 0.0 0 1 436.71 471.05
  Q 435.30 457.88 438.35 446.02
  Q 440.85 436.26 442.92 431.17
  Q 444.66 426.89 449.82 416.32
  Q 452.19 411.46 459.03 402.38
  A 5.13 5.03 78.1 0 0 459.49 401.66
  C 462.25 396.71 465.32 394.01 468.82 389.82
  Q 486.98 368.02 512.83 352.02
  Q 524.29 344.92 535.87 339.44
  Q 546.75 334.29 560.44 330.21
  Q 587.25 322.20 613.50 320.71
  Q 627.25 319.94 637.13 320.91
  Q 644.20 321.60 645.21 321.67
  C 650.55 322.00 654.76 323.09 659.73 323.75
  Q 662.41 324.11 666.19 324.98
  Q 700.39 332.88 729.62 353.42
  Q 749.91 367.67 766.55 385.96
  C 786.79 408.18 803.44 432.58 818.44 458.55
  C 820.38 461.91 823.18 464.99 827.56 464.53
  A 1.68 1.64 19.3 0 0 828.55 464.07
  Q 830.29 462.37 830.29 460.57
  Q 830.26 453.43 829.08 447.73
  Q 824.31 424.69 819.21 408.56
  Q 806.19 367.34 782.26 331.75
  Q 773.46 318.67 759.06 303.03
  C 753.15 296.63 744.42 289.25 738.76 284.72
  Q 702.14 255.44 655.79 246.72
  Q 644.62 244.61 634.51 243.60
  Q 631.00 243.25 628.98 243.30
  C 624.10 243.41 619.59 242.72 615.08 242.89
  C 606.04 243.22 597.35 243.20 589.07 244.72
  Q 587.60 244.98 582.30 245.75
  Q 551.72 250.14 521.70 265.53
  Q 504.47 274.36 489.80 285.31
  Q 472.53 298.20 456.95 314.53
  C 453.78 317.85 450.98 321.93 448.02 325.18
  Q 445.14 328.36 441.60 333.36
  Q 434.90 342.83 433.85 344.56
  C 424.97 359.20 416.81 375.33 411.10 392.05
  Q 398.38 429.28 401.38 468.73
  Q 403.02 490.21 413.63 514.35
  C 416.99 521.99 422.89 530.85 427.82 537.18
  C 442.45 555.99 464.29 570.69 488.04 573.49
  Q 503.52 575.31 517.02 572.20
  Q 530.71 569.05 541.43 564.34
  Q 542.38 563.92 543.54 564.01
  A 0.27 0.27 0.0 0 1 543.72 564.46
  Q 524.34 585.24 497.26 594.49
  Q 489.55 597.12 483.11 597.83
  Q 470.98 599.16 459.49 598.03
  C 440.98 596.22 423.17 584.77 410.82 571.21
  Q 402.24 561.79 400.84 559.93
  Q 382.84 536.15 374.00 512.54
  Q 371.37 505.52 367.69 494.36
  Q 366.27 490.06 361.60 469.01
  Q 361.22 467.28 361.14 465.38
  C 361.02 462.34 360.24 459.21 359.89 456.28
  Q 357.50 436.70 358.91 414.69
  Q 362.23 362.86 385.20 316.72
  Q 391.02 305.02 391.95 303.44
  C 399.07 291.31 406.33 279.76 414.95 269.16
  Q 421.65 260.94 425.90 256.40
  C 433.99 247.77 443.82 238.01 454.45 229.35
  Q 466.08 219.88 469.30 217.55
  Q 478.17 211.13 496.99 199.50
  Q 500.03 197.62 500.18 195.44"
/>
<path stroke="#85abd6" d="
  M 500.18 195.44
  Q 500.86 193.93 498.12 191.94"
/>
<path stroke="#052f64" d="
  M 498.12 191.94
  Q 485.67 192.19 468.99 196.79
  Q 457.72 199.90 446.85 203.31
  Q 442.24 204.75 438.17 206.46
  Q 437.88 206.58 429.60 209.93
  Q 409.30 218.16 387.52 231.07
  Q 381.84 234.43 378.65 236.67
  C 371.39 241.74 364.47 246.05 357.15 251.65
  Q 336.91 267.14 319.32 286.06
  Q 279.55 328.84 262.06 384.07
  Q 259.73 391.44 257.19 402.37
  Q 254.03 416.01 253.34 420.90
  Q 248.19 457.60 250.88 489.99
  Q 251.91 502.39 256.17 521.94
  C 256.72 524.47 257.94 526.93 258.46 529.26
  A 3.43 3.41 -30.1 0 1 257.64 532.32
  C 247.40 543.43 241.68 558.18 240.34 573.06
  Q 239.11 586.68 243.73 601.06
  C 249.87 620.22 261.68 635.52 277.80 647.17
  Q 299.01 662.50 324.53 662.21
  C 340.67 662.03 355.49 655.97 366.68 644.60
  A 1.56 1.56 0.0 0 1 368.65 644.40
  Q 376.88 649.86 389.15 655.47
  Q 398.64 659.82 406.80 662.34
  Q 420.20 666.48 425.02 667.45
  Q 439.06 670.29 452.26 671.40
  Q 463.38 672.34 475.24 671.37
  Q 507.23 668.74 535.52 655.51
  Q 542.55 652.23 557.45 642.76
  C 564.25 638.44 572.55 631.04 576.59 627.36
  Q 580.87 623.46 590.12 611.88
  Q 599.40 600.25 604.12 586.01
  Q 608.57 572.60 607.64 556.86
  Q 606.27 533.53 595.00 512.52
  C 590.30 503.76 583.07 494.34 574.57 487.51
  Q 566.03 480.64 563.95 479.30
  Q 544.42 466.65 521.28 467.78
  C 515.08 468.08 510.32 469.87 505.16 472.38
  Q 497.35 476.18 495.78 484.55
  A 0.42 0.42 0.0 0 1 494.98 484.64
  C 492.65 479.47 492.99 472.77 494.45 467.54
  Q 495.93 462.28 499.63 457.59
  Q 505.78 449.80 514.29 445.04
  C 532.18 435.05 551.07 433.59 572.68 435.34
  Q 578.16 435.79 584.07 437.39
  Q 591.68 439.45 595.14 440.83
  Q 616.92 449.52 633.82 466.43
  Q 647.43 480.05 657.63 499.15
  Q 666.31 515.41 670.69 534.78
  Q 673.39 546.74 674.07 553.50
  C 675.00 562.65 675.81 574.06 675.16 583.83
  Q 673.75 605.08 668.09 624.26
  C 667.04 627.82 665.10 631.51 664.13 634.74
  Q 663.18 637.89 660.88 642.46
  Q 652.33 659.46 645.78 667.80
  Q 634.74 681.87 623.87 690.87
  Q 597.67 712.57 562.33 723.09
  Q 552.07 726.14 543.68 728.39
  C 539.94 729.40 537.01 729.57 533.86 730.41
  Q 531.29 731.09 526.43 731.64
  C 521.13 732.24 516.03 733.30 510.84 733.64
  C 489.82 735.06 468.07 734.97 447.11 731.94
  Q 432.56 729.84 428.89 729.08
  Q 414.16 726.00 407.02 724.83
  C 403.11 724.19 397.75 727.05 401.71 731.56
  Q 403.90 734.06 405.37 735.06
  Q 424.33 747.97 439.58 755.11
  Q 461.54 765.38 485.01 771.43
  Q 504.65 776.49 516.76 777.62
  Q 528.42 778.70 532.38 779.37
  Q 537.07 780.17 540.19 778.86"
/>
<path stroke="#80848e" d="
  M 498.12 191.94
  Q 494.69 192.69 491.07 193.14
  Q 486.10 193.76 484.00 194.20
  Q 426.93 206.19 377.39 238.37
  C 332.56 267.49 294.99 307.97 273.36 356.85
  Q 253.44 401.85 251.25 452.23
  C 250.23 475.85 251.56 498.31 256.91 520.90
  C 257.66 524.08 258.80 526.87 259.53 529.39
  A 3.08 3.07 58.5 0 1 258.83 532.33
  C 248.77 543.14 243.61 556.18 241.58 570.71
  C 239.75 583.79 242.98 599.11 248.45 610.82
  C 262.99 641.93 295.75 664.67 330.78 660.77
  Q 351.96 658.41 366.70 643.16
  A 1.17 1.17 0.0 0 1 368.22 643.01
  Q 373.98 647.00 380.45 650.31
  Q 407.98 664.36 438.87 668.88
  Q 470.35 673.49 499.95 666.66
  C 535.67 658.43 567.69 639.77 590.10 610.46
  Q 608.65 586.22 606.53 556.00
  Q 604.28 523.86 584.90 499.36
  Q 581.77 495.41 575.47 489.59
  C 559.32 474.68 539.13 466.44 517.03 469.30
  Q 512.03 469.95 506.06 472.82
  C 499.19 476.12 498.35 480.24 495.60 486.35
  A 0.65 0.65 0.0 0 1 494.40 486.33
  C 490.10 475.76 492.81 463.97 500.38 455.38
  Q 505.20 449.91 508.33 447.77
  C 527.41 434.72 549.03 432.14 572.01 434.25
  Q 585.80 435.52 599.58 441.77
  Q 631.39 456.21 650.97 486.10
  C 674.85 522.55 681.28 567.82 672.63 610.21
  C 668.45 630.72 659.87 649.61 648.04 666.09
  C 630.58 690.41 604.60 708.58 576.08 719.41
  Q 532.17 736.09 485.18 735.74
  Q 456.37 735.53 429.03 730.16
  Q 407.49 725.94 407.42 725.93
  Q 404.57 725.57 402.86 726.17
  A 2.55 2.36 -16.3 0 0 401.16 729.00
  C 401.74 731.44 406.01 734.52 408.25 736.03
  Q 430.56 751.02 454.89 760.53
  Q 495.80 776.53 540.19 778.86"
/>
<path stroke="#80848e" d="
  M 500.18 195.44
  Q 497.68 198.00 496.32 198.83
  Q 480.61 208.45 468.28 217.30
  Q 449.31 230.91 431.90 248.65
  C 403.63 277.47 383.02 312.61 370.24 350.73
  Q 360.14 380.88 357.84 414.65
  Q 356.25 438.01 359.08 459.28
  C 363.30 491.02 374.01 521.86 391.42 548.55
  Q 402.87 566.11 417.17 578.79
  C 433.49 593.27 452.23 600.90 473.76 599.68
  Q 487.58 598.90 498.35 595.08
  Q 526.71 585.00 546.68 562.53
  A 0.31 0.31 0.0 0 0 546.35 562.03
  C 544.53 562.60 542.54 563.08 540.89 563.72
  Q 527.58 568.90 517.25 571.14
  Q 486.62 577.75 459.58 563.21
  C 443.64 554.63 432.24 542.91 422.16 527.74
  C 412.82 513.68 407.25 497.23 404.00 480.53
  Q 401.53 467.81 401.80 452.28
  Q 402.58 406.63 423.26 365.27
  Q 439.09 333.59 463.75 308.76
  Q 480.32 292.06 500.71 278.62
  Q 521.10 265.17 543.18 256.95
  C 592.07 238.76 650.46 239.25 698.56 261.14
  C 735.52 277.96 765.96 306.76 787.41 341.65
  Q 813.29 383.74 824.57 432.67
  Q 826.81 442.36 828.77 453.25
  C 829.24 455.85 830.33 462.45 827.58 463.77
  C 824.78 465.11 821.01 460.68 819.70 458.53
  Q 813.49 448.40 806.17 436.81
  Q 787.11 406.65 764.78 382.73
  C 734.20 349.98 694.41 326.85 649.87 321.21
  Q 634.52 319.27 626.98 319.27
  Q 592.82 319.27 559.61 329.38
  Q 538.27 335.88 517.72 347.96
  Q 497.16 360.05 482.26 374.29
  C 460.45 395.14 441.51 420.29 436.18 450.75
  C 434.91 457.98 435.03 464.21 435.90 471.85
  Q 436.03 473.03 436.85 473.37
  A 0.63 0.63 0.0 0 0 437.69 473.01
  Q 440.08 466.64 444.11 459.83
  C 459.89 433.20 484.34 411.68 511.34 397.07
  Q 527.55 388.30 543.01 383.87
  C 563.83 377.89 585.35 375.68 606.79 377.03
  Q 620.66 377.90 636.40 381.89
  Q 674.39 391.53 704.36 415.43
  C 720.06 427.95 732.60 442.59 742.84 459.41
  Q 766.60 498.45 770.77 543.66
  C 771.52 551.81 771.94 554.91 771.93 562.16
  Q 771.91 575.74 770.58 588.62
  C 766.23 630.71 749.12 670.03 722.23 702.49
  Q 698.74 730.84 666.61 749.12
  Q 627.97 771.10 583.15 776.63
  Q 574.60 777.69 565.90 779.10"
/>
</g>
<path fill="#ffffff" d="
  M 1024.00 0.00
  L 1024.00 1024.00
  L 0.00 1024.00
  L 0.00 0.00
  L 1024.00 0.00
  Z
  M 204.43 248.63
  C 172.02 287.56 147.82 332.61 133.27 380.71
  Q 121.89 418.30 117.48 461.35
  C 115.85 477.29 115.79 494.35 116.02 509.76
  Q 116.73 558.17 131.28 605.84
  Q 136.74 623.75 138.97 629.65
  Q 146.64 650.10 155.33 667.42
  C 189.96 736.48 244.31 795.22 310.63 835.16
  C 348.83 858.16 392.50 874.13 436.24 882.70
  Q 438.35 883.11 455.45 886.08
  C 460.72 886.99 465.64 887.13 470.90 887.94
  Q 475.28 888.61 482.52 889.12
  Q 508.86 891.00 527.45 890.13
  Q 550.44 889.06 571.15 885.96
  C 595.01 882.40 618.68 876.73 641.75 868.71
  Q 652.79 864.88 655.87 863.70
  C 672.16 857.49 691.07 848.73 706.35 839.96
  Q 746.82 816.74 778.82 787.25
  Q 794.84 772.48 807.13 758.93
  Q 859.31 701.47 885.37 629.77
  C 919.06 537.05 914.93 433.38 876.52 342.74
  Q 863.83 312.78 841.84 278.63
  Q 836.08 269.67 827.55 258.57
  Q 817.56 245.58 811.92 239.22
  Q 778.31 201.41 735.97 172.81
  Q 666.84 126.14 585.16 110.99
  Q 570.07 108.19 556.57 107.03
  Q 536.31 105.27 516.04 105.04
  C 495.39 104.80 472.88 106.50 452.84 109.33
  C 422.08 113.67 391.21 121.55 362.21 133.46
  Q 345.67 140.24 334.11 145.99
  Q 295.09 165.40 260.93 193.08
  Q 252.55 199.86 243.13 208.12
  Q 237.31 213.23 221.49 229.31
  Q 215.26 235.63 204.43 248.63
  Z"
/>
<path fill="#00081c" d="
  M 204.43 248.63
  Q 215.26 235.63 221.49 229.31
  Q 237.31 213.23 243.13 208.12
  Q 252.55 199.86 260.93 193.08
  Q 295.09 165.40 334.11 145.99
  Q 345.67 140.24 362.21 133.46
  C 391.21 121.55 422.08 113.67 452.84 109.33
  C 472.88 106.50 495.39 104.80 516.04 105.04
  Q 536.31 105.27 556.57 107.03
  Q 570.07 108.19 585.16 110.99
  Q 666.84 126.14 735.97 172.81
  Q 778.31 201.41 811.92 239.22
  Q 817.56 245.58 827.55 258.57
  Q 836.08 269.67 841.84 278.63
  Q 863.83 312.78 876.52 342.74
  C 914.93 433.38 919.06 537.05 885.37 629.77
  Q 859.31 701.47 807.13 758.93
  Q 794.84 772.48 778.82 787.25
  Q 746.82 816.74 706.35 839.96
  C 691.07 848.73 672.16 857.49 655.87 863.70
  Q 652.79 864.88 641.75 868.71
  C 618.68 876.73 595.01 882.40 571.15 885.96
  Q 550.44 889.06 527.45 890.13
  Q 508.86 891.00 482.52 889.12
  Q 475.28 888.61 470.90 887.94
  C 465.64 887.13 460.72 886.99 455.45 886.08
  Q 438.35 883.11 436.24 882.70
  C 392.50 874.13 348.83 858.16 310.63 835.16
  C 244.31 795.22 189.96 736.48 155.33 667.42
  Q 146.64 650.10 138.97 629.65
  Q 136.74 623.75 131.28 605.84
  Q 116.73 558.17 116.02 509.76
  C 115.79 494.35 115.85 477.29 117.48 461.35
  Q 121.89 418.30 133.27 380.71
  C 147.82 332.61 172.02 287.56 204.43 248.63
  Z
  M 205.23 249.25
  C 172.90 288.09 148.76 333.03 134.25 381.01
  Q 122.91 418.51 118.51 461.46
  C 116.89 477.36 116.83 494.37 117.06 509.75
  Q 117.77 558.04 132.29 605.59
  Q 137.74 623.45 139.96 629.34
  Q 147.62 649.74 156.29 667.01
  C 190.84 735.90 245.06 794.49 311.22 834.33
  C 349.33 857.27 392.89 873.19 436.52 881.74
  Q 438.63 882.15 455.69 885.11
  C 460.94 886.02 465.85 886.15 471.10 886.96
  Q 475.47 887.63 482.69 888.14
  Q 508.97 890.01 527.51 889.14
  Q 550.44 888.07 571.10 884.98
  C 594.90 881.42 618.51 875.77 641.53 867.76
  Q 652.54 863.94 655.61 862.77
  C 671.86 856.57 690.72 847.83 705.96 839.08
  Q 746.33 815.91 778.25 786.49
  Q 794.23 771.76 806.49 758.24
  Q 858.53 700.92 884.52 629.39
  C 918.12 536.90 913.99 433.48 875.67 343.07
  Q 863.01 313.18 841.07 279.12
  Q 835.32 270.18 826.81 259.11
  Q 816.85 246.15 811.22 239.81
  Q 777.69 202.10 735.45 173.57
  Q 666.49 127.02 585.01 111.92
  Q 569.95 109.13 556.49 107.97
  Q 536.28 106.22 516.06 105.99
  C 495.46 105.75 473.00 107.45 453.01 110.27
  C 422.33 114.60 391.54 122.47 362.61 134.35
  Q 346.11 141.12 334.58 146.85
  Q 295.66 166.22 261.58 193.83
  Q 253.22 200.60 243.83 208.84
  Q 238.02 213.94 222.24 229.98
  Q 216.03 236.28 205.23 249.25
  Z"
/>
<path fill="#0a56ac" d="
  M 205.23 249.25
  Q 216.03 236.28 222.24 229.98
  Q 238.02 213.94 243.83 208.84
  Q 253.22 200.60 261.58 193.83
  Q 295.66 166.22 334.58 146.85
  Q 346.11 141.12 362.61 134.35
  C 391.54 122.47 422.33 114.60 453.01 110.27
  C 473.00 107.45 495.46 105.75 516.06 105.99
  Q 536.28 106.22 556.49 107.97
  Q 569.95 109.13 585.01 111.92
  Q 666.49 127.02 735.45 173.57
  Q 777.69 202.10 811.22 239.81
  Q 816.85 246.15 826.81 259.11
  Q 835.32 270.18 841.07 279.12
  Q 863.01 313.18 875.67 343.07
  C 913.99 433.48 918.12 536.90 884.52 629.39
  Q 858.53 700.92 806.49 758.24
  Q 794.23 771.76 778.25 786.49
  Q 746.33 815.91 705.96 839.08
  C 690.72 847.83 671.86 856.57 655.61 862.77
  Q 652.54 863.94 641.53 867.76
  C 618.51 875.77 594.90 881.42 571.10 884.98
  Q 550.44 888.07 527.51 889.14
  Q 508.97 890.01 482.69 888.14
  Q 475.47 887.63 471.10 886.96
  C 465.85 886.15 460.94 886.02 455.69 885.11
  Q 438.63 882.15 436.52 881.74
  C 392.89 873.19 349.33 857.27 311.22 834.33
  C 245.06 794.49 190.84 735.90 156.29 667.01
  Q 147.62 649.74 139.96 629.34
  Q 137.74 623.45 132.29 605.59
  Q 117.77 558.04 117.06 509.75
  C 116.83 494.37 116.89 477.36 118.51 461.46
  Q 122.91 418.51 134.25 381.01
  C 148.76 333.03 172.90 288.09 205.23 249.25
  Z
  M 540.19 778.86
  L 565.90 779.10
  Q 581.38 778.98 596.61 775.79
  Q 611.77 772.61 621.67 769.61
  Q 640.41 763.93 661.35 753.15
  Q 669.08 749.18 677.85 743.34
  Q 689.90 735.32 693.59 732.33
  Q 703.15 724.58 711.36 716.19
  Q 719.00 708.38 725.96 699.25
  Q 735.10 687.26 739.05 681.09
  Q 752.64 659.85 761.94 633.37
  C 765.46 623.37 768.09 611.88 769.76 602.12
  Q 771.97 589.31 772.90 573.49
  Q 773.76 558.95 772.77 551.07
  C 771.89 544.02 771.40 537.62 770.29 530.97
  Q 766.76 509.81 758.88 488.83
  Q 755.78 480.56 751.23 472.02
  Q 742.65 455.91 732.72 442.80
  Q 718.22 423.66 697.34 408.90
  Q 687.17 401.71 678.15 396.84
  Q 660.13 387.11 636.92 380.84
  C 632.74 379.71 629.29 379.27 624.90 378.30
  C 612.12 375.45 598.49 375.14 584.43 375.77
  C 578.06 376.06 572.34 377.06 566.78 377.72
  Q 553.16 379.34 536.79 384.89
  Q 511.63 393.44 488.84 410.37
  Q 468.91 425.17 454.30 443.30
  C 446.92 452.47 441.34 462.92 437.15 471.13
  A 0.23 0.23 0.0 0 1 436.71 471.05
  Q 435.30 457.88 438.35 446.02
  Q 440.85 436.26 442.92 431.17
  Q 444.66 426.89 449.82 416.32
  Q 452.19 411.46 459.03 402.38
  A 5.13 5.03 78.1 0 0 459.49 401.66
  C 462.25 396.71 465.32 394.01 468.82 389.82
  Q 486.98 368.02 512.83 352.02
  Q 524.29 344.92 535.87 339.44
  Q 546.75 334.29 560.44 330.21
  Q 587.25 322.20 613.50 320.71
  Q 627.25 319.94 637.13 320.91
  Q 644.20 321.60 645.21 321.67
  C 650.55 322.00 654.76 323.09 659.73 323.75
  Q 662.41 324.11 666.19 324.98
  Q 700.39 332.88 729.62 353.42
  Q 749.91 367.67 766.55 385.96
  C 786.79 408.18 803.44 432.58 818.44 458.55
  C 820.38 461.91 823.18 464.99 827.56 464.53
  A 1.68 1.64 19.3 0 0 828.55 464.07
  Q 830.29 462.37 830.29 460.57
  Q 830.26 453.43 829.08 447.73
  Q 824.31 424.69 819.21 408.56
  Q 806.19 367.34 782.26 331.75
  Q 773.46 318.67 759.06 303.03
  C 753.15 296.63 744.42 289.25 738.76 284.72
  Q 702.14 255.44 655.79 246.72
  Q 644.62 244.61 634.51 243.60
  Q 631.00 243.25 628.98 243.30
  C 624.10 243.41 619.59 242.72 615.08 242.89
  C 606.04 243.22 597.35 243.20 589.07 244.72
  Q 587.60 244.98 582.30 245.75
  Q 551.72 250.14 521.70 265.53
  Q 504.47 274.36 489.80 285.31
  Q 472.53 298.20 456.95 314.53
  C 453.78 317.85 450.98 321.93 448.02 325.18
  Q 445.14 328.36 441.60 333.36
  Q 434.90 342.83 433.85 344.56
  C 424.97 359.20 416.81 375.33 411.10 392.05
  Q 398.38 429.28 401.38 468.73
  Q 403.02 490.21 413.63 514.35
  C 416.99 521.99 422.89 530.85 427.82 537.18
  C 442.45 555.99 464.29 570.69 488.04 573.49
  Q 503.52 575.31 517.02 572.20
  Q 530.71 569.05 541.43 564.34
  Q 542.38 563.92 543.54 564.01
  A 0.27 0.27 0.0 0 1 543.72 564.46
  Q 524.34 585.24 497.26 594.49
  Q 489.55 597.12 483.11 597.83
  Q 470.98 599.16 459.49 598.03
  C 440.98 596.22 423.17 584.77 410.82 571.21
  Q 402.24 561.79 400.84 559.93
  Q 382.84 536.15 374.00 512.54
  Q 371.37 505.52 367.69 494.36
  Q 366.27 490.06 361.60 469.01
  Q 361.22 467.28 361.14 465.38
  C 361.02 462.34 360.24 459.21 359.89 456.28
  Q 357.50 436.70 358.91 414.69
  Q 362.23 362.86 385.20 316.72
  Q 391.02 305.02 391.95 303.44
  C 399.07 291.31 406.33 279.76 414.95 269.16
  Q 421.65 260.94 425.90 256.40
  C 433.99 247.77 443.82 238.01 454.45 229.35
  Q 466.08 219.88 469.30 217.55
  Q 478.17 211.13 496.99 199.50
  Q 500.03 197.62 500.18 195.44
  Q 500.86 193.93 498.12 191.94
  Q 485.67 192.19 468.99 196.79
  Q 457.72 199.90 446.85 203.31
  Q 442.24 204.75 438.17 206.46
  Q 437.88 206.58 429.60 209.93
  Q 409.30 218.16 387.52 231.07
  Q 381.84 234.43 378.65 236.67
  C 371.39 241.74 364.47 246.05 357.15 251.65
  Q 336.91 267.14 319.32 286.06
  Q 279.55 328.84 262.06 384.07
  Q 259.73 391.44 257.19 402.37
  Q 254.03 416.01 253.34 420.90
  Q 248.19 457.60 250.88 489.99
  Q 251.91 502.39 256.17 521.94
  C 256.72 524.47 257.94 526.93 258.46 529.26
  A 3.43 3.41 -30.1 0 1 257.64 532.32
  C 247.40 543.43 241.68 558.18 240.34 573.06
  Q 239.11 586.68 243.73 601.06
  C 249.87 620.22 261.68 635.52 277.80 647.17
  Q 299.01 662.50 324.53 662.21
  C 340.67 662.03 355.49 655.97 366.68 644.60
  A 1.56 1.56 0.0 0 1 368.65 644.40
  Q 376.88 649.86 389.15 655.47
  Q 398.64 659.82 406.80 662.34
  Q 420.20 666.48 425.02 667.45
  Q 439.06 670.29 452.26 671.40
  Q 463.38 672.34 475.24 671.37
  Q 507.23 668.74 535.52 655.51
  Q 542.55 652.23 557.45 642.76
  C 564.25 638.44 572.55 631.04 576.59 627.36
  Q 580.87 623.46 590.12 611.88
  Q 599.40 600.25 604.12 586.01
  Q 608.57 572.60 607.64 556.86
  Q 606.27 533.53 595.00 512.52
  C 590.30 503.76 583.07 494.34 574.57 487.51
  Q 566.03 480.64 563.95 479.30
  Q 544.42 466.65 521.28 467.78
  C 515.08 468.08 510.32 469.87 505.16 472.38
  Q 497.35 476.18 495.78 484.55
  A 0.42 0.42 0.0 0 1 494.98 484.64
  C 492.65 479.47 492.99 472.77 494.45 467.54
  Q 495.93 462.28 499.63 457.59
  Q 505.78 449.80 514.29 445.04
  C 532.18 435.05 551.07 433.59 572.68 435.34
  Q 578.16 435.79 584.07 437.39
  Q 591.68 439.45 595.14 440.83
  Q 616.92 449.52 633.82 466.43
  Q 647.43 480.05 657.63 499.15
  Q 666.31 515.41 670.69 534.78
  Q 673.39 546.74 674.07 553.50
  C 675.00 562.65 675.81 574.06 675.16 583.83
  Q 673.75 605.08 668.09 624.26
  C 667.04 627.82 665.10 631.51 664.13 634.74
  Q 663.18 637.89 660.88 642.46
  Q 652.33 659.46 645.78 667.80
  Q 634.74 681.87 623.87 690.87
  Q 597.67 712.57 562.33 723.09
  Q 552.07 726.14 543.68 728.39
  C 539.94 729.40 537.01 729.57 533.86 730.41
  Q 531.29 731.09 526.43 731.64
  C 521.13 732.24 516.03 733.30 510.84 733.64
  C 489.82 735.06 468.07 734.97 447.11 731.94
  Q 432.56 729.84 428.89 729.08
  Q 414.16 726.00 407.02 724.83
  C 403.11 724.19 397.75 727.05 401.71 731.56
  Q 403.90 734.06 405.37 735.06
  Q 424.33 747.97 439.58 755.11
  Q 461.54 765.38 485.01 771.43
  Q 504.65 776.49 516.76 777.62
  Q 528.42 778.70 532.38 779.37
  Q 537.07 780.17 540.19 778.86
  Z"
/>
<path fill="#00081c" d="
  M 498.12 191.94
  Q 494.69 192.69 491.07 193.14
  Q 486.10 193.76 484.00 194.20
  Q 426.93 206.19 377.39 238.37
  C 332.56 267.49 294.99 307.97 273.36 356.85
  Q 253.44 401.85 251.25 452.23
  C 250.23 475.85 251.56 498.31 256.91 520.90
  C 257.66 524.08 258.80 526.87 259.53 529.39
  A 3.08 3.07 58.5 0 1 258.83 532.33
  C 248.77 543.14 243.61 556.18 241.58 570.71
  C 239.75 583.79 242.98 599.11 248.45 610.82
  C 262.99 641.93 295.75 664.67 330.78 660.77
  Q 351.96 658.41 366.70 643.16
  A 1.17 1.17 0.0 0 1 368.22 643.01
  Q 373.98 647.00 380.45 650.31
  Q 407.98 664.36 438.87 668.88
  Q 470.35 673.49 499.95 666.66
  C 535.67 658.43 567.69 639.77 590.10 610.46
  Q 608.65 586.22 606.53 556.00
  Q 604.28 523.86 584.90 499.36
  Q 581.77 495.41 575.47 489.59
  C 559.32 474.68 539.13 466.44 517.03 469.30
  Q 512.03 469.95 506.06 472.82
  C 499.19 476.12 498.35 480.24 495.60 486.35
  A 0.65 0.65 0.0 0 1 494.40 486.33
  C 490.10 475.76 492.81 463.97 500.38 455.38
  Q 505.20 449.91 508.33 447.77
  C 527.41 434.72 549.03 432.14 572.01 434.25
  Q 585.80 435.52 599.58 441.77
  Q 631.39 456.21 650.97 486.10
  C 674.85 522.55 681.28 567.82 672.63 610.21
  C 668.45 630.72 659.87 649.61 648.04 666.09
  C 630.58 690.41 604.60 708.58 576.08 719.41
  Q 532.17 736.09 485.18 735.74
  Q 456.37 735.53 429.03 730.16
  Q 407.49 725.94 407.42 725.93
  Q 404.57 725.57 402.86 726.17
  A 2.55 2.36 -16.3 0 0 401.16 729.00
  C 401.74 731.44 406.01 734.52 408.25 736.03
  Q 430.56 751.02 454.89 760.53
  Q 495.80 776.53 540.19 778.86
  Q 537.07 780.17 532.38 779.37
  Q 528.42 778.70 516.76 777.62
  Q 504.65 776.49 485.01 771.43
  Q 461.54 765.38 439.58 755.11
  Q 424.33 747.97 405.37 735.06
  Q 403.90 734.06 401.71 731.56
  C 397.75 727.05 403.11 724.19 407.02 724.83
  Q 414.16 726.00 428.89 729.08
  Q 432.56 729.84 447.11 731.94
  C 468.07 734.97 489.82 735.06 510.84 733.64
  C 516.03 733.30 521.13 732.24 526.43 731.64
  Q 531.29 731.09 533.86 730.41
  C 537.01 729.57 539.94 729.40 543.68 728.39
  Q 552.07 726.14 562.33 723.09
  Q 597.67 712.57 623.87 690.87
  Q 634.74 681.87 645.78 667.80
  Q 652.33 659.46 660.88 642.46
  Q 663.18 637.89 664.13 634.74
  C 665.10 631.51 667.04 627.82 668.09 624.26
  Q 673.75 605.08 675.16 583.83
  C 675.81 574.06 675.00 562.65 674.07 553.50
  Q 673.39 546.74 670.69 534.78
  Q 666.31 515.41 657.63 499.15
  Q 647.43 480.05 633.82 466.43
  Q 616.92 449.52 595.14 440.83
  Q 591.68 439.45 584.07 437.39
  Q 578.16 435.79 572.68 435.34
  C 551.07 433.59 532.18 435.05 514.29 445.04
  Q 505.78 449.80 499.63 457.59
  Q 495.93 462.28 494.45 467.54
  C 492.99 472.77 492.65 479.47 494.98 484.64
  A 0.42 0.42 0.0 0 0 495.78 484.55
  Q 497.35 476.18 505.16 472.38
  C 510.32 469.87 515.08 468.08 521.28 467.78
  Q 544.42 466.65 563.95 479.30
  Q 566.03 480.64 574.57 487.51
  C 583.07 494.34 590.30 503.76 595.00 512.52
  Q 606.27 533.53 607.64 556.86
  Q 608.57 572.60 604.12 586.01
  Q 599.40 600.25 590.12 611.88
  Q 580.87 623.46 576.59 627.36
  C 572.55 631.04 564.25 638.44 557.45 642.76
  Q 542.55 652.23 535.52 655.51
  Q 507.23 668.74 475.24 671.37
  Q 463.38 672.34 452.26 671.40
  Q 439.06 670.29 425.02 667.45
  Q 420.20 666.48 406.80 662.34
  Q 398.64 659.82 389.15 655.47
  Q 376.88 649.86 368.65 644.40
  A 1.56 1.56 0.0 0 0 366.68 644.60
  C 355.49 655.97 340.67 662.03 324.53 662.21
  Q 299.01 662.50 277.80 647.17
  C 261.68 635.52 249.87 620.22 243.73 601.06
  Q 239.11 586.68 240.34 573.06
  C 241.68 558.18 247.40 543.43 257.64 532.32
  A 3.43 3.41 -30.1 0 0 258.46 529.26
  C 257.94 526.93 256.72 524.47 256.17 521.94
  Q 251.91 502.39 250.88 489.99
  Q 248.19 457.60 253.34 420.90
  Q 254.03 416.01 257.19 402.37
  Q 259.73 391.44 262.06 384.07
  Q 279.55 328.84 319.32 286.06
  Q 336.91 267.14 357.15 251.65
  C 364.47 246.05 371.39 241.74 378.65 236.67
  Q 381.84 234.43 387.52 231.07
  Q 409.30 218.16 429.60 209.93
  Q 437.88 206.58 438.17 206.46
  Q 442.24 204.75 446.85 203.31
  Q 457.72 199.90 468.99 196.79
  Q 485.67 192.19 498.12 191.94
  Z"
/>
<path fill="#ffffff" d="
  M 498.12 191.94
  Q 500.86 193.93 500.18 195.44
  Q 497.68 198.00 496.32 198.83
  Q 480.61 208.45 468.28 217.30
  Q 449.31 230.91 431.90 248.65
  C 403.63 277.47 383.02 312.61 370.24 350.73
  Q 360.14 380.88 357.84 414.65
  Q 356.25 438.01 359.08 459.28
  C 363.30 491.02 374.01 521.86 391.42 548.55
  Q 402.87 566.11 417.17 578.79
  C 433.49 593.27 452.23 600.90 473.76 599.68
  Q 487.58 598.90 498.35 595.08
  Q 526.71 585.00 546.68 562.53
  A 0.31 0.31 0.0 0 0 546.35 562.03
  C 544.53 562.60 542.54 563.08 540.89 563.72
  Q 527.58 568.90 517.25 571.14
  Q 486.62 577.75 459.58 563.21
  C 443.64 554.63 432.24 542.91 422.16 527.74
  C 412.82 513.68 407.25 497.23 404.00 480.53
  Q 401.53 467.81 401.80 452.28
  Q 402.58 406.63 423.26 365.27
  Q 439.09 333.59 463.75 308.76
  Q 480.32 292.06 500.71 278.62
  Q 521.10 265.17 543.18 256.95
  C 592.07 238.76 650.46 239.25 698.56 261.14
  C 735.52 277.96 765.96 306.76 787.41 341.65
  Q 813.29 383.74 824.57 432.67
  Q 826.81 442.36 828.77 453.25
  C 829.24 455.85 830.33 462.45 827.58 463.77
  C 824.78 465.11 821.01 460.68 819.70 458.53
  Q 813.49 448.40 806.17 436.81
  Q 787.11 406.65 764.78 382.73
  C 734.20 349.98 694.41 326.85 649.87 321.21
  Q 634.52 319.27 626.98 319.27
  Q 592.82 319.27 559.61 329.38
  Q 538.27 335.88 517.72 347.96
  Q 497.16 360.05 482.26 374.29
  C 460.45 395.14 441.51 420.29 436.18 450.75
  C 434.91 457.98 435.03 464.21 435.90 471.85
  Q 436.03 473.03 436.85 473.37
  A 0.63 0.63 0.0 0 0 437.69 473.01
  Q 440.08 466.64 444.11 459.83
  C 459.89 433.20 484.34 411.68 511.34 397.07
  Q 527.55 388.30 543.01 383.87
  C 563.83 377.89 585.35 375.68 606.79 377.03
  Q 620.66 377.90 636.40 381.89
  Q 674.39 391.53 704.36 415.43
  C 720.06 427.95 732.60 442.59 742.84 459.41
  Q 766.60 498.45 770.77 543.66
  C 771.52 551.81 771.94 554.91 771.93 562.16
  Q 771.91 575.74 770.58 588.62
  C 766.23 630.71 749.12 670.03 722.23 702.49
  Q 698.74 730.84 666.61 749.12
  Q 627.97 771.10 583.15 776.63
  Q 574.60 777.69 565.90 779.10
  L 540.19 778.86
  Q 495.80 776.53 454.89 760.53
  Q 430.56 751.02 408.25 736.03
  C 406.01 734.52 401.74 731.44 401.16 729.00
  A 2.55 2.36 -16.3 0 1 402.86 726.17
  Q 404.57 725.57 407.42 725.93
  Q 407.49 725.94 429.03 730.16
  Q 456.37 735.53 485.18 735.74
  Q 532.17 736.09 576.08 719.41
  C 604.60 708.58 630.58 690.41 648.04 666.09
  C 659.87 649.61 668.45 630.72 672.63 610.21
  C 681.28 567.82 674.85 522.55 650.97 486.10
  Q 631.39 456.21 599.58 441.77
  Q 585.80 435.52 572.01 434.25
  C 549.03 432.14 527.41 434.72 508.33 447.77
  Q 505.20 449.91 500.38 455.38
  C 492.81 463.97 490.10 475.76 494.40 486.33
  A 0.65 0.65 0.0 0 0 495.60 486.35
  C 498.35 480.24 499.19 476.12 506.06 472.82
  Q 512.03 469.95 517.03 469.30
  C 539.13 466.44 559.32 474.68 575.47 489.59
  Q 581.77 495.41 584.90 499.36
  Q 604.28 523.86 606.53 556.00
  Q 608.65 586.22 590.10 610.46
  C 567.69 639.77 535.67 658.43 499.95 666.66
  Q 470.35 673.49 438.87 668.88
  Q 407.98 664.36 380.45 650.31
  Q 373.98 647.00 368.22 643.01
  A 1.17 1.17 0.0 0 0 366.70 643.16
  Q 351.96 658.41 330.78 660.77
  C 295.75 664.67 262.99 641.93 248.45 610.82
  C 242.98 599.11 239.75 583.79 241.58 570.71
  C 243.61 556.18 248.77 543.14 258.83 532.33
  A 3.08 3.07 58.5 0 0 259.53 529.39
  C 258.80 526.87 257.66 524.08 256.91 520.90
  C 251.56 498.31 250.23 475.85 251.25 452.23
  Q 253.44 401.85 273.36 356.85
  C 294.99 307.97 332.56 267.49 377.39 238.37
  Q 426.93 206.19 484.00 194.20
  Q 486.10 193.76 491.07 193.14
  Q 494.69 192.69 498.12 191.94
  Z"
/>
<path fill="#00081c" d="
  M 500.18 195.44
  Q 500.03 197.62 496.99 199.50
  Q 478.17 211.13 469.30 217.55
  Q 466.08 219.88 454.45 229.35
  C 443.82 238.01 433.99 247.77 425.90 256.40
  Q 421.65 260.94 414.95 269.16
  C 406.33 279.76 399.07 291.31 391.95 303.44
  Q 391.02 305.02 385.20 316.72
  Q 362.23 362.86 358.91 414.69
  Q 357.50 436.70 359.89 456.28
  C 360.24 459.21 361.02 462.34 361.14 465.38
  Q 361.22 467.28 361.60 469.01
  Q 366.27 490.06 367.69 494.36
  Q 371.37 505.52 374.00 512.54
  Q 382.84 536.15 400.84 559.93
  Q 402.24 561.79 410.82 571.21
  C 423.17 584.77 440.98 596.22 459.49 598.03
  Q 470.98 599.16 483.11 597.83
  Q 489.55 597.12 497.26 594.49
  Q 524.34 585.24 543.72 564.46
  A 0.27 0.27 0.0 0 0 543.54 564.01
  Q 542.38 563.92 541.43 564.34
  Q 530.71 569.05 517.02 572.20
  Q 503.52 575.31 488.04 573.49
  C 464.29 570.69 442.45 555.99 427.82 537.18
  C 422.89 530.85 416.99 521.99 413.63 514.35
  Q 403.02 490.21 401.38 468.73
  Q 398.38 429.28 411.10 392.05
  C 416.81 375.33 424.97 359.20 433.85 344.56
  Q 434.90 342.83 441.60 333.36
  Q 445.14 328.36 448.02 325.18
  C 450.98 321.93 453.78 317.85 456.95 314.53
  Q 472.53 298.20 489.80 285.31
  Q 504.47 274.36 521.70 265.53
  Q 551.72 250.14 582.30 245.75
  Q 587.60 244.98 589.07 244.72
  C 597.35 243.20 606.04 243.22 615.08 242.89
  C 619.59 242.72 624.10 243.41 628.98 243.30
  Q 631.00 243.25 634.51 243.60
  Q 644.62 244.61 655.79 246.72
  Q 702.14 255.44 738.76 284.72
  C 744.42 289.25 753.15 296.63 759.06 303.03
  Q 773.46 318.67 782.26 331.75
  Q 806.19 367.34 819.21 408.56
  Q 824.31 424.69 829.08 447.73
  Q 830.26 453.43 830.29 460.57
  Q 830.29 462.37 828.55 464.07
  A 1.68 1.64 19.3 0 1 827.56 464.53
  C 823.18 464.99 820.38 461.91 818.44 458.55
  C 803.44 432.58 786.79 408.18 766.55 385.96
  Q 749.91 367.67 729.62 353.42
  Q 700.39 332.88 666.19 324.98
  Q 662.41 324.11 659.73 323.75
  C 654.76 323.09 650.55 322.00 645.21 321.67
  Q 644.20 321.60 637.13 320.91
  Q 627.25 319.94 613.50 320.71
  Q 587.25 322.20 560.44 330.21
  Q 546.75 334.29 535.87 339.44
  Q 524.29 344.92 512.83 352.02
  Q 486.98 368.02 468.82 389.82
  C 465.32 394.01 462.25 396.71 459.49 401.66
  A 5.13 5.03 78.1 0 1 459.03 402.38
  Q 452.19 411.46 449.82 416.32
  Q 444.66 426.89 442.92 431.17
  Q 440.85 436.26 438.35 446.02
  Q 435.30 457.88 436.71 471.05
  A 0.23 0.23 0.0 0 0 437.15 471.13
  C 441.34 462.92 446.92 452.47 454.30 443.30
  Q 468.91 425.17 488.84 410.37
  Q 511.63 393.44 536.79 384.89
  Q 553.16 379.34 566.78 377.72
  C 572.34 377.06 578.06 376.06 584.43 375.77
  C 598.49 375.14 612.12 375.45 624.90 378.30
  C 629.29 379.27 632.74 379.71 636.92 380.84
  Q 660.13 387.11 678.15 396.84
  Q 687.17 401.71 697.34 408.90
  Q 718.22 423.66 732.72 442.80
  Q 742.65 455.91 751.23 472.02
  Q 755.78 480.56 758.88 488.83
  Q 766.76 509.81 770.29 530.97
  C 771.40 537.62 771.89 544.02 772.77 551.07
  Q 773.76 558.95 772.90 573.49
  Q 771.97 589.31 769.76 602.12
  C 768.09 611.88 765.46 623.37 761.94 633.37
  Q 752.64 659.85 739.05 681.09
  Q 735.10 687.26 725.96 699.25
  Q 719.00 708.38 711.36 716.19
  Q 703.15 724.58 693.59 732.33
  Q 689.90 735.32 677.85 743.34
  Q 669.08 749.18 661.35 753.15
  Q 640.41 763.93 621.67 769.61
  Q 611.77 772.61 596.61 775.79
  Q 581.38 778.98 565.90 779.10
  Q 574.60 777.69 583.15 776.63
  Q 627.97 771.10 666.61 749.12
  Q 698.74 730.84 722.23 702.49
  C 749.12 670.03 766.23 630.71 770.58 588.62
  Q 771.91 575.74 771.93 562.16
  C 771.94 554.91 771.52 551.81 770.77 543.66
  Q 766.60 498.45 742.84 459.41
  C 732.60 442.59 720.06 427.95 704.36 415.43
  Q 674.39 391.53 636.40 381.89
  Q 620.66 377.90 606.79 377.03
  C 585.35 375.68 563.83 377.89 543.01 383.87
  Q 527.55 388.30 511.34 397.07
  C 484.34 411.68 459.89 433.20 444.11 459.83
  Q 440.08 466.64 437.69 473.01
  A 0.63 0.63 0.0 0 1 436.85 473.37
  Q 436.03 473.03 435.90 471.85
  C 435.03 464.21 434.91 457.98 436.18 450.75
  C 441.51 420.29 460.45 395.14 482.26 374.29
  Q 497.16 360.05 517.72 347.96
  Q 538.27 335.88 559.61 329.38
  Q 592.82 319.27 626.98 319.27
  Q 634.52 319.27 649.87 321.21
  C 694.41 326.85 734.20 349.98 764.78 382.73
  Q 787.11 406.65 806.17 436.81
  Q 813.49 448.40 819.70 458.53
  C 821.01 460.68 824.78 465.11 827.58 463.77
  C 830.33 462.45 829.24 455.85 828.77 453.25
  Q 826.81 442.36 824.57 432.67
  Q 813.29 383.74 787.41 341.65
  C 765.96 306.76 735.52 277.96 698.56 261.14
  C 650.46 239.25 592.07 238.76 543.18 256.95
  Q 521.10 265.17 500.71 278.62
  Q 480.32 292.06 463.75 308.76
  Q 439.09 333.59 423.26 365.27
  Q 402.58 406.63 401.80 452.28
  Q 401.53 467.81 404.00 480.53
  C 407.25 497.23 412.82 513.68 422.16 527.74
  C 432.24 542.91 443.64 554.63 459.58 563.21
  Q 486.62 577.75 517.25 571.14
  Q 527.58 568.90 540.89 563.72
  C 542.54 563.08 544.53 562.60 546.35 562.03
  A 0.31 0.31 0.0 0 1 546.68 562.53
  Q 526.71 585.00 498.35 595.08
  Q 487.58 598.90 473.76 599.68
  C 452.23 600.90 433.49 593.27 417.17 578.79
  Q 402.87 566.11 391.42 548.55
  C 374.01 521.86 363.30 491.02 359.08 459.28
  Q 356.25 438.01 357.84 414.65
  Q 360.14 380.88 370.24 350.73
  C 383.02 312.61 403.63 277.47 431.90 248.65
  Q 449.31 230.91 468.28 217.30
  Q 480.61 208.45 496.32 198.83
  Q 497.68 198.00 500.18 195.44
  Z"
/>
</svg>
