<?xml version="1.0" encoding="utf-8"?>
<!-- Generator: Adobe Illustrator 25.2.0, SVG Export Plug-In . SVG Version: 6.00 Build 0)  -->
<svg version="1.1" id="Слой_1" xmlns="http://www.w3.org/2000/svg" xmlns:xlink="http://www.w3.org/1999/xlink" x="0px" y="0px"
	 viewBox="0 0 1093.3 1040" style="enable-background:new 0 0 1093.3 1040;" xml:space="preserve">
<style type="text/css">
	.st0{fill:url(#SVGID_1_);}
</style>
<linearGradient id="SVGID_1_" gradientUnits="userSpaceOnUse" x1="198.4708" y1="520" x2="991.1845" y2="520">
	<stop  offset="0" style="stop-color:#AEFBA5"/>
	<stop  offset="1" style="stop-color:#4994EA"/>
</linearGradient>
<path class="st0" d="M893.8,531.1c90.6,66.5,117.7,144.4,82.5,234.9c-30.7,79-92.2,115.2-174.5,117.9c-52.8,1.7-105.8,0.4-158.7,0.4
	c-72-0.1-88.3-11.9-113.1-84c-102.4,24-200.4,17.7-282.4-58.7c-32.3-30.1-51.1-67.2-48.9-116.1c30.5,0,59.2,0,88.1,0
	c26.4,83.4,120,122.1,243.3,75c5.1,11.6,10.3,23.2,15.3,35c16.6,39.2,44.4,60.1,88.6,59.1c52.9-1.2,105.8,0.7,158.7-0.3
	c66.3-1.3,110.7-42.2,111.3-100.4c0.5-58.3-42.7-99.5-109.5-101.6c-48.4-1.5-97-0.5-145.5-0.3c-82.4,0.3-100-13.2-120.4-98.1
	c-50.7,0-103.1,1.2-155.4-0.2c-122.9-3.4-197.2-102.2-166.3-220.1c17.4-66.5,66.7-111.3,138.6-116.4c61.2-4.3,123-0.9,183.8-0.9
	c35,85.8,43.2,91.2,134.4,91c38.2,0,76.4-0.2,114.6,0.6c75,1.6,129.4,35.4,157.9,105.7C963.2,421,951,480.4,893.8,531.1z M529,242.9
	c-51.1,0-99.5-0.9-147.8,0.3c-52.7,1.3-87.5,32.9-89,78.4c-1.6,47.8,33,82.8,86.8,85.4c36.7,1.8,73.5,2,110.2,0.2
	c27.9-1.3,45.4,4.2,54.6,35.1c11.6,38.7,41,58.8,83.7,57.7c47-1.2,94,0.5,141-0.3c54.9-0.9,91.1-33.3,91.7-80.4
	c0.6-48.4-36.7-82.7-93.2-84c-41.1-0.9-82.3-0.1-123.4,0C567.3,335.5,549.1,321.4,529,242.9z"/>
</svg>
