<svg width="550" height="550" viewBox="0 0 550 550" fill="none" xmlns="http://www.w3.org/2000/svg">
<circle cx="275" cy="275" r="259.5" fill="#14181B" stroke="url(#paint0_linear_420_19)" stroke-width="31"/>
<path d="M273.276 132.181C274.049 130.866 275.95 130.866 276.723 132.181L410.727 359.986C411.511 361.319 410.55 363 409.003 363H365.602C364.893 363 364.237 362.625 363.878 362.014L276.801 213.984C276.031 212.674 274.139 212.668 273.36 213.973L211.182 318.134C210.387 319.467 211.347 321.159 212.9 321.159H290.516C291.223 321.159 291.877 321.532 292.237 322.141L314.629 359.981C315.418 361.315 314.457 363 312.908 363H140.997C139.45 363 138.489 361.319 139.273 359.986L273.276 132.181Z" fill="url(#paint1_linear_420_19)"/>
<defs>
<linearGradient id="paint0_linear_420_19" x1="275" y1="-22.9982" x2="275" y2="571.041" gradientUnits="userSpaceOnUse">
<stop stop-color="#FF9796"/>
<stop offset="0.338542" stop-color="#DCEC79"/>
<stop offset="0.609375" stop-color="#54F8D0"/>
<stop offset="0.786458" stop-color="#67BEE5"/>
<stop offset="1" stop-color="#965CFD"/>
</linearGradient>
<linearGradient id="paint1_linear_420_19" x1="338.911" y1="231.284" x2="138.597" y2="365.447" gradientUnits="userSpaceOnUse">
<stop stop-color="#FF9595"/>
<stop offset="0.265625" stop-color="#FFEF5E"/>
<stop offset="0.515625" stop-color="#87FF4F"/>
<stop offset="0.770833" stop-color="#42FFDD"/>
<stop offset="1" stop-color="#9B4DFF"/>
</linearGradient>
</defs>
</svg>
