<?xml version="1.0" standalone="no"?>
<!DOCTYPE svg PUBLIC "-//W3C//DTD SVG 20010904//EN"
 "http://www.w3.org/TR/2001/REC-SVG-20010904/DTD/svg10.dtd">
<svg version="1.0" xmlns="http://www.w3.org/2000/svg"
 width="32.000000pt" height="32.000000pt" viewBox="0 0 32.000000 32.000000"
 preserveAspectRatio="xMidYMid meet">

<g transform="translate(0.000000,32.000000) scale(0.100000,-0.100000)"
fill="#000000" stroke="none">
<path d="M127 237 c-3 -9 -14 -17 -24 -17 -17 -1 -17 -1 0 -11 23 -13 25 -99
2 -99 -8 0 -15 -4 -15 -10 0 -5 9 -10 20 -10 11 0 20 -6 20 -12 0 -10 3 -9 9
1 7 11 9 11 14 0 4 -10 6 -10 6 -1 1 6 7 12 15 12 24 0 66 41 66 64 0 33 -28
66 -56 66 -16 0 -24 6 -24 18 0 13 -2 14 -9 3 -7 -11 -9 -11 -13 0 -3 9 -6 8
-11 -4z m68 -47 c26 -29 10 -74 -28 -78 -26 -3 -27 -1 -27 41 0 62 20 75 55
37z"/>
</g>
</svg>
