<?xml version="1.0" encoding="iso-8859-1"?>
<!-- Generator: Adobe Illustrator 25.2.3, SVG Export Plug-In . SVG Version: 6.00 Build 0)  -->
<svg version="1.1" id="Layer_1" xmlns="http://www.w3.org/2000/svg" xmlns:xlink="http://www.w3.org/1999/xlink" x="0px" y="0px"
	 viewBox="0 0 592.432 592.432" style="enable-background:new 0 0 592.432 592.432;" xml:space="preserve">
<g>
	<circle style="fill:#4400FF;" cx="296.216" cy="296.216" r="296.216"/>
	<g>
		<path style="fill:#FFFFFF;" d="M119.276,308.026h32.528L134.65,279.23c-1.444-2.416-0.619-4.52,0-5.56
			c0.614-1.039,2.084-2.78,4.966-2.78h61.36c12.261,0,23.237-6.138,29.37-16.428c2.913-4.894,4.428-10.239,4.566-15.609
			c0.159-5.913-1.357-11.856-4.566-17.247l-44.82-75.218l-16.264,27.301l36.685,61.565c0.799,1.341,0.901,2.58,0.727,3.599
			c-0.133,0.819-0.451,1.5-0.727,1.961c-0.619,1.039-2.089,2.78-4.971,2.78h-61.36c-12.261,0-23.237,6.143-29.364,16.428
			c-6.128,10.285-6.128,22.566,0,32.856L119.276,308.026z"/>
		<path style="fill:#FFFFFF;" d="M234.567,423.306h-34.315c-2.882,0-4.351-1.741-4.966-2.78c-0.619-1.039-1.444-3.138,0-5.56
			l30.68-51.49c6.128-10.29,6.128-22.571,0-32.856c-6.128-10.29-17.109-16.428-29.364-16.428h-89.634l16.264,27.296h73.37
			c2.877,0,4.346,1.741,4.966,2.78c0.619,1.034,1.439,3.138,0,5.554l-30.68,51.495c-6.133,10.29-6.133,22.571,0,32.856
			c6.128,10.29,17.104,16.433,29.364,16.433h18.051L234.567,423.306z"/>
		<path style="fill:#FFFFFF;" d="M361.819,440.293c-1.439,2.416-3.732,2.78-4.966,2.78c-1.239,0-3.527-0.363-4.971-2.78
			l-30.68-51.495c-6.128-10.285-17.104-16.428-29.364-16.428c-12.256,0-23.237,6.143-29.364,16.428l-44.815,75.218h32.528
			l36.685-61.565c1.439-2.421,3.732-2.785,4.966-2.785c1.239,0,3.527,0.363,4.966,2.785l30.68,51.49
			c6.133,10.29,17.109,16.428,29.37,16.428c12.256,0,23.231-6.138,29.364-16.428l9.025-15.148l-16.264-27.296L361.819,440.293z"/>
		<path style="fill:#FFFFFF;" d="M482.182,299.553l-9.025-15.148h-32.533l17.16,28.801c1.444,2.416,0.619,4.515,0,5.554
			c-0.619,1.039-2.084,2.78-4.966,2.78h-61.365c-12.256,0-23.232,6.143-29.364,16.428c-6.128,10.285-6.128,22.571,0,32.856
			l44.82,75.218l16.264-27.301l-36.685-61.565c-1.439-2.416-0.619-4.52,0-5.56c0.619-1.034,2.089-2.78,4.966-2.78h0.005h61.36
			c12.256,0,23.237-6.138,29.364-16.428C488.309,322.124,488.309,309.843,482.182,299.553"/>
		<path style="fill:#FFFFFF;" d="M357.865,169.126h34.315c2.882,0,4.351,1.741,4.966,2.78c0.619,1.039,1.444,3.138,0,5.56
			l-30.68,51.49c-6.128,10.29-6.128,22.571,0,32.856c6.128,10.29,17.109,16.428,29.364,16.428h89.634L469.2,250.944h-73.37
			c-2.877,0-4.346-1.741-4.966-2.78c-0.619-1.039-1.439-3.138,0-5.554l30.68-51.495c6.133-10.29,6.133-22.571,0-32.856
			c-6.128-10.29-17.104-16.433-29.364-16.433h-18.05L357.865,169.126z"/>
		<path style="fill:#FFFFFF;" d="M230.614,152.14c1.439-2.416,3.732-2.78,4.966-2.78c1.239,0,3.527,0.364,4.971,2.78l30.68,51.49
			c6.128,10.29,17.104,16.433,29.364,16.433c12.256,0,23.237-6.143,29.364-16.433l44.815-75.213h-32.528l-36.685,61.565
			c-1.439,2.421-3.732,2.78-4.966,2.78c-1.239,0-3.527-0.358-4.966-2.78l-30.68-51.49c-6.133-10.29-17.109-16.428-29.37-16.428
			c-12.256,0-23.231,6.138-29.364,16.428l-9.025,15.148l16.264,27.296L230.614,152.14z"/>
	</g>
</g>
</svg>
