<svg xmlns="http://www.w3.org/2000/svg" viewBox="0 0 54 54"><defs><style>.cls-1{fill:#734f3f;}.cls-2{fill:#352a2d;}.cls-3{fill:#ffc600;}.cls-4{fill:#ebd6d2;}</style></defs><title>main_coon_logo</title><g id="Layer_2" data-name="Layer 2"><circle class="cls-1" cx="27" cy="27" r="27"/><path class="cls-2" d="M39.08,34.48l-1.43-1.9s-2.32,5.61-4,7.89l-2-1.75-4.31,7.72L23,39.23,21.57,41C19,38.45,15.2,31.42,15.2,31.42L14,34a7.44,7.44,0,0,1-.85-3.51,13.19,13.19,0,0,1,.8-5.08l-1.86.75a15,15,0,0,1,2.77-4.82l-2.21.31c1-2.06,5.81-5.65,5.81-5.65s-.46,0-.57-.55c-.63-3.09-.59-6.2-.2-6.47s2.49.79,5,2.78a2.05,2.05,0,0,1,.93,1.63,1.7,1.7,0,0,1,0,.22,2.61,2.61,0,0,1-.38,1,5.83,5.83,0,0,1-1.49,1.54c-.77.57-2.76,0-2.76,0s-.2,2.55,3.68,3c2.31.29,2.38,2.62,2.44,3.86,0,0-.15-1.94-1.05-1.86a1.87,1.87,0,0,1-1.73-1,1.18,1.18,0,0,0-.68-.47h0a4.76,4.76,0,0,0-3.79.47c-1.76,1.14-2.62,4.33-2.62,4.33s4.46-2.08,6-.25a8.07,8.07,0,0,1,1,2.39h0c.27,1,1.73,1.07,2.68,1a5.09,5.09,0,0,0,1.65-.45,1,1,0,0,1,.88,0,5.09,5.09,0,0,0,1.65.45c.95.05,2.41-.05,2.68-1h0a8.07,8.07,0,0,1,1-2.39c1.54-1.83,6,.25,6,.25s-.86-3.19-2.62-4.33a4.76,4.76,0,0,0-3.79-.47h0a1.18,1.18,0,0,0-.68.47,1.87,1.87,0,0,1-1.73,1c-.82-.07-1,1.53-1.05,1.81.06-1.24.16-3.53,2.44-3.81,3.88-.48,3.68-3,3.68-3s-2,.56-2.76,0a5.83,5.83,0,0,1-1.49-1.54,2.61,2.61,0,0,1-.38-1,1.7,1.7,0,0,1,0-.22,2.05,2.05,0,0,1,.93-1.63c2.55-2,4.65-3,5-2.78s.43,3.38-.2,6.47c-.11.53-.56.45-.57.55s4.78,3.59,5.81,5.65l-2.69-.78a32.41,32.41,0,0,1,3.22,5.45l-1.71-.73S41.46,30.38,39.08,34.48Z"/><path class="cls-3" d="M30.64,19.78a.76.76,0,0,1-.24.67.85.85,0,0,1-.22-.39,2.79,2.79,0,0,0-.44.47.87.87,0,0,0,.58.22.85.85,0,0,0,.84-.84.94.94,0,0,0-.05-.3A2.87,2.87,0,0,0,30.64,19.78Z"/><path class="cls-3" d="M23.82,20.06a.85.85,0,0,1-.22.39.76.76,0,0,1-.24-.67,2.87,2.87,0,0,0-.47-.17.94.94,0,0,0-.05.3.85.85,0,0,0,.84.84.83.83,0,0,0,.57-.22A2.38,2.38,0,0,0,23.82,20.06Z"/><path class="cls-4" d="M26.57,27.72a6,6,0,0,1-2.66.39S24.7,30.8,27,30.8s3.09-2.69,3.09-2.69a6,6,0,0,1-2.66-.39A1,1,0,0,0,26.57,27.72Z"/><path class="cls-4" d="M36.07,16.45v0Z"/><path class="cls-4" d="M44,28.77a14,14,0,0,0-2.75-6.23l2.37.64C41.63,19,37,15.86,37,15.86s1.26-2.76.65-9.08a.32.32,0,0,0-.48-.25C36.34,7,31.5,10.64,27,10.64S17.66,7,16.81,6.53a.32.32,0,0,0-.48.25c-.61,6.32.65,9.08.65,9.08S12.37,19,10.42,23.18l2.15-.44a13.47,13.47,0,0,0-2.53,6l1.81-.91S9.91,33,14.26,38.3l1.07-2.94a57.5,57.5,0,0,0,6.1,10L23,43.62c1.29,1.36,4.07,7.9,4.07,7.9S31,44.9,32,42.55l1.64,1.39a49.39,49.39,0,0,0,4.45-7.39l.52,1.75a12.66,12.66,0,0,0,3.32-10.78ZM25.25,24.88c.08-.33,1.05-.11,1.75-.11s1.67-.22,1.75.11-.42.48-.85.76l-.74.49a.31.31,0,0,1-.32,0l-.74-.49C25.67,25.36,25.2,25.09,25.25,24.88Zm13.83,9.6-1.43-1.9s-2.32,5.61-4,7.89l-2-1.75-4.31,7.72L23,39.23,21.57,41C19,38.45,15.2,31.42,15.2,31.42L14,34a7.44,7.44,0,0,1-.85-3.51,13.19,13.19,0,0,1,.8-5.08l-1.86.75a15,15,0,0,1,2.77-4.82l-2.21.31c1-2.06,5.81-5.65,5.81-5.65s-.46,0-.57-.55c-.63-3.09-.59-6.2-.2-6.47s2.49.79,5,2.78a2.05,2.05,0,0,1,.93,1.63,1.7,1.7,0,0,1,0,.22,2.61,2.61,0,0,1-.38,1,5.83,5.83,0,0,1-1.49,1.54c-.77.57-2.76,0-2.76,0s-.2,2.55,3.68,3c2.31.29,2.38,2.62,2.44,3.86,0,0-.15-1.94-1.05-1.86a1.87,1.87,0,0,1-1.73-1,1.18,1.18,0,0,0-.68-.47h0a4.76,4.76,0,0,0-3.79.47c-1.76,1.14-2.62,4.33-2.62,4.33s4.46-2.08,6-.25a8.07,8.07,0,0,1,1,2.39h0c.27,1,1.73,1.07,2.68,1a5.09,5.09,0,0,0,1.65-.45,1,1,0,0,1,.88,0,5.09,5.09,0,0,0,1.65.45c.95.05,2.41-.05,2.68-1h0a8.07,8.07,0,0,1,1-2.39c1.54-1.83,6,.25,6,.25s-.86-3.19-2.62-4.33a4.76,4.76,0,0,0-3.79-.47h0a1.18,1.18,0,0,0-.68.47,1.87,1.87,0,0,1-1.73,1c-.82-.07-1,1.53-1.05,1.81.06-1.24.16-3.53,2.44-3.81,3.88-.48,3.68-3,3.68-3s-2,.56-2.76,0a5.83,5.83,0,0,1-1.49-1.54,2.61,2.61,0,0,1-.38-1,1.7,1.7,0,0,1,0-.22,2.05,2.05,0,0,1,.93-1.63c2.55-2,4.65-3,5-2.78s.43,3.38-.2,6.47c-.11.53-.56.45-.57.55s4.78,3.59,5.81,5.65l-2.69-.78a32.41,32.41,0,0,1,3.22,5.45l-1.71-.73S41.46,30.38,39.08,34.48Z"/><path class="cls-4" d="M22.56,27.73l.34,1.45a.14.14,0,0,0,.26,0l.44-1.14A3,3,0,0,1,22.56,27.73Z"/><path class="cls-4" d="M31.44,27.73l-.35,1.45a.13.13,0,0,1-.25,0l-.44-1.14A3,3,0,0,0,31.44,27.73Z"/><polygon class="cls-4" points="27 39.39 30.76 34.41 32.9 34.85 36.2 29.56 32 32.52 29.63 32.03 27 35.72 24.37 32.03 22 32.52 17.8 29.56 21.1 34.85 23.24 34.41 27 39.39"/></g></svg>