<?xml version="1.0" encoding="utf-8"?>
<!-- Generator: Adobe Illustrator 23.1.1, SVG Export Plug-In . SVG Version: 6.00 Build 0)  -->
<svg version="1.1" id="Layer_1" xmlns="http://www.w3.org/2000/svg" xmlns:xlink="http://www.w3.org/1999/xlink" x="0px" y="0px"
	 viewBox="0 0 293.7 310" style="enable-background:new 0 0 293.7 310;" xml:space="preserve">
<style type="text/css">
	.st0{fill:url(#SVGID_1_);}
	.st1{fill:url(#SVGID_2_);}
	.st2{fill:url(#SVGID_3_);}
	.st3{fill:url(#SVGID_4_);}
	.st4{fill:url(#SVGID_5_);}
</style>
<g>
	
		<linearGradient id="SVGID_1_" gradientUnits="userSpaceOnUse" x1="169.2686" y1="67.8215" x2="293.7088" y2="67.8215" gradientTransform="matrix(1 0 0 -1 0 311.9563)">
		<stop  offset="1.887480e-07" style="stop-color:#92FFC0"/>
		<stop  offset="1" style="stop-color:#4CA0A2"/>
	</linearGradient>
	<path class="st0" d="M276.1,190.5c21.1,18.1,23.6,49.9,5.5,71.1c-1.7,2-3.6,3.9-5.5,5.5l-2.8,2.4c-13.6,11.5-28.9,20.8-45.1,27.5
		c-16.2,6.7-33.3,10.9-50.5,12.3c-2.8,0.2-5.6,0.4-8.3,0.5c22.9-20.9,37.3-51,37.3-84.4c0-9.5-1.1-18.7-3.3-27.4
		c0.6-0.6,1.2-1.3,1.7-1.9C223.1,174.9,254.9,172.4,276.1,190.5z"/>
	
		<linearGradient id="SVGID_2_" gradientUnits="userSpaceOnUse" x1="107.5085" y1="268.2561" x2="270.3273" y2="268.2561" gradientTransform="matrix(1 0 0 -1 0 311.9563)">
		<stop  offset="0" style="stop-color:#4CA0A2"/>
		<stop  offset="1" style="stop-color:#92FFC0"/>
	</linearGradient>
	<path class="st1" d="M269.2,72.5c2.6,4.9,0.7,11.1-4.2,13.7c-4.5,2.4-10.1,1-13-3.1l-0.1-0.1c-13.5-19-32.6-33.2-53.7-40.5
		c-13.1-4.6-26.9-6.4-40.4-5.7c-13.9-14.1-31-25-50.2-31.3c6-1.7,12.1-3,18.2-4c14.5-2.2,29.3-2.1,43.6,0.1c7.1,1.2,14.2,2.8,21,5
		c6.8,2.2,13.5,5,19.8,8.2C235.7,27.6,256.4,48.3,269.2,72.5z"/>
	
		<linearGradient id="SVGID_3_" gradientUnits="userSpaceOnUse" x1="31.8786" y1="57.9924" x2="206.6086" y2="57.9924" gradientTransform="matrix(1 0 0 -1 0 311.9563)">
		<stop  offset="0" style="stop-color:#00BECF"/>
		<stop  offset="1" style="stop-color:#92FFC0"/>
	</linearGradient>
	<path class="st2" d="M203.3,198c2.2,8.8,3.3,18,3.3,27.4c0,33.5-14.4,63.6-37.3,84.4c-14.4,0.5-28.8-0.8-42.8-3.9
		c-16.6-3.7-32.6-10.1-47.1-18.5c-3.7-2.1-7.1-4.4-10.6-6.8c-3.4-2.5-6.8-4.9-10-7.6c-3.3-2.6-6.3-5.4-9.4-8.2c-3-2.9-5.9-5.9-8.6-9
		c-3.1-3.5-6.1-7.1-8.9-10.8c11.5,3.5,23.6,5.3,36.2,5.3c30.1,0,57.8-10.6,79.4-28.3c6.1,0,12.1-0.8,17.9-2.2
		C180.4,216.3,193.6,208.5,203.3,198z"/>
	
		<linearGradient id="SVGID_4_" gradientUnits="userSpaceOnUse" x1="-8.6719" y1="162.5787" x2="130.7722" y2="302.0229" gradientTransform="matrix(1 0 0 -1 0 311.9563)">
		<stop  offset="1.887480e-07" style="stop-color:#F252ED"/>
		<stop  offset="1" style="stop-color:#4CA0A2"/>
	</linearGradient>
	<path class="st3" d="M107.5,5.6c19.2,6.3,36.4,17.2,50.2,31.3c-8.1,0.4-16.1,1.8-23.7,4.1c-20.5,6-38.6,18.1-51.1,34
		c-9.4,11.8-15.8,25.6-18.7,39.9c-26.1,6.7-48.6,22.3-64,43.4c-0.7-12.4,0.1-24.9,2.4-37.1c5.8-31.1,21.5-59.6,43.6-80.6
		C63.8,23.9,85,12,107.5,5.6z"/>
	
		<linearGradient id="SVGID_5_" gradientUnits="userSpaceOnUse" x1="0.2386" y1="129.3082" x2="147.5586" y2="129.3082" gradientTransform="matrix(1 0 0 -1 0 311.9563)">
		<stop  offset="0" style="stop-color:#511280"/>
		<stop  offset="1" style="stop-color:#81FFEF"/>
	</linearGradient>
	<path class="st4" d="M116.4,216.3c10.1,4,20.7,5.9,31.1,5.8c-21.6,17.7-49.3,28.3-79.4,28.3c-12.6,0-24.8-1.9-36.2-5.3
		c-7.1-9.4-13-19.6-17.8-30.2c-8.1-18-12.8-37.3-13.8-56.6c15.4-21.1,37.9-36.8,64-43.4c-1,4.8-1.6,9.6-1.8,14.4
		c-0.9,19.1,4.3,38.1,14.1,53.6C86.4,198.3,100.5,209.9,116.4,216.3z"/>
</g>
</svg>
