<svg width="24" height="24" viewBox="0 0 24 24" fill="none" xmlns="http://www.w3.org/2000/svg">
<circle cx="12" cy="12" r="11.75" fill="white" stroke="black" stroke-width="0.5"/>
<mask id="mask0" mask-type="alpha" maskUnits="userSpaceOnUse" x="0" y="0" width="24" height="24">
<circle cx="12" cy="12" r="12" fill="#F7931A"/>
</mask>
<g mask="url(#mask0)">
<rect y="10.5" width="24" height="3" fill="#2DD6A0"/>
<rect x="-0.25" y="8.25" width="24.5" height="2.5" fill="#62DDF9" stroke="black" stroke-width="0.5"/>
<rect x="-0.25" y="13.25" width="24.5" height="2.5" fill="#BF88FF" stroke="black" stroke-width="0.5"/>
</g>
<circle cx="12" cy="12" r="10" fill="#F7931A"/>
<path d="M16.4237 10.5719C16.6228 9.24101 15.6095 8.52559 14.2239 8.04833L14.6734 6.24546L13.576 5.972L13.1384 7.7274C12.8499 7.65544 12.5536 7.58764 12.2591 7.52042L12.6999 5.75344L11.6031 5.47998L11.1534 7.28226C10.9146 7.2279 10.6801 7.17417 10.4526 7.11757L10.4539 7.11189L8.94044 6.73397L8.6485 7.90612C8.6485 7.90612 9.46273 8.09276 9.44557 8.10425C9.88998 8.21517 9.97034 8.50936 9.957 8.74254L9.44498 10.7964C9.47558 10.8042 9.51528 10.8154 9.55908 10.833C9.52246 10.8239 9.4835 10.814 9.44307 10.8043L8.7254 13.6815C8.67109 13.8166 8.53323 14.0192 8.22252 13.9422C8.23352 13.9582 7.42487 13.7432 7.42487 13.7432L6.88 14.9994L8.30817 15.3555C8.57386 15.4221 8.83422 15.4918 9.09062 15.5573L8.63648 17.3809L9.73267 17.6543L10.1824 15.8502C10.4819 15.9315 10.7725 16.0064 11.057 16.0771L10.6088 17.8728L11.7063 18.1463L12.1604 16.3262C14.0318 16.6803 15.4389 16.5375 16.0312 14.8449C16.5085 13.482 16.0074 12.696 15.0229 12.1834C15.74 12.018 16.2801 11.5464 16.4241 10.5721L16.4238 10.5718L16.4237 10.5719ZM13.9163 14.088C13.5771 15.4508 11.2826 14.7141 10.5387 14.5294L11.1413 12.1135C11.8852 12.2992 14.2708 12.6667 13.9164 14.088H13.9163ZM14.2557 10.5522C13.9463 11.7918 12.0365 11.162 11.417 11.0076L11.9634 8.81655C12.5829 8.97098 14.578 9.2592 14.2558 10.5522H14.2557Z" fill="white"/>
</svg>
