<svg width="32" height="32" viewBox="0 0 32 32" fill="none" xmlns="http://www.w3.org/2000/svg">
  <path d="M29.1826 18.4845C29.1826 25.647 22.7908 31.4534 15.5905 31.4534C8.39022 31.4534 2.55322 25.647 2.55322 18.4845C2.55322 11.322 8.39022 5.51562 15.5905 5.51562C22.7908 5.51562 29.1826 11.322 29.1826 18.4845Z" fill="url(#paint0_linear_288_7259)"/>
  <path fill-rule="evenodd" clip-rule="evenodd" d="M19.8351 7.15463L19.8407 7.19021C19.8967 7.4658 19.7847 7.75516 19.4768 7.86539C19.2249 7.93429 18.861 7.76894 18.819 7.49336L18.819 7.49304C18.7678 7.17075 18.7167 6.84845 18.6601 6.5275C18.4004 6.45988 18.1395 6.41121 17.8677 6.36255C17.7932 6.34788 17.7147 6.33711 17.6343 6.32609L17.6343 6.32608L17.6343 6.32608L17.6343 6.32608L17.6343 6.32608C17.5637 6.31641 17.4918 6.30654 17.4198 6.29366C17.3988 6.29366 17.3814 6.29021 17.3639 6.28677C17.3464 6.28332 17.3289 6.27988 17.3079 6.27988C17.2729 6.27299 17.2379 6.26954 17.2029 6.2661C17.1679 6.26265 17.1329 6.25921 17.0979 6.25232C16.5101 6.1972 15.9083 6.16964 15.3205 6.1972C15.0266 6.21098 14.7327 6.23854 14.4528 6.2661C14.4333 6.2661 14.4108 6.26907 14.3867 6.27225C14.3589 6.27592 14.3289 6.27988 14.2989 6.27988C14.2485 6.28814 14.3039 6.27658 14.3261 6.27194L14.3344 6.27018L14.2849 6.27988C14.2555 6.28711 14.2222 6.29055 14.1872 6.29417L14.1872 6.29417C14.1554 6.29745 14.1222 6.30089 14.0889 6.30744L13.7677 6.37069C13.7288 6.3926 13.6864 6.40875 13.6411 6.41767C12.9553 6.55546 12.2975 6.73459 11.6397 6.95506C11.3178 7.06529 10.9959 7.1893 10.674 7.31332C10.4361 7.39599 10.1002 7.54756 9.79234 7.69913C9.17654 7.9885 8.57473 8.33298 8.00092 8.71879C7.44111 9.10461 6.96526 9.47665 6.44743 9.9727C6.19551 10.2207 5.95759 10.4687 5.73366 10.7306C5.66369 10.7994 5.59371 10.8821 5.53773 10.951C5.52373 10.9648 5.51324 10.9786 5.50274 10.9924C5.49224 11.0061 5.48175 11.0199 5.46775 11.0337C5.40897 11.1081 5.44591 11.0635 5.4607 11.0456C5.47055 11.0337 5.47055 11.0337 5.42576 11.0888C5.35082 11.1837 5.28407 11.2785 5.21298 11.3796L5.21293 11.3796C5.1911 11.4107 5.16887 11.4423 5.14586 11.4746C3.43841 13.9135 2.79462 16.945 3.13051 19.8799C3.13051 19.9075 3.13401 19.9316 3.13751 19.9557C3.14101 19.9798 3.14451 20.0039 3.14451 20.0315L3.15851 20.1142C3.14451 20.0453 3.1725 20.1968 3.1725 20.1968C3.1725 20.2106 3.176 20.2279 3.1795 20.2451C3.183 20.2623 3.1865 20.2795 3.1865 20.2933C3.20049 20.3691 3.21449 20.4483 3.22848 20.5275C3.24248 20.6068 3.25647 20.686 3.27047 20.7618C3.34045 21.0787 3.41042 21.3956 3.4944 21.7126C3.66234 22.3326 3.88627 22.9527 4.13819 23.559C4.1313 23.5386 4.12865 23.5308 4.12877 23.5308L4.13191 23.5387C4.1393 23.5579 4.15778 23.6058 4.16618 23.6141C4.18017 23.6554 4.19417 23.683 4.20816 23.7105C4.22543 23.7445 4.24033 23.7785 4.25481 23.8116C4.27554 23.8589 4.29541 23.9042 4.32013 23.9448C4.3761 24.0688 4.44606 24.2066 4.51603 24.3443L4.51606 24.3444C4.65602 24.6337 4.82396 24.9231 4.99191 25.1987C5.15985 25.4743 5.3278 25.7499 5.52373 26.0117C5.57272 26.0806 5.62171 26.146 5.67069 26.2115C5.71967 26.2769 5.76866 26.3424 5.81764 26.4113C5.88761 26.4939 5.84563 26.4388 5.83163 26.425C5.87362 26.4526 5.90161 26.4939 5.9296 26.5353C5.95059 26.5628 5.97159 26.5869 5.99258 26.6111C6.01357 26.6352 6.03456 26.6593 6.05556 26.6868C6.47542 27.1829 6.92327 27.6514 7.41311 28.0785C7.47606 28.1336 7.53901 28.1853 7.60196 28.2369L7.60199 28.2369L7.60201 28.237L7.60203 28.237L7.60205 28.237C7.66503 28.2887 7.72801 28.3403 7.79099 28.3955C7.82589 28.4229 7.85731 28.447 7.88872 28.4711L7.88895 28.4712C7.92044 28.4954 7.95194 28.5195 7.98693 28.547L8.00795 28.5644C8.03559 28.579 8.07316 28.6044 8.09889 28.6297C8.3648 28.8226 8.63072 29.0017 8.91062 29.1671C9.17654 29.3324 9.45645 29.484 9.73635 29.6218C9.81325 29.6562 9.89363 29.6941 9.97402 29.7319L9.97427 29.732L9.9743 29.732L9.97448 29.7321L9.97459 29.7322C10.055 29.77 10.1353 29.8079 10.2122 29.8423C10.2402 29.8698 10.2822 29.8836 10.3242 29.8974C10.3282 29.8974 10.3383 29.8997 10.3483 29.9024C10.4278 29.941 10.4955 29.9674 10.5761 29.9938C11.1499 30.2143 11.7377 30.3934 12.3255 30.5312C12.6334 30.6001 12.9413 30.669 13.2632 30.7241C13.4172 30.7517 13.5851 30.7793 13.753 30.8068C13.865 30.8206 13.795 30.8068 13.767 30.8068C13.795 30.8068 13.8195 30.8103 13.844 30.8137C13.8685 30.8172 13.893 30.8206 13.921 30.8206C13.9504 30.8278 13.9836 30.8313 14.0187 30.8349H14.0187C14.0504 30.8382 14.0837 30.8416 14.1169 30.8482C14.7747 30.917 15.4465 30.9446 16.1183 30.9446C16.4542 30.9446 16.79 30.9308 17.1259 30.9033L17.6718 30.8619C17.7067 30.855 17.7417 30.8516 17.7767 30.8482C17.8117 30.8447 17.8467 30.8413 17.8817 30.8344C17.9027 30.8344 17.9237 30.8309 17.9447 30.8275L17.9447 30.8275C17.9657 30.824 17.9867 30.8206 18.0077 30.8206C18.0195 30.8206 18.0463 30.8181 18.066 30.8163C18.0928 30.8139 18.1062 30.8126 18.0496 30.8206C18.7074 30.7379 19.3512 30.6001 19.995 30.421C20.3029 30.3383 20.6108 30.2419 20.9047 30.1316C20.9467 30.1179 20.9887 30.1006 21.0307 30.0834C21.0727 30.0662 21.1146 30.049 21.1566 30.0352C21.1753 30.026 21.2689 29.9861 21.2998 29.9729L21.3098 29.9686L21.2826 29.9801C21.3526 29.9456 21.4225 29.9146 21.4925 29.8836C21.5625 29.8526 21.6325 29.8216 21.7024 29.7872C22.2623 29.5254 22.7941 29.2084 23.2839 28.8502C23.2909 28.8433 23.3014 28.8364 23.3119 28.8295C23.3224 28.8226 23.3329 28.8157 23.3399 28.8088C23.3819 28.7675 23.4099 28.7399 23.4519 28.7124C23.5079 28.6573 23.5778 28.6021 23.6478 28.547C23.7178 28.485 23.7843 28.423 23.8508 28.361L23.8509 28.3609C23.9173 28.2989 23.9837 28.237 24.0537 28.175C24.3196 27.927 24.5855 27.6652 24.8234 27.3896C24.9493 27.2518 25.0753 27.1003 25.2012 26.9488L25.2012 26.9488L25.2012 26.9487L25.2012 26.9487L25.2012 26.9487L25.2013 26.9486C25.3133 26.8109 25.3692 26.742 25.4952 26.5766C25.7191 26.2735 25.9431 25.9565 26.139 25.6396C26.9927 24.303 27.6505 22.9113 28.0984 21.4232C28.5322 19.9902 28.7561 18.5709 28.6582 17.0828L28.6162 16.628C28.6162 16.6074 28.6127 16.5901 28.6092 16.5729L28.6092 16.5729C28.6057 16.5557 28.6022 16.5385 28.6022 16.5178C28.6022 16.5134 28.6018 16.5072 28.6013 16.5004C28.5945 16.4723 28.5912 16.4409 28.5877 16.4078C28.5843 16.3766 28.5808 16.3438 28.5742 16.3111L28.5742 16.3109C28.5182 16.0216 28.4622 15.7323 28.3923 15.4568C28.3223 15.1812 28.2383 14.9056 28.1543 14.6438C28.1213 14.5246 28.0796 14.4138 28.036 14.2982L28.036 14.2981C28.0242 14.2668 28.0123 14.2352 28.0004 14.2029C27.9864 14.1478 27.9584 14.0789 27.9304 14.0238C27.9234 14.01 27.9164 13.9928 27.9094 13.9756C27.9024 13.9583 27.8954 13.9411 27.8884 13.9273C27.8632 13.8777 27.8834 13.9323 27.8914 13.9541C27.8968 13.9687 27.8968 13.9687 27.8744 13.9135C27.6365 13.3899 27.3706 12.8801 27.0627 12.3978C26.9087 12.1498 26.7408 11.9018 26.5728 11.6675C26.5332 11.6285 26.5006 11.5825 26.47 11.5394L26.4699 11.5394C26.4606 11.5262 26.4514 11.5134 26.4423 11.501L26.4329 11.4884C26.4189 11.4678 26.4049 11.4505 26.3909 11.4333L26.3909 11.4333L26.3909 11.4332C26.3769 11.416 26.3629 11.3988 26.3489 11.3782C26.3069 11.3231 26.265 11.2714 26.223 11.2198L26.223 11.2197C26.181 11.168 26.139 11.1164 26.097 11.0613C25.7191 10.6065 25.2993 10.1794 24.8654 9.77979C24.6415 9.58688 24.4176 9.39397 24.1796 9.20106C24.1317 9.17276 24.0904 9.138 24.0466 9.1012C24.0264 9.08426 24.0058 9.06687 23.9837 9.04949C23.9627 9.03571 23.9452 9.02193 23.9277 9.00816C23.9102 8.99438 23.8927 8.9806 23.8717 8.96682L23.5358 8.71879C23.046 8.37431 22.5282 8.05739 21.9963 7.78181C21.7444 7.64402 21.4785 7.52 21.2126 7.39599L21.2126 7.39597C21.0726 7.32708 20.9327 7.25819 20.7927 7.20308L20.7661 7.18975L20.7647 7.1893C20.7438 7.18242 20.7263 7.17553 20.7088 7.16864C20.6913 7.16175 20.6738 7.15486 20.6528 7.14797C20.5988 7.13733 20.5531 7.11848 20.5029 7.09776C20.488 7.09164 20.4728 7.08535 20.4568 7.07907C20.3467 7.03842 20.2366 6.99884 20.1264 6.96042L20.1083 6.96931C20.0165 7.0145 19.9154 7.0359 19.8159 7.03285L19.8351 7.15463ZM10.3483 29.9024L10.3382 29.8974L10.3389 29.8976C10.3657 29.9064 10.375 29.9095 10.375 29.9096L10.3679 29.9077L10.3483 29.9024ZM20.4441 5.48116L20.4441 5.48114L20.4442 5.48113L20.4442 5.48111L20.4442 5.48109C20.5421 5.28818 20.6541 5.09527 20.7801 4.91614C20.7941 4.89547 20.8116 4.87136 20.829 4.84725C20.8465 4.82313 20.864 4.79902 20.878 4.77835L20.8962 4.75434L20.892 4.7594C20.885 4.76801 20.871 4.78524 20.864 4.79213C20.871 4.78524 20.878 4.77491 20.885 4.76457C20.892 4.75424 20.899 4.7439 20.906 4.73702L20.9061 4.73694C20.976 4.65429 21.046 4.57164 21.1299 4.48899C21.1999 4.42009 21.2699 4.3512 21.3539 4.2823C21.3749 4.26163 21.3959 4.24441 21.4169 4.22718C21.4332 4.21378 21.4495 4.20038 21.4659 4.18535L21.4658 4.18585C21.4938 4.17207 21.5218 4.14451 21.5358 4.13073C21.7178 4.00672 21.8997 3.91026 22.0956 3.81381C22.1096 3.80692 22.1201 3.80348 22.1306 3.80003C22.1411 3.79659 22.1516 3.79314 22.1656 3.78625C22.1866 3.77937 22.2111 3.77248 22.2356 3.76559L22.2356 3.76558C22.2601 3.75869 22.2846 3.7518 22.3056 3.74491C22.4175 3.70358 22.5295 3.67602 22.6415 3.66224C22.6555 3.66224 22.6729 3.65879 22.6904 3.65535C22.7079 3.65191 22.7254 3.64846 22.7394 3.64846C22.7394 3.64846 22.8234 3.63468 22.7674 3.64846C22.7114 3.66224 22.7954 3.64846 22.7954 3.64846C22.8234 3.64846 22.8654 3.64846 22.8934 3.63468L22.9289 3.63149C23.0691 3.61885 23.1992 3.60712 23.3412 3.60712C23.5931 3.60712 23.8591 3.6209 24.111 3.64846C24.069 3.64157 24.069 3.64157 24.0812 3.64329C24.0935 3.64502 24.118 3.64846 24.125 3.64846C24.146 3.64846 24.1635 3.65191 24.181 3.65535C24.1984 3.65879 24.2159 3.66224 24.2369 3.66224L24.4469 3.70358C24.5868 3.73114 24.7268 3.75869 24.8527 3.78625C25.0067 3.8207 25.1606 3.85859 25.3146 3.89649C25.4685 3.93438 25.6225 3.97227 25.7764 4.00672C26.0423 4.07561 26.3642 3.92404 26.4342 3.63468C26.4902 3.3591 26.3502 3.05596 26.0563 2.98706C25.8884 2.94986 25.7205 2.90893 25.5525 2.86801C25.1606 2.77252 24.7688 2.67703 24.3769 2.6288C23.7471 2.53235 23.1173 2.53235 22.4875 2.6288C21.4378 2.79415 20.5701 3.41421 19.9543 4.22719C19.7561 4.48476 19.5894 4.76445 19.4439 5.05372C19.223 4.14827 18.905 3.27043 18.3712 2.50529C17.2935 0.948246 15.3902 0.286846 13.5428 0.066379C12.4511 -0.0714128 11.3455 0.0112622 10.2818 0.259287C10.0019 0.328183 9.83398 0.645104 9.90396 0.906909C9.98793 1.19627 10.2818 1.33406 10.5617 1.27895C11.4295 1.07226 12.2972 1.00336 13.1929 1.08604C13.6127 1.12738 14.0326 1.19627 14.4805 1.30651C14.6904 1.36162 14.9003 1.41674 15.0963 1.48563C15.1452 1.49941 15.1942 1.51664 15.2432 1.53386C15.2922 1.55109 15.3412 1.56831 15.3902 1.58209C15.4112 1.58898 15.4287 1.59587 15.4461 1.60276C15.4636 1.60965 15.4811 1.61654 15.5021 1.62343C15.5161 1.63721 15.6981 1.7061 15.6421 1.67854C16.006 1.83011 16.3698 2.02302 16.6917 2.25727C16.7106 2.27076 16.7244 2.28053 16.7343 2.28743L16.7477 2.29861C16.7897 2.32616 16.8177 2.35372 16.8597 2.39506C16.883 2.41803 16.9063 2.43946 16.9297 2.46089C16.9763 2.50376 17.023 2.54663 17.0696 2.60175C17.1256 2.65686 17.1956 2.72576 17.2516 2.79466C17.2795 2.83599 17.3215 2.87733 17.3495 2.90489L17.3672 2.92552C17.3706 2.93071 17.3778 2.94115 17.3915 2.96001C17.8394 3.59385 18.0773 4.14502 18.2872 4.87531C18.3368 5.04331 18.382 5.21238 18.4237 5.3823C17.3771 5.1726 16.3068 5.08352 15.2366 5.13621C14.637 5.16304 14.0241 5.24212 13.4368 5.36074C13.4209 5.36331 13.405 5.36655 13.3892 5.37045C10.5341 5.9354 7.72101 7.24442 5.6357 9.26996C3.31246 11.5297 2.13684 14.7127 2.01088 17.8957C1.89892 20.6378 2.65467 23.4212 4.11019 25.7774C5.55172 28.1199 7.69302 30.0214 10.2822 31.0135C12.8293 31.9918 15.6844 32.1985 18.3715 31.8265C19.7291 31.6336 21.0587 31.2615 22.2902 30.669C23.5778 30.049 24.6975 29.1395 25.6352 28.0648C26.6848 26.866 27.5385 25.4881 28.2103 24.055C28.9381 22.4842 29.4559 20.8445 29.6518 19.1221C29.9457 16.5729 29.3439 14.0238 27.9584 11.8329C26.6288 9.73845 24.6975 8.01606 22.4862 6.84482C22.2114 6.69929 21.9319 6.56163 21.6482 6.43236C21.732 6.41504 21.8159 6.39976 21.8997 6.39059C21.8293 6.4005 21.8891 6.39615 21.9335 6.39293L21.9335 6.39293C21.9508 6.39167 21.9658 6.39059 21.9697 6.39059C21.9977 6.39059 22.0222 6.38714 22.0467 6.3837C22.0712 6.38025 22.0957 6.37681 22.1237 6.37681C22.3476 6.36303 22.5855 6.36303 22.8095 6.39059C22.8374 6.39059 22.8654 6.39059 22.8794 6.40437C22.9074 6.41126 22.9319 6.4147 22.9564 6.41815C22.9809 6.42159 23.0054 6.42504 23.0334 6.43192C23.1264 6.44337 23.2098 6.46434 23.2996 6.48691L23.3553 6.50082C23.4672 6.52838 23.5652 6.55594 23.6632 6.59728C23.6842 6.60417 23.7087 6.6145 23.7332 6.62483C23.7576 6.63517 23.7821 6.6455 23.8031 6.65239C23.8591 6.67995 23.8731 6.67995 23.8171 6.65239C23.8311 6.65928 23.8416 6.66272 23.8521 6.66617L23.8521 6.66617L23.8521 6.66617C23.8626 6.66962 23.8731 6.67306 23.8871 6.67995C24.335 6.87286 24.7408 7.13466 25.1327 7.42403C25.3706 7.58938 25.7345 7.46536 25.8605 7.23112C26.0144 6.95553 25.9024 6.67995 25.6645 6.5146C24.8108 5.89454 23.8591 5.43982 22.7955 5.34337C21.9476 5.25989 21.0997 5.43717 20.3066 5.74357C20.3462 5.64994 20.3952 5.56555 20.4441 5.48116ZM28.5962 16.4534C28.5968 16.4575 28.5987 16.4727 28.6002 16.4881L28.5973 16.465C28.5959 16.4533 28.5957 16.4507 28.5962 16.4534ZM5.14002 19.6439C5.60187 20.7876 6.17568 21.8899 6.88945 22.8958L6.95081 22.9856C7.25975 23.4385 7.6279 23.9784 8.20502 24.0946C8.58289 24.1773 8.94677 24.0395 9.15671 23.7363C9.31835 23.516 9.35848 23.263 9.39486 23.016C9.59978 23.5077 9.88275 24.0221 10.5143 23.943C10.8424 23.9009 11.0761 23.7012 11.2355 23.4425C11.3327 23.6886 11.4323 23.9337 11.5359 24.1773C11.8718 24.9902 12.4036 25.941 13.3833 26.1063C13.9571 26.2028 14.5309 25.9823 14.7689 25.4312C14.9648 24.9627 14.8808 24.4253 14.7969 23.943C14.6289 22.9922 14.2091 22.0828 13.7612 21.2285C13.6495 21.0118 13.535 20.7965 13.4206 20.5816C13.0334 19.854 12.649 19.1315 12.3896 18.3762C12.3057 18.142 12.0678 17.9766 11.8018 18.0455C11.5639 18.1144 11.382 18.3762 11.466 18.6242C11.7431 19.4427 12.1539 20.2106 12.5627 20.9746L12.5627 20.9746C12.9798 21.754 13.3947 22.5294 13.6632 23.3505C13.7892 23.7363 13.8872 24.1635 13.9291 24.508C13.9431 24.6182 13.9431 24.7146 13.9431 24.8249C13.9431 24.8662 13.9431 24.9076 13.9291 24.9489C13.9276 24.9582 13.9267 24.9644 13.9263 24.9682C13.9244 24.974 13.9221 24.9813 13.9194 24.9902C13.9181 24.9944 13.9167 24.999 13.9151 25.004C13.9151 25.004 13.8794 25.1009 13.8865 25.0975C13.8721 25.122 13.8525 25.1565 13.854 25.1607L13.8351 25.1793C13.8313 25.1817 13.8267 25.1844 13.8213 25.1875C13.8136 25.1879 13.7778 25.1978 13.7543 25.2046C13.7434 25.2047 13.7184 25.2067 13.6972 25.2083L13.6971 25.2084C13.681 25.2096 13.6672 25.2107 13.6632 25.2107C13.6632 25.2107 13.5822 25.2034 13.5698 25.2047C13.5511 25.1998 13.5337 25.1949 13.5163 25.19L13.5161 25.19C13.4917 25.1831 13.4672 25.1762 13.4393 25.1694C13.37 25.1499 13.3777 25.1511 13.3931 25.1534C13.3961 25.1539 13.3994 25.1544 13.4024 25.1548C13.4059 25.1552 13.4091 25.1556 13.4113 25.1556C13.3273 25.1142 13.2434 25.0729 13.1594 25.0178C13.2294 25.0729 13.1034 24.9765 13.1034 24.9765C13.0824 24.9558 13.0614 24.9386 13.0404 24.9213C13.0194 24.9041 12.9984 24.8869 12.9775 24.8662C12.8655 24.7422 12.7955 24.6595 12.6975 24.4666C12.6029 24.2935 12.5082 24.1204 12.4388 23.9473C12.4428 23.9535 12.4429 23.9513 12.4316 23.9292L12.4388 23.9473C12.4327 23.938 12.4176 23.9099 12.4176 23.9017C12.3896 23.8466 12.3617 23.7777 12.3477 23.7225L12.3477 23.7225C12.2917 23.5847 12.2357 23.447 12.1937 23.3092C12.1377 23.1714 12.0853 23.0336 12.0328 22.8958L12.0328 22.8958C11.9803 22.758 11.9278 22.6202 11.8718 22.4824L11.8718 22.4823C11.7267 22.1015 11.5817 21.7208 11.4367 21.3446C11.3799 21.1306 11.3006 20.9214 11.2 20.7187C10.9621 20.2502 10.1364 20.5809 10.3323 21.0769L10.3799 21.1986L10.3743 21.201C10.3892 21.2314 10.4032 21.262 10.4165 21.2928L10.472 21.4371C10.5759 21.7402 10.6064 22.0588 10.5842 22.386C10.5842 22.4392 10.5726 22.4981 10.5606 22.5591L10.5606 22.5591C10.554 22.5928 10.5472 22.6272 10.5423 22.6615L10.5422 22.6616C10.5282 22.7167 10.5143 22.7718 10.5003 22.8131C10.4966 22.8277 10.4943 22.8378 10.4931 22.8444C10.4892 22.8502 10.4826 22.8616 10.4723 22.882C10.4583 22.9027 10.4478 22.9234 10.4373 22.944L10.4308 22.9568C10.423 22.9434 10.4161 22.9299 10.4093 22.9165C10.3988 22.8958 10.3883 22.8751 10.3743 22.8545L10.3704 22.8467C10.37 22.8408 10.3638 22.8201 10.3463 22.7718C10.2973 22.6478 10.2484 22.5272 10.1994 22.4067C10.1504 22.2861 10.1014 22.1655 10.0524 22.0415C9.9708 21.8349 9.88677 21.6283 9.80233 21.4207L9.80228 21.4206C9.684 21.1298 9.56492 20.837 9.45061 20.5396C9.36664 20.3191 9.1847 20.1675 8.93278 20.2089C8.72285 20.2364 8.49892 20.4293 8.52691 20.6636C8.53084 20.7032 8.53456 20.7428 8.53807 20.7823L8.49892 20.7876L8.54891 20.9129C8.5858 21.3915 8.59069 21.8631 8.5549 22.3446L8.55413 22.3576C8.54038 22.588 8.52588 22.831 8.47093 23.0474C8.47093 23.0749 8.44294 23.1714 8.44294 23.1438C8.44899 23.126 8.43935 23.139 8.42872 23.1573C8.39192 23.1386 8.33827 23.1097 8.31698 23.0887C8.23301 23.0198 8.14904 22.9371 8.09305 22.8545C7.9391 22.6615 7.78515 22.4411 7.6452 22.2344C7.3513 21.8072 7.08538 21.3663 6.83347 20.9254C6.56755 20.4293 6.31564 19.9195 6.1057 19.3959C6.00774 19.1616 5.78381 18.9963 5.5179 19.0652C5.23799 19.1341 5.04205 19.4097 5.14002 19.6439ZM13.8495 25.1682C13.8499 25.1686 13.8456 25.1726 13.8355 25.179C13.8441 25.171 13.8492 25.1677 13.8495 25.1682ZM10.3743 23.0336C10.3529 23.0547 10.3478 23.0516 10.3656 23.0365L10.3743 23.0336ZM23.8921 22.0694C24.4379 21.2289 24.9138 20.3333 25.2917 19.3963C25.3756 19.162 25.5996 18.9967 25.9214 19.1069C26.1594 19.1758 26.3553 19.4514 26.2573 19.6856C25.9914 20.3333 25.6975 20.9809 25.3476 21.601C25.0537 22.1246 24.7318 22.6344 24.368 23.1304C24.0321 23.5989 23.5982 24.1914 22.9404 24.1501C22.5905 24.1225 22.2966 23.9021 22.1567 23.5989C22.0724 23.4247 22.0287 23.2404 22.0012 23.0522C21.7964 23.5471 21.5133 24.0499 20.8831 23.971C20.5476 23.9279 20.3147 23.7201 20.1567 23.453C20.0136 23.8313 19.8668 24.2075 19.6935 24.5773C19.3296 25.3764 18.5878 26.2583 17.5802 26.1481C16.9504 26.0792 16.5865 25.6107 16.5165 25.0182C16.4605 24.5635 16.5585 24.0536 16.6705 23.5989C16.9255 22.5717 17.4281 21.6368 17.9284 20.7063C18.3341 19.9518 18.7382 19.2001 19.0077 18.4042C19.0917 18.1562 19.3296 18.0046 19.5955 18.0735C19.8334 18.1424 20.0154 18.418 19.9314 18.6522C19.6095 19.5892 19.1337 20.4711 18.6578 21.3529C18.238 22.1246 17.8601 22.8549 17.6362 23.6816C17.5242 24.0812 17.4402 24.4257 17.4542 24.8391C17.4542 24.9906 17.4682 25.1284 17.5522 25.1835C17.5662 25.1904 17.5837 25.1939 17.6012 25.1973C17.6107 25.1992 17.6202 25.2011 17.6292 25.2035C17.6076 25.1941 17.6519 25.201 17.6863 25.2064C17.7023 25.2089 17.7162 25.2111 17.7201 25.2111C17.7201 25.2111 17.8284 25.2014 17.8138 25.2064C17.8757 25.194 17.9364 25.1804 17.986 25.156C17.9161 25.1835 17.986 25.1422 18 25.1422C18.021 25.1284 18.042 25.1181 18.063 25.1078C18.084 25.0974 18.105 25.0871 18.126 25.0733C18.126 25.0733 18.252 24.9769 18.182 25.032C18.2447 24.9908 18.2918 24.942 18.3408 24.8912C18.3574 24.8739 18.3742 24.8565 18.3919 24.8391L18.4619 24.7702C18.4707 24.7602 18.4776 24.7526 18.4829 24.747C18.4874 24.7398 18.4941 24.7295 18.5039 24.715C18.7138 24.3981 18.8818 24.0536 18.9937 23.7643C19.2695 23.0854 19.5315 22.3997 19.7942 21.712C19.9047 21.4226 20.0154 21.1329 20.1273 20.8431C20.1341 20.8459 20.1407 20.8488 20.1474 20.8516C20.1634 20.8164 20.1801 20.7814 20.1973 20.7466C20.2953 20.5262 20.5752 20.4711 20.7851 20.5537C20.9951 20.6364 21.149 20.8844 21.065 21.1049C20.9808 21.3196 20.8965 21.5361 20.8122 21.7531C20.772 21.9668 20.763 22.1885 20.7851 22.4139C20.7851 22.4507 20.7976 22.5119 20.81 22.5732C20.8162 22.6038 20.8225 22.6344 20.8271 22.6619C20.8411 22.7033 20.8551 22.7584 20.8691 22.8135L20.8691 22.8135C20.8768 22.8399 20.8792 22.8518 20.8795 22.8567C20.8821 22.8594 20.8874 22.8664 20.8971 22.8824C20.9077 22.9137 20.9263 22.9451 20.9469 22.9764C20.949 22.9729 20.951 22.9691 20.9531 22.9651C20.9601 22.9444 20.9706 22.9272 20.9811 22.91C20.9916 22.8927 21.0021 22.8755 21.0091 22.8549C21.0253 22.8308 21.0322 22.8161 21.0322 22.8161C21.0323 22.8161 21.0289 22.8238 21.0231 22.8411C21.03 22.8273 21.0335 22.817 21.037 22.8066C21.0405 22.7963 21.044 22.786 21.051 22.7722C21.1 22.6482 21.1525 22.5208 21.205 22.3933C21.2575 22.2658 21.3099 22.1384 21.3589 22.0143C21.4569 21.7732 21.5549 21.5286 21.6528 21.284C21.7508 21.0394 21.8488 20.7949 21.9467 20.5537C22.0307 20.3333 22.2127 20.1955 22.4646 20.223C22.6745 20.2368 22.8984 20.4435 22.8704 20.6777C22.8666 20.7219 22.8629 20.7661 22.8594 20.8103C22.8724 20.8121 22.8854 20.8138 22.8984 20.8155C22.8823 20.857 22.8661 20.8985 22.8499 20.9399C22.8122 21.4894 22.8101 22.0463 22.8704 22.5931C22.8775 22.6551 22.8845 22.7137 22.8915 22.7723C22.8984 22.8308 22.9054 22.8893 22.9124 22.9513C22.9194 22.972 22.9229 22.9961 22.9264 23.0202C22.9299 23.0443 22.9334 23.0684 22.9404 23.0891C22.9404 23.1029 22.9509 23.1339 22.9579 23.1546C22.9649 23.1752 22.9684 23.1856 22.9544 23.158C22.9575 23.167 22.9625 23.1767 22.9679 23.1857C22.9681 23.1856 22.9683 23.1856 22.9684 23.1856C22.9824 23.1787 22.9929 23.1718 23.0034 23.1649C23.0139 23.158 23.0244 23.1511 23.0384 23.1442C23.1765 23.0577 23.292 22.9047 23.4052 22.7548C23.4183 22.7376 23.4313 22.7204 23.4443 22.7033C23.5982 22.4966 23.7522 22.2899 23.8921 22.0694ZM20.8996 23.0328C20.8988 23.0332 20.8979 23.0336 20.8971 23.034C20.877 23.0439 20.8785 23.0467 20.8967 23.0372C20.8973 23.036 20.8982 23.0345 20.8996 23.0328ZM20.9943 23.0202C20.9946 23.0202 20.9948 23.0202 20.9951 23.0202L21.0231 23.0478C21.0231 23.0478 21.0093 23.0342 20.9943 23.0202Z" fill="#1F2224"/>
  <defs>
    <linearGradient id="paint0_linear_288_7259" x1="19.7514" y1="6.34343" x2="15.2361" y2="27.5739" gradientUnits="userSpaceOnUse">
      <stop offset="0.0350253" stop-color="#FFCC81"/>
      <stop offset="0.521771" stop-color="#E7914F"/>
      <stop offset="1" stop-color="#DD6843"/>
    </linearGradient>
  </defs>
</svg>
