<svg xmlns="http://www.w3.org/2000/svg" width="39px" height="39px" viewBox="0 0 2000 2000" preserveAspectRatio="xMidYMid meet"><g fill="#0a0904"><path d="M848 1592 c-16-2-28-8-28-13 0-5-11-9-25-9-16 0-25-6-25-15 0-25 25-28 99-11 86 20 168 20 246 1 78-19 115-19 115-1 0 21-12 26-83 38-60 10-243 16-299 10z"/><path d="M1390 1448 c0-15 123-128 139-128 21 0 10 37-19 65-16 16-30 36-30 46 0 11-11 19-31 23-46 9-59 8-59-6z"/><path d="M1590 1210 c0-12 6-31 14-43 8-12 22-55 32-96 16-72 15-143-2-268-5-34-3-43 9-43 35 0 55 240 28 340-23 84-45 130-63 130-11 0-18-8-18-20z"/><path d="M604 1088 c3-29 6-108 6-175 0-103 2-123 15-123 13 0 15 24 15 154 0 172-3 166 78 166 l32 0 0-156 c0-143 1-155 18-152 15 3 17 21 20 171 l3 167-97 0-97 0 7-52z"/><path d="M1040 1125 c0-13 25-15 165-15 l164 0 3-57 c2-46 7-59 21-61 15-3 17 6 17 72 l0 76-185 0 c-158 0-185-2-185-15z"/><path d="M160 935 c0-96 3-115 15-115 12 0 15 19 15 115 0 96-3 115-15 115-12 0-15-19-15-115z"/><path d="M1069 963 c-2-21-2-79-1-129 l4-91 141 1 142 1 3-68 c3-64 4-67 27-67 25 0 25 1 25 85 l0 85-145 0-145 0 0 89 0 89 30 7 c17 4 30 13 30 21 0 10-14 14-54 14 l-54 0-3-37z"/></g><g fill="#332414"><path d="M0 1890 c0-60 3-110 6-110 3 0 15 11 26 25 13 16 29 25 48 25 23 0 31 6 41 33 8 22 22 38 43 46 17 7 43 19 58 27 14 8 33 14 41 14 14 0 27 20 27 41 0 5-64 9-145 9 l-145 0 0-110z"/><path d="M1710 1977 c0-15 9-29 25-37 19-10 25-21 25-45 0-40 20-58 53-50 22 6 30 0 56-35 17-23 33-52 36-64 20-66 51-106 84-106 7 0 11 49 11 144 l0 144-30 6 c-25 5-30 10-30 36 l0 30-115 0 c-114 0-115 0-115-23z"/><path d="M1033 1872 c-10-7-30-62-22-62 33-1 186-23 222-32 43-11 48-10 62 8 8 10 15 24 15 30 0 13-90 40-165 49-27 3-61 8-75 11-14 2-30 1-37-4z"/><path d="M820 1834 c0-12-7-14-30-9-17 4-30 2-30-3 0-5-9-12-20-15-12-3-20-14-20-26 0-22 24-29 35-11 10 15 35 12 35-5 0-16 15-18 73-9 38 7 51 29 22 40-8 4-15 10-15 16 0 13-26 38-39 38-6 0-11-7-11-16z"/><path d="M1376 1764 c-10-27-7-31 44-63 57-35 66-37 86-17 24 24 16 43-30 70-50 29-91 34-100 10z"/><path d="M910 1496 c0-26-13-35-25-16-12 20-36 11-33-12 3-22 8-23 96-26 90-3 92-3 92-27 0-16 6-25 15-25 10 0 15 10 15 34 0 24 5 35 18 38 31 8 42-17 42-97 0-60 3-75 15-75 12 0 15 15 15 78 l0 77 46-4 c40-3 45-1 42 15-5 28-106 55-230 61 l-108 6 0-27z"/><path d="M1007 1112 c-15-15-27-35-27-44 0-8-7-21-15-28-8-7-15-19-15-26 0-27 37-13 80 31 l44 45 153 0 c129 0 153 2 153 15 0 13-25 15-166 15-107 0-163 3-159 10 14 22-23 8-48-18z"/><path d="M1885 1018 c3-53 2-116-4-145-12-60-7-83 19-83 25 0 30 27 30 168 0 94-3 127-14 138-32 32-38 17-31-78z"/><path d="M1070 743 c0-10 36-13 149-13 83 0 152 4 156 9 10 18-36 23-171 19-99-2-134-6-134-15z"/><path d="M540 256 c0-29 137-92 260-121 81-18 80-19 80 3 0 13-17 21-73 34-39 10-110 36-155 58-90 43-112 48-112 26z"/><path d="M1928 136 c-10-7-18-20-18-28 0-9-7-21-16-28-9-8-14-25-12-44 3-30 4-31 61-34 l57-3 0 69 c0 55-3 71-16 76-23 9-37 7-56-8z"/></g><g fill="#2f2c26"><path d="M1930 1991 c0-5-3-16-6-24-7-20 22-47 52-47 21 0 24 4 24 40 0 39-1 40-35 40-19 0-35-4-35-9z"/><path d="M898 1749 c-262-28-528-204-648-430-55-104-112-304-81-285 7 5 11-2 11-17 0-22 16-37 40-37 5 0 11 13 15 30 7 33 33 40 59 15 8-8 23-15 34-15 16 0 22 11 32 53 18 78 84 205 141 269 56 64 173 147 246 174 60 22 58 21 43 39-11 13-8 15 19 15 18 0 30 5 28 11-3 14 51 31 59 18 7-12 91-11 115 2 15 8 31 6 62-5 52-19 115-27 119-15 2 5 9 0 16-11 10-17 10-20-3-20-8 0-15-4-15-10 0-5 6-10 14-10 8 0 54-20 104-45 95-48 107-52 96-34-5 8 1 10 19 5 14-3 29-2 32 4 13 21 26 9 20-18-4-22 0-33 25-57 28-27 42-53 20-40-20 12-9-15 28-69 23-35 42-53 52-51 32 10 73-136 73-257-1-82-21-207-30-180-9 24-21 12-33-34-7-25-35-82-62-127-53-89-52-85-38-122 8-22 13-25 24-16 20 17 25-3 17-77 l-6-63-40 51 c-47 60-51 67-32 72 11 2 12 9 6 26-9 24-9 24-56-18-27-23-51-51-55-62-4-10-13-16-19-13-6 4-41-7-79-24-67-31-179-60-232-61-16 0-28-6-28-12 0-10-2-10-8-1-4 6-40 15-80 18-63 7-72 6-72-9 0-9 7-19 15-22 10-4 15-20 15-45 0-48 15-50 55-9 32 33 45 38 45 15 0-8 7-15 15-15 9 0 15 10 15 26 0 20 4 25 16 20 9-3 21-6 27-6 8 0 8-3-1-9-8-5-12-23-10-47 2-31 7-39 28-44 24-6 24-6-7-13-20-4-33-13-33-22 0-22 98-20 196 5 283 72 492 276 581 567 24 78 26 104 27 238 0 145-1 153-34 250-126 369-498 598-902 554z m253-69 c23-13 25-33 4-50-33-27-74 17-43 48 15 15 15 15 39 2z"/><path d="M1335 1113 c30-4 30-4 27-58 l-4-55-100 0 c-63 0-97-4-93-10 3-5-1-10-9-10-8 0-18-4-21-10-4-6 43-10 134-10 l141 0 0 25 c0 15-5 24-12 23-9-2-13 14-13 55 l0 57-40-2 c-33-1-35-2-10-5z"/><path d="M600 951 c0-87 4-141 10-141 6 0 10 51 10 134 0 79-4 137-10 141-6 4-10-43-10-134z"/><path d="M871 976 c-78-80-102-110-99-127 2-12 8-24 15-26 6-2 53 37 105 86 66 64 89 93 80 99-9 6-6 14 13 32 19 18 22 26 13 32-7 4-16 8-19 8-3 0-51-47-108-104z"/><path d="M910 785 l-145-145-62 0 c-49 0-63-3-63-15 0-12 16-15 88-15 l87 0 72 73 c144 145 192 202 190 225-1 12-6 22-12 22-6 0-75-65-155-145z"/><path d="M160 820 c1-118 166-440 226-440 25 0 15 28-36 95-28 37-61 88-74 113-31 61-76 196-76 227 0 18-5 23-20 22-11-1-20-8-20-17z"/></g><g fill="#45311b"><path d="M275 1980 c-3-11-14-20-23-20-10 0-28-7-40-16-12-8-22-12-22-9 0 3-9 1-20-5-23-13-26-30-5-30 8 0 19-9 26-21 l11-21 15 22 c11 16 18 19 26 11 6-6 17-11 23-11 18 0 101 78 107 101 5 17 0 19-43 19-40 0-50-4-55-20z"/><path d="M1550 1985 c0-9 8-19 18-22 9-4 31-17 48-30 17-13 35-23 41-23 6 0 23-18 38-40 15-22 38-43 50-46 17-4 21-11 17-30-5-30 19-59 56-69 30-7 108-92 104-113-4-17 46-72 65-72 9 0 13 15 13 50 0 42-4 52-25 66-24 16-46 53-60 100-3 12-19 41-36 64-24 33-35 41-57 39-38-4-52 7-52 45 0 25-6 36-26 46-17 9-24 20-21 32 5 16-3 18-84 18-73 0-89-3-89-15z"/><path d="M911 1869 c-72-9-89-19-68-40 7-8 12-20 9-27-3-10 5-12 29-8 19 3 59 8 90 11 33 4 56 11 56 18 0 7 3 22 7 35 7 20 4 22-26 21-18-1-62-5-97-10z"/><path d="M137 1820 c-11-29-20-38-31-34-12 5-13 11-6 24 15 28 13 30-24 30-44 0-76-38-76-88 0-34 1-34 32-28 18 3 36 13 41 21 4 8 17 15 27 15 11 0 20 5 20 10 0 6 8 10 18 10 33 0 45 16 37 49-9 41-19 39-38-9z"/><path d="M1284 1795 c-9-14-15-27-13-28 43-28 127-48 114-28-3 5 2 16 10 24 21 22 20 25-21 42-51 21-71 19-90-10z"/><path d="M610 1779 c-97-52-215-142-218-167-3-18 1-22 22-22 14 0 26 5 26 10 0 6 6 10 13 10 7 0 19 9 27 20 8 11 18 20 23 20 4 0 17 9 29 20 12 11 37 25 57 31 20 7 38 15 41 19 3 4 19 11 35 17 24 8 31 16 33 41 4 41-14 41-88 1z"/><path d="M1498 1698 c-24-29-23-35 10-52 71-38 203-175 260-269 21-34 55-33 60 2 2 13 0 26-5 30-4 3-17 23-27 44-11 21-44 64-73 95-29 30-53 59-53 64 0 4-4 8-10 8-5 0-22 13-37 28-32 32-87 72-100 72-4 0-16-10-25-22z"/><path d="M305 1543 c-60-69-105-134-105-155 0-27 34-22 50 7 7 14 19 25 27 25 7 0 13 7 13 15 0 8 5 15 10 15 6 0 10 7 10 15 0 8 5 15 10 15 6 0 10 6 10 13 0 15 45 57 61 57 23 0 3 35-21 37-18 1-36-10-65-44z"/><path d="M1270 1438 c0-7 7-22 15-32 10-13 15-43 15-83 0-49 3-63 15-63 8 0 15 4 15 9 0 5 9 11 20 14 12 3 20 0 20-8 0-11 48-31 55-23 1 2 5 24 8 50 6 46 6 48-36 81-80 64-127 84-127 55z"/><path d="M1518 1143 c-32-5-38-33-8-33 11 0 20-4 20-10 0-5-6-10-13-10-9 0-12-17-11-62 2-81 2-78 19-78 9 0 15-9 15-25 0-16 6-25 15-25 12 0 15 13 15 55 0 42 3 55 15 55 18 0 20 47 4 103-10 38-12 39-71 30z"/><path d="M648 1113 c-37-10-16-23 37-23 l55 0 0-150 c0-131 2-150 16-150 11 0 14 5 10 16-3 9-6 83-6 165 l0 149-47-1 c-27-1-56-3-65-6z"/><path d="M1861 763 c-20-80-45-153-51-153-4 0-13-18-20-40-7-22-17-40-22-40-4 0-8-11-8-25 0-14 5-25 11-25 13 0 39 25 39 38 0 6 3 12 8 14 11 5 57 106 82 182 22 67 22 70 4 83-27 20-30 17-43-34z"/><path d="M1010 626 c0-23 24-26 216-26 151 0 184 2 184 14 0 9-7 12-20 9-11-3-20 0-20 6 0 8-54 11-180 11-147 0-180-3-180-14z"/><path d="M1938 194 c-30-19-38-31-38-54 0-23-5-31-25-36-19-5-25-13-25-34 0-15-7-33-15-40-25-21-17-30 25-30 38 0 39 1 34 28-4 19-1 32 10 41 9 8 16 21 16 30 0 25 36 44 60 31 19-10 20-7 20 40 0 58-7 60-62 24z"/></g><g fill="#614214"><path d="M751 1837 c-61-21-64-24-65-55-1-24 3-32 17-32 10 0 22 11 27 25 5 14 16 25 25 25 8 0 15 4 15 8 0 5 14 7 30 4 20-3 30 0 30 8 0 7 8 19 18 26 16 12 15 13-8 13-14 0-54-10-89-22z"/><path d="M940 1553 c-87-7-150-24-150-40 0-12 8-14 38-9 104 17 229 18 295 2 84-20 87-20 87-1 0 25-36 34-195 49-16 1-50 1-75-1z"/><path d="M1235 1460 c4-6-7-10-24-10 l-31 0 6-57 c3-32 7-63 9-70 2-6-5-19-16-29-22-20-26-54-6-54 16 0 57 41 57 57 0 6 16 14 36 18 l37 6-8 52 c-4 29-7 59-7 69 1 9-9 19-21 22-31 8-39 7-32-4z"/><path d="M820 1416 c0-8-5-16-12-18-6-2-9-12-5-21 6-15 24-17 137-17 l130 0 0 25 c0 14-3 24-7 24-5-1-12 0-18 1-5 1-49 2-96 0-54-1-89 2-93 9-10 16-36 14-36-3z"/><path d="M1808 1366 c-23-17-23-19 9-88 33-71 57-75 60-10 1 23-2 42-7 42-5 0-12 16-16 35-7 37-18 42-46 21z"/><path d="M513 1306 c-52-59-97-145-117-222-16-63-21-186-10-243 8-40 34-41 34-1 0 25 4 30 25 30 16 0 25 6 25 15 0 9-9 15-25 15-16 0-25 6-25 15 0 9 9 15 25 15 26 0 35 24 13 33-10 4-10 7 0 15 9 6 11 18 6 35-5 23-3 27 15 27 12 0 21 6 21 15 0 8-4 15-10 15-5 0-10 7-10 15 0 8-4 15-10 15-5 0-10 9-10 20 0 16 7 20 31 20 30 0 59 19 59 39 0 6 7 11 15 11 8 0 15 7 15 15 0 9-9 15-24 15-28 0-43 28-20 37 8 3 30 3 49 0 43-7 75 1 75 19 0 8-4 14-10 14-5 0-10 7-10 15 0 8-6 15-14 15-8 0-16 4-18 9-1 5-15 12-29 16-22 5-32 0-66-39z"/><path d="M1450 1274 c0-23-6-41-17-49-15-11-15-18-5-52 7-22 12-57 12-77 0-29 4-36 20-36 17 0 20-7 20-45 0-33 4-45 15-45 12 0 15 13 15 55 0 47 3 55 19 55 28 0 20 33-10 41 l-24 7 25 1 c63 3 64 34 3 121-48 69-73 77-73 24z"/><path d="M1378 1244 c-23-22-118-41-118-23 0 5-7 9-15 9-8 0-15-8-15-18 0-10-9-24-20-32-43-31-25-40 81-40 101 0 101 0 95 23-4 17 1 30 19 47 27 26 33 57 11 57-8 0-25-10-38-23z"/><path d="M760 1187 c0-9-26-14-97-15-53-2-99-5-101-7-2-2-1-13 3-25 5-17 12-20 28-15 12 4 64 9 115 12 50 3 92 8 92 12 0 3-3 16-6 29-7 23-34 31-34 9z"/><path d="M780 980 c0-95 9-110 43-72 19 21 22 42 7 42-5 0-10 17-10 38 0 52-10 82-26 82-11 0-14-20-14-90z"/><path d="M1560 890 c0-5-25-10-55-10-42 0-55-3-55-15 0-9-9-15-25-15-16 0-25-6-25-15 0-11 12-15 44-15 30 0 46-5 50-15 3-8 16-15 30-15 14 0 28-4 31-10 9-15 32-12 39 5 3 8 8 37 12 65 6 49 6 50-20 50-14 0-26-4-26-10z"/><path d="M1260 835 c0-14-4-25-10-25-5 0-10-7-10-15 0-12 16-15 86-15 76 0 85 2 82 18-2 9-12 17-23 17-11 0-24 6-28 13-4 6-21 12-37 12-17 0-30 5-30 10 0 6-7 10-15 10-9 0-15-9-15-25z"/><path d="M1410 670 c0-38 4-50 15-50 8 0 15 9 15 19 0 22 37 35 75 25 21-5 25-3 25 15 0 19-6 21-50 21-27 0-50 5-50 10 0 6-7 10-15 10-11 0-15-12-15-50z"/><path d="M1352 603 c-15-3-22-10-20-21 5-24 49-28 65-6 24 33 15 38-45 27z"/><path d="M1417 540 c-11-28-20-38-31-34-8 3-12 12-9 20 7 18-14 18-33 0-19-19-19-86 0-86 8 0 13 8 12 18-1 12 6 17 21 16 33-1 84 55 77 84-9 32-19 27-37-18z"/><path d="M570 517 c0-49 227-167 321-167 49 0 34 25-23 39-69 17-170 66-225 108-45 35-73 42-73 20z"/></g><g fill="#56412a"><path d="M327 1945 c-50-49-59-54-76-43-15 9-23 9-35-1-20-16-20-38-2-82 7-19 16-43 20-53 4-13 10-16 17-9 5 5 30 8 55 6 49-5 94 16 94 42 0 8 12 22 28 32 15 10 31 23 35 30 4 7 27 13 51 13 32 0 48 6 65 24 24 26 94 46 155 46 32 0 46 13 46 41 0 5-85 9-198 9 l-198 0-57-55z"/><path d="M1205 1978 c-11-32 29-60 77-54 27 3 41-1 54-15 24-26 72-49 104-49 16 0 36-11 52-27 34-37 66-63 78-63 6 0 18-4 28-9 9-5 25-12 35-15 9-3 21-16 26-30 6-14 23-28 43-35 49-17 118-89 118-122 0-19 9-34 29-48 16-12 32-21 36-21 14 0 44-45 45-66 0-26 36-74 56-74 11 0 14 19 14 93 0 93 0 93-34 126-19 19-32 40-29 47 7 18-73 106-107 118-43 15-61 37-55 67 5 22 2 28-18 33-13 3-37 24-52 46-15 22-32 40-38 40-6 0-25 11-43 25-18 14-37 25-42 25-5 0-15 7-22 15-10 12-43 15-181 15-163 0-168-1-174-22z"/><path d="M1080 1807 c0-6-19-8-50-4-65 8-152-2-147-17 2-7 53-14 133-18 105-5 149-13 225-37 108-35 129-37 129-17 0 16-88 52-160 66-25 5-65 15-88 23-26 9-42 11-42 4z"/><path d="M140 1791 c-19-10-34-23-32-31 6-28-6-42-28-30-12 6-34 8-51 5 l-29-7 0-125 c0-139 5-146 53-75 16 23 32 42 37 42 18 0 70 53 70 71 0 11 11 24 25 31 24 11 24 13 10 34-19 29-19 34-1 34 12 0 13 6 4 30-13 40-17 41-58 21z"/><path d="M1194 1505 c2-15 135-85 162-85 8 0 14 7 14 15 0 10-29 30-72 50-79 38-107 43-104 20z"/><path d="M600 733 c0-96 1-103 20-103 19 0 20 7 20 92 0 50-3 88-7 85-3-4-12 1-19 11-11 14-13 1-14-85z"/><path d="M1110 781 c0-6 64-11 150-13 115-2 150 0 150 10 0 9-37 12-150 12-88 0-150-4-150-9z"/><path d="M1738 481 c-7-12-18-21-24-21-7 0-15-11-18-25-4-14-11-25-17-25-20 0-40-30-34-50 10-31 30-24 72 26 21 25 44 52 51 60 16 16 13 45-5 51-7 3-18-5-25-16z"/><path d="M1943 443 c-24-25-33-44-33-68 0-22-9-43-25-61-14-15-25-36-25-48 0-20-64-87-102-107-10-5-25-23-33-39-10-18-23-30-36-30-28 0-84-54-76-74 5-13 24-16 110-16 114 0 137 10 137 61 0 18 8 28 29 36 23 8 28 15 24 35-4 21 3 30 39 55 l43 29 3 132 c3 148-1 154-55 95z"/><path d="M390 399 c0-5-5-7-11-3-7 4-10-1-7-11 3-21 152-145 172-145 28 0 9 39-39 77-27 22-61 52-74 67-26 27-41 33-41 15z"/><path d="M0 81 l0-81 45 0 c41 0 45 2 45 25 0 29-15 33-29 8-7-14-13-15-22-6-14 14-3 34 16 26 18-6 20 8 3 25-7 7-17 26-22 44-6 17-17 33-23 36-10 3-13-17-13-77z"/></g><g fill="#76551e"><path d="M342 1609 c-20-20-32-41-32-58 l1-26 24 27 c15 18 32 27 47 25 20-2 23 3 23 28-1 41-24 42-63 4z"/><path d="M746 1475 c-58-24-154-84-176-110-13-16-2-48 16-41 7 3 15 0 18-7 3-8 9-7 18 5 10 11 19 14 29 7 10-6 10-9 2-9-7 0-13-7-13-15 0-9 9-15 25-15 20 0 25 5 25 23 0 27 50 79 57 60 5-15 33-18 33-4 0 5 11 12 25 15 14 4 25 13 25 22 0 8 7 17 15 20 9 4 15 19 15 40 0 30-3 34-27 34-16 0-55-11-87-25z"/><path d="M163 1338 c-13-17-43-107-43-130 0-10 7-18 15-18 8 0 15 5 15 10 0 6 7 10 15 10 9 0 15 10 15 26 0 17 6 28 20 31 20 5 29 43 10 43-5 0-10 9-10 20 0 22-22 27-37 8z"/><path d="M1427 1334 c-4-4-7-26-7-49 0-34-6-47-35-75-31-31-33-34-17-46 14-11 3-13-76-14-60 0-91 4-87 10 4 6-9 10-32 10-22 0-43 4-48 9-6 5-27 13-47 16-31 6-38 4-38-9 0-9-7-19-15-22-8-4-15-14-15-23 0-14 19-16 195-13 l195 4 0-82 c0-62-3-82-15-86-32-13-16-34 25-34 22 0 40-4 40-10 0-6-30-10-70-10-52 0-70-3-70-13 0-10 26-16 98-20 141-10 174-9 166 4-4 7 1 10 12 7 12-2 20-13 22-31 2-15 9-27 18-27 11 0 14 21 14 111 0 124-14 199-38 199-11 0-13-9-9-40 7-51-1-80-19-73-11 4-14-7-14-54 l0-59-39-2 c-36-3-40 0-39 20 1 13 1 47 0 76-2 45-5 55-23 59-16 4-19 12-17 37 2 25 7 31 26 29 26-3 28 3 7 23-8 9-20 12-26 8-7-4-10-1-7 7 2 8 19 15 36 17 18 2 32 7 32 13 0 13-54 11-68-3-9-9-12-9-12 0 0 6 6 15 14 19 21 12 26 117 6 121-9 1-19 0-23-4z"/><path d="M1865 1260 c3-5 1-17-5-27-12-20 8-131 24-131 5 0 12-6 17-14 6-10 11-10 20-1 8 8 8 24 1 58-5 25-8 54-5 65 7 26-14 60-38 60-11 0-18-4-14-10z"/><path d="M784 1185 c-3-8-3-19 1-25 4-6-21-10-74-11-102-2-104-2-108-14-2-6 30-9 87-7 l90 3 0-41 c0-23 4-39 9-36 5 3 12-4 16-17 10-27 25 92 17 136-5 29-29 37-38 12z"/><path d="M827 1038 c-4-18-9-47-12-64-5-24-3-33 11-38 12-5 30 5 61 36 44 43 54 68 28 68-8 0-15 7-15 15 0 18-26 20-33 3-4-10-6-10-6 0-2 26-29 10-34-20z"/><path d="M1380 822 c0-4 5-13 12-20 9-9-5-12-66-12-49 0-75 4-71 10 4 6-20 10-64 10-56 0-71-3-71-15 0-13 22-15 141-15 l140 0-3-90 c-3-85 2-110 16-74 3 9 6 34 7 57 0 23 3 36 6 30 3-8 24-13 54-13 27 0 49-4 49-9 0-5-9-7-20-4-50 13-87-18-60-50 6-7 17-21 25-32 15-20 16-19 39 9 27 32 66 126 66 158 0 18-5 19-55 13-47-6-55-5-55 9 0 9 5 16 10 16 6 0 10 7 10 15 0 12-13 15-55 15-30 0-55-4-55-8z"/><path d="M1125 418 c-16-6-37-16-45-24-9-8-40-12-83-12-73 2-82-3-92-44 l-7-28 100 0 c127 0 202 15 202 39 0 12 12 21 32 27 19 6 34 17 36 28 4 17-1 18-36 12-24-3-43-2-47 4-8 12-21 12-60-2z"/></g><g fill="#534f48"><path d="M271 1101 c-11-11-18-27-15-36 4-9 0-15-9-15-9 0-18-12-22-29-5-22-10-28-26-24-18 5-19 0-19-69 0-68 15-182 27-201 6-10 33 19 33 37 0 11 16 17 61 22 l61 7-6 45 c-3 25-6 78-6 118 0 60-3 72-14 68-8-3-25 4-37 15 l-23 21 22 0 c26 0 30 31 8 49-12 10-19 8-35-8z"/><path d="M990 291 c14-27 13-52-2-48-9 1-13-13-13-46 l0-47-51 0 c-35 0-54-5-57-14-4-10 7-15 40-20 71-9 183-7 183 4 0 6-12 10-27 11-28 0-28 1-5 11 25 13 29 28 7 28-8 0-22 11-31 25-15 23-15 27 1 52 16 24 16 27 1 38-8 7-13 15-9 18 3 4-6 7-21 7-23 0-25-2-16-19z"/></g><g fill="#6f573a"><path d="M767 1980 c-10-14-24-20-48-19-53 2-122-20-151-48-21-20-33-24-58-20-22 5-35 2-49-12-11-11-29-25-41-31-11-6-25-22-30-36-13-32-55-52-79-37-30 19-41-4-41-84 0-91 14-94 93-19 21 19 53 38 71 41 21 4 48 22 70 46 30 31 47 40 87 45 27 4 62 16 77 28 32 25 65 29 190 24 20-1 72 1 115 3 131 9 286-21 417-79 73-33 216-126 232-152 7-11 18-20 25-20 7 0 13-4 13-8 0-15 116-132 131-132 19-1 69-68 69-93 0-10 6-31 14-45 8-15 23-48 33-74 10-26 26-49 35-52 14-3 18-14 18-44 0-50 8-72 26-72 11 0 14 25 14 129 l0 129-30 30 c-16 17-30 41-30 54-1 22-31 68-45 68-4 0-20 9-36 21-20 14-29 29-29 48 0 33-69 105-118 122-20 7-37 21-43 35-5 14-17 27-26 30-10 3-26 10-35 15-10 5-22 9-28 9-12 0-44 25-82 66-21 23-35 30-54 26-15-3-32 2-44 13-11 10-20 14-20 10 0-5-13 4-29 19-24 23-35 27-59 21-40-8-82 17-75 45 5 19-1 20-215 20-210 0-222-1-235-20z"/><path d="M168 1679 c-10-5-18-18-18-29 0-10-14-29-31-42-39-29-68-58-96-96-19-25-23-43-23-106 0-42 4-76 9-76 15 0 49 47 61 84 6 19 21 38 36 44 13 7 34 28 45 47 12 19 24 35 28 35 11 0 81 69 81 80 0 14-51 70-63 70-7 0-20-5-29-11z"/><path d="M1780 1287 c0-9 8-35 18-59 11-24 25-67 31-95 9-35 18-53 28-53 37 0-21 211-60 218-10 2-17-3-17-11z"/><path d="M379 1143 c-30-78-41-303-15-303 13 0 16 13 16 83 0 54 7 106 21 152 31 107 34 125 16 125-10 0-24-22-38-57z"/><path d="M1976 747 c-27-33-48-87-42-111 2-12-3-35-12-52-9-17-31-60-49-95-34-68-56-96-143-188-30-32-74-79-98-104-24-26-50-47-57-47-19 0-45-39-45-67 0-13-11-29-25-39-47-31-32-44 51-44 61 0 75 3 71 14-7 18 46 66 73 66 12 0 26 12 35 30 8 16 23 34 33 39 38 20 102 87 102 107 0 12 11 33 24 47 14 15 26 43 28 65 4 27 16 50 41 76 l37 38 0 144 c0 79-1 144-2 144-2 0-11-10-22-23z"/><path d="M0 258 c1-75 5-108 15-122 8-11 15-27 15-36 0-9 11-27 25-40 14-13 25-32 25-42 0-16 10-18 95-18 52 0 95 3 95 8 0 4-20 32-45 62-25 30-43 60-41 66 2 6-6 24-19 40-18 22-26 26-35 17-14-13-43-6-35 8 3 4 1 16-4 26-6 10-13 35-16 55-4 25-15 44-34 58-16 11-32 20-35 20-3 0-6-46-6-102z"/></g><g fill="#96702a"><path d="M864 1513 c-19-3-21-11-20-51 2-53-5-50 114-54 79-3 82-2 82 19 0 21-5 22-87 25-66 2-87 6-91 18-4 12-2 13 9 3 16-16 149-18 149-3 0 6-22 10-49 10-44 0-49 2-46 20 4 21-9 23-61 13z"/><path d="M1060 1430 l0-60-55 0 c-56 0-69-12-43-38 9-9 8-12-4-12-9 0-19-6-21-12-3-7-6-3-6 10-1 20-6 22-56 22-46 0-55 3-55 18 0 10-9 25-19 34-18 15-20 15-29-6-9-18-11-16-13 19-1 39-2 39-9 10 l-8-30-1 28 c-1 18-6 27-13 24-7-2-12-15-10-28 2-15-5-32-18-44-11-10-20-29-20-42 0-16-6-23-17-22-11 0-13 3-5 6 17 7 15 30-4 37-21 8-49 8-41-1 4-3 2-12-4-20-9-10-7-13 6-13 10 0 15-3 12-7-4-3 1-12 11-19 10-8 12-13 5-14-7 0-13-7-13-15 0-8-4-15-9-15-5 0-12-11-15-25-5-20-13-25-36-25-17 0-30-4-30-10 0-5-7-10-16-10-8 0-12-4-9-10 4-6-8-10-29-10-20 0-37-4-37-10-3-20-4-25-12-37-6-9-2-13 12-13 12 0 20-6 19-12-2-8 10-14 31-16 30-3 33-1 28 17-4 16 0 21 14 21 10 0 19-4 19-9 0-21-13-41-26-41-7 0-29-14-47-30-19-17-43-30-53-31-11 0-14-3-6-6 6-2 10-8 7-12-5-9 115-22 127-15 4 3 8 16 8 30 0 13 5 24 10 24 6 0 10-20 10-45 0-25 5-45 10-45 6 0 10 43 10 110 0 100-2 111-17 108-10-2-21-7-24-12-4-5-12 1-18 13-12 21-10 21 76 22 48 1 100 0 116-1 19-1 27 3 27 15 0 14 3 15 15 5 12-10 15-10 15 1 0 10 4 10 16-2 8-9 19-40 23-70 7-57 16-79 31-79 5 0 11 8 13 18 4 14 5 15 6 1 2-25 37-30 57-8 17 18 13 49-6 49-6 0-10 28-10 68 0 37-4 74-10 82-6 9-5 17 3 22 18 11 77-51 77-82 0-36 6-40 40-27 22 8 27 14 18 24-7 9-7 13 0 13 6 0 16-8 21-17 9-15 12-15 20-4 6 9 11 10 15 2 9-14 106-15 106-1 0 5 6 7 14 4 10-4 12 2 9 23-5 27-5 27 10 8 13-16 17-17 31-6 12 10 16 11 16 1 0-10 3-10 15 0 8 6 19 9 25 5 15-9 60 34 60 57 0 11-4 16-10 13-6-4-10 12-10 39 0 52-17 63-22 14-2-24-7-32-20-30-9 1-19-5-21-15-3-10-5 12-6 48-1 42-6 72-16 85-15 18-15 15-10-36 4-46 3-51-7-32-15 29-26 28-20-3 5-29-24-36-31-7-3 9-5 3-6-14-1-28-51-94-51-67 0 5 9 18 19 27 16 15 19 27 15 70-8 72-22 113-39 113-12 0-15-18-17-86 l-2-86-3 79 c-4 81-19 113-48 102-8-3-15-1-15 4 0 6-4 10-10 10-6 0-10-27-10-60z"/><path d="M670 1090 c0-5 14-10 30-10 l30 0 0-150 c0-143 1-150 20-150 11 0 20 7 20 16 0 8-4 12-10 9-6-4-10 47-10 144 l0 151-40 0 c-22 0-40-4-40-10z"/><path d="M1500 1038 c-1-33-8-67-20-88-11-20-19-28-20-18 0 12-8 15-37 13-21-1-30-1-20 2 9 2 15 9 12 14-4 5-73 9-156 9 l-149 0 0-95 c0-57 4-95 10-95 6 0 10 5 10 11 0 6 18 10 43 9 93-4 97-3 97 29 0 21 8 36 29 50 25 18 44 21 141 21 112 0 112 0 106 23-3 12-6 28-6 35 0 7-4 10-10 7-5-3-10-3-11 2 0 4-1 31-2 60-2 49 0 52 23 56 20 3 19 4-7 6 l-33 1 0-52z"/><path d="M1350 871 c0-6-9-11-20-11-11 0-20-7-20-15 0-8 7-15 15-15 7 0 18-8 24-17 8-15 13-16 30-5 12 6 31 12 43 13 17 0 19 2 8 7-8 4-15 16-15 27 0 15-8 21-32 23-19 2-33-1-33-7z"/><path d="M1475 820 c3-5 1-10-4-10-6 0-11-7-11-16 0-11-5-14-16-10-10 4-14 1-11-6 6-19 157-19 157 0 0 7-4 11-9 7-5-3-12-1-16 5-3 5-17 10-30 10-40 0-38 18 2 23 31 3 28 4-15 5-33 1-51-2-47-8z"/><path d="M958 775 c-6-14-15-25-20-25-4 0-8-13-8-30 0-25 4-30 25-30 24 0 25 3 25 55 0 61-5 67-22 30z"/><path d="M410 756 c0-30 31-86 48-86 6 0 12 9 12 20 0 15 7 20 26 20 21 0 25 4 22 23-2 16-11 23-30 25-16 2-28 8-28 13 0 5-11 9-25 9-20 0-25-5-25-24z"/><path d="M1290 587 c0-7 5-18 11-24 15-15 0-61-22-68-10-4-19-11-19-16 0-5-7-9-15-9-8 0-15-5-15-11 0-8-4-8-14 0-18 15-66 4-66-15 0-8 9-23 20-34 16-16 25-18 45-10 34 13 48 13 40 0-10-16 6-12 51 12 40 21 41 23 36 62-5 39-4 40 13 26 17-14 17-13 10 9-4 15-3 21 3 17 5-3 13 1 16 10 10 26 7 34-13 34-10 0-24 7-31 15-15 18-50 20-50 2z"/></g><g fill="#876b47"><path d="M752 1871 c-7-4-24-6-38-3-17 3-33-3-49-18-13-13-32-23-42-24-62-7-96-21-129-56-22-23-50-41-70-45-18-3-50-22-71-41-38-36-93-70-93-58 0 3-19-12-41-35-23-22-45-41-49-41-4 0-17-16-29-35-11-19-31-40-45-46-14-7-31-28-40-54-9-23-26-51-36-60-15-14-20-31-20-72 0-29 4-53 9-53 5 0 20 15 35 34 14 19 41 44 61 56 20 13 35 30 35 41 0 29 44 94 82 120 18 12 62 51 97 86 35 34 67 61 71 58 5-3 46 22 92 55 107 77 162 105 277 145 83 29 92 34 73 44-24 13-62 14-80 2z"/><path d="M1300 1706 c0-6 26-24 58-40 146-72 279-189 357-315 21-33 41-62 44-62 41-9 52-5 46 15-3 11-7 30-9 42-3 21-24 46-141 172-65 69-156 142-220 175-45 23-135 32-135 13z"/><path d="M1770 1473 c0-5 7-17 15-27 8-11 15-28 15-39 0-10 5-15 10-12 6 3 10-1 10-9 0-9 5-16 11-16 7 0 9-10 5-26-5-18-3-24 5-19 8 5 9 1 4-14-5-17-3-20 11-14 14 5 15 3 5-15-10-19-9-22 8-22 29 0 45-34 30-62-9-17-9-23 0-26 9-3 9-7 0-18-7-8-7-14-1-14 16 0 23-31 11-46-6-8-8-14-3-14 5 0 8-57 7-127 0-71-2-128-3-128-2 0-4-13-5-30-2-16-4-31-5-32-1-2-4-7-5-13-1-5-4-12-5-15-1-3-4-9-5-15-1-5-3-11-4-12-2-2-4-13-7-26-2-13-10-33-16-45-7-12-13-24-14-27-8-28-30-70-36-70-4 0-8-5-8-11 0-15-26-39-34-31-4 3-4-1-1-10 7-16-1-29-67-102-21-22-38-35-38-28 0 6-7 12-15 12-18 0-125-100-125-117 0-21 45-15 66 8 10 11 27 25 36 30 14 8 18 6 18-10 0-22-59-84-183-195-42-38-77-73-77-78 0-4 22-8 49-8 43 0 55 5 87 34 21 20 34 38 29 45-9 15 21 61 39 61 8 0 34 21 58 47 24 25 68 72 98 104 87 92 109 120 143 188 18 35 40 78 49 95 10 17 16 43 13 57-2 16 7 49 26 85 28 58 29 63 29 215 0 97-4 159-11 166-12 12-17 34-18 81-1 24-6 35-19 38-9 3-25 26-35 52-10 26-23 55-29 66-5 10-12 30-14 45-5 25-16 44-47 84-14 17-57 24-57 10z"/><path d="M972 1107 c-18-18-30-36-27-39 3-3-29-43-72-88 l-78-83-6 84-5 84-2-100-2-100 130 130 c88 87 126 132 117 137-18 12-21 11-55-25z"/><path d="M0 393 c0-30 6-43 31-63 22-19 32-36 34-64 2-22 10-46 18-54 13-12 16-9 27 23 11 32 10 39-8 58-11 12-23 38-27 57-8 38-40 80-62 80-8 0-13-13-13-37z"/><path d="M140 226 c-8-22-6-32 12-56 12-17 30-30 40-30 17 0 17 2 1 43-9 23-22 48-29 56-11 12-15 10-24-13z"/><path d="M190 106 c0-3 16-28 36-56 34-47 39-50 80-50 24 0 44 5 44 11 0 11-60 69-72 69-4 0-8-14-10-30 l-3-30-37 46 c-21 26-38 44-38 40z"/></g><g fill="#766f64"><path d="M280 808 c0-12-8-18-25-18-18 0-25-5-25-20 0-11-5-20-11-20-16 0-3-60 27-129 l25-56 18 24 c14 18 23 22 42 16 13-4 26-10 29-14 3-3 19-13 35-22 25-12 30-21 30-50 0-42 10-59 36-59 10 0 19-4 19-10 0-5 7-10 15-10 8 0 15 9 15 20 0 11 5 20 10 20 20 0 9 34-24 70-44 49-84 119-112 194-21 59-23 61-55 58-18-1-36 3-41 10-5 10-8 8-8-4z"/><path d="M680 346 c0-35 13-46 51-46 12 0 19-7 19-20 0-13 7-20 18-20 25 0 42-19 42-47 0-14 6-23 15-23 8 0 15-4 15-9 0-27 34-41 96-41 62 0 64 1 54 20-6 11-15 18-21 15-5-4-9 8-9 24 0 40-16 39-57-1 l-33-32 0 25 c0 13 4 40 10 59 8 27 7 36-5 42-8 5-12 14-10 21 3 8-26 22-83 40-48 15-90 28-94 27-5 0-8-15-8-34z"/></g><g fill="#a88031"><path d="M745 1779 c-4-5-18-14-31-19-13-5-24-16-24-25 0-18 4-18 70-3 37 8 49 16 45 26-3 7-5 18-5 23 0 13-47 11-55-2z"/><path d="M269 1433 c-9-2-22-15-29-29-9-15-19-23-28-19-8 3-21-3-28-12-16-22-18-47-3-37 7 4 9 0 5-14-5-15-1-21 16-25 12-4 23-5 24-4 31 45 74 121 74 132 0 15-3 16-31 8z"/><path d="M804 1360 c0-16 7-20 36-20 57 0 81-10 75-30-8-24 15-37 29-18 15 19 44 29 51 17 8-12 25-2 25 16 0 9-6 12-15 9-8-4-22 0-31 7-14 12-14 14 3 20 10 4-19 8-64 8-45 1-88 3-95 6-9 4-14-2-14-15z"/><path d="M1321 1318 c0-45 3-57 9-43 12 28 12 105 0 105-6 0-10-27-9-62z"/><path d="M1390 1297 c0-33-6-49-25-67-14-13-23-26-20-28 3-3 19 7 35 23 24 23 30 37 30 72 0 24-4 43-10 43-5 0-10-19-10-43z"/><path d="M798 1270 c-6-19-1-31 17-50 25-26 37-56 13-32-15 15-32 16-23 1 4-6 7-55 6-110-1-62 2-99 9-99 5 0 10 5 10 10 0 6 7 10 16 10 12 0 14 4 7 13-10 12-8 165 2 175 3 3-6 17-19 31-13 14-26 37-28 51 l-3 25-7-25z"/><path d="M509 1254 c-11-14-11-18-1-21 6-3 10-9 6-14-3-5 19-9 50-9 31 0 56 5 56 10 0 6 6 10 14 10 9 0 12 7 9 19-7 26-113 30-134 5z"/><path d="M934 1236 c3-14 2-28-4-31-5-3-10-32-10-65 0-76 19-86 69-35 31 31 34 38 23 55-6 11-12 30-12 43 0 27-28 57-54 57-14 0-17-5-12-24z"/><path d="M500 1169 c-43-6-43-6-9-7 28-2 38-8 47-27 11-23 10-25-13-25-27 0-32-9-13-28 10-10 2-12-40-8-31 4-52 2-52-4 0-6 15-10 34-10 30 0 33-2 28-25-5-28 4-31 32-10 11 9 29 12 39 9 16-5 19-3 14 10-4 9-3 16 1 16 4 0 8 24 8 54 1 62-3 65-76 55z"/><path d="M1430 1101 c0-31 4-40 21-44 17-5 20-12 18-49-2-24 2-51 7-60 9-16 10-16 22 2 7 12 8 21 2 25-6 3-10 33-10 66 0 33-4 59-10 59-5 0-10-7-10-15 0-8-4-15-10-15-5 0-10 16-10 35 0 19-4 35-10 35-5 0-10-17-10-39z"/><path d="M1543 1063 c-16-6-18-143-3-143 6 0 10 28 10 65 0 53 3 63 15 59 8-4 15-2 15 4 0 12-21 21-37 15z"/><path d="M1288 889 c-19-14-28-29-27-47 0-24 1-25 9-7 5 11 9 14 9 8 1-7 13-13 27-13 14 0 23 4 19 10-3 6 3 10 14 10 12 0 21 5 21 10 0 6 9 10 19 10 11 0 23-4 26-10 9-15 42-12 48 4 9 22-2 26-72 27-46 0-60 3-46 9 l20 9-20 0 c-11 0-32-9-47-20z"/><path d="M1065 891 c-6-5-9-45-7-90 l4-81 144 0 144 0 0-45 c0-25 5-45 10-45 6 0 10 25 10 55 l0 55-145 0-144 0-3 81 c-2 53-6 77-13 70z"/><path d="M1430 645 c0-16 6-25 16-25 8 0 22-17 31-37 8-21 17-40 19-42 8-8 34 22 34 40 0 23-17 34-34 20-17-14-29 10-19 36 5 12 2 15-10 10-11-4-17-1-17 8 0 8-4 15-10 15-5 0-10-11-10-25z"/><path d="M1070 595 c0-11 11-15 40-15 22 0 40-4 40-10 0-5-16-10-35-10-24 0-35-5-35-15 0-10-10-15-30-15-20 0-30-5-30-15 0-12 15-15 77-15 68 0 80-3 103-25 25-24 70-26 70-3 0 5 4 7 8 4 4-3 16 11 27 30 10 19 23 34 28 34 6 0 0 11-12 24 l-23 25 53-5 c35-3 49-1 40 5-11 7-10 10 5 14 10 2-59 5-153 6-148 1-173-1-173-14z"/><path d="M1427 521 c-31-38-35-61-9-61 32 0 55 35 45 66 l-9 27-27-32z"/></g><g fill="#967b56"><path d="M282 1552 c-20-22-52-49-70-62-38-25-82-90-82-119 0-11-14-28-35-41-19-12-48-38-65-60-28-35-30-44-30-119 0-84 6-95 39-63 37 35 54 96 30 104-22 7 3 50 67 114 35 35 70 77 79 94 8 16 35 54 60 85 25 30 45 61 45 68 0 7 5 18 12 25 9 9 9 12 0 12-7 0-29-17-50-38z"/><path d="M0 524 c0-93 1-96 29-120 19-16 32-38 36-63 4-22 17-49 31-62 l25-23 6 22 c3 13 13 22 24 22 11 0 19 4 19 9 0 4-23 41-50 82-27 41-50 77-50 82 0 4-9 27-19 50-11 24-23 55-26 70-14 55-25 24-25-69z"/><path d="M1593 285 c-39-33-72-47-58-25 12 19-16 10-57-20-22-16-47-30-55-30-7 0-13-10-13-24 0-43-41-90-90-102-32-8-49-19-62-40-10-16-18-32-18-36 0-5 33-8 73-8 l72 0 80 73 c157 142 185 175 185 212 0 19-4 35-8 35-5 0-27-16-49-35z"/><path d="M220 211 c0-5 5-22 10-36 8-21 13-25 24-16 7 6 16 8 19 4 4-3 7 1 7 10 0 9-10 23-22 31-26 18-38 20-38 7z"/><path d="M270 103 c0-39 69-103 111-103 27 0 30 3 23 23-22 70-41 93-74 84-10-3-24 1-31 9-18 22-29 17-29-13z"/></g><g fill="#bd9440"><path d="M966 1811 c-8-12 9-17 72-20 39-2 52 1 52 12 0 10-15 14-59 16-33 1-62-3-65-8z"/><path d="M1100 1802 c0-5 16-13 35-16 20-4 33-11 30-16-3-5 9-5 27 1 18 5 35 9 37 9 3 0 1 4-5 9-14 14-124 25-124 13z"/><path d="M716 1772 c-3-5-26-15-51-22-25-7-45-17-45-21 0-5-5-8-12-6-6 1-14-6-16-15-3-14 3-18 24-18 43 0 95 22 89 38-3 8 3 16 15 19 11 3 20 9 20 14 0 12-18 20-24 11z"/><path d="M1450 1687 c0-8 30-37 68-64 37-28 76-60 86-72 22-24 62-30 49-7-10 17-104 93-160 129-30 19-43 23-43 14z"/><path d="M518 1676 c-9-9-21-16-27-16-6 0-11-4-11-10 0-5-7-10-16-10-8 0-12-4-9-10 3-5 1-10-4-10-6 0-11-9-11-20 0-26 12-25 55 3 34 21 51 53 43 78-3 8-9 7-20-5z"/><path d="M1030 1470 c0-18-7-20-77-20-57 0-81 4-95 17-10 9-18 12-18 7 0-25 28-34 108-34 l84 0-4-30 c-3-20 0-30 9-30 9 0 13 16 13 55 0 30-4 55-10 55-5 0-10-9-10-20z"/><path d="M584 1418 c-81-61-120-118-80-118 23 0 145 111 139 126-7 20-26 17-59-8z"/><path d="M826 1424 c-3-8-2-12 3-9 5 3 12 1 16-5 8-13 175-13 175 0 0 6-33 10-79 10-44 0-83 5-86 10-9 15-22 12-29-6z"/><path d="M764 1334 c-17-14-17-15-1-10 10 3 48 6 83 6 41 0 63 4 59 10-10 17-119 12-141-6z"/><path d="M1007 1328 c-4-15-1-26 9-31 9-5 13-16 9-27-3-10 0-20 9-23 8-3 17-16 20-29 3-13 3-2 2 25-3 36 0 50 13 57 15 8 15 9-1 15-9 4-14 13-11 21 3 10-2 14-20 14-17 0-26-7-30-22z"/><path d="M712 1304 c-2-43-22-70-45-61-8 3-19 2-26-3-9-5-4-10 15-14 42-11 66 19 61 75 l-4 44-1-41z"/><path d="M540 1290 c0-6 28-10 65-10 37 0 65 4 65 10 0 6-28 10-65 10-37 0-65-4-65-10z"/><path d="M842 1233 c25-26 26-33 21-95-4-48-2-68 6-68 7 0 11 25 11 73 0 64-3 76-23 95-34 32-45 27-15-5z"/><path d="M525 1210 l50-7-52-1 c-58-2-74-22-18-22 19 0 35-4 35-10 0-5 19-9 43-9 l42 2-40 7-40 7 35 2 c28 1 36 5 37 21 2 18-4 20-70 18-71-1-71-1-22-8z"/><path d="M1860 1131 c0-25-4-40-10-36-11 7-13-9-4-42 6-22 37-32 47-15 7 10-14 115-24 127-5 5-9-9-9-34z"/><path d="M1586 1103 c4-32 8-110 8-173-1-100-4-125-28-190-16-41-37-89-47-106-17-29-18-33-3-45 18-15 20-13 63 71 47 89 50 114 39 277-5 81-10 165-10 186 0 27-4 37-15 37-13 0-15-9-7-57z"/><path d="M640 1091 c0-23 66-85 83-78 25 10 23 77-2 77-10 0-33 3-50 6-20 4-31 3-31-5z"/><path d="M1070 1090 c0-6 33-10 79-10 66 0 80-3 85-17 20-53 31-63 68-63 20 0 43-3 52-6 13-5 16 3 16 50 l0 56-150 0 c-93 0-150-4-150-10z"/><path d="M558 993 l-3-28-72 3 c-45 3-73 0-73-6 0-6 12-13 28-15 l27-4-27-2 c-38-2-40-41-3-41 18 0 28-7 35-24 5-13 18-27 29-31 27-8 27-25 1-25-11 0-20 7-20 15 0 10-11 15-35 15-25 0-35-4-35-16 0-9-5-12-12-8-8 5-9 0-5-17 4-13 7-30 7-37 0-8 8-10 25-6 15 4 25 2 25-5 0-23 60-11 90 18 36 34 37 45 8 65-17 12-19 16-6 16 9 0 18 7 22 15 9 24 26 17 26-10 0-14 5-25 10-25 12 0 12 20 3 113-5 55-9 67-24 67-12 0-19-9-21-27z"/><path d="M1440 870 c0-5-7-10-15-10-8 0-15-4-15-10 0-6 33-10 80-10 92 0 111 19 23 22 l-58 1 65 7 65 7-72 1 c-43 1-73-2-73-8z"/><path d="M875 688 c-45-43-61-64-62-87-2-22 2-31 14-31 12 0 14-7 9-35-6-31-4-35 14-35 17 0 20 6 20 45 0 25 5 45 10 45 6 0 10-13 10-30 0-16 5-30 10-30 6 0 10-7 10-15 0-8 7-15 15-15 9 0 15 9 15 25 0 14 5 25 10 25 6 0 10-20 10-45 0-38-3-45-20-45-11 0-20-7-20-15 0-8 9-15 19-15 11 0 21-4 23-9 2-5 22-12 46-16 40-6 42-6 42 19 0 25 15 36 22 17 2-5 24-12 51-16 43-7 47-6 41 11-6 16-5 17 7 7 19-18 29-16 22 5-6 16-5 16 13 1 10-9 25-14 32-12 10 4 4 15-19 39-29 30-39 34-86 34-40 0-53-4-53-15 0-10-10-15-30-15-16 0-30-4-30-10 0-5-4-10-9-10-4 0-12 32-18 70 l-9 70 26-25 c14-14 34-25 43-25 9 0 17-7 17-15 0-8 7-15 16-15 10 0 14 6 10 15-4 12 4 15 42 15 33 0 43 3 32 10-13 8-13 9 0 14 8 2 22 7 30 9 8 3-16 6-53 6-40 1-66 5-62 10 3 5-9 11-27 13-18 2-32 8-31 13 3 13-58 75-73 75-7 0-14 10-16 23-3 20-8 17-63-35z"/><path d="M470 631 c0-11 22-44 50-73 46-49 51-52 64-35 9 12 27 17 60 17 32 0 46 4 46 13 0 21-45 37-101 37-45 0-52 3-67 30-19 34-52 41-52 11z"/><path d="M1402 498 c-5-7-12-22-14-33-2-12-10-19-21-17-27 5-97-36-91-53 11-27 59-15 59 15 0 10 8 14 26 12 26-2 69 32 56 44-3 4-2 15 4 25 11 21-3 26-19 7z"/><path d="M830 440 c0-14-7-20-21-20-39 0-13-24 47-41 32-10 53-18 47-18-22-2-14-21 8-21 11 0 18 4 14 9-3 5-1 12 5 16 17 11 11 25-15 37-14 6-25 15-25 20 0 15-27 38-44 38-9 0-16-8-16-20z"/></g><g fill="#90877c"><path d="M290 610 c-11-11-20-26-20-33 0-27 99-154 174-224 85-79 205-147 323-183 71-21 118-20 110 3-3 7-10 11-16 9-6-1-11 2-11 8 0 5-7 10-15 10-9 0-15 9-15 23 0 28-17 47-42 47-11 0-18 7-18 20 0 14-7 20-22 20-13 0-28 4-35 8-13 8-14 52-1 52 21 0 4 18-34 37-24 11-64 40-90 63-41 36-50 40-62 28-8-8-16-23-19-34-4-17-5-17-6-1-1 13-6 17-20 12-24-7-34 8-35 54-1 29-7 38-31 51-16 8-32 17-35 20-3 3-17 11-33 18-24 10-30 9-47-8z"/></g><g fill="#b0956a"><path d="M886 1781 c2-3-35-14-83-26-49-12-105-29-127-38-43-19-73-22-78-8-6 18-68-17-68-39 0-11-5-20-11-20-5 0-8-3-5-8 2-4-11-17-30-30-27-18-34-19-34-7 0 8-4 15-10 15-5 0-10-3-10-8 0-4-10-12-22-17-13-6-22-16-20-23 1-7-3-12-8-12-16 0-70-52-64-61 3-5-2-9-11-9-11 0-15-5-11-15 3-9 0-15-9-15-17 0-20-16-5-25 6-3 10-15 10-26 0-10 2-19 5-19 3 0 47 42 98 93 109 108 210 172 344 217 155 51 350 56 506 13 41-11 61-13 69-5 7 7-14 18-73 37-65 20-114 28-221 33-75 4-134 5-132 3z"/><path d="M990 1690 c-11-11-20-29-20-40 0-44 61-75 100-50 12 8 12 10-2 15-10 4-21 4-27 1-9-6-41 19-41 32 1 21 20 34 44 30 30-6 46 10 25 23-24 15-58 10-79-11z"/><path d="M1095 1676 c-19-29-10-54 23-63 32-8 56 7 60 37 7 47-56 67-83 26z"/><path d="M1196 1645 c-4-20-4-40-1-45 3-6 1-10-4-10-6 0-11-7-11-15 0-8 6-15 13-15 8 0 18 21 25 51 15 64 15 69-2 69-8 0-17-15-20-35z"/><path d="M1245 1636 c-8-19-15-39-15-44 0-8 45-22 72-22 11 0 38 62 32 72-10 16-22 7-33-23-13-38-35-29-27 12 8 42-12 46-29 5z"/><path d="M844 1550 c-38-10-87-25-108-34-35-15-37-17-21-32 14-15 21-15 56-4 25 8 38 18 35 26-11 29 208 47 319 25 102-20 238-82 229-104-3-8 12-25 36-42 50-34 110-100 110-120 0-7 6-18 14-22 7-4 18-18 25-30 15-29 37-29 44-1 4 16-7 39-38 84-61 85-124 137-230 189-165 83-322 104-471 65z"/><path d="M117 1308 c-63-66-85-112-60-127 14-7 15-13 4-39-7-17-24-39-37-49 l-24-18 0-226 c0-231 5-269 47-348 7-15 13-30 13-36 0-14 103-165 112-165 5 0 17-19 27-43 10-24 30-51 45-60 18-12 26-26 26-46 0-34 31-65 58-57 22 7 45-16 59-59 l10-30 136-3 c89-2 137 1 137 8 0 5-4 10-9 10-5 0-19 16-31 35-18 28-28 35-54 35-22 0-40 8-56 25-13 14-34 25-46 25-40 0-54 11-54 41 0 23-8 34-35 50-19 11-44 36-56 56-12 19-33 45-47 58-14 13-35 43-46 67-12 25-29 45-41 47-31 5-49 40-51 96 0 27-8 66-16 85-18 41-14 60 12 60 29 0 33 17 14 66-24 64-15 314 16 392 24 63 25 82 4 82-8 0-12-4-9-10 3-5-1-10-9-10-9 0-16-5-16-12 0-6-3-9-6-5-7 7 24 106 38 124 6 7 8 18 5 25-3 8-25-8-60-44z"/><path d="M1750 1299 c0-5 9-28 21-50 40-80 61-186 63-329 3-153-10-212-85-368-21-46-39-87-39-93 0-28 59 20 60 49 0 6 4 12 8 12 7 0 27 43 29 64 1 5 5 12 10 15 14 9 41 91 48 146 4 28 13 75 21 105 8 30 14 83 14 118 0 55-3 65-19 69-15 4-23 23-36 81-21 93-57 177-79 185-9 4-16 2-16-4z"/><path d="M600 628 c0-24 7-26 123-32 85-4 97-2 97 12 0 15-11 17-86 14-54-2-84 0-80 6 3 5-8 12-24 14-24 4-30 1-30-14z"/><path d="M1387 189 c-41-24-188-67-270-79-48-7-87-18-87-24-1-6-28-23-60-38-33-15-60-32-60-37 0-7 57-11 169-11 l169 0 19 32 c14 24 29 34 63 42 49 12 90 59 90 102 0 26-6 29-33 13z"/></g><g fill="#d8b258"><path d="M907 1814 c-3-3-19-6-36-6-17-1-31-5-31-9 0-5-7-6-15-3-10 4-15 0-15-11 0-11 6-15 18-11 28 9 78 16 121 18 37 1 59 16 29 19-7 1-25 3-40 4-14 2-28 1-31-1z"/><path d="M1200 1782 c0-5 26-16 58-26 31-10 87-34 124-52 76-38 78-39 78-21 0 15-58 46-152 82-67 25-108 32-108 17z"/><path d="M812 1678 c-17-17-15-64 4-82 21-22 60-20 84 4 24 24 25 38 4 68-17 25-71 31-92 10z m72-30 c13-22-14-54-38-45-16 6-22 48-9 61 11 11 35 3 47-16z"/><path d="M1620 1544 c0-3 25-34 56-67 31-34 63-74 72-89 17-30 32-36 32-15 0 19-43 78-101 139-33 34-59 48-59 32z"/><path d="M837 1514 c-32-7-67-19-79-25-15-8-22-8-28 1-5 9-18 7-47-8-49-26-65-43-53-62 7-11 19-8 67 18 32 17 95 41 138 53 144 39 348 11 479-66 105-62 197-162 244-265 24-54 25-55 33-27 8 30-7 80-22 71-5-3-14 6-21 20-6 14-15 26-19 26-5 0-15 15-23 33-32 77-207 190-352 227-91 24-230 25-317 4z"/><path d="M481 1495 c2-11 0-26-4-32-5-8-3-13 6-13 8 0 18-8 21-17 5-11 10-13 14-7 4 6 16 14 27 18 13 5 15 10 8 13-7 3-13 14-13 25 0 14-5 18-16 14-9-4-23-1-31 6-12 10-14 9-12-7z"/><path d="M810 1412 c0-25 29-32 130-30 l105 2-103 3 c-79 3-104 7-109 18-5 16-23 21-23 7z"/><path d="M1780 1340 c0-6 11-32 24-58 13-26 31-71 40-99 21-64 30-68 24-10-8 67-88 219-88 167z"/><path d="M515 1320 c-3-5-11-7-18-4-20 7-81-85-83-126-1-19-12-66-23-105-14-46-21-97-21-153 0-53-4-81-10-77-14 9-13-11 5-79 59-227 280-425 514-461 28-5 41-4 37 3-3 6 39 12 112 16 199 12 263 25 268 59 1 9 1 17-1 17-2 0-44-14-93-30-159-53-344-37-497 43-59 31-225 183-225 206 0 20 15 11 32-19 16-27 22-30 70-30 29-1 64-7 78-15 24-14 23-14-27-15-65 0-68-14-10-56 68-51 138-85 179-89 35-3 38-1 38 21 0 13 4 24 8 24 5 0 7-13 4-30-5-35 5-40 18-7 l9 22 0-23 c1-13 5-21 10-18 5 3 20-4 35-15 14-11 31-17 38-13 6 4 34 6 61 5 35-1 55 3 68 15 15 13 19 14 19 3 1-10 5-9 15 5 7 10 18 15 23 12 6-3 12 1 15 9 5 10-6 16-41 21-37 5-43 9-27 15 15 6 8 8-25 10 l-45 2 38 4 c29 3 37 8 33 19-3 8 1 15 12 16 9 0-5 4-33 8-45 6-42 7 35 9 54 1 80 5 70 10-8 5-34 8-58 8-28-1-42 2-42 11 0 6-9 12-19 12-10 0-33 16-50 35-28 33-50 48-36 25 3-5 1-10-4-10-6 0-12 6-12 13-1 6-5-6-9-28 l-7-40-3 50 c-3 46-4 44-10-25 l-6-75-4 80-3 80-7-65-7-65-1 63 c-2 61-22 91-22 32 0-16-4-30-10-30-5 0-10-20-10-45 0-25-3-45-7-45-5 0-7 24-6 52 1 29 0 45-3 36-8-28-22-21-16 7 2 15 0 25-7 25-6 0-11-6-11-12 0-10-23-12-87-10-49 1-94 5-100 7-9 3-13 36-14 112 0 90-14 226-18 186 0-7-7-10-15-7-9 3-17-3-21-15-4-12-12-18-21-14-9 3-14-1-14-11 0-14-4-15-20-6-11 6-18 15-15 20 11 17-18 36-47 32-36-5-36-19 0-25 l27-4-27-2 c-21-1-28-6-28-21 0-16 7-20 30-20 20 0 30-5 30-15 0-10 10-15 30-15 21 0 30 5 30 16 0 13 3 14 15 4 22-18 9-30-33-31-30-2-32-3-9-6 23-4 25-6 13-19-8-8-27-15-43-15 l-28-1 29-7 c38-8 47-31 12-31-20 0-26-5-26-22 0-42-36 32-54 110-39 171-6 329 98 465 20 26 36 49 36 52 0 9-19 5-25-5z m467-808 c3-57 5-62 26-62 23 0 41-25 27-38-4-4-10-1-12 5-3 8-14 11-29 7-15-4-24-2-24 5 0 6-10 12-22 12-23 2-23 2 1 6 22 4 23 8 19 74-2 38 0 65 4 61 4-4 9-36 10-70z"/><path d="M774 1312 c-6-4-13-29-16-55-4-37-3-47 7-43 8 3 19-2 25-10 7-8 17-14 23-14 6 0 1 10-11 23-24 26-29 66-10 85 17 17 90 15 114-2 19-15 19-15 0-29-19-14-19-16-3-31 9-10 17-29 17-44 l0-26 16 22 c9 13 14 32 11 43-3 10-2 19 2 19 17 0 41-38 41-63 0-15 5-27 10-27 6 0 10 13 10 28 0 20-14 42-53 80-52 51-54 52-112 52-33 0-65-4-71-8z"/><path d="M1050 1301 c0-6 7-11 15-11 11 0 15-11 15-43 0-33 6-49 23-65 34-32 46-27 15 6-19 19-28 40-30 72-2 33-8 46-20 48-10 2-18-1-18-7z"/><path d="M640 1038 c0-62 2-68 36-102 54-54 64-49 64 35 0 60-2 70-14 60-11-9-21-3-50 30 l-36 43 0-66z"/><path d="M1130 1079 c0-6 4-18 9-28 5-9 7-22 3-28-8-13-77-21-88-10-4 4-21 7-39 7-24 0-42-12-83-53-29-29-52-57-52-63 0-5 27-16 60-23 59-13 60-13 92 14 20 17 35 40 38 59 l5 31 148 3 c93 2 146 6 142 12-3 6-27 10-53 11-35 0-42 3-27 9 15 6 16 9 4 9-21 1-53 37-44 50 4 7-14 11-54 11-37 0-61-4-61-11z"/><path d="M410 1041 c0-5 10-12 23-14 l22-4-22-2 c-34-2-28-18 10-24 38-6 57 7 50 33-4 16-14 20-44 20-22 0-39-4-39-9z"/><path d="M1867 828 c-13-52-19-122-11-115 5 5 10 13 10 18 1 5 2 10 4 12 2 3 10 37 15 75 5 36-10 44-18 10z"/><path d="M1230 699 c0-22-5-32-20-36-11-3-20-12-20-19 0-11 20-14 88-14 l87 0-3 50-4 50-64 0-64 0 0-31z"/><path d="M1032 593 c25-27 32-29 24-8-4 13 9 15 87 16 112 2 96 7-35 11 l-98 4 22-23z"/><path d="M1220 572 c0-10 73-82 83-82 4 0 7 7 7 15 0 8-6 15-14 15-8 0-26 14-39 30-26 30-37 37-37 22z"/></g><g fill="#cab288"><path d="M1175 1730 c11-5 45-16 75-25 45-14 98-37 194-83 5-3 6 1 2 7-19 30-219 112-270 110-21 0-21 0-1-9z"/><path d="M736 1648 c-9-12-16-28-16-35 0-20-17-15-23 7-3 11-12 20-20 20-13 0-13-6 1-50 9-28 22-50 29-50 8 0 21 17 30 38 l16 37 9-27 c5-16 17-28 25-28 9 0 13 6 10 14-3 8-11 32-18 55-14 47-22 50-43 19z"/><path d="M1453 1493 c3-13 1-26-4-29-14-8-11-24 5-24 8 0 16-6 19-12 3-10 8-9 18 3 8 9 21 19 29 22 10 4 8 6-7 6-12 1-31 13-43 29-20 25-21 25-17 5z"/><path d="M616 1450 c-77-52-139-114-184-185-37-59-73-143-62-150 4-3 20 19 34 50 27 60 101 167 138 202 19 18 91 67 174 120 18 11 18 12-3 12-12 1-55-22-97-49z"/><path d="M256 1367 c-20-31-39-64-43-72-3-10-12-13-25-9-14 4-18 2-14-5 4-6 2-11-4-11-6 0-8-4-5-10 3-5 1-10-4-10-6 0-11-4-11-10 0-5 6-10 13-10 10 0 12-15 9-62-5-74 7-70 33 12 20 61 58 141 87 182 14 20 16 32 10 45-8 14-16 8-46-40z"/><path d="M1565 1217 c3-12 18-47 33-77 23-47 27-70 30-165 5-161-26-272-112-397-14-21-21-40-16-43 9-6 59 65 93 132 34 65 67 204 67 278 0 85-22 188-51 244-23 45-54 65-44 28z"/><path d="M1826 811 c-4-5-17-48-31-96-66-228-216-409-420-506-81-39-215-79-266-79-32 0-42-10-25-25 12-12 29-11 101 3 27 6 53 8 57 6 5-3 8-1 8 4 0 4 26 16 57 26 104 33 236 113 294 178 9 10 22 18 28 18 7 0 9 4 6 10-3 5 1 10 10 10 9 0 13 5 10 10-3 6 1 10 10 10 9 0 13 5 10 10-3 6 0 10 8 10 14 0 32 27 29 43-1 4 2 7 6 7 5 0 9 6 9 13 0 6 16 46 36 87 39 81 87 221 87 251 0 20-15 26-24 10z"/><path d="M133 713 c-31-6-37-35-17-80 9-21 16-60 16-88 0-54 20-90 54-96 11-2 28-23 40-47 11-24 32-54 46-67 14-13 35-39 47-58 12-20 37-45 56-56 27-16 35-27 35-50 0-30 14-41 54-41 12 0 33-11 46-25 16-17 34-25 56-25 26 0 36-7 53-34 12-19 28-37 37-40 9-3 68-6 131-6 110 0 119 2 183 33 37 17 70 40 73 49 4 16-2 18-46 18-108 0-296 46-374 91-36 20-46 22-62 12-18-11-27-7-73 34-29 25-55 54-58 64-3 9-40 54-82 98-43 45-78 88-78 96 0 8-4 15-9 15-5 0-12 11-15 25-4 14-10 25-14 25-4 0-21 36-37 80-17 44-32 79-35 79-3-1-15-4-27-6z"/><path d="M1412 465 c-28-24-48-46-44-49 10-6 110 79 102 87-3 3-29-15-58-38z"/><path d="M1285 388 c-61-21-140-61-128-65 17-6 96 21 153 52 47 25 32 33-25 13z"/></g><g fill="#f1c65c"><path d="M1015 1050 l-50-50 33 6 c41 8 62-9 62-52 0-19 5-34 10-34 6 0 10 18 10 40 l0 40 83 2 c57 1 67 3 32 5-30 3-44 7-36 12 11 7 10 13-3 33-9 14-13 28-9 31 3 4-8 7-25 7-16 0-36 2-44 5-7 3-35-17-63-45z"/><path d="M640 935 c0-48 6-54 75-71 23-6 25-4 25 32 0 28-3 35-10 24-7-12-13-9-30 13-12 15-30 32-41 37-17 10-19 7-19-35z"/><path d="M839 876 c-44-40-56-76-24-76 7 0 15-7 19-15 12-32 80-11 139 44 32 31 53 72 28 56-10-6-103 16-111 26-3 4-26-12-51-35z"/><path d="M1016 842 l-37-39 25-16 c13-9 27-26 31-37 3-11 13-20 21-20 11 0 14 17 14 75 0 41-4 75-8 75-4 0-25-17-46-38z"/><path d="M1090 716 c0-7 7-19 15-26 8-7 15-21 15-31 0-15 7-19 34-19 69 0 101 25 89 69-5 19-13 21-79 21-56 0-74-3-74-14z"/></g><g fill="#e3ce9a"><path d="M1446 1622 c5-5 36-29 69-54 127-96 222-229 275-384 33-95 34-105 34-250 0-115 3-148 12-136 19 26 10 254-14 343-34 127-101 246-197 348-52 56-159 141-178 141-7 0-7-3-1-8z"/><path d="M170 1193 c0-6-10-9-22-6-21 4-22 3-5-10 20-16 13-49-9-40-8 3-14 0-14-6 0-6 6-11 13-11 8 0 7-4-3-10-12-8-13-12-2-19 10-6 15-44 19-130 3-66 9-121 13-121 8 0 23 351 15 358-3 3-5 1-5-5z"/><path d="M352 1079 c-14-59-16-235-3-243 5-3 11 49 14 117 3 67 9 134 13 150 3 15 2 27-3 27-5 0-15-23-21-51z"/><path d="M630 876 c0-151 4-236 10-236 6 0 10 83 10 229 0 143-4 232-10 236-7 4-10-75-10-229z"/><path d="M858 315 c9-5 76-10 149-10 75 0 136 4 142 10 7 7-43 10-149 10-110 0-153-3-142-10z"/><path d="M420 293 c1-20 104-113 125-113 12 0 42 28 34 33-2 1-36 24-75 50-39 26-74 47-77 47-4 0-7-8-7-17z"/><path d="M1024 255 c-34-51 22-118 81-98 37 12 30 28-13 28-33 0-37 3-40 29-4 35 13 48 52 40 21-5 27-3 24 7-3 8-22 15-46 17-35 3-43-1-58-23z"/><path d="M792 134 c2-11 16-21 38-26 59-12 123-21 160-21 97 1 110 3 110 18 0 12-15 15-72 15-68 0-178 13-221 26-14 5-18 1-15-12z"/></g><g fill="#f8da79"><path d="M1061 953 c-2-22-135-150-170-163-30-12-35-12-46 3-7 9-17 17-24 17-6 0-11 7-11 15 0 22-16 18-38-10-27-34-32-32-32 18 0 36-3 43-20 44-11 1-34 9-51 17 l-31 16 4-60 c5-66 22-93 76-115 23-10 38-26 50-55 l17-40 143 143 c107 107 143 149 139 163-3 11-5 14-6 7z"/><path d="M979 803 c0-5 0-35 1-68 2-91 20-105 132-105 52 0 88 4 88 10 0 6-16 10-35 10-24 0-33 4-29 13 2 7-4 21-15 31-11 10-18 23-15 27 3 5-4 9-15 9-13 0-21 7-21 18 0 14-2 15-10 2-7-11-10-11-10-2 0 27-68 79-71 55z"/></g><g fill="#f9eaab"><path d="M642 879 c-1-159-5-228-14-237-9-9 6-12 70-12 94 0 102 7 78 64-10 25-26 41-48 51-67 28-72 41-79 209-5 148-5 147-7-75z"/><path d="M137 1050 c-4-14-7-51-7-82 0-45-3-57-17-61-17-4-17-5 0-6 19-1 24-21 5-21-10 0-9-3 1-9 11-7 11-10 0-15-11-5-11-7-1-12 10-5 10-9 1-20-8-10-8-14-1-14 6 0 9-7 6-15-4-8-1-15 5-15 6 0 8-7 5-15-4-8-1-15 6-15 6 0 8-4 5-10-3-5-2-10 4-10 5 0 8-11 6-25-1-14 1-25 6-25 5 0 6-7 3-15-4-8-1-15 6-15 6 0 8-4 5-10-3-5-1-10 5-10 7 0 10-7 6-15-3-8-1-15 4-15 5 0 12-10 16-22 3-12 13-28 20-36 8-7 14-20 14-28 0-8 5-14 11-14 6 0 9-7 5-15-3-8-1-15 4-15 6 0 10-7 10-16 0-8 5-12 10-9 6 3 10-2 10-11 0-10 2-15 5-12 3 3 32-21 63-54 61-65 145-128 230-173 28-16 52-33 52-38 0-6 3-8 6-5 3 3 40-5 82-18 94-29 108-30 83-5-10 10-44 26-76 36-333 105-570 427-576 780 0 44-4 91-8 105 l-7 25-7-25z"/><path d="M351 838 c-1-47 36-151 80-224 19-31 66-86 105-123 67-65 177-135 198-128 6 2-19 19-54 37-140 73-267 238-309 402-16 62-19 67-20 36z"/><path d="M970 751 c0-28-4-53-10-56-5-3 6-20 26-37 39-34 59-31 26 5-17 18-22 36-22 80 0 31-4 57-10 57-5 0-10-22-10-49z"/><path d="M866 249 c-17-85 1-106 49-59 l34 33 3-33 c5-57 25-46 31 17 8 78-4 86-53 38 l-40-39 0 37 c0 45-15 49-24 6z"/></g></svg>