<svg xmlns="http://www.w3.org/2000/svg" xmlns:xlink="http://www.w3.org/1999/xlink" width="256" height="256" viewBox="0 0 256 256"><defs><linearGradient id="a" x1="0.843" y1="0.135" x2="0.206" y2="0.886" gradientUnits="objectBoundingBox"><stop offset="0" stop-color="#b6509e"/><stop offset="1" stop-color="#2ebac6"/></linearGradient><clipPath id="c"><rect width="256" height="256"/></clipPath></defs><g id="b" clip-path="url(#c)"><g transform="translate(-20 -20)"><path d="M128,256a128.976,128.976,0,0,1-25.8-2.6,127.309,127.309,0,0,1-45.77-19.261,128.366,128.366,0,0,1-46.375-56.315A127.357,127.357,0,0,1,2.6,153.8a129.251,129.251,0,0,1,0-51.593,127.31,127.31,0,0,1,19.26-45.77A128.372,128.372,0,0,1,78.177,10.059,127.33,127.33,0,0,1,102.2,2.6a129.244,129.244,0,0,1,51.593,0,127.308,127.308,0,0,1,45.77,19.26,128.367,128.367,0,0,1,46.375,56.316A127.343,127.343,0,0,1,253.4,102.2a129.248,129.248,0,0,1,0,51.593,127.3,127.3,0,0,1-19.26,45.77,128.382,128.382,0,0,1-56.316,46.375A127.4,127.4,0,0,1,153.8,253.4,128.977,128.977,0,0,1,128,256Zm0-242.287a115.145,115.145,0,0,0-23.033,2.322A113.657,113.657,0,0,0,64.1,33.232,114.622,114.622,0,0,0,22.7,83.515a113.7,113.7,0,0,0-6.659,21.452,115.4,115.4,0,0,0,0,46.065,113.66,113.66,0,0,0,17.2,40.866,114.627,114.627,0,0,0,50.282,41.407,113.75,113.75,0,0,0,21.453,6.658,115.381,115.381,0,0,0,46.065,0,113.609,113.609,0,0,0,40.866-17.2A114.622,114.622,0,0,0,233.3,172.485a113.741,113.741,0,0,0,6.659-21.453,115.4,115.4,0,0,0,0-46.065,113.662,113.662,0,0,0-17.2-40.865A114.619,114.619,0,0,0,172.485,22.7a113.74,113.74,0,0,0-21.453-6.659A115.145,115.145,0,0,0,128,13.714Z" transform="translate(20 20)" fill="url(#a)"/><g transform="translate(78.971 49.714)"><path d="M20,61.588l73.3,41.989a3.87,3.87,0,0,0,5.864-3.343V22.883A3.841,3.841,0,0,0,93.3,19.57Z" transform="translate(38.645 36.703)" fill="#31cb9e"/><path d="M93.683,37.681,43.572.823A3.988,3.988,0,0,0,37.3,2.935L19,85.036,93.243,43.985a3.695,3.695,0,0,0,.44-6.3" transform="translate(36.713 0.001)" fill="#31cb9e"/><path d="M43.513,122.3l50.17-36.858a3.753,3.753,0,0,0-.411-6.392L19,38l18.3,82.1a3.958,3.958,0,0,0,6.216,2.258" transform="translate(36.713 73.427)" fill="#31cb9e"/><path d="M39.585,94.713,58.645,5.574A3.783,3.783,0,0,0,52.78,1.733L3.959,39.177A10.116,10.116,0,0,0,0,47.241v95a10.116,10.116,0,0,0,3.958,8.181l48.586,37.327a3.783,3.783,0,0,0,5.864-3.841Z" transform="translate(0 2.053)" fill="#31cb9e"/></g></g></g></svg>