<svg width="551" height="551" viewBox="0 0 551 551" fill="none" xmlns="http://www.w3.org/2000/svg">
<mask id="path-1-outside-1_302_2" maskUnits="userSpaceOnUse" x="0.193359" y="0.0625" width="551" height="551" fill="black">
<rect fill="white" x="0.193359" y="0.0625" width="551" height="551"/>
<path d="M545.334 275.133C545.334 424.288 424.419 545.203 275.264 545.203C126.108 545.203 5.19336 424.288 5.19336 275.133C5.19336 125.977 126.108 5.0625 275.264 5.0625C424.419 5.0625 545.334 125.977 545.334 275.133Z"/>
</mask>
<path d="M545.334 275.133C545.334 424.288 424.419 545.203 275.264 545.203C126.108 545.203 5.19336 424.288 5.19336 275.133C5.19336 125.977 126.108 5.0625 275.264 5.0625C424.419 5.0625 545.334 125.977 545.334 275.133Z" fill="#00A5FF"/>
<path d="M545.334 275.133C545.334 424.288 424.419 545.203 275.264 545.203C126.108 545.203 5.19336 424.288 5.19336 275.133C5.19336 125.977 126.108 5.0625 275.264 5.0625C424.419 5.0625 545.334 125.977 545.334 275.133Z" stroke="white" stroke-width="10" mask="url(#path-1-outside-1_302_2)"/>
<g filter="url(#filter0_d_302_2)">
<path fill-rule="evenodd" clip-rule="evenodd" d="M275.265 523.425C412.392 523.425 523.557 412.261 523.557 275.133C523.557 138.005 412.392 26.8407 275.265 26.8407C138.137 26.8407 26.9726 138.005 26.9726 275.133C26.9726 412.261 138.137 523.425 275.265 523.425ZM275.265 538.425C420.677 538.425 538.557 420.545 538.557 275.133C538.557 129.721 420.677 11.8408 275.265 11.8408C129.852 11.8408 11.9727 129.721 11.9727 275.133C11.9727 420.545 129.852 538.425 275.265 538.425Z" fill="white"/>
</g>
<mask id="path-3-inside-2_302_2" fill="white">
<path fill-rule="evenodd" clip-rule="evenodd" d="M303.813 182.548C327.655 171.691 344.23 147.656 344.23 119.75C344.23 81.6616 313.353 50.7847 275.264 50.7847C237.175 50.7847 206.299 81.6616 206.299 119.75C206.299 147.653 222.87 171.686 246.708 182.544V224.705C241.194 227.217 236.068 230.434 231.447 234.24L185.071 213.673C185.084 213.22 185.09 212.766 185.09 212.311C185.09 186.102 163.844 164.856 137.636 164.856C111.428 164.856 90.1816 186.102 90.1816 212.311C90.1816 231.485 101.554 248.003 117.921 255.489L125.879 339.491C114.779 347.236 107.516 360.101 107.516 374.663C107.516 398.332 126.704 417.519 150.373 417.519C174.042 417.519 193.229 398.332 193.229 374.663C193.229 357.835 183.53 343.272 169.416 336.26L161.516 257.402L206.794 279.191C206.467 281.915 206.298 284.688 206.298 287.5C206.298 315.403 222.87 339.436 246.708 350.294V411.299C234.494 420.151 226.55 434.532 226.55 450.769C226.55 477.672 248.359 499.481 275.262 499.481C302.164 499.481 323.973 477.672 323.973 450.769C323.973 434.531 316.028 420.149 303.813 411.298V350.297C327.655 339.441 344.229 315.406 344.229 287.5C344.229 284.688 344.061 281.915 343.734 279.19L388.02 257.402L381.111 336.259C366.998 343.271 357.299 357.834 357.299 374.663C357.299 398.332 376.486 417.519 400.155 417.519C423.824 417.519 443.011 398.332 443.011 374.663C443.011 360.101 435.749 347.236 424.649 339.491L432.606 255.488C448.974 248.003 460.346 231.485 460.346 212.31C460.346 186.102 439.1 164.856 412.892 164.856C386.683 164.856 365.437 186.102 365.437 212.31C365.437 212.766 365.444 213.22 365.457 213.673L319.081 234.24C314.458 230.432 309.33 227.214 303.813 224.702V182.548Z"/>
</mask>
<path fill-rule="evenodd" clip-rule="evenodd" d="M303.813 182.548C327.655 171.691 344.23 147.656 344.23 119.75C344.23 81.6616 313.353 50.7847 275.264 50.7847C237.175 50.7847 206.299 81.6616 206.299 119.75C206.299 147.653 222.87 171.686 246.708 182.544V224.705C241.194 227.217 236.068 230.434 231.447 234.24L185.071 213.673C185.084 213.22 185.09 212.766 185.09 212.311C185.09 186.102 163.844 164.856 137.636 164.856C111.428 164.856 90.1816 186.102 90.1816 212.311C90.1816 231.485 101.554 248.003 117.921 255.489L125.879 339.491C114.779 347.236 107.516 360.101 107.516 374.663C107.516 398.332 126.704 417.519 150.373 417.519C174.042 417.519 193.229 398.332 193.229 374.663C193.229 357.835 183.53 343.272 169.416 336.26L161.516 257.402L206.794 279.191C206.467 281.915 206.298 284.688 206.298 287.5C206.298 315.403 222.87 339.436 246.708 350.294V411.299C234.494 420.151 226.55 434.532 226.55 450.769C226.55 477.672 248.359 499.481 275.262 499.481C302.164 499.481 323.973 477.672 323.973 450.769C323.973 434.531 316.028 420.149 303.813 411.298V350.297C327.655 339.441 344.229 315.406 344.229 287.5C344.229 284.688 344.061 281.915 343.734 279.19L388.02 257.402L381.111 336.259C366.998 343.271 357.299 357.834 357.299 374.663C357.299 398.332 376.486 417.519 400.155 417.519C423.824 417.519 443.011 398.332 443.011 374.663C443.011 360.101 435.749 347.236 424.649 339.491L432.606 255.488C448.974 248.003 460.346 231.485 460.346 212.31C460.346 186.102 439.1 164.856 412.892 164.856C386.683 164.856 365.437 186.102 365.437 212.31C365.437 212.766 365.444 213.22 365.457 213.673L319.081 234.24C314.458 230.432 309.33 227.214 303.813 224.702V182.548Z" fill="white" stroke="#00A5FF" stroke-width="20" mask="url(#path-3-inside-2_302_2)"/>
<g filter="url(#filter1_d_302_2)">
<path fill-rule="evenodd" clip-rule="evenodd" d="M275.264 53.7847C238.832 53.7847 209.299 83.3184 209.299 119.75C209.299 146.435 225.144 169.426 247.951 179.814L249.708 180.614V226.636L247.951 227.436C242.678 229.837 237.776 232.914 233.354 236.556L231.924 237.734L182.016 215.6L182.072 213.588C182.084 213.164 182.09 212.738 182.09 212.311C182.09 187.759 162.187 167.856 137.636 167.856C113.085 167.856 93.1816 187.759 93.1816 212.311C93.1816 230.268 103.83 245.745 119.169 252.761L120.745 253.481L129.031 340.95L127.596 341.952C117.265 349.159 110.516 361.123 110.516 374.663C110.516 396.675 128.361 414.519 150.373 414.519C172.385 414.519 190.229 396.675 190.229 374.663C190.229 359.017 181.214 345.471 168.082 338.946L166.587 338.204L157.447 251.779L210.037 277.347L209.772 279.548C209.459 282.154 209.298 284.807 209.298 287.5C209.298 314.185 225.144 337.175 247.951 347.564L249.708 348.364V412.83L248.468 413.729C237 422.04 229.55 435.534 229.55 450.769C229.55 476.015 250.016 496.481 275.262 496.481C300.508 496.481 320.973 476.015 320.973 450.769C320.973 435.533 313.523 422.038 302.053 413.727L300.813 412.829V348.367L302.57 347.567C325.381 337.18 341.229 314.187 341.229 287.5C341.229 284.807 341.068 282.154 340.755 279.548L340.491 277.347L390.881 251.779L383.941 338.204L382.446 338.946C369.314 345.471 360.299 359.017 360.299 374.663C360.299 396.675 378.143 414.519 400.155 414.519C422.167 414.519 440.011 396.675 440.011 374.663C440.011 361.123 433.263 349.159 422.932 341.952L421.497 340.95L429.783 253.481L431.359 252.76C446.698 245.745 457.346 230.268 457.346 212.31C457.346 187.759 437.443 167.856 412.892 167.856C388.34 167.856 368.437 187.759 368.437 212.31C368.437 212.738 368.443 213.164 368.455 213.588L368.512 215.6L318.604 237.734L317.174 236.556C312.75 232.912 307.845 229.835 302.57 227.433L300.813 226.633V180.617L302.57 179.817C325.381 169.43 341.23 146.438 341.23 119.75C341.23 83.3184 311.696 53.7847 275.264 53.7847ZM203.299 119.75C203.299 80.0047 235.519 47.7847 275.264 47.7847C315.01 47.7847 347.23 80.0047 347.23 119.75C347.23 148.184 330.74 172.76 306.813 184.449V222.801C311.341 225.013 315.601 227.685 319.534 230.758L362.441 211.729C362.753 184.131 385.221 161.856 412.892 161.856C440.757 161.856 463.346 184.445 463.346 212.31C463.346 232.079 451.977 249.186 435.433 257.461L427.797 338.071C438.857 346.439 446.011 359.715 446.011 374.663C446.011 399.989 425.481 420.519 400.155 420.519C374.829 420.519 354.299 399.989 354.299 374.663C354.299 357.254 364 342.116 378.279 334.352L383.941 261.421L346.944 281.049C347.133 283.174 347.229 285.326 347.229 287.5C347.229 315.934 330.74 340.51 306.813 352.199V409.795C319.069 419.246 326.973 434.085 326.973 450.769C326.973 479.329 303.821 502.481 275.262 502.481C246.702 502.481 223.55 479.329 223.55 450.769C223.55 434.086 231.453 419.248 243.708 409.797V352.195C219.785 340.505 203.298 315.931 203.298 287.5C203.298 285.326 203.395 283.174 203.584 281.049L164.387 261.421L172.249 334.352C186.528 342.117 196.229 357.254 196.229 374.663C196.229 399.989 175.698 420.519 150.373 420.519C125.047 420.519 104.516 399.989 104.516 374.663C104.516 359.715 111.671 346.438 122.731 338.071L115.095 257.461C98.5505 249.186 87.1816 232.079 87.1816 212.311C87.1816 184.446 109.771 161.856 137.636 161.856C165.307 161.856 187.775 184.132 188.087 211.729L230.994 230.758C234.924 227.687 239.182 225.016 243.708 222.804V184.445C219.785 172.756 203.299 148.181 203.299 119.75Z" fill="white"/>
</g>
<g filter="url(#filter2_d_302_2)">
<circle cx="275.264" cy="119.803" r="50" fill="#00A5FF"/>
<circle cx="275.264" cy="119.803" r="47.5" stroke="white" stroke-width="5"/>
</g>
<g filter="url(#filter3_d_302_2)">
<circle cx="275.264" cy="450.942" r="30" fill="#00A5FF"/>
<circle cx="275.264" cy="450.942" r="27.5" stroke="white" stroke-width="5"/>
</g>
<g filter="url(#filter4_d_302_2)">
<circle cx="275.291" cy="287.671" r="40" fill="#00A5FF"/>
<circle cx="275.291" cy="287.671" r="37.5" stroke="white" stroke-width="5"/>
</g>
<g filter="url(#filter5_d_302_2)">
<circle cx="400.059" cy="373.732" r="25" fill="#00A5FF"/>
<circle cx="400.059" cy="373.732" r="22.5" stroke="white" stroke-width="5"/>
</g>
<g filter="url(#filter6_d_302_2)">
<circle cx="150.469" cy="373.732" r="25" fill="#00A5FF"/>
<circle cx="150.469" cy="373.732" r="22.5" stroke="white" stroke-width="5"/>
</g>
<circle cx="137.639" cy="212.303" r="34.8677" fill="white" stroke="white" stroke-width="5"/>
<circle cx="412.942" cy="212.303" r="34.8677" fill="white" stroke="white" stroke-width="5"/>
<g filter="url(#filter7_d_302_2)">
<circle cx="412.934" cy="212.303" r="25" fill="#00A5FF"/>
<circle cx="412.934" cy="212.303" r="22.5" stroke="white" stroke-width="5"/>
</g>
<g filter="url(#filter8_d_302_2)">
<circle cx="137.594" cy="212.303" r="25" fill="#00A5FF"/>
<circle cx="137.594" cy="212.303" r="22.5" stroke="white" stroke-width="5"/>
</g>
<defs>
<filter id="filter0_d_302_2" x="7.97266" y="11.8408" width="534.584" height="534.584" filterUnits="userSpaceOnUse" color-interpolation-filters="sRGB">
<feFlood flood-opacity="0" result="BackgroundImageFix"/>
<feColorMatrix in="SourceAlpha" type="matrix" values="0 0 0 0 0 0 0 0 0 0 0 0 0 0 0 0 0 0 127 0" result="hardAlpha"/>
<feOffset dy="4"/>
<feGaussianBlur stdDeviation="2"/>
<feComposite in2="hardAlpha" operator="out"/>
<feColorMatrix type="matrix" values="0 0 0 0 0 0 0 0 0 0 0 0 0 0 0 0 0 0 0.25 0"/>
<feBlend mode="normal" in2="BackgroundImageFix" result="effect1_dropShadow_302_2"/>
<feBlend mode="normal" in="SourceGraphic" in2="effect1_dropShadow_302_2" result="shape"/>
</filter>
<filter id="filter1_d_302_2" x="83.1816" y="47.7847" width="384.164" height="462.696" filterUnits="userSpaceOnUse" color-interpolation-filters="sRGB">
<feFlood flood-opacity="0" result="BackgroundImageFix"/>
<feColorMatrix in="SourceAlpha" type="matrix" values="0 0 0 0 0 0 0 0 0 0 0 0 0 0 0 0 0 0 127 0" result="hardAlpha"/>
<feOffset dy="4"/>
<feGaussianBlur stdDeviation="2"/>
<feComposite in2="hardAlpha" operator="out"/>
<feColorMatrix type="matrix" values="0 0 0 0 0 0 0 0 0 0 0 0 0 0 0 0 0 0 0.25 0"/>
<feBlend mode="normal" in2="BackgroundImageFix" result="effect1_dropShadow_302_2"/>
<feBlend mode="normal" in="SourceGraphic" in2="effect1_dropShadow_302_2" result="shape"/>
</filter>
<filter id="filter2_d_302_2" x="221.264" y="69.8032" width="108" height="108" filterUnits="userSpaceOnUse" color-interpolation-filters="sRGB">
<feFlood flood-opacity="0" result="BackgroundImageFix"/>
<feColorMatrix in="SourceAlpha" type="matrix" values="0 0 0 0 0 0 0 0 0 0 0 0 0 0 0 0 0 0 127 0" result="hardAlpha"/>
<feOffset dy="4"/>
<feGaussianBlur stdDeviation="2"/>
<feComposite in2="hardAlpha" operator="out"/>
<feColorMatrix type="matrix" values="0 0 0 0 0 0 0 0 0 0 0 0 0 0 0 0 0 0 0.25 0"/>
<feBlend mode="normal" in2="BackgroundImageFix" result="effect1_dropShadow_302_2"/>
<feBlend mode="normal" in="SourceGraphic" in2="effect1_dropShadow_302_2" result="shape"/>
</filter>
<filter id="filter3_d_302_2" x="241.264" y="420.942" width="68" height="68" filterUnits="userSpaceOnUse" color-interpolation-filters="sRGB">
<feFlood flood-opacity="0" result="BackgroundImageFix"/>
<feColorMatrix in="SourceAlpha" type="matrix" values="0 0 0 0 0 0 0 0 0 0 0 0 0 0 0 0 0 0 127 0" result="hardAlpha"/>
<feOffset dy="4"/>
<feGaussianBlur stdDeviation="2"/>
<feComposite in2="hardAlpha" operator="out"/>
<feColorMatrix type="matrix" values="0 0 0 0 0 0 0 0 0 0 0 0 0 0 0 0 0 0 0.25 0"/>
<feBlend mode="normal" in2="BackgroundImageFix" result="effect1_dropShadow_302_2"/>
<feBlend mode="normal" in="SourceGraphic" in2="effect1_dropShadow_302_2" result="shape"/>
</filter>
<filter id="filter4_d_302_2" x="231.291" y="247.671" width="88" height="88" filterUnits="userSpaceOnUse" color-interpolation-filters="sRGB">
<feFlood flood-opacity="0" result="BackgroundImageFix"/>
<feColorMatrix in="SourceAlpha" type="matrix" values="0 0 0 0 0 0 0 0 0 0 0 0 0 0 0 0 0 0 127 0" result="hardAlpha"/>
<feOffset dy="4"/>
<feGaussianBlur stdDeviation="2"/>
<feComposite in2="hardAlpha" operator="out"/>
<feColorMatrix type="matrix" values="0 0 0 0 0 0 0 0 0 0 0 0 0 0 0 0 0 0 0.25 0"/>
<feBlend mode="normal" in2="BackgroundImageFix" result="effect1_dropShadow_302_2"/>
<feBlend mode="normal" in="SourceGraphic" in2="effect1_dropShadow_302_2" result="shape"/>
</filter>
<filter id="filter5_d_302_2" x="371.059" y="348.732" width="58" height="58" filterUnits="userSpaceOnUse" color-interpolation-filters="sRGB">
<feFlood flood-opacity="0" result="BackgroundImageFix"/>
<feColorMatrix in="SourceAlpha" type="matrix" values="0 0 0 0 0 0 0 0 0 0 0 0 0 0 0 0 0 0 127 0" result="hardAlpha"/>
<feOffset dy="4"/>
<feGaussianBlur stdDeviation="2"/>
<feComposite in2="hardAlpha" operator="out"/>
<feColorMatrix type="matrix" values="0 0 0 0 0 0 0 0 0 0 0 0 0 0 0 0 0 0 0.25 0"/>
<feBlend mode="normal" in2="BackgroundImageFix" result="effect1_dropShadow_302_2"/>
<feBlend mode="normal" in="SourceGraphic" in2="effect1_dropShadow_302_2" result="shape"/>
</filter>
<filter id="filter6_d_302_2" x="121.469" y="348.732" width="58" height="58" filterUnits="userSpaceOnUse" color-interpolation-filters="sRGB">
<feFlood flood-opacity="0" result="BackgroundImageFix"/>
<feColorMatrix in="SourceAlpha" type="matrix" values="0 0 0 0 0 0 0 0 0 0 0 0 0 0 0 0 0 0 127 0" result="hardAlpha"/>
<feOffset dy="4"/>
<feGaussianBlur stdDeviation="2"/>
<feComposite in2="hardAlpha" operator="out"/>
<feColorMatrix type="matrix" values="0 0 0 0 0 0 0 0 0 0 0 0 0 0 0 0 0 0 0.25 0"/>
<feBlend mode="normal" in2="BackgroundImageFix" result="effect1_dropShadow_302_2"/>
<feBlend mode="normal" in="SourceGraphic" in2="effect1_dropShadow_302_2" result="shape"/>
</filter>
<filter id="filter7_d_302_2" x="383.934" y="187.303" width="58" height="58" filterUnits="userSpaceOnUse" color-interpolation-filters="sRGB">
<feFlood flood-opacity="0" result="BackgroundImageFix"/>
<feColorMatrix in="SourceAlpha" type="matrix" values="0 0 0 0 0 0 0 0 0 0 0 0 0 0 0 0 0 0 127 0" result="hardAlpha"/>
<feOffset dy="4"/>
<feGaussianBlur stdDeviation="2"/>
<feComposite in2="hardAlpha" operator="out"/>
<feColorMatrix type="matrix" values="0 0 0 0 0 0 0 0 0 0 0 0 0 0 0 0 0 0 0.25 0"/>
<feBlend mode="normal" in2="BackgroundImageFix" result="effect1_dropShadow_302_2"/>
<feBlend mode="normal" in="SourceGraphic" in2="effect1_dropShadow_302_2" result="shape"/>
</filter>
<filter id="filter8_d_302_2" x="108.594" y="187.303" width="58" height="58" filterUnits="userSpaceOnUse" color-interpolation-filters="sRGB">
<feFlood flood-opacity="0" result="BackgroundImageFix"/>
<feColorMatrix in="SourceAlpha" type="matrix" values="0 0 0 0 0 0 0 0 0 0 0 0 0 0 0 0 0 0 127 0" result="hardAlpha"/>
<feOffset dy="4"/>
<feGaussianBlur stdDeviation="2"/>
<feComposite in2="hardAlpha" operator="out"/>
<feColorMatrix type="matrix" values="0 0 0 0 0 0 0 0 0 0 0 0 0 0 0 0 0 0 0.25 0"/>
<feBlend mode="normal" in2="BackgroundImageFix" result="effect1_dropShadow_302_2"/>
<feBlend mode="normal" in="SourceGraphic" in2="effect1_dropShadow_302_2" result="shape"/>
</filter>
</defs>
</svg>
