<svg xmlns="http://www.w3.org/2000/svg" xmlns:xlink="http://www.w3.org/1999/xlink" width="256" height="256" viewBox="0 0 256 256"><defs><linearGradient id="a" x1="0.843" y1="0.135" x2="0.206" y2="0.886" gradientUnits="objectBoundingBox"><stop offset="0" stop-color="#b6509e"/><stop offset="1" stop-color="#2ebac6"/></linearGradient><linearGradient id="b" x1="0.854" y1="0.146" x2="0.146" y2="0.854" gradientUnits="objectBoundingBox"><stop offset="0" stop-color="#ff2d55"/><stop offset="1" stop-color="#ffbc5b"/></linearGradient><linearGradient id="c" x1="0.5" x2="0.5" y2="1" gradientUnits="objectBoundingBox"><stop offset="0" stop-color="#a524b3"/><stop offset="1" stop-color="#ff2d55"/></linearGradient><clipPath id="f"><rect width="256" height="256"/></clipPath></defs><g id="e" clip-path="url(#f)"><g transform="translate(-20 -20)"><path d="M128,256a128.976,128.976,0,0,1-25.8-2.6,127.309,127.309,0,0,1-45.77-19.261,128.366,128.366,0,0,1-46.375-56.315A127.357,127.357,0,0,1,2.6,153.8a129.251,129.251,0,0,1,0-51.593,127.31,127.31,0,0,1,19.26-45.77A128.372,128.372,0,0,1,78.177,10.059,127.33,127.33,0,0,1,102.2,2.6a129.244,129.244,0,0,1,51.593,0,127.308,127.308,0,0,1,45.77,19.26,128.367,128.367,0,0,1,46.375,56.316A127.343,127.343,0,0,1,253.4,102.2a129.248,129.248,0,0,1,0,51.593,127.3,127.3,0,0,1-19.26,45.77,128.382,128.382,0,0,1-56.316,46.375A127.4,127.4,0,0,1,153.8,253.4,128.977,128.977,0,0,1,128,256Zm0-242.287a115.145,115.145,0,0,0-23.033,2.322A113.657,113.657,0,0,0,64.1,33.232,114.622,114.622,0,0,0,22.7,83.515a113.7,113.7,0,0,0-6.659,21.452,115.4,115.4,0,0,0,0,46.065,113.66,113.66,0,0,0,17.2,40.866,114.627,114.627,0,0,0,50.282,41.407,113.75,113.75,0,0,0,21.453,6.658,115.381,115.381,0,0,0,46.065,0,113.609,113.609,0,0,0,40.866-17.2A114.622,114.622,0,0,0,233.3,172.485a113.741,113.741,0,0,0,6.659-21.453,115.4,115.4,0,0,0,0-46.065,113.662,113.662,0,0,0-17.2-40.865A114.619,114.619,0,0,0,172.485,22.7a113.74,113.74,0,0,0-21.453-6.659A115.145,115.145,0,0,0,128,13.714Z" transform="translate(20 20)" fill="url(#a)"/><g transform="translate(49.714 49.714)"><circle cx="98.285" cy="98.285" r="98.285" fill="url(#b)"/><path d="M125.7,0V73.647h61.373Z" transform="translate(-56.128 63.828)" fill-rule="evenodd" fill="url(#c)"/><path d="M16.7,203.647H78.073V130Z" transform="translate(-8.501 -66.172)" fill="#fff" fill-rule="evenodd"/><path d="M40,320a100.569,100.569,0,0,0,19.639,19.639H177.475A100.569,100.569,0,0,0,197.114,320Z" transform="translate(-20.361 -162.886)" fill="#fc9965" fill-rule="evenodd"/><path d="M80,360a98.2,98.2,0,0,0,117.835,0Z" transform="translate(-40.722 -183.247)" fill="#ff2d55" fill-rule="evenodd"/><path d="M252.3,0V54.008h45.023Z" transform="translate(-120.57 103.106)" fill-rule="evenodd" fill="url(#c)"/><path d="M140.231,280H16.7a97.778,97.778,0,0,0,11.44,19.639H140.28V280Z" transform="translate(-8.501 -142.525)" fill="#ffbc5b" fill-rule="evenodd"/><path d="M176.7,264.008h44.974V210Z" transform="translate(-89.944 -106.894)" fill="#fff" fill-rule="evenodd"/><circle cx="24.549" cy="24.549" r="24.549" transform="translate(107.181 39.278)" fill="#ffc95b"/><circle cx="12.275" cy="12.275" r="12.275" transform="translate(57.298 24.549)" fill="#ffc95b"/></g></g></g></svg>