<?xml version="1.0" encoding="utf-8"?>
<!-- Generator: Adobe Illustrator 25.0.0, SVG Export Plug-In . SVG Version: 6.00 Build 0)  -->
<svg version="1.1" id="SWIM_x5F_USD" xmlns="http://www.w3.org/2000/svg" xmlns:xlink="http://www.w3.org/1999/xlink" x="0px"
	 y="0px" viewBox="0 0 540 540" style="enable-background:new 0 0 540 540;" xml:space="preserve">
<style type="text/css">
	.st0{fill:url(#SVGID_1_);}
	.st1{fill:#FFFFFF;}
</style>
<linearGradient id="SVGID_1_" gradientUnits="userSpaceOnUse" x1="20.2627" y1="270" x2="519.7374" y2="270">
	<stop  offset="1.278158e-03" style="stop-color:#008EF0"/>
	<stop  offset="1" style="stop-color:#7FFDFF"/>
</linearGradient>
<path class="st0" d="M446.6,93.4C399.4,46.2,336.7,20.3,270,20.3s-129.4,26-176.6,73.1S20.3,203.3,20.3,270s26,129.4,73.1,176.6
	s109.9,73.1,176.6,73.1s129.4-26,176.6-73.1s73.1-109.9,73.1-176.6S493.8,140.6,446.6,93.4z"/>
<path class="st1" d="M270,540c-72.1,0-139.9-28.1-190.9-79.1C28.1,409.9,0,342.1,0,270c0-72.1,28.1-139.9,79.1-190.9
	C130.1,28.1,197.9,0,270,0c72.1,0,139.9,28.1,190.9,79.1c51,51,79.1,118.8,79.1,190.9c0,72.1-28.1,139.9-79.1,190.9
	C409.9,511.9,342.1,540,270,540z M270,20.3c-66.7,0-129.4,26-176.6,73.1S20.3,203.3,20.3,270s26,129.4,73.1,176.6
	s109.9,73.1,176.6,73.1s129.4-26,176.6-73.1s73.1-109.9,73.1-176.6s-26-129.4-73.1-176.6S336.7,20.3,270,20.3z"/>
<path class="st1" d="M336.3,392.1c-9.2,0-18.5-1.9-27.1-5.7c-17.5-7.7-31-22.5-36.9-40.7l-2.3-6.9l-2.3,6.9
	c-6,18.2-19.4,33-36.9,40.7c-17.5,7.7-37.5,7.6-55-0.4l-24.5-11.1c-12.8-5.8-21.1-18.6-21.1-32.7V252c0-6.7,4.8-12.5,11.5-13.6h0
	c38.7-6.7,83-10.2,128.3-10.2c14.8,0,29.5,0.4,43.9,1.1c15.3,0.8,26.9,14.2,25.6,29.4v0c-22.4-1.9-45.8-2.9-69.5-2.9
	c-39.3,0-77.7,2.7-112.1,7.9v78.4c0,3.3,1.9,6.2,4.9,7.5l23.4,10.7c10.5,4.8,22.7,5.4,33.3,0.8c10.6-4.6,18.4-13.1,22-24.1l4.6-14.2
	c3.4-10.3,12.8-17.8,23.7-17.9c11-0.1,20.4,6.7,23.9,17.1l4.5,13.8c3.6,11,11.4,20.3,21.9,25c10.5,4.7,22.1,4.7,32.6-0.1l24.5-11.1
	c3-1.3,4.9-4.3,4.9-7.5V147.9h27.6v194.2c0,14.1-8.2,26.9-21.1,32.7L364.2,386C355.3,390,345.8,392.1,336.3,392.1z"/>
</svg>
