<?xml version="1.0" standalone="no"?>
<!DOCTYPE svg PUBLIC "-//W3C//DTD SVG 20010904//EN"
 "http://www.w3.org/TR/2001/REC-SVG-20010904/DTD/svg10.dtd">
<svg version="1.0" xmlns="http://www.w3.org/2000/svg"
 width="512.000000pt" height="512.000000pt" viewBox="0 0 512.000000 512.000000"
 preserveAspectRatio="xMidYMid meet">

<g transform="translate(0.000000,512.000000) scale(0.100000,-0.100000)"
fill="#000000" stroke="none">
<path d="M0 2560 l0 -2560 2560 0 2560 0 0 2560 0 2560 -2560 0 -2560 0 0
-2560z m2646 2160 c127 -32 235 -91 319 -174 87 -86 134 -174 166 -312 18 -81
21 -115 17 -217 l-6 -122 31 -15 c47 -23 70 -62 75 -128 5 -66 -11 -182 -35
-260 -18 -58 -72 -128 -109 -142 -19 -8 -23 -19 -29 -76 -10 -90 2 -253 20
-281 8 -12 35 -34 59 -48 70 -41 280 -129 443 -185 186 -65 335 -137 392 -190
24 -22 46 -38 49 -36 10 11 17 208 10 306 -9 133 -30 237 -74 369 -117 351
-346 629 -674 819 l-82 47 -4 68 -5 68 69 -35 c98 -49 264 -163 352 -240 248
-219 427 -534 501 -882 20 -94 24 -138 24 -314 0 -179 -3 -218 -23 -310 -13
-58 -26 -109 -29 -113 -2 -4 -22 29 -44 74 -49 102 -118 171 -220 222 -41 20
-166 69 -279 110 -317 115 -471 189 -506 243 -22 33 -37 208 -29 322 7 78 8
84 33 93 69 26 110 100 132 241 24 146 1 218 -67 218 l-34 0 7 149 c5 123 4
162 -11 227 -42 191 -142 323 -305 402 -124 61 -191 75 -330 70 -98 -4 -126
-9 -192 -35 -160 -63 -272 -175 -326 -326 -24 -64 -27 -87 -27 -202 0 -71 4
-169 9 -217 l8 -88 -23 0 c-33 0 -46 -10 -59 -44 -13 -35 17 -211 51 -302 21
-55 78 -124 103 -124 8 0 16 -17 20 -42 4 -23 20 -66 37 -94 25 -44 31 -69 39
-161 16 -179 21 -282 11 -245 -5 18 -18 43 -28 55 -16 18 -22 48 -32 155 -10
117 -15 140 -41 186 -17 29 -30 64 -30 78 0 18 -11 32 -37 49 -57 37 -98 127
-130 287 l-27 132 20 48 c13 30 29 52 47 60 19 9 26 19 23 30 -3 9 -8 49 -11
87 -3 39 -8 93 -11 122 -9 104 26 247 87 348 84 142 259 260 429 288 72 12
212 6 286 -13z m81 -259 c56 -17 86 -34 137 -77 71 -61 101 -111 111 -189 4
-27 16 -79 28 -115 20 -59 22 -85 21 -280 -1 -377 -49 -546 -188 -662 -105
-88 -191 -113 -366 -106 -89 4 -126 10 -165 27 -112 49 -208 149 -245 253 -16
47 -58 267 -75 399 -3 25 -6 122 -6 215 0 188 17 282 68 376 46 85 127 135
273 170 105 25 306 19 407 -11z m-943 -337 l3 -59 -101 -65 c-133 -86 -318
-268 -405 -400 -113 -172 -196 -369 -238 -570 -28 -132 -25 -459 6 -600 25
-118 57 -218 96 -306 l27 -59 33 97 c19 54 53 134 77 179 37 70 44 78 52 60 7
-16 0 -40 -27 -98 -19 -43 -59 -155 -87 -248 -29 -94 -56 -174 -60 -178 -10
-12 -73 101 -126 227 -85 199 -125 411 -125 655 1 150 4 181 32 323 71 358
305 732 593 947 89 66 238 161 244 156 2 -2 5 -29 6 -61z m1361 -343 c3 -6 -3
-15 -14 -20 -10 -6 -29 -30 -41 -53 l-22 -43 7 45 c8 61 50 103 70 71z m-1213
-28 c9 -10 19 -33 23 -52 l7 -33 -41 41 c-23 23 -41 46 -41 51 0 16 36 11 52
-7z m2 -123 c-12 -43 -5 -74 20 -95 17 -15 25 -34 29 -72 7 -59 -2 -66 -31
-25 -30 41 -52 128 -52 201 l0 66 20 -25 c14 -17 18 -33 14 -50z m1202 25 c13
-87 -27 -216 -70 -224 -32 -5 -13 77 26 112 30 28 30 30 24 93 -8 74 9 90 20
19z m-964 -580 c44 -51 209 -157 308 -200 177 -76 290 -32 428 168 l40 57 7
-56 c9 -78 31 -146 56 -178 l21 -26 -22 -34 c-53 -86 -203 -196 -323 -237
-124 -43 -346 -35 -418 14 -67 45 -77 77 -119 370 -27 184 -28 178 22 122z
m-452 -85 c19 -19 25 -20 55 -9 46 17 84 3 104 -38 11 -23 21 -31 33 -27 25 7
52 -10 94 -62 31 -38 38 -53 37 -87 -2 -50 -23 -76 -23 -28 0 61 -18 21 -25
-56 -9 -99 -33 -167 -93 -266 l-47 -79 -43 6 c-52 7 -81 21 -160 81 -81 61
-121 67 -197 30 -31 -15 -58 -25 -59 -24 -6 7 -113 294 -119 317 -3 13 2 31
12 43 15 18 24 21 56 15 l38 -7 -6 -56 c-7 -70 2 -60 38 42 31 89 81 195 93
196 4 0 17 2 28 5 12 2 27 -3 34 -11 17 -20 25 -19 54 10 30 30 69 32 96 5z
m1420 -176 c0 -27 -78 -142 -135 -200 -78 -79 -167 -133 -283 -172 -70 -24
-92 -26 -237 -27 -154 0 -162 1 -218 27 -78 37 -134 82 -155 127 -16 31 -16
42 -6 81 12 46 17 42 28 -19 20 -116 195 -192 411 -178 112 7 198 33 296 91
86 51 221 173 259 235 22 36 40 52 40 35z m169 -231 c-30 -32 -55 -55 -57 -52
-3 6 98 108 107 109 2 0 -20 -26 -50 -57z m-31 12 c-6 -14 -13 -23 -15 -21 -5
5 15 46 22 46 3 0 -1 -11 -7 -25z m-135 -5 c21 -24 21 -40 4 -65 -10 -13 -21
-16 -40 -11 -33 8 -43 40 -23 71 20 30 36 31 59 5z m405 -22 c19 -19 15 -66
-7 -78 -36 -19 -51 -12 -51 21 0 56 29 86 58 57z m92 5 c-1 -10 -47 -63 -55
-63 -12 0 -3 25 17 47 21 23 38 30 38 16z m-310 -6 c0 -2 -10 -12 -22 -23
l-23 -19 19 23 c18 21 26 27 26 19z m-288 -48 c-23 -9 -27 -3 -12 16 11 13 15
13 21 3 5 -8 2 -15 -9 -19z m338 7 c0 -2 -8 -10 -17 -17 -16 -13 -17 -12 -4 4
13 16 21 21 21 13z m325 -18 c-10 -33 -21 -42 -42 -33 -12 5 -14 9 -5 12 6 3
12 11 12 18 0 12 14 22 33 24 5 1 5 -9 2 -21z m164 -4 c2 -2 -8 -4 -22 -4 -18
0 -27 5 -27 15 0 13 4 14 23 4 12 -6 24 -13 26 -15z m-289 -28 c0 -2 -8 -10
-17 -17 -16 -13 -17 -12 -4 4 13 16 21 21 21 13z m334 -15 c14 -15 15 -21 4
-27 -7 -4 -10 -3 -5 1 4 5 0 17 -10 27 -9 10 -14 18 -11 18 3 0 13 -9 22 -19z
m-678 -29 c-17 -16 -18 -16 -5 5 7 12 15 20 18 17 3 -2 -3 -12 -13 -22z
m-1643 1 c19 -12 37 -73 30 -105 -15 -83 -62 -128 -130 -128 -36 0 -50 6 -74
29 -63 64 -19 189 76 214 21 6 84 -1 98 -10z m1947 -12 c-5 -11 -15 -23 -21
-27 -6 -3 -3 5 6 20 20 30 30 35 15 7z m-616 3 c22 -8 20 -40 -5 -75 -28 -40
-45 -26 -19 16 l21 33 -21 7 c-11 4 -18 11 -15 16 7 11 17 11 39 3z m166 -26
c-11 -18 -20 -41 -20 -51 0 -10 -5 -15 -10 -12 -12 8 -4 39 18 73 23 35 34 26
12 -10z m747 4 c-10 -10 -15 -21 -12 -24 3 -3 -3 -11 -12 -19 -16 -13 -17 -12
-4 4 7 9 10 17 6 17 -5 0 0 9 10 20 10 11 20 20 23 20 3 0 -2 -8 -11 -18z m33
4 c0 -2 -8 -10 -17 -17 -16 -13 -17 -12 -4 4 13 16 21 21 21 13z m-1660 -26
c33 -33 6 -80 -46 -80 l-34 0 0 50 c0 49 1 50 30 50 17 0 39 -9 50 -20z m649
-11 c14 -40 14 -79 1 -79 -5 0 -10 5 -10 12 0 6 -3 8 -6 5 -4 -4 -2 -12 4 -20
6 -7 27 -73 47 -147 44 -165 76 -260 88 -260 4 0 6 8 3 18 -3 9 -15 69 -26
132 -12 63 -24 124 -27 135 -8 32 43 -32 71 -90 31 -62 95 -329 98 -407 1 -32
5 -58 9 -58 4 0 30 45 58 100 90 173 238 359 410 510 81 73 91 79 85 53 -10
-39 -62 -143 -73 -143 -9 0 -111 -150 -111 -164 0 -4 5 -4 10 -1 16 10 11 -1
-7 -16 -14 -12 -16 -12 -8 0 5 9 4 12 -3 7 -6 -4 -9 -13 -6 -20 6 -14 -120
-146 -224 -234 -84 -72 -114 -119 -159 -248 -43 -125 -53 -119 -23 14 28 129
27 240 -5 341 -14 44 -30 83 -35 86 -13 8 -13 3 4 -58 8 -29 17 -74 21 -102
l6 -50 -25 58 c-32 76 -62 122 -135 201 -81 90 -94 121 -99 243 -3 70 -9 106
-18 114 -30 24 -10 79 28 79 16 0 16 -2 -3 -21 -13 -13 -17 -24 -11 -32 5 -7
12 -19 15 -27 3 -8 5 0 4 19 -2 36 18 55 26 24 2 -10 3 -1 1 20 -5 45 10 49
25 6z m884 16 c-3 -9 -8 -14 -10 -11 -3 3 -2 9 2 15 9 16 15 13 8 -4z m-743
-15 c12 -6 17 -16 13 -26 -5 -13 -7 -13 -22 0 -13 12 -20 13 -29 4 -20 -20
-14 -40 10 -36 28 4 35 -18 9 -27 -25 -8 -61 2 -61 17 0 17 40 78 51 78 6 0
19 -5 29 -10z m428 -2 c33 -33 0 -98 -50 -98 -33 0 -43 16 -29 52 19 50 54 71
79 46z m-1749 -79 c-8 -29 -20 -55 -28 -57 -11 -4 -12 0 -6 14 4 11 10 43 13
72 4 48 6 52 20 38 13 -13 14 -21 1 -67z m600 68 c8 -10 7 -17 -1 -25 -8 -8
-9 -12 -1 -12 6 0 13 -7 17 -15 4 -12 -3 -15 -30 -15 -35 0 -35 1 -29 33 11
51 22 59 44 34z m1211 8 c0 -12 -24 -55 -32 -55 -11 0 -10 17 2 41 9 17 30 27
30 14z m-1472 -24 c3 -9 -2 -11 -17 -6 -17 5 -21 2 -21 -14 0 -22 14 -28 25
-11 4 6 11 7 17 4 14 -9 -19 -34 -44 -34 -23 0 -24 37 -1 62 18 20 34 19 41
-1z m315 -1 c3 -12 14 -20 26 -20 23 0 28 15 9 23 -9 4 -8 6 2 6 8 0 22 -3 30
-9 12 -7 12 -12 -4 -29 -34 -37 -81 -23 -91 28 -5 27 21 28 28 1z m1448 6 c-1
-3 -3 -6 -6 -6 -3 0 -17 -12 -31 -27 -25 -27 -25 -27 2 10 23 33 38 42 35 23z
m-1101 -15 c0 -27 -24 -43 -62 -39 -25 2 -34 8 -36 26 -4 26 15 29 35 5 13
-17 14 -17 31 4 21 27 32 29 32 4z m55 9 c4 -6 1 -18 -7 -27 -11 -14 -11 -16
4 -11 11 5 15 2 14 -9 -3 -18 -37 -25 -58 -12 -10 7 -10 11 0 21 6 6 12 20 12
30 0 19 25 25 35 8z m402 -22 c-3 -7 -5 -2 -5 12 0 14 2 19 5 13 2 -7 2 -19 0
-25z m369 -6 c-17 -16 -18 -16 -5 5 7 12 15 20 18 17 3 -2 -3 -12 -13 -22z
m-1566 -32 c0 -5 -5 -10 -11 -10 -5 0 -7 5 -4 10 3 6 8 10 11 10 2 0 4 -4 4
-10z m1359 -17 c-20 -50 -47 -156 -64 -245 -9 -48 -34 -131 -55 -185 l-39 -98
-1 60 c0 101 19 235 42 289 19 45 116 206 124 206 2 0 -1 -12 -7 -27z m526
-71 l-49 -47 44 51 c25 27 47 49 50 47 2 -2 -18 -25 -45 -51z m-2421 -7 c30
-30 95 -34 153 -10 52 22 118 19 164 -7 22 -12 39 -25 39 -29 0 -4 -20 -106
-44 -226 -24 -120 -52 -282 -62 -360 l-18 -143 -222 0 c-122 0 -243 -3 -269
-7 l-48 -6 5 40 c3 22 22 80 43 129 145 346 182 450 219 617 8 33 9 33 40 2z
m2356 21 c0 -2 -8 -10 -17 -17 -16 -13 -17 -12 -4 4 13 16 21 21 21 13z
m-1347 -53 c31 -29 16 -83 -24 -83 -9 0 -26 8 -37 18 -15 13 -19 25 -15 55 5
36 7 38 32 32 14 -4 34 -14 44 -22z m1307 24 c0 -2 -10 -12 -22 -23 l-23 -19
19 23 c18 21 26 27 26 19z m190 -1 c0 -3 -4 -8 -10 -11 -5 -3 -10 -1 -10 4 0
6 5 11 10 11 6 0 10 -2 10 -4z m-1754 -21 c20 -15 12 -20 -29 -15 -24 2 -47
-18 -47 -41 0 -13 7 -19 24 -19 14 0 28 5 31 10 3 6 -1 10 -9 10 -9 0 -16 5
-16 10 0 6 14 10 30 10 32 0 38 -15 18 -43 -22 -28 -63 -32 -87 -8 -27 27 -26
46 4 76 28 28 53 31 81 10z m430 -2 c19 -20 2 -32 -20 -14 -10 8 -16 8 -25 -3
-18 -22 -9 -51 17 -54 26 -4 30 14 5 21 -10 3 -3 5 15 6 17 0 32 -3 32 -9 0
-15 -38 -50 -55 -50 -21 0 -55 36 -55 58 0 26 29 62 50 62 10 0 26 -8 36 -17z
m-616 -40 c0 -34 -26 -63 -57 -63 -21 0 -23 4 -23 49 0 44 3 50 23 53 34 6 57
-10 57 -39z m1173 -14 c3 -23 2 -51 -3 -63 -5 -15 -9 -4 -11 42 -4 70 5 84 14
21z m-1118 5 c0 -10 6 -26 14 -34 13 -13 11 -16 -15 -21 -36 -7 -56 6 -44 29
5 10 11 25 14 35 8 24 31 17 31 -9z m446 -16 c-11 -18 -11 -20 3 -15 17 7 20
-1 8 -20 -9 -14 -37 -12 -53 4 -8 8 -8 13 0 17 6 4 11 16 11 26 0 21 20 32 35
19 6 -6 5 -17 -4 -31z m1181 -10 c-7 -7 -12 -8 -12 -2 0 14 12 26 19 19 2 -3
-1 -11 -7 -17z m-1322 -29 c0 -5 5 -7 12 -3 7 4 8 3 4 -5 -6 -9 -11 -9 -22 0
-17 14 -18 19 -4 19 6 0 10 -5 10 -11z m450 -33 c0 -12 -5 -7 -19 24 -11 24
-11 24 3 6 9 -11 16 -24 16 -30z m525 -28 c-28 -29 -51 -55 -52 -57 -2 -2 -3
1 -3 6 0 11 90 103 100 103 2 0 -18 -24 -45 -52z m-900 32 c3 -6 -1 -7 -9 -4
-18 7 -21 14 -7 14 6 0 13 -4 16 -10z m1285 6 c0 -2 -7 -7 -16 -10 -8 -3 -12
-2 -9 4 6 10 25 14 25 6z m-1245 -26 c3 -6 -1 -7 -9 -4 -18 7 -21 14 -7 14 6
0 13 -4 16 -10z m375 -22 l22 -33 -22 25 c-13 14 -27 24 -32 22 -5 -1 -7 2 -3
8 9 15 12 13 35 -22z m1090 22 c-8 -5 -19 -10 -25 -10 -5 0 -3 5 5 10 8 5 20
10 25 10 6 0 3 -5 -5 -10z m-299 -23 c-6 -8 -9 -16 -6 -19 7 -7 -23 -32 -42
-34 -9 -2 -2 11 18 32 32 33 52 47 30 21z m-504 -49 c-3 -8 -6 -5 -6 6 -1 11
2 17 5 13 3 -3 4 -12 1 -19z m-1149 -10 c19 -19 14 -27 -15 -25 -23 2 -29 -2
-31 -24 -3 -28 22 -47 34 -27 4 7 2 14 -4 16 -7 2 -12 8 -12 13 0 12 47 12 54
0 9 -14 -33 -61 -54 -61 -47 0 -66 64 -30 100 23 23 41 25 58 8z m244 -5 c40
-36 6 -103 -52 -103 l-30 0 0 60 0 60 32 0 c17 0 40 -7 50 -17z m178 -8 c15
-18 5 -34 -11 -18 -17 17 -39 4 -39 -23 0 -28 25 -43 43 -25 8 8 7 11 -6 11
-9 0 -17 5 -17 10 0 16 50 12 56 -5 15 -39 -52 -61 -88 -28 -22 20 -23 42 -2
71 18 26 46 29 64 7z m235 -5 c10 -11 16 -20 13 -20 -3 0 -13 9 -23 20 -10 11
-16 20 -13 20 3 0 13 -9 23 -20z m-184 -7 c13 -16 12 -17 -3 -4 -10 7 -18 15
-18 17 0 8 8 3 21 -13z m1129 13 c0 -2 -7 -7 -16 -10 -8 -3 -12 -2 -9 4 6 10
25 14 25 6z m-1760 -40 c0 -29 -39 -81 -40 -53 0 9 4 17 9 17 12 0 21 39 10
46 -5 3 -7 10 -3 15 9 15 24 0 24 -25z m746 2 l29 -33 -32 29 c-18 17 -33 31
-33 33 0 8 8 1 36 -29z m44 -3 c19 -19 32 -35 29 -35 -3 0 -20 16 -39 35 -19
19 -32 35 -29 35 3 0 20 -16 39 -35z m168 10 c-3 -16 2 -33 13 -47 25 -28 16
-35 -16 -14 -27 18 -33 54 -13 74 18 18 21 15 16 -13z m-905 -19 c-1 -14 2
-24 7 -21 9 6 21 -20 13 -29 -4 -3 -19 -6 -35 -6 -28 0 -29 1 -22 38 8 46 13
54 27 49 7 -2 11 -16 10 -31z m423 19 c4 -8 0 -23 -7 -32 -12 -15 -12 -16 3
-11 9 4 19 1 21 -7 8 -18 -2 -25 -34 -25 -31 0 -44 13 -32 33 4 6 8 17 9 22 0
6 2 16 2 23 3 17 31 15 38 -3z m439 4 c12 -19 -5 -23 -22 -6 -16 16 -16 17 -1
17 9 0 20 -5 23 -11z m15 -84 c47 -47 82 -85 80 -85 -3 0 -43 38 -90 85 -47
47 -82 85 -80 85 3 0 43 -38 90 -85z m870 29 c-30 -14 -64 -34 -76 -45 -16
-15 -21 -16 -21 -5 0 8 4 13 8 10 4 -2 9 0 11 5 4 11 99 60 118 60 8 1 -10
-11 -40 -25z m157 -11 c-8 -15 -51 -67 -96 -115 -45 -47 -81 -89 -81 -93 0 -4
44 24 98 60 l97 67 -53 -54 c-29 -30 -84 -74 -123 -99 -39 -24 -86 -54 -105
-66 l-33 -22 30 42 c17 23 35 41 41 39 5 -1 6 2 3 8 -7 11 41 90 98 164 27 34
127 109 135 101 2 -2 -3 -16 -11 -32z m-1272 7 c10 -11 16 -20 13 -20 -3 0
-13 9 -23 20 -10 11 -16 20 -13 20 3 0 13 -9 23 -20z m165 -38 c43 -36 80 -72
80 -80 0 -5 14 -19 30 -32 17 -13 30 -29 30 -36 0 -8 4 -14 9 -14 4 0 21 -19
36 -42 19 -29 22 -38 10 -28 -42 34 -135 133 -135 145 0 2 -25 27 -55 56 -30
28 -55 56 -55 62 0 9 6 5 50 -31z m-105 -32 c21 -22 37 -40 34 -40 -3 0 -23
18 -44 40 -21 22 -37 40 -34 40 3 0 23 -18 44 -40z m430 -10 c14 -27 25 -53
25 -57 0 -10 -31 43 -48 80 -20 46 -4 30 23 -23z m505 6 c0 -2 -8 -10 -17 -17
-16 -13 -17 -12 -4 4 13 16 21 21 21 13z m-520 -51 c0 -5 -5 -3 -10 5 -5 8
-10 20 -10 25 0 6 5 3 10 -5 5 -8 10 -19 10 -25z m460 32 c0 -2 -10 -12 -22
-23 l-23 -19 19 23 c18 21 26 27 26 19z m-795 -47 c10 -11 16 -20 13 -20 -3 0
-13 9 -23 20 -10 11 -16 20 -13 20 3 0 13 -9 23 -20z m205 0 c6 -11 8 -20 6
-20 -3 0 -10 9 -16 20 -6 11 -8 20 -6 20 3 0 10 -9 16 -20z m-882 -2 c33 -33
-5 -113 -51 -106 -19 3 -22 10 -23 53 -1 28 1 53 3 58 7 11 58 8 71 -5z m188
-2 c24 -18 10 -35 -15 -19 -15 10 -22 8 -36 -7 -10 -11 -15 -26 -11 -35 8 -21
35 -30 49 -16 8 8 7 11 -6 11 -9 0 -17 5 -17 10 0 6 16 10 36 10 29 0 35 -3
30 -16 -3 -9 -6 -17 -6 -20 0 -2 -14 -10 -30 -19 -54 -28 -103 20 -76 74 22
42 49 51 82 27z m275 -7 c22 -22 22 -60 0 -67 -9 -3 -11 1 -7 16 4 12 0 26
-10 36 -22 23 -40 14 -36 -18 2 -18 -2 -26 -13 -26 -11 0 -15 11 -15 40 0 38
2 40 30 40 17 0 39 -9 51 -21z m949 8 c0 -2 -17 -19 -37 -38 l-38 -34 34 38
c33 34 41 42 41 34z m-826 -46 c-7 -33 8 -47 33 -32 17 10 17 10 1 11 -10 0
-18 5 -18 10 0 15 26 12 40 -5 27 -33 -47 -64 -78 -33 -15 15 -16 60 0 76 17
17 28 4 22 -27z m486 4 c0 -5 -5 -3 -10 5 -5 8 -10 20 -10 25 0 6 5 3 10 -5 5
-8 10 -19 10 -25z m410 22 c0 -1 -26 -27 -57 -57 l-58 -55 55 58 c50 53 60 62
60 54z m-1405 -17 c4 -6 1 -18 -6 -26 -9 -12 -9 -13 2 -9 10 4 15 -1 15 -14 0
-14 -9 -21 -29 -24 -34 -5 -38 0 -30 46 4 27 11 37 24 37 10 0 21 -5 24 -10z
m452 -1 c13 -13 5 -49 -12 -49 -7 0 -15 10 -18 22 -9 34 7 50 30 27z m248 -49
c33 -33 57 -60 54 -60 -2 0 -31 27 -64 60 -33 33 -57 60 -54 60 2 0 31 -27 64
-60z m275 -24 c0 -5 -10 4 -22 20 -33 44 -36 53 -6 19 15 -16 28 -34 28 -39z
m430 51 c0 -1 -28 -29 -62 -62 l-63 -60 60 63 c55 58 65 67 65 59z m20 -27
c-12 -16 -24 -30 -26 -30 -3 0 4 14 16 30 12 17 24 30 26 30 3 0 -4 -13 -16
-30z m-1090 -15 c208 -41 433 -165 486 -267 13 -25 3 -20 -73 38 -84 64 -208
132 -219 121 -3 -3 14 -16 38 -28 61 -31 169 -119 161 -131 -3 -6 -1 -8 4 -5
6 4 16 1 22 -7 9 -11 4 -12 -33 -5 -61 11 -121 43 -251 134 -99 69 -168 124
-125 99 8 -5 43 -18 78 -30 111 -37 60 -2 -69 47 -134 52 -155 61 -124 55 11
-3 58 -12 105 -21z m910 22 c0 -2 -19 -21 -42 -42 l-43 -40 40 43 c36 39 45
47 45 39z m150 -51 c0 -2 -8 -10 -17 -17 -16 -13 -17 -12 -4 4 13 16 21 21 21
13z m-540 -37 c0 -6 -4 -7 -10 -4 -5 3 -10 11 -10 16 0 6 5 7 10 4 6 -3 10
-11 10 -16z m374 -14 c-9 -14 -18 -25 -21 -25 -5 0 5 18 20 38 17 22 18 13 1
-13z m-24 12 c0 -2 -17 -20 -39 -41 -28 -27 -41 -34 -46 -25 -5 7 -4 10 2 6 5
-3 25 9 43 28 32 33 40 39 40 32z m-379 -24 c13 -16 12 -17 -3 -4 -17 13 -22
21 -14 21 2 0 10 -8 17 -17z m529 14 c0 -2 -12 -14 -27 -28 l-28 -24 24 28
c23 25 31 32 31 24z m-1616 -79 c18 -25 22 -63 6 -53 -5 3 -10 15 -10 26 0 11
-7 22 -15 25 -8 4 -15 10 -15 15 0 16 19 9 34 -13z m176 7 c16 -19 5 -32 -14
-16 -11 9 -17 8 -30 -4 -9 -9 -16 -22 -16 -29 0 -18 27 -39 40 -31 11 7 14 26
3 23 -5 -2 -8 2 -8 7 0 9 34 10 43 0 3 -2 -3 -16 -12 -30 -32 -48 -86 -24 -86
39 0 47 53 74 80 41z m241 5 c23 -13 26 -62 3 -84 -8 -9 -31 -16 -50 -16 l-34
0 0 48 c0 27 3 52 7 55 10 10 52 8 74 -3z m193 -6 c23 -22 20 -26 -13 -19 -23
5 -32 2 -40 -14 -6 -11 -8 -27 -5 -35 7 -18 39 -22 49 -6 3 6 -1 10 -9 10 -9
0 -16 5 -16 10 0 6 14 10 30 10 34 0 36 -6 14 -38 -17 -24 -62 -30 -82 -10
-19 19 -14 66 8 88 24 24 43 25 64 4z m836 -4 c-6 -11 -13 -20 -16 -20 -2 0 0
9 6 20 6 11 13 20 16 20 2 0 0 -9 -6 -20z m100 17 c0 -2 -12 -14 -27 -28 l-28
-24 24 28 c23 25 31 32 31 24z m-380 -32 c13 -14 21 -25 18 -25 -2 0 -15 11
-28 25 -13 14 -21 25 -18 25 2 0 15 -11 28 -25z m-1104 -10 c3 -8 -1 -23 -9
-35 -13 -19 -15 -19 -21 -4 -8 20 2 54 15 54 5 0 12 -7 15 -15z m434 0 c10
-12 10 -18 -1 -32 -12 -15 -12 -16 2 -11 11 5 16 1 15 -10 -1 -23 -13 -30 -42
-24 -22 4 -24 8 -18 41 10 56 20 64 44 36z m868 -5 c-7 -10 -14 -18 -15 -16
-6 6 9 36 18 36 5 0 4 -9 -3 -20z m122 -4 c0 -2 -8 -10 -17 -17 -16 -13 -17
-12 -4 4 13 16 21 21 21 13z m-1405 -36 c-3 -5 -1 -10 5 -10 6 0 8 -5 4 -12
-6 -9 -9 -9 -12 0 -2 7 -8 10 -13 6 -10 -6 -12 9 -2 19 10 11 25 8 18 -3z
m-410 -292 c32 -73 76 -171 98 -217 l38 -84 98 214 98 214 142 3 141 3 -2
-358 -3 -358 -65 1 c-36 1 -80 2 -98 3 l-33 1 3 245 c2 134 0 241 -3 237 -3
-4 -50 -106 -104 -227 -53 -121 -103 -229 -110 -240 -10 -16 -22 -20 -67 -19
-31 1 -60 4 -65 7 -5 3 -56 110 -114 238 l-104 233 -5 -240 -5 -239 -93 1 -93
2 0 348 c0 192 0 352 0 357 1 4 65 7 144 7 l143 0 59 -132z m1325 52 l0 -80
-195 0 -196 0 3 -57 3 -58 165 -2 165 -2 3 -75 3 -76 -88 -1 c-48 -1 -111 -1
-140 1 -29 1 -66 -1 -83 -5 -29 -6 -30 -9 -30 -61 l0 -54 198 -2 197 -3 0 -80
0 -80 -290 1 -290 1 -3 356 -2 357 290 0 290 0 0 -80z m320 -195 l0 -275 165
0 165 0 0 -80 c0 -76 -1 -80 -22 -81 -98 -5 -458 -6 -478 -2 l-25 4 2 347 c1
191 2 350 2 355 1 4 44 7 96 7 l95 0 0 -275z m620 0 l0 -275 168 -2 167 -3 0
-80 0 -79 -265 1 -265 0 -3 357 -2 356 100 0 100 0 0 -275z"/>
<path d="M2852 4150 c0 -19 2 -27 5 -17 2 9 2 25 0 35 -3 9 -5 1 -5 -18z"/>
<path d="M2876 4088 c10 -14 21 -24 23 -22 3 3 -6 15 -18 27 l-24 22 19 -27z"/>
<path d="M2562 4022 c-26 -36 -38 -132 -27 -227 6 -59 10 -69 51 -110 26 -27
44 -55 43 -68 l0 -22 -16 23 c-19 28 -42 28 -87 1 -30 -18 -41 -19 -67 -10
-45 16 -57 14 -64 -9 -4 -11 -11 -18 -16 -15 -13 8 -11 52 3 78 10 20 9 21 -5
9 -37 -31 -39 -92 -3 -121 14 -12 19 -11 36 4 27 24 72 6 70 -28 -3 -35 1 -44
9 -17 8 30 46 38 104 20 32 -9 43 -9 62 4 36 24 38 48 11 116 -42 102 -58 220
-31 220 7 0 18 6 22 13 16 26 40 27 52 1 12 -28 45 -32 77 -9 20 14 34 11 34
-6 0 -5 -8 -6 -17 -2 -13 4 -15 3 -8 -5 7 -8 26 -9 55 -4 l43 7 -31 27 c-18
15 -55 31 -87 38 -48 10 -60 9 -100 -9 -52 -23 -61 -10 -12 19 56 35 136 23
190 -28 15 -14 27 -21 27 -14 0 18 -67 63 -109 73 -28 6 -53 4 -87 -6 -55 -16
-61 -15 -36 8 45 41 174 33 246 -15 26 -17 49 -29 51 -26 11 10 -35 75 -66 93
-28 16 -57 20 -165 23 l-131 4 -21 -30z m178 -122 c0 -5 -2 -10 -4 -10 -3 0
-8 5 -11 10 -3 6 -1 10 4 10 6 0 11 -4 11 -10z"/>
<path d="M2167 4026 c-46 -17 -57 -26 -80 -65 -22 -37 -18 -38 27 -7 49 33
109 40 173 21 29 -9 55 -19 57 -24 3 -5 -12 -3 -33 5 -29 10 -48 10 -77 3 -44
-12 -107 -56 -99 -69 3 -5 -3 -13 -12 -19 -31 -17 -10 -20 35 -4 39 13 46 13
61 -1 22 -20 45 -20 61 -1 7 8 21 15 32 15 17 0 18 -3 8 -15 -15 -18 -3 -19
35 -5 24 9 25 12 14 27 -18 21 -72 43 -106 43 -15 0 -48 -9 -72 -20 -55 -25
-64 -20 -16 10 54 33 115 38 159 11 33 -21 37 -21 59 -6 23 14 25 14 31 0 3
-9 7 -29 7 -43 1 -21 3 -19 9 11 7 35 -6 107 -23 135 -11 17 -200 15 -250 -2z"/>
<path d="M2310 3830 c-8 -5 -10 -10 -5 -10 6 0 17 5 25 10 8 5 11 10 5 10 -5
0 -17 -5 -25 -10z"/>
<path d="M2758 3823 c7 -3 16 -2 19 1 4 3 -2 6 -13 5 -11 0 -14 -3 -6 -6z"/>
<path d="M2253 3813 c9 -2 23 -2 30 0 6 3 -1 5 -18 5 -16 0 -22 -2 -12 -5z"/>
<path d="M2864 3618 l-19 -23 23 19 c21 18 27 26 19 26 -2 0 -12 -10 -23 -22z"/>
<path d="M2835 3579 c-4 -6 -5 -12 -2 -15 2 -3 7 2 10 11 7 17 1 20 -8 4z"/>
<path d="M2583 3495 c17 -19 17 -19 35 0 16 18 16 18 0 6 -15 -11 -21 -11 -35
0 -17 12 -17 12 0 -6z"/>
<path d="M2821 3474 c0 -11 3 -14 6 -6 3 7 2 16 -1 19 -3 4 -6 -2 -5 -13z"/>
<path d="M2535 3430 c-11 -4 -39 -6 -62 -3 -31 4 -54 0 -90 -18 -26 -13 -51
-23 -54 -22 -4 1 -15 -7 -25 -19 -19 -20 -19 -21 1 -15 70 20 111 26 195 28
52 1 121 -1 153 -6 33 -4 57 -4 57 1 0 9 -90 47 -135 58 -11 2 -29 1 -40 -4z"/>
<path d="M2433 3313 c-48 -5 -54 -16 -20 -35 50 -27 217 -3 217 32 0 10 -106
11 -197 3z"/>
<path d="M2749 3163 c-13 -16 -12 -17 4 -4 16 13 21 21 13 21 -2 0 -10 -8 -17
-17z"/>
<path d="M2709 3113 l-24 -28 28 24 c25 23 32 31 24 31 -2 0 -14 -12 -28 -27z"/>
<path d="M2645 3069 c-16 -10 -25 -19 -19 -19 7 0 22 9 35 20 30 24 23 24 -16
-1z"/>
<path d="M2578 3043 c7 -3 16 -2 19 1 4 3 -2 6 -13 5 -11 0 -14 -3 -6 -6z"/>
<path d="M2510 2687 c0 -10 8 -17 18 -17 9 0 13 4 7 8 -5 4 -13 11 -17 16 -5
5 -8 2 -8 -7z"/>
<path d="M2620 2676 c0 -2 7 -7 16 -10 8 -3 12 -2 9 4 -6 10 -25 14 -25 6z"/>
<path d="M2685 2616 c10 -14 19 -26 22 -26 7 0 -17 39 -28 46 -6 3 -3 -5 6
-20z"/>
<path d="M1970 2860 c0 -5 5 -10 11 -10 5 0 7 5 4 10 -3 6 -8 10 -11 10 -2 0
-4 -4 -4 -10z"/>
<path d="M1971 2794 c0 -11 3 -14 6 -6 3 7 2 16 -1 19 -3 4 -6 -2 -5 -13z"/>
<path d="M1886 2525 c-9 -26 -7 -32 5 -12 6 10 9 21 6 23 -2 3 -7 -2 -11 -11z"/>
<path d="M1850 2450 c-6 -11 -8 -20 -6 -20 3 0 10 9 16 20 6 11 8 20 6 20 -3
0 -10 -9 -16 -20z"/>
<path d="M3100 2565 c0 -16 6 -25 15 -25 16 0 19 9 9 34 -9 25 -24 19 -24 -9z"/>
<path d="M3517 2554 c-4 -4 -7 -18 -7 -31 0 -28 23 -27 28 1 4 20 -11 40 -21
30z"/>
<path d="M1449 2391 c-34 -34 -39 -45 -39 -85 0 -33 6 -52 20 -66 65 -65 191
47 158 141 -21 62 -83 66 -139 10z m117 -6 c37 -56 -20 -150 -87 -143 -25 2
-37 10 -47 31 -39 82 85 186 134 112z"/>
<path d="M1480 2355 c0 -5 9 -23 20 -40 11 -16 20 -23 20 -15 0 17 -39 71 -40
55z"/>
<path d="M2154 2365 c-8 -21 3 -45 20 -45 16 0 31 34 21 50 -9 15 -35 12 -41
-5z"/>
<path d="M3590 2201 c-13 -11 -29 -17 -35 -14 -5 4 -7 2 -2 -2 8 -10 -22 -47
-33 -40 -4 3 -14 -3 -21 -13 -13 -15 -12 -16 4 -3 21 17 23 4 2 -19 -21 -23
-76 -132 -70 -138 3 -3 6 -3 8 -1 1 2 27 38 58 79 133 180 136 187 89 151z"/>
<path d="M2850 2109 c1 -19 39 -103 45 -97 5 5 -27 93 -38 104 -4 4 -7 1 -7
-7z"/>
<path d="M3414 1928 l-19 -23 23 19 c12 11 22 21 22 23 0 8 -8 2 -26 -19z"/>
<path d="M3358 1907 c-14 -12 -45 -37 -67 -55 -34 -27 -79 -99 -69 -107 2 -1
41 38 87 87 82 87 103 118 49 75z"/>
<path d="M3377 2343 c-10 -9 -8 -41 2 -48 14 -8 41 23 35 40 -6 16 -26 20 -37
8z"/>
<path d="M1671 2104 c0 -11 3 -14 6 -6 3 7 2 16 -1 19 -3 4 -6 -2 -5 -13z"/>
<path d="M1631 1904 c0 -11 3 -14 6 -6 3 7 2 16 -1 19 -3 4 -6 -2 -5 -13z"/>
<path d="M1571 1594 c0 -11 3 -14 6 -6 3 7 2 16 -1 19 -3 4 -6 -2 -5 -13z"/>
<path d="M2362 2123 c3 -32 32 -43 42 -17 7 19 -10 44 -31 44 -10 0 -13 -9
-11 -27z"/>
<path d="M1917 2134 c-12 -13 -8 -66 5 -62 24 8 34 37 17 53 -8 9 -18 12 -22
9z"/>
<path d="M3579 1943 c-13 -16 -12 -17 4 -4 16 13 21 21 13 21 -2 0 -10 -8 -17
-17z"/>
<path d="M2144 1897 c-8 -22 -1 -60 12 -64 7 -2 19 4 28 13 15 14 15 19 3 37
-18 27 -35 33 -43 14z"/>
<path d="M1835 1870 c-3 -5 -1 -10 4 -10 6 0 11 5 11 10 0 6 -2 10 -4 10 -3 0
-8 -4 -11 -10z"/>
<path d="M1898 1646 c-6 -32 6 -51 26 -43 19 7 21 38 4 55 -18 18 -25 15 -30
-12z"/>
<path d="M1995 1630 c-3 -5 -1 -10 4 -10 6 0 11 5 11 10 0 6 -2 10 -4 10 -3 0
-8 -4 -11 -10z"/>
<path d="M2137 1414 c-13 -13 -8 -64 7 -64 23 0 41 29 30 48 -12 19 -27 25
-37 16z"/>
<path d="M2230 1380 c0 -5 5 -10 10 -10 6 0 10 5 10 10 0 6 -4 10 -10 10 -5 0
-10 -4 -10 -10z"/>
</g>
</svg>
