<svg width="300" height="300" viewBox="0 0 300 300" fill="none" xmlns="http://www.w3.org/2000/svg">
<path d="M300 150C300 232.843 232.843 300 150 300C67.1573 300 0 232.843 0 150C0 67.1573 67.1573 0 150 0C232.843 0 300 67.1573 300 150Z" fill="#FFC737"/>
<path fill-rule="evenodd" clip-rule="evenodd" d="M129.286 159.016L125.588 189.264C124.011 202.167 112.272 211.348 99.3687 209.771C86.4655 208.193 77.2842 196.454 78.8617 183.551L86.7658 118.898C90.3507 89.5745 127.735 79.4191 145.664 102.898L169.236 133.768L173.433 103.131C175.198 90.2518 187.069 81.2417 199.948 83.0061C212.827 84.7705 221.837 96.6413 220.072 109.52L211.267 173.797C207.288 202.837 170.219 212.619 152.43 189.324L129.286 159.016Z" fill="#FF6B00"/>
<path fill-rule="evenodd" clip-rule="evenodd" d="M70.5728 121.828C73.8629 122.223 76.2099 125.21 75.8149 128.501L71.3197 165.948C70.9247 169.238 67.9374 171.585 64.6473 171.19C61.3572 170.795 59.0103 167.808 59.4052 164.517L63.9005 127.07C64.2954 123.78 67.2827 121.433 70.5728 121.828Z" fill="#FF6B00"/>
<path fill-rule="evenodd" clip-rule="evenodd" d="M50.742 126.911C54.0261 127.353 56.3304 130.373 55.8887 133.657L53.5267 151.219C53.085 154.503 50.0646 156.808 46.7804 156.366C43.4963 155.924 41.1921 152.904 41.6338 149.62L43.9957 132.058C44.4374 128.774 47.4578 126.469 50.742 126.911Z" fill="#FF6B00"/>
<path fill-rule="evenodd" clip-rule="evenodd" d="M229.011 170.277C225.728 169.823 223.436 166.794 223.89 163.512L229.06 126.152C229.514 122.869 232.543 120.576 235.826 121.031C239.108 121.485 241.401 124.514 240.947 127.796L235.777 165.156C235.322 168.439 232.293 170.732 229.011 170.277Z" fill="#FF6B00"/>
<path fill-rule="evenodd" clip-rule="evenodd" d="M248.471 160.485C245.178 160.114 242.81 157.144 243.181 153.851L245.167 136.242C245.539 132.95 248.509 130.581 251.802 130.953C255.095 131.324 257.463 134.294 257.092 137.587L255.106 155.196C254.734 158.488 251.764 160.857 248.471 160.485Z" fill="#FF6B00"/>
</svg>
