<svg xmlns="http://www.w3.org/2000/svg" viewBox="0 0 269.29 269.29">
  <defs>
    <style>
      .cls-1 {
        fill: #2e3192;
      }

      .cls-2 {
        fill: #fff;
      }

      .cls-3 {
        fill: none;
        stroke: #2e3192;
        stroke-miterlimit: 10;
        stroke-width: 8px;
      }
    </style>
  </defs>
  <g id="Layer_2" data-name="Layer 2">
    <g id="Layer_1-2" data-name="Layer 1">
      <g>
        <circle class="cls-1" cx="134.65" cy="136.83" r="108.12"/>
        <g>
          <path class="cls-2" d="M58.38,111.14H68.47L59,164.43H49Z"/>
          <path class="cls-2" d="M124.05,132.6c0,18-13,31.83-31.11,31.83H71.77l9.44-53.29H101.8C115.55,111.14,124.05,119.57,124.05,132.6Zm-10.37.93c0-8.64-4.68-14-13.46-14H89.78L83.37,156H93.88C106.27,156,113.68,144.84,113.68,133.53Z"/>
          <path class="cls-2" d="M163.22,143.11l10.15,21.32H161.78L153,144.84H142l-3.45,19.59H128.44l9.43-53.29h22c10,0,16.2,5.62,16.2,14.19S170.85,140.23,163.22,143.11Zm-19.73-6.69h10c7.84,0,12.09-4.47,12.09-10.09,0-4.24-2.81-6.76-7.77-6.76H146.44Z"/>
          <path class="cls-2" d="M179.49,158.23l4.53-6.41c4.25,3.89,9.15,4.9,13.83,4.9,6.62,0,12-2.81,12-7.56,0-3.53-3.81-5.11-9.5-6.84l-3-.94c-7.42-2.23-13.11-5.54-13.11-12.74,0-10.87,9.65-18.22,22.11-18.22,7.12,0,12.81,2.23,17.13,6.34l-5.11,6.62a16.82,16.82,0,0,0-12.17-4.53c-6.26,0-11.3,3.09-11.3,7.41,0,3.39,3.38,4.68,8,6l2.95.94c7.13,2.09,14.55,6,14.55,14.25,0,10.59-10.3,17.65-22.83,17.65C190.07,165.15,183.59,162.63,179.49,158.23Z"/>
        </g>
        <circle class="cls-3" cx="134.65" cy="134.65" r="130.65"/>
        <path class="cls-2" d="M140.18,68.46l3.88,5-5,3.6-3.6-5.25-3.6,5.25-5-3.6,3.89-5-6-1.8,1.87-5.83,6,2.16-.22-6.41h6.19l-.14,6.34,6-2.09,1.88,5.83Z"/>
        <path class="cls-2" d="M139.33,216.52l3.89,5-5,3.6-3.6-5.26-3.6,5.26-5-3.6,3.89-5-6-1.8,1.87-5.84,6,2.16-.22-6.41h6.19L137.6,211l6-2.09,1.87,5.84Z"/>
      </g>
    </g>
  </g>
</svg>
