<?xml version="1.0" encoding="utf-8"?>
<svg version="1.0" width="673.22833" height="673.22833" viewBox="0 0 64 64" id="svg2480" style="fill-rule:evenodd" xmlns="http://www.w3.org/2000/svg">
  <g id="g3870" style="" transform="matrix(0.352816, 0, 0, 0.352816, -1.438612, -1.635608)">
    <path d="m 55.4862,163.636 c -1.6326,0.68619 -3.69448,1.28781 -5.49773,1.6324 -0.344793,0 -0.515444,0.68619 -0.515444,1.28791 0,1.6328 0.944714,4.2943 1.28781,4.72556 l 0.68789,0 c 2.40487,0 4.38057,-0.94661 5.32529,-1.9775 -0.42937,-1.71698 -0.944714,-3.86513 -1.28781,-5.66838 l -6e-6,1e-5 z m 79.2002,-0.3429 c -0.3432,1.9753 -0.68619,4.2943 -1.20154,6.01128 0.85834,1.54623 3.43566,1.9775 5.41146,1.9775 0.85824,-0.94661 1.6324,-2.57742 1.6324,-4.03767 0,-0.68789 -0.17245,-1.28961 -0.34459,-1.9758 -1.63111,-0.17214 -3.86523,-0.94621 -5.49773,-1.9753 l 0,-1e-5 z m 39.6009,-68.206598 c 1.54623,1.11696 3.00659,2.74807 4.2944,3.9513 1.80495,0 3.78065,-2.14815 4.20982,-3.9513 -0.60162,-1.9757 -2.40487,-3.9513 -4.03767,-3.9513 -1.28751,1.37398 -3.09276,2.66349 -4.46655,3.9513 z m -39.6009,-68.3772 -1.28781,-6.01318 c 0.60162,-1.20333 2.40487,-1.6326 4.72357,-1.6326 l 0.77416,0 c 0.85824,1.28961 1.80325,2.57732 1.80325,4.03757 0,0.68779 -0.17085,0.944714 -0.34329,1.6326 -2.06167,0.515444 -4.03738,0.944614 -5.66988,1.9756 l 0,10e-6 z M 55.4862,26.536856 c -1.6326,-0.944714 -4.03748,-1.6326 -5.49773,-1.6326 -0.344793,-0.686094 -0.344793,-1.28771 -0.344793,-1.9756 0,-1.28781 0.601617,-2.74797 1.46195,-4.03748 l 0.944714,0 c 2.14625,0 3.9513,0.601617 4.6374,1.80495 -0.515444,1.71708 -0.858441,4.20813 -1.20154,5.84073 l -1e-6,0 z m -39.5147,68.5496 c -1.6326,1.11696 -3.26521,2.57722 -4.21002,3.9513 -1.80315,0 -3.77886,-2.14815 -4.55292,-3.9513 0.601717,-1.80325 2.74976,-3.77896 4.55292,-3.77896 1.11716,1.02919 2.49114,2.49114 4.21002,3.77896 z" id="_26327096" style="fill:#e487a9;stroke:#f19abe;stroke-width:0.56444448;stroke-miterlimit:4;stroke-opacity:1;stroke-dasharray:none"/>
    <path d="m 63.475,113.382 c 2.14805,3.6082 4.46675,6.01308 7.98888,9.62168 -1.46026,0.94451 -3.34969,8.33167 -6.01328,8.33167 -1.80495,0 -1.11706,-2.49104 -2.40487,-2.49104 -1.80505,0 -3.9513,1.80495 -3.9513,3.78065 0,1.28781 0.686094,2.57742 1.80325,3.6082 l -1.46026,0.42917 c -1.28951,1.03109 -1.28951,2.83434 -2.49104,4.2944 0.858541,0.34489 1.20154,0.51535 1.6326,0.51535 0.858441,0 1.63081,-0.17046 2.14635,-0.51535 -0.343097,5.24101 -5.84083,11.2541 -10.5662,12.3694 -0.858441,-0.17085 -1.20154,-0.42917 -1.20154,-0.94501 0,-0.51535 0.515444,-1.28741 0.858441,-1.80315 -0.858441,-2.14795 -3.09276,-3.26501 -4.89602,-3.26501 -2.14805,0 -3.09266,1.46175 -3.09266,3.09286 l -0.68789,0.68789 c -0.686094,-1.20363 -1.11536,-6.09935 -3.43586,-6.09935 -0.599921,0 -2.23252,0.68749 -2.40497,1.6324 -1.46016,-2.40487 -3.00649,-4.03767 -5.9269,-6.01308 -0.342997,0.343 -0.772367,0.85834 -1.11716,1.9754 -0.515344,-3.09246 -5.23901,-3.43566 -7.81633,-4.294 l -0.515444,-0.60172 c 0.172346,0 0.172346,-0.34489 0.343097,-0.51574 0.601617,-1.45996 1.46006,-3.78065 1.46006,-5.41136 0,-0.43097 -0.685995,-2.06167 -1.46006,-2.57742 1.6325,0 2.57722,-0.17215 2.74966,-0.34459 -0.172446,-3.26361 -1.28961,-5.49773 -2.40487,-7.64388 1.11527,-0.345 2.40487,-1.28951 2.57542,-2.57742 -0.342997,-1.9757 -2.92022,-3.9514 -3.77886,-4.89602 l 0.343097,-0.51545 c 0.68789,0.60172 1.11716,0.60172 2.14805,0.77217 2.23432,-0.17045 3.43586,-2.06167 3.43586,-4.20823 0,-1.11706 -0.343097,-2.14785 -0.858541,-2.92201 -0.172446,0.17255 -0.601717,0.34469 -0.944714,0.34469 -1.03099,0 -1.6326,-1.03079 -1.6326,-1.80495 0,-3.09107 10.1369,-4.46655 11.9401,-4.46655 1.46016,0 3.09286,0.17215 4.20992,0.68789 -0.860236,1.11706 -1.46016,1.9754 -1.80495,3.09276 1.46016,0.17045 2.32039,0.85834 3.43576,0.85834 1.11716,0 1.9756,-0.51534 2.57742,-1.54623 0.68779,1.9754 1.37568,3.9511 3.6082,3.9511 1.9756,0 3.26511,-1.11706 4.55292,-2.57732 -1.11706,-1.20164 -1.6326,-1.63081 -1.6326,-1.9754 0,-1.9757 3.9513,-1.9757 5.75625,-1.9757 1.63091,0 3.43586,0.17245 4.72367,0.17245 1.46026,4.72357 2.14805,7.98848 4.20992,11.7674 l -6e-6,1.1e-4 z m 31.6966,17.9534 c 4.03757,0 7.21631,-0.85864 12.1123,-1.80315 0.77416,1.45996 4.21022,5.84053 4.21022,8.33167 0,0.77416 0,1.80495 -1.11746,1.80495 -0.68749,0 -1.45996,-0.34459 -1.9754,-0.85824 -0.3432,0.85824 -0.51574,1.63071 -0.51574,2.49104 0,2.05998 1.11746,4.20813 3.77906,4.38027 l 1.9757,-0.68749 -0.3429,1.80495 c 0,1.45996 1.45996,3.09077 2.74946,4.2944 1.03119,-1.20363 1.11536,-2.49114 1.80325,-3.6086 2.14825,1.11746 5.75476,7.98888 5.75476,12.7144 0,1.11536 -0.51375,3.60651 -1.80325,3.77866 -0.51544,-0.17215 -1.03119,-1.6325 -1.46036,-1.9754 -3.26321,0.17214 -5.41146,2.3187 -5.41146,4.20982 0,1.20164 0.60172,2.14615 1.9758,3.00659 l 0,0.59992 c -1.03119,-0.51545 -3.26531,-0.94491 -4.89612,-0.94491 -1.80495,0 -2.49114,0.94491 -2.49114,2.23452 0,0.51534 0.343,1.80315 0.343,1.80315 0,0 -1.11706,-0.17076 -1.80325,-0.17076 -2.14795,0 -4.38237,0.51545 -6.35777,1.80325 0,0.68789 0.77376,2.14825 0.77376,2.14825 0,0 -0.60162,-0.17254 -0.94451,-0.17254 -2.577424,0 -4.553124,3.26531 -6.357974,4.89602 -1.63091,-1.80315 -3.77896,-4.89602 -6.52862,-4.89602 -0.343097,0 -1.11546,0.343 -1.11546,0.343 0,0 0.772367,-1.63081 0.772367,-2.49114 -3.09276,-1.11536 -5.23901,-1.63081 -8.16122,-1.80325 0,0 0.515543,-1.11706 0.515543,-1.45996 0,-1.46036 -1.28781,-2.23452 -2.6618,-2.23452 -1.6326,0 -4.89602,0.77416 -4.89602,0.77416 0,0 2.3187,-2.06167 2.3187,-3.43576 -0.172346,-1.89112 -2.74976,-4.03767 -5.41146,-4.03767 -0.42927,0.17075 -0.944814,1.46036 -1.80495,1.46036 -1.28791,0 -1.63091,-2.14795 -1.63091,-3.43576 0.170651,-4.38227 3.43586,-11.2541 5.75456,-12.5419 0.172446,1.28781 0.515444,2.06197 1.80325,3.09276 1.46195,-1.28951 2.57732,-2.66359 2.57732,-4.38237 0,-0.3429 -0.170751,-0.85834 -0.170751,-1.20154 0.515543,0.17075 1.20164,0.3432 1.63091,0.3432 2.32049,0 3.9531,-2.92061 3.9531,-4.89602 0,-1.11706 -0.515543,-1.9757 -1.6326,-1.9757 -0.860336,0 -1.6326,1.03079 -1.6326,1.03079 -0.172446,-0.51535 -0.342997,-1.03079 -0.342997,-1.45996 0,-1.54653 0.686094,-3.26531 1.63071,-4.89602 l 2.49114,-4.12395 c 4.72536,1.11736 8.16122,2.14645 12.5418,2.14645 l 1.2e-5,5e-5 z m 31.526,-18.1238 c 2.23412,-3.6085 2.74956,-7.38716 4.38237,-12.1127 l 4.38027,0 c 2.83434,0 4.72387,0.68789 6.09935,2.319 -0.68799,0.60162 -1.54623,1.28951 -1.6325,1.9754 0.60162,1.46026 2.57742,2.57732 4.20813,2.57732 1.9757,0 3.09276,-1.80315 3.43775,-3.9511 0.94461,0.51544 1.63081,1.54623 2.74787,1.54623 1.11706,0 2.3186,-0.68789 3.43566,-0.68789 -0.17045,-1.28781 -0.94451,-2.49114 -1.80325,-3.09107 0.85874,-0.68789 2.49114,-0.68789 4.2944,-0.68789 3.09276,0 6.78724,0.68789 9.62168,1.9757 0.77207,0.51544 2.40487,1.6328 2.40487,2.49114 -2.14825,0.94491 -3.77896,1.71878 -3.77896,4.03738 0,1.80325 1.03079,4.38067 2.83404,4.38067 0.94491,0 2.06197,-0.25672 3.09276,-0.60172 0,0 -3.26531,3.43775 -3.26531,5.24101 0,1.28791 0.94491,2.23243 2.40697,2.57742 -1.28951,1.9754 -2.23442,4.38027 -2.23442,7.30089 0.60162,0.51545 2.23442,0.68759 2.23442,0.68759 0,0 -1.28951,1.63111 -1.28951,2.14645 0,2.06167 1.11706,5.24071 1.6324,6.95978 -1.9757,0.17046 -7.81803,1.63071 -7.98878,4.12185 -0.51544,-0.94491 -0.94461,-1.80325 -1.46036,-1.80325 -2.49075,1.9754 -4.20982,3.77866 -5.41136,6.18562 -0.77386,-0.60161 -2.06167,-1.80495 -2.57712,-1.80495 -2.32069,0 -3.78065,6.35597 -3.78065,6.35597 -0.17075,-2.57562 -1.28781,-4.03738 -3.43606,-4.03738 -1.28781,0 -3.69268,1.11706 -4.89602,3.09286 0.17245,0.86004 0.85864,1.80495 0.85864,2.32029 0,0.25673 -0.51534,0.60003 -1.03079,0.60003 -5.32559,0 -10.7369,-9.44923 -10.9095,-12.19701 0,0 2.74986,0.3429 3.78065,0.3429 -1.6324,-2.49114 -0.86004,-4.80974 -3.78065,-5.23891 0.94491,-0.68789 1.9757,-2.83614 1.9757,-3.43576 -0.3429,-2.66359 -2.49114,-4.12395 -5.06816,-4.12395 0.17215,0.17085 0.17215,0.6862 0.17215,0.85874 0,0.77407 -0.51535,1.6324 -1.03079,1.6324 -0.25703,0 -0.94492,-0.17244 -1.11706,-0.34459 -2.14655,-1.28781 -4.72357,-6.18393 -5.49773,-7.81633 3.35118,-3.77896 5.66988,-6.01348 7.98888,-9.79213 l 2e-5,-10e-6 z m 0,-36.4221 c -1.9757,-3.78065 -4.6377,-5.67008 -8.15963,-9.79373 l 2.40487,-3.86513 c 1.28791,-1.80325 2.14825,-4.12375 4.2944,-4.12375 0.60172,0.515543 1.11706,1.46016 1.11706,2.49114 2.23452,0 4.89602,-1.9756 4.89602,-4.12365 -0.51534,-1.11546 -1.03079,-2.92041 -2.14785,-3.60651 0.68789,-0.172446 1.46175,-0.172446 1.6325,-0.344892 1.11706,-1.11536 1.28951,-2.92031 2.14815,-4.38047 -0.17245,-0.343097 -1.03109,-0.343097 -1.28781,-0.343097 -1.03109,0 -1.46205,0.170651 -2.49284,0.515444 0.68789,-4.38057 5.9286,-12.3692 10.8246,-12.3692 0.42917,0 1.11706,0.170551 1.28781,0.772168 -0.3433,0.858541 -0.68619,1.6327 -0.68619,2.14805 0,1.28791 2.74817,3.26351 4.72357,3.26351 1.20333,-1.03089 2.14825,-2.14805 2.92031,-3.9513 0.86033,1.80325 1.6328,5.75625 4.46685,6.09935 0.60171,-0.343097 1.80495,-1.20333 2.23452,-1.6325 1.6324,2.06177 3.09276,4.03738 5.58351,5.66998 0.51574,-0.172346 1.11746,-0.68779 1.46036,-1.80495 0.51544,3.09276 4.72357,4.29609 7.81633,4.29609 -0.42918,1.46016 -1.11706,4.55292 -1.11706,6.61479 0,1.02919 0.68789,1.80325 0.9466,2.6618 0,0 -0.77416,-0.170751 -1.11736,-0.170751 -0.51544,0 -0.94461,0.170751 -1.28961,0.343097 0,1.11716 1.11746,7.64578 2.40697,7.81643 -1.28951,0.344793 -2.57732,1.28961 -2.57732,2.57732 0,1.80325 2.74777,4.12365 3.60641,4.89602 -1.02909,-0.256824 -1.46026,-0.256824 -2.3186,-0.256824 -2.14825,0 -3.6086,1.46016 -3.6086,4.20813 0,0.68789 0.345,1.80505 1.20373,3.09276 0.60162,0 2.40487,0 2.40487,0.944714 -0.60171,4.12375 -9.10624,4.89781 -11.9403,4.89781 -1.88953,0 -3.86493,-0.431066 -4.72527,-0.774063 1.37578,-1.11716 1.9774,-1.9756 2.14785,-3.26351 -0.34289,-0.172346 -1.80325,-0.68779 -3.26321,-0.68779 -1.11706,0 -2.32069,0.515444 -2.92031,1.46016 -0.34499,-1.6326 -1.11736,-3.86503 -3.26521,-3.86503 -1.9758,0 -3.43616,1.28771 -4.72357,2.74787 1.9754,0 1.28741,1.03089 1.9754,1.9757 -1.54623,1.28951 -3.43745,1.9756 -6.2715,2.14795 l -4.38067,0 c -1.28951,-4.89602 -2.14825,-8.33177 -4.20982,-12.2831 l 4e-5,-3.6e-5 z M 95.1716,58.4916 c -4.72367,0 -7.64408,1.20323 -12.3693,2.32029 -0.686094,-1.6325 -4.2943,-5.84243 -4.2943,-8.50422 0,-0.946409 0.342997,-1.6325 1.46016,-1.6325 0.515444,0 1.03089,0.172346 1.28771,0.515444 0.860336,-1.03099 1.03099,-2.14805 1.03099,-3.09276 0,-2.14805 -1.6326,-3.77896 -3.77886,-3.77896 -0.601816,0 -1.46026,0.170651 -1.9758,0.343097 0,-2.66349 -0.944614,-3.43586 -2.74966,-5.58391 -0.686094,1.20333 -1.11716,2.14805 -1.28771,3.6082 -2.32049,-1.46016 -5.927,-8.16122 -6.01318,-12.7141 0,-1.28771 0.08617,-3.77896 1.6326,-3.77896 0.772268,0.343097 1.28771,1.28781 1.88943,1.80325 2.6617,0 5.06846,-2.3187 5.23911,-4.20813 0,-1.37568 -0.515543,-2.14805 -1.80325,-2.66349 l -0.172446,-0.601717 c 0.68789,0.172446 3.09276,0.944814 4.72536,0.944814 1.37398,0 2.6618,-0.772367 2.6618,-2.57732 -0.170651,-0.686094 -0.343097,-1.02919 -0.686094,-1.63081 0.686094,0.170551 1.28771,0.170551 1.9756,0.170551 2.14805,0 4.20813,-0.686094 6.35617,-1.80325 0,-0.515344 -0.342997,-1.46016 -0.601617,-2.14805 l 0.601617,0 c 2.74976,0 5.24081,-3.26341 6.87172,-4.89602 1.6327,1.80325 3.9513,5.24081 6.35797,5.24081 l 0.85834,-0.515344 -0.51544,2.3186 c 2.74817,1.46026 5.23931,1.80325 7.81673,1.80325 l -0.51575,1.46026 c 0,1.80495 1.6328,2.40657 3.09276,2.40657 1.20323,0 3.6082,-0.344793 4.63939,-0.774063 -1.46036,1.11716 -2.14825,1.88953 -2.14825,3.43596 0,1.71868 2.74986,4.03738 5.41146,4.03738 0.43117,-0.170651 0.77407,-1.6325 1.6328,-1.6325 1.45996,0 1.6324,2.32049 1.6324,3.43755 0,4.55302 -3.26521,11.5953 -5.58391,12.8848 -0.34289,-1.46016 -0.77206,-2.74966 -1.9757,-3.43576 -1.28751,1.03089 -2.23412,2.3186 -2.40497,3.77886 l 0.3433,1.9756 c -0.85864,-0.342997 -1.54653,-0.515444 -2.14815,-0.515444 -2.6616,0 -3.77906,1.46026 -3.9512,3.9513 0,0.944714 0.34469,1.89122 0.68789,2.57732 0,0 1.28791,-0.515444 1.9754,-0.515444 0.77247,0 1.28791,0.344793 1.28791,1.28961 0,2.6617 -3.9512,8.33177 -4.38067,8.67477 -4.80984,-0.944614 -8.074749,-1.9755 -12.112299,-1.9755 L 95.1716,58.4916 z M 29.5442,49.38556 c 2.6617,-1.63081 4.72357,-3.9513 5.23911,-6.01318 0.68779,0.431066 2.57722,1.28961 3.09266,1.28961 2.49114,0 2.92041,-4.38057 3.6083,-5.75625 0.515444,2.14805 1.46016,3.78055 3.43576,3.78055 1.46026,0 3.43596,-1.28951 4.72367,-2.92041 0,-0.68779 -0.686094,-1.28951 -0.858541,-1.9756 0.344793,-0.68779 1.03089,-0.944614 1.6326,-0.944614 1.03099,0 1.80325,0.429171 2.49114,0.944614 3.77886,2.49114 7.81643,8.50432 7.81643,10.9092 0,0 -1.46026,-0.172346 -2.3188,-0.172346 -0.774063,0 -1.6325,0 -1.71878,0.342997 0.431066,1.9774 1.89122,3.43755 4.03757,4.72536 -0.772367,1.37398 -1.9757,2.3187 -1.9757,3.9513 0,1.80325 2.66349,3.9513 5.06846,3.9513 0,-1.20154 0.342997,-2.49114 1.6325,-2.49114 2.74807,0 4.89612,6.70097 5.927,8.33367 -3.43586,3.43576 -5.67008,5.79675 -7.9026,9.44893 -2.32049,3.73677 -2.92041,7.17252 -4.20992,12.0685 l -4.38057,0.172446 c -2.49114,-0.08627 -6.09935,-0.902525 -6.09935,-2.44886 0,-0.515543 0.344793,-1.28791 1.37398,-1.9757 -0.686094,-1.28781 -2.3187,-2.23432 -3.9513,-2.23432 -1.28781,0 -2.74797,0.431066 -3.09107,1.6326 l -0.860136,2.23432 c -0.601816,-1.11716 -1.46026,-1.6326 -2.74797,-1.6326 -0.944814,0 -1.9757,0.172446 -3.09286,0.68779 0,1.11546 0.944714,2.3188 1.6326,2.92041 -0.68789,0.686094 -2.32049,1.03089 -4.38227,1.03089 -3.60651,0 -11.7677,-3.00649 -11.7677,-4.81154 0,-0.42927 0.601617,-0.944714 2.40487,-1.11536 0.343097,-0.946509 1.03099,-1.9774 1.03099,-2.92211 0,-2.49114 -1.46026,-4.20813 -3.43586,-4.20813 -0.858441,0 -1.28771,0.08617 -1.9756,0.601617 0.858441,-1.11716 3.26331,-3.6082 3.26331,-5.49763 0,-0.860336 -1.63081,-2.14805 -2.74787,-2.49114 1.28771,-2.32049 2.06177,-3.78065 2.40487,-7.21651 -0.601617,-0.42927 -1.11716,-0.772367 -2.23243,-0.772367 1.11527,-0.515344 1.88933,-0.860236 1.88933,-2.14805 0,-2.06177 -1.11706,-4.55292 -2.40487,-6.87152 2.40487,-0.601717 7.98888,-0.774163 8.67497,-3.86692 l 0.774063,1.46016 1.4e-5,3.3e-5 z" id="_26312976" style="fill:#ef9ba0;stroke:#f19abe;stroke-width:0.56444448;stroke-miterlimit:4;stroke-opacity:1;stroke-dasharray:none"/>
    <path d="m 70.1742,95.0863 c 0,-13.7451 11.4263,-25.1699 24.8267,-25.1699 13.7433,0 25.1679,11.4247 25.1679,25.1699 0,13.7434 -11.2521,24.8251 -24.9972,24.8251 -13.571,0 -24.9973,-11.0816 -24.9973,-24.8251 l -1e-4,0 z" id="_26312200" style="fill:#eccf00;stroke:#fac300;stroke-width:0.56444448;stroke-miterlimit:4;stroke-opacity:1;stroke-dasharray:none"/>
  </g>
  <g id="g2516" style="" transform="matrix(0.352816, 0, 0, 0.352816, -1.438612, -1.635608)">
    <path d="m 25.635,57.5892 c 0.68779,-1.11716 2.32049,-2.3187 3.6082,-2.3187 0.515444,0 1.6326,0.343097 1.6326,0.858541 -0.774063,1.46016 -2.23422,2.40497 -3.43586,2.40497 -0.42927,0 -1.6325,-0.42937 -1.80495,-0.944814 l 1e-5,3e-6 z m 3.00659,3.43586 c 1.6325,0 3.43576,-1.6326 3.43576,-3.43586 0,-2.14805 -2.14625,-4.55292 -3.9513,-4.55292 -1.46016,0 -3.43576,1.6325 -3.43576,3.26511 0,2.23262 2.32039,4.72367 3.9513,4.72367 l 0,0 z m 20.7029,-0.515543 -0.944714,1.6326 c -0.515444,-2.92031 -2.14805,-5.49763 -5.41156,-5.49763 -2.92201,0 -5.24081,1.88953 -5.24081,4.72536 0,1.46026 0.515543,3.09107 1.46026,4.38047 -1.28781,0.170751 -3.09276,0.515543 -3.77886,1.6327 l -0.08627,-4.55292 c 0.08627,-1.9758 1.46026,-3.6083 1.46026,-5.24091 0,-0.68789 -0.85864,-2.3187 -1.6327,-2.74797 l -4.72357,8.33187 1.71708,3.26341 1.54633,-2.49114 c 0.42927,1.80495 0.42927,3.43765 1.11716,4.89781 0.172446,1.11527 0.944714,2.49114 2.14805,2.92031 0.42927,-3.69438 3.26341,-4.38047 6.52862,-4.89602 l 0.42927,-0.601617 c -1.46016,-0.344793 -2.74976,-0.68779 -3.6082,-0.68779 -0.42927,-0.68789 -0.601717,-1.11716 -0.601717,-1.6327 0,-2.14635 2.40497,-4.03748 4.38057,-4.03748 2.32049,0 2.74966,1.71878 3.26521,4.03748 -0.344892,1.11716 -1.11716,1.9757 -1.11716,3.09286 0,1.80495 1.11716,4.12365 2.57732,4.89602 1.28771,0.860236 2.92041,0 3.6082,1.11706 0.170651,-0.08617 0.170651,-0.601717 0.170651,-0.944714 0,-1.46016 -0.343097,-2.14815 -1.80325,-2.14815 -1.11716,0 -2.57722,0 -2.57722,-1.28771 0,-1.46016 2.23412,-4.72536 3.69438,-4.72536 0.858541,0 1.03089,0.68789 1.46016,1.6327 -0.42927,0.858441 -0.601617,1.6325 -0.601617,2.49104 0,1.28951 0.772268,2.23432 1.46016,2.74966 0,-2.14805 1.6326,-5.24071 4.20992,-5.24071 0,1.28941 1.03089,3.9513 1.37398,4.12355 0,-1.54633 0.944714,-3.9513 3.26341,-3.9513 0.774163,0 1.46016,0.686194 1.46016,1.46026 0,4.50903 -9.14813,5.19682 -14.2165,10.0067 l -0.04229,0.130157 c 4.12365,-1.6326 6.52862,-2.32039 8.67667,-2.66349 3.9513,-0.601617 7.21471,-2.23432 7.21471,-5.67008 0,-2.57732 -1.9756,-5.84073 -4.72367,-5.84073 -1.20323,0 -2.14805,0.601717 -2.66339,1.46016 -0.601717,-0.343097 -1.6327,-0.858441 -2.40497,-0.858441 -0.68779,0 -1.46016,0.342997 -2.14805,1.11536 -0.68789,-1.28791 -1.6326,-3.09117 -3.43586,-3.09117 l -0.68789,0 -0.772268,-1.28951 7e-6,5e-6 z" id="path2518" style="fill:#0d468e;stroke:#3281ba;stroke-width:0.175937"/>
    <path d="m 35.1701,137.563 c 0.258719,-0.17245 0.42927,-0.3433 0.42927,-0.51544 0,-0.3432 -0.772268,-0.3432 -0.944614,-0.42947 -0.944814,-1.80325 -1.9758,-4.89602 -1.9758,-8.07475 0,-2.23272 1.46026,-6.01338 1.46026,-6.35637 0,-0.25872 -0.170651,-0.42918 -0.42927,-0.42918 -0.343097,0 -0.68789,0.42918 -0.858441,0.94462 l -1.11716,2.92031 c -0.172446,0.68789 -1.9757,5.23931 -1.9757,6.87172 0,1.11706 0.343097,4.89612 2.3187,4.89612 l 3.09276,0.17245 -5e-6,-1e-5 z m 14.5174,-14.1744 c 0.42927,-0.3429 1.28961,-0.68619 2.23432,-0.68619 1.63081,0 3.00659,1.28781 3.00659,3.09276 0,1.80325 -1.37578,3.60651 -2.66359,3.60651 -1.46016,0 -3.26341,-4.12185 -3.26341,-4.89602 0,-0.3429 0,-0.51545 0.170751,-0.85835 l 0.515344,-0.25871 -5e-6,0 z m -7.81633,9.79383 3.69268,0 -1.63081,-3.6082 c -0.172446,-0.17255 -0.172446,-0.51544 -0.172446,-0.85874 0,-0.94451 0.515543,-2.40487 1.6326,-2.92031 l 1.03099,2.66199 c 0.599822,1.45996 2.92031,2.74946 5.23901,2.74946 2.57732,0 5.32708,-2.66329 5.32708,-5.24061 0,-2.57742 -2.06187,-4.38067 -4.55302,-4.38067 -1.28951,0 -2.57732,0.42917 -3.26511,0.77416 l 2.14805,-10.9112 c 0,-0.51544 -0.515543,-0.94461 -1.03099,-0.94461 -0.258619,0 -0.42927,0.0863 -0.42927,0.60172 l -9.36276,5.41136 c -1.80505,1.11706 -3.86682,1.6329 -6.01318,1.6329 l -1.11716,0 1.46026,2.23233 c 0,0 0.342997,0.51544 0.601717,0.68799 l 4.12185,0.94451 c 0,-0.0863 -0.515444,-0.60162 -0.515444,-1.11706 0,-1.9757 9.45073,-7.30089 10.6523,-8.15963 -1.46006,3.9515 -4.2943,7.21511 -4.46675,11.7678 l -3.09266,1.80495 -0.256924,-0.51544 c -0.515444,-0.77407 -1.6326,-1.11706 -2.83594,-1.11706 -0.599921,0 -1.28781,0.17254 -1.80325,0.34299 l 4.63919,8.16132 -1.3e-5,5e-5 z" id="path2520" style="fill:#da251d;stroke:#e46723;stroke-width:0.175937"/>
    <path d="m 141.259,66.4366 c -0.68779,0.258619 -1.46026,0.601717 -2.49104,0.601717 -1.6329,0 -2.74996,-1.46016 -2.74996,-3.09286 0,-1.80325 1.11706,-3.60641 2.23452,-3.60641 1.54623,0 3.43576,3.26331 3.43576,4.72357 0,0.515543 0,1.03089 -0.42927,1.37398 l -1e-5,3e-6 z m 7.81643,-9.53521 -3.09286,-0.42927 c -0.51534,0 -1.02909,0.172446 -1.02909,0.42927 0,0.172446 0.343,0.68789 0.51375,0.860336 l 1.11706,1.63081 c 0.68789,0.946509 0.68789,1.28951 0.68789,1.46185 0,0.944714 -0.68789,2.40497 -1.80495,2.92051 -0.3433,-2.40497 -3.09107,-5.24081 -6.18393,-5.24081 -2.74986,0 -5.41146,2.66339 -5.41146,5.41136 0,2.57732 2.14615,4.20992 4.55282,4.20992 1.37408,0 3.00659,-0.258619 3.43606,-0.772268 -0.77416,4.03568 -2.40487,10.3075 -2.40487,11.0797 0,0.515543 0.17035,0.860336 0.42917,0.860336 0.17075,0 0.51534,-0.172346 0.68619,-0.68789 l 9.79373,-5.41146 c 1.9757,-1.11716 4.89602,-1.80505 6.69927,-2.06187 l -1.28781,-2.49114 -4.12365,-1.11716 c -0.17244,0 -0.42947,0.172546 -0.42947,0.343097 0,0.258619 0.42947,0.172446 0.42947,0.601717 0,2.83594 -7.64588,6.09925 -10.9095,8.67667 1.80325,-3.78065 4.72397,-7.38716 4.72397,-11.7695 l 2.57702,-1.80325 c 0.17245,-0.172346 0.68789,-0.342997 0.86034,-0.342997 0.17085,0 1.63081,1.80325 3.26361,1.80325 0.51544,0 1.11706,-0.172346 1.6325,-0.256824 l -4.72527,-7.9044 1e-5,1.3e-5 z" id="path2522" style="fill:#68b94b;stroke:#b8db7c;stroke-width:0.175937"/>
    <path d="m 109.045,160.758 1.80495,-2.66359 c 0.17075,-0.17255 0.17075,-0.42927 0.17075,-0.60172 0,-0.17075 -0.17075,-0.34289 -0.51544,-0.34289 -0.0845,0 -0.42917,0 -0.77237,0.17214 l -0.51544,0.17075 c 0.85864,-1.6324 1.80325,-3.6082 1.9757,-6.09935 0.34299,-0.59992 0.68789,-0.94451 0.68789,-3.09107 -0.86034,0.6862 -1.80495,0.85864 -3.00649,0.85864 -4.38237,0 -9.621684,-4.29609 -10.393704,-5.24101 -0.172446,-0.34289 -0.344992,-0.68579 -0.860336,-0.68579 -0.17085,0.17045 -0.429171,0.51544 -0.429171,0.85834 l 0.25832,0.68789 -0.25832,9.27669 c 0,1.28951 0.172446,2.57732 0.172446,3.6081 -0.344992,0.94461 -1.37578,2.06207 -1.37578,2.57742 0,0.3429 0.172147,0.51544 0.344593,0.51544 l 1.28791,0 c 1.03079,0 1.37398,0 1.6324,-0.51544 l 1.975702,-2.40487 c 0,-0.17255 -0.3429,-0.17255 -0.77207,-0.17255 -1.03109,0 -1.6328,-10.8228 -1.6328,-11.597 l 1.11706,1.11706 c 1.28781,1.28781 3.43606,5.41146 7.81633,5.41146 0.68789,0 1.28791,-0.17254 2.14825,-0.34289 0,2.3186 -3.09276,5.06816 -4.29609,5.41136 -1.28781,0.42927 -2.74777,1.46006 -2.74777,3.09286 l 6.18353,0 -5e-5,2e-5 z m -16.3207,0 1.9758,-2.66359 c 0.172346,-0.17255 0.172346,-0.25672 0.172346,-0.42927 0,-0.3432 -0.344892,-0.3432 -1.11716,-0.3432 l -1.03099,0 c 0.515543,-1.28921 1.20343,-2.66329 1.46026,-4.12365 1.03089,-0.94451 1.80335,-2.23412 1.80335,-3.09276 0,-0.17244 0,-0.42917 -0.170751,-0.60161 -1.71888,0.77406 -3.09286,1.28951 -4.38057,1.28951 -5.24081,0 -6.52862,-7.38886 -7.47333,-14.0881 l -0.515444,-2.92031 c 0,-0.345 -0.515444,-0.60162 -0.68789,-0.60162 -0.08617,0 -0.258619,0.17245 -0.258619,0.60162 l 0.172446,3.26351 c 0.429171,7.73185 1.11706,16.6652 8.2474,16.6652 0.686094,0 1.37398,0 1.9757,-0.17215 -0.344892,1.03079 -1.11716,3.43576 -4.20992,3.9511 -1.6327,0.34499 -5.23911,0 -5.41156,3.26531 l 9.44893,0 2e-6,1e-5 z" id="path2524" style="fill:#96aebe;stroke:#1d5c77;stroke-width:0.175937"/>
    <path d="m 147.615,135.245 0.17245,0.51534 c 0,0 7.64558,-0.51534 9.27669,-0.51534 2.32039,0 6.01308,-1.80535 6.01308,-4.89612 0,-1.89112 -2.92031,-6.35807 -4.72347,-6.35807 -1.80505,0 -3.43606,1.80495 -3.43606,3.26531 0,1.20164 1.20154,2.49114 1.9757,2.92031 0,-2.40487 1.80325,-3.09276 3.09107,-3.09276 0.68789,0 1.03079,0.51534 1.03079,1.37408 0,2.23412 -5.23891,4.72527 -6.87142,4.98189 l -6.52882,1.80535 -1e-5,1e-5 z m -5.23891,-12.3712 c 0,0 0.17035,0.68789 0.17035,0.94631 0,1.80325 -2.92031,3.26361 -3.9511,3.26361 -1.11706,0 -2.74777,-0.77247 -2.74777,-2.06197 0,-1.46006 1.11706,-3.09286 2.74777,-3.09286 1.28961,0 3.09286,0.25872 3.78075,0.94491 l 0,0 z m 9.96448,2.40667 -1.6328,-3.35158 -1.45996,2.40667 c -0.17245,0.17075 -0.3433,0.3432 -0.51574,0.3432 -1.11706,0 -2.40487,-1.03079 -3.26491,-1.6324 -0.6862,-6.01348 -8.15963,-11.4249 -14.5156,-14.5177 l -0.17255,0.42947 c 4.20813,3.78035 9.27669,6.70107 11.2521,12.4554 -0.94461,-0.51545 -2.57532,-1.11536 -4.03738,-1.11536 -1.80325,0 -3.77896,1.46026 -3.77896,3.52193 0,2.83444 3.09276,6.35637 6.18552,6.35637 1.46036,0 2.92031,-0.60162 4.12195,-2.57742 0.43117,-0.94452 0.77416,-2.3186 0.77416,-3.09276 1.03079,0.51544 1.80315,1.46036 1.80315,2.74986 0,0.85834 -0.34289,1.63081 -0.34289,2.6616 0,0.94491 0.34289,2.06197 1.28751,2.57732 l 4.29639,-7.21461 1e-5,10e-6 z" id="path2526" style="fill:#f8c300;stroke:#fff500;stroke-width:0.175937"/>
    <path d="m 99.2528,82.2436 c 0.172546,-0.172446 0.515743,-0.515543 0.515743,-0.68789 0,-0.772367 -0.944913,-2.06187 -1.9757,-3.6083 -0.944913,-1.46016 -1.46036,-3.09097 -2.40487,-4.38057 -0.68789,-0.772268 -1.80505,-0.944614 -2.83604,-0.944614 -3.09097,0 -6.18383,2.57722 -6.18383,6.01308 0,1.46016 2.3188,2.57732 3.6083,2.57732 0.858541,0 1.63081,-0.774063 1.9756,-1.46016 0.515444,-0.601617 0.515444,-1.28961 0.515444,-1.80505 0,0.172346 -0.860236,0.344793 -1.37568,0.344793 -0.772367,0 -2.74797,-0.774063 -2.92041,-1.6325 0.172446,-0.944814 1.03099,-1.28781 1.80505,-1.28781 2.3187,0 5.06667,2.14625 6.35607,3.43586 1.46036,1.63081 2.6619,2.74797 2.92031,3.43586 l 1.3e-5,-1.9e-5 z M 87.999,82.759044 c -0.42927,0 -1.9757,2.74797 -1.9757,2.74797 0,0.515344 0.344793,0.515344 0.860336,0.515344 l 2.14625,0 c -1.46016,0.774163 -2.83414,2.92041 -3.60651,3.86513 -1.03089,1.03089 -1.46016,2.49114 -1.46016,3.26521 0.170651,-0.172346 1.11536,-0.515444 1.80325,-0.515444 2.92041,0 4.72367,2.66349 6.95779,4.2943 0,0 0.172546,-0.342997 0.172546,-0.515444 -0.344892,-0.599921 -1.46026,-2.57552 -1.80505,-3.43576 0.344793,-1.63091 1.37568,-1.63091 3.00649,-1.63091 1.71888,0 4.21002,1.80325 4.21002,4.2942 0,1.6329 -0.515444,2.74817 -1.9758,4.72566 -1.11706,-0.860436 -5.06836,-1.6328 -7.47323,-1.6328 -0.515444,0 -1.20333,0 -1.28951,0.42947 l -2.14635,3.17873 c 0.772367,-0.17215 1.46026,-0.68759 2.14635,-0.68759 3.86682,0 8.76274,0.68759 11.5109,2.92031 l -2.06197,0 c -1.80325,0 -3.9513,2.74956 -3.9513,4.38057 0,1.03089 0.344793,1.9754 0.344793,3.17873 0,0.0863 -0.172346,0.94491 -0.172346,1.28781 0.858441,0 1.80325,-1.63071 1.80325,-2.83404 0,-1.46036 -0.515543,-0.94491 -0.515543,-2.23243 0,-1.03109 0.68789,-1.11736 2.14825,-1.11736 l 1.80495,0 c 1.45996,0 2.404874,0.0863 2.404874,1.28781 0,0.42947 -0.60162,1.11706 -1.632804,1.80495 -1.80325,0.17075 -2.40487,1.80325 -2.57702,2.92061 0.515444,-0.34499 2.14785,-0.68789 2.92031,-0.68789 2.920314,0.17215 4.296094,2.49114 4.382374,2.66329 0,-2.14785 -1.71908,-4.72527 -3.35158,-4.89602 0.77416,-0.86004 1.71868,-1.6325 1.71868,-2.66329 0,-0.42947 -0.60162,-1.28951 -0.77377,-1.6328 l 0.51545,-1.11706 c 0,-0.3429 -0.3433,-0.3429 -0.3433,-0.3429 l -1.6325,0 c -0.686095,-1.28781 -2.146151,-3.26361 -3.092761,-3.77896 2.06197,-2.061969 3.608201,-3.866919 3.866921,-6.957889 -0.17245,-3.43755 -2.749861,-5.58391 -5.327181,-5.75635 -2.3186,0.172446 -4.46665,1.46016 -5.23901,4.12375 -1.03089,-1.46016 -1.9756,-2.49114 -3.78055,-2.66359 1.28951,-0.772268 2.32039,-2.06177 3.78055,-2.92022 0.944714,-0.515543 1.80325,-0.601816 2.40487,-0.601816 l 2.66369,0 c 0.772068,0 4.03738,-1.03089 4.03738,-3.26331 l -11.4263,0 -2.9e-5,2.9e-5 z m 16.4931,3.26331 c 1.6325,0 3.9528,0.944814 3.9528,2.57742 0,0.68779 -0.17215,0.944614 -0.51534,0.944614 -1.80495,0 -4.20992,-0.601617 -4.38237,-2.06177 0.43126,-1.03089 0.77416,-1.37398 0.94491,-1.46026 l 0,-4e-6 z m 2.49114,-1.9756 c -4.2944,0 -4.89602,4.72536 -5.23931,5.06836 0.17255,2.57742 2.57742,2.92041 4.55312,2.92041 2.3187,0 3.43576,-2.14805 3.43576,-4.12365 0,-2.06008 -1.11706,-3.86513 -2.74956,-3.86513 l -1e-5,1e-5 z m -2.14655,12.8848 c 1.6328,0 3.6082,0.944913 3.6082,2.23442 0,1.203326 -0.34459,1.203326 -0.86004,1.203326 -1.9757,0 -3.69268,-1.203326 -3.69268,-2.663686 0,-0.774063 0.42917,-0.774063 0.94452,-0.774063 l 0,3e-6 z m 0.77247,5.497626 c 3.17903,0 4.46685,-2.575316 4.46685,-4.896016 0,-1.6325 -1.20154,-2.40477 -2.49114,-2.40477 -2.40487,0 -5.49763,2.14815 -5.49763,4.20972 0,2.146546 1.28951,3.091066 3.52193,3.091066 l -1e-5,0 z" id="path2528" style="fill:#ffffff;stroke:#dededd;stroke-width:0.35187399"/>
    <path d="m 91.6072,31.4749 -1.80315,2.74966 c 0,0.515543 0.172346,0.686094 0.515344,0.686094 0.170751,0 0.515543,-0.170551 0.772367,-0.170551 -0.42927,1.46016 -1.28771,2.74787 -1.80325,4.38047 -1.11716,0.342997 -1.71878,1.9757 -2.06187,3.26521 0.343097,-0.172446 0.944714,-0.431066 1.80325,-0.431066 2.92211,0.08627 4.72536,1.46016 4.72536,2.74976 0,1.28781 -1.9756,1.80315 -3.09276,1.80315 -4.72357,-0.343097 -6.09935,-2.92022 -6.09935,-5.58381 0,-2.23252 1.03089,-5.49763 2.49104,-6.35627 0.944814,-0.686094 1.9757,-1.6325 2.23432,-3.09266 l -4.38057,0 -2.14805,3.26521 c 0,0.342997 0.68789,0.342997 0.858541,0.342997 0.344793,0 0.515444,0 0.68789,0.429171 -1.20343,1.54643 -1.54643,4.81164 -1.54643,6.2719 0,4.38037 3.43586,7.64388 6.27,7.98868 4.38227,0 5.84252,-4.89602 6.18552,-6.70097 -0.172346,-2.49114 -1.80325,-4.2944 -3.77886,-4.2944 -0.344793,0 -0.774063,0 -0.774063,0 0.172446,-0.601617 1.6326,-2.06187 2.23432,-2.74966 2.3186,1.11716 8.159231,11.4246 9.964581,14.6898 0.17035,0.342997 0.3429,1.03089 0.85824,1.03089 0.25882,0 0.94491,-0.172446 0.94491,-0.515444 0,-0.172446 -0.17244,-0.343097 -0.34319,-0.515444 l 0.51534,-12.5418 c 0,-1.28771 0,-2.14805 0.51544,-3.43576 0.17075,-0.85864 1.80325,-2.57742 1.80325,-2.74986 0,-0.342997 0,-0.515344 -1.37378,-0.515344 l -2.57732,0 -2.74787,3.09266 c 0,0.172546 0.17045,0.343097 0.25673,0.343097 0.17244,0 0.3429,0 0.51534,-0.170551 1.28791,0.686094 1.9758,10.9091 1.9758,12.3692 l 0,1.9757 -0.94491,-2.14815 c -2.663291,-4.89592 -1.9754,-7.98868 -5.583611,-12.1968 0.944614,-0.172546 2.3186,-1.6327 2.3186,-3.26521 l -7.38716,0 1.1e-5,1.01e-4 z M 92.122644,18.247 c 1.9756,0 4.38067,1.6325 4.38067,2.92031 0,0.515444 -0.17085,0.858441 -0.515444,1.46026 -1.46036,-0.256924 -4.03588,-2.06197 -4.03588,-3.43596 l 0.170651,-0.944614 3e-6,4e-6 z m 2.06187,-1.9757 c -2.40487,0 -3.86513,3.6082 -3.86513,4.89602 0,1.80325 2.40487,2.83424 3.86513,2.83424 2.3188,0 3.78075,-2.83424 3.78075,-4.46685 -0.172446,-2.06187 -2.57732,-3.26341 -3.78075,-3.26341 z m -0.772367,11.597 c -1.11706,-2.14805 -3.9512,-5.66998 -6.18552,-5.66998 -1.20333,0 -2.66349,2.92031 -2.83414,3.43576 0.170651,0.08617 0.343097,0.258619 0.515444,0.258619 0.170651,0 0.686094,-0.258619 0.858541,-0.430966 3.26341,0.25852 7.30089,3.43755 8.76104,5.49763 l 0.515543,-0.170551 0.68779,-1.88953 c 0.772467,-2.49284 3.69448,-2.32049 6.785535,-3.17903 2.83575,-0.944614 6.35807,-3.34959 6.35807,-4.89592 -3.26531,0.170551 -9.793825,1.9756 -11.510795,3.26341 l -3.17913,5.24081 -0.772367,-1.46026 -1.1e-5,8e-6 z" id="path2530" style="fill:#ffffff;stroke:#dededd;stroke-width:0.175937"/>
  </g>
  <path d="M 21.73 31.927 C 21.73 37.625 26.276 42.353 32.095 42.353 C 37.672 42.353 42.461 37.625 42.461 31.927 C 42.461 26.229 37.854 21.561 32.095 21.561 C 26.397 21.561 21.73 26.107 21.73 31.927 L 21.73 31.927 Z M 18.093 7.742 C 17.517 7.408 16.668 7.165 16.154 7.165 C 16.032 6.924 16.032 6.711 16.032 6.468 C 16.032 6.014 16.244 5.499 16.547 5.044 L 16.88 5.044 C 17.638 5.044 18.274 5.256 18.517 5.681 C 18.335 6.287 18.214 7.165 18.093 7.742 L 18.093 7.742 Z M 32.095 20.592 C 33.823 20.592 35.428 21.106 36.883 21.561 C 37.096 21.502 37.52 21.106 37.854 20.41 L 42.702 11.652 C 43.158 10.802 43.551 9.53 43.551 8.894 C 43.551 3.59 38.035 3.347 33.762 1.802 C 33.247 1.62 32.428 1.074 32.095 1.074 C 31.579 1.074 30.822 1.589 30.246 1.802 C 26.154 3.317 20.578 3.711 20.578 8.561 C 20.578 9.348 20.821 10.681 21.396 11.713 L 26.276 20.41 C 26.669 21.046 27.033 21.441 27.154 21.561 C 28.64 21.106 30.489 20.592 32.095 20.592 L 32.095 20.592 Z M 32.095 19.016 C 30.428 19.016 29.398 19.441 27.73 19.834 C 27.488 19.259 26.215 17.774 26.215 16.835 C 26.215 16.5 26.336 16.257 26.73 16.257 C 26.912 16.257 27.094 16.318 27.185 16.439 C 27.488 16.076 27.548 15.682 27.548 15.349 C 27.548 14.591 26.972 14.015 26.215 14.015 C 26.003 14.015 25.7 14.076 25.518 14.137 C 25.518 13.197 25.185 12.924 24.548 12.167 C 24.306 12.59 24.155 12.924 24.094 13.44 C 23.275 12.924 22.002 10.56 21.972 8.954 C 21.972 8.5 22.002 7.621 22.548 7.621 C 22.82 7.742 23.002 8.075 23.215 8.257 C 24.155 8.257 25.003 7.439 25.063 6.772 C 25.063 6.287 24.881 6.014 24.427 5.832 L 24.366 5.62 C 24.609 5.681 25.458 5.953 26.033 5.953 C 26.518 5.953 26.972 5.681 26.972 5.044 C 26.912 4.802 26.851 4.681 26.73 4.469 C 26.972 4.529 27.185 4.529 27.427 4.529 C 28.185 4.529 28.912 4.287 29.67 3.893 C 29.67 3.711 29.549 3.377 29.458 3.135 L 29.67 3.135 C 30.64 3.135 31.519 1.983 32.095 1.407 C 32.67 2.043 33.488 3.257 34.338 3.257 L 34.641 3.075 L 34.459 3.893 C 35.428 4.408 36.307 4.529 37.216 4.529 L 37.035 5.044 C 37.035 5.681 37.611 5.893 38.126 5.893 C 38.551 5.893 39.399 5.771 39.763 5.62 C 39.248 6.014 39.005 6.287 39.005 6.832 C 39.005 7.439 39.975 8.257 40.914 8.257 C 41.066 8.196 41.187 7.681 41.49 7.681 C 42.005 7.681 42.066 8.5 42.066 8.894 C 42.066 10.499 40.914 12.985 40.096 13.44 C 39.975 12.924 39.824 12.469 39.399 12.227 C 38.945 12.59 38.611 13.045 38.551 13.561 L 38.671 14.258 C 38.369 14.137 38.126 14.076 37.913 14.076 C 36.975 14.076 36.58 14.591 36.519 15.47 C 36.519 15.803 36.641 16.137 36.762 16.379 C 36.762 16.379 37.216 16.198 37.459 16.198 C 37.732 16.198 37.913 16.318 37.913 16.653 C 37.913 17.592 36.519 19.592 36.368 19.713 C 34.671 19.38 33.519 19.016 32.095 19.016 L 32.095 19.016 Z M 23.275 31.927 C 23.275 27.078 27.306 23.047 32.034 23.047 C 36.883 23.047 40.914 27.078 40.914 31.927 C 40.914 36.775 36.944 40.685 32.095 40.685 C 27.306 40.685 23.275 36.775 23.275 31.927 L 23.275 31.927 Z M 20.911 38.382 C 21.669 39.655 22.487 40.503 23.73 41.777 C 23.215 42.11 22.548 44.716 21.609 44.716 C 20.971 44.716 21.214 43.837 20.76 43.837 C 20.124 43.837 19.366 44.474 19.366 45.171 C 19.366 45.626 19.608 46.081 20.003 46.445 L 19.487 46.596 C 19.032 46.96 19.032 47.596 18.608 48.111 C 18.91 48.233 19.032 48.293 19.184 48.293 C 19.487 48.293 19.76 48.233 19.942 48.111 C 19.821 49.96 17.88 52.082 16.214 52.475 C 15.911 52.415 15.79 52.324 15.79 52.142 C 15.79 51.96 15.972 51.688 16.093 51.506 C 15.79 50.748 15.002 50.354 14.366 50.354 C 13.608 50.354 13.274 50.869 13.274 51.445 L 13.031 51.688 C 12.789 51.263 12.638 49.536 11.819 49.536 C 11.607 49.536 11.032 49.777 10.971 50.112 C 10.456 49.263 9.91 48.687 8.88 47.99 C 8.758 48.111 8.607 48.293 8.485 48.687 C 8.304 47.596 6.637 47.475 5.728 47.171 L 5.546 46.96 C 5.607 46.96 5.607 46.838 5.667 46.778 C 5.879 46.263 6.182 45.444 6.182 44.869 C 6.182 44.716 5.94 44.141 5.667 43.959 C 6.243 43.959 6.576 43.898 6.637 43.837 C 6.576 42.686 6.182 41.898 5.789 41.141 C 6.182 41.019 6.637 40.685 6.697 40.231 C 6.576 39.534 5.667 38.837 5.364 38.504 L 5.485 38.322 C 5.728 38.534 5.879 38.534 6.243 38.594 C 7.031 38.534 7.455 37.867 7.455 37.11 C 7.455 36.716 7.333 36.352 7.152 36.078 C 7.091 36.139 6.94 36.2 6.819 36.2 C 6.455 36.2 6.243 35.837 6.243 35.563 C 6.243 34.473 9.82 33.987 10.456 33.987 C 10.971 33.987 11.546 34.048 11.941 34.23 C 11.637 34.624 11.425 34.927 11.304 35.321 C 11.819 35.381 12.123 35.624 12.516 35.624 C 12.91 35.624 13.213 35.442 13.426 35.079 C 13.668 35.776 13.91 36.473 14.699 36.473 C 15.395 36.473 15.85 36.078 16.304 35.563 C 15.911 35.14 15.729 34.988 15.729 34.866 C 15.729 34.169 17.122 34.169 17.76 34.169 C 18.335 34.169 18.971 34.23 19.426 34.23 C 19.942 35.897 20.185 37.049 20.911 38.382 L 20.911 38.382 Z M 22.305 37.564 C 21.427 36.2 20.971 34.412 20.639 32.745 L 9.121 32.745 C 8.244 32.745 7.001 33.2 6.364 33.533 C 4.213 34.684 3.697 36.291 3.697 38.14 C 3.758 40.898 5.272 44.08 5.272 46.899 C 5.272 47.171 5.485 47.414 5.667 47.596 C 8.94 49.959 11.637 54.051 15.213 54.143 C 16.94 54.082 18.91 52.99 19.881 51.263 L 25.579 41.535 C 24.306 40.444 23.123 38.958 22.305 37.564 L 22.305 37.564 Z M 6.455 32.109 L 6.455 31.745 C 4.727 31.048 4 30.381 2.848 28.865 C 1.848 28.865 0.939 31.048 0.696 31.927 C 0.939 32.775 1.848 34.866 2.909 34.927 C 4 33.533 4.788 32.685 6.455 32.109 L 6.455 32.109 Z M 4.152 31.927 C 3.576 32.321 2.999 32.836 2.666 33.321 C 2.03 33.321 1.333 32.563 1.06 31.927 C 1.272 31.291 2.03 30.594 2.666 30.594 C 3.06 30.956 3.545 31.472 4.152 31.927 Z M 18.093 56.113 C 17.517 56.355 16.79 56.567 16.154 56.688 C 16.032 56.688 15.972 56.931 15.972 57.142 C 15.972 57.718 16.304 58.658 16.426 58.809 L 16.669 58.809 C 17.517 58.809 18.214 58.476 18.547 58.112 C 18.396 57.507 18.214 56.749 18.093 56.113 L 18.093 56.113 Z M 19.124 54.051 L 19.426 54.263 C 19.366 54.658 19.244 55.082 19.244 55.537 C 19.305 56.567 19.608 57.507 20.124 58.75 C 19.76 59.234 19.032 59.325 18.214 59.325 C 17.517 59.325 16.668 59.173 16.244 59.112 C 15.668 58.476 14.759 57.082 14.759 56.052 C 14.759 55.931 14.82 55.778 14.88 55.658 C 16.668 55.597 17.76 55.142 19.124 54.051 L 19.124 54.051 Z M 32.094 44.716 C 33.519 44.716 34.641 44.413 36.368 44.08 C 36.641 44.595 37.854 46.141 37.854 47.02 C 37.854 47.293 37.854 47.657 37.459 47.657 C 37.216 47.657 36.944 47.535 36.762 47.353 C 36.641 47.657 36.58 47.929 36.58 48.233 C 36.58 48.959 36.975 49.717 37.913 49.777 L 38.611 49.536 L 38.49 50.173 C 38.49 50.687 39.005 51.263 39.46 51.688 C 39.824 51.263 39.853 50.809 40.096 50.414 C 40.854 50.809 42.126 53.233 42.126 54.901 C 42.126 55.294 41.945 56.173 41.49 56.234 C 41.308 56.173 41.126 55.658 40.975 55.537 C 39.824 55.597 39.066 56.355 39.066 57.021 C 39.066 57.446 39.278 57.778 39.763 58.082 L 39.763 58.294 C 39.399 58.112 38.611 57.96 38.035 57.96 C 37.398 57.96 37.157 58.294 37.157 58.748 C 37.157 58.93 37.277 59.385 37.277 59.385 C 37.277 59.385 36.883 59.325 36.641 59.325 C 35.883 59.325 35.095 59.506 34.398 59.962 C 34.398 60.205 34.671 60.719 34.671 60.719 C 34.671 60.719 34.459 60.659 34.338 60.659 C 33.428 60.659 32.731 61.81 32.094 62.386 C 31.519 61.749 30.761 60.659 29.791 60.659 C 29.67 60.659 29.398 60.78 29.398 60.78 C 29.398 60.78 29.67 60.205 29.67 59.901 C 28.579 59.506 27.822 59.325 26.79 59.264 C 26.79 59.264 26.972 58.87 26.972 58.748 C 26.972 58.234 26.518 57.96 26.033 57.96 C 25.457 57.96 24.306 58.234 24.306 58.234 C 24.306 58.234 25.124 57.507 25.124 57.021 C 25.063 56.355 24.155 55.597 23.215 55.597 C 23.063 55.658 22.881 56.113 22.578 56.113 C 22.123 56.113 22.002 55.355 22.002 54.901 C 22.063 53.354 23.215 50.93 24.034 50.475 C 24.094 50.93 24.216 51.202 24.67 51.566 C 25.185 51.112 25.579 50.627 25.579 50.02 C 25.579 49.899 25.518 49.717 25.518 49.597 C 25.7 49.656 25.942 49.717 26.093 49.717 C 26.912 49.717 27.488 48.687 27.488 47.99 C 27.488 47.596 27.306 47.293 26.912 47.293 C 26.608 47.293 26.336 47.657 26.336 47.657 C 26.276 47.475 26.215 47.293 26.215 47.142 C 26.215 46.596 26.458 45.989 26.79 45.414 L 27.669 43.959 C 29.337 44.354 30.549 44.716 32.094 44.716 L 32.094 44.716 Z M 32.094 43.201 C 30.428 43.201 28.64 42.807 27.154 42.232 L 21.396 52.142 C 20.699 53.354 20.396 54.385 20.396 55.294 C 20.396 59.841 27.943 61.628 32.094 62.69 C 36.247 61.174 43.43 60.901 43.612 55.082 C 43.612 54.324 43.097 52.929 42.642 52.142 L 37.854 43.383 C 37.459 42.807 37.096 42.414 36.883 42.171 C 35.428 42.807 33.762 43.201 32.094 43.201 L 32.094 43.201 Z M 46.036 55.992 C 45.915 56.688 45.793 57.507 45.611 58.112 C 45.915 58.658 46.825 58.809 47.522 58.809 C 47.824 58.476 48.097 57.9 48.097 57.385 C 48.097 57.142 48.037 56.931 47.976 56.688 C 47.4 56.628 46.612 56.355 46.036 55.992 L 46.036 55.992 Z M 44.703 54.204 L 45.006 54.051 C 46.43 55.142 47.522 55.537 49.31 55.719 C 49.37 55.778 49.431 55.931 49.431 56.173 C 49.431 57.082 48.218 58.598 47.765 59.173 C 47.4 59.234 46.612 59.325 45.915 59.325 C 45.097 59.325 44.369 59.173 44.066 58.689 C 44.582 57.507 44.885 56.506 44.946 55.537 C 44.946 55.203 44.824 54.658 44.703 54.204 L 44.703 54.204 Z M 43.217 38.322 C 44.006 37.049 44.187 35.716 44.764 34.048 L 46.309 34.048 C 47.309 34.048 47.976 34.291 48.461 34.866 C 48.218 35.079 47.916 35.321 47.885 35.563 C 48.097 36.078 48.795 36.473 49.37 36.473 C 50.067 36.473 50.461 35.837 50.583 35.079 C 50.916 35.26 51.158 35.624 51.553 35.624 C 51.947 35.624 52.37 35.381 52.765 35.381 C 52.705 34.927 52.43 34.502 52.128 34.291 C 52.43 34.048 53.008 34.048 53.644 34.048 C 54.734 34.048 56.038 34.291 57.038 34.745 C 57.311 34.927 57.886 35.321 57.886 35.624 C 57.129 35.957 56.553 36.231 56.553 37.049 C 56.553 37.685 56.916 38.594 57.554 38.594 C 57.886 38.594 58.281 38.504 58.644 38.382 C 58.644 38.382 57.493 39.595 57.493 40.231 C 57.493 40.685 57.826 41.019 58.341 41.141 C 57.886 41.838 57.554 42.686 57.554 43.716 C 57.765 43.898 58.341 43.959 58.341 43.959 C 58.341 43.959 57.886 44.534 57.886 44.716 C 57.886 45.444 58.281 46.566 58.463 47.171 C 57.765 47.232 55.704 47.747 55.643 48.626 C 55.461 48.293 55.311 47.99 55.128 47.99 C 54.25 48.687 53.644 49.323 53.219 50.173 C 52.947 49.96 52.491 49.536 52.309 49.536 C 51.492 49.536 50.976 51.778 50.976 51.778 C 50.916 50.87 50.522 50.354 49.764 50.354 C 49.31 50.354 48.461 50.748 48.037 51.445 C 48.097 51.748 48.34 52.082 48.34 52.264 C 48.34 52.354 48.158 52.475 47.976 52.475 C 46.097 52.475 44.187 49.141 44.127 48.172 C 44.127 48.172 45.097 48.293 45.461 48.293 C 44.885 47.414 45.157 46.596 44.127 46.445 C 44.46 46.202 44.824 45.444 44.824 45.232 C 44.703 44.293 43.945 43.777 43.036 43.777 C 43.097 43.837 43.097 44.019 43.097 44.08 C 43.097 44.354 42.915 44.656 42.733 44.656 C 42.642 44.656 42.4 44.595 42.339 44.534 C 41.581 44.08 40.672 42.353 40.399 41.777 C 41.581 40.444 42.4 39.655 43.217 38.322 L 43.217 38.322 Z M 41.823 37.503 C 40.914 39.019 39.702 40.262 38.611 41.382 C 38.611 41.535 38.763 41.959 39.127 42.686 L 44.127 51.263 C 45.157 52.99 47.066 54.143 48.977 54.143 C 52.523 54.143 55.4 49.475 58.704 47.293 C 58.826 44.354 60.432 41.08 60.432 38.14 C 60.432 35.321 58.341 32.745 55.068 32.745 L 43.491 32.745 C 43.309 34.351 42.642 36.2 41.823 37.503 L 41.823 37.503 Z M 60.007 31.927 C 60.553 32.321 61.069 32.896 61.523 33.321 C 62.16 33.321 62.857 32.563 63.008 31.927 C 62.796 31.23 62.16 30.533 61.583 30.533 C 61.13 31.017 60.492 31.472 60.007 31.927 Z M 57.704 31.988 L 57.704 31.745 C 59.342 31.17 60.189 30.381 61.16 28.865 C 62.22 28.926 63.251 31.048 63.462 31.927 C 63.19 32.836 62.312 34.866 61.281 34.927 C 60.068 33.412 59.402 32.745 57.704 31.988 L 57.704 31.988 Z M 41.884 26.229 C 42.733 27.654 43.278 29.502 43.612 31.048 L 55.007 31.048 C 57.947 31.048 60.371 28.532 60.371 25.653 C 60.371 22.774 58.917 18.561 58.765 16.5 C 55.522 14.258 52.644 9.712 48.977 9.712 C 47.066 9.712 45.279 10.681 44.187 12.53 L 39.187 21.167 C 38.763 21.804 38.551 22.077 38.49 22.32 C 39.763 23.351 40.975 24.714 41.884 26.229 L 41.884 26.229 Z M 43.217 25.471 C 42.52 24.137 41.581 23.471 40.339 22.017 L 41.187 20.652 C 41.642 20.016 41.945 19.198 42.702 19.198 C 42.915 19.38 43.097 19.713 43.097 20.077 C 43.885 20.077 44.824 19.38 44.824 18.622 C 44.642 18.228 44.46 17.592 44.066 17.35 C 44.309 17.289 44.582 17.289 44.642 17.228 C 45.036 16.835 45.097 16.198 45.4 15.682 C 45.339 15.561 45.036 15.561 44.946 15.561 C 44.582 15.561 44.43 15.621 44.066 15.743 C 44.309 14.197 46.157 11.379 47.885 11.379 C 48.037 11.379 48.279 11.439 48.34 11.652 C 48.218 11.954 48.097 12.228 48.097 12.409 C 48.097 12.864 49.067 13.561 49.764 13.561 C 50.188 13.197 50.522 12.803 50.795 12.167 C 51.098 12.803 51.371 14.197 52.37 14.319 C 52.583 14.197 53.008 13.894 53.159 13.743 C 53.734 14.469 54.25 15.167 55.128 15.743 C 55.311 15.682 55.522 15.501 55.643 15.106 C 55.825 16.198 57.311 16.622 58.402 16.622 C 58.25 17.136 58.008 18.228 58.008 18.956 C 58.008 19.319 58.25 19.592 58.342 19.895 C 58.342 19.895 58.068 19.834 57.947 19.834 C 57.765 19.834 57.614 19.895 57.493 19.956 C 57.493 20.349 57.886 22.653 58.342 22.713 C 57.886 22.835 57.432 23.169 57.432 23.623 C 57.432 24.259 58.402 25.077 58.704 25.351 C 58.342 25.259 58.19 25.259 57.886 25.259 C 57.129 25.259 56.614 25.775 56.614 26.744 C 56.614 26.986 56.735 27.382 57.038 27.836 C 57.25 27.836 57.886 27.836 57.886 28.168 C 57.674 29.624 54.673 29.897 53.673 29.897 C 53.008 29.897 52.309 29.745 52.007 29.624 C 52.491 29.229 52.705 28.926 52.765 28.472 C 52.644 28.411 52.128 28.229 51.612 28.229 C 51.219 28.229 50.795 28.411 50.583 28.744 C 50.461 28.168 50.188 27.382 49.431 27.382 C 48.734 27.382 48.218 27.836 47.765 28.35 C 48.461 28.35 48.218 28.714 48.461 29.047 C 47.916 29.502 47.248 29.745 46.249 29.806 L 44.703 29.806 C 44.248 28.078 43.945 26.865 43.217 25.471 L 43.217 25.471 Z M 46.036 7.803 L 45.582 5.681 C 45.793 5.256 46.43 5.105 47.248 5.105 L 47.522 5.105 C 47.824 5.56 48.158 6.014 48.158 6.529 C 48.158 6.772 48.097 6.863 48.037 7.106 C 47.309 7.287 46.612 7.439 46.036 7.803 L 46.036 7.803 Z M 44.764 9.591 L 45.097 9.712 C 46.309 8.59 47.522 8.318 49.249 8.196 C 49.37 8.014 49.37 7.803 49.37 7.621 C 49.37 6.59 48.279 5.317 47.765 4.741 C 47.309 4.559 46.491 4.529 45.793 4.529 C 45.036 4.529 44.369 4.802 44.006 5.135 C 44.642 6.257 44.885 7.226 44.885 8.257 C 44.885 8.712 44.824 9.136 44.764 9.591 L 44.764 9.591 Z M 20.699 31.048 C 20.971 29.563 21.442 27.654 22.245 26.289 C 23.139 24.775 24.366 23.351 25.639 22.38 L 19.881 12.591 C 19.366 11.713 18.456 10.742 17.699 10.378 C 16.88 9.924 16.032 9.712 15.153 9.712 C 14.366 9.712 11.88 11.47 11.486 11.772 C 10.91 12.167 6.576 15.41 5.303 16.622 C 5.303 19.501 3.697 22.835 3.697 25.714 C 3.697 27.502 4.273 29.169 6.364 30.381 C 6.94 30.714 8.243 31.048 9.121 31.048 L 20.699 31.048 L 20.699 31.048 Z M 8.94 15.803 C 9.879 15.228 10.607 14.409 10.789 13.682 C 11.032 13.833 11.698 14.137 11.88 14.137 C 12.759 14.137 12.909 12.591 13.152 12.106 C 13.334 12.864 13.668 13.44 14.366 13.44 C 14.88 13.44 15.577 12.985 16.032 12.409 C 16.032 12.167 15.79 11.954 15.729 11.713 C 15.85 11.47 16.093 11.379 16.304 11.379 C 16.668 11.379 16.94 11.531 17.183 11.713 C 18.517 12.591 19.942 14.712 19.942 15.561 C 19.942 15.561 19.426 15.501 19.124 15.501 C 18.851 15.501 18.547 15.501 18.517 15.621 C 18.669 16.318 19.184 16.835 19.942 17.289 C 19.669 17.774 19.244 18.107 19.244 18.682 C 19.244 19.319 20.185 20.077 21.032 20.077 C 21.032 19.652 21.153 19.198 21.609 19.198 C 22.578 19.198 23.336 21.563 23.699 22.138 C 22.487 23.351 21.699 24.184 20.911 25.471 C 20.093 26.79 19.881 28.003 19.426 29.729 L 17.88 29.79 C 17.001 29.76 15.729 29.472 15.729 28.926 C 15.729 28.744 15.85 28.472 16.214 28.229 C 15.972 27.775 15.395 27.441 14.82 27.441 C 14.366 27.441 13.85 27.593 13.729 28.018 L 13.426 28.805 C 13.213 28.411 12.909 28.229 12.455 28.229 C 12.123 28.229 11.759 28.29 11.364 28.472 C 11.364 28.865 11.698 29.29 11.941 29.502 C 11.698 29.745 11.122 29.866 10.395 29.866 C 9.121 29.866 6.243 28.805 6.243 28.168 C 6.243 28.018 6.454 27.836 7.091 27.775 C 7.212 27.441 7.455 27.078 7.455 26.744 C 7.455 25.866 6.94 25.259 6.243 25.259 C 5.94 25.259 5.789 25.29 5.546 25.471 C 5.849 25.077 6.697 24.198 6.697 23.532 C 6.697 23.229 6.122 22.774 5.728 22.653 C 6.182 21.835 6.454 21.32 6.576 20.106 C 6.364 19.956 6.182 19.834 5.789 19.834 C 6.182 19.652 6.454 19.531 6.454 19.077 C 6.454 18.35 6.061 17.471 5.607 16.653 C 6.454 16.439 8.425 16.379 8.667 15.288 L 8.94 15.803 L 8.94 15.803 Z M 19.124 9.712 L 19.426 9.651 C 19.305 9.166 19.305 8.772 19.305 8.379 C 19.305 7.287 19.608 6.257 20.124 5.105 C 19.669 4.62 19.032 4.529 18.093 4.529 C 17.456 4.529 16.79 4.559 16.426 4.741 C 15.79 5.378 14.759 6.65 14.759 7.681 C 14.759 7.803 14.759 7.984 14.82 8.075 C 16.668 8.318 17.699 8.651 19.124 9.712 L 19.124 9.712 Z" id="path2512" style="fill: rgb(180, 32, 122); stroke: rgb(248, 195, 0); stroke-width: 0.564444; stroke-miterlimit: 4; stroke-opacity: 1; stroke-dasharray: none;"/>
</svg>