<svg id="Layer_1" data-name="Layer 1" xmlns="http://www.w3.org/2000/svg" viewBox="0 0 484.94 484.94"><defs><style>.cls-1{fill:#dd0303;}.cls-2{fill:#fff;}</style></defs><circle class="cls-1" cx="242.47" cy="242.47" r="242.47"/><path class="cls-2" d="M212.12,257.93c2.07,5,4.82,8.87,8.91,11.58,1.64,1.08,3.65,1.6,5.46,2.44a3.61,3.61,0,0,1,1.68,1.25c.15.28-.52,1.11-.95,1.57-3.44,3.7-7,7.3-10.34,11.09a8.1,8.1,0,0,0-2,8.12c1.18,4.26,1.55,8.74,2.42,13.1s2.87,8.35,6.85,10.74c8.14,4.9,16.43,9.56,24.62,14.38,12.17,7.16,24.34,14.31,36.43,21.6,2.24,1.35,4,1.62,6.49.43,10.24-5,20-3.68,28.78,3.38,10,8,13.47,22.52,7,34.19-4.84,8.79-12.34,13.6-22,15.07-6.49,1-12.47-1.35-17.66-4.81-7.52-5-12.33-12.38-12.07-21.52.15-5.32-2.07-7.21-6.05-9.45-12.61-7.08-25-14.64-37.46-21.9q-13.09-7.6-26.36-14.9c-7.85-4.33-12.44-10.4-12.13-19.8.36-10.88.34-21.76.44-32.64a13.35,13.35,0,0,1,4.3-10.12c3.83-3.67,7.31-7.71,11-11.55A33.28,33.28,0,0,1,212.12,257.93Zm90.12,139.25c11.24-.16,18.71-7.61,18.91-17.93.21-10.76-7.45-17.55-18.75-18.69-8.19-.83-18,9.85-17.79,18.95C284.78,387.55,292.35,397.64,302.24,397.18Z" transform="translate(0 0)"/><path class="cls-2" d="M222.53,213.49c-1.51-5-3-9.75-4.35-14.49a8.86,8.86,0,0,0-5.82-6.43c-5.73-1.94-11.41-4.06-17.21-5.78a8.13,8.13,0,0,0-5.35.37q-9.23,4.34-18.17,9.25c-16.2,8.94-32.31,18-48.46,27-1.49.84-2.52,1.89-2.29,3.82.75,6.29-1.28,11.78-5,16.75-5.12,6.86-11.59,11.34-20.43,12-7.47.55-13.8-1.87-19.72-6.24-8-5.92-12.59-20.33-8.66-30.26,3.48-8.77,9.31-14.37,17.87-17.13,6.62-2.13,13.45-1.92,19.75,1.57a6.26,6.26,0,0,0,6.84-.09q28.28-15.86,56.65-31.52c6.17-3.43,12.31-6.92,18.56-10.22,4.89-2.58,10-2.3,14.84.07s9.46,5.11,14.1,7.82c5.52,3.23,10.89,6.71,16.44,9.87,3,1.72,5.2,3.88,6.17,7.27q2.64,9.21,5.44,18.38c.48,1.57,0,2.15-1.51,1.87-7.1-1.34-12.94,1.4-18.39,5.5A7.75,7.75,0,0,1,222.53,213.49ZM93.9,210.17c-9.89-.11-19.27,8.54-18.77,18.07.47,9,6.72,18.45,17.92,18.44a18.8,18.8,0,0,0,18.66-17.39c.61-9.87-8.37-19-17.79-19.12Z" transform="translate(0 0)"/><path class="cls-2" d="M256.88,210.59c.73-1,1.18-1.79,1.77-2.44a67.45,67.45,0,0,1,6-6.19c5.13-4.26,6.16-9.52,4.56-15.68a94.68,94.68,0,0,1-2-9.37c-.93-5.73-4.73-9.2-9.33-11.89-15.32-9-30.73-17.76-46.09-26.66-5.24-3-10.39-6.22-15.66-9.19a3.37,3.37,0,0,0-2.94,0,26.08,26.08,0,0,1-24.27,3.66c-9.21-3-16.63-12-18.15-21.23-1.57-9.62,1.45-17.76,8-24.76,4.23-4.51,9.9-6.2,15.63-7,14.19-1.92,26.73,6.21,30.36,19.64a22,22,0,0,1,.69,6.26,3.62,3.62,0,0,0,2.16,3.73c10.25,6,20.37,12.14,30.63,18.1,10.62,6.16,21.35,12.15,32,18.2,3.73,2.12,7.54,4.11,11.2,6.33,7.05,4.26,9.63,10.82,9.5,18.8-.2,11.13-.15,22.27-.47,33.4a9.48,9.48,0,0,1-2.32,5.39c-4.12,4.79-8.48,9.38-12.83,14-2.19,2.31-2.81,2.13-3.93-.71-2.19-5.54-6.61-8.76-11.74-11.23C258.88,211.37,258,211.07,256.88,210.59ZM196.41,106.53c-1.11-9.92-7.35-17.74-18.12-18.28-8.94-.46-19,9.08-18.58,18.18.37,8,6.1,18.81,17.87,18.56C189,124.75,195.7,116.83,196.41,106.53Z" transform="translate(0 0)"/><path class="cls-2" d="M240.42,275.37c7.45,2.62,13.74,0,19.6-4.35,1.74-1.3,2.65-.51,3.16,1.16,1.22,4,2.41,8,3.53,12.08,1.06,3.82,3.11,6.56,7.13,7.75,5.71,1.7,11.25,4.21,17.06,5.26,3,.53,6.7-.74,9.53-2.25,9.57-5.09,18.91-10.63,28.32-16,11-6.32,22-12.7,33-19a4.71,4.71,0,0,0,2.41-3.77c1.94-10.48,7.43-18,17.67-22.13,13.7-5.58,29.78,2,35.47,15.59a27.2,27.2,0,0,1-7.37,30.51c-10,8.66-23.79,10.18-34.62,1.46-1.49-1.2-2.75-1.57-4.54-.54-10.77,6.23-21.6,12.35-32.39,18.55-12,6.87-24,13.67-35.84,20.72-6.8,4-13.67,4.35-20.4.62-10.36-5.76-20.44-12-30.71-18-3.24-1.87-4.39-4.92-5.35-8.19C244.23,288.39,242.34,282,240.42,275.37ZM391,241.75c-10.48,0-18,8.39-17.71,19,.33,10.18,8.32,17.19,18.28,17.68,9.21.45,18.89-9.62,18.33-18.34C409.25,249.6,401.36,241.3,391,241.75Z" transform="translate(0 0)"/><path class="cls-2" d="M316.9,183.45V147.51a4.31,4.31,0,0,0-2-4c-5.71-3.91-9.62-9-11-16-2.86-14.85,3.92-25.78,16.15-32.06,2.29-1.17,5.21-1.31,7.87-1.5,8-.55,15.07,1.07,21.29,7,5.76,5.51,8.1,12.06,8.88,19.48,1,9.14-6.09,21.08-14.69,25-2.32,1.06-3.35,2.47-3.34,5q.12,38.22.13,76.43a43.6,43.6,0,0,1-.47,8.31c-1.28,6.6-6.13,10.56-11.49,13.7-9.44,5.52-19.05,10.77-28.71,15.89a9.43,9.43,0,0,1-5.86.54c-6-1.2-11.94-2.77-17.9-4.2-.58-.13-1.14-.31-1.71-.47-2-.58-2.38-1.5-1-3.28a19.41,19.41,0,0,0,4.31-12.16,30.68,30.68,0,0,0-.9-4.85c-.1-.62-.09-1.26-.13-1.89a9.74,9.74,0,0,1,1.87,0c5.33,1.18,10.66,2.4,16,3.61,2.63.6,4.76-.35,6.72-2,3.33-2.85,6.77-5.58,10-8.5a16.12,16.12,0,0,0,5.85-12.62c-.1-11.81,0-23.62,0-35.44Zm15.16-44c10-.25,17.19-9.68,17-18.34-.26-11.27-7.77-17.88-18.73-18.07-9.75-.17-18.25,8.49-17.86,18.46.42,10.87,8.74,17.59,19.59,17.94Z" transform="translate(0 0)"/><path class="cls-2" d="M208.4,245.3c-5.84-1.2-11.1-2.25-16.35-3.37a8.91,8.91,0,0,0-8.79,2.38c-3.18,3.14-6.76,5.86-10,8.93a16.5,16.5,0,0,0-5.61,12q-.5,33-1,66.06a10.07,10.07,0,0,1-.13,3c-.89,2.7.21,4.29,2.52,5.49,8.82,4.61,12.69,12.68,13.9,21.87.5,3.84-.93,8.16-2.3,12-3.13,8.76-9.47,14.54-18.52,16.61-10,2.3-19.16-.16-26.54-7.44a27.94,27.94,0,0,1-5.3-8.21c-3.91-8.45-3.71-17,1.32-24.84a39.08,39.08,0,0,1,8.07-8.47c2.48-2.09,4.66-3.57,4.65-7.56-.07-25.73.18-51.46.42-77.19a39.14,39.14,0,0,1,1.1-9.46c1.48-5.67,5.77-9.19,10.63-11.95q13.5-7.67,27.14-15.08c4.47-2.42,9.16-1.41,13.79-.36,4.82,1.09,9.63,2.16,14.46,3.19,1.53.32,2,1.2.92,2.24-3.88,3.6-4.78,8.36-5.35,13.24a16.3,16.3,0,0,0,.37,4C207.93,243.21,208.16,244.07,208.4,245.3ZM155.53,381.83c9,0,18.49-9.45,18.46-18.36s-9.37-18.71-18.31-18.37c-11.11.44-17.75,7.43-18.55,18.16C136.46,372.12,146.53,381.83,155.53,381.83Z" transform="translate(0 0)"/><path class="cls-2" d="M93.53,175.83c.18-8.13,4-14.44,10.73-18.78S118,149,125,145.05c5.91-3.36,11.84-6.72,17.84-9.92,8.65-4.61,19.2-2,25.38,4.16,3.72,3.72,3.08,8.33-1.53,10.87-13.24,7.32-26.55,14.5-39.84,21.72l-26,14A16,16,0,0,1,98.26,187a2.93,2.93,0,0,1-4.12-2.69C93.9,181.46,93.74,178.68,93.53,175.83Z" transform="translate(0 0)"/><path class="cls-2" d="M247.58,407.39c-2-.65-5.88-1.39-9.25-3.13-7.16-3.7-14.07-7.89-21.06-11.93-5.46-3.15-10.8-6.54-16.36-9.52a17.43,17.43,0,0,1-8.37-9.39,27.74,27.74,0,0,1-1.62-15.13c.82-4.34,5.71-6.83,9.46-4.58,12.57,7.51,25,15.16,37.58,22.74,8.5,5.13,17,10.2,25.53,15.36a37.64,37.64,0,0,1,4.47,3.27c1.12.94,1.5,2.32.22,3.26C262.53,402.53,257,407.2,247.58,407.39Z" transform="translate(0 0)"/><path class="cls-2" d="M293.71,122.55a8.42,8.42,0,0,1-5.12,8.56,4.44,4.44,0,0,1-3.45-.05c-4.19-2.31-8.22-4.89-12.35-7.32q-25.26-14.83-50.44-29.67a61,61,0,0,1-6.1-4.49c-1.15-.88-1.72-2.16-.4-3.19,5.16-4,10.15-8.77,17.15-8.85a26.18,26.18,0,0,1,11,2.21c7.3,3.38,14.31,7.43,21.36,11.35,5.88,3.26,11.58,6.86,17.49,10.07C290.92,105.58,293.78,112.68,293.71,122.55Z" transform="translate(0 0)"/><path class="cls-2" d="M99.76,295.21c0-6.07.27-12.16-.07-18.22-.4-7.37,2.75-12.94,8.23-17.24a28.43,28.43,0,0,1,8.69-4.33c4.2-1.36,8.63,2.12,8.47,6.89-.86,24.69-1.38,49.39-2,74.09a19.32,19.32,0,0,1-.09,2.28c-.4,3.57-1.79,4.33-5,2.74q-3.85-1.89-7.69-3.82c-4.3-2.16-6.63-5.86-8.6-10.13-2.71-5.87-2.27-12-2.33-18.1-.05-4.72,0-9.44,0-14.16Z" transform="translate(0 0)"/><path class="cls-2" d="M384.83,186.43c0,7.08-.2,14.17.07,21.24.2,5.16-1.26,9.48-5,13-3.17,3-6.13,6.46-10.71,7.15a14.87,14.87,0,0,1-6.32-.62c-2.26-.7-3.23-2.5-3.16-5.11.49-21.48.85-43,1.28-64.45.09-4.47.3-8.93.55-13.38.15-2.81,1-3.49,3.48-2.51,5.73,2.21,11.38,4.62,15.46,9.58A18.91,18.91,0,0,1,384.69,163c.27,7.83.08,15.68.08,23.52Z" transform="translate(0 0)"/><path class="cls-2" d="M391.34,308.13c1.07,7.49-3,13.31-9.44,17.44-9.41,6-19.12,11.57-28.71,17.29-3,1.77-6,3.39-8.93,5.21-8.17,5.09-15.9,3.22-23.49-1.34-.93-.57-1.79-1.25-2.69-1.88-3.89-2.73-4.12-7.81-.08-10.3,5.5-3.39,11.3-6.29,16.95-9.43q16.53-9.19,33.05-18.43l17.61-9.86c3.22-1.8,4.9-.94,5.31,2.71.15,1.34.33,2.68.4,4S391.34,306.11,391.34,308.13Z" transform="translate(0 0)"/><path class="cls-2" d="M246.14,265.42c-6.56-2.16-13.59-1.12-19-5.62a13.26,13.26,0,0,1-4-5.5,115.56,115.56,0,0,1-3.74-14.53c-.73-3.75,1.17-7.05,3.51-9.67a100.56,100.56,0,0,1,10.64-10,6.6,6.6,0,0,1,4.71-1.22c5.45.84,10.87,1.94,16.24,3.21,4.2,1,6,4.52,7.69,8.1a40.51,40.51,0,0,1,3.42,15.64,9.18,9.18,0,0,1-1.89,5.35c-3.35,4.51-6.7,9.15-11.76,12A45.08,45.08,0,0,1,246.14,265.42Z" transform="translate(0 0)"/></svg>