<svg width="1080" height="1080" viewBox="0 0 1080 1080" fill="none" xmlns="http://www.w3.org/2000/svg">
<g clip-path="url(#clip0_512:55)">
<rect width="1080" height="1080" fill="#0F0F0F"/>
<g filter="url(#filter0_f_512:55)">
<ellipse cx="462.674" cy="453.869" rx="348.5" ry="291" transform="rotate(48.6627 462.674 453.869)" fill="#1044FF"/>
</g>
<g filter="url(#filter1_f_512:55)">
<ellipse cx="569.432" cy="594.428" rx="348.5" ry="400" transform="rotate(-33.1184 569.432 594.428)" fill="#1044FF"/>
</g>
<g filter="url(#filter2_f_512:55)">
<ellipse cx="594.5" cy="532" rx="316.5" ry="348" fill="#1044FF"/>
</g>
<circle cx="540" cy="540" r="317" fill="#0F0F0F"/>
<path d="M363.413 527.686L356.472 534.588L352.529 536.784L352.923 537.725L356.472 536.627H367.119V542.275H356.472L352.923 541.176L352.529 542.118L356.472 544.314L363.413 551.216L359.39 555.216L352.45 548.314L350.241 544.392L349.295 544.784L350.399 548.314V558.902H344.72V548.314L345.825 544.784L344.878 544.392L342.67 548.314L335.729 555.216L331.707 551.216L338.647 544.314L342.591 542.118L342.197 541.176L338.647 542.275H328V536.627H338.647L342.197 537.725L342.591 536.784L338.647 534.588L331.707 527.686L335.729 523.686L342.67 530.588L344.878 534.51L345.825 534.118L344.72 530.588V520H350.399V530.588L349.295 534.118L350.241 534.51L352.45 530.588L359.39 523.686L363.413 527.686Z" fill="white"/>
<path d="M386.703 538.039C386.703 539.922 387.492 541.359 389.069 542.353C390.699 543.346 393.644 544 397.903 544.314C402.477 544.68 405.947 545.778 408.314 547.608C410.732 549.386 411.942 552 411.942 555.451V555.922C411.942 557.804 411.547 559.503 410.758 561.02C410.022 562.484 408.971 563.739 407.604 564.784C406.289 565.83 404.659 566.614 402.714 567.137C400.821 567.712 398.744 568 396.483 568C393.433 568 390.804 567.608 388.596 566.824C386.44 565.987 384.626 564.915 383.154 563.608C381.734 562.248 380.656 560.732 379.92 559.059C379.184 557.333 378.764 555.608 378.658 553.882L384.495 552.471C384.758 555.451 385.914 557.856 387.965 559.686C390.016 561.464 392.75 562.353 396.168 562.353C399.059 562.353 401.373 561.804 403.108 560.706C404.896 559.556 405.79 557.961 405.79 555.922C405.79 553.725 404.922 552.157 403.187 551.216C401.452 550.275 398.639 549.673 394.748 549.412C390.226 549.098 386.756 548.052 384.337 546.275C381.918 544.497 380.709 541.909 380.709 538.51V538.039C380.709 536.209 381.103 534.614 381.892 533.255C382.681 531.843 383.732 530.667 385.047 529.725C386.414 528.784 387.939 528.078 389.621 527.608C391.304 527.137 393.065 526.902 394.906 526.902C397.482 526.902 399.743 527.268 401.688 528C403.634 528.68 405.264 529.595 406.578 530.745C407.893 531.843 408.892 533.124 409.575 534.588C410.312 536.052 410.785 537.516 410.995 538.98L405.159 540.392C404.896 537.882 403.871 535.922 402.083 534.51C400.348 533.098 398.06 532.392 395.221 532.392C394.117 532.392 393.039 532.523 391.987 532.784C390.988 532.993 390.095 533.333 389.306 533.804C388.517 534.275 387.886 534.876 387.413 535.608C386.94 536.288 386.703 537.098 386.703 538.039Z" fill="white"/>
<path d="M429.071 549.333C429.229 553.203 430.438 556.314 432.699 558.667C434.96 561.02 438.115 562.196 442.163 562.196C444.004 562.196 445.607 561.987 446.974 561.569C448.341 561.15 449.498 560.575 450.445 559.843C451.444 559.111 452.232 558.275 452.811 557.333C453.442 556.34 453.941 555.294 454.309 554.196L460.146 555.765C459.041 559.373 456.991 562.327 453.994 564.627C451.049 566.876 447.053 568 442.006 568C439.219 568 436.642 567.529 434.276 566.588C431.963 565.595 429.965 564.209 428.282 562.431C426.6 560.654 425.285 558.536 424.339 556.078C423.392 553.621 422.919 550.902 422.919 547.922V546.039C422.919 543.32 423.392 540.784 424.339 538.431C425.338 536.078 426.705 534.065 428.44 532.392C430.175 530.667 432.199 529.333 434.513 528.392C436.879 527.399 439.429 526.902 442.163 526.902C445.371 526.902 448.131 527.503 450.445 528.706C452.811 529.856 454.73 531.294 456.202 533.02C457.727 534.745 458.831 536.627 459.515 538.667C460.251 540.706 460.619 542.588 460.619 544.314V549.333H429.071ZM442.163 532.706C440.428 532.706 438.798 532.993 437.273 533.569C435.801 534.092 434.487 534.85 433.33 535.843C432.226 536.837 431.306 538.013 430.569 539.373C429.886 540.68 429.439 542.118 429.229 543.686H454.467C454.362 542.013 453.941 540.497 453.205 539.137C452.522 537.778 451.601 536.627 450.445 535.686C449.34 534.745 448.052 534.013 446.58 533.49C445.16 532.967 443.688 532.706 442.163 532.706Z" fill="white"/>
<path d="M511.167 553.098C510.746 555.242 510.01 557.229 508.958 559.059C507.959 560.889 506.671 562.484 505.094 563.843C503.516 565.15 501.676 566.17 499.573 566.902C497.47 567.634 495.13 568 492.553 568C489.819 568 487.216 567.556 484.745 566.667C482.326 565.778 480.197 564.497 478.357 562.824C476.516 561.098 475.044 559.007 473.94 556.549C472.888 554.092 472.363 551.268 472.363 548.078V547.137C472.363 544 472.888 541.176 473.94 538.667C475.044 536.157 476.516 534.039 478.357 532.314C480.197 530.588 482.326 529.255 484.745 528.314C487.216 527.373 489.819 526.902 492.553 526.902C495.025 526.902 497.312 527.268 499.415 528C501.518 528.732 503.358 529.778 504.936 531.137C506.566 532.444 507.88 534.013 508.879 535.843C509.931 537.673 510.641 539.66 511.009 541.804L504.857 543.216C504.699 541.856 504.305 540.549 503.674 539.294C503.096 537.987 502.281 536.863 501.229 535.922C500.23 534.928 498.994 534.144 497.522 533.569C496.05 532.993 494.341 532.706 492.396 532.706C490.503 532.706 488.715 533.072 487.032 533.804C485.402 534.484 483.956 535.477 482.695 536.784C481.433 538.039 480.434 539.556 479.697 541.333C479.014 543.111 478.672 545.046 478.672 547.137V548.078C478.672 550.275 479.014 552.261 479.697 554.039C480.434 555.765 481.433 557.229 482.695 558.431C483.956 559.634 485.429 560.575 487.111 561.255C488.794 561.882 490.608 562.196 492.553 562.196C494.499 562.196 496.181 561.908 497.601 561.333C499.073 560.706 500.309 559.922 501.308 558.98C502.359 557.987 503.174 556.863 503.753 555.608C504.384 554.353 504.804 553.046 505.015 551.686L511.167 553.098Z" fill="white"/>
<path d="M521.82 528H536.016V533.176H536.963C537.962 531.033 539.381 529.464 541.222 528.471C543.062 527.425 545.165 526.902 547.531 526.902C551.475 526.902 554.656 528.183 557.074 530.745C559.493 533.307 560.781 537.046 560.939 541.961L554.472 542.902C554.472 539.294 553.604 536.706 551.869 535.137C550.134 533.516 548.004 532.706 545.481 532.706C543.851 532.706 542.431 533.02 541.222 533.647C540.065 534.275 539.092 535.137 538.303 536.235C537.515 537.333 536.936 538.614 536.568 540.078C536.2 541.542 536.016 543.111 536.016 544.784V561.255H545.954V566.902H520.873V561.255H529.864V533.647H521.82V528Z" fill="white"/>
<path d="M577.32 549.333C577.478 553.203 578.687 556.314 580.948 558.667C583.209 561.02 586.363 562.196 590.412 562.196C592.252 562.196 593.856 561.987 595.223 561.569C596.59 561.15 597.747 560.575 598.693 559.843C599.693 559.111 600.481 558.275 601.06 557.333C601.691 556.34 602.19 555.294 602.558 554.196L608.394 555.765C607.29 559.373 605.24 562.327 602.243 564.627C599.298 566.876 595.302 568 590.254 568C587.468 568 584.891 567.529 582.525 566.588C580.212 565.595 578.214 564.209 576.531 562.431C574.848 560.654 573.534 558.536 572.588 556.078C571.641 553.621 571.168 550.902 571.168 547.922V546.039C571.168 543.32 571.641 540.784 572.588 538.431C573.587 536.078 574.954 534.065 576.689 532.392C578.424 530.667 580.448 529.333 582.762 528.392C585.128 527.399 587.678 526.902 590.412 526.902C593.62 526.902 596.38 527.503 598.693 528.706C601.06 529.856 602.979 531.294 604.451 533.02C605.976 534.745 607.08 536.627 607.763 538.667C608.5 540.706 608.868 542.588 608.868 544.314V549.333H577.32ZM590.412 532.706C588.677 532.706 587.047 532.993 585.522 533.569C584.05 534.092 582.735 534.85 581.579 535.843C580.475 536.837 579.554 538.013 578.818 539.373C578.135 540.68 577.688 542.118 577.477 543.686H602.716C602.611 542.013 602.19 540.497 601.454 539.137C600.77 537.778 599.85 536.627 598.693 535.686C597.589 534.745 596.301 534.013 594.829 533.49C593.409 532.967 591.937 532.706 590.412 532.706Z" fill="white"/>
<path d="M616.764 528H629.068V512H635.22V528H650.363V533.647H635.22V558.902C635.22 560.471 635.93 561.255 637.349 561.255H648.47V566.902H635.141C633.353 566.902 631.881 566.327 630.724 565.176C629.62 564.026 629.068 562.562 629.068 560.784V533.647H616.764V528Z" fill="white"/>
<path d="M691.179 528H697.331V566.902H691.179V559.843H690.233C688.971 562.353 687.315 564.34 685.264 565.804C683.213 567.268 680.611 568 677.456 568C675.3 568 673.302 567.634 671.462 566.902C669.674 566.222 668.123 565.176 666.808 563.765C665.546 562.353 664.547 560.601 663.811 558.51C663.128 556.418 662.786 553.987 662.786 551.216V528H668.938V550.431C668.938 554.51 669.779 557.49 671.462 559.373C673.144 561.255 675.721 562.196 679.191 562.196C682.924 562.196 685.842 560.941 687.945 558.431C690.101 555.869 691.179 552.471 691.179 548.235V528Z" fill="white"/>
<path d="M752 566.902H745.848V538.98C745.848 537.15 745.428 535.66 744.586 534.51C743.745 533.307 742.404 532.706 740.564 532.706C738.829 532.706 737.409 533.359 736.305 534.667C735.253 535.922 734.728 537.882 734.728 540.549V566.902H728.576V538.667C728.576 536.941 728.103 535.529 727.156 534.431C726.21 533.281 724.948 532.706 723.37 532.706C721.477 532.706 720.005 533.386 718.954 534.745C717.955 536.105 717.455 537.882 717.455 540.078V566.902H711.303V528H717.455V532.235H718.401C719.085 530.405 720.084 529.072 721.398 528.235C722.713 527.346 724.264 526.902 726.052 526.902C727.945 526.902 729.496 527.399 730.705 528.392C731.967 529.386 732.835 530.667 733.308 532.235H734.254C736.042 528.68 738.881 526.902 742.772 526.902C745.717 526.902 747.978 527.843 749.555 529.725C751.185 531.556 752 533.961 752 536.941V566.902Z" fill="white"/>
</g>
<defs>
<filter id="filter0_f_512:55" x="-22.6934" y="-38.8235" width="970.736" height="985.384" filterUnits="userSpaceOnUse" color-interpolation-filters="sRGB">
<feFlood flood-opacity="0" result="BackgroundImageFix"/>
<feBlend mode="normal" in="SourceGraphic" in2="BackgroundImageFix" result="shape"/>
<feGaussianBlur stdDeviation="84" result="effect1_foregroundBlur_512:55"/>
</filter>
<filter id="filter1_f_512:55" x="36.7734" y="41.0136" width="1065.32" height="1106.83" filterUnits="userSpaceOnUse" color-interpolation-filters="sRGB">
<feFlood flood-opacity="0" result="BackgroundImageFix"/>
<feBlend mode="normal" in="SourceGraphic" in2="BackgroundImageFix" result="shape"/>
<feGaussianBlur stdDeviation="84" result="effect1_foregroundBlur_512:55"/>
</filter>
<filter id="filter2_f_512:55" x="110" y="16" width="969" height="1032" filterUnits="userSpaceOnUse" color-interpolation-filters="sRGB">
<feFlood flood-opacity="0" result="BackgroundImageFix"/>
<feBlend mode="normal" in="SourceGraphic" in2="BackgroundImageFix" result="shape"/>
<feGaussianBlur stdDeviation="84" result="effect1_foregroundBlur_512:55"/>
</filter>
<clipPath id="clip0_512:55">
<rect width="1080" height="1080" fill="white"/>
</clipPath>
</defs>
</svg>
