<?xml version="1.0" standalone="no"?>
<!DOCTYPE svg PUBLIC "-//W3C//DTD SVG 20010904//EN"
 "http://www.w3.org/TR/2001/REC-SVG-20010904/DTD/svg10.dtd">
<svg version="1.0" xmlns="http://www.w3.org/2000/svg"
 width="109.000000pt" height="120.000000pt" viewBox="0 0 109.000000 120.000000"
 preserveAspectRatio="xMidYMid meet">

<g transform="translate(0.000000,120.000000) scale(0.100000,-0.100000)"
fill="#000000" stroke="none">
<path d="M0 600 l0 -600 545 0 545 0 0 600 0 600 -545 0 -545 0 0 -600z m354
392 c3 -5 -10 -16 -29 -25 l-35 -17 0 -149 c0 -141 1 -151 20 -161 21 -11 21
-9 19 137 -1 133 1 148 16 148 15 0 17 -15 16 -157 -2 -150 -1 -157 19 -168
l22 -12 -3 154 c-2 128 0 153 12 153 8 0 14 -8 13 -17 0 -10 -1 -87 -2 -172
l-2 -154 -75 41 -75 42 0 163 0 162 33 20 c36 22 43 24 51 12z"/>
</g>
</svg>
