<!-- by TradingView --><svg width="18" height="18" xmlns="http://www.w3.org/2000/svg"><path fill="#F0F3FA" d="M0 0h18v18H0z"/><path d="M13.902 8.286H9v1.794h2.826C11.413 11.244 10.306 12 9 12a3 3 0 111.99-5.24l1.414-1.414A4.976 4.976 0 009 4a5 5 0 105 5c0-.27-.034-.397-.098-.714z" fill="#FFC107"/><path d="M4.576 6.673L6.22 7.878A2.998 2.998 0 019 6c.765 0 1.46.288 1.99.76l1.414-1.414A4.976 4.976 0 009 4a4.997 4.997 0 00-4.424 2.673z" fill="#FF3D00"/><path d="M9 14a4.979 4.979 0 003.352-1.298l-1.547-1.31A2.98 2.98 0 019 12c-1.3 0-2.404-.83-2.82-1.986L4.549 11.27A4.996 4.996 0 009 14z" fill="#4CAF50"/><path d="M13.902 8.286H9v1.794h2.826c-.198.56-.558.961-1.022 1.313l1.548 1.31C12.243 12.8 14 11.5 14 9c0-.335-.034-.397-.098-.714z" fill="#1976D2"/></svg>