<svg width="765" height="754" viewBox="0 0 765 754" fill="none" xmlns="http://www.w3.org/2000/svg">
<g clip-path="url(#clip0_266_5901)">
<path d="M270.682 149.217H493.425L536.518 74.3401L493.425 0.0043335H270.682L227.858 74.3401L270.682 149.217Z" fill="black"/>
<path d="M493.425 604.646H270.682L227.858 679.253L270.682 753.86H493.425L536.518 679.253L493.425 604.646Z" fill="black"/>
<path d="M652.876 91.8528H566.688L523.864 166.729L635.101 359.305H721.288L764.383 284.699L652.876 91.8528Z" fill="black"/>
<path d="M197.429 661.778L240.253 587.171L128.747 394.594H42.0207L-0.804688 468.932L110.701 661.778H197.429Z" fill="black"/>
<path d="M111.506 91.8528L0 284.699L42.8254 359.305H128.742L240.249 166.729L197.425 91.8528H111.506Z" fill="black"/>
<path d="M652.875 661.778L764.381 468.932L721.286 394.594H634.56L523.323 587.171L566.149 661.778H652.875Z" fill="black"/>
</g>
<defs>
<clipPath id="clip0_266_5901">
<rect width="764.38" height="753.876" fill="white"/>
</clipPath>
</defs>
</svg>
