<svg width="614" height="544" viewBox="0 0 614 544" fill="none" xmlns="http://www.w3.org/2000/svg">
<rect width="614" height="544" fill="white"/>
<g filter="url(#filter0_i_46_2)">
<path d="M138.784 75.3955C138.784 75.3955 138.784 75.3955 138.784 75.3955C104.933 75.3955 82.788 111.968 96.4856 142.924C116.651 188.498 139.011 248.188 141.038 292.531C143.087 337.368 120.101 397.587 98.7806 443.067C84.9425 472.587 105.893 508.633 138.495 508.633C138.688 508.633 138.859 508.635 139.052 508.628C143.933 508.44 213.915 502.095 213.915 292.531C213.915 75.3955 138.784 75.3955 138.784 75.3955Z" fill="#0777FF"/>
</g>
<g filter="url(#filter1_i_46_2)">
<path d="M478.018 26.4816C443.523 26.4816 420.766 63.4401 434.366 95.1412C454.974 143.179 478.218 206.938 480.296 254.124C482.396 301.8 458.474 366.063 436.679 413.971C422.912 444.233 444.463 480.682 477.71 480.682C477.916 480.682 478.096 480.685 478.302 480.676C483.34 480.469 553.933 473.642 553.933 254.124C553.933 26.4816 478.018 26.4816 478.018 26.4816Z" fill="#0777FF"/>
</g>
<g filter="url(#filter2_i_46_2)">
<path d="M516.321 462.866L514.96 464.658C493.61 492.762 452.433 487.685 435.077 455.741C403.193 397.059 354.238 314.73 308.371 269.082C263.504 224.43 182.844 188.671 123.745 166.715C90.5374 154.378 76.967 108.399 99.1549 79.1916L100.217 77.7929C100.392 77.5625 100.537 77.3653 100.725 77.1476C104.554 72.7094 154.819 23.0995 354.583 208.249C563 401.419 516.321 462.866 516.321 462.866Z" fill="#E3B4FF"/>
</g>
<g filter="url(#filter3_i_46_2)">
<path d="M111.099 155.754C111.099 155.754 234.948 231.134 324.328 231.134C413.708 231.134 538.117 155.754 538.117 155.754C538.117 155.754 489.015 229.432 488.867 281.731C488.719 334.409 538.117 408.74 538.117 408.74C538.117 408.74 414.024 331.296 324.328 331.296C234.632 331.296 112.218 410.806 112.218 410.806C112.218 410.806 160.908 334.873 160.908 282.247C160.908 229.621 111.099 155.754 111.099 155.754Z" fill="url(#paint0_linear_46_2)"/>
</g>
<defs>
<filter id="filter0_i_46_2" x="92.3725" y="75.3955" width="121.543" height="437.238" filterUnits="userSpaceOnUse" color-interpolation-filters="sRGB">
<feFlood flood-opacity="0" result="BackgroundImageFix"/>
<feBlend mode="normal" in="SourceGraphic" in2="BackgroundImageFix" result="shape"/>
<feColorMatrix in="SourceAlpha" type="matrix" values="0 0 0 0 0 0 0 0 0 0 0 0 0 0 0 0 0 0 127 0" result="hardAlpha"/>
<feOffset dy="4"/>
<feGaussianBlur stdDeviation="2"/>
<feComposite in2="hardAlpha" operator="arithmetic" k2="-1" k3="1"/>
<feColorMatrix type="matrix" values="0 0 0 0 0 0 0 0 0 0 0 0 0 0 0 0 0 0 0.25 0"/>
<feBlend mode="normal" in2="shape" result="effect1_innerShadow_46_2"/>
</filter>
<filter id="filter1_i_46_2" x="430.372" y="26.4816" width="123.561" height="458.201" filterUnits="userSpaceOnUse" color-interpolation-filters="sRGB">
<feFlood flood-opacity="0" result="BackgroundImageFix"/>
<feBlend mode="normal" in="SourceGraphic" in2="BackgroundImageFix" result="shape"/>
<feColorMatrix in="SourceAlpha" type="matrix" values="0 0 0 0 0 0 0 0 0 0 0 0 0 0 0 0 0 0 127 0" result="hardAlpha"/>
<feOffset dy="4"/>
<feGaussianBlur stdDeviation="2"/>
<feComposite in2="hardAlpha" operator="arithmetic" k2="-1" k3="1"/>
<feColorMatrix type="matrix" values="0 0 0 0 0 0 0 0 0 0 0 0 0 0 0 0 0 0 0.25 0"/>
<feBlend mode="normal" in2="shape" result="effect1_innerShadow_46_2"/>
</filter>
<filter id="filter2_i_46_2" x="88.2888" y="67.8458" width="432.499" height="419.176" filterUnits="userSpaceOnUse" color-interpolation-filters="sRGB">
<feFlood flood-opacity="0" result="BackgroundImageFix"/>
<feBlend mode="normal" in="SourceGraphic" in2="BackgroundImageFix" result="shape"/>
<feColorMatrix in="SourceAlpha" type="matrix" values="0 0 0 0 0 0 0 0 0 0 0 0 0 0 0 0 0 0 127 0" result="hardAlpha"/>
<feOffset dy="4"/>
<feGaussianBlur stdDeviation="2"/>
<feComposite in2="hardAlpha" operator="arithmetic" k2="-1" k3="1"/>
<feColorMatrix type="matrix" values="0 0 0 0 0 0 0 0 0 0 0 0 0 0 0 0 0 0 0.25 0"/>
<feBlend mode="normal" in2="shape" result="effect1_innerShadow_46_2"/>
</filter>
<filter id="filter3_i_46_2" x="111.099" y="155.754" width="427.018" height="259.051" filterUnits="userSpaceOnUse" color-interpolation-filters="sRGB">
<feFlood flood-opacity="0" result="BackgroundImageFix"/>
<feBlend mode="normal" in="SourceGraphic" in2="BackgroundImageFix" result="shape"/>
<feColorMatrix in="SourceAlpha" type="matrix" values="0 0 0 0 0 0 0 0 0 0 0 0 0 0 0 0 0 0 127 0" result="hardAlpha"/>
<feOffset dy="4"/>
<feGaussianBlur stdDeviation="2"/>
<feComposite in2="hardAlpha" operator="arithmetic" k2="-1" k3="1"/>
<feColorMatrix type="matrix" values="0 0 0 0 0 0 0 0 0 0 0 0 0 0 0 0 0 0 0.25 0"/>
<feBlend mode="normal" in2="shape" result="effect1_innerShadow_46_2"/>
</filter>
<linearGradient id="paint0_linear_46_2" x1="110.539" y1="150.591" x2="538.117" y2="150.591" gradientUnits="userSpaceOnUse">
<stop stop-color="#E3B4FF"/>
<stop offset="0.230681" stop-color="#A0A1FF"/>
<stop offset="0.501303" stop-color="#568DFF" stop-opacity="0.45"/>
<stop offset="0.707983" stop-color="#0777FF"/>
<stop offset="1" stop-color="#479AFF"/>
</linearGradient>
</defs>
</svg>
