<svg width="128" height="128" fill="none" xmlns="http://www.w3.org/2000/svg"><path d="M64 128c35.346 0 64-28.654 64-64 0-35.346-28.654-64-64-64C28.654 0 0 28.654 0 64c0 35.346 28.654 64 64 64z" fill="#0C0C0C"/><path fill-rule="evenodd" clip-rule="evenodd" d="M81.42 35.873c4.87 7.836 2.182 16.792-3.5 27.326-.254.56-.254 1.068-.254 1.628.223.491.484.747.717.974l.095.095c.812.56 1.877.56 2.689-.56 2.942-4.071 5.377-8.396 7-12.467a1.15 1.15 0 0 0 .196-.317c.117-.243.24-.497.616-.497.254-.255.811-.255 1.065-.255 1.065 0 1.624.56 2.181 1.374.559 1.069.812 2.952.812 5.14 0 1.882-.254 4.07-.812 6.513-1.876 8.396-7.558 17.606-14 23.255-.559.254-.559.814-.559 1.374 0 .56.254.814.558 1.068.254.255.812.56 1.066.56.558 0 1.065 0 1.37-.254 8.623-6.768 15.37-16.487 18.059-25.698 2.435-9.465 1.369-19.489-2.942-25.952-2.943-4.325-5.936-7.581-9.182-9.719-6.19-4.07-13.494-4.58-22.93-1.374-6.188 1.883-14 7.328-21.052 14.605-6.189 6.208-11.059 13.535-14 20.812-3.247 7.582-2.994 13.332-1.776 17.505C29.17 89.099 37.54 92 42.917 92c9.182-.204 18.669-5.852 24.654-11.195.254-.254.558-.814.558-1.374 0-.43-.149-.68-.356-1.025a9.379 9.379 0 0 1-.201-.349c-.559-.814-1.624-1.068-2.69-.254-6.746 5.14-14.609 7.938-20.29 8.04-.996.026-2.15-.072-3.343-.328l5.625-7.865h.102c5.326 0 11.566-3.206 14.914-7.938 4.616-6.463-.152-10.839-2.74-13.18l-.608-.56c-3.145-2.9-3.196-3.307-1.877-5.139 2.435-3.409 7.508-5.852 10.957-5.292h.102c.66.102 1.47.357 1.724 1.018.305.662.153 1.934-1.065 3.613-.964 1.374-.66 3.307.71 4.274 1.37.967 3.298.662 4.261-.712 2.283-3.155 2.943-6.615 1.776-9.465-.507-1.221-1.268-2.188-2.283-3.002l5.662-7.943c1.204.63 2.192 1.49 2.911 2.549zM34.04 65.031c-1.674 5.19-2.08 10.635-1.065 13.84.517 1.653 1.462 2.96 2.632 3.973l5.18-7.23c-1.015-.813-1.776-1.78-2.232-2.95-1.167-2.85-.507-6.31 1.775-9.465.964-1.374 2.892-1.68 4.262-.713 1.37.967 1.674 2.9.71 4.275-1.218 1.679-1.37 2.951-1.066 3.613.254.661 1.066.916 1.725 1.017h.102c3.45.56 8.522-1.883 10.957-5.292 1.268-1.78 1.268-2.239-1.928-5.14l-.608-.56c-2.74-2.492-7.356-6.716-2.74-13.178 3.348-4.733 9.588-7.939 14.914-7.939h.102l5.065-7.113c-2.173.21-4.68.926-7.399 1.821-6.189 2.443-12.631 6.768-18.313 12.467C40.432 51.902 36.07 58.67 34.04 65.031z" fill="url(#a)"/><defs><linearGradient id="a" x1="26" y1="59" x2="100" y2="59" gradientUnits="userSpaceOnUse"><stop stop-color="#33D373"/><stop offset="1" stop-color="#96F537"/></linearGradient></defs></svg>