<!-- by TradingView --><svg width="18" height="18" viewBox="0 0 18 18" xmlns="http://www.w3.org/2000/svg"><path fill="#F60" d="M0 0h18v18H0z"/><path d="M5.41 12.05a.56.56 0 0 1-.2-.13c-.54-.66.16-1.45.96-1.9V8.73c.2.15.28.16.3.19l.6-.78-.2-.66c1.8-.8 2.52-1.1 3.98-1.42l-.26-.3.43-.33c.98.43 1.9.53 1.74 1.58.04-.7-.64-.98-1.7-1.36l-.2.16.38.41c-1.74.4-2.82.83-4.1 1.4l.17.57-.63.8c.1.05 1.22.53 2.39-.51l.02-.03c-.04-.08-.11-.15-.2-.26.33.03.55.41.5.8h-.15a.73.73 0 0 0-.05-.35c-.89.84-1.94.96-2.83.57v1c-.44.18-1.2.8-1.2 1.39.03.28.14.38.25.45z" fill="#010101"/><path d="M9.05 11.8A6.12 6.12 0 0 1 5.73 13c-1.85-.04-2.13-1.63-1.25-3.28A8.55 8.55 0 0 1 8.72 5.6c.6-.27 1.5-.6 2.35-.6 1.24-.01 2.44.48 2.36 2-.04 1.16-1.35 2.82-2.03 4-.3.5-.35.84.15.82a9.98 9.98 0 0 0 4.45-1.5c-1.03.9-5.85 4.01-5.88 1.67 0-.29.12-.6.3-.93.17-.33.4-.69.65-1.05.37-.54 1.28-1.82 1.58-2.6.52-1.46-.64-1.53-1.63-1.99l-.43.33.26.3c-1.46.32-2.18.62-3.97 1.42l.2.66-.6.78c-.02-.02-.12-.04-.3-.19v1.3c-.81.44-1.5 1.23-.96 1.9.06.06.14.11.2.13H5.4c.98.72 3.65-.26 3.64-.26z" fill="#fff"/></svg>