<?xml version="1.0" encoding="UTF-8"?>
<svg version="1.1" xmlns="http://www.w3.org/2000/svg" width="256" height="256">
<path d="M0 0 C84.48 0 168.96 0 256 0 C256 84.48 256 168.96 256 256 C171.52 256 87.04 256 0 256 C0 171.52 0 87.04 0 0 Z " fill="#FEFEFE" transform="translate(0,0)"/>
<path d="M0 0 C5.78448307 4.53421177 10.81388532 9.64508174 15.52734375 15.2734375 C16.94615799 16.93687488 18.43379577 18.47587289 20 20 C32.2448634 12.93750989 41.9318785 3.80173296 51 -7 C51.99 -6.505 51.99 -6.505 53 -6 C46.56611744 8.23023437 37.56234592 20.57824056 25 30 C25.13277344 30.59167969 25.26554688 31.18335938 25.40234375 31.79296875 C25.57894531 32.58316406 25.75554687 33.37335938 25.9375 34.1875 C26.11152344 34.96480469 26.28554687 35.74210937 26.46484375 36.54296875 C26.72974609 37.75919922 26.72974609 37.75919922 27 39 C27.27263672 40.10794922 27.27263672 40.10794922 27.55078125 41.23828125 C30.59341123 59.9438412 26.30327605 77.30270116 16 93 C5.49142864 107.35469287 -10.31118064 117.99742749 -28 121 C-46.2264291 122.62372033 -61.05013348 120.63947479 -76.4140625 110.16015625 C-78.90250725 108.75190249 -78.90250725 108.75190249 -81.37890625 109.42578125 C-85.03658485 111.62256884 -88.12810374 114.29806944 -91.3125 117.125 C-92.28026367 117.96998047 -92.28026367 117.96998047 -93.26757812 118.83203125 C-94.85026301 120.21541508 -96.42585141 121.60691045 -98 123 C-98.66 122.67 -99.32 122.34 -100 122 C-99.57589844 121.56655273 -99.15179688 121.13310547 -98.71484375 120.68652344 C-96.79949209 118.71749984 -94.89973689 116.73408814 -93 114.75 C-92.33226563 114.06808594 -91.66453125 113.38617188 -90.9765625 112.68359375 C-90.34492187 112.01972656 -89.71328125 111.35585937 -89.0625 110.671875 C-88.47597656 110.0644043 -87.88945313 109.45693359 -87.28515625 108.83105469 C-85.61700845 106.82716583 -85.61700845 106.82716583 -86 103 C-87.54450293 100.89939597 -87.54450293 100.89939597 -89.625 98.875 C-95.12994758 92.96010951 -99.13327198 86.5553019 -102 79 C-107.88894359 79.27263628 -112.26066643 80.26382478 -117.37109375 83.2578125 C-117.90863281 83.50273437 -118.44617188 83.74765625 -119 84 C-119.66 83.67 -120.32 83.34 -121 83 C-119.43902526 81.8936781 -117.87614673 80.79004215 -116.3125 79.6875 C-115.44238281 79.07261719 -114.57226562 78.45773438 -113.67578125 77.82421875 C-106.59957173 73 -106.59957173 73 -104 73 C-104.2165625 72.46375 -104.433125 71.9275 -104.65625 71.375 C-109.62231248 57.39645376 -107.79002752 40.88282483 -101.69238281 27.55004883 C-92.87645028 9.51456864 -77.79468861 -3.41496504 -59.125 -10.5 C-38.50420611 -16.16755562 -17.39963454 -11.7734054 0 0 Z " fill="#F89016" transform="translate(169,70)"/>
<path d="M0 0 C0.99 0.495 0.99 0.495 2 1 C-4.43388256 15.23023437 -13.43765408 27.57824056 -26 37 C-25.86722656 37.59167969 -25.73445312 38.18335938 -25.59765625 38.79296875 C-25.42105469 39.58316406 -25.24445313 40.37335938 -25.0625 41.1875 C-24.88847656 41.96480469 -24.71445313 42.74210937 -24.53515625 43.54296875 C-24.27025391 44.75919922 -24.27025391 44.75919922 -24 46 C-23.72736328 47.10794922 -23.72736328 47.10794922 -23.44921875 48.23828125 C-20.40658877 66.9438412 -24.69672395 84.30270116 -35 100 C-45.50857136 114.35469287 -61.31118064 124.99742749 -79 128 C-97.2264291 129.62372033 -112.05013348 127.63947479 -127.4140625 117.16015625 C-129.90250725 115.75190249 -129.90250725 115.75190249 -132.37890625 116.42578125 C-136.03658485 118.62256884 -139.12810374 121.29806944 -142.3125 124.125 C-143.28026367 124.96998047 -143.28026367 124.96998047 -144.26757812 125.83203125 C-145.85026301 127.21541508 -147.42585141 128.60691045 -149 130 C-149.66 129.67 -150.32 129.34 -151 129 C-150.57589844 128.56655273 -150.15179688 128.13310547 -149.71484375 127.68652344 C-147.79949209 125.71749984 -145.89973689 123.73408814 -144 121.75 C-143.33226562 121.06808594 -142.66453125 120.38617188 -141.9765625 119.68359375 C-141.34492188 119.01972656 -140.71328125 118.35585937 -140.0625 117.671875 C-139.47597656 117.0644043 -138.88945312 116.45693359 -138.28515625 115.83105469 C-136.61700845 113.82716583 -136.61700845 113.82716583 -137 110 C-138.54450293 107.89939597 -138.54450293 107.89939597 -140.625 105.875 C-146.12994758 99.96010951 -150.13327198 93.5553019 -153 86 C-158.88894359 86.27263628 -163.26066643 87.26382478 -168.37109375 90.2578125 C-168.90863281 90.50273437 -169.44617188 90.74765625 -170 91 C-170.66 90.67 -171.32 90.34 -172 90 C-158.86617909 79.8035632 -143.52817016 72.71808337 -128 67 C-126.91074219 66.5875 -125.82148437 66.175 -124.69921875 65.75 C-117.33723958 63 -117.33723958 63 -115 63 C-114.67 75.21 -114.34 87.42 -114 100 C-96.84 100.33 -79.68 100.66 -62 101 C-62 95.06 -62 89.12 -62 83 C-72.89 83 -83.78 83 -95 83 C-93.71936553 79.15809659 -92.32417365 78.6514266 -88.9375 76.5 C-87.85210937 75.79617187 -86.76671875 75.09234375 -85.6484375 74.3671875 C-85.05901367 73.9865918 -84.46958984 73.60599609 -83.86230469 73.21386719 C-73.21364183 66.27297158 -63.00178498 58.83765607 -53 51 C-51.6698446 49.99577672 -50.33790641 48.99387334 -49 48 C-54.17440241 49.57863124 -58.90393343 51.40526224 -63.75 53.8125 C-69.69987002 56.62863065 -75.73623486 58.57035761 -82.0625 60.375 C-82.9793457 60.63772705 -83.89619141 60.9004541 -84.84082031 61.17114258 C-88.77764544 62.25906485 -91.87267126 63 -96 63 C-96 61.02 -96 59.04 -96 57 C-90.05462565 54.57542218 -84.08336688 52.27005408 -78.03125 50.125 C-59.78211229 43.35212415 -42.07067043 35.03400429 -26 24 C-24.93652344 23.27296875 -23.87304688 22.5459375 -22.77734375 21.796875 C-14.4517371 15.82392365 -5.73361358 8.60042038 0 0 Z " fill="#F68E16" transform="translate(220,63)"/>
<path d="M0 0 C2.97922593 -0.02683987 5.95821295 -0.04676037 8.9375 -0.0625 C9.78763672 -0.07087891 10.63777344 -0.07925781 11.51367188 -0.08789062 C12.32255859 -0.09111328 13.13144531 -0.09433594 13.96484375 -0.09765625 C14.7137085 -0.10289307 15.46257324 -0.10812988 16.23413086 -0.11352539 C18 0 18 0 19 1 C19.09326716 2.56547048 19.11745582 4.13512772 19.11352539 5.70336914 C19.11344986 6.70433121 19.11337433 7.70529327 19.11329651 8.73658752 C19.10813522 9.8251152 19.10297394 10.91364288 19.09765625 12.03515625 C19.0962413 13.14354355 19.09482635 14.25193085 19.09336853 15.39390564 C19.08775033 18.95013069 19.07519475 22.50629383 19.0625 26.0625 C19.05748734 28.46679597 19.05292403 30.87109292 19.04882812 33.27539062 C19.03777499 39.18361504 19.02101917 45.0918031 19 51 C22.89876564 49.92509774 26.79466336 48.84040663 30.68823242 47.74682617 C32.01138454 47.37665381 33.3352723 47.00910003 34.65991211 46.64428711 C36.57079256 46.11751939 38.47879388 45.58034294 40.38671875 45.04296875 C41.53358154 44.72352295 42.68044434 44.40407715 43.86206055 44.07495117 C46.90768081 43.03162541 49.3029511 41.73530598 52 40 C53.64950314 39.25256889 55.3167741 38.54303028 57 37.875 C57.825 37.54242188 58.65 37.20984375 59.5 36.8671875 C61.98881193 36.00388086 64.40804686 35.4535918 67 35 C62.97325255 39.24739115 58.59896949 42.78272276 53.9375 46.3125 C53.18380127 46.88572998 52.43010254 47.45895996 51.65356445 48.04956055 C45.59038759 52.62613961 39.38629295 56.88458234 33 61 C30.7656383 62.45068734 28.53835084 63.91117574 26.3125 65.375 C25.31863281 66.02210938 24.32476562 66.66921875 23.30078125 67.3359375 C20.90966949 68.79511926 20.90966949 68.79511926 20 71 C30.89 71 41.78 71 53 71 C53 76.94 53 82.88 53 89 C45.61271409 89.02464071 38.22545188 89.0428316 30.83813477 89.05493164 C28.32283105 89.05997363 25.80753028 89.06680703 23.29223633 89.07543945 C19.68570225 89.08751094 16.07920677 89.09322949 12.47265625 89.09765625 C10.77424339 89.10539818 10.77424339 89.10539818 9.04151917 89.11329651 C8.00051559 89.11337204 6.95951202 89.11344757 5.88696289 89.11352539 C4.96540909 89.115746 4.04385529 89.11796661 3.09437561 89.12025452 C1 89 1 89 0 88 C-0.09516211 85.2611158 -0.12554594 82.54752059 -0.11352539 79.80834961 C-0.11367142 78.94988937 -0.11381744 78.09142914 -0.1139679 77.20695496 C-0.11326847 74.35539262 -0.1054747 71.50389475 -0.09765625 68.65234375 C-0.09579218 66.68079158 -0.09436822 64.70923895 -0.09336853 62.73768616 C-0.08954251 57.53773733 -0.07971152 52.33781625 -0.06866455 47.13787842 C-0.05845222 41.83606339 -0.05387129 36.5342439 -0.04882812 31.23242188 C-0.03808933 20.82160237 -0.02101191 10.41080349 0 0 Z " fill="#FCFBF9" transform="translate(105,75)"/>
<path d="M0 0 C0.22365338 5.40744182 0.38631869 10.81215606 0.49438477 16.22314453 C0.53945529 18.0605359 0.60073531 19.89760785 0.67895508 21.73388672 C1.31011056 36.93937119 1.31011056 36.93937119 -1.81933594 41.86157227 C-4.10449428 43.91248503 -6.35086313 45.45804212 -9 47 C-10.12486931 47.86765505 -11.23866273 48.75004428 -12.3359375 49.65234375 C-13.33882812 50.40644531 -14.34171875 51.16054687 -15.375 51.9375 C-20.65475007 55.92195139 -25.73531149 60.07568255 -30.7578125 64.3828125 C-33 66 -33 66 -36 66 C-35.57589844 65.56655273 -35.15179688 65.13310547 -34.71484375 64.68652344 C-32.79949209 62.71749984 -30.89973689 60.73408814 -29 58.75 C-28.33226563 58.06808594 -27.66453125 57.38617188 -26.9765625 56.68359375 C-26.34492187 56.01972656 -25.71328125 55.35585937 -25.0625 54.671875 C-24.47597656 54.0644043 -23.88945313 53.45693359 -23.28515625 52.83105469 C-21.61700845 50.82716583 -21.61700845 50.82716583 -22 47 C-23.54450293 44.89939597 -23.54450293 44.89939597 -25.625 42.875 C-31.12994758 36.96010951 -35.13327198 30.5553019 -38 23 C-43.88894359 23.27263628 -48.26066643 24.26382478 -53.37109375 27.2578125 C-54.17740234 27.62519531 -54.17740234 27.62519531 -55 28 C-55.66 27.67 -56.32 27.34 -57 27 C-43.86617909 16.8035632 -28.52817016 9.71808337 -13 4 C-11.91074219 3.5875 -10.82148437 3.175 -9.69921875 2.75 C-2.33723958 0 -2.33723958 0 0 0 Z " fill="#F48E16" transform="translate(105,126)"/>
<path d="M0 0 C0.99 0.495 0.99 0.495 2 1 C-4.80338539 16.04748768 -14.46023309 27.51055694 -26.8984375 38.171875 C-28.34250831 39.42805555 -29.76349093 40.71112151 -31.1640625 42.015625 C-44.90032294 54.78713136 -60.63177824 64.95652743 -76.28100586 75.19970703 C-78.06105014 76.37830509 -79.82823938 77.57660946 -81.58032227 78.79638672 C-82.36850342 79.34311035 -83.15668457 79.88983398 -83.96875 80.453125 C-84.65259766 80.9368457 -85.33644531 81.42056641 -86.04101562 81.91894531 C-89.16516395 83.64298928 -91.51463221 83.44494057 -95 83 C-93.71936553 79.15809659 -92.32417365 78.6514266 -88.9375 76.5 C-87.85210937 75.79617187 -86.76671875 75.09234375 -85.6484375 74.3671875 C-85.05901367 73.9865918 -84.46958984 73.60599609 -83.86230469 73.21386719 C-73.21364183 66.27297158 -63.00178498 58.83765607 -53 51 C-51.6698446 49.99577672 -50.33790641 48.99387334 -49 48 C-54.17440241 49.57863124 -58.90393343 51.40526224 -63.75 53.8125 C-69.69987002 56.62863065 -75.73623486 58.57035761 -82.0625 60.375 C-82.9793457 60.63772705 -83.89619141 60.9004541 -84.84082031 61.17114258 C-88.77764544 62.25906485 -91.87267126 63 -96 63 C-96 61.02 -96 59.04 -96 57 C-90.05462565 54.57542218 -84.08336688 52.27005408 -78.03125 50.125 C-59.78211229 43.35212415 -42.07067043 35.03400429 -26 24 C-24.93652344 23.27296875 -23.87304688 22.5459375 -22.77734375 21.796875 C-14.4517371 15.82392365 -5.73361358 8.60042038 0 0 Z " fill="#161917" transform="translate(220,63)"/>
<path d="M0 0 C0 2.64 0 5.28 0 8 C-1.23492187 8.35191406 -2.46984375 8.70382813 -3.7421875 9.06640625 C-14.72567785 12.24839605 -25.36744145 15.89600108 -35.96630859 20.18164062 C-39.04944461 21.42229752 -42.14856512 22.61828951 -45.25 23.8125 C-46.22453125 24.19019531 -47.1990625 24.56789062 -48.203125 24.95703125 C-51.11426643 26.04261053 -54.04704483 27.03461081 -57 28 C-53.11159833 23.71668253 -49.06482016 21.0053599 -44 18.25 C-42.83488892 17.60973877 -42.83488892 17.60973877 -41.64624023 16.95654297 C-10.1005654 0 -10.1005654 0 0 0 Z " fill="#1D1B14" transform="translate(105,126)"/>
<path d="M0 0 C0.30607958 3.01410568 0.42192995 4.47340526 -1.51171875 6.88671875 C-2.22972656 7.48097656 -2.94773438 8.07523438 -3.6875 8.6875 C-4.91919922 9.71617187 -4.91919922 9.71617187 -6.17578125 10.765625 C-9.77052898 13.60960246 -13.38234681 16.42947505 -17.03735352 19.19555664 C-21.7522975 22.76614371 -26.26749885 26.53206875 -30.7578125 30.3828125 C-33 32 -33 32 -36 32 C-6.79169139 0 -6.79169139 0 0 0 Z " fill="#191814" transform="translate(105,160)"/>
<path d="M0 0 C0 1.65 0 3.3 0 5 C-10.20939866 9.32289853 -20.4566623 13.55374484 -31 17 C-26.89247163 12.37799333 -22.36344559 9.70721351 -16.9375 6.8125 C-16.13505859 6.37486328 -15.33261719 5.93722656 -14.50585938 5.48632812 C-12.34374528 4.31107109 -10.17821795 3.1451188 -8 2 C-7.33685791 1.62447998 -6.67371582 1.24895996 -5.99047852 0.86206055 C-4 0 -4 0 0 0 Z " fill="#1C1912" transform="translate(79,137)"/>
<path d="M0 0 C0.5775 0.226875 1.155 0.45375 1.75 0.6875 C1.09 1.3475 0.43 2.0075 -0.25 2.6875 C-0.35054687 3.31140625 -0.45109375 3.9353125 -0.5546875 4.578125 C-1.8773018 8.59055041 -5.92561868 10.16271533 -9.37109375 12.26953125 C-13.07708644 14.09487093 -15.2225472 14.31399266 -19.25 13.6875 C-17.90978973 9.6668692 -15.97504669 8.9460546 -12.4375 6.6875 C-8.12557695 3.93657981 -8.12557695 3.93657981 -4.00390625 0.91796875 C-2.25 -0.3125 -2.25 -0.3125 0 0 Z " fill="#1F2222" transform="translate(144.25,132.3125)"/>
<path d="M0 0 C0.66 0.33 1.32 0.66 2 1 C0.94080246 4.19849783 0.000647 4.99962117 -2.96875 6.73828125 C-4.71671875 7.51751953 -4.71671875 7.51751953 -6.5 8.3125 C-7.6653125 8.84488281 -8.830625 9.37726563 -10.03125 9.92578125 C-11.0109375 10.28027344 -11.990625 10.63476562 -13 11 C-13.66 10.67 -14.32 10.34 -15 10 C-13.43902526 8.8936781 -11.87614673 7.79004215 -10.3125 6.6875 C-9.44238281 6.07261719 -8.57226562 5.45773438 -7.67578125 4.82421875 C-2.63127561 1.38511783 -2.63127561 1.38511783 0 0 Z " fill="#333536" transform="translate(63,143)"/>
<path d="M0 0 C0.66 0.33 1.32 0.66 2 1 C1.43457996 2.32031595 0.84693528 3.6311301 0.25 4.9375 C-0.07484375 5.66839844 -0.3996875 6.39929688 -0.734375 7.15234375 C-2.33799735 9.49343441 -3.29860778 9.42697741 -6 10 C-7.74183061 11.38170728 -7.74183061 11.38170728 -9.25 13.0625 C-9.77078125 13.61035156 -10.2915625 14.15820312 -10.828125 14.72265625 C-11.21484375 15.14417969 -11.6015625 15.56570312 -12 16 C-12.66 15.67 -13.32 15.34 -14 15 C-12.73542969 13.75283203 -12.73542969 13.75283203 -11.4453125 12.48046875 C-10.33840925 11.38294603 -9.2316457 10.28528241 -8.125 9.1875 C-7.56941406 8.64029297 -7.01382813 8.09308594 -6.44140625 7.52929688 C-5.90644531 6.99755859 -5.37148437 6.46582031 -4.8203125 5.91796875 C-4.32805176 5.43094482 -3.83579102 4.9439209 -3.32861328 4.44213867 C-1.77411511 2.82996499 -1.77411511 2.82996499 0 0 Z " fill="#464849" transform="translate(220,63)"/>
<path d="M0 0 C0 3.28565953 -0.24329531 4.28509275 -2 7 C-3.92358201 8.79056836 -5.92632276 10.37712216 -8 12 C-8.66 11.67 -9.32 11.34 -10 11 C-6.7 7.37 -3.4 3.74 0 0 Z " fill="#4A4B4C" transform="translate(79,181)"/>
<path d="M0 0 C0.66 0.33 1.32 0.66 2 1 C1.01 2.485 1.01 2.485 0 4 C-0.28875 4.70125 -0.5775 5.4025 -0.875 6.125 C-2 8 -2 8 -4.125 8.75 C-5.053125 8.87375 -5.053125 8.87375 -6 9 C-4.3619751 5.48994665 -2.96865509 2.54456151 0 0 Z " fill="#292B2C" transform="translate(84,176)"/>
<path d="M0 0 C0.66 0.33 1.32 0.66 2 1 C0.68 3.64 -0.64 6.28 -2 9 C-2.66 9 -3.32 9 -4 9 C-2.94124926 5.59687262 -1.99097846 2.98646769 0 0 Z " fill="#545556" transform="translate(220,63)"/>
</svg>
