<?xml version="1.0" encoding="UTF-8"?>
<svg xmlns="http://www.w3.org/2000/svg" xmlns:xlink="http://www.w3.org/1999/xlink" width="256px" height="256px" viewBox="0 0 256 256" version="1.1">
<g id="surface1">
<path style=" stroke:none;fill-rule:nonzero;fill:rgb(6.27451%,7.843138%,7.843138%);fill-opacity:1;" d="M 129.5 122.5 C 128.964844 122.917969 128.46875 122.988281 126.0625 122.996094 C 124.515625 122.996094 123.25 122.949219 123.25 122.890625 C 123.25 122.742188 127.164062 119.839844 136.75 112.878906 C 141.082031 109.730469 147.71875 104.828125 151.5 101.988281 C 157.550781 97.4375 160.761719 94.910156 173.183594 84.921875 C 174.730469 83.675781 175.96875 82.636719 175.933594 82.605469 C 175.902344 82.574219 173.90625 83.527344 171.5 84.722656 C 158.546875 91.15625 143.359375 97.351562 128.875 102.121094 C 125.4375 103.253906 122.3125 104.253906 121.929688 104.34375 L 121.234375 104.511719 L 121.375 97.394531 L 122.789062 96.964844 C 124.398438 96.476562 133.519531 93.042969 135.625 92.136719 C 136.039062 91.957031 137.613281 91.300781 139.125 90.675781 C 140.636719 90.050781 143.167969 88.980469 144.75 88.296875 C 146.332031 87.613281 148.582031 86.644531 149.75 86.140625 C 156.613281 83.199219 174.074219 74.355469 179.375 71.136719 C 179.925781 70.800781 181.105469 70.109375 182 69.59375 C 182.894531 69.082031 183.90625 68.472656 184.25 68.238281 C 186.316406 66.84375 187.882812 65.828125 188.460938 65.523438 C 190.691406 64.335938 199.90625 57.863281 203.75 54.789062 C 211.476562 48.601562 215.503906 44.476562 222.8125 35.246094 L 223.5 34.375 L 223.144531 35.375 C 219.078125 46.753906 213.273438 55.640625 202.792969 66.535156 C 201.121094 68.273438 198.433594 70.859375 196.824219 72.285156 C 195.214844 73.710938 193.488281 75.28125 192.992188 75.777344 C 192.496094 76.273438 191.757812 76.890625 191.355469 77.148438 C 190.953125 77.40625 190.476562 77.816406 190.296875 78.058594 C 190.117188 78.300781 189.804688 78.5 189.601562 78.5 C 189.398438 78.5 189.171875 78.65625 189.101562 78.851562 C 188.933594 79.28125 186.148438 81.5 185.769531 81.5 C 185.621094 81.5 185.5 81.605469 185.5 81.734375 C 185.5 82.074219 164.570312 97.75 164.113281 97.75 C 164.011719 97.75 163.804688 97.902344 163.652344 98.089844 C 163.5 98.277344 162.082031 99.363281 160.5 100.507812 C 158.917969 101.648438 157.050781 103.015625 156.351562 103.542969 C 155.652344 104.070312 154.949219 104.5 154.789062 104.5 C 154.628906 104.5 154.5 104.613281 154.5 104.75 C 154.5 104.886719 154.339844 105 154.144531 105 C 153.949219 105 153.753906 105.101562 153.707031 105.230469 C 153.613281 105.488281 147.078125 110.238281 146.519531 110.449219 C 146.324219 110.523438 145.976562 110.773438 145.75 111 C 145.171875 111.578125 130.566406 122 130.324219 122.003906 C 130.214844 122.007812 129.84375 122.230469 129.5 122.5 Z M 130.761719 194.625 L 130.75 223 L 122 223 L 122 182 L 134.164062 182 L 137.320312 189.4375 C 139.953125 195.652344 142.066406 200.84375 143.839844 205.453125 C 144.015625 205.914062 144.261719 206.25 144.390625 206.203125 C 144.515625 206.164062 145.199219 204.605469 145.898438 202.75 C 147.234375 199.234375 148.347656 196.546875 152.25 187.4375 L 154.578125 182 L 160.816406 182 C 166.398438 182 167.039062 182.042969 166.902344 182.394531 C 166.816406 182.613281 166.75 191.835938 166.75 202.894531 L 166.75 223 L 158.25 223 L 158.25 208.824219 C 158.25 201.027344 158.15625 194.757812 158.039062 194.886719 C 157.746094 195.214844 153.382812 205.277344 150.101562 213.1875 L 147.375 219.75 L 141.421875 219.625 L 139.933594 216.125 C 139.117188 214.199219 137.316406 209.980469 135.929688 206.75 C 134.546875 203.519531 132.816406 199.46875 132.085938 197.75 Z M 185.191406 214.375 L 182.195312 223 L 177.445312 223 C 173.023438 223 172.707031 222.96875 172.871094 222.5625 C 173.304688 221.484375 180.625 202.136719 184.199219 192.625 L 188.148438 182.125 L 198.796875 182.125 L 202.359375 191.75 C 204.320312 197.042969 207.417969 205.425781 209.242188 210.375 C 211.066406 215.324219 212.871094 220.191406 213.253906 221.191406 L 213.949219 223.011719 L 204.179688 222.875 L 201.132812 214.242188 Z M 102.742188 223.261719 C 100.246094 223.984375 94.671875 224.167969 92.15625 223.605469 C 89.734375 223.066406 86.648438 221.898438 85.222656 220.984375 C 83.601562 219.941406 81.800781 217.933594 80.796875 216.046875 C 79.304688 213.253906 79.261719 212.660156 79.253906 196.5625 L 79.25 182 L 88 182 L 88 209.875 L 88.710938 211.378906 C 90.550781 215.269531 95.351562 217.316406 99.375 215.929688 C 101.855469 215.074219 104.363281 212.558594 104.992188 210.296875 C 105.152344 209.71875 105.246094 204.234375 105.246094 195.6875 L 105.25 182 L 114.023438 182 L 113.949219 197.1875 C 113.875 212.359375 113.875 212.378906 113.292969 214 C 112.464844 216.320312 111.613281 217.675781 110.003906 219.261719 C 108.363281 220.871094 105.460938 222.46875 102.742188 223.261719 Z M 74.25 215 L 74.25 223 L 46.75 223 L 46.75 182 L 55.5 182 L 55.5 215 Z M 49.316406 130.398438 C 46.261719 131.691406 43.730469 132.746094 43.691406 132.746094 C 43.476562 132.734375 42.910156 132.261719 43.007812 132.171875 C 43.476562 131.746094 55.996094 124.160156 58.953125 122.503906 C 61.359375 121.15625 66.851562 118.488281 69.574219 117.34375 C 70.425781 116.984375 71.574219 116.484375 72.125 116.234375 C 72.675781 115.984375 74.417969 115.253906 76 114.621094 C 78.863281 113.46875 81.199219 112.503906 82.625 111.878906 C 83.503906 111.496094 90.824219 108.828125 96 107.003906 C 97.996094 106.300781 100.164062 105.511719 100.820312 105.25 L 102.015625 104.769531 L 101.875 110.613281 L 99.125 111.585938 C 97.613281 112.121094 95.871094 112.683594 95.25 112.828125 C 94.628906 112.976562 94.0625 113.191406 93.984375 113.300781 C 93.90625 113.410156 93.261719 113.640625 92.546875 113.808594 C 91.832031 113.980469 91.25 114.203125 91.25 114.308594 C 91.25 114.414062 91.105469 114.5 90.925781 114.5 C 90.746094 114.5 89.007812 115.105469 87.058594 115.84375 C 85.113281 116.582031 83.453125 117.121094 83.371094 117.039062 C 83.289062 116.957031 83.144531 117.003906 83.050781 117.140625 C 82.878906 117.390625 77.554688 119.5 77.105469 119.5 C 76.976562 119.5 76.425781 119.71875 75.875 119.984375 C 74.171875 120.808594 72.304688 121.5 71.78125 121.5 C 71.503906 121.5 71.210938 121.613281 71.125 121.75 C 71.039062 121.886719 70.753906 122 70.484375 122 C 70.21875 122 70 122.089844 70 122.199219 C 70 122.308594 68.960938 122.765625 67.6875 123.222656 C 66.414062 123.679688 65.078125 124.207031 64.710938 124.398438 C 64.347656 124.59375 63.878906 124.75 63.671875 124.75 C 63.164062 124.75 56.101562 127.53125 49.316406 130.398438 Z M 72.398438 168.738281 C 70.5625 170.121094 68.980469 171.25 68.882812 171.25 C 68.40625 171.25 71.613281 166.710938 74.265625 163.625 C 76.128906 161.460938 81.140625 156.449219 83.984375 153.898438 C 85.839844 152.238281 90.933594 147.960938 91.589844 147.507812 C 91.886719 147.304688 94.03125 145.617188 96.359375 143.757812 C 101.808594 139.398438 102 139.285156 102 140.386719 C 102 141.15625 103.027344 142.25 103.757812 142.25 C 104.226562 142.25 104.246094 142.292969 103.910156 142.625 C 103.703125 142.832031 103.414062 143 103.265625 143 C 103.121094 143 103 143.101562 103 143.226562 C 103 143.351562 101.011719 145.121094 98.578125 147.164062 C 96.144531 149.203125 93.8125 151.183594 93.398438 151.5625 C 92.980469 151.941406 92.574219 152.25 92.496094 152.25 C 92.417969 152.25 91.574219 152.976562 90.613281 153.871094 C 89.65625 154.761719 88.792969 155.488281 88.691406 155.496094 C 88.585938 155.496094 87.40625 156.425781 86.066406 157.554688 C 77.402344 164.851562 75.398438 166.488281 72.398438 168.738281 Z M 188.175781 206.3125 C 188.332031 206.597656 198.5 206.546875 198.5 206.261719 C 198.5 205.734375 193.414062 191.75 193.273438 191.890625 C 193.003906 192.160156 188.070312 206.121094 188.175781 206.3125 Z M 168.34375 137.734375 C 167.539062 138.363281 166.96875 138.386719 166.277344 137.8125 C 165.476562 137.148438 165.328125 135.921875 165.976562 135.273438 C 166.636719 134.613281 168.015625 134.574219 168.585938 135.207031 C 169.234375 135.921875 169.113281 137.121094 168.34375 137.734375 Z M 177.058594 110.988281 C 176.636719 111.511719 175.707031 111.777344 175.058594 111.558594 C 174.699219 111.441406 174 110.203125 174 109.683594 C 174 109.109375 174.984375 108.25 175.644531 108.25 C 176.390625 108.25 177.5 109.273438 177.5 109.960938 C 177.5 110.226562 177.300781 110.691406 177.058594 110.988281 Z M 178.738281 126.515625 C 178.546875 126.882812 178.214844 127 177.375 127 C 176.535156 127 176.203125 126.882812 176.011719 126.515625 C 175.46875 125.507812 175.769531 124.324219 176.648438 123.988281 C 177.304688 123.742188 178.835938 124.15625 178.609375 124.523438 C 178.53125 124.648438 178.589844 124.75 178.734375 124.75 C 179.074219 124.75 179.078125 125.886719 178.738281 126.515625 Z M 178.738281 126.515625 "/>
<path style=" stroke:none;fill-rule:nonzero;fill:rgb(82.745099%,63.137257%,34.509805%);fill-opacity:1;" d="M 59.960938 121.957031 C 61.667969 120.988281 62.253906 120.539062 62.183594 120.265625 C 62.097656 119.941406 62.234375 119.878906 62.855469 119.949219 C 63.363281 120.011719 64.390625 119.671875 66.386719 118.78125 C 64.191406 119.808594 61.695312 121.039062 59.960938 121.957031 Z M 129.5 122.5 C 129.84375 122.230469 130.214844 122.007812 130.324219 122.003906 C 130.441406 122.003906 133.914062 119.566406 137.539062 116.984375 C 133.222656 120.074219 129.75 122.65625 129.75 122.773438 C 129.75 122.898438 128.289062 123 126.5 123 C 126.046875 123 125.613281 122.996094 125.21875 122.988281 C 125.484375 122.996094 125.769531 122.996094 126.0625 122.996094 C 128.46875 122.988281 128.964844 122.917969 129.5 122.5 Z M 48.464844 128.761719 C 51.992188 126.59375 54.917969 124.835938 57.171875 123.535156 C 54.898438 124.867188 51.414062 126.964844 48.464844 128.761719 Z M 150.117188 107.980469 C 151.890625 106.695312 153.660156 105.363281 153.707031 105.230469 C 153.738281 105.152344 153.820312 105.085938 153.925781 105.042969 C 153.820312 105.085938 153.738281 105.152344 153.707031 105.230469 C 153.648438 105.402344 151.898438 106.710938 150.117188 107.980469 Z M 69.261719 117.476562 C 69.921875 117.183594 70.351562 117 70.378906 117 C 70.382812 117 70.382812 117 70.386719 117 C 70.105469 117.121094 69.828125 117.238281 69.574219 117.34375 C 69.476562 117.386719 69.371094 117.429688 69.261719 117.476562 Z M 75.167969 114.953125 C 75.449219 114.839844 75.730469 114.726562 76 114.617188 C 77.351562 114.074219 78.585938 113.574219 79.660156 113.128906 C 78.585938 113.574219 77.351562 114.074219 76 114.621094 C 75.726562 114.730469 75.445312 114.84375 75.167969 114.953125 Z M 75.167969 114.953125 "/>
<path style=" stroke:none;fill-rule:nonzero;fill:rgb(98.039216%,57.647061%,8.235294%);fill-opacity:1;" d="M 69.261719 117.476562 C 68.453125 117.824219 67.453125 118.277344 66.386719 118.78125 C 64.390625 119.671875 63.363281 120.011719 62.855469 119.949219 C 62.332031 119.890625 62.152344 119.925781 62.160156 120.128906 C 62.066406 119.769531 61.914062 119.21875 61.742188 118.625 C 58.296875 106.734375 58.171875 93.269531 61.390625 81 C 63.214844 74.050781 67.71875 64.535156 71.90625 58.777344 C 75.84375 53.363281 82.460938 46.609375 87.066406 43.300781 C 95.105469 37.53125 103.9375 33.605469 113.101562 31.726562 C 117.238281 30.878906 118.15625 30.753906 123.199219 30.378906 C 129.171875 29.933594 134.800781 30.226562 140.125 31.25 C 155.214844 34.152344 166.332031 40.003906 176.890625 50.597656 C 181.246094 54.964844 184.851562 59.628906 188.152344 65.160156 C 188.40625 65.585938 188.664062 65.46875 191.402344 63.652344 C 192.382812 63.003906 193.339844 62.359375 194.273438 61.71875 C 191.695312 63.507812 189.425781 65.007812 188.460938 65.523438 C 187.882812 65.828125 186.316406 66.84375 184.25 68.238281 C 183.90625 68.472656 182.894531 69.082031 182 69.59375 C 181.105469 70.109375 179.925781 70.800781 179.375 71.136719 C 174.074219 74.355469 156.613281 83.199219 149.75 86.140625 C 148.582031 86.644531 146.332031 87.613281 144.75 88.296875 C 143.167969 88.980469 140.636719 90.050781 139.125 90.675781 C 137.613281 91.300781 136.039062 91.957031 135.625 92.136719 C 133.519531 93.042969 124.398438 96.476562 122.789062 96.964844 L 121.375 97.394531 L 121.304688 100.953125 L 121.273438 102.699219 L 121.140625 98.074219 C 121.039062 94.546875 121.039062 83.433594 121.140625 73.378906 C 121.242188 63.324219 121.246094 54.675781 121.148438 54.164062 L 120.976562 53.234375 L 111.996094 53.300781 C 103.765625 53.371094 102.980469 53.414062 102.570312 53.824219 C 102.148438 54.242188 102.117188 55.828125 102 82.449219 C 101.96875 89.53125 101.953125 97.460938 101.949219 104.796875 L 100.820312 105.25 C 100.164062 105.511719 97.996094 106.300781 96 107.003906 C 90.824219 108.828125 83.503906 111.496094 82.625 111.878906 C 81.871094 112.210938 80.863281 112.632812 79.660156 113.128906 L 79.636719 113.140625 C 78.566406 113.582031 77.339844 114.078125 76 114.617188 C 75.730469 114.726562 75.449219 114.839844 75.167969 114.953125 C 73.847656 115.492188 72.578125 116.023438 72.125 116.234375 C 71.738281 116.414062 71.050781 116.710938 70.386719 117 C 70.382812 117 70.382812 117 70.378906 117 C 70.351562 117 69.921875 117.183594 69.261719 117.476562 Z M 150.117188 107.980469 C 151.898438 106.710938 153.648438 105.402344 153.707031 105.230469 C 153.738281 105.152344 153.820312 105.085938 153.925781 105.042969 C 153.941406 105.039062 153.953125 105.03125 153.96875 105.027344 C 153.976562 105.023438 153.988281 105.019531 154.003906 105.015625 C 154.046875 105.007812 154.097656 105 154.144531 105 C 154.339844 105 154.5 104.886719 154.5 104.75 C 154.5 104.613281 154.628906 104.5 154.789062 104.5 C 154.949219 104.5 155.652344 104.070312 156.351562 103.542969 C 157.050781 103.015625 158.917969 101.648438 160.5 100.507812 C 162.082031 99.363281 163.5 98.277344 163.652344 98.089844 C 163.804688 97.902344 164.011719 97.75 164.113281 97.75 C 164.570312 97.75 185.5 82.074219 185.5 81.734375 C 185.5 81.605469 185.621094 81.5 185.769531 81.5 C 186.148438 81.5 188.933594 79.28125 189.101562 78.851562 C 189.171875 78.65625 189.398438 78.5 189.601562 78.5 C 189.804688 78.5 190.117188 78.300781 190.296875 78.058594 C 190.476562 77.816406 190.953125 77.40625 191.355469 77.148438 C 191.757812 76.890625 192.496094 76.273438 192.992188 75.777344 L 193.003906 75.765625 L 193.835938 78.515625 C 195.371094 83.605469 196.050781 86.839844 196.644531 91.898438 C 197.15625 96.246094 197.015625 106.015625 196.390625 109.875 C 194.539062 121.28125 190.523438 131.125 184.054688 140.121094 C 177.457031 149.292969 168.125 157.074219 158.046875 161.800781 C 139.917969 170.308594 119.488281 170.636719 100.8125 162.726562 C 97.355469 161.265625 91.226562 157.921875 89.050781 156.316406 L 88.292969 155.753906 C 88.515625 155.589844 88.65625 155.496094 88.691406 155.496094 C 88.792969 155.488281 89.65625 154.761719 90.613281 153.871094 C 91.574219 152.976562 92.417969 152.25 92.496094 152.25 C 92.574219 152.25 92.980469 151.941406 93.398438 151.5625 C 93.8125 151.183594 96.144531 149.203125 98.578125 147.164062 C 101.011719 145.121094 103 143.351562 103 143.226562 C 103 143.101562 103.121094 143 103.265625 143 C 103.414062 143 103.703125 142.832031 103.910156 142.625 C 104.246094 142.292969 104.226562 142.25 103.757812 142.25 C 103.5 142.25 103.207031 142.113281 102.933594 141.90625 C 103.71875 142.238281 106.640625 142.25 128.140625 142.25 C 146.4375 142.25 153.144531 142.171875 153.613281 141.960938 C 154.019531 141.773438 154.335938 141.347656 154.496094 140.773438 C 154.640625 140.261719 154.746094 136.453125 154.746094 131.964844 C 154.75 124.800781 154.710938 124.003906 154.3125 123.523438 C 153.878906 122.996094 153.824219 122.996094 138.5 122.933594 L 129.207031 122.898438 C 129.550781 122.863281 129.75 122.820312 129.75 122.773438 C 129.75 122.65625 133.222656 120.074219 137.53125 116.988281 L 137.539062 116.984375 C 141.40625 114.226562 145.449219 111.300781 145.75 111 C 145.976562 110.773438 146.324219 110.523438 146.519531 110.449219 C 146.789062 110.347656 148.453125 109.183594 150.117188 107.980469 Z M 102.121094 140.898438 C 102.046875 140.722656 102 140.546875 102 140.386719 C 102 139.285156 101.808594 139.398438 96.359375 143.757812 C 94.03125 145.617188 91.886719 147.304688 91.589844 147.507812 C 91.023438 147.894531 87.199219 151.101562 84.953125 153.050781 L 83.851562 152.257812 C 82.761719 151.476562 77.933594 146.769531 75.921875 144.53125 C 74.285156 142.710938 70.417969 137.484375 68.964844 135.125 C 67.816406 133.261719 66.078125 130.015625 64.328125 126.460938 C 64.148438 126.097656 64 125.5625 64 125.273438 C 64 124.992188 63.851562 124.761719 63.664062 124.75 C 63.664062 124.75 63.671875 124.75 63.671875 124.75 C 63.878906 124.75 64.347656 124.59375 64.710938 124.398438 C 65.078125 124.207031 66.414062 123.679688 67.6875 123.222656 C 68.960938 122.765625 70 122.308594 70 122.199219 C 70 122.089844 70.21875 122 70.484375 122 C 70.753906 122 71.039062 121.886719 71.125 121.75 C 71.210938 121.613281 71.503906 121.5 71.78125 121.5 C 72.304688 121.5 74.171875 120.808594 75.875 119.984375 C 76.425781 119.71875 76.976562 119.5 77.105469 119.5 C 77.554688 119.5 82.878906 117.390625 83.050781 117.140625 C 83.144531 117.003906 83.289062 116.957031 83.371094 117.039062 C 83.453125 117.121094 85.113281 116.582031 87.058594 115.84375 C 89.007812 115.105469 90.746094 114.5 90.925781 114.5 C 91.105469 114.5 91.25 114.414062 91.25 114.308594 C 91.25 114.203125 91.832031 113.980469 92.546875 113.808594 C 93.261719 113.640625 93.90625 113.410156 93.984375 113.300781 C 94.0625 113.191406 94.628906 112.976562 95.25 112.828125 C 95.871094 112.683594 97.613281 112.121094 99.125 111.585938 L 101.875 110.613281 L 101.949219 107.5625 C 101.949219 115.15625 101.96875 121.871094 102 125.960938 Z M 168.34375 137.734375 C 169.113281 137.121094 169.234375 135.921875 168.585938 135.207031 C 168.015625 134.574219 166.636719 134.613281 165.976562 135.273438 C 165.328125 135.921875 165.476562 137.148438 166.277344 137.8125 C 166.96875 138.386719 167.539062 138.363281 168.34375 137.734375 Z M 177.058594 110.988281 C 177.300781 110.691406 177.5 110.226562 177.5 109.960938 C 177.5 109.273438 176.390625 108.25 175.644531 108.25 C 174.984375 108.25 174 109.109375 174 109.683594 C 174 110.203125 174.699219 111.441406 175.058594 111.558594 C 175.707031 111.777344 176.636719 111.511719 177.058594 110.988281 Z M 178.738281 126.515625 C 179.078125 125.886719 179.074219 124.75 178.734375 124.75 C 178.589844 124.75 178.53125 124.648438 178.609375 124.523438 C 178.835938 124.15625 177.304688 123.742188 176.648438 123.988281 C 175.769531 124.324219 175.46875 125.507812 176.011719 126.515625 C 176.203125 126.882812 176.535156 127 177.375 127 C 178.214844 127 178.546875 126.882812 178.738281 126.515625 Z M 200.648438 57.15625 C 205.734375 53.335938 210.019531 49.632812 213.765625 45.820312 C 210.773438 48.921875 207.761719 51.578125 203.75 54.789062 C 202.925781 55.449219 201.851562 56.265625 200.648438 57.15625 Z M 204.621094 64.601562 C 208.71875 60.203125 212.050781 56.101562 214.820312 51.976562 C 212.996094 54.703125 210.941406 57.40625 208.613281 60.160156 C 207.441406 61.542969 206.078125 63.058594 204.621094 64.601562 Z M 123.253906 122.875 L 123.125 122.875 L 126 120.734375 C 126.46875 120.386719 127.226562 119.828125 128.171875 119.136719 C 124.875 121.558594 123.359375 122.714844 123.253906 122.875 Z M 194.648438 74.238281 C 195.308594 73.636719 196.078125 72.945312 196.824219 72.285156 C 197.113281 72.027344 197.441406 71.734375 197.789062 71.410156 C 196.699219 72.429688 195.636719 73.386719 194.648438 74.238281 Z M 82.808594 154.980469 C 79.921875 157.671875 75.902344 161.726562 74.273438 163.617188 C 75.96875 161.648438 80.265625 157.320312 82.808594 154.980469 Z M 77.992188 164.3125 C 79.585938 162.996094 81.636719 161.28125 84.511719 158.863281 C 81.960938 161.019531 79.824219 162.808594 77.992188 164.3125 Z M 121.960938 104.335938 C 122.464844 104.203125 125.519531 103.226562 128.875 102.121094 C 125.4375 103.253906 122.332031 104.246094 121.972656 104.335938 Z M 221.558594 36.820312 C 222.148438 36.078125 222.617188 35.492188 222.8125 35.246094 C 222.382812 35.789062 221.964844 36.3125 221.558594 36.820312 Z M 221.558594 36.820312 "/>
<path style=" stroke:none;fill-rule:nonzero;fill:rgb(99.607843%,99.607843%,99.607843%);fill-opacity:1;" d="M 0 128 L 0 0 L 256 0 L 256 256 L 0 256 Z M 102.742188 223.261719 C 105.460938 222.46875 108.363281 220.871094 110.003906 219.261719 C 111.613281 217.675781 112.464844 216.320312 113.292969 214 C 113.875 212.378906 113.875 212.359375 113.949219 197.1875 L 114.023438 182 L 105.25 182 L 105.246094 195.6875 C 105.246094 204.234375 105.152344 209.71875 104.992188 210.296875 C 104.363281 212.558594 101.855469 215.074219 99.375 215.929688 C 95.351562 217.316406 90.550781 215.269531 88.710938 211.378906 L 88 209.875 L 88 182 L 79.25 182 L 79.253906 196.5625 C 79.261719 212.660156 79.304688 213.253906 80.796875 216.046875 C 81.800781 217.933594 83.601562 219.941406 85.222656 220.984375 C 86.648438 221.898438 89.734375 223.066406 92.15625 223.605469 C 94.671875 224.167969 100.246094 223.984375 102.742188 223.261719 Z M 74.25 219 L 74.25 215 L 55.5 215 L 55.5 182 L 46.75 182 L 46.75 223 L 74.25 223 Z M 130.753906 208.8125 L 130.761719 194.625 L 132.085938 197.75 C 132.816406 199.46875 134.546875 203.519531 135.929688 206.75 C 137.316406 209.980469 139.117188 214.199219 139.933594 216.125 L 141.421875 219.625 L 147.375 219.75 L 150.101562 213.1875 C 153.382812 205.277344 157.746094 195.214844 158.039062 194.886719 C 158.15625 194.757812 158.25 201.027344 158.25 208.824219 L 158.25 223 L 166.75 223 L 166.75 202.894531 C 166.75 191.835938 166.816406 182.613281 166.902344 182.394531 C 167.039062 182.042969 166.398438 182 160.816406 182 L 154.578125 182 L 152.25 187.4375 C 148.347656 196.546875 147.234375 199.234375 145.898438 202.75 C 145.199219 204.605469 144.515625 206.164062 144.390625 206.203125 C 144.261719 206.25 144.015625 205.914062 143.839844 205.453125 C 142.066406 200.84375 139.953125 195.652344 137.320312 189.4375 L 134.164062 182 L 122 182 L 122 223 L 130.75 223 Z M 183.691406 218.6875 L 185.191406 214.375 L 193.164062 214.308594 L 201.132812 214.242188 L 204.179688 222.875 L 209.066406 222.941406 L 213.949219 223.011719 L 213.253906 221.191406 C 212.871094 220.191406 211.066406 215.324219 209.242188 210.375 C 207.417969 205.425781 204.320312 197.042969 202.359375 191.75 L 198.796875 182.125 L 188.148438 182.125 L 184.199219 192.625 C 180.625 202.136719 173.304688 221.484375 172.871094 222.5625 C 172.707031 222.96875 173.023438 223 177.445312 223 L 182.195312 223 Z M 72.398438 168.738281 C 75.386719 166.496094 79.449219 163.167969 86.050781 157.554688 L 88.226562 155.703125 L 89.050781 156.316406 C 91.226562 157.921875 97.355469 161.265625 100.8125 162.726562 C 119.488281 170.636719 139.917969 170.308594 158.046875 161.800781 C 168.125 157.074219 177.457031 149.292969 184.054688 140.121094 C 190.523438 131.125 194.539062 121.28125 196.390625 109.875 C 197.015625 106.015625 197.15625 96.246094 196.644531 91.898438 C 196.050781 86.839844 195.371094 83.605469 193.835938 78.515625 L 192.96875 75.660156 L 194.171875 74.640625 C 198.632812 70.871094 204.707031 64.777344 208.613281 60.160156 C 215.421875 52.105469 219.890625 44.488281 223.144531 35.375 L 223.5 34.375 L 222.8125 35.246094 C 222.433594 35.722656 221.042969 37.464844 219.71875 39.121094 C 212.890625 47.652344 204.261719 55.125 191.402344 63.652344 C 188.664062 65.46875 188.40625 65.585938 188.152344 65.160156 C 184.851562 59.628906 181.246094 54.964844 176.890625 50.597656 C 166.332031 40.003906 155.214844 34.152344 140.125 31.25 C 134.800781 30.226562 129.171875 29.933594 123.199219 30.378906 C 118.15625 30.753906 117.238281 30.878906 113.101562 31.726562 C 103.9375 33.605469 95.105469 37.53125 87.066406 43.300781 C 82.460938 46.609375 75.84375 53.363281 71.90625 58.777344 C 67.71875 64.535156 63.214844 74.050781 61.390625 81 C 58.171875 93.269531 58.296875 106.734375 61.742188 118.625 C 62.023438 119.585938 62.25 120.445312 62.25 120.535156 C 62.25 120.621094 60.898438 121.441406 59.25 122.355469 C 54.777344 124.828125 43.007812 132.023438 43.003906 132.285156 C 42.988281 132.894531 44.449219 132.457031 49.324219 130.394531 C 55.976562 127.582031 63.164062 124.75 63.648438 124.75 C 63.84375 124.75 64 124.984375 64 125.273438 C 64 125.5625 64.148438 126.097656 64.328125 126.460938 C 66.078125 130.015625 67.816406 133.261719 68.964844 135.125 C 70.417969 137.484375 74.285156 142.710938 75.921875 144.53125 C 77.933594 146.769531 82.761719 151.476562 83.851562 152.257812 L 84.984375 153.074219 L 83.804688 154.085938 C 81.585938 155.988281 76.207031 161.371094 74.265625 163.625 C 71.613281 166.710938 68.40625 171.25 68.882812 171.25 C 68.980469 171.25 70.5625 170.121094 72.398438 168.738281 Z M 188.175781 206.3125 C 188.070312 206.121094 193.003906 192.160156 193.273438 191.890625 C 193.414062 191.75 198.5 205.734375 198.5 206.261719 C 198.5 206.546875 188.332031 206.597656 188.175781 206.3125 Z M 102.714844 141.773438 L 102.125 141.296875 L 102 125.960938 C 101.933594 117.523438 101.933594 97.945312 102 82.449219 C 102.117188 55.828125 102.148438 54.242188 102.570312 53.824219 C 102.980469 53.414062 103.765625 53.371094 111.996094 53.300781 L 120.976562 53.234375 L 121.148438 54.164062 C 121.246094 54.675781 121.242188 63.324219 121.140625 73.378906 C 121.039062 83.433594 121.039062 94.546875 121.140625 98.074219 L 121.324219 104.492188 L 121.972656 104.335938 C 122.332031 104.246094 125.4375 103.253906 128.875 102.121094 C 143.359375 97.351562 158.546875 91.15625 171.5 84.722656 C 173.90625 83.527344 175.902344 82.574219 175.933594 82.605469 C 175.96875 82.636719 174.730469 83.675781 173.183594 84.921875 C 160.761719 94.910156 157.550781 97.4375 151.5 101.988281 C 147.71875 104.828125 141.082031 109.730469 136.75 112.878906 C 132.417969 116.023438 127.582031 119.558594 126 120.734375 L 123.125 122.875 L 138.5 122.933594 C 153.824219 122.996094 153.878906 122.996094 154.3125 123.523438 C 154.710938 124.003906 154.75 124.800781 154.746094 131.964844 C 154.746094 136.453125 154.640625 140.261719 154.496094 140.773438 C 154.335938 141.347656 154.019531 141.773438 153.613281 141.960938 C 153.144531 142.171875 146.4375 142.25 128.140625 142.25 C 104.0625 142.25 103.289062 142.234375 102.714844 141.773438 Z M 102.714844 141.773438 "/>
</g>
</svg>
