<svg width="100" height="100" viewBox="0 0 100 100" fill="none" xmlns="http://www.w3.org/2000/svg">
<path d="M100 50C100 77.6142 77.6142 100 50 100C22.3858 100 0 77.6142 0 50C0 22.3858 22.3858 0 50 0C77.6142 0 100 22.3858 100 50Z" fill="url(#paint0_linear_108_36)"/>
<path d="M97 50C97 75.9574 75.9574 97 50 97C24.0426 97 3 75.9574 3 50C3 24.0426 24.0426 3 50 3C75.9574 3 97 24.0426 97 50Z" stroke="black" stroke-width="2"/>
<path fill-rule="evenodd" clip-rule="evenodd" d="M82.0136 53.9776C82.0113 53.8835 81.9849 53.7669 81.9548 53.7186C81.9179 53.6592 81.1074 53.1738 79.4573 52.2226L77.0145 50.8146L77.0135 47.3342C77.0129 45.42 77.0146 43.8379 77.0171 43.8183C77.0197 43.7988 78.4871 42.9382 80.2781 41.906C82.069 40.8737 83.5969 39.9889 83.6733 39.9397C84.0078 39.7244 83.9989 39.8379 83.9997 35.7535C84.0005 31.1441 84.0055 31.4053 83.9136 31.2767C83.7342 31.0255 83.3584 30.9304 83.128 31.0777C82.8461 31.2582 82.849 31.2138 82.8496 35.2605L82.8502 39.0989L81.6763 39.7764C81.0306 40.1489 79.6232 40.9603 78.5487 41.5794L76.5951 42.705L70.3503 39.1308L70.353 35.305C70.355 32.3516 70.3378 31.4417 70.2776 31.315C70.0732 30.8849 69.4499 30.8983 69.2711 31.3366C69.2238 31.4526 69.2024 32.7151 69.201 35.476C69.2 37.6609 69.216 39.5179 69.2366 39.6026L69.2742 39.7568L75.8661 43.6094L75.8665 47.1841C75.867 50.6407 75.8632 50.7615 75.7513 50.8371C75.6876 50.8801 74.2915 51.6907 72.6489 52.6385L69.6622 54.3617L62.8756 50.4531L62.6933 50.4937C62.593 50.5161 61.0433 51.3811 59.2496 52.4161L55.9882 54.2979L49.7036 50.6978L49.7089 46.8801C49.713 43.9444 49.6964 43.0295 49.6372 42.9203C49.5638 42.7852 49.3881 42.6792 46.0039 40.7283C42.7615 38.8591 42.4346 38.6784 42.2978 38.6798C42.1861 38.6809 41.2472 39.2 38.6266 40.7095C35.5873 42.4602 35.0927 42.7596 35.0124 42.8974C34.9316 43.036 34.9193 43.5746 34.9189 46.9757C34.9185 50.7156 34.9133 50.9011 34.8047 51.0411C34.7421 51.1218 33.5558 52.7985 32.1683 54.767C30.7808 56.7356 29.6269 58.3497 29.6041 58.354C29.5813 58.3583 27.7433 58.3656 25.5197 58.3702L21.4768 58.3786L19.3106 54.6566C17.28 51.1675 17.1325 50.9277 16.9537 50.8246C16.73 50.6957 16.5267 50.7016 16.3012 50.8435C16.1151 50.9607 15.9778 51.2419 16.003 51.4542C16.0137 51.5442 16.8707 53.0634 18.1769 55.3075L20.3332 59.0123L19.4159 60.6589C18.9114 61.5644 17.9444 63.2639 17.267 64.4354L16.0353 66.5654L16.0495 66.7474C16.0606 66.8901 16.5568 67.7769 18.3529 70.8631C20.4356 74.4421 20.6582 74.8062 20.8207 74.9009C21.1526 75.0944 21.5071 74.9989 21.7009 74.6637C21.8952 74.3276 21.9543 74.4478 19.6515 70.4928C18.477 68.4757 17.5033 66.7941 17.4876 66.7559C17.4646 66.7002 17.857 65.9926 19.4672 63.1854L21.4755 59.6843L29.6818 59.6612L31.9421 62.7674C34.3701 66.104 34.3444 66.0734 34.693 66.0372C34.7894 66.0272 36.5655 65.4658 38.64 64.7899L42.4117 63.5608L49.0588 67.3639L49.2238 67.3197C49.3146 67.2955 50.865 66.4248 52.6691 65.385L55.9494 63.4944L62.7519 67.3624L62.9072 67.3195C62.9927 67.2959 64.6236 66.3763 66.5314 65.276C69.5392 63.5412 70.0123 63.2541 70.0912 63.1158C70.1693 62.9791 70.1821 62.4164 70.1808 59.1689L70.1792 55.3815L71.1686 54.811C71.7128 54.4973 73.1248 53.6833 74.3066 53.0021L76.4551 51.7637L78.8814 53.1622C81.5432 54.6965 81.4722 54.6634 81.7386 54.493C81.9126 54.3816 82.0185 54.1831 82.0136 53.9776ZM65.8809 64.326L62.7622 66.1239L56.5346 62.5072L56.5348 55.3066L62.8129 51.6885L69.0309 55.2727L69.0338 58.8638C69.0353 60.8389 69.0283 62.4714 69.0181 62.4915C69.0079 62.5116 67.5962 63.3371 65.8809 64.326ZM63.5731 53.4088C63.5888 53.1122 63.318 52.8386 62.9942 52.8235C62.882 52.8183 62.2592 53.1568 60.2438 54.3184C58.8109 55.1443 57.5957 55.8723 57.5433 55.9363C57.4183 56.0894 57.3954 56.3894 57.4967 56.5473C57.5973 56.7039 57.8213 56.8331 58.0073 56.8417C58.12 56.8469 58.7391 56.5104 60.7604 55.3454C62.495 54.3456 63.4009 53.7982 63.4661 53.7104C63.5243 53.6321 63.5678 53.5096 63.5731 53.4088ZM52.2308 64.3149L49.1264 66.104L42.8756 62.5018L42.8754 59.154C42.8753 57.3127 42.8754 55.6957 42.8756 55.5607L42.8759 55.3152L49.12 51.7166L55.3759 55.2971L55.3783 58.8875C55.3796 60.8622 55.3704 62.4886 55.3579 62.5018C55.3454 62.515 53.9382 63.3309 52.2308 64.3149ZM45.4309 52.5041L42.3045 54.3048L36.0677 50.7099L36.0666 43.5063L36.2695 43.3912C36.3811 43.3278 37.7885 42.5173 39.3973 41.59L42.3223 39.904L48.5697 43.4814L48.572 47.0709C48.5733 49.045 48.5706 50.67 48.5658 50.6819C48.5612 50.6938 47.1505 51.5138 45.4309 52.5041ZM38.2751 63.6951C36.3999 64.3021 34.8485 64.7858 34.8276 64.7698C34.7673 64.7239 30.6532 59.055 30.6349 58.9929C30.621 58.9452 35.2861 52.2688 35.5884 51.9038L35.685 51.7873L41.7128 55.2618L41.7123 58.9031C41.712 60.9058 41.7057 62.5549 41.6982 62.5678C41.6907 62.5807 40.1503 63.088 38.2751 63.6951ZM41.1933 61.2787C41.1671 60.9805 40.8706 60.7341 40.5755 60.7654C40.4327 60.7805 35.5819 62.3419 34.9378 62.5802C34.7896 62.635 34.7289 62.6891 34.6367 62.8484C34.5361 63.0224 34.5286 63.0754 34.5785 63.2611C34.6288 63.4484 34.6606 63.4886 34.841 63.5926C35.0288 63.7008 35.0695 63.7051 35.3176 63.6422C35.4668 63.6043 36.7986 63.1779 38.2771 62.6947C38.2771 62.6947 40.8026 61.9366 40.9654 61.816C41.1282 61.6954 41.2097 61.466 41.1933 61.2787ZM47.5457 50.0938C47.5577 50.0153 47.5987 44.3438 47.5886 44.1531C47.5805 43.9992 47.4675 43.8499 47.2753 43.7391C47.0008 43.5809 46.6832 43.6691 46.5217 43.9484C46.4661 44.0445 46.4414 44.8374 46.4244 47.0606C46.412 48.7013 46.4224 50.1082 46.4476 50.187C46.6186 50.7215 47.4603 50.6501 47.5457 50.0938ZM43.1182 52.5917C43.1159 52.4975 43.0895 52.381 43.0594 52.3326C43.0223 52.273 42.145 51.7492 40.3333 50.7049C37.4908 49.0665 37.4835 49.0629 37.2995 49.2059C37.0074 49.433 36.9198 49.6585 37.0183 49.9298L37.0806 50.1016L39.7464 51.6382C42.6713 53.3242 42.5751 53.2785 42.8431 53.107C43.0172 52.9957 43.1231 52.7972 43.1182 52.5917ZM43.216 41.635C43.2315 41.3326 42.9607 41.052 42.6391 41.0371C42.5285 41.032 41.8942 41.3767 39.8926 42.5299C38.4611 43.3545 37.2501 44.0744 37.2016 44.1296C37.0749 44.2734 37.0321 44.5444 37.1093 44.7131C37.2037 44.9196 37.5096 45.0896 37.719 45.0519C37.9512 45.0102 42.9884 42.0874 43.1099 41.9239C43.166 41.8485 43.2114 41.7249 43.216 41.635Z" fill="black"/>
<path d="M15.109 63.3163C14.4745 63.3163 13.9832 63.1423 13.6352 62.7943C13.2873 62.4464 13.1133 61.9551 13.1133 61.3206V41.8238H15.3853V61.2899H27.0527V63.3163H15.109Z" fill="white"/>
<path d="M36.1137 63.5619C34.8036 63.5619 33.6471 63.2754 32.6441 62.7022C31.6412 62.1086 30.8633 61.2796 30.3107 60.2152C29.758 59.1304 29.4817 57.892 29.4817 56.5001V41.8238H31.7537V56.5615C31.7537 58.0557 32.1529 59.2634 32.9512 60.1845C33.7495 61.0852 34.8036 61.5355 36.1137 61.5355H39.4296C40.7397 61.5355 41.7938 61.0852 42.5921 60.1845C43.3904 59.2634 43.7896 58.0557 43.7896 56.5615V41.8238H46.0616V56.5001C46.0616 57.892 45.7853 59.1304 45.2326 60.2152C44.68 61.2796 43.9021 62.1086 42.8992 62.7022C41.8962 63.2754 40.7397 63.5619 39.4296 63.5619H36.1137Z" fill="white"/>
<path d="M57.2188 63.5619C55.8474 63.5619 54.6295 63.2344 53.5651 62.5794C52.5211 61.9244 51.7024 61.0135 51.1088 59.8468C50.5356 58.6596 50.2491 57.2984 50.2491 55.7632V49.3768C50.2491 47.8417 50.5356 46.4805 51.1088 45.2933C51.7024 44.1061 52.5314 43.1952 53.5958 42.5606C54.6806 41.9056 55.9293 41.5781 57.3416 41.5781H60.5962C61.9267 41.5781 63.0934 41.8647 64.0964 42.4378C65.1199 43.011 65.9079 43.8195 66.4606 44.8634C67.0337 45.9073 67.3203 47.1048 67.3203 48.4557H65.1096C65.1096 47.0024 64.69 45.8357 63.8508 44.9555C63.032 44.0549 61.9472 43.6046 60.5962 43.6046H57.3416C55.8883 43.6046 54.7216 44.1368 53.8414 45.2012C52.9612 46.2451 52.5211 47.637 52.5211 49.3768V55.7632C52.5211 57.5031 52.951 58.9052 53.8107 59.9696C54.6704 61.0135 55.8064 61.5355 57.2188 61.5355H60.5348C61.9267 61.5355 63.0423 61.0442 63.8815 60.0617C64.7412 59.0792 65.171 57.7896 65.171 56.193H67.3817C67.3817 57.6464 67.0951 58.9359 66.522 60.0617C65.9489 61.167 65.1403 62.0267 64.0964 62.6408C63.073 63.2549 61.8858 63.5619 60.5348 63.5619H57.2188Z" fill="white"/>
<path d="M76.6091 55.057L68.6876 41.8238H71.1439L77.7451 52.9999L84.3464 41.8238H86.8027L78.8812 55.057V63.3163H76.6091V55.057Z" fill="white"/>
<defs>
<linearGradient id="paint0_linear_108_36" x1="50" y1="0" x2="50" y2="100" gradientUnits="userSpaceOnUse">
<stop stop-color="#00FFC1"/>
<stop offset="1" stop-color="#008161"/>
</linearGradient>
</defs>
</svg>
