<svg xmlns="http://www.w3.org/2000/svg" viewBox="0 0 128 128"><defs><style>.cls-1{fill:#7f66ff;}.cls-2{fill:#fff;}</style></defs><g id="图层_2" data-name="图层 2"><g id="图层_3" data-name="图层 3"><circle class="cls-1" cx="64" cy="64" r="64"/><path class="cls-2" d="M83.89,66.65a.48.48,0,0,0,.07-.18s0-.1,0-.15c6.62.13,9.5-5.4,10.71-10.53C96.06,50,90.38,43.48,82.82,40.68c-.57-.21-1.23-.43-2-.66a1,1,0,0,1-.68-1.19l2.23-9.53a1,1,0,0,0-.75-1.22L76.81,27a1,1,0,0,0-1.21.75L73.42,37a1,1,0,0,1-1.21.76c-1.26-.3-2.55-.6-3.87-.89a1,1,0,0,1-.77-1.22l2.18-9.3A1,1,0,0,0,69,25.11L64.16,24a1,1,0,0,0-1.22.75l-2.22,9.45a1,1,0,0,1-1.19.76c-4.73-1-9-1.87-11.76-2.49a1,1,0,0,0-1.2.76l-1.14,4.85a1,1,0,0,0,.76,1.22L52,40.64a1,1,0,0,1,.76,1.22l-8.44,36a1,1,0,0,1-1.22.75l-5.82-1.36a1,1,0,0,0-1.22.75L34.7,83.83A1,1,0,0,0,35.43,85c2.74.67,6.94,1.79,11.64,3a1,1,0,0,1,.73,1.21L45.59,98.7a1,1,0,0,0,.75,1.22l4.85,1.13a1,1,0,0,0,1.21-.75l2.17-9.25a1,1,0,0,1,1.24-.75c1.29.32,2.58.64,3.85.94a1,1,0,0,1,.75,1.21l-2.16,9.22a1,1,0,0,0,.75,1.22L63.84,104a1,1,0,0,0,1.22-.75l2.19-9.34a1,1,0,0,1,1.18-.76c1.93.37,3.63.64,5,.77,8.65.84,17.28-3.61,18.87-10.37C93.82,77,92.59,69.14,83.89,66.65ZM65.27,45.56a1,1,0,0,1,1.22-.76c7.57,1.81,16.38,4.45,14.63,11.92-1.32,5.59-10.31,3.94-17.94,2.18a1,1,0,0,1-.75-1.22ZM57,80.83l3.42-14.58a1,1,0,0,1,1.22-.75c8.32,2,19.16,5.85,17.63,12.35C77.21,86.51,66,84,57.72,82A1,1,0,0,1,57,80.83Z"/></g></g></svg>