<?xml version="1.0" standalone="no"?>
<!DOCTYPE svg PUBLIC "-//W3C//DTD SVG 20010904//EN"
 "http://www.w3.org/TR/2001/REC-SVG-20010904/DTD/svg10.dtd">
<svg version="1.0" xmlns="http://www.w3.org/2000/svg"
 width="1024.000000pt" height="1024.000000pt" viewBox="0 0 1024.000000 1024.000000"
 preserveAspectRatio="xMidYMid meet">

<g transform="translate(0.000000,1024.000000) scale(0.100000,-0.100000)"
fill="#000000" stroke="none">
<path d="M4953 8913 c26 -2 67 -2 90 0 23 2 2 3 -48 3 -49 0 -68 -1 -42 -3z"/>
<path d="M5108 8913 c6 -2 18 -2 25 0 6 3 1 5 -13 5 -14 0 -19 -2 -12 -5z"/>
<path d="M5193 8913 c26 -2 67 -2 90 0 23 2 2 3 -48 3 -49 0 -68 -1 -42 -3z"/>
<path d="M4778 8903 c12 -2 32 -2 45 0 12 2 2 4 -23 4 -25 0 -35 -2 -22 -4z"/>
<path d="M5418 8903 c12 -2 32 -2 45 0 12 2 2 4 -23 4 -25 0 -35 -2 -22 -4z"/>
<path d="M4673 8893 c9 -2 25 -2 35 0 9 3 1 5 -18 5 -19 0 -27 -2 -17 -5z"/>
<path d="M5518 8893 c12 -2 30 -2 40 0 9 3 -1 5 -23 4 -22 0 -30 -2 -17 -4z"/>
<path d="M4593 8883 c9 -2 23 -2 30 0 6 3 -1 5 -18 5 -16 0 -22 -2 -12 -5z"/>
<path d="M5603 8883 c9 -2 25 -2 35 0 9 3 1 5 -18 5 -19 0 -27 -2 -17 -5z"/>
<path d="M4533 8873 c9 -2 23 -2 30 0 6 3 -1 5 -18 5 -16 0 -22 -2 -12 -5z"/>
<path d="M5683 8873 c9 -2 25 -2 35 0 9 3 1 5 -18 5 -19 0 -27 -2 -17 -5z"/>
<path d="M4468 8863 c7 -3 16 -2 19 1 4 3 -2 6 -13 5 -11 0 -14 -3 -6 -6z"/>
<path d="M5748 8863 c6 -2 18 -2 25 0 6 3 1 5 -13 5 -14 0 -19 -2 -12 -5z"/>
<path d="M4408 8853 c6 -2 18 -2 25 0 6 3 1 5 -13 5 -14 0 -19 -2 -12 -5z"/>
<path d="M5820 8850 c14 -4 36 -8 50 -8 22 0 22 1 -5 8 -16 4 -39 8 -50 8 -16
0 -15 -2 5 -8z"/>
<path d="M4358 8843 c7 -3 16 -2 19 1 4 3 -2 6 -13 5 -11 0 -14 -3 -6 -6z"/>
<path d="M5920 8830 c14 -4 34 -8 45 -8 16 0 15 2 -5 8 -14 4 -34 8 -45 8 -16
0 -15 -2 5 -8z"/>
<path d="M4218 8813 c7 -3 16 -2 19 1 4 3 -2 6 -13 5 -11 0 -14 -3 -6 -6z"/>
<path d="M5998 8813 c7 -3 16 -2 19 1 4 3 -2 6 -13 5 -11 0 -14 -3 -6 -6z"/>
<path d="M4178 8803 c7 -3 16 -2 19 1 4 3 -2 6 -13 5 -11 0 -14 -3 -6 -6z"/>
<path d="M6038 8803 c7 -3 16 -2 19 1 4 3 -2 6 -13 5 -11 0 -14 -3 -6 -6z"/>
<path d="M6078 8793 c7 -3 16 -2 19 1 4 3 -2 6 -13 5 -11 0 -14 -3 -6 -6z"/>
<path d="M6118 8783 c7 -3 16 -2 19 1 4 3 -2 6 -13 5 -11 0 -14 -3 -6 -6z"/>
<path d="M6180 8765 c19 -7 42 -13 50 -13 8 0 -1 6 -20 13 -19 7 -42 13 -50
13 -8 0 1 -6 20 -13z"/>
<path d="M4038 8763 c7 -3 16 -2 19 1 4 3 -2 6 -13 5 -11 0 -14 -3 -6 -6z"/>
<path d="M3950 8740 c-18 -12 -2 -12 25 0 13 6 15 9 5 9 -8 0 -22 -4 -30 -9z"/>
<path d="M6329 8719 c47 -16 86 -27 88 -25 5 5 -147 56 -162 55 -6 0 28 -14
74 -30z"/>
<path d="M4840 8704 c-724 -63 -1410 -336 -1951 -776 -220 -178 -488 -464
-656 -698 -365 -509 -585 -1106 -643 -1740 -13 -148 -13 -508 0 -641 62 -615
274 -1187 624 -1683 235 -335 579 -675 921 -913 424 -295 916 -496 1415 -577
674 -110 1360 -23 1980 250 150 66 339 166 447 236 36 23 67 37 74 32 7 -4 9
-3 6 3 -3 5 22 29 56 53 34 24 97 70 139 102 75 56 95 68 83 49 -3 -5 -1 -12
4 -16 6 -3 8 3 6 14 -3 15 18 38 78 90 45 38 95 83 111 100 20 21 36 29 48 25
10 -3 18 0 18 6 0 6 -6 8 -12 4 -7 -4 7 14 31 39 24 25 49 43 54 40 6 -3 7 -1
4 4 -7 11 26 47 35 38 2 -3 15 7 29 22 22 25 22 26 2 9 -40 -34 -25 -2 20 42
24 23 47 39 52 35 4 -5 5 -2 1 5 -9 15 34 68 43 54 3 -5 17 5 30 22 l25 31
-27 -24 c-15 -14 -27 -22 -27 -18 0 16 134 176 143 170 6 -3 7 -1 3 5 -3 5 18
46 47 89 30 43 71 106 92 140 21 35 42 60 48 56 5 -3 7 -2 4 4 -4 6 31 84 77
174 211 411 322 778 378 1254 18 159 15 596 -6 765 -44 362 -122 666 -246 970
-161 390 -405 759 -715 1079 -567 585 -1250 930 -2080 1052 -122 17 -204 22
-435 24 -157 2 -305 1 -330 -1z m660 -230 c571 -64 1121 -273 1572 -595 131
-94 304 -239 391 -326 l57 -59 -38 -79 c-55 -113 -115 -176 -216 -226 -126
-62 -168 -62 -333 -1 -76 28 -177 76 -238 112 -58 35 -145 77 -193 93 -83 30
-95 31 -242 32 -122 0 -167 -4 -214 -18 -58 -18 -59 -18 -182 8 -281 59 -412
115 -513 220 -63 66 -97 123 -117 200 -31 115 -7 284 61 419 19 38 33 72 30
74 -12 12 -141 -82 -216 -158 -99 -99 -166 -205 -206 -325 -23 -70 -27 -97
-27 -215 -1 -150 8 -191 71 -312 33 -63 151 -198 174 -198 23 0 5 -20 -28 -30
-21 -7 -92 -38 -158 -70 -261 -126 -445 -304 -680 -660 -56 -85 -140 -213
-187 -285 -152 -231 -332 -420 -533 -561 -44 -30 -174 -102 -288 -160 -115
-58 -240 -126 -279 -151 -96 -64 -230 -193 -295 -284 -30 -44 -63 -79 -76 -83
-43 -11 -194 -6 -244 9 -123 37 -192 134 -200 285 -6 111 14 196 74 314 39 74
66 109 148 192 55 55 125 116 155 136 48 31 67 37 155 47 127 13 188 32 300
89 72 37 109 65 181 137 104 103 152 178 197 310 29 83 31 100 31 225 0 97 -5
152 -17 197 -21 76 -86 233 -97 233 -4 0 -11 -20 -14 -45 -12 -80 -70 -177
-146 -248 -77 -71 -153 -115 -310 -177 -142 -56 -208 -93 -273 -151 -128 -114
-177 -274 -128 -417 l18 -53 -109 -107 c-136 -132 -218 -240 -274 -357 -99
-210 -109 -402 -28 -565 40 -78 139 -178 221 -223 54 -29 187 -67 235 -67 15
0 28 -5 28 -11 0 -5 -31 -90 -69 -187 -95 -244 -133 -356 -197 -577 -30 -104
-57 -191 -58 -193 -5 -4 -121 253 -162 358 -98 254 -169 548 -206 850 -16 137
-16 534 1 680 90 795 408 1460 960 2010 181 181 297 276 506 415 643 429 1438
618 2225 529z m-385 -489 c-19 -60 -19 -174 -1 -241 39 -147 158 -281 318
-358 143 -69 259 -101 473 -131 86 -12 103 -18 123 -40 24 -28 28 -65 12 -96
-32 -59 -411 17 -614 124 -89 47 -217 161 -281 250 -22 31 -43 56 -47 57 -13
0 53 -134 89 -182 55 -72 102 -101 293 -186 55 -25 -35 0 -105 29 -96 40 -200
120 -251 196 -112 165 -123 343 -33 559 35 84 46 93 24 19z m2526 -726 c-57
-167 -145 -272 -287 -343 -29 -14 -55 -26 -58 -26 -3 0 -13 15 -22 33 -9 17
-25 41 -36 53 l-19 21 60 22 c126 46 238 144 308 268 35 63 36 64 55 46 18
-18 18 -20 -1 -74z m-1255 30 c130 -24 323 -123 428 -219 55 -50 67 -53 27 -6
-15 18 -15 18 9 11 56 -16 214 -90 240 -111 15 -13 35 -45 45 -71 10 -26 33
-80 52 -119 32 -67 39 -75 141 -147 59 -42 149 -110 201 -151 51 -41 125 -91
164 -112 77 -43 127 -84 127 -106 0 -8 -6 -22 -13 -32 -13 -17 -15 -17 -58 4
-24 12 -72 42 -107 66 -35 24 -76 51 -92 59 -84 43 -281 -13 -363 -104 -20
-23 -37 -39 -37 -37 0 18 73 156 91 172 41 36 111 72 173 88 75 20 81 26 24
26 -82 0 -278 139 -448 317 -52 55 -127 133 -165 174 -44 46 -93 86 -130 106
-74 39 -281 117 -353 132 -49 10 -152 55 -152 66 0 9 136 5 196 -6z m1474
-208 c306 -429 487 -901 566 -1476 26 -184 26 -657 1 -835 -78 -550 -241 -986
-533 -1426 -563 -851 -1487 -1399 -2503 -1485 -199 -17 -554 -7 -736 21 -356
54 -709 163 -987 307 l-87 45 5 46 c29 239 153 478 288 557 22 13 71 35 108
49 332 124 597 347 703 593 19 41 37 79 42 83 4 4 55 15 113 25 204 34 472
120 640 205 l63 32 -7 -29 c-4 -15 -28 -70 -53 -120 l-45 -93 -86 0 c-111 -1
-149 -17 -226 -101 -104 -112 -178 -304 -193 -496 -3 -46 -3 -83 0 -83 3 0 51
16 108 36 106 37 251 105 282 132 9 8 19 13 22 10 8 -7 -112 -106 -184 -152
-60 -37 -63 -41 -40 -47 48 -14 157 -9 232 10 125 32 206 82 259 158 21 32 45
51 86 69 31 13 70 35 87 48 37 28 80 106 89 161 25 143 111 424 140 451 6 6
41 23 78 38 42 17 91 49 127 81 33 29 74 56 92 60 47 10 205 78 330 141 60 30
109 50 109 44 0 -18 -41 -116 -102 -242 -44 -90 -67 -128 -82 -132 -12 -3 -52
-6 -91 -6 -94 0 -153 -28 -226 -107 -111 -120 -191 -313 -215 -517 l-7 -59
109 6 c262 15 492 113 589 252 44 64 55 72 150 107 78 30 116 84 140 196 62
296 103 407 194 525 29 38 61 87 72 110 56 125 -19 314 -139 351 -61 18 -184
71 -299 130 l-93 46 8 32 c4 18 7 67 7 110 0 72 -3 82 -49 171 l-48 95 22 68
c103 315 236 410 517 374 213 -27 247 -26 319 10 65 32 106 73 125 127 7 22
18 32 38 36 41 9 89 53 118 111 14 28 37 64 50 80 35 42 82 138 89 185 13 79
-74 219 -165 266 -70 37 -122 74 -237 171 l-105 89 33 25 c127 96 228 228 274
359 16 43 32 77 36 75 4 -3 39 -49 78 -103z m-1220 -138 c51 -25 287 -240 276
-250 -15 -15 -86 29 -160 97 -88 82 -138 114 -203 129 -36 9 -37 9 -8 10 17 1
37 6 45 11 10 7 -15 8 -75 4 -93 -7 -108 -1 -39 15 68 16 108 12 164 -16z
m-1122 -13 c76 -21 216 -87 337 -159 60 -36 65 -41 35 -35 -19 4 -84 24 -145
46 -252 90 -254 90 -360 91 -59 1 -108 -3 -120 -10 -18 -10 -13 -18 65 -96 47
-46 108 -99 135 -116 63 -40 162 -71 227 -71 30 0 47 -4 43 -10 -15 -24 -219
-1 -307 35 -113 46 -224 138 -285 238 -19 32 -33 60 -31 62 2 3 40 13 84 24
107 26 229 27 322 1z m-481 -242 c15 -15 25 -29 22 -31 -2 -2 -35 -23 -74 -48
-96 -61 -211 -177 -280 -282 -151 -232 -293 -611 -312 -830 -8 -96 -14 -84
-39 78 -11 70 -14 129 -9 195 4 58 3 91 -3 85 -5 -5 -44 -57 -87 -115 -44 -58
-167 -195 -275 -305 -194 -198 -251 -267 -330 -401 l-42 -69 7 45 c8 57 23
105 46 151 l18 37 -72 -37 c-40 -20 -114 -56 -164 -79 -177 -83 -361 -219
-492 -365 -146 -163 -268 -383 -377 -679 -32 -87 -59 -157 -60 -155 -5 5 105
454 131 536 70 219 160 376 288 497 107 103 154 133 387 248 297 146 429 238
641 447 127 126 201 224 359 472 260 411 379 555 570 686 l73 51 24 -53 c13
-28 36 -64 50 -79z m1584 70 c8 -15 6 -18 -11 -18 -16 0 -20 6 -20 33 0 33 4
31 31 -15z m-14 -52 c21 -22 58 -43 90 -53 42 -13 50 -19 37 -26 -48 -27 -221
38 -249 94 l-17 32 51 -6 c40 -5 59 -13 88 -41z m-3414 -158 c-68 -131 -139
-190 -397 -329 -126 -67 -214 -138 -247 -198 l-19 -36 6 50 c15 128 62 222
137 274 51 35 105 57 256 106 127 42 219 98 263 160 18 25 33 45 35 45 2 0
-13 -33 -34 -72z m1780 -135 c-28 -39 -51 -104 -68 -185 -37 -174 -2 -380 91
-534 33 -55 34 -57 8 -34 -42 39 -110 150 -135 221 -33 94 -33 277 0 369 22
64 108 206 118 196 3 -3 -4 -17 -14 -33z m886 -224 c35 -91 76 -144 149 -192
112 -73 267 -122 431 -134 l85 -6 -45 -14 c-24 -7 -91 -16 -149 -20 -175 -9
-296 33 -399 142 -67 70 -105 152 -107 227 -1 31 -4 61 -6 65 -3 4 -2 31 1 58
l5 50 7 -60 c3 -33 16 -85 28 -116z m1638 80 l31 -10 -24 -44 c-36 -63 -48
-71 -79 -51 -61 40 -68 102 -11 109 17 2 36 5 42 5 6 1 25 -3 41 -9z m244
-193 c-22 -23 -39 -32 -52 -29 -10 3 -19 6 -19 7 0 1 17 21 38 44 32 36 39 39
52 27 12 -13 10 -19 -19 -49z m-356 -111 c73 -19 165 -60 165 -74 0 -20 -13
-42 -32 -52 -16 -8 -39 -2 -116 32 -53 24 -137 53 -187 65 -79 19 -86 23 -60
29 17 4 35 8 40 10 28 9 138 3 190 -10z m-830 -434 c-8 -16 -31 -89 -50 -163
-60 -223 -83 -284 -196 -520 -60 -124 -109 -231 -109 -237 0 -6 -4 -11 -8 -11
-21 0 32 282 84 441 50 156 161 366 252 477 40 49 48 53 27 13z m-1528 -362
c262 -57 458 -160 577 -305 67 -82 140 -184 130 -184 -4 0 -46 21 -93 47 -59
32 -108 69 -157 118 -39 39 -113 100 -165 135 -84 56 -293 166 -374 197 -46
17 -23 15 82 -8z m817 -646 c58 -14 237 -90 280 -119 13 -8 28 -26 34 -40 19
-40 16 -82 -13 -210 l-5 -22 -56 21 -56 20 7 43 c9 66 -8 113 -62 166 -64 61
-139 106 -237 140 l-81 28 65 -6 c36 -3 91 -13 124 -21z m-1121 -437 c117 -66
191 -88 322 -93 123 -6 252 12 367 51 96 32 73 16 -57 -39 -149 -63 -238 -85
-349 -85 -179 0 -313 72 -420 224 -65 92 -65 95 -2 40 31 -28 94 -72 139 -98z
m-1117 -157 c-67 -171 -125 -262 -245 -387 -37 -39 -65 -61 -72 -56 -7 4 -9 3
-6 -3 9 -14 -12 -30 -118 -93 -49 -29 -108 -64 -130 -78 -30 -18 -21 -7 38 48
148 138 393 407 490 540 10 14 7 4 -7 -21 -14 -26 -22 -50 -18 -55 4 -5 3 -6
-2 -2 -11 9 -87 -82 -79 -95 3 -6 1 -7 -4 -4 -6 4 -17 -1 -24 -10 -12 -15 -12
-16 3 -10 10 3 20 1 24 -5 4 -6 3 -8 -4 -4 -6 4 -10 -1 -9 -13 1 -15 4 -17 14
-9 7 6 13 15 13 20 0 5 7 16 15 25 8 8 12 20 8 26 -3 7 -2 9 2 4 13 -11 84
127 89 173 2 19 46 103 51 98 3 -2 -10 -42 -29 -89z m281 -160 c51 -20 196
-39 293 -39 85 0 177 14 235 34 11 4 -5 -6 -36 -23 -64 -34 -159 -61 -215 -61
-67 0 -175 28 -249 64 -69 34 -83 47 -28 25z m-406 -454 c25 -113 -21 -214
-141 -310 -81 -64 -117 -124 -106 -177 6 -29 -18 -275 -32 -330 l-7 -27 -103
78 c-126 96 -300 249 -358 315 l-43 49 102 47 c144 65 407 226 612 374 27 20
53 36 57 36 3 0 12 -25 19 -55z"/>
<path d="M5830 6207 c0 -44 21 -118 36 -124 8 -3 11 -10 7 -16 -4 -6 0 -8 10
-4 10 3 17 2 17 -2 0 -5 -5 -11 -11 -13 -7 -2 11 -31 38 -63 37 -45 69 -70
123 -97 62 -32 74 -35 86 -23 8 7 14 15 14 18 0 9 -36 3 -42 -7 -6 -8 -8 -7
-8 1 0 6 5 15 10 18 20 12 9 27 -36 46 -46 21 -73 20 -35 -1 12 -6 21 -18 21
-28 -1 -16 -1 -16 -11 1 -5 9 -15 17 -20 17 -6 0 -7 -5 -3 -12 4 -7 3 -8 -5
-4 -6 4 -8 12 -5 18 5 7 2 9 -8 5 -9 -3 -25 3 -37 14 -28 26 -27 31 4 17 18
-8 29 -8 36 -1 7 7 5 12 -6 17 -11 4 -14 2 -9 -7 4 -6 -17 14 -47 47 -30 32
-61 72 -69 88 -9 16 -19 25 -23 21 -5 -4 -6 -1 -3 7 3 8 -1 33 -9 55 -13 36
-14 37 -15 12z m113 -188 c24 -25 27 -30 11 -27 -10 2 -18 10 -16 17 1 7 -2 9
-9 5 -10 -6 -28 11 -29 29 0 14 11 7 43 -24z m162 -101 c4 4 2 -3 -6 -15 -15
-25 -21 -23 -26 9 -3 16 -1 18 10 9 8 -6 17 -7 22 -3z"/>
<path d="M6130 5904 c0 -9 4 -13 9 -9 5 3 12 1 16 -5 4 -6 11 -8 16 -4 12 7
39 -14 39 -30 0 -6 -5 -3 -11 7 -5 9 -15 17 -21 17 -7 0 -6 -5 2 -15 14 -17 0
-21 -17 -4 -8 8 -13 8 -18 0 -7 -12 3 -17 48 -24 15 -2 27 0 27 4 0 5 10 9 23
8 21 0 21 -1 2 -9 -26 -11 55 -13 146 -3 l64 7 -74 12 c-41 7 -85 15 -98 19
-16 4 -22 2 -18 -5 3 -5 2 -10 -3 -10 -6 0 -13 7 -16 16 -4 9 -9 14 -12 12 -3
-3 -27 2 -55 12 -42 16 -49 16 -49 4z"/>
<path d="M4618 4120 c70 -89 139 -138 235 -167 41 -12 51 -12 58 -1 4 7 14 13
21 13 16 0 17 20 1 20 -6 0 -15 4 -19 8 -13 13 -34 7 -34 -9 0 -14 3 -14 15
-4 13 11 14 10 9 -3 -7 -19 -46 -17 -52 3 -3 7 2 16 9 21 11 7 11 9 1 9 -7 0
-16 -10 -21 -22 -7 -19 -8 -19 -14 -4 -4 10 -12 14 -18 10 -8 -4 -9 -3 -5 5 4
6 11 9 16 6 5 -3 11 -1 14 4 7 11 -52 33 -67 24 -5 -3 -7 -1 -3 5 3 6 -7 17
-24 25 -16 9 -32 12 -35 7 -3 -5 1 -11 7 -13 8 -4 9 -6 2 -6 -6 -1 -18 7 -25
16 -10 11 -10 14 -1 9 6 -4 12 -3 12 3 0 6 -13 17 -29 25 -16 9 -44 28 -62 43
-32 27 -32 26 9 -27z m132 -79 c0 -6 -4 -12 -8 -15 -5 -3 -9 1 -9 9 0 8 4 15
9 15 4 0 8 -4 8 -9z m36 -31 c0 -12 -4 -16 -9 -11 -5 5 -6 14 -3 20 10 15 12
14 12 -9z"/>
<path d="M5263 3996 c-28 -6 -54 -14 -57 -17 -4 -3 -29 -4 -56 -2 -40 3 -50 0
-50 -12 0 -8 -5 -15 -11 -15 -5 0 -8 4 -5 9 9 14 -20 21 -34 8 -9 -8 -11 -8
-7 -1 12 21 -69 15 -89 -7 -13 -15 -19 -16 -26 -7 -6 10 -8 8 -8 -4 0 -15 9
-18 55 -18 37 0 55 4 55 13 0 9 2 9 8 0 8 -13 91 -8 102 6 3 3 21 7 40 9 33 3
150 40 150 48 0 5 1 5 -67 -10z m-248 -35 c8 -14 -10 -22 -30 -15 -13 5 -14 8
-3 15 17 11 26 11 33 0z"/>
<path d="M3390 3673 c-12 -15 -66 -74 -121 -131 -55 -56 -97 -107 -94 -112 3
-5 0 -7 -7 -5 -8 3 -31 -13 -53 -36 l-40 -41 80 48 c91 54 117 73 110 84 -7
11 22 33 34 26 11 -7 121 111 121 131 0 8 5 11 11 7 8 -4 9 1 4 17 -12 39 -21
42 -45 12z m20 -17 c-5 -13 -6 -27 -2 -31 3 -3 -1 -3 -11 1 -21 8 -21 13 0 36
21 24 24 23 13 -6z m-47 -43 c-7 -2 -13 -9 -13 -14 0 -6 4 -8 8 -5 16 10 9
-24 -8 -39 -15 -14 -18 -14 -30 0 -11 13 -9 20 10 40 13 14 28 25 34 24 6 0 5
-3 -1 -6z m-43 -86 c0 -2 -8 -3 -18 -4 -10 -1 -19 5 -19 12 0 10 5 11 19 4 10
-5 18 -11 18 -12z m-55 -17 c-3 -5 -11 -10 -16 -10 -6 0 -7 5 -4 10 3 6 11 10
16 10 6 0 7 -4 4 -10z m-5 -35 c0 -2 -9 -3 -19 -2 -11 0 -18 5 -15 9 4 6 34 0
34 -7z m-20 -19 c0 -2 -7 -7 -16 -10 -8 -3 -12 -2 -9 4 6 10 25 14 25 6z"/>
<path d="M3327 3575 c-4 -8 -2 -17 3 -20 6 -4 10 1 10 10 0 10 5 13 12 9 7 -4
8 -3 4 4 -10 16 -23 15 -29 -3z"/>
<path d="M3970 3729 c14 -6 65 -17 114 -25 73 -12 91 -13 97 -2 7 10 -12 14
-84 19 -51 3 -105 9 -122 13 -29 6 -29 6 -5 -5z"/>
<path d="M4246 3721 c-29 -4 -51 -12 -54 -20 -3 -10 0 -12 13 -8 9 4 34 10 56
13 21 4 39 10 39 15 0 5 -1 8 -2 7 -2 0 -25 -4 -52 -7z"/>
<path d="M6431 8686 c8 -8 183 -76 186 -72 2 2 -37 20 -87 40 -84 34 -109 42
-99 32z"/>
<path d="M3700 8650 c-8 -5 -10 -10 -5 -10 6 0 17 5 25 10 8 5 11 10 5 10 -5
0 -17 -5 -25 -10z"/>
<path d="M3620 8615 c-14 -8 -20 -14 -15 -14 6 0 21 6 35 14 14 8 21 14 15 14
-5 0 -21 -6 -35 -14z"/>
<path d="M6670 8585 c25 -13 50 -24 55 -24 6 0 -10 11 -35 24 -25 13 -49 24
-55 24 -5 0 10 -11 35 -24z"/>
<path d="M3550 8585 c-14 -8 -20 -14 -15 -14 6 0 21 6 35 14 14 8 21 14 15 14
-5 0 -21 -6 -35 -14z"/>
<path d="M6809 8519 c40 -22 75 -38 78 -36 4 5 -131 77 -143 77 -5 0 24 -18
65 -41z"/>
<path d="M3435 8530 c-3 -6 1 -7 9 -4 18 7 21 14 7 14 -6 0 -13 -4 -16 -10z"/>
<path d="M3380 8500 c-9 -6 -10 -10 -3 -10 6 0 15 5 18 10 8 12 4 12 -15 0z"/>
<path d="M3320 8470 c-9 -6 -10 -10 -3 -10 6 0 15 5 18 10 8 12 4 12 -15 0z"/>
<path d="M6900 8477 c0 -3 39 -27 87 -53 200 -109 495 -324 675 -492 131 -123
328 -333 322 -344 -3 -4 -1 -8 5 -8 34 0 373 -480 356 -504 -3 -3 -2 -4 2 -1
9 7 25 -19 102 -166 106 -206 127 -259 110 -271 -11 -8 -11 -9 2 -5 13 4 25
-15 54 -91 21 -53 38 -107 39 -119 0 -13 5 -23 9 -23 5 0 5 -10 2 -21 -5 -14
-3 -19 3 -15 6 3 19 -23 31 -63 25 -81 25 -88 9 -94 -8 -4 -7 -6 4 -6 18 -1
45 -92 32 -112 -4 -8 -3 -9 4 -5 7 4 12 1 13 -6 0 -7 2 -20 4 -28 15 -59 57
-298 72 -410 22 -167 26 -728 5 -875 -35 -251 -45 -304 -55 -298 -5 3 -7 1 -4
-4 11 -18 -4 -103 -19 -103 -7 0 -16 -4 -19 -10 -3 -6 1 -7 9 -4 19 7 19 3 3
-57 -9 -33 -17 -45 -29 -43 -11 1 -15 -3 -11 -13 5 -12 7 -12 14 -1 19 29 8
-20 -33 -155 -28 -92 -44 -133 -50 -125 -6 9 -7 6 -3 -8 7 -27 -4 -56 -18 -47
-6 3 -7 1 -3 -5 11 -18 -35 -136 -46 -120 -6 9 -7 6 -3 -8 6 -24 -28 -108 -40
-96 -5 4 -5 2 -1 -5 10 -18 -44 -122 -61 -116 -7 3 -13 0 -13 -7 0 -6 5 -8 10
-5 13 8 13 5 -2 -35 -10 -31 -12 -32 -25 -15 -7 11 -13 14 -13 8 0 -7 5 -15
10 -18 6 -4 -4 -34 -26 -76 -20 -38 -40 -66 -45 -63 -5 3 -6 -2 -3 -11 7 -17
-15 -17 -29 0 -5 6 -7 4 -4 -5 2 -8 10 -14 16 -13 15 4 14 -1 -10 -42 -18 -31
-24 -34 -38 -23 -14 11 -14 11 -3 -3 10 -14 9 -23 -9 -53 -11 -20 -26 -33 -32
-29 -6 3 -7 1 -3 -5 9 -16 -92 -164 -106 -156 -7 4 -8 3 -4 -4 4 -7 -14 -39
-41 -74 -68 -90 -76 -98 -85 -92 -5 3 -7 1 -6 -4 5 -16 -42 -73 -54 -66 -6 4
-8 3 -5 -3 4 -6 -3 -23 -15 -38 -16 -21 -23 -24 -30 -13 -7 10 -8 8 -4 -5 7
-21 -61 -100 -77 -90 -6 3 -7 2 -4 -4 8 -13 -57 -76 -68 -66 -4 5 -5 3 -2 -3
8 -14 -26 -47 -38 -37 -4 5 -5 3 -2 -4 9 -14 -231 -225 -246 -216 -5 3 -7 2
-4 -4 10 -16 -52 -57 -67 -44 -14 11 -26 5 -26 -13 0 -6 4 -5 9 3 5 8 11 9 15
3 8 -13 -155 -133 -172 -127 -7 3 -10 1 -7 -5 5 -8 -85 -74 -146 -105 -24 -13
-30 -13 -43 1 -9 8 -16 10 -16 4 0 -6 7 -13 16 -17 23 -9 -35 -44 -61 -37 -16
4 -17 3 -5 -5 13 -10 13 -11 0 -12 -8 -1 -19 -1 -23 0 -5 1 -6 -3 -2 -9 3 -5
4 -10 1 -10 -2 0 -12 -3 -22 -7 -13 -5 -15 -3 -9 7 5 9 4 11 -4 6 -6 -4 -8
-12 -5 -18 5 -8 1 -9 -10 -5 -9 4 -15 3 -12 -1 5 -9 -99 -65 -121 -65 -7 0
-13 -3 -13 -7 0 -3 -16 -14 -37 -24 -26 -13 -38 -14 -43 -6 -5 8 -10 9 -14 2
-3 -6 -1 -12 5 -14 5 -2 -36 -23 -92 -46 -56 -24 -108 -41 -116 -38 -8 3 -11
1 -8 -4 6 -9 -10 -14 -42 -13 -7 1 -13 -3 -13 -7 0 -12 -70 -34 -78 -25 -4 4
-1 10 7 13 10 3 7 8 -10 18 -18 10 -20 13 -7 14 23 0 31 17 12 24 -8 3 -12 2
-9 -4 9 -14 -9 -12 -23 2 -9 9 -12 8 -12 -4 0 -8 6 -21 14 -27 26 -22 26 -51
1 -57 -13 -3 -29 -3 -36 2 -8 4 -9 3 -5 -4 4 -7 -9 -15 -36 -22 -24 -6 -73
-20 -109 -31 -70 -20 -105 -24 -112 -11 -2 4 -2 2 -1 -5 3 -12 -53 -29 -63
-19 -4 3 1 6 10 6 9 0 19 5 23 11 5 9 -1 10 -20 5 -16 -4 -26 -2 -26 4 0 6 4
9 10 5 5 -3 4 8 -2 27 -15 45 -22 50 -13 10 7 -32 6 -33 -14 -20 -12 7 -21 22
-22 33 0 11 -3 14 -6 7 -2 -6 -9 -10 -14 -6 -5 3 -9 0 -9 -5 0 -6 4 -11 9 -11
4 0 6 -11 3 -25 -2 -15 -9 -22 -16 -18 -6 4 -4 -2 4 -13 8 -10 15 -20 16 -22
0 -1 9 8 20 20 17 19 17 21 2 15 -13 -5 -18 -1 -18 14 0 17 3 18 20 9 11 -6
20 -15 20 -20 0 -4 3 -15 6 -23 4 -12 -5 -17 -42 -23 -42 -6 -49 -4 -65 17
-10 13 -19 19 -19 12 0 -6 6 -18 14 -26 13 -13 1 -16 -92 -30 -59 -9 -132 -18
-162 -21 -30 -3 -80 -8 -110 -11 -100 -9 -403 -12 -510 -4 -58 4 -112 8 -120
9 -97 6 -119 12 -114 28 5 15 4 15 -6 0 -10 -17 -36 -27 -26 -10 2 4 -11 6
-31 4 -33 -4 -35 -3 -29 19 6 22 5 22 -5 4 -13 -27 -81 -23 -72 4 4 12 3 13
-5 3 -8 -11 -22 -12 -86 -1 -42 7 -76 17 -76 22 0 4 -4 5 -10 2 -25 -16 -330
76 -583 175 -134 53 -156 64 -146 76 10 12 10 15 -2 12 -8 -2 -13 3 -11 10 1
8 -2 11 -8 7 -8 -5 -7 -11 1 -21 16 -19 10 -18 -55 12 -33 15 -54 30 -50 36 4
7 2 8 -4 4 -14 -8 -104 33 -96 45 3 5 -1 6 -8 4 -14 -6 -230 120 -358 208
-200 137 -411 318 -611 525 -79 81 -116 115 -82 77 91 -105 335 -340 446 -429
488 -391 1048 -658 1617 -770 850 -168 1707 -48 2456 344 1038 542 1756 1500
1974 2635 78 407 82 936 10 1360 -93 545 -306 1063 -617 1496 -287 402 -600
704 -1008 974 -134 89 -295 183 -295 172z"/>
<path d="M3124 8354 c-18 -14 -18 -15 4 -4 12 6 22 13 22 15 0 8 -5 6 -26 -11z"/>
<path d="M3070 8319 c-22 -18 -22 -19 -3 -10 12 6 25 16 28 21 9 15 3 12 -25
-11z"/>
<path d="M2870 8179 c-35 -31 -35 -31 -3 -9 18 11 35 25 38 30 10 16 2 11 -35
-21z"/>
<path d="M2727 8070 c-32 -28 -55 -50 -50 -50 8 1 122 99 113 99 -3 0 -31 -22
-63 -49z"/>
<path d="M2634 7988 l-19 -23 23 19 c21 18 27 26 19 26 -2 0 -12 -10 -23 -22z"/>
<path d="M2589 7943 c-13 -16 -12 -17 4 -4 16 13 21 21 13 21 -2 0 -10 -8 -17
-17z"/>
<path d="M2490 7855 c-41 -41 -72 -75 -69 -75 2 0 38 34 79 75 41 41 72 75 69
75 -2 0 -38 -34 -79 -75z"/>
<path d="M2374 7738 l-29 -33 33 29 c30 28 37 36 29 36 -2 0 -16 -15 -33 -32z"/>
<path d="M7605 7730 c10 -11 20 -20 23 -20 3 0 -3 9 -13 20 -10 11 -20 20 -23
20 -3 0 3 -9 13 -20z"/>
<path d="M2294 7648 l-29 -33 33 29 c30 28 37 36 29 36 -2 0 -16 -15 -33 -32z"/>
<path d="M2230 7575 c-13 -14 -22 -27 -19 -29 2 -2 14 10 27 25 29 36 24 38
-8 4z"/>
<path d="M2179 7513 c-13 -16 -12 -17 4 -4 9 7 17 15 17 17 0 8 -8 3 -21 -13z"/>
<path d="M2124 7443 c-15 -20 -23 -33 -16 -29 13 8 56 66 49 66 -3 0 -17 -17
-33 -37z"/>
<path d="M2079 7383 c-13 -16 -12 -17 4 -4 9 7 17 15 17 17 0 8 -8 3 -21 -13z"/>
<path d="M2049 7343 c-13 -16 -12 -17 4 -4 9 7 17 15 17 17 0 8 -8 3 -21 -13z"/>
<path d="M1996 7263 c-20 -32 -27 -46 -14 -31 26 30 62 88 55 88 -2 0 -21 -26
-41 -57z"/>
<path d="M8071 7190 c14 -31 19 -36 19 -24 0 6 -7 19 -16 30 -14 18 -14 18 -3
-6z"/>
<path d="M1880 7080 c-6 -11 -8 -20 -6 -20 3 0 10 9 16 20 6 11 8 20 6 20 -3
0 -10 -9 -16 -20z"/>
<path d="M8170 7030 c6 -11 13 -20 16 -20 2 0 0 9 -6 20 -6 11 -13 20 -16 20
-2 0 0 -9 6 -20z"/>
<path d="M1805 6950 c-9 -16 -13 -30 -11 -30 3 0 12 14 21 30 9 17 13 30 11
30 -3 0 -12 -13 -21 -30z"/>
<path d="M1771 6883 c-10 -26 -10 -27 4 -9 8 11 15 23 15 28 0 15 -7 8 -19
-19z"/>
<path d="M8275 6850 c3 -5 8 -10 11 -10 2 0 4 5 4 10 0 6 -5 10 -11 10 -5 0
-7 -4 -4 -10z"/>
<path d="M8465 6820 c3 -5 8 -10 11 -10 2 0 4 5 4 10 0 6 -5 10 -11 10 -5 0
-7 -4 -4 -10z"/>
<path d="M8397 6755 c-4 -8 -3 -16 1 -19 4 -3 9 4 9 15 2 23 -3 25 -10 4z"/>
<path d="M8506 6712 c-3 -5 1 -9 9 -9 8 0 15 4 15 9 0 4 -4 8 -9 8 -6 0 -12
-4 -15 -8z"/>
<path d="M8397 6619 c7 -7 15 -10 18 -7 3 3 -2 9 -12 12 -14 6 -15 5 -6 -5z"/>
<path d="M8416 6547 c3 -10 9 -15 12 -12 3 3 0 11 -7 18 -10 9 -11 8 -5 -6z"/>
<path d="M8440 6481 c0 -6 4 -13 10 -16 6 -3 7 1 4 9 -7 18 -14 21 -14 7z"/>
<path d="M8567 6415 c-4 -8 -2 -17 3 -20 6 -4 10 3 10 14 0 25 -6 27 -13 6z"/>
<path d="M8526 6412 c-3 -6 -1 -14 5 -17 15 -10 25 3 12 16 -7 7 -13 7 -17 1z"/>
<path d="M1566 6395 c-9 -26 -7 -32 5 -12 6 10 9 21 6 23 -2 3 -7 -2 -11 -11z"/>
<path d="M8600 6389 c0 -5 5 -7 10 -4 6 3 10 8 10 11 0 2 -4 4 -10 4 -5 0 -10
-5 -10 -11z"/>
<path d="M8567 6343 c-4 -3 -7 -11 -7 -17 0 -6 5 -5 12 2 6 6 9 14 7 17 -3 3
-9 2 -12 -2z"/>
<path d="M8638 6303 c7 -3 16 -2 19 1 4 3 -2 6 -13 5 -11 0 -14 -3 -6 -6z"/>
<path d="M8547 6289 c7 -7 15 -10 18 -7 3 3 -2 9 -12 12 -14 6 -15 5 -6 -5z"/>
<path d="M8600 6290 c0 -5 5 -10 11 -10 5 0 7 5 4 10 -3 6 -8 10 -11 10 -2 0
-4 -4 -4 -10z"/>
<path d="M8635 6280 c3 -5 8 -10 11 -10 2 0 4 5 4 10 0 6 -5 10 -11 10 -5 0
-7 -4 -4 -10z"/>
<path d="M8522 6255 c0 -5 6 -26 13 -45 7 -19 14 -28 14 -20 0 8 -6 29 -14 45
-7 17 -13 26 -13 20z"/>
<path d="M8560 6215 c0 -5 5 -17 10 -25 5 -8 10 -10 10 -5 0 6 -5 17 -10 25
-5 8 -10 11 -10 5z"/>
<path d="M8656 6205 c-11 -8 -15 -15 -9 -15 6 0 16 7 23 15 16 19 11 19 -14 0z"/>
<path d="M8610 6190 c-12 -7 -12 -11 -2 -20 6 -5 10 -7 7 -4 -3 4 0 13 6 21
13 15 10 16 -11 3z"/>
<path d="M8574 6159 c-3 -6 -1 -16 4 -21 8 -8 11 -5 9 11 -1 24 -3 25 -13 10z"/>
<path d="M8640 6151 c-8 -6 -19 -7 -25 -4 -5 4 -7 2 -2 -2 12 -14 44 -13 44 2
0 7 -1 13 -1 13 -1 0 -8 -4 -16 -9z"/>
<path d="M8691 6123 c-7 -8 -11 -16 -8 -19 2 -2 10 2 17 11 17 20 9 27 -9 8z"/>
<path d="M8610 6106 c0 -2 8 -10 18 -17 15 -13 16 -12 3 4 -13 16 -21 21 -21
13z"/>
<path d="M8701 6083 c-1 -17 16 -25 25 -12 4 7 3 9 -4 5 -5 -3 -13 0 -15 6 -4
9 -6 10 -6 1z"/>
<path d="M8583 6041 c0 -14 1 -18 4 -9 2 9 12 18 21 20 14 3 13 5 -3 9 -17 5
-21 1 -22 -20z"/>
<path d="M8710 6040 c0 -5 5 -10 11 -10 5 0 7 5 4 10 -3 6 -8 10 -11 10 -2 0
-4 -4 -4 -10z"/>
<path d="M8645 5991 c-3 -5 -2 -12 3 -15 5 -3 9 1 9 9 0 17 -3 19 -12 6z"/>
<path d="M8613 5950 c9 -6 17 -16 17 -22 0 -7 -5 -6 -15 2 -16 13 -20 3 -7
-17 5 -8 13 -9 22 -3 17 11 4 41 -21 47 -8 3 -7 0 4 -7z"/>
<path d="M8700 5935 c0 -7 30 -13 34 -7 3 4 -4 9 -15 9 -10 1 -19 0 -19 -2z"/>
<path d="M1431 5874 c0 -11 3 -14 6 -6 3 7 2 16 -1 19 -3 4 -6 -2 -5 -13z"/>
<path d="M8652 5876 c10 -7 15 -16 11 -19 -9 -10 9 -8 24 1 8 5 2 12 -20 20
-27 10 -29 9 -15 -2z"/>
<path d="M8734 5868 c-14 -22 -13 -37 3 -31 11 4 11 8 3 13 -8 5 -9 10 -1 14
5 4 20 -3 32 -15 12 -12 20 -16 17 -9 -2 7 -14 20 -25 27 -17 12 -23 12 -29 1z"/>
<path d="M8623 5840 c2 -8 12 -16 23 -17 13 -2 15 -1 4 4 -8 3 -19 11 -23 17
-6 7 -7 6 -4 -4z"/>
<path d="M1421 5824 c0 -11 3 -14 6 -6 3 7 2 16 -1 19 -3 4 -6 -2 -5 -13z"/>
<path d="M1411 5754 c0 -11 3 -14 6 -6 3 7 2 16 -1 19 -3 4 -6 -2 -5 -13z"/>
<path d="M8675 5720 c-3 -5 -1 -10 4 -10 6 0 11 5 11 10 0 6 -2 10 -4 10 -3 0
-8 -4 -11 -10z"/>
<path d="M8709 5663 c-13 -16 -12 -17 4 -4 9 7 17 15 17 17 0 8 -8 3 -21 -13z"/>
<path d="M8770 5651 c0 -6 4 -13 10 -16 6 -3 7 1 4 9 -7 18 -14 21 -14 7z"/>
<path d="M1392 5615 c0 -16 2 -22 5 -12 2 9 2 23 0 30 -3 6 -5 -1 -5 -18z"/>
<path d="M8821 5624 c0 -11 3 -14 6 -6 3 7 2 16 -1 19 -3 4 -6 -2 -5 -13z"/>
<path d="M8661 5604 c0 -11 3 -14 6 -6 3 7 2 16 -1 19 -3 4 -6 -2 -5 -13z"/>
<path d="M8736 5607 c3 -10 9 -15 12 -12 3 3 0 11 -7 18 -10 9 -11 8 -5 -6z"/>
<path d="M8696 5598 c3 -5 10 -6 15 -3 13 9 11 12 -6 12 -8 0 -12 -4 -9 -9z"/>
<path d="M8660 5563 c0 -14 2 -15 9 -4 5 8 14 10 21 6 9 -5 11 -4 6 3 -11 18
-36 14 -36 -5z"/>
<path d="M8794 5559 c-3 -6 -15 -9 -25 -6 -11 3 -19 1 -19 -4 0 -15 36 -10 50
6 7 8 10 15 7 15 -3 0 -9 -5 -13 -11z"/>
<path d="M8696 5541 c-3 -4 4 -7 14 -6 27 2 33 10 10 12 -11 1 -22 -2 -24 -6z"/>
<path d="M8716 5508 c5 -8 1 -9 -12 -4 -14 5 -16 4 -7 -5 6 -6 16 -8 22 -5 14
9 14 26 0 26 -5 0 -7 -5 -3 -12z"/>
<path d="M8770 5500 c8 -5 15 -14 15 -20 0 -5 3 -10 8 -10 4 0 10 0 14 0 3 0
-2 9 -12 20 -10 11 -23 20 -29 20 -6 0 -4 -5 4 -10z"/>
<path d="M8670 5435 c0 -8 2 -15 4 -15 2 0 6 7 10 15 3 8 1 15 -4 15 -6 0 -10
-7 -10 -15z"/>
<path d="M8787 5424 c7 -3 9 -13 6 -22 -4 -15 -3 -15 6 -2 10 13 15 8 12 -12
0 -4 6 -5 14 -2 12 5 10 10 -9 25 -13 10 -28 19 -33 18 -4 0 -3 -3 4 -5z"/>
<path d="M8726 5403 c-6 -14 -5 -15 5 -6 7 7 10 15 7 18 -3 3 -9 -2 -12 -12z"/>
<path d="M8777 5379 c7 -7 15 -10 18 -7 3 3 -2 9 -12 12 -14 6 -15 5 -6 -5z"/>
<path d="M8826 5365 c-3 -8 -1 -15 4 -15 6 0 10 7 10 15 0 8 -2 15 -4 15 -2 0
-6 -7 -10 -15z"/>
<path d="M8805 5330 c-3 -6 1 -7 9 -4 18 7 21 14 7 14 -6 0 -13 -4 -16 -10z"/>
<path d="M8770 5321 c0 -6 4 -13 10 -16 6 -3 7 1 4 9 -7 18 -14 21 -14 7z"/>
<path d="M8826 5305 c4 -8 8 -15 10 -15 2 0 4 7 4 15 0 8 -4 15 -10 15 -5 0
-7 -7 -4 -15z"/>
<path d="M8686 5295 c-3 -9 -6 -24 -5 -33 0 -9 5 -4 10 12 9 32 6 48 -5 21z"/>
<path d="M8750 5284 c0 -1 6 -7 14 -13 10 -9 15 -8 19 2 3 8 -3 13 -14 13 -11
0 -19 -1 -19 -2z"/>
<path d="M8766 5239 c3 -6 0 -17 -8 -26 -12 -16 -11 -16 11 -1 13 9 31 14 40
11 10 -3 9 0 -4 8 -25 16 -47 20 -39 8z"/>
<path d="M8682 5185 c0 -16 2 -22 5 -12 2 9 2 23 0 30 -3 6 -5 -1 -5 -18z"/>
<path d="M8766 5163 c-6 -14 -5 -15 5 -6 7 7 10 15 7 18 -3 3 -9 -2 -12 -12z"/>
<path d="M8700 5161 c0 -5 7 -12 16 -15 14 -5 15 -4 4 9 -14 17 -20 19 -20 6z"/>
<path d="M8797 5159 c7 -7 15 -10 18 -7 3 3 -2 9 -12 12 -14 6 -15 5 -6 -5z"/>
<path d="M8683 5126 c1 -17 9 -31 17 -33 10 -3 11 -2 4 4 -7 4 -14 19 -17 33
-4 22 -5 21 -4 -4z"/>
<path d="M8775 5140 c-3 -5 -1 -10 4 -10 6 0 11 5 11 10 0 6 -2 10 -4 10 -3 0
-8 -4 -11 -10z"/>
<path d="M8815 5120 c-7 -11 22 -26 32 -16 4 3 -1 6 -11 6 -9 0 -14 5 -11 10
3 6 4 10 1 10 -3 0 -8 -5 -11 -10z"/>
<path d="M8766 5108 c3 -5 10 -6 15 -3 13 9 11 12 -6 12 -8 0 -12 -4 -9 -9z"/>
<path d="M8725 5090 c-3 -5 -2 -10 4 -10 5 0 13 5 16 10 3 6 2 10 -4 10 -5 0
-13 -4 -16 -10z"/>
<path d="M8785 5090 c-3 -5 -1 -10 4 -10 6 0 11 5 11 10 0 6 -2 10 -4 10 -3 0
-8 -4 -11 -10z"/>
<path d="M8681 5064 c0 -11 3 -14 6 -6 3 7 2 16 -1 19 -3 4 -6 -2 -5 -13z"/>
<path d="M8789 5063 c0 -5 -2 -16 -4 -26 -2 -11 -1 -16 3 -13 8 8 14 46 7 46
-3 0 -5 -3 -6 -7z"/>
<path d="M8681 5024 c0 -11 3 -14 6 -6 3 7 2 16 -1 19 -3 4 -6 -2 -5 -13z"/>
<path d="M8836 5032 c-2 -4 -1 -14 4 -22 7 -11 9 -9 7 8 -1 24 -3 26 -11 14z"/>
<path d="M8712 5004 c9 -9 21 -15 27 -13 6 2 -2 10 -17 17 -25 11 -25 11 -10
-4z"/>
<path d="M8682 4980 c0 -14 2 -19 5 -12 2 6 2 18 0 25 -3 6 -5 1 -5 -13z"/>
<path d="M8805 4950 c-3 -6 1 -7 9 -4 18 7 21 14 7 14 -6 0 -13 -4 -16 -10z"/>
<path d="M8715 4939 c-3 -4 2 -6 10 -5 21 3 28 13 10 13 -9 0 -18 -4 -20 -8z"/>
<path d="M8680 4915 c-7 -9 -11 -17 -9 -20 3 -2 10 5 17 15 14 24 10 26 -8 5z"/>
<path d="M8726 4893 c-6 -14 -5 -15 5 -6 7 7 10 15 7 18 -3 3 -9 -2 -12 -12z"/>
<path d="M8780 4880 c-8 -5 -12 -12 -9 -15 4 -3 12 1 19 10 14 17 11 19 -10 5z"/>
<path d="M8815 4879 c-4 -6 -5 -12 -2 -15 2 -3 7 2 10 11 7 17 1 20 -8 4z"/>
<path d="M8672 4860 c0 -14 2 -19 5 -12 2 6 2 18 0 25 -3 6 -5 1 -5 -13z"/>
<path d="M8819 4843 c-13 -16 -12 -17 4 -4 16 13 21 21 13 21 -2 0 -10 -8 -17
-17z"/>
<path d="M1381 4834 c0 -11 3 -14 6 -6 3 7 2 16 -1 19 -3 4 -6 -2 -5 -13z"/>
<path d="M8676 4815 c4 -8 11 -15 16 -15 6 0 5 6 -2 15 -7 8 -14 15 -16 15 -2
0 -1 -7 2 -15z"/>
<path d="M8750 4803 l-25 -25 28 17 c15 10 27 21 27 26 0 12 -2 11 -30 -18z"/>
<path d="M8791 4804 c0 -11 3 -14 6 -6 3 7 2 16 -1 19 -3 4 -6 -2 -5 -13z"/>
<path d="M8816 4807 c3 -10 9 -15 12 -12 3 3 0 11 -7 18 -10 9 -11 8 -5 -6z"/>
<path d="M8660 4784 c0 -15 3 -23 8 -18 4 5 10 11 13 14 4 3 1 11 -7 18 -12
11 -14 8 -14 -14z"/>
<path d="M8760 4780 c0 -5 5 -10 10 -10 6 0 10 5 10 10 0 6 -4 10 -10 10 -5 0
-10 -4 -10 -10z"/>
<path d="M1392 4760 c0 -14 2 -19 5 -12 2 6 2 18 0 25 -3 6 -5 1 -5 -13z"/>
<path d="M8786 4764 c-9 -24 -2 -26 12 -4 7 11 8 20 3 20 -5 0 -12 -7 -15 -16z"/>
<path d="M8816 4744 c-4 -9 -4 -19 -1 -22 2 -3 7 3 11 12 4 9 4 19 1 22 -2 3
-7 -3 -11 -12z"/>
<path d="M8694 4729 c-3 -6 2 -18 12 -27 17 -16 17 -16 5 0 -7 9 -10 22 -6 28
3 5 4 10 1 10 -3 0 -8 -5 -12 -11z"/>
<path d="M8750 4736 c0 -2 7 -7 16 -10 8 -3 12 -2 9 4 -6 10 -25 14 -25 6z"/>
<path d="M8736 4705 c-9 -26 -7 -32 5 -12 6 10 9 21 6 23 -2 3 -7 -2 -11 -11z"/>
<path d="M1401 4684 c0 -11 3 -14 6 -6 3 7 2 16 -1 19 -3 4 -6 -2 -5 -13z"/>
<path d="M8650 4690 c0 -8 8 -24 16 -35 16 -19 16 -19 9 5 -9 31 -25 50 -25
30z"/>
<path d="M8688 4673 c5 -21 7 -23 10 -9 2 10 0 22 -6 28 -6 6 -7 0 -4 -19z"/>
<path d="M8750 4675 c-10 -12 -16 -13 -26 -4 -8 6 -14 9 -14 6 0 -2 6 -10 13
-16 11 -8 18 -6 32 9 10 11 16 20 13 20 -3 0 -11 -7 -18 -15z"/>
<path d="M8644 4631 c1 -16 5 -33 10 -38 5 -5 6 0 2 11 -5 14 -3 17 11 12 16
-5 16 -5 2 6 -9 7 -16 17 -17 21 -2 23 -8 13 -8 -12z"/>
<path d="M8774 4635 c20 -15 36 -12 36 8 0 8 -3 8 -9 -2 -6 -9 -11 -10 -15 -2
-4 6 -13 11 -19 11 -7 0 -3 -7 7 -15z"/>
<path d="M8727 4624 c6 -17 -8 -18 -27 -1 -12 10 -12 9 -2 -4 16 -21 50 -31
59 -17 3 7 1 8 -5 4 -7 -4 -12 -3 -12 3 0 5 6 11 12 13 7 3 3 7 -9 10 -16 4
-20 2 -16 -8z"/>
<path d="M1412 4610 c0 -14 2 -19 5 -12 2 6 2 18 0 25 -3 6 -5 1 -5 -13z"/>
<path d="M8704 4578 c-5 -7 -3 -8 6 -3 8 5 18 1 27 -10 7 -11 13 -14 13 -9 0
12 -21 34 -31 34 -4 0 -11 -5 -15 -12z"/>
<path d="M8787 4561 c-4 -17 -3 -21 5 -13 5 5 8 16 6 23 -3 8 -7 3 -11 -10z"/>
<path d="M8626 4516 c-8 -30 -7 -36 5 -36 5 0 7 5 4 10 -4 6 -1 18 6 26 10 13
15 12 33 -5 21 -20 22 -20 22 -1 0 10 -4 16 -8 14 -4 -3 -14 -2 -20 3 -24 14
-36 11 -42 -11z"/>
<path d="M8756 4523 c-6 -14 -5 -15 5 -6 7 7 10 15 7 18 -3 3 -9 -2 -12 -12z"/>
<path d="M8730 4501 c0 -11 4 -22 9 -25 4 -3 6 6 3 19 -5 30 -12 33 -12 6z"/>
<path d="M1431 4494 c0 -11 3 -14 6 -6 3 7 2 16 -1 19 -3 4 -6 -2 -5 -13z"/>
<path d="M8611 4457 c-1 -21 21 -18 27 4 3 12 2 12 -6 0 -8 -11 -10 -11 -15 0
-4 10 -6 8 -6 -4z"/>
<path d="M8720 4450 c-9 -6 -10 -10 -3 -10 6 0 15 5 18 10 8 12 4 12 -15 0z"/>
<path d="M8676 4405 c-4 -10 -2 -14 5 -9 7 4 9 0 5 -14 -4 -11 -3 -23 2 -26 9
-5 9 50 0 59 -3 3 -8 -1 -12 -10z"/>
<path d="M8700 4417 c0 -2 6 -10 14 -16 11 -9 16 -9 22 1 4 7 4 10 -1 6 -4 -4
-14 -3 -22 3 -7 6 -13 9 -13 6z"/>
<path d="M8647 4403 c-2 -5 0 -19 4 -33 7 -23 7 -22 6 8 -1 33 -3 37 -10 25z"/>
<path d="M8759 4408 c-5 -18 -6 -38 -1 -34 7 8 12 36 6 36 -2 0 -4 -1 -5 -2z"/>
<path d="M8591 4364 c0 -11 3 -14 6 -6 3 7 2 16 -1 19 -3 4 -6 -2 -5 -13z"/>
<path d="M8581 4324 c0 -11 3 -14 6 -6 3 7 2 16 -1 19 -3 4 -6 -2 -5 -13z"/>
<path d="M8627 4306 c-17 -13 -17 -14 0 -20 10 -4 14 -4 10 0 -4 4 -2 13 4 21
14 17 9 16 -14 -1z"/>
<path d="M8703 4305 c-3 -9 -3 -18 -1 -21 3 -3 8 4 11 16 6 23 -1 27 -10 5z"/>
<path d="M8570 4291 c0 -6 4 -13 10 -16 6 -3 7 1 4 9 -7 18 -14 21 -14 7z"/>
<path d="M8673 4261 c-3 -11 -12 -22 -22 -25 -11 -3 -10 -4 4 -3 11 1 26 -2
33 -7 11 -7 12 -4 4 10 -5 11 -7 25 -5 32 3 6 2 12 -2 12 -4 0 -9 -9 -12 -19z"/>
<path d="M8585 4249 c-4 -6 -4 -13 -1 -16 3 -4 6 -1 6 6 0 7 5 9 12 5 7 -4 8
-3 4 4 -9 15 -13 15 -21 1z"/>
<path d="M8547 4200 c-4 -18 -5 -35 -2 -38 3 -3 5 2 5 11 0 8 4 17 9 19 4 2 5
12 1 23 -5 16 -8 13 -13 -15z"/>
<path d="M8635 4210 c-3 -6 1 -7 9 -4 18 7 21 14 7 14 -6 0 -13 -4 -16 -10z"/>
<path d="M8640 4179 c-13 -9 -13 -10 2 -6 9 3 18 1 20 -5 3 -8 10 -8 24 1 15
10 15 11 2 7 -10 -3 -18 -1 -18 4 0 13 -11 12 -30 -1z"/>
<path d="M8526 4135 c-3 -9 -6 -22 -5 -28 0 -7 5 -1 10 12 5 13 8 26 5 28 -2
2 -6 -3 -10 -12z"/>
<path d="M8655 4120 c10 -11 20 -20 22 -20 2 0 -2 9 -9 20 -7 11 -17 20 -22
20 -5 0 -1 -9 9 -20z"/>
<path d="M8638 4108 c8 -8 8 -17 1 -32 -9 -19 -9 -19 4 -4 8 10 18 14 23 10 5
-4 0 3 -10 16 -11 12 -22 22 -25 22 -3 0 0 -5 7 -12z"/>
<path d="M1531 4094 c0 -11 3 -14 6 -6 3 7 2 16 -1 19 -3 4 -6 -2 -5 -13z"/>
<path d="M8557 4104 c-3 -5 1 -15 9 -22 16 -14 18 -5 5 17 -5 7 -11 9 -14 5z"/>
<path d="M8506 4073 c-6 -14 -5 -15 5 -6 7 7 10 15 7 18 -3 3 -9 -2 -12 -12z"/>
<path d="M8498 4038 c-7 -17 15 -19 29 -3 4 4 3 5 -4 2 -6 -4 -13 -2 -15 5 -3
8 -6 6 -10 -4z"/>
<path d="M8625 4040 c3 -5 8 -10 11 -10 2 0 4 5 4 10 0 6 -5 10 -11 10 -5 0
-7 -4 -4 -10z"/>
<path d="M8583 4021 c-12 -10 -19 -21 -16 -25 3 -3 14 4 24 16 30 33 26 37 -8
9z"/>
<path d="M8485 4001 c3 -5 1 -12 -5 -16 -5 -3 -10 -11 -10 -18 0 -6 7 -2 15 9
17 23 19 34 4 34 -5 0 -8 -4 -4 -9z"/>
<path d="M8558 3963 c7 -3 16 -2 19 1 4 3 -2 6 -13 5 -11 0 -14 -3 -6 -6z"/>
<path d="M8615 3950 c-3 -5 -1 -10 4 -10 6 0 11 5 11 10 0 6 -2 10 -4 10 -3 0
-8 -4 -11 -10z"/>
<path d="M8545 3880 c-16 -7 -17 -9 -3 -9 9 -1 20 4 23 9 7 11 7 11 -20 0z"/>
<path d="M8490 3869 c0 -5 5 -7 10 -4 6 3 10 8 10 11 0 2 -4 4 -10 4 -5 0 -10
-5 -10 -11z"/>
<path d="M8470 3850 c0 -5 5 -10 11 -10 5 0 7 5 4 10 -3 6 -8 10 -11 10 -2 0
-4 -4 -4 -10z"/>
<path d="M8510 3849 c0 -5 5 -7 10 -4 6 3 10 8 10 11 0 2 -4 4 -10 4 -5 0 -10
-5 -10 -11z"/>
<path d="M8421 3837 c2 -1 13 -9 24 -17 19 -14 19 -14 6 3 -7 9 -18 17 -24 17
-6 0 -8 -1 -6 -3z"/>
<path d="M8410 3810 c0 -5 5 -10 10 -10 6 0 10 5 10 10 0 6 -4 10 -10 10 -5 0
-10 -4 -10 -10z"/>
<path d="M8536 3778 c3 -5 10 -6 15 -3 13 9 11 12 -6 12 -8 0 -12 -4 -9 -9z"/>
<path d="M8428 3773 c7 -3 16 -2 19 1 4 3 -2 6 -13 5 -11 0 -14 -3 -6 -6z"/>
<path d="M8460 3773 c0 -17 25 -33 39 -24 9 6 10 11 2 15 -6 4 -11 1 -11 -6
-1 -8 -6 -6 -15 6 -8 11 -15 15 -15 9z"/>
<path d="M8530 3745 c-10 -12 -9 -16 4 -21 9 -4 20 -4 23 0 4 3 -2 6 -13 6
-16 0 -16 2 -4 10 8 5 12 12 9 15 -4 3 -12 -1 -19 -10z"/>
<path d="M8400 3720 c-9 -6 -10 -10 -3 -10 6 0 15 5 18 10 8 12 4 12 -15 0z"/>
<path d="M8422 3694 c-7 -8 -8 -14 -3 -14 10 0 25 19 20 25 -2 1 -10 -3 -17
-11z"/>
<path d="M8480 3642 c0 -4 9 -8 19 -8 11 0 17 4 15 8 -3 4 -12 8 -20 8 -8 0
-14 -4 -14 -8z"/>
<path d="M8320 3620 c0 -5 5 -10 11 -10 5 0 7 5 4 10 -3 6 -8 10 -11 10 -2 0
-4 -4 -4 -10z"/>
<path d="M8446 3595 c4 -8 10 -15 15 -15 4 0 6 7 3 15 -4 8 -10 15 -15 15 -4
0 -6 -7 -3 -15z"/>
<path d="M8299 3579 c-9 -17 -8 -24 7 -38 17 -15 17 -15 5 1 -9 13 -10 22 -1
37 6 12 8 21 6 21 -3 0 -10 -10 -17 -21z"/>
<path d="M1736 3567 c3 -10 9 -15 12 -12 3 3 0 11 -7 18 -10 9 -11 8 -5 -6z"/>
<path d="M8330 3566 c0 -2 8 -10 18 -17 15 -13 16 -12 3 4 -13 16 -21 21 -21
13z"/>
<path d="M8430 3519 c0 -5 5 -7 10 -4 6 3 10 8 10 11 0 2 -4 4 -10 4 -5 0 -10
-5 -10 -11z"/>
<path d="M1805 3430 c9 -16 18 -30 21 -30 2 0 -2 14 -11 30 -9 17 -18 30 -21
30 -2 0 2 -13 11 -30z"/>
<path d="M8260 3425 c5 -7 7 -15 3 -19 -4 -4 1 -4 12 0 11 5 14 9 7 12 -7 2
-10 7 -8 11 3 4 -1 8 -9 8 -10 0 -12 -4 -5 -12z"/>
<path d="M8305 3431 c-3 -5 -2 -12 3 -15 5 -3 9 1 9 9 0 17 -3 19 -12 6z"/>
<path d="M8217 3423 c-10 -9 -9 -23 1 -23 5 0 9 7 9 15 0 17 -1 18 -10 8z"/>
<path d="M8366 3412 c-3 -5 1 -9 9 -9 8 0 12 4 9 9 -3 4 -7 8 -9 8 -2 0 -6 -4
-9 -8z"/>
<path d="M8180 3359 c0 -5 5 -7 10 -4 6 3 10 8 10 11 0 2 -4 4 -10 4 -5 0 -10
-5 -10 -11z"/>
<path d="M1860 3330 c6 -11 13 -20 16 -20 2 0 0 9 -6 20 -6 11 -13 20 -16 20
-2 0 0 -9 6 -20z"/>
<path d="M8235 3341 c4 -8 2 -17 -6 -22 -9 -6 -10 -9 -2 -9 19 0 27 21 13 33
-10 9 -11 9 -5 -2z"/>
<path d="M8170 3327 c-8 -7 -22 -21 -30 -32 -8 -11 0 -7 18 9 29 27 37 37 30
36 -2 0 -10 -6 -18 -13z"/>
<path d="M1893 3275 c9 -16 23 -39 32 -50 9 -11 7 -2 -6 20 -27 49 -47 72 -26
30z"/>
<path d="M8110 3246 c-12 -18 -11 -19 2 -9 11 10 17 10 26 1 6 -6 13 -10 15
-7 2 2 -4 11 -13 20 -16 15 -18 14 -30 -5z"/>
<path d="M1950 3180 c6 -11 13 -20 16 -20 2 0 0 9 -6 20 -6 11 -13 20 -16 20
-2 0 0 -9 6 -20z"/>
<path d="M2030 3061 c33 -49 64 -92 69 -96 6 -3 -19 37 -55 90 -36 52 -67 95
-70 95 -2 0 22 -40 56 -89z"/>
<path d="M8115 3129 c-11 -16 -1 -19 13 -3 7 8 8 14 3 14 -5 0 -13 -5 -16 -11z"/>
<path d="M8160 3113 c8 -3 19 -11 23 -17 6 -7 7 -6 4 4 -2 8 -12 16 -23 17
-13 2 -15 1 -4 -4z"/>
<path d="M8135 3080 c-16 -7 -17 -9 -3 -9 9 -1 20 4 23 9 7 11 7 11 -20 0z"/>
<path d="M8096 3062 c-3 -5 1 -9 9 -9 8 0 12 4 9 9 -3 4 -7 8 -9 8 -2 0 -6 -4
-9 -8z"/>
<path d="M8026 3028 c3 -5 10 -6 15 -3 13 9 11 12 -6 12 -8 0 -12 -4 -9 -9z"/>
<path d="M7970 2986 c0 -2 8 -10 18 -17 15 -13 16 -12 3 4 -13 16 -21 21 -21
13z"/>
<path d="M2116 2940 c22 -32 136 -170 140 -170 6 0 -110 146 -135 170 -13 13
-14 13 -5 0z"/>
<path d="M8060 2930 c-13 -8 -12 -10 3 -10 9 0 17 5 17 10 0 12 -1 12 -20 0z"/>
<path d="M7977 2880 c3 -11 7 -20 9 -20 2 0 4 9 4 20 0 11 -4 20 -9 20 -5 0
-7 -9 -4 -20z"/>
<path d="M7970 2836 c7 -7 13 -7 20 0 6 6 3 10 -10 10 -13 0 -16 -4 -10 -10z"/>
<path d="M7911 2764 c0 -11 3 -14 6 -6 3 7 2 16 -1 19 -3 4 -6 -2 -5 -13z"/>
<path d="M7794 2752 c4 -3 14 -7 22 -8 9 -1 13 0 10 4 -4 3 -14 7 -22 8 -9 1
-13 0 -10 -4z"/>
<path d="M7758 2693 c7 -3 16 -2 19 1 4 3 -2 6 -13 5 -11 0 -14 -3 -6 -6z"/>
<path d="M7693 2605 c0 -7 6 -11 14 -8 7 3 13 6 13 8 0 2 -6 5 -13 8 -8 3 -14
-1 -14 -8z"/>
<path d="M7535 2570 c-16 -16 -25 -30 -19 -29 8 0 60 59 52 59 -3 0 -17 -13
-33 -30z"/>
<path d="M7610 2501 c0 -6 4 -13 10 -16 6 -3 7 1 4 9 -7 18 -14 21 -14 7z"/>
<path d="M7481 2484 c0 -11 3 -14 6 -6 3 7 2 16 -1 19 -3 4 -6 -2 -5 -13z"/>
<path d="M7424 2468 c-12 -14 -13 -18 -3 -10 9 6 18 10 21 7 2 -3 5 2 5 10 0
19 0 19 -23 -7z"/>
<path d="M7381 2437 c-8 -10 -7 -14 2 -14 8 0 14 6 14 14 0 7 -1 13 -2 13 -2
0 -8 -6 -14 -13z"/>
<path d="M7566 2418 c3 -4 11 -5 19 -1 21 7 19 12 -4 10 -11 0 -18 -5 -15 -9z"/>
<path d="M7417 2390 c4 -15 2 -21 -4 -17 -7 5 -9 -1 -5 -15 5 -22 6 -21 15 6
6 18 6 31 -1 38 -8 8 -9 4 -5 -12z"/>
<path d="M7467 2389 c7 -7 15 -10 18 -7 3 3 -2 9 -12 12 -14 6 -15 5 -6 -5z"/>
<path d="M7295 2329 c-4 -6 -5 -12 -2 -15 2 -3 7 2 10 11 7 17 1 20 -8 4z"/>
<path d="M7459 2338 c-6 -21 -5 -38 1 -38 5 0 8 9 7 20 -1 17 -5 26 -8 18z"/>
<path d="M7243 2315 c0 -8 4 -12 9 -9 5 3 6 10 3 15 -9 13 -12 11 -12 -6z"/>
<path d="M7342 2275 c-11 -12 -10 -15 3 -15 8 0 15 7 15 15 0 18 -2 18 -18 0z"/>
<path d="M7109 2230 l-24 -20 27 13 c16 6 28 15 28 20 0 11 -6 9 -31 -13z"/>
<path d="M7253 2237 c0 -8 6 -14 14 -14 9 0 10 4 2 14 -6 7 -12 13 -14 13 -1
0 -2 -6 -2 -13z"/>
<path d="M7176 2217 c3 -10 9 -15 12 -12 3 3 0 11 -7 18 -10 9 -11 8 -5 -6z"/>
<path d="M7211 2214 c0 -11 3 -14 6 -6 3 7 2 16 -1 19 -3 4 -6 -2 -5 -13z"/>
<path d="M7073 2195 c0 -8 4 -12 9 -9 5 3 6 10 3 15 -9 13 -12 11 -12 -6z"/>
<path d="M7236 2192 c-3 -5 1 -9 9 -9 8 0 15 4 15 9 0 4 -4 8 -9 8 -6 0 -12
-4 -15 -8z"/>
<path d="M7280 2180 c-9 -6 -10 -10 -3 -10 6 0 15 5 18 10 8 12 4 12 -15 0z"/>
<path d="M7015 2170 c-3 -6 1 -7 9 -4 18 7 21 14 7 14 -6 0 -13 -4 -16 -10z"/>
<path d="M7070 2158 c0 -9 7 -19 16 -22 15 -6 15 -4 3 11 -7 10 -15 20 -16 22
-2 2 -3 -3 -3 -11z"/>
<path d="M7120 2158 c0 -9 7 -19 16 -22 15 -6 15 -4 3 11 -7 10 -15 20 -16 22
-2 2 -3 -3 -3 -11z"/>
<path d="M7220 2165 c0 -5 5 -17 10 -25 5 -8 10 -10 10 -5 0 6 -5 17 -10 25
-5 8 -10 11 -10 5z"/>
<path d="M3240 2156 c0 -2 7 -7 16 -10 8 -3 12 -2 9 4 -6 10 -25 14 -25 6z"/>
<path d="M6985 2151 c-3 -5 -2 -12 3 -15 5 -3 9 1 9 9 0 17 -3 19 -12 6z"/>
<path d="M7185 2130 c-3 -6 1 -7 9 -4 18 7 21 14 7 14 -6 0 -13 -4 -16 -10z"/>
<path d="M6997 2109 c7 -7 15 -10 18 -7 3 3 -2 9 -12 12 -14 6 -15 5 -6 -5z"/>
<path d="M7160 2110 c0 -5 5 -10 11 -10 5 0 7 5 4 10 -3 6 -8 10 -11 10 -2 0
-4 -4 -4 -10z"/>
<path d="M6960 2106 c0 -2 7 -7 16 -10 8 -3 12 -2 9 4 -6 10 -25 14 -25 6z"/>
<path d="M7107 2099 c7 -7 15 -10 18 -7 3 3 -2 9 -12 12 -14 6 -15 5 -6 -5z"/>
<path d="M7080 2082 c0 -5 7 -9 15 -9 8 0 12 4 9 9 -3 4 -9 8 -15 8 -5 0 -9
-4 -9 -8z"/>
<path d="M7140 2081 c0 -6 4 -13 10 -16 6 -3 7 1 4 9 -7 18 -14 21 -14 7z"/>
<path d="M6826 2056 c-30 -18 -35 -24 -22 -29 11 -4 15 -3 11 4 -4 5 7 15 24
22 17 6 31 15 31 19 0 11 0 11 -44 -16z"/>
<path d="M6898 2063 c7 -3 16 -2 19 1 4 3 -2 6 -13 5 -11 0 -14 -3 -6 -6z"/>
<path d="M7055 2060 c-3 -5 -1 -10 4 -10 6 0 11 5 11 10 0 6 -2 10 -4 10 -3 0
-8 -4 -11 -10z"/>
<path d="M3437 2039 c7 -7 15 -10 18 -7 3 3 -2 9 -12 12 -14 6 -15 5 -6 -5z"/>
<path d="M6977 2039 c7 -7 15 -10 18 -7 3 3 -2 9 -12 12 -14 6 -15 5 -6 -5z"/>
<path d="M7045 2030 c-3 -6 1 -7 9 -4 18 7 21 14 7 14 -6 0 -13 -4 -16 -10z"/>
<path d="M7076 2025 c-3 -9 0 -15 9 -15 9 0 12 6 9 15 -4 8 -7 15 -9 15 -2 0
-5 -7 -9 -15z"/>
<path d="M6718 1998 c-11 -8 -15 -18 -9 -26 6 -10 10 -10 20 2 19 22 10 40
-11 24z"/>
<path d="M6821 2003 c5 -27 -2 -33 -23 -23 -21 10 -21 10 -6 -3 10 -8 14 -18
10 -22 -4 -5 -1 -5 5 -1 21 12 35 44 23 51 -6 4 -10 3 -9 -2z"/>
<path d="M6903 2000 c2 -8 9 -16 15 -16 7 -1 17 -2 24 -3 7 0 3 -8 -8 -17 -18
-15 -18 -15 2 -5 12 6 25 7 30 3 5 -4 3 0 -4 9 -6 9 -9 19 -5 23 4 4 -1 4 -11
0 -14 -5 -17 -4 -12 4 4 7 2 12 -3 12 -6 0 -11 -6 -11 -12 0 -9 -4 -8 -11 2
-9 13 -10 13 -6 0z"/>
<path d="M6987 1989 c4 -13 8 -18 11 -10 2 7 -1 18 -6 23 -8 8 -9 4 -5 -13z"/>
<path d="M6765 1970 c10 -11 20 -20 23 -20 3 0 -3 9 -13 20 -10 11 -20 20 -23
20 -3 0 3 -9 13 -20z"/>
<path d="M6875 1979 c-10 -15 3 -25 16 -12 7 7 7 13 1 17 -6 3 -14 1 -17 -5z"/>
<path d="M6846 1967 c3 -10 9 -15 12 -12 3 3 0 11 -7 18 -10 9 -11 8 -5 -6z"/>
<path d="M3597 1959 c7 -7 15 -10 18 -7 3 3 -2 9 -12 12 -14 6 -15 5 -6 -5z"/>
<path d="M6650 1961 c0 -6 5 -13 10 -16 6 -3 10 1 10 9 0 9 -4 16 -10 16 -5 0
-10 -4 -10 -9z"/>
<path d="M6740 1949 c0 -5 5 -7 10 -4 6 3 10 8 10 11 0 2 -4 4 -10 4 -5 0 -10
-5 -10 -11z"/>
<path d="M3571 1934 c0 -11 3 -14 6 -6 3 7 2 16 -1 19 -3 4 -6 -2 -5 -13z"/>
<path d="M6600 1940 c-9 -6 -10 -10 -3 -10 6 0 15 5 18 10 8 12 4 12 -15 0z"/>
<path d="M3635 1930 c-3 -6 1 -7 9 -4 18 7 21 14 7 14 -6 0 -13 -4 -16 -10z"/>
<path d="M6777 1928 c7 -8 9 -19 5 -23 -4 -5 -1 -5 6 -1 6 4 12 3 12 -2 0 -5
7 -9 15 -9 20 0 20 -1 -17 27 -18 13 -27 17 -21 8z"/>
<path d="M6835 1930 c-7 -11 10 -19 38 -17 15 0 15 12 -1 12 -4 0 -12 4 -19 8
-6 4 -14 3 -18 -3z"/>
<path d="M3665 1919 c-4 -6 -5 -12 -2 -15 2 -3 7 2 10 11 7 17 1 20 -8 4z"/>
<path d="M6531 1911 c-7 -5 -9 -11 -5 -14 5 -3 15 1 22 9 14 16 5 18 -17 5z"/>
<path d="M3610 1899 c0 -5 5 -7 10 -4 6 3 10 8 10 11 0 2 -4 4 -10 4 -5 0 -10
-5 -10 -11z"/>
<path d="M3747 1889 c7 -7 15 -10 18 -7 3 3 -2 9 -12 12 -14 6 -15 5 -6 -5z"/>
<path d="M6485 1889 c-11 -16 -1 -19 13 -3 7 8 8 14 3 14 -5 0 -13 -5 -16 -11z"/>
<path d="M6774 1878 c3 -15 26 -23 26 -8 0 6 -4 9 -9 6 -5 -4 -12 -1 -14 4 -3
6 -4 5 -3 -2z"/>
<path d="M6655 1870 c-3 -6 1 -7 9 -4 18 7 21 14 7 14 -6 0 -13 -4 -16 -10z"/>
<path d="M6406 1845 c4 -8 10 -15 15 -15 4 0 6 7 3 15 -4 8 -10 15 -15 15 -4
0 -6 -7 -3 -15z"/>
<path d="M6490 1856 c0 -2 7 -7 16 -10 8 -3 12 -2 9 4 -6 10 -25 14 -25 6z"/>
<path d="M6716 1847 c3 -10 9 -15 12 -12 3 3 0 11 -7 18 -10 9 -11 8 -5 -6z"/>
<path d="M3858 1843 c6 -2 10 -8 8 -12 -3 -4 1 -8 9 -8 11 0 12 4 4 14 -6 7
-17 13 -23 12 -7 0 -6 -2 2 -6z"/>
<path d="M6354 1834 c-18 -15 -18 -15 2 -5 12 6 24 7 28 4 3 -3 6 -1 6 5 0 16
-12 15 -36 -4z"/>
<path d="M6537 1836 c-4 -10 1 -12 14 -9 23 6 24 9 5 16 -8 3 -17 0 -19 -7z"/>
<path d="M6626 1833 c-6 -14 -5 -15 5 -6 7 7 10 15 7 18 -3 3 -9 -2 -12 -12z"/>
<path d="M6680 1839 c0 -5 5 -7 10 -4 6 3 10 8 10 11 0 2 -4 4 -10 4 -5 0 -10
-5 -10 -11z"/>
<path d="M6431 1804 c0 -11 3 -14 6 -6 3 7 2 16 -1 19 -3 4 -6 -2 -5 -13z"/>
<path d="M6600 1816 c0 -2 8 -10 18 -17 15 -13 16 -12 3 4 -13 16 -21 21 -21
13z"/>
<path d="M6260 1807 c0 -3 12 -12 26 -22 15 -9 23 -12 20 -6 -7 11 -46 35 -46
28z"/>
<path d="M6453 1795 c0 -8 4 -12 9 -9 5 3 6 10 3 15 -9 13 -12 11 -12 -6z"/>
<path d="M6551 1796 c-10 -11 -9 -14 1 -12 14 2 23 15 15 22 -2 2 -10 -2 -16
-10z"/>
<path d="M3990 1790 c-8 -5 -12 -12 -9 -15 4 -3 12 1 19 10 14 17 11 19 -10 5z"/>
<path d="M6230 1796 c0 -2 7 -7 16 -10 8 -3 12 -2 9 4 -6 10 -25 14 -25 6z"/>
<path d="M6363 1785 c0 -8 4 -12 9 -9 5 3 6 10 3 15 -9 13 -12 11 -12 -6z"/>
<path d="M4020 1779 c0 -5 5 -7 10 -4 6 3 10 8 10 11 0 2 -4 4 -10 4 -5 0 -10
-5 -10 -11z"/>
<path d="M6205 1780 c3 -5 8 -10 11 -10 2 0 4 5 4 10 0 6 -5 10 -11 10 -5 0
-7 -4 -4 -10z"/>
<path d="M6386 1774 c-5 -14 -4 -15 9 -4 17 14 19 20 6 20 -5 0 -12 -7 -15
-16z"/>
<path d="M3847 1765 c3 -8 9 -12 14 -9 12 7 11 11 -5 17 -10 4 -13 1 -9 -8z"/>
<path d="M6171 1777 c2 -1 13 -9 24 -17 19 -14 19 -14 6 3 -7 9 -18 17 -24 17
-6 0 -8 -1 -6 -3z"/>
<path d="M6322 1749 c0 -16 4 -29 10 -29 6 0 8 3 5 7 -4 3 -3 11 2 17 5 7 4
16 -4 22 -9 9 -12 6 -13 -17z"/>
<path d="M6465 1769 c-4 -6 -5 -12 -2 -15 2 -3 7 2 10 11 7 17 1 20 -8 4z"/>
<path d="M6582 1771 c-11 -7 -10 -9 3 -14 9 -4 14 -3 10 2 -3 5 1 12 7 14 7 3
9 6 3 6 -5 0 -16 -3 -23 -8z"/>
<path d="M6270 1761 c0 -5 7 -11 14 -14 10 -4 13 -1 9 9 -6 15 -23 19 -23 5z"/>
<path d="M6505 1760 c3 -5 -1 -10 -9 -10 -9 0 -16 -4 -16 -10 0 -6 10 -5 25 2
23 10 26 28 4 28 -6 0 -7 -4 -4 -10z"/>
<path d="M3911 1748 c-1 -20 14 -24 25 -6 4 6 3 8 -4 4 -5 -3 -13 0 -15 6 -3
8 -6 6 -6 -4z"/>
<path d="M3985 1740 c-3 -5 -1 -10 4 -10 6 0 11 5 11 10 0 6 -2 10 -4 10 -3 0
-8 -4 -11 -10z"/>
<path d="M4056 1734 c-5 -14 -4 -15 9 -4 17 14 19 20 6 20 -5 0 -12 -7 -15
-16z"/>
<path d="M4146 1735 c-3 -8 -1 -15 4 -15 6 0 10 7 10 15 0 8 -2 15 -4 15 -2 0
-6 -7 -10 -15z"/>
<path d="M6406 1734 c-3 -9 -2 -23 2 -31 8 -13 10 -13 15 1 4 9 2 16 -3 16 -5
0 -7 7 -4 15 4 8 4 15 1 15 -3 0 -8 -7 -11 -16z"/>
<path d="M6034 1713 c-2 -27 -1 -27 14 3 8 15 8 21 -1 21 -7 0 -13 -11 -13
-24z"/>
<path d="M6120 1730 c0 -5 5 -10 11 -10 5 0 7 5 4 10 -3 6 -8 10 -11 10 -2 0
-4 -4 -4 -10z"/>
<path d="M6230 1725 c0 -8 -7 -15 -15 -15 -8 0 -15 -8 -15 -17 0 -13 2 -15 8
-5 5 7 17 10 28 6 12 -4 15 -3 7 3 -20 14 1 36 28 28 19 -5 21 -4 9 4 -22 16
-50 13 -50 -4z"/>
<path d="M4100 1720 c0 -5 5 -10 11 -10 5 0 7 5 4 10 -3 6 -8 10 -11 10 -2 0
-4 -4 -4 -10z"/>
<path d="M5990 1720 c0 -5 4 -10 9 -10 6 0 13 5 16 10 3 6 -1 10 -9 10 -9 0
-16 -4 -16 -10z"/>
<path d="M6440 1722 c0 -4 4 -13 9 -20 7 -11 9 -11 14 1 3 9 -1 18 -9 21 -8 3
-14 2 -14 -2z"/>
<path d="M6065 1711 c-3 -5 -2 -12 3 -15 5 -3 9 1 9 9 0 17 -3 19 -12 6z"/>
<path d="M6178 1708 c0 -7 -2 -19 -2 -26 -1 -7 -8 -17 -16 -22 -12 -8 -12 -10
-1 -10 8 0 11 -6 7 -17 -4 -10 -4 -14 0 -10 4 4 12 3 18 -2 14 -12 51 13 41
28 -10 16 -28 13 -22 -4 4 -8 2 -17 -3 -20 -11 -7 -12 0 -13 58 0 35 -5 51 -9
25z"/>
<path d="M6343 1708 c-4 -7 -9 -22 -10 -33 -3 -20 -3 -20 12 -1 8 11 15 24 15
29 0 5 7 4 15 -3 9 -7 15 -8 15 -2 0 5 -7 13 -16 16 -21 8 -22 8 -31 -6z"/>
<path d="M3913 1695 c0 -8 4 -15 9 -15 4 0 8 4 8 9 0 6 -4 12 -8 15 -5 3 -9
-1 -9 -9z"/>
<path d="M4016 1699 c2 -4 13 -7 24 -6 23 2 17 10 -10 12 -10 1 -17 -2 -14 -6z"/>
<path d="M4155 1699 c-4 -6 -5 -12 -2 -15 2 -3 7 2 10 11 7 17 1 20 -8 4z"/>
<path d="M5930 1700 c8 -5 20 -10 25 -10 6 0 3 5 -5 10 -8 5 -19 10 -25 10 -5
0 -3 -5 5 -10z"/>
<path d="M3975 1690 c-3 -5 -1 -10 4 -10 6 0 11 5 11 10 0 6 -2 10 -4 10 -3 0
-8 -4 -11 -10z"/>
<path d="M4090 1691 c0 -7 -5 -9 -12 -5 -7 5 -8 3 -3 -5 5 -9 10 -10 18 -2 6
6 8 14 4 18 -4 3 -7 1 -7 -6z"/>
<path d="M5862 1691 c-11 -7 -11 -9 2 -14 10 -4 16 -1 16 8 0 17 -1 17 -18 6z"/>
<path d="M4199 1683 c-1 -5 -1 -12 0 -17 1 -5 -5 -6 -14 -2 -10 3 -14 2 -10
-5 9 -14 28 -6 31 14 1 9 0 17 -2 17 -2 0 -5 -3 -5 -7z"/>
<path d="M4372 1678 c-7 -7 -12 -16 -12 -22 0 -5 6 -2 13 9 8 10 19 15 25 11
7 -4 12 -2 12 3 0 15 -23 14 -38 -1z"/>
<path d="M5825 1681 c-3 -5 -2 -12 3 -15 5 -3 9 1 9 9 0 17 -3 19 -12 6z"/>
<path d="M6007 1674 c3 -7 9 -14 14 -14 14 0 10 17 -5 23 -10 4 -13 1 -9 -9z"/>
<path d="M4324 1672 c3 -5 0 -13 -6 -15 -9 -4 -10 -6 -1 -6 17 -1 25 16 12 25
-7 4 -9 3 -5 -4z"/>
<path d="M4439 1678 c-5 -17 -4 -48 3 -48 4 0 7 11 6 25 -2 21 -6 31 -9 23z"/>
<path d="M5774 1660 c0 -13 4 -16 10 -10 7 7 7 13 0 20 -6 6 -10 3 -10 -10z"/>
<path d="M5797 1653 c-4 -22 -11 -31 -20 -27 -8 3 -17 -2 -21 -12 -5 -13 -4
-14 7 -6 8 7 16 9 20 6 8 -9 29 35 25 54 -2 10 -7 4 -11 -15z"/>
<path d="M5901 1666 c-9 -10 -9 -16 -1 -21 6 -4 14 -4 17 -1 4 3 1 6 -7 6 -10
0 -10 3 0 15 7 8 10 15 7 15 -2 0 -10 -6 -16 -14z"/>
<path d="M6114 1668 c3 -15 26 -23 26 -8 0 6 -4 9 -9 6 -5 -4 -12 -1 -14 4 -3
6 -4 5 -3 -2z"/>
<path d="M6234 1664 c11 -8 24 -14 30 -14 16 0 -12 24 -31 26 -16 2 -16 1 1
-12z"/>
<path d="M5690 1660 c-33 -5 -34 -6 -9 -11 15 -3 40 0 55 7 31 13 19 14 -46 4z"/>
<path d="M4290 1647 c0 -10 -10 -22 -22 -27 -13 -5 -16 -9 -8 -9 26 -1 50 23
39 40 -7 11 -9 11 -9 -4z"/>
<path d="M4563 1645 c0 -8 4 -15 9 -15 4 0 8 4 8 9 0 6 -4 12 -8 15 -5 3 -9
-1 -9 -9z"/>
<path d="M5856 1643 c-6 -14 -5 -15 5 -6 7 7 10 15 7 18 -3 3 -9 -2 -12 -12z"/>
<path d="M4610 1641 c0 -5 9 -7 20 -4 11 3 20 7 20 9 0 2 -9 4 -20 4 -11 0
-20 -4 -20 -9z"/>
<path d="M5588 1643 c6 -2 18 -2 25 0 6 3 1 5 -13 5 -14 0 -19 -2 -12 -5z"/>
<path d="M4113 1623 c-13 -8 -23 -21 -23 -27 0 -7 3 -8 8 0 4 5 18 18 32 27
13 9 20 17 15 16 -6 0 -20 -7 -32 -16z"/>
<path d="M5556 1632 c-3 -5 1 -9 9 -9 8 0 12 4 9 9 -3 4 -7 8 -9 8 -2 0 -6 -4
-9 -8z"/>
<path d="M5925 1630 c-4 -6 -1 -9 6 -8 6 2 13 -2 16 -9 3 -8 -3 -11 -16 -8
-14 3 -18 0 -14 -12 4 -10 8 -11 13 -3 4 6 11 11 16 10 15 -3 15 17 0 29 -10
8 -16 9 -21 1z"/>
<path d="M6255 1630 c3 -5 8 -10 11 -10 2 0 4 5 4 10 0 6 -5 10 -11 10 -5 0
-7 -4 -4 -10z"/>
<path d="M4450 1620 c-12 -7 -10 -9 7 -7 12 0 19 5 17 9 -6 10 -6 10 -24 -2z"/>
<path d="M4756 1614 c-5 -14 -4 -15 8 -5 11 10 15 8 19 -6 4 -14 5 -13 6 5 1
26 -24 30 -33 6z"/>
<path d="M5400 1625 c0 -2 8 -9 18 -14 14 -7 19 -6 19 3 0 6 -9 13 -19 13 -10
1 -18 0 -18 -2z"/>
<path d="M5592 1618 c-15 -15 -16 -35 -2 -43 6 -4 7 1 3 11 -4 11 1 22 12 30
10 8 14 14 9 14 -6 0 -15 -5 -22 -12z"/>
<path d="M5993 1614 c0 -7 6 -10 14 -7 7 3 13 8 13 12 0 4 -6 8 -13 8 -8 0
-14 -6 -14 -13z"/>
<path d="M4625 1611 c-3 -5 -2 -12 3 -15 5 -3 9 1 9 9 0 17 -3 19 -12 6z"/>
<path d="M4720 1610 c-9 -6 -10 -10 -3 -10 6 0 15 5 18 10 8 12 4 12 -15 0z"/>
<path d="M4930 1612 c0 -5 14 -7 30 -4 29 4 41 -10 20 -23 -5 -3 -10 -12 -10
-18 0 -7 5 -4 11 6 5 9 15 17 20 17 6 0 7 -5 3 -12 -4 -7 -3 -8 5 -4 8 6 9 12
2 20 -6 7 -9 15 -6 17 2 3 -13 6 -35 7 -22 2 -40 -1 -40 -6z"/>
<path d="M5048 1613 c6 -2 18 -2 25 0 6 3 1 5 -13 5 -14 0 -19 -2 -12 -5z"/>
<path d="M5168 1613 c12 -2 32 -2 45 0 12 2 2 4 -23 4 -25 0 -35 -2 -22 -4z"/>
<path d="M5278 1613 c6 -2 18 -2 25 0 6 3 1 5 -13 5 -14 0 -19 -2 -12 -5z"/>
<path d="M6065 1609 c-4 -6 -5 -12 -2 -15 2 -3 7 2 10 11 7 17 1 20 -8 4z"/>
<path d="M6128 1613 c10 -4 10 -8 0 -21 -11 -15 -11 -15 3 -5 9 7 20 9 25 5 4
-4 2 1 -5 11 -7 9 -19 17 -25 16 -6 0 -6 -3 2 -6z"/>
<path d="M5493 1595 c0 -8 4 -12 9 -9 5 3 6 10 3 15 -9 13 -12 11 -12 -6z"/>
<path d="M5613 1593 c0 -9 4 -10 14 -2 7 6 13 12 13 14 0 1 -6 2 -13 2 -8 0
-14 -6 -14 -14z"/>
<path d="M5657 1599 c7 -9 9 -20 5 -24 -4 -5 -2 -5 5 -2 6 4 13 1 16 -5 3 -7
4 -3 4 9 -1 12 -3 20 -6 18 -2 -3 -11 1 -20 8 -14 10 -14 10 -4 -4z"/>
<path d="M4127 1589 c7 -7 15 -10 18 -7 3 3 -2 9 -12 12 -14 6 -15 5 -6 -5z"/>
<path d="M4226 1591 c-17 -6 -17 -8 -4 -14 10 -3 19 0 22 9 3 8 4 14 3 13 -1
0 -11 -4 -21 -8z"/>
<path d="M4414 1592 c4 -7 2 -19 -4 -27 -7 -9 -8 -15 -2 -15 16 0 24 32 11 44
-9 8 -10 8 -5 -2z"/>
<path d="M5058 1593 c7 -3 16 -2 19 1 4 3 -2 6 -13 5 -11 0 -14 -3 -6 -6z"/>
<path d="M5400 1584 c0 -8 5 -12 10 -9 6 4 8 11 5 16 -9 14 -15 11 -15 -7z"/>
<path d="M5974 1591 c4 -5 0 -11 -6 -14 -7 -3 -3 -4 9 -4 17 1 19 4 11 14 -12
15 -22 18 -14 4z"/>
<path d="M4160 1579 c0 -5 5 -7 10 -4 6 3 10 8 10 11 0 2 -4 4 -10 4 -5 0 -10
-5 -10 -11z"/>
<path d="M4296 1573 c-4 -9 -3 -20 1 -24 4 -4 9 3 9 17 2 28 -1 31 -10 7z"/>
<path d="M4360 1579 c0 -5 5 -7 10 -4 6 3 10 8 10 11 0 2 -4 4 -10 4 -5 0 -10
-5 -10 -11z"/>
<path d="M4468 1576 c12 -7 20 -15 17 -19 -3 -4 -2 -5 2 -2 17 13 8 30 -16 32
l-26 1 23 -12z"/>
<path d="M4571 1574 c0 -11 3 -14 6 -6 3 7 2 16 -1 19 -3 4 -6 -2 -5 -13z"/>
<path d="M4912 1570 c-18 -29 -15 -38 4 -12 9 13 14 25 12 27 -2 2 -9 -5 -16
-15z"/>
<path d="M5150 1585 c0 -7 30 -13 34 -7 3 4 -4 9 -15 9 -10 1 -19 0 -19 -2z"/>
<path d="M5615 1569 c-18 -11 -24 -19 -14 -19 9 0 24 9 34 20 22 24 19 24 -20
-1z"/>
<path d="M6041 1574 c0 -11 3 -14 6 -6 3 7 2 16 -1 19 -3 4 -6 -2 -5 -13z"/>
<path d="M4695 1571 c-3 -5 -2 -12 3 -15 5 -3 9 1 9 9 0 17 -3 19 -12 6z"/>
<path d="M5076 1568 c3 -4 12 -8 20 -8 8 0 14 4 14 8 0 4 -9 8 -19 8 -11 0
-17 -4 -15 -8z"/>
<path d="M5566 1567 c3 -10 9 -15 12 -12 3 3 0 11 -7 18 -10 9 -11 8 -5 -6z"/>
<path d="M4780 1560 c-8 -5 -10 -10 -5 -10 6 0 17 5 25 10 8 5 11 10 5 10 -5
0 -17 -5 -25 -10z"/>
<path d="M5033 1546 c0 -27 0 -27 14 -6 8 12 12 24 9 27 -3 4 -6 0 -6 -8 0
-12 -2 -12 -9 0 -6 9 -8 5 -8 -13z"/>
<path d="M5220 1555 c6 -8 9 -18 6 -23 -10 -16 28 -42 44 -31 13 9 12 10 -2 5
-17 -5 -31 7 -34 29 0 6 -2 16 -2 23 -1 6 -7 12 -13 12 -8 0 -8 -4 1 -15z"/>
<path d="M5250 1560 c8 -5 20 -10 25 -10 6 0 3 5 -5 10 -8 5 -19 10 -25 10 -5
0 -3 -5 5 -10z"/>
<path d="M5485 1560 c3 -5 8 -10 11 -10 2 0 4 5 4 10 0 6 -5 10 -11 10 -5 0
-7 -4 -4 -10z"/>
<path d="M5539 1554 c14 -29 36 -45 66 -48 14 -2 23 -1 21 2 -3 2 -1 14 5 26
9 19 9 20 -4 3 -19 -23 -50 -17 -77 14 -18 20 -19 20 -11 3z"/>
<path d="M6005 1560 c-3 -5 -1 -10 4 -10 6 0 11 5 11 10 0 6 -2 10 -4 10 -3 0
-8 -4 -11 -10z"/>
<path d="M4324 1549 c-5 -8 -3 -9 6 -4 7 4 16 2 22 -6 8 -12 9 -12 6 0 -6 20
-24 25 -34 10z"/>
<path d="M4441 1538 c0 -16 2 -18 6 -8 3 8 11 18 17 22 7 5 4 8 -6 8 -12 0
-18 -7 -17 -22z"/>
<path d="M4538 1553 c6 -2 9 -10 6 -15 -4 -7 -2 -8 5 -4 13 9 5 26 -12 25 -9
0 -8 -2 1 -6z"/>
<path d="M4610 1549 c0 -5 5 -7 10 -4 6 3 10 8 10 11 0 2 -4 4 -10 4 -5 0 -10
-5 -10 -11z"/>
<path d="M4864 1538 c-4 -13 -8 -30 -8 -38 -1 -8 -10 -15 -20 -15 -11 0 -21
-7 -23 -15 -4 -13 -3 -13 6 0 9 13 12 12 25 -5 8 -11 18 -17 22 -12 4 4 2 7
-4 7 -7 0 -12 4 -12 10 0 5 8 7 18 4 13 -5 14 -4 3 4 -10 7 -10 11 -1 17 9 6
9 9 0 15 -8 5 -7 11 4 23 9 9 12 18 7 22 -5 3 -13 -5 -17 -17z"/>
<path d="M5165 1550 c-3 -5 -12 -7 -20 -3 -8 3 -15 3 -15 0 0 -13 30 -14 40
-1 7 8 10 14 7 14 -3 0 -8 -4 -12 -10z"/>
<path d="M5281 1537 c-13 -21 -12 -21 5 -5 10 10 16 20 13 22 -3 3 -11 -5 -18
-17z"/>
<path d="M5315 1550 c3 -5 12 -7 20 -3 21 7 19 13 -6 13 -11 0 -18 -4 -14 -10z"/>
<path d="M5364 1544 c-18 -14 -18 -15 4 -4 12 6 22 13 22 15 0 8 -5 6 -26 -11z"/>
<path d="M5513 1543 c0 -11 7 -20 14 -20 10 0 10 4 1 16 -7 9 -13 18 -15 20
-1 2 -1 -5 0 -16z"/>
<path d="M5713 1539 c5 -9 19 -22 31 -29 18 -12 19 -11 9 2 -10 11 -10 17 0
28 9 11 7 10 -7 0 -17 -13 -19 -13 -14 0 4 11 0 16 -12 16 -14 0 -15 -4 -7
-17z"/>
<path d="M4730 1541 c0 -7 -4 -10 -9 -6 -5 3 -13 0 -17 -6 -4 -8 -3 -9 4 -5 7
4 12 1 12 -6 0 -8 5 -6 11 5 6 10 8 21 5 24 -3 4 -6 1 -6 -6z"/>
<path d="M4980 1538 c0 -4 4 -8 9 -8 6 0 12 4 15 8 3 5 -1 9 -9 9 -8 0 -15 -4
-15 -9z"/>
<path d="M5098 1543 c6 -2 9 -10 6 -15 -4 -7 -2 -8 5 -4 13 9 5 26 -12 25 -9
0 -8 -2 1 -6z"/>
<path d="M5395 1540 c-8 -13 5 -13 25 0 13 8 13 10 -2 10 -9 0 -20 -4 -23 -10z"/>
<path d="M4375 1530 c3 -5 8 -10 11 -10 2 0 4 5 4 10 0 6 -5 10 -11 10 -5 0
-7 -4 -4 -10z"/>
<path d="M4763 1523 c0 -10 4 -10 16 -1 9 7 18 13 20 15 2 1 -5 1 -16 0 -11 0
-20 -7 -20 -14z"/>
<path d="M4818 1528 c10 -13 10 -17 0 -21 -9 -4 -9 -6 -1 -6 20 -2 24 16 5 30
-15 13 -16 12 -4 -3z"/>
<path d="M5188 1533 c7 -3 16 -2 19 1 4 3 -2 6 -13 5 -11 0 -14 -3 -6 -6z"/>
<path d="M4626 1518 c3 -5 10 -6 15 -3 13 9 11 12 -6 12 -8 0 -12 -4 -9 -9z"/>
<path d="M5127 1523 c-9 -15 17 -23 34 -11 11 8 11 9 -3 5 -9 -3 -18 -1 -21 6
-2 8 -5 8 -10 0z"/>
<path d="M5450 1511 c-5 -11 -6 -22 -1 -25 13 -8 20 4 14 22 -4 10 -2 13 5 8
7 -4 12 -2 12 3 0 18 -19 12 -30 -8z"/>
<path d="M4546 1511 c-4 -5 -2 -12 3 -15 5 -4 12 -2 15 3 4 5 2 12 -3 15 -5 4
-12 2 -15 -3z"/>
<path d="M4896 1512 c-3 -4 4 -9 15 -9 23 -2 25 3 4 10 -8 4 -16 3 -19 -1z"/>
<path d="M5340 1516 c0 -2 7 -7 16 -10 8 -3 12 -2 9 4 -6 10 -25 14 -25 6z"/>
<path d="M4468 1503 c7 -3 16 -2 19 1 4 3 -2 6 -13 5 -11 0 -14 -3 -6 -6z"/>
<path d="M4601 1494 c0 -11 3 -14 6 -6 3 7 2 16 -1 19 -3 4 -6 -2 -5 -13z"/>
<path d="M5011 1496 c-8 -10 -9 -16 -1 -21 6 -4 9 -1 8 7 -2 7 5 12 14 12 10
-1 15 2 12 7 -8 13 -20 11 -33 -5z"/>
<path d="M5286 1493 c-6 -14 -5 -15 5 -6 7 7 10 15 7 18 -3 3 -9 -2 -12 -12z"/>
<path d="M5380 1496 c0 -9 -7 -12 -20 -9 -12 3 -20 0 -20 -6 0 -7 5 -9 11 -5
6 3 15 0 20 -7 4 -8 16 -14 26 -15 13 -1 18 6 18 27 1 15 -3 25 -7 23 -4 -3
-8 -14 -8 -25 0 -10 -5 -19 -10 -19 -6 0 -8 11 -4 25 3 14 3 25 0 25 -3 0 -6
-6 -6 -14z"/>
<path d="M5706 1498 c3 -4 9 -8 15 -8 5 0 9 4 9 8 0 5 -7 9 -15 9 -8 0 -12 -4
-9 -9z"/>
<path d="M5155 1491 c-3 -6 3 -9 14 -8 11 0 17 5 15 9 -7 11 -22 10 -29 -1z"/>
<path d="M5209 1483 c-13 -16 -12 -17 4 -4 16 13 21 21 13 21 -2 0 -10 -8 -17
-17z"/>
<path d="M5313 1480 c-1 -11 1 -22 5 -24 4 -2 8 7 8 20 1 13 -1 24 -5 24 -4 0
-7 -9 -8 -20z"/>
<path d="M5636 1491 c-3 -4 4 -7 14 -8 11 -1 22 2 24 6 3 4 -4 7 -14 8 -11 1
-22 -2 -24 -6z"/>
<path d="M4722 1481 c-11 -7 -10 -10 3 -15 23 -8 27 -8 21 3 -4 5 0 12 6 14 9
4 8 6 -2 6 -8 0 -21 -3 -28 -8z"/>
<path d="M5055 1480 c-3 -5 -1 -10 4 -10 6 0 11 5 11 10 0 6 -2 10 -4 10 -3 0
-8 -4 -11 -10z"/>
<path d="M5113 1477 c0 -8 6 -14 14 -14 9 0 10 4 2 14 -6 7 -12 13 -14 13 -1
0 -2 -6 -2 -13z"/>
<path d="M4924 1472 c3 -6 -3 -12 -16 -15 -20 -4 -19 -4 5 -6 28 -1 36 12 15
25 -6 4 -8 3 -4 -4z"/>
<path d="M5030 1471 c0 -6 4 -13 10 -16 6 -3 7 1 4 9 -7 18 -14 21 -14 7z"/>
<path d="M5266 1467 c3 -10 9 -15 12 -12 3 3 0 11 -7 18 -10 9 -11 8 -5 -6z"/>
<path d="M5436 1468 c3 -4 16 -7 29 -6 30 3 23 11 -9 13 -14 0 -22 -3 -20 -7z"/>
<path d="M4988 1453 c7 -3 16 -2 19 1 4 3 -2 6 -13 5 -11 0 -14 -3 -6 -6z"/>
<path d="M5180 1450 c0 -5 5 -10 11 -10 5 0 7 5 4 10 -3 6 -8 10 -11 10 -2 0
-4 -4 -4 -10z"/>
</g>
</svg>
