<svg width="32" height="32" viewBox="0 0 32 32" xmlns="http://www.w3.org/2000/svg"><g fill="none" fill-rule="evenodd"><circle fill="#FF007A" fill-rule="nonzero" cx="16" cy="16" r="16"/><g fill="#FFF"><path d="M12.261 5.767c-.285-.044-.297-.05-.163-.07.257-.04.865.015 1.284.114.977.233 1.866.828 2.816 1.885l.252.28.36-.057c1.52-.245 3.067-.05 4.36.547.356.164.917.491.987.576.023.026.064.199.091.383.096.637.048 1.125-.146 1.49-.106.198-.112.26-.041.43a.416.416 0 00.372.236c.322 0 .668-.52.828-1.243l.064-.287.126.143c.692.784 1.235 1.853 1.328 2.613l.025.199-.117-.18c-.2-.31-.4-.522-.658-.693-.464-.307-.955-.411-2.255-.48-1.174-.062-1.839-.162-2.497-.377-1.121-.365-1.686-.852-3.018-2.599-.591-.776-.957-1.205-1.32-1.55-.827-.786-1.639-1.198-2.678-1.36z" fill-rule="nonzero"/><path d="M22.422 7.5c.03-.52.1-.863.242-1.176.056-.124.109-.226.117-.226a.773.773 0 01-.055.204c-.103.304-.12.72-.049 1.203.09.614.142.702.79 1.365.305.311.659.703.787.872l.233.306-.233-.219c-.285-.267-.941-.79-1.086-.864-.097-.05-.112-.049-.172.01-.055.056-.067.138-.074.529-.012.608-.095 1-.296 1.39-.108.21-.125.166-.027-.073.073-.178.08-.256.08-.845 0-1.184-.141-1.468-.966-1.956a9.046 9.046 0 00-.764-.396 2.916 2.916 0 01-.374-.182c.023-.023.827.211 1.15.336.482.185.561.209.62.186.039-.015.058-.129.077-.464zm-9.607 2.025c-.579-.797-.937-2.02-.86-2.934l.024-.283.132.024c.248.045.675.204.875.326.548.333.786.772 1.027 1.898.071.33.164.703.207.83.068.203.328.678.54.987.152.222.05.327-.286.297-.514-.047-1.21-.527-1.659-1.145zm8.905 5.935c-2.707-1.09-3.66-2.036-3.66-3.632 0-.235.008-.427.017-.427.01 0 .115.077.233.172.549.44 1.164.628 2.865.876 1.001.147 1.565.265 2.085.437 1.652.548 2.674 1.66 2.918 3.174.07.44.029 1.265-.086 1.7-.09.344-.367.963-.44.987-.02.006-.04-.071-.046-.178-.028-.568-.315-1.122-.798-1.537-.549-.471-1.286-.847-3.089-1.572zm-1.9.452a4.808 4.808 0 00-.131-.572l-.07-.206.129.144c.177.2.318.454.436.794.091.259.101.336.1.757 0 .414-.011.5-.095.734a2.32 2.32 0 01-.571.908c-.495.504-1.13.782-2.048.898-.16.02-.624.054-1.033.075-1.03.054-1.707.164-2.316.378a.488.488 0 01-.174.042c-.024-.025.39-.272.733-.437.483-.233.963-.36 2.04-.539.532-.089 1.082-.196 1.221-.239 1.318-.404 1.995-1.446 1.778-2.737z" fill-rule="nonzero"/><path d="M21.06 18.116c-.36-.773-.442-1.52-.245-2.216.021-.074.055-.135.075-.135a.73.73 0 01.189.102c.166.112.498.3 1.383.782 1.105.603 1.735 1.07 2.164 1.602.375.467.607.999.719 1.647.063.367.026 1.25-.068 1.62-.297 1.166-.988 2.082-1.972 2.616a2.53 2.53 0 01-.288.143c-.014 0 .038-.133.117-.297.33-.692.369-1.366.118-2.116-.153-.459-.466-1.02-1.097-1.966-.734-1.1-.914-1.394-1.095-1.782zm-10.167 4.171c1.005-.848 2.254-1.45 3.393-1.635.49-.08 1.308-.048 1.762.068.728.186 1.38.604 1.719 1.101.33.486.473.91.62 1.852.06.372.123.745.142.83.11.488.327.879.595 1.075.425.311 1.158.33 1.878.05a.981.981 0 01.236-.074c.026.026-.336.269-.592.397a2.014 2.014 0 01-.983.238c-.66 0-1.208-.335-1.665-1.02-.09-.135-.292-.538-.45-.897-.482-1.1-.72-1.436-1.28-1.803-.489-.32-1.118-.377-1.591-.145-.622.305-.795 1.1-.35 1.603.177.2.507.373.777.406a.83.83 0 00.939-.83c0-.332-.128-.52-.448-.665-.437-.197-.907.033-.905.444.001.175.077.285.253.365.113.05.115.055.023.036-.401-.084-.495-.567-.172-.888.387-.386 1.188-.216 1.463.31.116.221.129.662.028.928-.225.595-.883.907-1.55.737-.454-.116-.639-.241-1.186-.805-.951-.98-1.32-1.17-2.692-1.384l-.263-.041.3-.253z" fill-rule="nonzero"/><path d="M6.196 3.35l.096.117c3.708 4.54 5.624 6.896 5.746 7.064.2.278.125.527-.219.723-.191.109-.585.219-.781.219-.223 0-.474-.107-.657-.28-.129-.123-.65-.901-1.853-2.768a188.53 188.53 0 00-1.712-2.633c-.049-.046-.048-.045 1.618 2.936 1.046 1.872 1.4 2.533 1.4 2.622 0 .18-.05.274-.272.522-.37.413-.535.877-.655 1.837-.134 1.077-.51 1.837-1.554 3.138-.61.762-.71.902-.865 1.209-.194.386-.247.603-.269 1.091-.023.516.022.85.18 1.343.138.432.282.718.65 1.288.318.493.501.859.501 1.002 0 .114.022.114.515.003 1.179-.266 2.136-.735 2.675-1.309.333-.355.411-.551.414-1.038.001-.318-.01-.385-.096-.568-.14-.298-.395-.546-.957-.93-.737-.504-1.051-.91-1.138-1.467-.072-.457.011-.78.419-1.634.421-.884.526-1.26.597-2.151.045-.576.108-.803.274-.985.172-.19.328-.255.755-.313.696-.095 1.139-.275 1.503-.61.316-.292.448-.573.468-.995l.016-.32-.177-.206c-.254-.296-2.355-2.614-6.304-6.956l-.106-.115-.212.165zM7.91 19.732a.566.566 0 00-.174-.746c-.228-.152-.583-.08-.583.118 0 .06.033.104.108.143.127.065.136.139.037.288-.101.152-.093.286.023.377.186.146.45.065.59-.18zm5.524-7.176c-.327.1-.644.447-.743.81-.06.221-.026.61.064.73.145.194.286.245.666.242.744-.005 1.39-.324 1.466-.723.062-.327-.223-.78-.614-.98-.202-.102-.631-.143-.839-.079zm.87.68c.115-.163.064-.34-.13-.458-.372-.227-.934-.04-.934.312 0 .174.293.365.561.365.18 0 .424-.107.503-.219z"/></g></g></svg>