<!-- by TradingView --><svg width="18" height="18" xmlns="http://www.w3.org/2000/svg"><path fill="#F0F3FA" d="M0 0h18v18H0z"/><path d="M4 4h.854v1.361c.3-.421.607-.729.922-.923.435-.26.891-.39 1.37-.39.325 0 .632.063.923.189.29.126.528.294.713.504.184.207.344.505.48.894.286-.519.645-.912 1.075-1.18.43-.27.893-.406 1.389-.406.463 0 .87.115 1.223.346C13.549 4.783 14 5.5 14 6.5V11h-1V8 6.212c0-.8-.713-1.337-1.446-1.337-.418 0-.801.122-1.15.365a2.109 2.109 0 00-.756.972c-.16.405-.115 1.081-.115 2.03V11H8.5V7.5c0-.798.003-1.394-.1-1.677a1.33 1.33 0 00-.522-.687 1.52 1.52 0 00-.89-.261c-.398 0-.771.12-1.12.359-.344.234-.6.552-.768.954C5 6.5 5 7.173 5 8v3H4V4z" fill="#E31D38"/><rect x="4" y="13" width="4" height="1" rx=".5" fill="#A4DEF9"/><rect x="10" y="13" width="4" height="1" rx=".5" fill="#8ED7F7"/></svg>