<svg xmlns="http://www.w3.org/2000/svg" viewBox="0 0 974.66 974.66"><defs><style>.cls-1{isolation:isolate;}.cls-2{fill:#5a8dff;}.cls-3{fill:#fff;}.cls-4,.cls-5{fill:#1b57f6;}.cls-5{mix-blend-mode:multiply;}</style></defs><g class="cls-1"><g id="图层_1" data-name="图层 1"><circle class="cls-2" cx="487.33" cy="484.76" r="473.82"/><circle class="cls-3" cx="487.33" cy="484.76" r="358.99"/><path class="cls-4" d="M487.33,98.08c-213.55,0-386.67,173.12-386.67,386.68S273.78,871.43,487.33,871.43,874,698.31,874,484.76,700.88,98.08,487.33,98.08ZM368.59,297.83a9,9,0,0,1,12.71-.14,287,287,0,0,0,137.53,75,110.56,110.56,0,0,1,51.78,28.2,9,9,0,0,1-12.49,12.93,92.54,92.54,0,0,0-43.3-23.61,304.9,304.9,0,0,1-146.09-79.66A9,9,0,0,1,368.59,297.83Zm216.7,197.36a9,9,0,0,1,17.93,1.3c-1.86,25.6-15.92,49.6-38.58,65.86-18.31,13.13-40.08,19.87-63.28,19.87a130.41,130.41,0,0,1-32.7-4.3,9,9,0,0,1,4.52-17.4c29.91,7.76,58.67,3.23,81-12.78C572.48,534.61,583.82,515.45,585.29,495.19Zm-9.7-47.57a15.39,15.39,0,1,1,12.8,17.6A15.39,15.39,0,0,1,575.59,447.62Zm-244-118.07a9,9,0,0,1,12.71,0,335.48,335.48,0,0,0,163.36,90.53c30.07,6.9,50.7,33.19,48,61.16-1.64,17.07-9.08,30.42-21.52,38.59-8.23,5.41-18.1,8.14-28.9,8.14a76.36,76.36,0,0,1-23.39-3.91,9,9,0,1,1,5.52-17.1c14.54,4.69,27.64,3.93,36.9-2.15,7.73-5.08,12.39-13.82,13.49-25.29,2-20.88-15.76-37.71-34.1-41.92a353.42,353.42,0,0,1-172.1-95.35A9,9,0,0,1,331.59,329.55Zm-30,41.34a9,9,0,0,1,12.71-.23c36.29,35,81.18,62.68,133.43,82.22a9,9,0,0,1-3.15,17.41,8.89,8.89,0,0,1-3.14-.58c-54.58-20.41-101.55-49.38-139.62-86.11A9,9,0,0,1,301.56,370.89ZM452.39,512.8a15.39,15.39,0,1,1-12.8-17.6A15.38,15.38,0,0,1,452.39,512.8ZM278.9,429.48a9,9,0,0,1,12.54-2.07c38.33,27.47,67.76,43.32,105.66,61.43a9,9,0,1,1-7.75,16.21c-38.8-18.53-69-34.79-108.38-63A9,9,0,0,1,278.9,429.48Zm-4.46,60.34A9,9,0,0,1,287,487.67c45.31,32,91.6,55,137.57,68.37a9,9,0,0,1-2.5,17.62,8.76,8.76,0,0,1-2.51-.36c-47.9-13.9-96-37.78-142.94-70.95A9,9,0,0,1,274.44,489.82Zm18.28,73.95a9,9,0,0,1,12.38-2.89c44.19,27.46,93.91,45,123.06,51.75,27.43,6.32,56.78,9,65.69,9,77.91,0,141.29-63.38,141.29-141.29,0-65.78-46.6-123.81-110.81-138L516,340.57l0-.24a257.48,257.48,0,0,1-100.58-53,9,9,0,1,1,11.69-13.66A239.17,239.17,0,0,0,528.3,324.87l8.22,1.9,0,.16c68.06,19,116.62,82.18,116.62,153.46,0,87.82-71.45,159.27-159.27,159.27-9.61,0-40.9-2.87-69.72-9.51-30.5-7-82.46-25.38-128.52-54A9,9,0,0,1,292.72,563.77ZM493.85,688.36l-9-.07c-5.35-.12-10.74-.42-16.1-.9a302.94,302.94,0,0,1-109.22-31.85,9,9,0,1,1,8.2-16,284.85,284.85,0,0,0,102.64,29.94,225.63,225.63,0,0,0,23.34.87l7.29-.11c101.46-3.78,182.84-87.49,182.84-189.86,0-89.16-63.2-167.31-150.26-185.83l-.12,0-.11,0a206.73,206.73,0,0,1-49.14-18.68A9,9,0,0,1,492.69,260,188.85,188.85,0,0,0,537.56,277h0c95.18,20.37,164.23,105.85,164.23,203.35C701.82,595.07,608.53,688.36,493.85,688.36Z"/><path class="cls-5" d="M144.68,484.76c0-206.19,161.39-374.67,364.73-386-7.27-.41-14.58-.64-21.94-.64-213.56,0-386.68,173.12-386.68,386.68S273.91,871.43,487.47,871.43c7.36,0,14.67-.23,21.94-.64C306.07,859.42,144.68,690.94,144.68,484.76Z"/></g></g></svg>