<svg xmlns="http://www.w3.org/2000/svg" xmlns:xlink="http://www.w3.org/1999/xlink" viewBox="0 0 654.27 654.27"><defs><style>.cls-1{fill:#212328;}.cls-2{opacity:0.05;fill:url(#linear-gradient);}.cls-3{opacity:0.1;fill:url(#linear-gradient-2);}.cls-4{opacity:0.3;fill:url(#linear-gradient-3);}.cls-5{opacity:0.5;fill:url(#linear-gradient-4);}.cls-6{fill:url(#linear-gradient-5);}</style><linearGradient id="linear-gradient" x1="217.75" y1="228.96" x2="632.48" y2="352.68" gradientUnits="userSpaceOnUse"><stop offset="0.09" stop-color="#03e1ff"/><stop offset="0.5" stop-color="#00ffa3"/><stop offset="0.93" stop-color="#dc1fff"/></linearGradient><linearGradient id="linear-gradient-2" x1="188.99" y1="243.59" x2="603.79" y2="367.33" xlink:href="#linear-gradient"/><linearGradient id="linear-gradient-3" x1="163.88" y1="243.63" x2="578.56" y2="367.33" xlink:href="#linear-gradient"/><linearGradient id="linear-gradient-4" x1="138.61" y1="247.88" x2="553.41" y2="371.62" xlink:href="#linear-gradient"/><linearGradient id="linear-gradient-5" x1="113.32" y1="247.86" x2="528.18" y2="371.62" xlink:href="#linear-gradient"/></defs><g id="Layer_2" data-name="Layer 2"><g id="Layer_5" data-name="Layer 5"><circle class="cls-1" cx="327.14" cy="327.14" r="327.14"/><path class="cls-2" d="M482.32,235a54.28,54.28,0,0,0,4.12-20.5,8.84,8.84,0,0,0-3.3-7.05,29.48,29.48,0,0,0,1.64-10.66,8.82,8.82,0,0,0-6.82-8.3c1.07-4.7,1.71-7.78,2.24-10.93A8.83,8.83,0,0,0,475,168l3.76-35.43a8.81,8.81,0,0,0-5.6-9.15,8.71,8.71,0,0,0-3.16-.59,8.82,8.82,0,0,0-7.12,3.62q-2.85,3.9-5.44,7.66l-2.05,19.37c4.54-7.53,9.45-14.76,14.61-21.84l-4.6,43.27c1.1-.12,4.75,1.34,6.13,1.19-.81,4.86-2,9.75-4.76,21.69,3.07-.23,5.93-.48,9.22-.73.21,6.54-2.67,11.52-6.16,17.19,2.65.08,4.92,0,7.82.07-.18,9.52-2.6,19-9,25.78l10.67,3.18c-1.53,10.36-7.67,16.46-12.95,24.25l6.86,2c-.89,10.55-8.65,16.51-14.65,24.51,2.21.9,4.26,1.76,6.48,2.67-.5,7.35-6.57,10.9-10.57,15.8.44.09,2.58.7,3,.79a9.69,9.69,0,0,1-.53,2.17,12.35,12.35,0,0,1,2,1.52q.44.2.84.42A49.8,49.8,0,0,1,466,316H466c.11-.52.2-1,.26-1.58a9,9,0,0,0,.06-1.46c3.4-3.6,7.05-8.41,7.54-15.59a8.82,8.82,0,0,0-1.7-5.82c4.58-5.52,9.07-11.95,9.86-21.2a8.84,8.84,0,0,0-2.12-6.51c3.57-5.16,7-11.17,8.14-19.24A8.8,8.8,0,0,0,482.32,235ZM572,318.37h-.47l-.64.05a11.71,11.71,0,0,1,2.88,1.31l2.82-.08A8.79,8.79,0,0,0,572,318.37Zm57.71,4.38h-.23c-5.46.08-10.6.27-15.51.61a11.91,11.91,0,0,1,3.28,8.21V332c4.12-.24,8.24-.37,12.36-.42l-31.36,18.67c.63.67,1.48,3.86,2.27,4.71-3.31,1.71-6.78,3.25-14.32,6.56a11.48,11.48,0,0,1-1.8,2.13l4.26,4.86c-3.9,3.12-8.26,3.89-13.21,4.38a8.29,8.29,0,0,1-.63,1.35c1,1.33,1.86,2.58,2.94,4.11A36.89,36.89,0,0,1,563.39,385a12.06,12.06,0,0,1-3,3.1c-1,.7-2,1.37-2.95,2,.5,1.35,1,2.68,1.5,4.09a28.42,28.42,0,0,1-12.77,3.19,11.94,11.94,0,0,1-5.76,7.28,38.55,38.55,0,0,1-15.9,4.53,12,12,0,0,1-3.91,4.11c-6.74,4.33-13.72,4.83-18.39,4.83h-.42a12,12,0,0,1-3.35,3.27,23.29,23.29,0,0,1-13.07,3.74c-.8,0-1.62,0-2.49-.1a25.56,25.56,0,0,1-10.22,2.89c-2.72.28-5.37.38-7.76.42a11.79,11.79,0,0,1-3.35,3.14c1,.4,1.9.83,2.81,1.32a12,12,0,0,1,2.68,1.95,29.57,29.57,0,0,1,10.93,4,11.86,11.86,0,0,1,4,4c.37.17.75.35,1.11.55l-.41.8.22.54a25.4,25.4,0,0,1,3,1.59A18.79,18.79,0,0,1,496,448.91c-1,1.64-2,3-3,4.6,4.76.55,9.21,1.09,12.89,4.45-1.67,1.39-3.13,2.6-4.82,4a22.26,22.26,0,0,1,13.32,6.67l-3.16,2.62,10,7.36-2.12,2.21a137,137,0,0,1,16.75,15.58l-13.08-4.05a12,12,0,0,1-.4,9.09l10.87,3.37a8.71,8.71,0,0,0,2.61.4,8.81,8.81,0,0,0,6.47-14.79,155.85,155.85,0,0,0-12.3-12,4.89,4.89,0,0,0,0-.54,8.78,8.78,0,0,0-3.54-6.33l-3.24-2.39v-.1a8.82,8.82,0,0,0-2.57-6.64,33.55,33.55,0,0,0-5.92-4.74,8.76,8.76,0,0,0-2.86-6.21A22.74,22.74,0,0,0,504.6,447s0-.05,0-.07a8.76,8.76,0,0,0-3.94-5.49,26.71,26.71,0,0,0-10.82-3.76,8.66,8.66,0,0,0-2.61-2.13,30.5,30.5,0,0,0-12.07-3.35L475,432c-.4-.34-.8-.66-1.21-1a52.57,52.57,0,0,0,7.77-1.18,8.81,8.81,0,0,0,5.93-4.71c3,0,6.05-.1,9.21-.43a22,22,0,0,0,9.07-2.54,5.3,5.3,0,0,0,.71-.45,30.91,30.91,0,0,0,3.26.19,20.22,20.22,0,0,0,11.36-3.24,8.81,8.81,0,0,0,3.26-3.81c.73,0,1.48,0,2.23,0,4.27,0,10.63-.45,16.68-4.33a8.75,8.75,0,0,0,3.55-4.48,36.65,36.65,0,0,0,16.44-4.28,8.79,8.79,0,0,0,4.47-8.86,47.36,47.36,0,0,0,15.19-7.48,8.78,8.78,0,0,0,3.57-5.87,26.32,26.32,0,0,0,7.68-4.24,8.79,8.79,0,0,0,3-9.09c3.09-1.38,5.24-2.4,7.39-3.51a8.82,8.82,0,0,0,4.63-6.32,8.61,8.61,0,0,0,.07-2.53l24.7-14.71a8.24,8.24,0,0,0,1.24-.85,9.07,9.07,0,0,0,1.2-1.2,8.81,8.81,0,0,0-6.7-14.42ZM280.86,241.17c-.22,0-.45,0-.67,0a8.91,8.91,0,0,0-5,1.54l-7.76-6.7a8.8,8.8,0,0,0-5.76-2.14,8.15,8.15,0,0,0-1.2.08,8.51,8.51,0,0,0-2.69.83A245.43,245.43,0,0,0,232.21,218a8.78,8.78,0,0,0-10.63,1.39,8.52,8.52,0,0,0-1.63,2.23q4.7,3,9,6l-1.12-2c2.87,1.67,5.73,3.37,8.55,5.14.34,0,.68,0,1,0a12,12,0,0,1,7.82,2.91l6.13,5.3a12.27,12.27,0,0,1,1.37-.47,11.71,11.71,0,0,1,3.17-.43,11.88,11.88,0,0,1,6.4,1.86,51.61,51.61,0,0,1,10.34,8.45q.31-.11.63-.18a11.77,11.77,0,0,1,5.35-.1,11.64,11.64,0,0,1,2.6-3.08C281,243.66,280.93,242.41,280.86,241.17Z"/><path class="cls-3" d="M458,235a54.28,54.28,0,0,0,4.11-20.5,8.78,8.78,0,0,0-3.3-7.05,29.48,29.48,0,0,0,1.64-10.66,8.8,8.8,0,0,0-6.81-8.3c1.07-4.7,1.71-7.78,2.23-10.93a8.8,8.8,0,0,0-5.22-9.55l.84-7.89h0l2.17-20.43.76-7.11a8.82,8.82,0,0,0-5.6-9.15,8.71,8.71,0,0,0-3.16-.59,8.81,8.81,0,0,0-7.12,3.62q-3.44,4.71-6.51,9.22L430,155.3c4.85-8.18,10.14-16,15.7-23.66l-2.73,25.75-1,9.61-.84,7.91c1.1-.12,4.75,1.34,6.13,1.19-.82,4.86-2,9.75-4.77,21.69,3.07-.23,5.93-.48,9.22-.73.22,6.54-2.67,11.52-6.16,17.19,2.66.08,4.92,0,7.82.07-.18,9.52-2.59,19-9,25.78L455,243.28c-1.52,10.36-7.66,16.46-12.94,24.25l6.85,2c-.89,10.55-8.65,16.51-14.64,24.51,2.21.9,4.26,1.76,6.48,2.67-.5,7.35-6.57,10.9-10.57,15.8.43.09,2.57.7,3,.79a10.94,10.94,0,0,1-.93,3.13,11.28,11.28,0,0,1,2.38,1,10.13,10.13,0,0,1,1.22.78,37.72,37.72,0,0,1,5.88-2.63c.08-.4.15-.8.2-1.22a9,9,0,0,0,.05-1.46c3.41-3.6,7.06-8.41,7.55-15.59a8.82,8.82,0,0,0-1.71-5.82c4.58-5.52,9.08-11.95,9.86-21.2a8.75,8.75,0,0,0-2.12-6.51c3.57-5.16,7-11.17,8.15-19.24A8.81,8.81,0,0,0,458,235ZM403.88,504.91a12.55,12.55,0,0,1-1.93-.15l-.59-.11a8.7,8.7,0,0,0,2.78.45,8.87,8.87,0,0,0,3.84-.88l.21-.11A12,12,0,0,1,403.88,504.91Zm-127.76-254a8.62,8.62,0,0,0-2.13.26,8.43,8.43,0,0,0-1.7.62c-.18.09-.37.18-.54.28a47.24,47.24,0,0,0-10.33-9l-.84-.55a8.76,8.76,0,0,0-7-1,7.09,7.09,0,0,0-1,.35h0a8.69,8.69,0,0,0-1.62.87l-7.76-6.7a8.82,8.82,0,0,0-5.76-2.14,8.06,8.06,0,0,0-1.2.08,8.65,8.65,0,0,0-2.7.83l-.71-.54c-4.28-3.21-8.82-6.35-13.73-9.48-3.51-2.24-7.21-4.49-11.14-6.76A8.81,8.81,0,0,0,195.42,222c3.44,2.19,6.69,4.38,9.79,6.59h0c1.19.85,2.37,1.7,3.52,2.56a11.87,11.87,0,0,1,1.77-.38,10.08,10.08,0,0,1,1.44-.11h.19a12,12,0,0,1,7.82,2.91l4.53,3.91,1.6,1.39a13.18,13.18,0,0,1,1.38-.47,11.71,11.71,0,0,1,3.17-.43,11.92,11.92,0,0,1,4.9,1h0a12.66,12.66,0,0,1,1.49.81,51.83,51.83,0,0,1,10.33,8.45q.31-.11.63-.18a11.93,11.93,0,0,1,9.74,1.79,35.38,35.38,0,0,1,9.94,10.56,12.22,12.22,0,0,1,1.35-.08h.09A11.91,11.91,0,0,1,275,262c.18-.37.37-.74.56-1.11a47.65,47.65,0,0,1,.74-5.62h0c.28-1.4.62-2.81,1.05-4.25A8.11,8.11,0,0,0,276.12,250.92Zm333.14,72.8a8.7,8.7,0,0,0-3.91-1h-.22c-2.73,0-5.38.11-8,.21-2.88.11-5.67.26-8.39.46a11.91,11.91,0,0,1,3.23,8.15c0,.15,0,.31,0,.47q6.63-.41,13.27-.47l-3,1.75-28.42,16.92c.63.67,1.49,3.86,2.28,4.71-3.49,1.81-7.18,3.43-15.63,7.12a9.56,9.56,0,0,1-.91,1.09l4.67,5.34c-4.14,3.32-8.8,4-14.14,4.47-.07.18-.14.35-.22.52,1.15,1.62,2.19,3,3.47,4.85A36.21,36.21,0,0,1,538,385.12a11.91,11.91,0,0,1-2.87,2.93c-.73.53-1.47,1-2.22,1.52l1.68,4.56c-4.47,2.47-9,3.06-13.69,3.23a11.92,11.92,0,0,1-5.75,7.24,38.51,38.51,0,0,1-15.89,4.53,12.11,12.11,0,0,1-3.91,4.11,28.57,28.57,0,0,1-6.5,3.09h0a34.74,34.74,0,0,1-9.7,1.69c-.77,0-1.5.05-2.18.05h-.42a12.17,12.17,0,0,1-3.36,3.27c-.57.37-1.16.72-1.75,1a23.5,23.5,0,0,1-11.32,2.71c-.7,0-1.42,0-2.18-.07l-.3,0c-.53.3-1.05.57-1.57.8a27.71,27.71,0,0,1-8.66,2.09c-2.72.28-5.36.38-7.75.42a12.07,12.07,0,0,1-1.9,2.07,11.9,11.9,0,0,1-1.46,1.07c1,.4,1.9.83,2.81,1.32a11.8,11.8,0,0,1,2.68,1.95,29.69,29.69,0,0,1,10.94,4,12,12,0,0,1,3.64,3.51h0a18.45,18.45,0,0,1,2.33,1c-.29.54-.54,1-.78,1.49a23.75,23.75,0,0,1,2.67,1.46h0a19.12,19.12,0,0,1,11.06,2.66c-1,1.64-2,3-3,4.6,4.75.55,9.21,1.09,12.89,4.45l-4.83,4a22.26,22.26,0,0,1,13.32,6.67l-3.16,2.62,10,7.36c-1,1.05-1.6,1.68-2.12,2.21,3.18,2.46,6.17,5.05,9,7.76h0c2.67,2.52,5.23,5.13,7.71,7.82l-14.09-4.37a12,12,0,0,1,.05,8.62c-.07.19-.15.37-.23.55l11.67,3.61a8.64,8.64,0,0,0,2.6.4,8.79,8.79,0,0,0,7.45-4.11c.13-.2.24-.4.35-.6a8.82,8.82,0,0,0-.81-9.47c-.17-.22-.34-.41-.52-.61a155.81,155.81,0,0,0-12.29-12c0-.18,0-.36,0-.54a8.85,8.85,0,0,0-3.54-6.33l-3.25-2.39a.31.31,0,0,0,0-.1,8.82,8.82,0,0,0-2.57-6.64,33.92,33.92,0,0,0-5.92-4.74,8.84,8.84,0,0,0-2.86-6.21,22.85,22.85,0,0,0-7.25-4.48.19.19,0,0,1,0-.07,8.8,8.8,0,0,0-3.94-5.49l-.55-.33a26.36,26.36,0,0,0-7.12-2.86h0a31.65,31.65,0,0,0-3.14-.57,8.75,8.75,0,0,0-1.05-1.06h0a9,9,0,0,0-1.57-1.07,30.5,30.5,0,0,0-12.06-3.35l-.19-.17c-.39-.34-.8-.66-1.2-1a52.43,52.43,0,0,0,7.76-1.18,8.82,8.82,0,0,0,5.94-4.71c3,0,6.05-.1,9.21-.43a22,22,0,0,0,9.07-2.54,5.2,5.2,0,0,0,.7-.45,30.94,30.94,0,0,0,3.27.19,20.21,20.21,0,0,0,11.35-3.24,8.69,8.69,0,0,0,3.09-3.46h0c.06-.12.12-.23.17-.35l.69,0h0l1.53,0c4.27,0,10.64-.45,16.69-4.33a8.8,8.8,0,0,0,3.55-4.48l1.18-.08h0a35.84,35.84,0,0,0,14.47-3.79l.77-.41a8.81,8.81,0,0,0,3.91-4.41,9,9,0,0,0,.56-4.45,45.5,45.5,0,0,0,13-6c.74-.48,1.48-1,2.21-1.52l0,0h0a8.82,8.82,0,0,0,3.53-5.84,26.32,26.32,0,0,0,7.68-4.24,8.79,8.79,0,0,0,3-9.09c3.09-1.38,5.23-2.4,7.39-3.51a8.82,8.82,0,0,0,4.63-6.32,9,9,0,0,0,.07-2.53l24.7-14.71a8.78,8.78,0,0,0,1.24-.85,9.72,9.72,0,0,0,1.2-1.2,8.81,8.81,0,0,0,2-5c0-.21,0-.42,0-.62A8.78,8.78,0,0,0,609.26,323.72Zm-61.61-5.35h-.47l-1.38.1a11.65,11.65,0,0,1,2.79,1.31c1.21-.05,2.43-.09,3.67-.12A8.86,8.86,0,0,0,547.65,318.37Zm-21.43.86a8.84,8.84,0,0,0-3.8-.86H522l-.28,0a11.69,11.69,0,0,1,2.82,1.26l-.33.1.47,0,2.39-.07A7.89,7.89,0,0,0,526.22,319.23Z"/><path class="cls-4" d="M432.77,235a54.28,54.28,0,0,0,4.12-20.5,8.81,8.81,0,0,0-3.3-7.05,29.48,29.48,0,0,0,1.64-10.66,8.82,8.82,0,0,0-6.82-8.3l.37-1.62c.86-3.82,1.41-6.54,1.87-9.31a8.78,8.78,0,0,0-1.34-6.3,8.27,8.27,0,0,0-.94-1.2,9,9,0,0,0-2.94-2.05l.63-5.89h0l2.2-20.79.72-6.77.21-2a8.81,8.81,0,0,0-15.88-6.12c-1.7,2.34-3.34,4.63-4.9,6.89l-2.05,19.24c4.4-7.21,9.12-14.15,14.07-20.94l-2.1,19.82h0l-.68,6.34-1,9.38-.82,7.72a25.11,25.11,0,0,1,4.36,1,6.14,6.14,0,0,0,1.77.23c-.81,4.86-2,9.75-4.76,21.69l.88-.07h0l8.33-.66c.21,6.54-2.67,11.52-6.16,17.19,2.65.08,4.92,0,7.82.07-.18,9.52-2.6,19-9,25.78l10.67,3.18c-1.53,10.36-7.67,16.46-13,24.25l6.86,2c-.89,10.55-8.65,16.51-14.64,24.51l6.47,2.67c-.5,7.35-6.56,10.9-10.57,15.8.44.09,2.58.7,3,.79a16.94,16.94,0,0,1-2.65,6.33c-1.73,2.9-3.71,5.66-5.72,8.4,1.33-.64,2.69-1.21,4.08-1.72a12,12,0,0,1,4.06-.71,11.32,11.32,0,0,1,1.43.09,43.38,43.38,0,0,1,5.13-4,21,21,0,0,0,2.42-7.31,8,8,0,0,0,.06-1.46c3.41-3.6,7.05-8.41,7.54-15.59a8.76,8.76,0,0,0-1.7-5.82c4.58-5.52,9.07-11.95,9.86-21.2a8.8,8.8,0,0,0-2.12-6.51c3.57-5.16,7-11.17,8.15-19.24A8.81,8.81,0,0,0,432.77,235Zm72,85.93a8.76,8.76,0,0,0-6.19-2.55h-.47l-1.38.1a11.8,11.8,0,0,1,2.87,1.36,8.29,8.29,0,0,1,.68.48,11.12,11.12,0,0,1,1.36,1.2l3.33-.41Zm84,9.53a8.78,8.78,0,0,0-4.6-6.66,8.27,8.27,0,0,0-2.5-.88,8.64,8.64,0,0,0-1.54-.16h-.54c-2.32,0-4.58.08-6.79.17-2.74.09-5.39.23-8,.4a11.95,11.95,0,0,1,3.32,8.24c0,.13,0,.26,0,.39,1.22-.07,2.44-.12,3.66-.17,2.76-.12,5.5-.19,8.26-.22l-1.71,1-1.48.89-28.18,16.77c.63.67,1.48,3.86,2.28,4.71-3.23,1.67-6.6,3.17-13.71,6.29a11.61,11.61,0,0,1-2.21,2.63c1.31,1.51,2.61,3,4.05,4.63-3.78,3-8,3.83-12.74,4.33a11.26,11.26,0,0,1-.84,1.75c.86,1.2,1.69,2.36,2.68,3.76a37.21,37.21,0,0,1-13.82,6.5,12.11,12.11,0,0,1-3.06,3.21c-1.1.79-2.2,1.53-3.31,2.22l1.42,3.86a27.71,27.71,0,0,1-12.33,3.16,11.91,11.91,0,0,1-5.76,7.31,38.51,38.51,0,0,1-15.9,4.53,12,12,0,0,1-3.91,4.11,29.19,29.19,0,0,1-6.46,3.09,35.41,35.41,0,0,1-10.2,1.71l-1.73,0h-.42a12,12,0,0,1-3.35,3.27c-.56.36-1.12.7-1.7,1h0a23.4,23.4,0,0,1-11.37,2.74c-.8,0-1.62,0-2.49-.1l-.14.08a15.29,15.29,0,0,1-1.46.73h0a27.74,27.74,0,0,1-8.62,2.08c-2.72.28-5.37.38-7.76.42a12.27,12.27,0,0,1-1.88,2.06,11.11,11.11,0,0,1-1.47,1.08c1,.4,1.9.83,2.81,1.32A12,12,0,0,1,418,434.7a29.57,29.57,0,0,1,10.93,4,11.84,11.84,0,0,1,4.13,4.31l.5.25c-.07.12-.13.24-.18.34.16.33.3.66.43,1a26.52,26.52,0,0,1,3,1.59,18.65,18.65,0,0,1,9.72,2.68c-1,1.6-1.93,2.91-2.92,4.5a.61.61,0,0,1-.07.1l.12,0c4.71.54,9.13,1.1,12.77,4.43l-4.82,4a22.26,22.26,0,0,1,13.32,6.67l-3.16,2.62,10,7.36-2.12,2.21a116.25,116.25,0,0,1,9.17,7.89l.58.54q3.61,3.48,7,7.15l-12.57-3.89a12.13,12.13,0,0,1,.6,5.11,12.33,12.33,0,0,1-.78,3.18c-.1.25-.21.51-.34.77L482,504.3l1.72.53a8.71,8.71,0,0,0,2.61.4,8.8,8.8,0,0,0,7.45-4.11c.05-.09.11-.18.17-.27l.3-.57a8.82,8.82,0,0,0-.47-8.56,8.65,8.65,0,0,0-.78-1.05,2.2,2.2,0,0,0-.2-.23,155.85,155.85,0,0,0-12.3-12,4.89,4.89,0,0,0,0-.54,8.78,8.78,0,0,0-3.54-6.33l-3.24-2.39v-.1a8.82,8.82,0,0,0-2.57-6.64,33.55,33.55,0,0,0-5.92-4.74,8.76,8.76,0,0,0-2.86-6.21,22.74,22.74,0,0,0-7.25-4.48.19.19,0,0,0,0-.07,8.79,8.79,0,0,0-3.93-5.49l-.75-.45h0a25.85,25.85,0,0,0-5.56-2.37h0a28.73,28.73,0,0,0-4.5-.94,8.35,8.35,0,0,0-1.24-1.21h0a8.29,8.29,0,0,0-1.38-.92,30.41,30.41,0,0,0-12.06-3.35l-.18-.17c-.4-.34-.8-.66-1.21-1a50.37,50.37,0,0,0,7.51-1.13l.26-.05a8.84,8.84,0,0,0,5.93-4.71c3,0,6.05-.1,9.21-.43a22.08,22.08,0,0,0,9.08-2.54,5.92,5.92,0,0,0,.7-.45l.53.05c.87.08,1.79.14,2.73.14q.63,0,1.23,0h0a19.92,19.92,0,0,0,10.12-3.21,8.82,8.82,0,0,0,2.94-3.17c.11-.21.22-.42.32-.64.51,0,1,0,1.56,0H477c4.27,0,10.64-.45,16.69-4.33a8.78,8.78,0,0,0,3.54-4.48l1.55-.1h0a35.49,35.49,0,0,0,14.88-4.17h0a8.79,8.79,0,0,0,4.47-8.86,46,46,0,0,0,13.69-6.44c.5-.33,1-.68,1.5-1l0,0a8.78,8.78,0,0,0,3.53-5.84,26.32,26.32,0,0,0,7.68-4.24,8.85,8.85,0,0,0,3.27-6.09,8.62,8.62,0,0,0-.25-3c3.09-1.38,5.24-2.4,7.4-3.51a8.83,8.83,0,0,0,4.62-6.32,8.61,8.61,0,0,0,.07-2.53l24.71-14.71a8.68,8.68,0,0,0,1.23-.85,8.51,8.51,0,0,0,1.2-1.2,8.84,8.84,0,0,0,2-4.92c0-.23,0-.46,0-.68A8.2,8.2,0,0,0,588.77,330.45ZM275.44,266.3l-.13-.12a8.41,8.41,0,0,0-1.77-1.39,8.71,8.71,0,0,0-4.44-1.24H269a8.73,8.73,0,0,0-2.83.5,33,33,0,0,0-10.18-11.55,8.58,8.58,0,0,0-1.05-.63h0a8.81,8.81,0,0,0-4-1,8.86,8.86,0,0,0-3.24.61h0a9.21,9.21,0,0,0-1.14.55A45.71,45.71,0,0,0,239,245h0c-.7-.52-1.42-1-2.17-1.54-.48-.32-1-.65-1.47-1a8.81,8.81,0,0,0-4.71-1.37,8.92,8.92,0,0,0-2.34.32c-.14,0-.27.08-.41.12a9,9,0,0,0-.86.34,8.6,8.6,0,0,0-1.36.76L217.9,236a8.8,8.8,0,0,0-5.76-2.14,8,8,0,0,0-1.19.08,8.62,8.62,0,0,0-2.31.65l-.39.18c-4.25-3.22-8.74-6.34-13.58-9.46-1-.63-1.95-1.26-2.95-1.88-2.89-1.8-5.9-3.61-9.06-5.44a8.82,8.82,0,0,0-12.14,3.4c3,1.89,5.82,3.76,8.55,5.66,2,1.37,3.92,2.76,5.8,4.15a11.87,11.87,0,0,1,1.77-.38l.22,0a11.12,11.12,0,0,1,1.41-.09,12.07,12.07,0,0,1,7.82,2.91l3.63,3.14,2.5,2.16a13.85,13.85,0,0,1,1.37-.47,11.91,11.91,0,0,1,7.49.38,12,12,0,0,1,2.09,1,51.83,51.83,0,0,1,10.33,8.45q.31-.11.63-.18a11.92,11.92,0,0,1,6.61.23,11.55,11.55,0,0,1,3.12,1.56,34.87,34.87,0,0,1,9.24,9.47c.24.36.48.72.71,1.09a12.22,12.22,0,0,1,1.35-.08h.09a11.93,11.93,0,0,1,4.78,1c.28-.56.57-1.13.87-1.7,5.41,3.77,8.08,9,10.28,14.81a42.74,42.74,0,0,1,1.74,4.08c2.16-2.14,3.92-4.09,6.11-6.26a28.17,28.17,0,0,1,4.66,6.28c.36-.82.76-1.66,1.22-2.49a12.21,12.21,0,0,1,1.28-1.88A66.32,66.32,0,0,1,275.44,266.3ZM384.61,501.13a11.94,11.94,0,0,1-4.34.82,11.79,11.79,0,0,1-3.9-.66,27,27,0,0,1-8.46-4.81,1.27,1.27,0,0,0-.12-.1c-.26,0-.53,0-.79,0a.06.06,0,0,1,0,0,3.25,3.25,0,0,1,0,.54,8,8,0,0,0,1.17.38l4.11,4.75a8.81,8.81,0,0,0,13.63-.38C385.45,501.51,385,501.32,384.61,501.13Zm141.61-181.9a8.84,8.84,0,0,0-3.8-.86H522l-.28,0a11.69,11.69,0,0,1,2.82,1.26l-.33.1.47,0,2.39-.07A7.89,7.89,0,0,0,526.22,319.23Z"/><path class="cls-5" d="M408.9,235a54.09,54.09,0,0,0,4.11-20.5,8.78,8.78,0,0,0-3.3-7.05c.14-.4.27-.81.39-1.22a28.94,28.94,0,0,0,1.25-9.44,8.82,8.82,0,0,0-2.91-6.27,8.88,8.88,0,0,0-3.9-2c.1-.45.2-.88.29-1.31.9-4,1.47-6.77,1.95-9.62a8.84,8.84,0,0,0-1.61-6.69,7.3,7.3,0,0,0-.68-.81,8.56,8.56,0,0,0-1.75-1.43,8.84,8.84,0,0,0-1.18-.62l.94-8.87h0l2.15-20.26.67-6.3c0-.12,0-.23,0-.34a8.81,8.81,0,0,0-5.62-8.81,8.71,8.71,0,0,0-3.16-.59,8.81,8.81,0,0,0-7.12,3.62q-3.44,4.71-6.51,9.22l-2.08,19.64c4.85-8.19,10.13-16,15.71-23.67l-1.81,17-.82,7.72-1.16,10.88-.81,7.64a20.56,20.56,0,0,1,4,.89,7.37,7.37,0,0,0,2.09.3c-.81,4.86-2,9.75-4.76,21.69l.42,0c2.63-.2,5.12-.41,7.89-.63l.91-.07c.21,6.54-2.67,11.52-6.17,17.19,2.45.07,4.57,0,7.16.06h.66a52.05,52.05,0,0,1-1,9.68h0a38.61,38.61,0,0,1-1.61,5.66,30.18,30.18,0,0,1-6.31,10.43l10.68,3.18c-1.53,10.36-7.67,16.46-12.95,24.25l6.86,2c-.9,10.55-8.66,16.51-14.65,24.51,2.21.9,4.26,1.76,6.48,2.67-.5,7.35-6.57,10.9-10.57,15.8.43.09,2.57.7,3,.79a16.79,16.79,0,0,1-2.66,6.33c-.32.53-.65,1.07-1,1.59-2.65,4.17-5.74,8.09-8.61,12.14-.57.8-1.05,1.68-1.69,2.72l4.78,2.8c-.53,1.19-1.1,2.36-1.71,3.5a29.91,29.91,0,0,1,5.49-3.08,24.68,24.68,0,0,1,5-1.49,8.76,8.76,0,0,0-1.4-3.81c2.28-3.11,4.63-6.34,6.73-9.86a24.64,24.64,0,0,0,3.84-9.79,9,9,0,0,0,0-1.46c3.41-3.6,7.06-8.41,7.55-15.59a8.77,8.77,0,0,0-1.71-5.82c4.59-5.52,9.08-11.95,9.86-21.2a8.75,8.75,0,0,0-2.12-6.51c3.58-5.16,7-11.17,8.15-19.24A8.8,8.8,0,0,0,408.9,235Zm156,95.37a8.81,8.81,0,0,0-4.79-6.68,8.81,8.81,0,0,0-3.84-.93H556l-.76,0c-2.62,0-5.16.1-7.64.21q-4.08.15-8,.44a11.9,11.9,0,0,1,2.6,4.32l-.18.08.19,0a11.79,11.79,0,0,1,.62,3.78c0,.15,0,.31,0,.47,1.52-.1,3.05-.17,4.57-.24l1.83-.07c2.15-.07,4.29-.13,6.43-.16h.44l-1.47.87-1.36.81h0l-2.35,1.4h0l-1.82,1.09-24.34,14.49c.63.67,1.49,3.86,2.28,4.71-3.49,1.81-7.17,3.43-15.62,7.12a10.81,10.81,0,0,1-.92,1.09l4.67,5.34c-4.14,3.32-8.8,4-14.14,4.47a4.77,4.77,0,0,1-.22.52c1.15,1.62,2.19,3,3.47,4.85a36.16,36.16,0,0,1-15.37,6.78,11.74,11.74,0,0,1-2.87,2.93c-.73.53-1.47,1-2.21,1.52.55,1.51,1.1,3,1.67,4.56-4.47,2.47-9,3.06-13.69,3.23a11.93,11.93,0,0,1-5.74,7.24,38.55,38.55,0,0,1-15.9,4.53,12,12,0,0,1-3.91,4.11,29.25,29.25,0,0,1-6.47,3.09A35.3,35.3,0,0,1,429.63,418l-1.73,0h-.42a11.9,11.9,0,0,1-3.36,3.27c-.56.36-1.12.7-1.69,1h0a23.34,23.34,0,0,1-11.36,2.74c-.8,0-1.62,0-2.49-.1l-.14.08c-.49.27-1,.52-1.46.73h0a27.67,27.67,0,0,1-8.62,2.08c-2.72.28-5.36.38-7.75.42a11.92,11.92,0,0,1-1.89,2.06,11.71,11.71,0,0,1-1.46,1.08c1,.4,1.89.83,2.8,1.32a11.8,11.8,0,0,1,2.68,1.95,29.62,29.62,0,0,1,10.94,4,11.77,11.77,0,0,1,3.64,3.52,18.45,18.45,0,0,1,2.33,1l-.18.35-.6,1.14a22.91,22.91,0,0,1,2.67,1.46l.8,0a18.88,18.88,0,0,1,10.26,2.68c-.9,1.46-1.75,2.67-2.64,4.06l-.34.54.88.11c4.42.52,8.56,1.19,12,4.34l-3.16,2.63L427.66,462a24.55,24.55,0,0,1,3.8.82h0a20.69,20.69,0,0,1,3.72,1.51,23.83,23.83,0,0,1,5.8,4.34l-3.15,2.62,9.95,7.36c-1,1.05-1.6,1.68-2.12,2.21q3.45,2.67,6.64,5.54c.95.86,1.89,1.73,2.81,2.61,2.53,2.4,4.95,4.88,7.31,7.43l-14.09-4.37a12.09,12.09,0,0,1,.14,8.36l-.15.41c-.06.13-.11.27-.18.4l9.23,2.86,2.44.75a8.7,8.7,0,0,0,5.73-.18,8.43,8.43,0,0,0,1.67-.84,8.87,8.87,0,0,0,2.66-2.69c.05-.1.11-.2.17-.3a1,1,0,0,0,.1-.18,8.82,8.82,0,0,0-.6-9.41h0a9.59,9.59,0,0,0-.65-.78,155.81,155.81,0,0,0-12.29-12,4.89,4.89,0,0,0,0-.54,9.11,9.11,0,0,0-.85-3.09,8.76,8.76,0,0,0-2.69-3.24l-3.24-2.39v-.1a8.82,8.82,0,0,0-2.57-6.64,33.92,33.92,0,0,0-5.92-4.74,8.8,8.8,0,0,0-2.86-6.21,22.74,22.74,0,0,0-7.25-4.48.19.19,0,0,1,0-.07,8.8,8.8,0,0,0-3.94-5.49l-.42-.25h0a25.55,25.55,0,0,0-7.9-3.08h0c-.81-.18-1.64-.32-2.48-.43a10.16,10.16,0,0,0-.91-1h0a9.59,9.59,0,0,0-1.71-1.18,30.46,30.46,0,0,0-12.06-3.35c-.07-.06-.12-.12-.19-.17q-.58-.51-1.2-1a51.17,51.17,0,0,0,7.05-1l.72-.15a8.65,8.65,0,0,0,3.68-1.84,8.75,8.75,0,0,0,2.25-2.87c3,0,6.05-.1,9.21-.43a22,22,0,0,0,9.07-2.54,4.64,4.64,0,0,0,.7-.45h.07a29.82,29.82,0,0,0,3.2.18l.89,0a19.94,19.94,0,0,0,10.47-3.22,8.83,8.83,0,0,0,3.18-3.66,1,1,0,0,0,.07-.15h.28c.64,0,1.29,0,1.95,0,4.27,0,10.64-.45,16.69-4.33a8.75,8.75,0,0,0,3.55-4.48l1.06-.06h0a36.33,36.33,0,0,0,14.22-3.62c.38-.19.76-.38,1.15-.6a8.8,8.8,0,0,0,4.47-8.86,45.17,45.17,0,0,0,12.6-5.73c.87-.54,1.73-1.13,2.59-1.75l.06,0a8.81,8.81,0,0,0,3.51-5.83,26.32,26.32,0,0,0,7.68-4.24,8.79,8.79,0,0,0,3-9.09c3.09-1.38,5.23-2.4,7.39-3.51a8.82,8.82,0,0,0,4.63-6.32,8.61,8.61,0,0,0,.07-2.53l24.7-14.71a8.78,8.78,0,0,0,1.24-.85,9.72,9.72,0,0,0,1.2-1.2,8.71,8.71,0,0,0,2-5c0-.2,0-.4,0-.59A8,8,0,0,0,564.89,330.36ZM363.82,495.69a22.3,22.3,0,0,1-6.71-3.49,25.39,25.39,0,0,1-2.43-2.05c-.19-.17-.37-.35-.55-.53l-.69-.08c.14.46.26.93.39,1.39s.21.84.31,1.26c.19.74.35,1.47.51,2.21s.26,1.26.38,1.89l-1.1-1.28-2.06-2.37-4.17-4.82c-.17.23-1.09.66-1.31.94-.41-.54-.81-1.1-1.36-1.91l-.35-.51c-.41-.61-.9-1.36-1.53-2.29l-1.49,1.86a5.59,5.59,0,0,1-1.45-2,12,12,0,0,1-.22,3.33c.58,2.16,1.1,4.4,1.57,6.84a11.4,11.4,0,0,1,.21,2.17l-.12,0,.12.08a9,9,0,0,0,2.49,1.05l1.85,2.14,2.27,2.61a8.8,8.8,0,0,0,15.14-3.42A8.55,8.55,0,0,0,363.82,495.69Zm-61.5-6.4a12,12,0,0,1-4.52-3.42l-.27-.35c-1.58,1.35-2.67,2.16-2.67,2.16.6-1.07,1.19-2.22,1.77-3.43a18.61,18.61,0,0,1-1.55-2.89l-.61-.61a16.51,16.51,0,0,1-1.78-2.29c-1.65,4.13-2.85,6.11-4.08,7.6-.81,1-1.63,1.91-2.47,2.8a8.69,8.69,0,0,0,2.91,5.43,8.8,8.8,0,0,0,11.06.47c.13-.1,1.82-1.36,4.1-3.36A24.64,24.64,0,0,1,302.32,489.29Zm-33.6-176.43c-.33-4.54-.47-6.42-.24-8.46a13.1,13.1,0,0,1,3.14-7.24c-.11-1-.22-1.94-.29-2.94a39.92,39.92,0,0,0-5.8-8.86,8.72,8.72,0,0,0-4.62-2.8,38.32,38.32,0,0,0-9.47-16.38,8.75,8.75,0,0,0-2.85-1.94h0a8.93,8.93,0,0,0-3.36-.69h-.07a7.88,7.88,0,0,0-1.09.07l-.28,0a8.18,8.18,0,0,0-1.55.39,33.07,33.07,0,0,0-8.3-10.13c-.59-.49-1.22-1-1.88-1.42a8.77,8.77,0,0,0-5-1.58,8.81,8.81,0,0,0-4.13,1l-.25.14c-.45-.53-.91-1.05-1.39-1.55a45.91,45.91,0,0,0-6.93-6.09c-.2-.15-.4-.3-.61-.44h0c-.55-.39-1.12-.78-1.7-1.15l-.53-.34a8.76,8.76,0,0,0-7-1,8,8,0,0,0-1.3.47l-.32.15a9.4,9.4,0,0,0-1,.6l-4.54-3.92L194,236a8.82,8.82,0,0,0-5.76-2.14,8.06,8.06,0,0,0-1.2.08,8.65,8.65,0,0,0-2.7.83l-1.49-1.13h0c-4.17-3.1-8.59-6.12-13.35-9.15-.94-.6-1.9-1.2-2.87-1.8-2.52-1.56-5.13-3.12-7.86-4.7A8.81,8.81,0,0,0,146.32,222c3.44,2.19,6.69,4.38,9.8,6.59,1.19.85,2.37,1.7,3.52,2.56a11.87,11.87,0,0,1,1.77-.38,10.11,10.11,0,0,1,1.45-.11H163a11.79,11.79,0,0,1,5,1.08,11.56,11.56,0,0,1,2.87,1.83l3.63,3.14,2.5,2.16a13.18,13.18,0,0,1,1.38-.47,11.91,11.91,0,0,1,7.49.38,11.93,11.93,0,0,1,2.08,1,51.26,51.26,0,0,1,10.33,8.45c.22-.07.42-.13.63-.18a11.87,11.87,0,0,1,2.9-.36l.65,0a11.76,11.76,0,0,1,6.19,2.13,35,35,0,0,1,9.52,9.91c.15.21.28.43.42.65a12.26,12.26,0,0,1,1.36-.08H220a11.85,11.85,0,0,1,5.85,1.59c.37-.74.75-1.48,1.15-2.25,5.41,3.76,8.08,9,10.27,14.79.53,1.41,1,2.84,1.55,4.29,2.25-2.22,4.05-4.22,6.31-6.45a27.92,27.92,0,0,1,3.5,4.35,32.45,32.45,0,0,1,4.26,10c.28,1.11.51,2.23.7,3.37.28,1.65.47,3.31.59,5l4.66-4c5.84,6.76,7.71,15,9.37,23.34.2-.18.38-.34.57-.49l-.09-1.08Zm-4,155.65a18,18,0,0,1-2.89,1.87,17.26,17.26,0,0,1-3,1.2c-.26.08-.51.15-.77.21s-.56.13-.84.18c-.37.24-.75.48-1.13.69l.48,0a9,9,0,0,0,2.45-.35l.39.13a8.68,8.68,0,0,0,2.68.42,9.67,9.67,0,0,0,1.2-.08c.07-.18.14-.37.22-.55.46-1.2.92-2.47,1.39-3.79Zm240-147.59a8.76,8.76,0,0,0-6.19-2.55h-.47l-1.38.1a11.8,11.8,0,0,1,2.87,1.36,8.29,8.29,0,0,1,.68.48,11.12,11.12,0,0,1,1.36,1.2l3.33-.41Z"/><path class="cls-6" d="M539.67,330.36a8.54,8.54,0,0,0-.24-1.14,7.32,7.32,0,0,0-.25-.75h0a8.8,8.8,0,0,0-4.1-4.68,8.94,8.94,0,0,0-2.75-.93,9.24,9.24,0,0,0-1.3-.11h-.23l-.76,0q-3.24,0-6.34.16c-2.52.09-5,.2-7.36.36-5.6.35-10.9.87-16,1.58a9,9,0,0,0-1.95-2,8.84,8.84,0,0,0-5.32-1.78,9.62,9.62,0,0,0-1.76.17l-2.79.57-7.26,1.48a8.87,8.87,0,0,0-1.7-2.35,9.07,9.07,0,0,0-2.5-1.74,8.83,8.83,0,0,0-3.7-.81h-.46c-1.49.08-2.94.21-4.35.41-.59.07-1.17.16-1.74.26s-1.23.21-1.84.34a44.68,44.68,0,0,0-5.51,1.52l-1,.36a8.48,8.48,0,0,0-1.19-1.56l-.32-.32a8.39,8.39,0,0,0-1.3-1,8.76,8.76,0,0,0-4.75-1.4c-.28,0-.56,0-.85,0-.56.06-1.12.13-1.66.21a29.93,29.93,0,0,0-4,.86,31.5,31.5,0,0,0-3.8,1.34,36.82,36.82,0,0,0-5.1,2.69,8.62,8.62,0,0,0-4.75-2.78h0a8.29,8.29,0,0,0-1.86-.21,9,9,0,0,0-2.46.35,37.14,37.14,0,0,0-9.73,4.42,42.25,42.25,0,0,0-6.54,5.23l-.4-.11a9,9,0,0,0-2-.23,8.74,8.74,0,0,0-3,.53,40,40,0,0,0-9.69,5.1h0a55.21,55.21,0,0,0-7.33,6.3q-.47,0-1-.06h0a9.26,9.26,0,0,0-1.05.07,21.45,21.45,0,0,0-2.2.38,21.69,21.69,0,0,0-4.14,1.41,33.69,33.69,0,0,0-9.24,6.61,9,9,0,0,0-1-.07h-.2a8.88,8.88,0,0,0-1.91.2,11.61,11.61,0,0,0-4.86,2.4c-.88.69-1.89,1.57-3.58,3l-.07.06-.6.53c-2.36,2.11-4.49,4.31-6.56,6.43l-.3.31a16.24,16.24,0,0,0-3.39.53,8.88,8.88,0,0,0-.19-1.77,9.46,9.46,0,0,0-.47-1.51,68.71,68.71,0,0,0,8.93-12.81c.69-1.31,1.34-2.63,1.93-4a8.81,8.81,0,0,0-.72-8.44l1.27-1.73c1.87-2.58,3.75-5.26,5.47-8.13.11-.2.24-.4.36-.61a23.44,23.44,0,0,0,3.47-9.18,8,8,0,0,0,.06-1.46c.88-.94,1.78-1.95,2.63-3.06a22.58,22.58,0,0,0,4.91-12.53,8.76,8.76,0,0,0-1.7-5.82c4.58-5.52,9.08-11.95,9.86-21.2a8.8,8.8,0,0,0-2.12-6.51c3.57-5.16,7-11.17,8.15-19.24a8.81,8.81,0,0,0-5.74-9.58,50.29,50.29,0,0,0,3.74-14.62q.31-2.87.38-5.88a8.81,8.81,0,0,0-3.3-7.05c.2-.59.39-1.2.56-1.81a29,29,0,0,0,1.08-8.85,8.79,8.79,0,0,0-2.75-6.11l-.17-.16a8.82,8.82,0,0,0-3.9-2c.11-.45.21-.88.3-1.31.9-4,1.46-6.77,1.94-9.62a8.8,8.8,0,0,0-1.6-6.69,10.41,10.41,0,0,0-.68-.81,9.13,9.13,0,0,0-1.75-1.43,9,9,0,0,0-1.19-.62l.63-5.89,2.2-20.79.72-6.77.21-2a8.81,8.81,0,0,0-15.88-6.12A289.42,289.42,0,0,0,344,157.89a8.06,8.06,0,0,0-1.39-.11,8.79,8.79,0,0,0-8,5l-5.82,12.32a8.92,8.92,0,0,0-2.85-.47,8.13,8.13,0,0,0-1.3.1,8.78,8.78,0,0,0-6,3.81,54.8,54.8,0,0,0-7.74,16.83,8.74,8.74,0,0,0-3.81-.18,8.82,8.82,0,0,0-6,4.11A38.3,38.3,0,0,0,295.69,218a7.87,7.87,0,0,0-.84,0,8.81,8.81,0,0,0-8.24,5.7A42.57,42.57,0,0,0,284.07,242c.11,1.47.28,2.93.5,4.38a8.7,8.7,0,0,0-2.95,2.68,9.66,9.66,0,0,0-.73,1.3,7.31,7.31,0,0,0-.43,1.13c0,.15-.09.3-.14.45a43.89,43.89,0,0,0-1.68,9.78c-.07,1.1-.09,2.19-.07,3.27a52.82,52.82,0,0,0,.31,5.36c.16,1.65.4,3.3.67,4.92a8.62,8.62,0,0,0-1.87,2.35,26,26,0,0,0-2.13,5h0a29.51,29.51,0,0,0-1.11,10.71c.09,1.7.29,3.32.5,4.87a9.49,9.49,0,0,0-1.35,1.44,10.07,10.07,0,0,0-2,5,40.53,40.53,0,0,0,.2,7.32c0,.18,0,.35,0,.54v0c.3,4.05.91,7.94,1.52,11.71l.18,1.15c-.21.29-.42.59-.62.91a13.73,13.73,0,0,0-2.36,9.07c.2,1.6.43,3.17.7,4.74l-.07-.05c0-.14-.07-.28-.11-.42-.82-3.11-1.67-6.32-2.84-9.58l0-.08c-.92-2.57-1.43-4-2-5.13a10,10,0,0,0-5.43-5.38c-.37-1.22-.8-2.49-1.31-3.77-.17-.43-.35-.87-.54-1.31a23.69,23.69,0,0,0-7.63-9.88,8.48,8.48,0,0,0-1.8-1c-1.79-6.47-4.41-12.65-9.26-18.27a9,9,0,0,0-1.77-1.56,8.76,8.76,0,0,0-2.86-1.24,38.4,38.4,0,0,0-9.46-16.38,8.87,8.87,0,0,0-6.22-2.63h-.3a8.6,8.6,0,0,0-2.68.5,33.86,33.86,0,0,0-6.84-8.87,31.32,31.32,0,0,0-3.34-2.68,9.41,9.41,0,0,0-1.05-.63,9,9,0,0,0-1.29-.53,8.81,8.81,0,0,0-2.7-.42,8.57,8.57,0,0,0-2.13.26,8.42,8.42,0,0,0-1.11.35,10,10,0,0,0-1.14.55,46.12,46.12,0,0,0-8.31-7.64c-.45-.33-.92-.65-1.39-1s-1-.65-1.47-1a8.81,8.81,0,0,0-4.71-1.37,8.92,8.92,0,0,0-2.34.32c-.14,0-.27.08-.41.12a9.92,9.92,0,0,0-1.21.5,9.26,9.26,0,0,0-1,.6L172,238.76,168.81,236a8.84,8.84,0,0,0-5.77-2.14,8,8,0,0,0-1.19.08,8.62,8.62,0,0,0-2.31.65l-.39.18c-4.25-3.22-8.74-6.34-13.58-9.46-1-.63-1.95-1.26-2.95-1.88-2.89-1.8-5.89-3.61-9.06-5.44a8.81,8.81,0,0,0-12,12L136,255.05a9,9,0,0,0-1.18,2.24,8.83,8.83,0,0,0,1,7.78c1.33,2,2.7,4,4.72,6.68a8.67,8.67,0,0,0-1.68,2.49,8.78,8.78,0,0,0-.13,6.91,25.81,25.81,0,0,0,4.63,7.46,8.79,8.79,0,0,0,.23,6.87,47.59,47.59,0,0,0,9.59,13.95,8.82,8.82,0,0,0-.43,9.92,36.69,36.69,0,0,0,12.24,11.76,8.83,8.83,0,0,0,.91,5.65c3.53,6.63,9,10.21,14.4,13a8.81,8.81,0,0,0,1,4.93c2.88,5.47,7.42,8.14,11.26,9.81.12.25.25.49.39.74a22.12,22.12,0,0,0,6.67,6.64c1.91,1.36,3.85,2.56,5.77,3.69.69.41,1.37.81,2.06,1.2a9.38,9.38,0,0,0,0,1.3l0,.16a9.12,9.12,0,0,0,.88,3,21.24,21.24,0,0,0-3.71-1.23c-.4-.09-.8-.17-1.21-.24a19.9,19.9,0,0,0-3.25-.26h-.18a8.58,8.58,0,0,0-3.56.78c-.49-.24-1-.49-1.53-.72a25.41,25.41,0,0,0-5.45-1.74,22.56,22.56,0,0,0-3.29-.42l-.5,0a8.82,8.82,0,0,0-5.85,2.23,8.36,8.36,0,0,0-.67.66,2.8,2.8,0,0,0-.28-.06,33,33,0,0,0-7-.71c-.82,0-1.68,0-2.54.08a8.77,8.77,0,0,0-4.76,1.76,19.88,19.88,0,0,0-2.84-.2,19.27,19.27,0,0,0-2.26.13,8.79,8.79,0,0,0-5.68,3l-.33.4-.18.26c-1.2-.15-2.23-.26-3.29-.35-.25,0-.49,0-.74,0a8.81,8.81,0,0,0-6.54,2.92c-.1.1-.18.2-.27.3h-.57l-16.51-.4H125a8.81,8.81,0,0,0-4.59,16.33,167.34,167.34,0,0,0,16.37,8.89,6.91,6.91,0,0,0,.25.77,8.77,8.77,0,0,0,5.13,5.13l4.36,1.65.09.41a8.81,8.81,0,0,0,4.29,5.69,35.2,35.2,0,0,0,7.67,3.2,8.85,8.85,0,0,0,4.54,5.52,24.22,24.22,0,0,0,8.89,2.46l.2.36a8.81,8.81,0,0,0,5.28,4.21A27.53,27.53,0,0,0,185,443a29,29,0,0,0,4.71-.39,8.76,8.76,0,0,0,3.3,1.48,29.09,29.09,0,0,0,6.21.66c.6,0,1.19,0,1.77-.05a36.38,36.38,0,0,0,5.4-.72,3.17,3.17,0,0,0,.41.21,17.84,17.84,0,0,0,7.68,1.67,26,26,0,0,0,4.45-.42,9.65,9.65,0,0,0,4.86,1.27h0a8.38,8.38,0,0,0-.66,1.17,7.59,7.59,0,0,0-.54,1.44l-.14.09a8.82,8.82,0,0,0-3.36,4.67c-1.82,1.57-3.64,3.31-5.5,5.23A8.81,8.81,0,0,0,220,474.24a9.11,9.11,0,0,0,2.42-.33l6-1.72a8.82,8.82,0,0,0,5.36.14,9,9,0,0,0,2,.49,9.59,9.59,0,0,0,1.07.06,10.13,10.13,0,0,0,1.22-.08,15.36,15.36,0,0,0,1.77-.37l.07,0a8.33,8.33,0,0,0,1.42.12,9.53,9.53,0,0,0,1.67-.16l.94-.2c.62-.15,1.22-.31,1.8-.5.29-.09.58-.19.85-.3a8.8,8.8,0,0,0,2.23.29,8.92,8.92,0,0,0,2.68-.42,16,16,0,0,0,4.53-2.29,7.8,7.8,0,0,0,1.25-.22l.27-.07a13.75,13.75,0,0,0,2.95-1.17,15.11,15.11,0,0,0,2.75-1.89l.49-.1a12.29,12.29,0,0,0,4.66-2.26,13.74,13.74,0,0,0,1.24-1.12c.28-.13.54-.27.79-.41-.08.25-.16.49-.23.73-.29.93-.58,1.83-.87,2.71h0c0,.07-.05.14-.07.21h0c-.84,2.56-1.68,4.94-2.5,7.14l-.49,1.27c-.24.63-.48,1.24-.73,1.84q-.22.56-.45,1.08a64.45,64.45,0,0,1-3.18,6.68,8.81,8.81,0,0,0,12.94,11.37,75.49,75.49,0,0,0,8-7.09c1.09-1.12,2.2-2.34,3.25-3.61s2.24-3.28,3.87-7.47c.12-.29.23-.59.35-.91q.36-.94.75-2c.14-.38.28-.77.42-1.18l.5-1.45c.1.16.22.31.34.47s.38.47.59.71l.17.18c.11.12.23.23.35.35.15.5.32,1,.52,1.52.12.28.24.56.37.84a14.07,14.07,0,0,0,2.39,3.53,9.28,9.28,0,0,0,.92.86c.16.4.33.81.53,1.22a15.63,15.63,0,0,0,1.65,2.73c.12.15.23.31.36.46a8.78,8.78,0,0,0,4,2.79,22.42,22.42,0,0,0,2.25,2.59l.21.21.23.21a9,9,0,0,0,2.16,1.45l.17.07a15,15,0,0,0,1.32,1.33,8.1,8.1,0,0,0,1.67,1.14,8.67,8.67,0,0,0,2.19.83,9.12,9.12,0,0,0,1.94,1.68,8.85,8.85,0,0,0,2.62,1.13l1.85,2.14,2.26,2.61a8.82,8.82,0,0,0,6.66,3,8.91,8.91,0,0,0,3.85-.88,8.81,8.81,0,0,0,4.73-6c0-.17.08-.34.11-.51a8.85,8.85,0,0,0,0-3.12.19.19,0,0,0,0-.08c0-.17-.05-.32-.09-.48-.47-2.42-1-4.69-1.62-6.83,0,0,0,0,0,0a8.81,8.81,0,0,0,0-4.75c0-.14-.08-.28-.12-.42s-.12-.36-.19-.54l-.06-.15,0-.11a8.72,8.72,0,0,0,.16-4.59c-.06-.27-.13-.55-.2-.81-.17-.63-.37-1.24-.58-1.83h.07c.29.31.59.61.89.91.65.66,1.33,1.32,2.05,2l.15.13.25.23a20.62,20.62,0,0,0,2.33,1.8c.35.23.73.46,1.13.67a11.54,11.54,0,0,0,1.7.78,18.2,18.2,0,0,0,2.06,2.2,15.39,15.39,0,0,0,1.8,1.41,14.62,14.62,0,0,0,3.18,1.64,8.85,8.85,0,0,0,.91.31l.55.16a9,9,0,0,0,2.28.3h.33c.46.5.94,1,1.45,1.46a24.39,24.39,0,0,0,2.44,2l.49.34a19.38,19.38,0,0,0,3.28,1.78,18.49,18.49,0,0,0,2.38.83,10.16,10.16,0,0,0,1.07.22,8.87,8.87,0,0,0,2.29,0,27.76,27.76,0,0,0,3.15,2.47,23,23,0,0,0,5.34,2.67,8.84,8.84,0,0,0,7.25-.68,28.7,28.7,0,0,0,2.69,1.24c1,.39,1.95.74,3,1,.49.15,1,.29,1.51.42s.89.22,1.34.32a9.3,9.3,0,0,0,1.87.2,8.2,8.2,0,0,0,1.32-.1,7.6,7.6,0,0,0,1.64-.42,19.22,19.22,0,0,0,4.48,1.32,7.89,7.89,0,0,0,.85.09,5.43,5.43,0,0,0,.57,0,8.83,8.83,0,0,0,5.27-1.74c.86.36,1.64.67,2.43,1l.13.05a9,9,0,0,0,3.11.56h0a8.68,8.68,0,0,0,3.86-.9c.27-.13.54-.29.81-.45l.1-.07.78.25,1.07.33,11,3.39.46.14,1.71.53a8.71,8.71,0,0,0,2.61.4,9,9,0,0,0,2.82-.46,9.28,9.28,0,0,0,2-1,8.84,8.84,0,0,0,2.65-2.69l.18-.3c.1-.17.19-.36.29-.54a8.43,8.43,0,0,0,.53-1.37,8.83,8.83,0,0,0-1.34-7.69h0c-.14-.19-.28-.37-.43-.55l-.21-.23c-2.88-3.12-5.64-5.92-8.38-8.48q-2-1.84-3.91-3.55c0-.18,0-.36,0-.54a8.16,8.16,0,0,0-.5-2.25,8.72,8.72,0,0,0-3-4.08l-3.24-2.39a.31.31,0,0,0,0-.1,8.8,8.8,0,0,0-.65-3.74,9.15,9.15,0,0,0-1-1.76h0a8.57,8.57,0,0,0-.95-1.14,37.06,37.06,0,0,0-2.83-2.54,30.58,30.58,0,0,0-3.09-2.2,8.22,8.22,0,0,0-.44-2.47,7.47,7.47,0,0,0-.6-1.4,8.54,8.54,0,0,0-1.82-2.34A22.63,22.63,0,0,0,406,447a.19.19,0,0,0,0-.07,8.79,8.79,0,0,0-3.93-5.49l-.76-.45a26,26,0,0,0-5.55-2.37,28.85,28.85,0,0,0-4.51-.94,9.17,9.17,0,0,0-2.62-2.13,30.5,30.5,0,0,0-12.07-3.35l-.18-.17c-.39-.34-.8-.66-1.2-1a51.39,51.39,0,0,0,7.05-1l.71-.15a8.85,8.85,0,0,0,5.93-4.71c3,0,6.05-.1,9.21-.43a22.08,22.08,0,0,0,9.08-2.54,5.92,5.92,0,0,0,.7-.45h.07a29.67,29.67,0,0,0,3.2.18l.89,0a19.87,19.87,0,0,0,10.46-3.22,8.82,8.82,0,0,0,2.94-3.17c.12-.21.22-.42.32-.64.52,0,1,0,1.57,0h.66c4.27,0,10.64-.45,16.69-4.33a8.85,8.85,0,0,0,3.55-4.48l1.55-.1a35.49,35.49,0,0,0,14.87-4.17h0a8.82,8.82,0,0,0,4.48-8.86,46.11,46.11,0,0,0,13.68-6.44c.5-.33,1-.68,1.5-1l0,0a8.78,8.78,0,0,0,3.53-5.84,26.19,26.19,0,0,0,7.68-4.24,8.77,8.77,0,0,0,3.27-6.09,8.62,8.62,0,0,0-.25-3c3.09-1.38,5.24-2.4,7.4-3.51a8.83,8.83,0,0,0,4.62-6.32,8.61,8.61,0,0,0,.07-2.53l24.71-14.71a9.39,9.39,0,0,0,1.24-.85,9,9,0,0,0,1.19-1.2,8.7,8.7,0,0,0,2-4.92c0-.23,0-.46,0-.68A9.58,9.58,0,0,0,539.67,330.36Zm-40.1,19.88c.63.67,1.48,3.86,2.28,4.71-3.68,1.9-7.56,3.59-17,7.71L490,368.5c-4.29,3.43-9.12,4-14.69,4.52,1.28,1.82,2.39,3.33,3.79,5.32-6.48,4.67-13.8,7.73-22,7,1.17,3.17,2.14,5.8,3.23,8.77-7.26,4-14.75,3.06-22.55,3.41.65,1.77,1.25,3.42,2.07,5.63-7.06,4.53-15.37,2.47-23.75,2.47.51,1.93,1,3.71,1.53,5.66-5.18,3.36-10.61,1.07-15.92.85.16.34.83,2.08,1,2.42a14.14,14.14,0,0,1-5.58,1.4c-4.65.49-9.36.34-14,.46-.83,0-1.66.14-2.68.24.18,1.54.33,2.85.52,4.61-7.33,1.69-14.6,1.34-22.21,0,.27,1.55.44,2.59.79,4.57-6.16-.21-11.91-.48-17.68-.55-1.27,0,.51,2.36-.77,2.66-3.09.74-7.19-.93-10.31-.69a8.6,8.6,0,0,0-3.32.64c1.19-.11,2.39-.2,3.59-.24,1.67-.06,2.27,1.14,2,2.94.72-.06,1.28-.16,1.84-.17,3.35,0,6.72-.22,10.06,0,1.06.09,2,1.33,2.79,2.39,2.76.16,5.53.14,8.27.48,4.91.6,3.1.37,3.75,2.27.14.39,1.17.57,1.83.61,3.15.19,6.5.29,8.95,2.43l-1.18,2.23c5.19-.13,10.29-.13,15.08,2.43-.61,1.15-1.05,2-1.73,3.29,5-.74,10.11-.51,14.68,2.32-1,1.64-2,3-3,4.6,4.75.55,9.21,1.09,12.88,4.45l-4.82,4a22.26,22.26,0,0,1,13.32,6.67l-3.16,2.62,10,7.36-2.12,2.21a137,137,0,0,1,16.75,15.58L416,489.86c0,.56-1.14,2.24-1.2,2.94-2.35-.89-4.69-1.94-10.38-4.52-.19,1.56-.35,3-.56,4.67-3.28-.54-5.51-2.48-8-4.79-.3,1.32-.54,2.43-.86,3.88-4.74-1-9.09-3.09-12.11-7.08-1,1.82-1.75,3.32-2.64,5-4.75-1.64-7.38-5.4-10.71-8.79l-1.69,3.23c-4.91-1.34-7.36-5.93-10.76-9.71-.67,1-1.27,2-1.94,3-3.62-1-4.79-4.35-6.85-6.84-.09.21-.6,1.22-.69,1.43a8.52,8.52,0,0,1-2.9-2c-2.11-1.9-4-4.08-5.92-6.15-.34-.36-.74-.69-1.19-1.11-.63.7-1.16,1.31-1.87,2.11a33.44,33.44,0,0,1-9-10L325,457.38c-2.41-2.86-4.62-5.56-6.93-8.19-.51-.59-.86,1.19-1.52.73-1.58-1.09-2.5-3.62-3.87-4.93s-1.2-.94-3-1.92a8.53,8.53,0,0,1-2.15-2l-.5,1.68c.27.18.53.35.79.54.44.32.53,1.11.57,1.77,1.14.8,2.33,1.54,3.42,2.42,1.95,1.57,1.23,1,1,2-.05.21.35.56.62.75,1.3.93,2.71,1.86,3.19,3.44l-1.1.64c2.26,1.33,4.45,2.7,5.82,5.07l-1.62.95a10.68,10.68,0,0,1,5.68,4.92c-.87.43-1.63.75-2.5,1.18,1.89,1.5,3.66,2.93,4.34,5.35l-3.14.44a11.23,11.23,0,0,1,3.93,6.42l-2,.28,2.31,5.82-1.5.39a69.35,69.35,0,0,1,3,11.16l-7.34-8.47c-.17.23-1.08.66-1.3.94-.78-1-1.49-2.09-3.25-4.71l-1.49,1.86a7.87,7.87,0,0,1-2.16-4.2c-.48.48-.87.9-1.4,1.43a10,10,0,0,1-3.31-6.27l-2.47,1.45c-1.61-2-1.73-4.29-2.25-6.63l-1.59.93c-1.75-1.89-1.58-4.51-2-7-.56.25-1.07.51-1.63.76-1.3-1.38-.9-3.15-1.11-4.76-.1.06-.59.36-.68.43a4.3,4.3,0,0,1-.73-1.62c-.4-1.38-.61-2.81-.9-4.22-.05-.25-.13-.49-.21-.79l-1.37.4a16.83,16.83,0,0,1-1.2-6.71l-1.34.48c-.27-1.87-.49-3.62-.79-5.36,0-.13-.1-.14-.2-.12-4,14.12-9.25,31.43-11.69,34.39a63.08,63.08,0,0,1-9.73,9.22c6.51-11.68,12.24-32.67,15.85-48a1.76,1.76,0,0,1-.39.26c-.92.48-.81.28-1.53.94s-1.21,1.91-2,2.45c-.34.22-.5-.68-.76-.39-1.2,1.3-2.35,2.64-3.6,4.06-.37-.49-.57-.75-.85-1.14a17,17,0,0,1-4.69,5l-.92-1.09c-.24.21-.43.37-.61.55-1,1-2,2.1-3.07,3a4.42,4.42,0,0,1-1.49,1c0-.1-.29-.62-.33-.73-1.07,1.23-1.7,2.93-3.55,3.38-.32-.53-.61-1-.94-1.54-1.76,1.87-3.05,4.16-5.55,4.79-.32-.65-.57-1.14-.82-1.66-1.73,1.67-3.1,3.55-5.52,4.32-.43-.87-.82-1.64-1.27-2.57a10.07,10.07,0,0,1-6.21,3.44c-.15-.74-.25-1.31-.39-2a7.75,7.75,0,0,1-4.1,2.33c-.09-.84-.16-1.58-.23-2.37-2.91,1.24-4.1,1.75-5.3,2.17,0-.36-.55-1.22-.57-1.5L220,465.43a69.88,69.88,0,0,1,8.66-7.68l-1.05-1.14,5.12-3.6-1.56-1.37a11.25,11.25,0,0,1,6.81-3.21l-2.39-2.09c1.9-1.65,4.16-1.88,6.57-2.1-.49-.83-1-1.52-1.45-2.36a10.75,10.75,0,0,1,7.45-1c-.33-.66-.55-1.09-.84-1.68,2.45-1.24,5-1.18,7.65-1.05l-.57-1.14c1.27-1.06,3-1.07,4.55-1.13.34,0,.86-.09.94-.28.35-1-.57-.86,1.92-1.11,1.39-.13,2.79-.1,4.18-.14.4-.53.91-1.15,1.45-1.17a32.45,32.45,0,0,1,3.27,0l-1.76-.53.12-.43c-.27.07-.55.15-.83.21-1.15.28-2.45-.1-3.68-.06a6,6,0,0,0-1.71.49c-2.76,1-5.49,2.21-8.3,3.11-1.7.54-2.67-.51-3-2.44-.73.28-1.27.54-1.84.71-3.45,1-6.87,2.19-10.38,2.91-1.12.23-2.49-.77-3.57-1.64-2.89.64-5.74,1.46-8.66,1.92-5.24.81-3.31.51-4.53-1.25-.25-.36-1.38-.24-2.07-.09-3.3.72-6.77,1.59-9.92.1.17-.83.34-1.58.56-2.65-5.3,1.66-10.57,3.14-16.24,1.9.29-1.36.5-2.37.82-3.89-4.93,2.21-10.28,3.47-15.8,1.89.57-2,1.16-3.64,1.73-5.61-5.06.82-9.82,1.56-14.58-.83l3.8-5.55a23.82,23.82,0,0,1-15.67-3l2.49-3.62c-4.09-1.53-8.13-3.06-12.41-4.68.73-1.37,1.17-2.19,1.54-2.9A145.81,145.81,0,0,1,125,396.13l23.73.59c-.11-.59.52-2.64.38-3.39,2.68.23,5.4.64,12,1.64-.26-1.66-.51-3.2-.79-5,3.55-.41,6.41.95,9.65,2.6-.07-1.45-.16-2.67-.25-4.25,5.19-.32,10.28.54,14.54,3.76.46-2.14.84-3.93,1.26-5.94,5.38.31,9.18,3.42,13.6,5.94.25-1.2.49-2.32.81-3.82,5.45,0,9.31,4,13.92,6.87.39-1.24.72-2.41,1.12-3.65,4-.06,6.21,3.08,9,5.05,0-.25.27-1.44.3-1.68a9.34,9.34,0,0,1,3.56,1.16c2.72,1.35,5.27,3.06,7.89,4.62.46.27,1,.49,1.55.79l1.31-2.72a35.82,35.82,0,0,1,12.23,7.7c.25-.62.44-1.1.69-1.69a12,12,0,0,1-4-2.15c-1-.9,1.75-2.1.63-2.71-5.06-2.75-10.21-5.33-15.68-8.16l2.92-3.6c-7.28-2.56-13.81-5.81-19.37-10.87,1-1.43,1.81-2.5,2.71-3.77-.84-.58-1.51-1.09-2.22-1.51-4-2.4-8.21-4.58-12-7.27a14.29,14.29,0,0,1-4.19-3.95c.31-.22,1.74-1.42,2-1.64-4.73-2.4-10.59-3.05-13.47-8.53,1.4-1.44,2.72-2.75,4.11-4.19-7.31-4.09-15.56-6.36-19.51-13.76l4.57-3.9c-6.65-4.12-13.64-7-18-14l7.1-6.06c-7.5-3.4-12.39-9.65-15.76-16.89,2.2-1.05,3.91-1.83,5.92-2.78-4.61-3.17-8.55-6.05-10.6-11.13l7.3-2.6c-6.2-8.2-8.75-11.57-11-15,1.11-.35,3.41-2.71,4.29-3l-18.22-31.63a223.81,223.81,0,0,1,31.11,21.27l2.78-4.21L178.48,256l3.06-6a36.68,36.68,0,0,1,15.55,19l4.71-9.21c6.73,4.68,9.22,11.65,11.82,19.08,2.26-2.22,4-4.22,6.32-6.45,6.19,6.3,8.43,14.46,9.05,22.74l4.65-4c5.85,6.76,7.71,15,9.37,23.34l3.16-2.7c4.34,3.16,5.7,8.49,7.16,13.48.31,1.05,1,2.65,1.64,2.72,3.29.36,2.26-2.47,5,5.2,1.54,4.3,2.52,8.74,3.77,13.12,2,.83,4.33,1.94,4.84,3.63,1.61,5.27,2.53,10.74,3.69,16.15.19.9.25,1.83.4,3,2.81-1,4.95-.48,5.46,2.22.85,4.46,1.28,9,1.91,13.49a9,9,0,0,0,.59,2.67c.85,1.69,2.32,3.17,2.79,4.92,1.15,4.36,2.22,8.75,3.21,13.14l.18.06c-1.17-5.87-2.22-11.79-3.15-17.67-.34-2.15.54-4.47.65-6.72a10.12,10.12,0,0,0-.64-3.2c-1.48-5.2-3.2-10.35-4.43-15.62-.75-3.19,1.32-4.81,4.88-5.06-.4-1.36-.79-2.4-1-3.47-1.35-6.46-3-12.87-3.78-19.39-.26-2.09,1.77-4.44,3.54-6.29-.76-5.38-1.83-10.72-2.23-16.13-.71-9.69-.45-6.13,3-8.11.69-.4.64-2.51.47-3.8-.82-6.14-2.08-12,1.32-18.23l4.75,1.42c-2.21-10-4.3-19.3-1.28-29.21l7,2.08c-3-10.28-4.74-19.6-1-29.45,3.55,1.34,6.56,2.36,10.09,3.69-.75-9.36-1.4-18.16,3.68-26.51,3.31,2.69,6.19,5,9.57,7.76A43.67,43.67,0,0,1,326,183.48l6.24,5.09,10.39-22,5.08,3.24a266.92,266.92,0,0,1,23.64-38.19l-4.59,43.27c1.1-.12,4.74,1.34,6.12,1.19-.81,4.86-2,9.75-4.76,21.69,3.07-.23,5.93-.48,9.22-.73.21,6.54-2.67,11.52-6.16,17.19,2.65.08,4.92,0,7.82.07-.18,9.52-2.6,19-9,25.78l10.67,3.18c-1.53,10.36-7.67,16.46-12.94,24.25l6.85,2c-.89,10.55-8.65,16.51-14.64,24.51l6.47,2.67c-.5,7.35-6.56,10.9-10.57,15.8.44.09,2.58.7,3,.79a17.12,17.12,0,0,1-2.66,6.33c-2.85,4.78-6.37,9.17-9.6,13.73-.56.8-1,1.68-1.69,2.72l4.78,2.8c-3.62,8.2-9.16,14.89-15.87,21.19l4.92,2.52c-4.6,5.72-9,11-13.15,16.47-.93,1.2,2.61,1.21,2,2.65-1.5,3.47-6,6.2-8,9.35s-1.35,2.68-2.56,6.52a14.71,14.71,0,0,1-2.36,4.1l.15-.15c1.27-1.31,3.27-1.88,4.83-2.93a9,9,0,0,0,1.83-2c2.75-3.62,5.34-7.36,8.26-10.84,1.77-2.11,3.9-1.53,5.86.74.71-1,1.21-1.74,1.82-2.43,3.65-4.15,7.13-8.48,11.11-12.29,1.27-1.22,3.87-1,6-.78,3.24-3.21,6.26-6.62,9.7-9.61,6.15-5.34,3.87-3.37,6.92-2.08.62.27,2-.81,2.76-1.57,3.71-3.64,7.51-7.63,12.83-8.27l1.44,3.91c5.55-6.5,11.18-12.74,19.59-15.77.74,2,1.28,3.48,2.12,5.74,4.59-6.92,10.53-13,19-15.41.88,3.05,1.47,5.68,2.35,8.72,5.91-5.21,11.49-10.07,19.64-10.87-.13,3.58-.25,6.7-.4,10.34a36.68,36.68,0,0,1,22.85-8.95c-.11,2.86-.2,5-.27,6.75l20-4.08c.18,2.4.28,3.83.37,5a224.08,224.08,0,0,1,37.54-3.32Z"/></g></g></svg>