<!-- by TradingView --><svg width="18" height="18" xmlns="http://www.w3.org/2000/svg"><path fill="#FF385C" d="M0 0h18v18H0z"/><path d="M13.084 10.287a6.404 6.404 0 00.046.11c.119.333.155.648.082.963-.1.667-.55 1.244-1.19 1.496a1.875 1.875 0 01-.98.126 2.45 2.45 0 01-.916-.306c-.366-.207-.732-.505-1.135-.937-.403.432-.76.73-1.136.937A2.449 2.449 0 016.701 13c-.256 0-.503-.045-.741-.144a1.92 1.92 0 01-1.19-1.496c-.047-.324-.01-.64.109-.973.046-.117.092-.225.137-.324l.1-.216.111-.243.01-.018A103.3 103.3 0 017.26 5.514l.027-.055c.074-.135.147-.279.22-.423.092-.162.192-.333.33-.495A1.543 1.543 0 019.009 4c.449 0 .87.198 1.163.559.135.15.223.306.308.457l.022.038c.073.144.146.288.22.423l.027.055a93.305 93.305 0 012.024 4.072l.009.009.111.243.1.216c.03.066.06.14.091.215zm-5.01-1.098c.11.487.431 1.063.926 1.676.494-.622.815-1.198.925-1.676a1.41 1.41 0 00.027-.55.866.866 0 00-.146-.378C9.64 8.01 9.339 7.865 9 7.865a.977.977 0 00-.806.396.866.866 0 00-.147.379 1.43 1.43 0 00.028.55zm3.746 3.153c.45-.18.77-.585.834-1.054a1.5 1.5 0 00-.064-.693 1.747 1.747 0 00-.078-.194 5.009 5.009 0 01-.042-.095c-.036-.072-.07-.148-.105-.225a5.15 5.15 0 00-.105-.225v-.01a118.705 118.705 0 00-2.006-4.053l-.027-.054-.11-.207-.11-.208a1.977 1.977 0 00-.256-.396.964.964 0 00-.733-.333.964.964 0 00-.732.333 1.952 1.952 0 00-.257.396 17.32 17.32 0 00-.11.208c-.036.07-.073.14-.11.207l-.027.054a97.836 97.836 0 00-2.015 4.045l-.009.018a18.477 18.477 0 00-.252.545c-.03.068-.058.131-.078.194-.091.252-.11.477-.082.702.064.469.385.874.833 1.054.21.081.449.117.696.09.23-.027.458-.099.696-.234.33-.18.669-.46 1.044-.874-.595-.73-.97-1.405-1.108-2a1.841 1.841 0 01-.046-.765c.037-.226.12-.433.248-.613.284-.396.76-.64 1.29-.64.532 0 1.008.235 1.292.64.128.18.21.387.247.613.028.234.019.486-.046.765-.137.595-.503 1.262-1.108 1.991.385.415.715.694 1.044.874.238.135.467.207.696.234.239.027.477 0 .696-.09z" fill="#fff"/></svg>