<?xml version="1.0" encoding="utf-8"?>
<svg viewBox="0 0 64 64" xmlns="http://www.w3.org/2000/svg">
  <rect x="-0.105" y="-0.005" width="64.165" height="63.993" style="fill: rgb(255, 255, 255);"/>
  <g id="g10" transform="matrix(0.180231, 0, 0, -0.180231, 0.671347, 62.098087)" style="">
    <g id="g12" transform="scale(0.1)">
      <path d="m 1866.23,1308.57 c 39.36,59.24 15.35,121.59 -30.72,174.18 -98.95,116.92 -230.39,152.87 -337.93,174.65 -36.47,-131.38 -143.99,-285 -241.82,-393.53 129.94,-179.07 116.17,-432.21 -20.17,-602.05 -24.14,-22.172 -41.55,-30.711 -69.57,-12.211 -100.47,121.289 -81.68,316.723 31.17,471.251 41.64,57.05 18.98,108.24 -13.17,65.74 -31.91,-35.23 -87.34,-84.18 -119.02,-112.19 -33.05,-119.488 -65.977,-195.578 -193.945,-284.199 -129.746,-72.242 -187.598,-95.352 -310.41,-91.25 -91.993,3.051 -83.184,223.699 326.835,352.089 71.602,22.47 209,131.51 300.68,259.16 31.06,43.25 -98.78,39.4 -146.09,-2.65 -101.562,-90.29 -251.777,-151.04 -396.074,-124.63 -38.555,7.03 -44.336,37.83 -44.336,52.23 0,160.35 314.18,193.71 505.96,193.71 38.61,0 131.95,-17.31 154.74,-25.32 60.51,68.72 129.63,183.52 150.77,268.36 -59.54,12.66 -124.09,15.36 -183.38,15.36 -144.95,0 -197.76,-26.72 -212.15,-93.56 l -7.7,-7.21 c -28.787,54.71 -46.677,108.11 -53.748,171.82 -13.437,120.98 19.2,188.95 503.028,210.74 9.04,83.95 -2.23,198.85 -15.35,268.5 l 69.12,43.55 c 25.72,-85.9 27.89,-210.45 23.05,-304.84 l 207.34,14.14 c 48.01,111.6 144.04,189.32 399.36,190.29 0,0 330.39,1.17 337.93,1.31 289.78,5.96 462.71,135 383.98,338.62 l 23.05,14.04 c 109.45,-156.21 103.79,-342.01 -107.52,-536.62 -53.77,-49.48 -82.58,-97.48 -92.17,-166.94 -7.03,-50.95 -82.54,-174.55 -136.31,-243.65 C 2098.54,999.57 1804.79,489.41 2088.95,213.871 c 69.12,-76.062 272.63,-161.2499 565.41,-9.012 470.99,306.45 782.42,837.501 782.42,1441.311 0,949.04 -769.36,1718.4 -1718.38,1718.4 C 769.375,3364.57 0,2595.16 0,1646.17 0,869.059 515.938,212.359 1223.98,0 c -19.19,499 388.81,940.609 642.25,1308.57" style="fill:#231f20;fill-opacity:1;fill-rule:nonzero;stroke:none" id="path14"/>
      <path d="m 2191.6,2046.21 c -5.51,14.86 -77.89,-12.64 -155.43,-38.46 -77.91,-25.93 -145.49,-45.8 -138.51,-72.09 13.73,-51.85 68.2,-87.3 147.14,-66.29 78.93,21 164.28,129.75 146.8,176.84" style="fill:#231f20;fill-opacity:1;fill-rule:nonzero;stroke:none" id="path16"/>
    </g>
  </g>
</svg>