<?xml version="1.0" encoding="utf-8"?>
<!-- Generator: Adobe Illustrator 26.0.1, SVG Export Plug-In . SVG Version: 6.00 Build 0)  -->
<svg version="1.1" id="Layer_1" xmlns="http://www.w3.org/2000/svg" xmlns:xlink="http://www.w3.org/1999/xlink" x="0px" y="0px"
	 viewBox="0 0 250 250" style="enable-background:new 0 0 250 250;" xml:space="preserve">
<style type="text/css">
	.st0{fill:#050716;}
	.st1{fill:url(#SVGID_1_);}
	.st2{fill:url(#SVGID_00000179631175495720161900000001286836127287700142_);}
</style>
<g>
	<circle class="st0" cx="125" cy="125" r="116.67"/>
	<linearGradient id="SVGID_1_" gradientUnits="userSpaceOnUse" x1="42.4987" y1="42.4987" x2="207.5013" y2="207.5013">
		<stop  offset="0" style="stop-color:#D951FF"/>
		<stop  offset="0.1657" style="stop-color:#BB69FF"/>
		<stop  offset="0.528" style="stop-color:#6DA6FF"/>
		<stop  offset="1" style="stop-color:#00FCFF"/>
	</linearGradient>
	<path class="st1" d="M125,16.33c29.03,0,56.32,11.3,76.84,31.83s31.83,47.82,31.83,76.84s-11.3,56.32-31.83,76.84
		s-47.82,31.83-76.84,31.83s-56.32-11.3-76.84-31.83S16.33,154.03,16.33,125s11.3-56.32,31.83-76.84S95.97,16.33,125,16.33
		 M125,8.33C60.56,8.33,8.33,60.56,8.33,125S60.56,241.67,125,241.67S241.67,189.44,241.67,125S189.44,8.33,125,8.33L125,8.33z"/>
</g>
<g id="Layer_2_00000060747072538251075310000016436559542113207473_">
	
		<linearGradient id="SVGID_00000124152178471222589540000011096323163779725974_" gradientUnits="userSpaceOnUse" x1="58.1425" y1="44.9767" x2="210.0093" y2="196.8434">
		<stop  offset="0" style="stop-color:#D951FF"/>
		<stop  offset="0.1657" style="stop-color:#BB69FF"/>
		<stop  offset="0.528" style="stop-color:#6DA6FF"/>
		<stop  offset="1" style="stop-color:#00FCFF"/>
	</linearGradient>
	<path style="fill:url(#SVGID_00000124152178471222589540000011096323163779725974_);" d="M122.37,211.42
		c-12.82,0-22.9-3.7-29.95-10.99c-9.73-10.07-9.82-23.37-9.82-25.05V145.7c0-3.65,2.95-6.61,6.6-6.61c3.65,0,6.61,2.95,6.61,6.6
		c0,0,0,0.01,0,0.01v29.74c0,0.07,0,0.15,0,0.22c0,0.05-0.1,9.24,6.2,15.69c3.31,3.37,7.92,5.49,13.75,6.4v-41.41
		c0-3.65,2.96-6.61,6.61-6.61c0,0,0.01,0,0.01,0h50.03c-0.78-4.51-2.59-10.46-6.69-14.62c-3.44-3.5-8.02-5.2-13.98-5.2H49.91
		c-3.65,0-6.61-2.96-6.61-6.61c0-0.15,0.01-0.3,0.02-0.46c0.77-7.06,3.16-13.84,6.98-19.82c5.26-8.19,15.36-17.81,34.21-19.48
		c2.17-12.14,9.13-21.92,20.4-28.53c7.96-4.61,17.01-7.02,26.22-6.98h48.53l0,0c3.64-0.01,6.6,2.94,6.61,6.58c0,0.01,0,0.02,0,0.03
		c0,16.27-9.56,29.4-18.45,34.72c-7.65,4.51-16.38,6.85-25.26,6.8l-52,0.37H90.4c-13.22,0-22.87,4.48-28.7,13.25
		c-1.43,2.17-2.59,4.5-3.46,6.94h93.51c9.59,0,17.49,3.14,23.47,9.22c11.32,11.57,11.05,29.82,11.03,30.6
		c-0.08,3.59-3.02,6.46-6.61,6.46h-50.65v41.85C128.95,208.49,126,211.42,122.37,211.42z M172.23,61.25h-41.11
		c-6.85-0.05-13.59,1.73-19.53,5.15c-7,4.1-11.5,9.75-13.47,16.82l44.37-0.31c6.51,0.06,12.91-1.64,18.53-4.93
		C165.58,75.28,170.37,68.93,172.23,61.25z"/>
</g>
</svg>
