<?xml version="1.0" encoding="UTF-8"?>
<svg id="Capa_1" xmlns="http://www.w3.org/2000/svg" version="1.1" viewBox="0 0 256 256">
  <!-- Generator: Adobe Illustrator 30.0.0, SVG Export Plug-In . SVG Version: 2.1.1 Build 123)  -->
  <defs>
    <style>
      .st0 {
        fill: #52d1ef;
      }

      .st1 {
        fill: none;
      }

      .st2 {
        fill: #edd754;
      }

      .st3 {
        fill: #54b1ea;
      }
    </style>
  </defs>
  <rect class="st3" x="0" width="256" height="256"/>
  <g>
    <g>
      <path class="st1" d="M144.11,51.08c.05,0,.06-.07.02-.21h-.15c.04.15.08.22.13.21Z"/>
      <g>
        <path class="st2" d="M144.97,50.49c-.09-.34-.18-.3-.28.12-.07.15-.25.23-.56.25.04.14.03.21-.02.21-.05,0-.09-.06-.13-.2h.15c-.14-.56-.32-.83-.53-.82-1.87,1.68-3.58,3.45-5.13,5.32-1.55,1.87-3.23,3.57-5.03,5.1-.43,1.16-.86,2.25-1.27,3.26-.42,1.02-1.14,1.77-2.16,2.26-.26,1.01-.54,1.94-.84,2.81-.3.87-.77,1.67-1.41,2.42-1.18,4.73-2.83,8.94-4.96,12.6-.14.25-.32.47-.47.72v37.8c.21-.71.43-1.41.59-2.16.93-2.04,1.95-4.05,3.06-6.02,1.11-1.98,2.13-3.98,3.06-6.02.13-.29.14-.57.02-.85-.12-.27-.19-.62-.19-1.04.87-1.89,1.67-3.85,2.4-5.87.73-2.02,1.41-4.04,2.03-6.06.91-.91,1.75-1.81,2.51-2.71.76-.9,1.51-1.93,2.25-3.11.22-1.56.45-2.99.69-4.28.24-1.28.61-2.58,1.11-3.88-.28-.68-.35-1.24-.2-1.68.15-.43.13-.99-.05-1.69.62-2.86,1.05-5.92,1.3-9.18.25-3.26.63-6.31,1.15-9.17.33-.73.59-1.45.77-2.17.18-.72.44-1.44.77-2.17.1-.43.2-.82.32-1.19.11-.36.24-.68.37-.98.13-.29.24-.47.33-.55.08-.08.14-.25.17-.54.2-.01.26-.19.17-.54Z"/>
        <path class="st2" d="M105.51,115.46c-.64.75-1.14,1.88-1.48,3.38-.34,1.5-.78,2.42-1.33,2.73-.39-.68-.63-1.51-.73-2.49-.1-.98-.13-1.82-.11-2.53-.5-1.51-1.22-2.88-2.16-4.08-.29-1.53-.72-2.87-1.29-4.03-.56-1.16-1.2-2.28-1.89-3.36-.7-1.08-1.36-2.2-1.97-3.35-.61-1.15-1.14-2.56-1.57-4.23-.8-.65-1.51-1.59-2.14-2.81-.63-1.23-1.23-2.52-1.8-3.89-.57-1.37-1.12-2.7-1.67-4.01-.55-1.3-1.21-2.42-1.97-3.35-1.25-4-2.55-8.28-3.89-12.84-1.34-4.56-2.86-8.47-4.55-11.74-.02,1.13-.01,2.36.02,3.7.03,1.34.25,2.77.65,4.29-.34.73-.43,1.58-.28,2.56.15.98.32,2.02.5,3.14.71,4.32,1.59,8.84,2.66,13.56,1.07,4.72,2.1,9.37,3.08,13.95-.13.72-.05,1.63.24,2.73.29,1.11.44,2.08.45,2.93.93,3.18,1.54,6.2,1.81,9.07.28,2.87.93,6.1,1.97,9.69-.03.29-.05.6-.07.96-.01.35.03.74.14,1.15.3,1.95.83,3.89,1.59,5.81.76,1.92,1.39,3.85,1.9,5.79.22.83.35,1.67.42,2.51.06.84.2,1.68.42,2.51.29,1.11.7,2.28,1.23,3.51.53,1.23.89,2.41,1.07,3.52.37,1.81.61,3.55.73,5.23.12,1.68.3,3.36.53,5.04.23,1.68.47,3.32.73,4.92.26,1.6.16,3.13-.3,4.57.41,2.37,1.09,4.58,2.04,6.62.95,2.05,1.92,3.96,2.9,5.72.19,1.54.34,3.01.44,4.41.1,1.41.23,2.81.39,4.2.5,1.94.77,3.65.78,5.13.02,1.48.33,3.18.94,5.11.08.7.18,1.61.32,2.73.13,1.12.55,1.79,1.23,2.03.02-1.13.18-2.23.47-3.31.29-1.08.4-2.18.32-3.3-.02-1.69-.21-3.4-.55-5.14-.35-1.74-.32-3.25.07-4.55.39-1.72,1.09-3.14,2.11-4.27,1.01-1.13,1.53-2.68,1.54-4.65-.21-.41-.32-.72-.32-.93,0-.21-.09-.66-.27-1.35.05-3.81.51-7.29,1.36-10.45.23-.86.51-1.67.75-2.52v-64.3c-.65,1.15-1.3,2.3-1.82,3.58-1.42,3.41-2.63,6.98-3.65,10.72Z"/>
      </g>
      <path d="M114.41,141.49c.05,0,.04-.14-.03-.42h-.15c.07.29.13.42.18.42Z"/>
      <path class="st3" d="M115.11,95.04c-.01.35-.15.61-.43.77-1.42,1.6-2.61,3.43-3.7,5.36v64.3c.65-2.27,1.29-4.55,2.01-6.76.99-3.03,1.93-6.05,2.82-9.07.89-3.02,1.38-6.36,1.47-10.04-.9-.22-1.5-.11-1.8.33-.3.44-.68.82-1.12,1.13.07.28.08.42.03.42-.05,0-.11-.13-.18-.41h.15c.28-2.14.81-4.04,1.58-5.72.77-1.67,1.6-3.28,2.51-4.82.91-1.54,1.77-3.15,2.59-4.83.51-1.05.92-2.18,1.27-3.35v-37.8c-2.03,3.39-4.35,6.58-6.99,9.52-.14.29-.21.61-.22.97Z"/>
    </g>
    <g>
      <path class="st0" d="M179.04,217.33h-41.12l-15.59-15.6v-79.38c-.36,1.17-.76,2.31-1.27,3.35-.82,1.68-1.68,3.29-2.59,4.83-.91,1.54-1.75,3.15-2.51,4.82-.77,1.68-1.29,3.58-1.58,5.71.44-.31.81-.69,1.12-1.13.3-.44.9-.55,1.8-.33-.09,3.67-.58,7.02-1.47,10.04-.89,3.02-1.83,6.05-2.82,9.07-.72,2.2-1.37,4.48-2.01,6.76v40.51l21.27,21.28h5.65v14.85h11.34v-14.85h8.81v14.85h11.34v-14.85h9.64v-9.92Z"/>
      <path class="st0" d="M169.41,28.74v-14.85h-11.34v14.85h-8.81v-14.85h-11.34v14.85h-5.65l-21.27,21.28v51.15c1.09-1.94,2.28-3.76,3.7-5.36.27-.16.41-.42.43-.77.01-.35.08-.67.22-.97,2.65-2.94,4.96-6.13,6.99-9.52v-30.28l15.59-15.6h41.12v-9.92h-9.64Z"/>
    </g>
  </g>
</svg>