<?xml version="1.0" standalone="no"?>
<!DOCTYPE svg PUBLIC "-//W3C//DTD SVG 20010904//EN"
 "http://www.w3.org/TR/2001/REC-SVG-20010904/DTD/svg10.dtd">
<svg version="1.0" xmlns="http://www.w3.org/2000/svg"
 width="2060.000000pt" height="2060.000000pt" viewBox="0 0 2060.000000 2060.000000"
 preserveAspectRatio="xMidYMid meet">

<g transform="translate(0.000000,2060.000000) scale(0.100000,-0.100000)"
fill="#000000" stroke="none">
<path d="M0 10295 l0 -10295 10300 0 10300 0 0 10295 0 10295 -10300 0 -10300
0 0 -10295z m10455 6155 c1850 -91 3538 -917 4695 -2295 596 -711 1028 -1556
1249 -2446 124 -500 174 -914 174 -1444 1 -529 -49 -942 -174 -1444 -466
-1873 -1814 -3434 -3642 -4215 -1235 -528 -2621 -669 -3932 -400 -2289 470
-4121 2079 -4813 4225 -103 320 -181 659 -231 1004 -75 521 -75 1143 0 1660
131 902 454 1750 954 2505 737 1111 1823 1966 3107 2444 827 307 1738 449
2613 406z"/>
<path d="M9800 15254 c-25 -2 -101 -8 -170 -14 -1044 -87 -2046 -513 -2856
-1215 -144 -125 -416 -401 -533 -540 -611 -732 -1000 -1600 -1130 -2525 -38
-269 -46 -391 -46 -705 0 -585 76 -1055 260 -1600 312 -932 892 -1747 1680
-2360 422 -329 939 -606 1460 -780 545 -184 1015 -260 1600 -260 314 0 436 8
705 46 954 135 1845 542 2586 1184 144 125 416 401 533 540 611 732 1000 1600
1130 2525 38 269 46 391 46 705 0 585 -76 1055 -260 1600 -312 932 -892 1747
-1680 2360 -60 48 -186 137 -280 200 -691 461 -1444 731 -2290 821 -131 14
-655 27 -755 18z"/>
</g>
</svg>
