<?xml version="1.0" encoding="UTF-8" standalone="no"?>
<!-- Created with Inkscape (http://www.inkscape.org/) -->

<svg
   width="35.188061mm"
   height="35.720188mm"
   viewBox="0 0 35.188061 35.720188"
   version="1.1"
   id="svg1946"
   inkscape:version="1.1.1 (3bf5ae0d25, 2021-09-20, custom)"
   sodipodi:docname="madori logo.svg"
   xmlns:inkscape="http://www.inkscape.org/namespaces/inkscape"
   xmlns:sodipodi="http://sodipodi.sourceforge.net/DTD/sodipodi-0.dtd"
   xmlns="http://www.w3.org/2000/svg"
   xmlns:svg="http://www.w3.org/2000/svg">
  <sodipodi:namedview
     id="namedview1948"
     pagecolor="#ffffff"
     bordercolor="#666666"
     borderopacity="1.0"
     inkscape:pageshadow="2"
     inkscape:pageopacity="0.0"
     inkscape:pagecheckerboard="0"
     inkscape:document-units="mm"
     showgrid="false"
     inkscape:zoom="3.1108586"
     inkscape:cx="111.38404"
     inkscape:cy="175.67497"
     inkscape:window-width="3840"
     inkscape:window-height="2123"
     inkscape:window-x="0"
     inkscape:window-y="0"
     inkscape:window-maximized="1"
     inkscape:current-layer="layer1" />
  <defs
     id="defs1943">
    <linearGradient
       id="SVGID_1_"
       gradientUnits="userSpaceOnUse"
       x1="368.1481"
       y1="990.62543"
       x2="567.24628"
       y2="1003.8253"
       gradientTransform="matrix(0.1614326,0,0,0.1614326,-60.566573,-139.65859)">
      <stop
         offset="0"
         style="stop-color:#D724FD"
         id="stop24" />
      <stop
         offset="1"
         style="stop-color:#15EAAB"
         id="stop26" />
    </linearGradient>
  </defs>
  <g
     inkscape:label="Layer 1"
     inkscape:groupmode="layer"
     id="layer1"
     transform="translate(-2.8693686,-3.9131015)">
    <path
       class="st1"
       d="m 38.057431,16.357939 c 0,-1.585267 -1.284998,-2.87027 -2.87027,-2.87027 -1.370557,0 -2.516728,0.962138 -2.800848,2.247141 l -2.873495,1.357648 -3.68874,-8.6883022 c 0.719981,-0.4181094 1.209128,-1.1881431 1.209128,-2.0792518 0,-1.3318186 -1.079989,-2.4118025 -2.411809,-2.4118025 -1.331821,0 -2.411792,1.0799839 -2.411792,2.4118025 0,0.6166732 0.238919,1.1736156 0.618287,1.5997982 l -5.642071,6.8334408 c -1.523936,-1.808045 -2.947762,-3.509544 -3.990618,-4.7767898 0.07582,-0.279278 0.121017,-0.5714717 0.121017,-0.874964 0,-1.8306476 -1.48356,-3.3142133 -3.314217,-3.3142133 -1.8306384,0 -3.3141994,1.4835657 -3.3141994,3.3142133 0,0.9314638 0.385815,1.7725288 1.005722,2.3746728 -0.0016,0.01135 -0.0036,0.01938 -0.0054,0.03067 -0.335769,1.859703 -0.778094,4.339307 -1.218817,6.818911 -0.442325,2.492521 -0.88303,4.983426 -1.212352,6.846357 -1.389934,0.49237 -2.387588,1.814503 -2.387588,3.372327 0,1.977549 1.603029,3.580576 3.580581,3.580576 1.25433,0 2.355299,-0.645732 2.994566,-1.620784 1.7289454,1.37702 4.5653244,3.695193 7.0933434,5.774445 -0.121017,0.288965 -0.188873,0.605371 -0.188873,0.937923 0,1.331819 1.079989,2.411803 2.411809,2.411803 1.331821,0 2.41181,-1.079984 2.41181,-2.411803 0,-0.137225 -0.01801,-0.271206 -0.04034,-0.403581 l 10.966129,-5.801888 c 0.503663,0.434254 1.157462,0.699003 1.874238,0.699003 1.585254,0 2.87027,-1.285004 2.87027,-2.870271 0,-0.821693 -0.347096,-1.559439 -0.899183,-2.082481 l 0.776473,-7.982842 c 0.802316,-0.506899 1.336647,-1.401235 1.336647,-2.42149 z M 23.638275,8.5236153 c 0.300274,0.1339834 0.631199,0.2130931 0.983122,0.2130931 0.0823,0 0.159915,-0.016208 0.24054,-0.024221 l 3.740388,8.8109906 -5.645294,2.66848 c -0.389056,-0.196947 -0.82814,-0.311564 -1.294687,-0.311564 -0.04358,0 -0.08554,0.0049 -0.129121,0.0065 C 20.362831,18.511489 19.0859,17.008552 17.846085,15.541129 Z M 11.014244,12.896825 c 0.939541,1.142944 2.201939,2.647494 3.88408,4.633114 L 8.8994846,24.796023 C 9.6436876,20.584246 10.455692,16.007632 11.014244,12.896825 Z M 9.0932026,26.142369 15.560191,18.308044 c 0.963744,1.134872 2.055043,2.415034 3.289996,3.861469 -0.03872,0.187262 -0.05817,0.382597 -0.05817,0.581157 0,1.254332 0.805557,2.316559 1.925886,2.708839 l -2.017909,9.358249 c -0.608599,0.01621 -1.159083,0.256677 -1.575584,0.644116 -3.792038,-3.125336 -5.972997,-4.901094 -7.2418594,-5.890675 0.09526,-0.322866 0.1501914,-0.665103 0.1501914,-1.020255 -0.0016,-0.928237 -0.3600094,-1.77253 -0.9395414,-2.408575 z M 31.102917,28.84798 c 0,0.498826 0.1275,0.966981 0.35032,1.375405 L 20.76316,35.87837 c -0.26152,-0.389053 -0.634422,-0.697389 -1.073524,-0.879808 l 2.021133,-9.377619 c 1.349577,-0.0226 2.469923,-0.975054 2.75082,-2.245528 l 5.516155,-2.607136 2.413413,5.685655 c -0.776492,0.513357 -1.28824,1.393163 -1.28824,2.394046 z m 1.52878,-4.403882 -1.743478,-4.106846 2.245519,-1.060612 z"
       id="path29"
       style="fill:url(#SVGID_1_);stroke-width:0.161433" />
  </g>
</svg>
