<!-- by TradingView --><svg width="18" height="18" xmlns="http://www.w3.org/2000/svg"><path fill="#E40001" d="M0 0h18v18H0z"/><path d="M14.62 7.667c-1.036 0-1.828.635-1.828 1.74 0 .934.72 1.593 1.688 1.593.735 0 1.345-.627 1.52-1.023 0-.123-.105-.174-.203-.174-.168.305-.644.538-.84.53-1.17-.051-1.359-.603-1.373-1.18-.022-.629.553-1.173 1.044-1.132.286.026.385.578.636.775.078.051.26.043.379.018.091-.018.336-.083.336-.33 0-.207-.217-.437-.427-.586-.21-.115-.68-.231-.931-.231zM7.489 10.107c0 .513-.113.785-.47.81l.008.083c.598-.008 1.205 0 1.787-.016l.007-.042c-.27 0-.477-.331-.477-.743V8.817c0-.338.355-.554.599-.528.376.04.583.32.583.57v1.356c0 .414-.107.67-.384.694v.075h1.639v-.058c-.244-.034-.415-.29-.415-.679V8.825c0-.305.23-.512.635-.52.356-.009.57.297.57.587v1.289c0 .44-.114.711-.398.745v.058c.598.008 1.088.008 1.68 0v-.042c-.314 0-.42-.24-.42-.743V8.776c0-.471-.221-1.034-.841-1.034-.42 0-.728.24-.903.307-.122.057-.208.123-.238.123-.055 0-.119-.04-.198-.14-.15-.184-.42-.29-.705-.29-.364 0-.727.24-.898.307-.02.008-.149.082-.164.082-.027 0-.142 0-.142-.016 0-.397.007-.448.007-.448h-.235c-.07 0-.193.117-.335.181-.17.084-.513.075-.654.118v.28l.37.083v.546l-.008 1.232z" fill="#fff"/><path d="M5.877 10.943c.633-.032 1.243-.188 1.243-.88 0-.504-.489-.822-1.004-1.075-.332-.155-.813-.383-.813-.562 0-.212.366-.62.718-.294l.61.579.281-.065-.157-.864c-.144.008-.245.017-.77-.082-.647-.105-1.415.262-1.415.946 0 .456.583.774 1.043.986.25.122.696.302.696.578 0 .269-.417.343-.653.343-.403 0-.849-.612-.849-.612h-.264l.143.914c.05-.05.23-.042.267-.025.128.055.595.138.924.113zM4.355 8.173V7.75l-.782.008c-.1 0-.094-.025-.094-.171l.008-.58L3.092 7c-.122.309-.273.513-.358.554L2 7.92v.262l.274.009c.123 0 .172-.009.172.155v1.718c0 .522.251.905.899.921.486.016.782-.229.99-.456l-.058-.22c-.087.065-.157.122-.273.122-.553 0-.538-.489-.538-.921V8.345c0-.172.013-.172.114-.172h.775z" fill="#fff"/></svg>