<?xml version="1.0" encoding="utf-8"?>
<!DOCTYPE svg PUBLIC "-//W3C//DTD SVG 1.1//EN" "http://www.w3.org/Graphics/SVG/1.1/DTD/svg11.dtd">
<svg version="1.1" xmlns="http://www.w3.org/2000/svg" xmlns:xlink="http://www.w3.org/1999/xlink" x="0" y="0" width="800" height="800" viewBox="0 0 800 800" xml:space="preserve">
<g fill="#1A405E">
<path fill-rule="evenodd" clip-rule="evenodd" d="M246.143,117.999c69.642,0,200.562,0,270.198,0c282.889,0,283.087,337.907,0.479,337.907c-34.438,0-84.662,0-119.105,0c-29.592,0-71.077,0-100.664,0c-21.918,0-42.334,1.865-52.255,10.76c-8.267,7.404-9.79,9.734-165.985,166.715c108.146-255.051,114.11-271.914,116.037-275.042c13.044-21.233,20.295-20.709,35.988-20.709c58.937,0,226.573,0,285.505,0c91.857,0,91.857-101.012,0-101.012c-117.352,0-268.421,0-385.778,0c68.125-88.005,68.125-88.005,68.125-88.005C220.886,117.999,230.449,117.999,246.143,117.999z"/>
<path d="M296.728,555.692c0,7.362-2.645,14.464-7.932,21.307c-2.799,3.526-6.975,6.403-12.52,8.632c-5.548,2.231-12.107,3.344-19.674,3.344h-16.486v42.459h-26.595v-109.18h43.081c12.648,0,22.499,3.266,29.55,9.798C293.201,538.584,296.728,546.465,296.728,555.692zM240.116,568.756h16.486c4.043,0,7.232-1.189,9.564-3.576c2.333-2.384,3.5-5.521,3.5-9.41c0-3.889-1.193-7.076-3.577-9.564c-2.386-2.488-5.548-3.732-9.487-3.732h-16.486V568.756z"/>
<path d="M378.843,521.943v20.218h-39.504v23.484h34.839v20.218h-34.839v25.353h39.504v20.218h-66.099v-109.49 H378.843z"/>
<path d="M394.239,542.473v-20.219H480.4v20.219h-29.861v88.961h-26.595v-88.961H394.239z"/>
<path d="M567.337,521.943h26.595v109.49h-26.595l-44.48-68.897v68.897h-26.594v-109.49h26.594l44.48,68.897V521.943z"/>
</g>
</svg>
