<svg width="100" height="100" viewBox="0 0 100 100" fill="none" xmlns="http://www.w3.org/2000/svg">
<path d="M50.0005 -0.000976562C36.7515 0.0378087 24.0562 5.31816 14.6876 14.6867C5.31913 24.0552 0.0387853 36.7505 0 49.9995V49.9995C0.0387853 63.2485 5.31913 75.9438 14.6876 85.3123C24.0562 94.6809 36.7515 99.9612 50.0005 100C63.2495 99.9612 75.9448 94.6809 85.3133 85.3123C94.6818 75.9438 99.9622 63.2485 100.001 49.9995V49.9995C99.9622 36.7505 94.6818 24.0552 85.3133 14.6867C75.9448 5.31816 63.2495 0.0378087 50.0005 -0.000976562V-0.000976562Z" fill="#01943F"/>
<path d="M37.7146 34.4328C37.7484 34.4126 37.7844 34.3963 37.8219 34.3841C38.2192 34.1984 38.6225 34.0225 39.0229 33.8666V25.9664C39.0237 25.2764 38.7505 24.6142 38.2635 24.1253C37.7765 23.6364 37.1153 23.3607 36.4252 23.3589H25.6543V46.0352C28.2845 40.9433 32.5247 36.864 37.7146 34.4328Z" fill="white"/>
<path d="M48.6805 48.2425H51.0824C51.911 48.2429 52.7315 48.08 53.4971 47.7631C54.2627 47.4462 54.9584 46.9815 55.5443 46.3956C56.1302 45.8097 56.5949 45.1141 56.9118 44.3485C57.2287 43.5829 57.3916 42.7623 57.3912 41.9337V35.1789C56.0919 34.9544 50.1546 34.8273 48.7778 34.8273C42.9078 34.8236 37.2551 37.0474 32.961 41.0496C28.6669 45.0518 26.0514 50.5343 25.6426 56.39C25.6038 56.9274 25.584 57.4638 25.584 58.0112C25.584 58.5585 25.6038 59.0949 25.6426 59.6323V74.0469C25.6425 74.3881 25.7096 74.7259 25.8401 75.0411C25.9706 75.3563 26.1619 75.6427 26.4031 75.884C26.6444 76.1252 26.9308 76.3166 27.246 76.447C27.5612 76.5775 27.899 76.6446 28.2402 76.6445H39.0131V57.881C39.0192 55.3217 40.0408 52.8694 41.8536 51.0628C43.6664 49.2561 46.1221 48.2429 48.6815 48.2455L48.6805 48.2425Z" fill="white"/>
<path d="M62.3043 65.5656C62.2705 65.5858 62.2345 65.6022 62.1971 65.6143C61.7997 65.8001 61.3964 65.9759 60.9961 66.1318V74.032C60.9953 74.7221 61.2684 75.3843 61.7554 75.8732C62.2425 76.3621 62.9036 76.6377 63.5937 76.6395H74.3557V53.9642C71.7262 59.0533 67.4897 63.1316 62.3043 65.5656V65.5656Z" fill="white"/>
<path d="M74.355 40.3711V25.9565C74.3552 25.6153 74.2881 25.2775 74.1576 24.9623C74.0271 24.6471 73.8357 24.3607 73.5945 24.1194C73.3533 23.8782 73.0669 23.6868 72.7516 23.5563C72.4364 23.4259 72.0986 23.3588 71.7574 23.3589H60.9855V42.1184C60.98 44.6761 59.9599 47.1272 58.1491 48.9337C56.3384 50.7402 53.8849 51.7545 51.3271 51.7539H48.9152C48.0866 51.7535 47.2661 51.9164 46.5005 52.2333C45.7349 52.5503 45.0393 53.0149 44.4534 53.6008C43.8675 54.1867 43.4028 54.8824 43.0859 55.648C42.769 56.4136 42.6061 57.2341 42.6064 58.0627V64.8175C43.9058 65.042 49.843 65.1692 51.2198 65.1692C51.3758 65.1692 51.5178 65.1692 51.6788 65.1592C54.9084 65.1042 58.0901 64.3687 61.0163 63.0007L61.0749 62.9719C64.8167 61.2229 68.0222 58.5045 70.359 55.0987C72.6958 51.6929 74.0786 47.7239 74.364 43.6034C74.4027 43.066 74.4226 42.5296 74.4226 41.9823C74.4226 41.435 74.3938 40.9075 74.355 40.3711Z" fill="white"/>
</svg>
