<svg width="150" height="38" viewBox="0 0 150 38" fill="none" xmlns="http://www.w3.org/2000/svg">
<path d="M13.6944 21.6597H8.19102V37.9995H5.50334V21.6597H0V18.873H13.6944V21.6597Z" fill="#050032"/>
<path fill-rule="evenodd" clip-rule="evenodd" d="M22.0131 38.0002H28.9243V35.3402H22.0131C20.4773 35.2135 19.1974 34.0735 19.1974 32.5536H30.3321V29.7669C30.3321 26.727 27.9004 24.3203 24.8288 24.3203H22.0131C18.9415 24.3203 16.5098 26.727 16.5098 29.7669V32.5536C16.5098 35.5935 18.9415 38.0002 22.0131 38.0002ZM24.7009 27.107C26.2367 27.107 27.5165 28.247 27.5165 29.767H19.0695C19.1975 28.3736 20.3494 27.107 21.8852 27.107H24.7009Z" fill="#050032"/>
<path d="M35.7073 24.3203V25.4603C36.3472 24.7003 37.2431 24.3203 38.523 24.3203H42.6185C45.4341 24.3203 46.714 25.7136 46.714 28.3736V29.7669H43.8983V28.3736C44.0263 27.7403 43.5144 27.1069 42.8745 26.9803C42.7465 26.9803 42.6185 26.9803 42.4905 26.9803H38.395C36.6032 26.9803 35.5793 27.8669 35.5793 29.6403V38.0002H32.7637V24.3203H35.7073Z" fill="#050032"/>
<path d="M63.2246 38.0002H60.409V28.5003C60.537 27.8669 60.025 27.2336 59.3851 27.1069C59.2571 27.1069 59.1291 27.1069 59.0011 27.1069H57.5933V38.0002H55.0336V27.1069H52.218V38.0002H49.5303V24.3203H60.537C62.3287 24.3203 63.3526 25.207 63.3526 27.1069V38.0002H63.2246Z" fill="#050032"/>
<path fill-rule="evenodd" clip-rule="evenodd" d="M73.847 21.2797C74.103 21.0264 74.231 20.6464 74.231 20.2664C74.231 19.5064 73.719 18.873 72.9511 18.873C72.1832 18.873 71.5433 19.5064 71.5433 20.2664C71.5433 20.6464 71.6713 21.0264 71.9273 21.2797C72.4392 21.7864 73.3351 21.7864 73.847 21.2797ZM68.8555 37.9993H77.0465V35.2126H74.2308V24.3194H68.8555V27.1061H71.6711V35.2126H68.8555V37.9993Z" fill="#050032"/>
<path d="M85.3655 24.3194V24.9527C86.2614 24.4461 87.1573 24.1927 88.1812 24.3194H90.8689C93.9405 24.3194 96.3722 26.726 96.3722 29.766V37.9992H93.6845V29.766C93.6845 28.246 92.4047 27.106 90.8689 27.106H88.0532C86.5174 27.106 85.3655 28.3727 85.2375 29.766V37.9992H82.4219V24.3194H85.3655Z" fill="#050032"/>
<path fill-rule="evenodd" clip-rule="evenodd" d="M103.284 37.9985H112.755V29.8919C112.755 26.852 110.323 24.4453 107.252 24.4453H100.34V27.2319H107.252C108.787 27.2319 110.067 28.3719 110.067 29.8919H103.284C100.596 29.8919 99.1885 31.2852 99.1885 33.9452C99.1885 36.6052 100.596 37.9985 103.284 37.9985ZM101.748 32.5516H110.067V35.3383H101.748V32.5516Z" fill="#050032"/>
<path d="M127.984 37.9995H116.978V35.2129H121.073V21.6597H116.978V18.873H123.889V35.2129H127.984V37.9995Z" fill="#050032"/>
<path d="M135.536 31.2859C135.536 33.1859 137.071 34.7059 138.991 34.7059H142.447C144.367 34.7059 145.902 33.1859 145.902 31.2859C145.902 29.386 144.367 27.866 142.447 27.866H138.991V24.446H142.447C144.367 24.446 145.902 22.926 145.902 21.1527C145.902 20.2661 145.518 19.3794 144.879 18.7461C144.239 18.1127 143.343 17.7327 142.447 17.7327H138.991C137.071 17.7327 135.536 19.2527 135.536 21.1527H132.08C132.08 17.4794 135.152 14.4395 138.863 14.4395H142.319C146.03 14.4395 149.102 17.4794 149.102 21.1527C149.102 23.1794 148.078 24.826 146.158 26.2193C148.078 27.6126 149.102 29.2593 149.102 31.2859C149.102 34.9592 146.03 37.9992 142.319 37.9992H138.863C135.152 37.9992 132.08 34.9592 132.08 31.2859H135.536Z" fill="#050032"/>
<path d="M49.6582 11.1465L65.6563 0L65.7843 8.48657L49.6582 19.6331V11.1465Z" fill="#fdff00"/>
</svg>
