<!-- by TradingView --><svg width="18" height="18" xmlns="http://www.w3.org/2000/svg"><path fill="#324067" d="M0 0h18v18H0z"/><path d="M9.196 8.602l2.707-1.716-1.183-1.59-1.704 3.182c.063.036.123.078.18.124zM9.647 9.253l3.675-.46-1.177-1.583-2.59 1.83c.037.068.067.14.092.213zM9.68 10.038l5.401 1.12-1.489-2.002-3.877.646c-.005.08-.017.16-.036.236z" fill="#fff"/><path d="M15.341 11.533c-1.664-.242-5.282-.773-6.1-.926-.835-.155-1.31-.517-1.31-1.25 0-.387.198-.618.424-.978C9.115 7.17 10.5 5 10.5 5H8.997L3 12h12.688l-.347-.467z" fill="#fff"/></svg>