<svg width="128" height="128" viewBox="0 0 128 128" fill="none" xmlns="http://www.w3.org/2000/svg">
    <ellipse cx="64" cy="64" rx="60.5" ry="60.5" stroke="url(#paint0_linear_917_2237)" stroke-width="7"
        stroke-dasharray="10" />
    <ellipse cx="64" cy="64" rx="50" ry="50" fill="url(#paint0_linear_917_2237)" />
    <path fill-rule="evenodd" clip-rule="evenodd"
        d="M84.0002 45.999C84.0002 44.8945 83.1048 43.999 82.0002 43.999L51.9263 43.999C50.6121 43.999 49.4622 44.1896 48.4766 44.5709C47.4909 44.9814 46.6696 45.5239 46.0125 46.1984C45.328 46.9022 44.8215 47.694 44.493 48.5738C44.1645 49.4829 44.0002 50.4213 44.0002 51.389V55.1534C44.0002 57.8296 46.1696 59.999 48.8458 59.999H72.0002L60.0002 51.999H82.0002C83.1048 51.999 84.0002 51.1036 84.0002 49.999V45.999ZM43.999 82.0005C43.999 83.105 44.8945 84.0005 45.999 84.0005L76.0729 84.0005C77.3871 84.0005 78.537 83.8099 79.5226 83.4286C80.5083 83.0181 81.3296 82.4756 81.9867 81.8011C82.6712 81.0973 83.1777 80.3055 83.5062 79.4257C83.8347 78.5166 83.999 77.5782 83.999 76.6105V72.8461C83.999 70.1699 81.8296 68.0005 79.1535 68.0005H55.999L67.999 76.0005H45.999C44.8945 76.0005 43.999 76.8959 43.999 78.0005V82.0005Z"
        fill="white" />
    <defs>
        <linearGradient id="paint0_linear_917_2237" x1="141.405" y1="-62.8483" x2="-77.4743" y2="125.935"
            gradientUnits="userSpaceOnUse">
            <stop stop-color="#FF0000" />
            <stop offset="1" stop-color="#FFC700" />
        </linearGradient>
    </defs>
</svg>