<svg viewBox="0 0 200 200" xmlns="http://www.w3.org/2000/svg" xml:space="preserve" fill-rule="evenodd" clip-rule="evenodd" stroke-linejoin="round" stroke-miterlimit="2">
  <path d="M200 100c0 55.228-44.772 100-100 100S0 155.228 0 100 44.772 0 100 0s100 44.772 100 100Z" fill-rule="nonzero"/>
  <path d="m164.294 47-64.29 17.001L35.713 47 32 76.618l26.615 67.708L100.008 179l41.383-34.674L168 76.618 164.294 47Zm-13.047 16L153 77.148l-23.311 59.951-14.859 12.582 20.987-67.228-26.824 6.967-4.915 60.095L98.999 163l-5.077-13.485-4.917-60.095-26.824-6.967 20.987 67.228-14.859-12.582L45 77.148 46.753 63l52.246 13.972L151.247 63Z" fill="#ff7b00"/>
</svg>
