<svg width="87" height="87" viewBox="0 0 87 87" fill="none" xmlns="http://www.w3.org/2000/svg">
<path d="M43.295 86.59C67.2062 86.59 86.59 67.2062 86.59 43.295C86.59 19.3838 67.2062 0 43.295 0C19.3838 0 0 19.3838 0 43.295C0 67.2062 19.3838 86.59 43.295 86.59Z" fill="#00A6C4"/>
<path d="M30.9234 47.7247C32.7479 47.7247 34.4261 47.11 35.7726 46.0758L24.6497 34.953C23.6057 36.2897 23.0008 37.9776 23.0008 39.8021C23.0008 44.1635 26.5523 47.7247 30.9234 47.7247Z" fill="white"/>
<path d="M63.9894 39.7924C63.9894 37.9679 63.3748 36.2897 62.3405 34.9432L51.2177 46.0563C52.5544 47.1003 54.2423 47.7052 56.0669 47.7052C60.4379 47.7247 63.9894 44.1635 63.9894 39.7924Z" fill="white"/>
<path d="M69.5899 27.6841L64.6724 32.6016C66.3018 34.5529 67.2775 37.0507 67.2775 39.7826C67.2775 45.9685 62.243 51.003 56.0571 51.003C53.3349 51.003 50.8274 50.0176 48.876 48.398L43.4902 53.7838L38.1044 48.398C36.1531 50.0274 33.6553 51.003 30.9234 51.003C24.7375 51.003 19.703 45.9685 19.703 39.7826C19.703 37.0605 20.6884 34.5529 22.3081 32.6016L17.4004 27.6939C14.6099 32.3089 13 37.7142 13 43.5C13 60.3404 26.6499 74 43.5 74C60.3501 74 74 60.3501 74 43.5C73.9902 37.7044 72.3804 32.3089 69.5899 27.6841Z" fill="white"/>
<path d="M65.5505 22.4447C60.0086 16.6296 52.1641 13 43.4902 13C34.8164 13 26.9718 16.6296 21.4299 22.4447C20.6787 23.2447 19.9664 24.0741 19.2932 24.9424L43.4902 49.159L67.6873 24.9424C67.0336 24.0643 66.3116 23.2447 65.5505 22.4447ZM43.4902 16.9906C50.6323 16.9906 57.2572 19.742 62.243 24.757L43.4902 43.5098L24.7375 24.757C29.7233 19.7322 36.358 16.9906 43.4902 16.9906Z" fill="white"/>
</svg>
