<!-- by TradingView --><svg width="18" height="18" xmlns="http://www.w3.org/2000/svg"><path fill="#0071C5" d="M0 0h18v18H0z"/><path d="M6.387 8.41v1.93H5.77V7.87h1.12c.542 0 .726.386.726.738v1.73H7V8.612c0-.112-.075-.202-.256-.202l-.357.002zm4.111-.061c-.21 0-.374.11-.442.259a.648.648 0 00-.06.268h.95c-.012-.268-.132-.527-.448-.527zm-.501.953c0 .32.196.555.546.555a.689.689 0 00.566-.235l.38.369c-.243.244-.5.392-.95.392-.59 0-1.077-.444-1.077-1.396 0-.813.414-1.156 1.063-1.156.657 0 .965.54.965 1.245v.226H9.997zm-1.14 1.081c-.503 0-.716-.354-.716-.705V7.267h.616v.649h.464v.54h-.464V9.64c0 .143.067.223.214.223h.25v.521h-.364zM5.37 7.532l-.524.001v-.598l.524-.002v.599zm.002 2.838c-.465-.046-.526-.33-.526-.66V7.873h.526v2.496zm7.403-.053c-.464-.046-.543-.331-.543-.66V7.253h.543v3.063zm2.174-3.063c-.564-2.786-5.743-2.916-9.18-.795v.235c3.434-1.79 8.15-1.825 8.594.74.148.85-.366 1.714-1.208 2.222v.665c1.014-.376 2.095-1.575 1.794-3.067zM8.7 12.128C6.33 12.35 3.857 12 3.511 10.12c-.169-.926.247-1.909.8-2.519v-.326c-.994.884-1.534 2.003-1.223 3.326.396 1.695 2.518 2.656 5.755 2.337 1.282-.127 3.146-.437 4.312-1.086v-.921c-1.057.638-2.996 1.059-4.454 1.196z" fill="#fff"/></svg>