<svg xmlns="http://www.w3.org/2000/svg" xmlns:xlink="http://www.w3.org/1999/xlink" viewBox="0 0 128 128"><defs><style>.cls-1{fill:#2e325c;}.cls-2{fill:url(#未命名的渐变_3);}.cls-3{fill:url(#未命名的渐变_3-2);}.cls-4{fill:url(#未命名的渐变_3-3);}</style><linearGradient id="未命名的渐变_3" x1="103.73" y1="866.56" x2="49.87" y2="767.75" gradientTransform="matrix(1, 0, 0, -1, 0, 885.69)" gradientUnits="userSpaceOnUse"><stop offset="0" stop-color="#00ffa3"/><stop offset="1" stop-color="#dc1fff"/></linearGradient><linearGradient id="未命名的渐变_3-2" x1="80.18" y1="879.4" x2="26.32" y2="780.58" xlink:href="#未命名的渐变_3"/><linearGradient id="未命名的渐变_3-3" x1="91.88" y1="873.02" x2="38.02" y2="774.21" xlink:href="#未命名的渐变_3"/></defs><g id="图层_2" data-name="图层 2"><g id="图层_3" data-name="图层 3"><circle class="cls-1" cx="64" cy="64" r="64"/><path class="cls-2" d="M33.22,83.64a2.94,2.94,0,0,1,2.11-.91h72.78a1.57,1.57,0,0,1,1,2.66l-14.37,15a2.94,2.94,0,0,1-2.11.91H19.9a1.57,1.57,0,0,1-1.06-2.66Z"/><path class="cls-3" d="M33.21,27.6a3,3,0,0,1,2.11-.91H108.1a1.57,1.57,0,0,1,1.06,2.66l-14.38,15a2.94,2.94,0,0,1-2.11.91H19.89a1.57,1.57,0,0,1-1.05-2.66Z"/><path class="cls-4" d="M94.79,55.44a2.94,2.94,0,0,0-2.11-.91H19.9a1.57,1.57,0,0,0-1.06,2.66l14.38,15a2.94,2.94,0,0,0,2.11.91h72.78a1.57,1.57,0,0,0,1-2.66Z"/></g></g></svg>