<svg width="600" height="600" viewBox="0 0 600 600" fill="none" xmlns="http://www.w3.org/2000/svg">
<circle cx="300" cy="300" r="300" fill="url(#paint0_linear_226_64)"/>
<path d="M165.163 397.894C170.685 397.894 175.163 393.417 175.163 387.894V224.471C175.163 174.743 206.922 147.58 243.278 147.58C279.634 147.58 311.393 174.743 311.393 224.471V387.894C311.393 393.417 315.87 397.894 321.393 397.894H328.556C334.079 397.894 338.556 393.417 338.556 387.894V224.471C338.556 160.117 294.26 120 243.278 120C192.296 120 148 160.117 148 224.471V387.894C148 393.417 152.477 397.894 158 397.894H165.163Z" fill="white"/>
<path d="M436.173 202.142C430.65 202.142 426.173 206.62 426.173 212.142V375.565C426.173 425.293 394.413 452.456 358.057 452.456C321.701 452.456 289.942 425.293 289.942 375.565V212.142C289.942 206.62 285.465 202.142 279.942 202.142H272.779C267.256 202.142 262.779 206.62 262.779 212.142V375.565C262.779 439.919 307.075 480.036 358.057 480.036C409.039 480.036 453.335 439.919 453.335 375.565V212.142C453.335 206.62 448.858 202.142 443.335 202.142H436.173Z" fill="white"/>
<defs>
<linearGradient id="paint0_linear_226_64" x1="258" y1="-35" x2="263" y2="600" gradientUnits="userSpaceOnUse">
<stop offset="0.0530479" stop-color="#0B2760"/>
<stop offset="0.519414" stop-color="#205BA5"/>
<stop offset="0.972131" stop-color="#22C7F6"/>
</linearGradient>
</defs>
</svg>
