<svg width="1024" height="1024" viewBox="0 0 1024 1024" fill="none" xmlns="http://www.w3.org/2000/svg">
<path d="M736.51 63.3549L730.791 596.104L730.48 624.536L730.157 658.028L728.809 659.039L594.739 591.669L594.977 562.634L597.245 340.681L736.51 63.3549Z" fill="url(#paint0_linear)"/>
<g style="mix-blend-mode:multiply" opacity="0.16">
<g style="mix-blend-mode:multiply" opacity="0.16">
<path d="M730.791 596.105L730.153 658.022L728.805 659.033L594.739 591.67L594.971 562.637C629.376 570.981 687.451 585.285 730.791 596.105Z" fill="black"/>
</g>
</g>
<path d="M496.063 542.13L728.787 659.008L608.146 751.4L494.066 694.105L496.063 542.13Z" fill="url(#paint1_linear)"/>
<g style="mix-blend-mode:screen" opacity="0.3">
<g style="mix-blend-mode:screen" opacity="0.3">
<path d="M736.503 63.3585L730.786 596.108L730.474 624.539C730.025 636.012 729.433 647.568 728.819 659.025C728.147 634.224 727.768 609.392 727.418 584.552C726.933 559.747 726.676 534.933 726.648 510.111C726.544 460.475 725.923 410.767 726.298 361.079C726.391 311.441 727.04 261.81 727.499 212.176C728.17 171.832 728.856 131.467 729.562 91.0796C722.042 105.859 714.466 120.499 706.668 135.171L670.657 203.881C658.738 226.865 646.62 249.702 634.302 272.393C622.087 295.223 609.872 318.053 597.281 340.694L736.503 63.3585Z" fill="white"/>
</g>
</g>
<g style="mix-blend-mode:screen" opacity="0.3">
<g style="mix-blend-mode:screen" opacity="0.3">
<path d="M496.062 542.131L709.997 649.577C711.944 650.738 713.813 651.867 715.724 653.101C706.177 649.34 696.783 645.276 687.273 641.251C677.879 637.186 668.316 633.218 659.047 628.952C649.615 624.779 640.298 620.564 630.935 616.24C621.69 611.881 612.374 607.668 603.089 603.195C584.555 594.343 566.124 585.327 547.793 576.15C532.593 568.708 517.516 560.852 502.487 553.139C501.802 574.812 500.9 596.514 499.781 618.242C499.052 630.904 498.43 643.529 497.319 656.187C496.337 668.83 495.478 681.506 494.104 694.127L496.062 542.131Z" fill="white"/>
</g>
</g>
<g style="mix-blend-mode:screen" opacity="0.15">
<g style="mix-blend-mode:screen" opacity="0.15">
<path d="M614.249 341.983L713.862 150.635L711.263 559.426L614.249 341.983Z" fill="white"/>
</g>
</g>
<g style="mix-blend-mode:screen" opacity="0.15">
<g style="mix-blend-mode:screen" opacity="0.15">
<path d="M506.403 687.372L515.971 575.002L693.294 658.194L506.403 687.372Z" fill="white"/>
</g>
</g>
<path d="M287.607 960.668L293.338 427.945L293.65 399.514L293.973 366.022L295.321 365.01L429.385 432.34L429.143 461.37L426.819 683.329L287.607 960.668Z" fill="url(#paint2_linear)"/>
<g style="mix-blend-mode:multiply" opacity="0.16">
<g style="mix-blend-mode:multiply" opacity="0.16">
<path d="M293.301 427.933L293.935 366.01L295.283 364.998L429.347 432.328L429.109 461.364C394.698 452.981 336.622 438.721 293.301 427.933Z" fill="black"/>
</g>
</g>
<path d="M528.004 481.878L295.279 365.001L415.915 272.613L529.995 329.906L528.004 481.878Z" fill="url(#paint3_linear)"/>
<g style="mix-blend-mode:multiply" opacity="0.16">
<g style="mix-blend-mode:multiply" opacity="0.16">
<path d="M287.608 960.669L293.343 427.953L293.655 399.522C294.104 388.048 294.689 376.496 295.306 365.029C295.971 389.834 296.357 414.662 296.71 439.509C297.193 464.31 297.448 489.121 297.477 513.943C297.581 563.579 298.202 613.287 297.82 662.979C297.734 712.613 297.085 762.244 296.62 811.881C295.949 852.225 295.264 892.59 294.564 932.974C302.084 918.194 309.66 903.555 317.462 888.889L353.467 820.173C365.382 797.192 377.501 774.354 389.823 751.661C402.038 728.831 414.253 706.001 426.844 683.359L287.608 960.669Z" fill="black"/>
</g>
</g>
<g style="mix-blend-mode:multiply" opacity="0.3">
<g style="mix-blend-mode:multiply" opacity="0.3">
<path d="M528.006 481.878L314.046 374.447C312.105 373.282 310.23 372.156 308.325 370.918C317.872 374.679 327.266 378.744 336.743 382.788C346.138 386.853 355.694 390.824 364.97 395.087C374.401 399.26 383.717 403.474 393.077 407.792C402.319 412.161 411.643 416.37 420.921 420.847C439.464 429.695 457.895 438.71 476.217 447.892C491.417 455.334 506.495 463.191 521.524 470.904C522.208 449.23 523.108 427.531 524.222 405.805C524.958 393.139 525.58 380.513 526.685 367.859C527.789 355.205 528.532 342.536 529.9 329.919L528.006 481.878Z" fill="black"/>
</g>
</g>
<g style="mix-blend-mode:screen" opacity="0.3">
<g style="mix-blend-mode:screen" opacity="0.3">
<path d="M409.814 682.028L310.21 873.372L312.801 464.586C312.801 464.586 314.932 468.47 409.814 682.028Z" fill="white"/>
</g>
</g>
<g style="mix-blend-mode:screen" opacity="0.2">
<g style="mix-blend-mode:screen" opacity="0.2">
<path d="M517.655 336.643L508.06 449.027L330.738 365.835L517.655 336.643Z" fill="white"/>
</g>
</g>
<defs>
<linearGradient id="paint0_linear" x1="643.261" y1="108.598" x2="756.97" y2="662.8" gradientUnits="userSpaceOnUse">
<stop stop-color="#2F93FF"/>
<stop offset="1" stop-color="#2EB74C"/>
</linearGradient>
<linearGradient id="paint1_linear" x1="524.377" y1="525.783" x2="643.015" y2="731.268" gradientUnits="userSpaceOnUse">
<stop stop-color="#0680C5"/>
<stop offset="1" stop-color="#60F3E2"/>
</linearGradient>
<linearGradient id="paint2_linear" x1="199.161" y1="420.528" x2="455.16" y2="863.931" gradientUnits="userSpaceOnUse">
<stop stop-color="#21BBB2"/>
<stop offset="1" stop-color="#8000FF"/>
</linearGradient>
<linearGradient id="paint3_linear" x1="381.05" y1="292.742" x2="499.686" y2="498.227" gradientUnits="userSpaceOnUse">
<stop stop-color="#FF0300"/>
<stop offset="1" stop-color="#FFC700"/>
</linearGradient>
</defs>
</svg>
