<?xml version="1.0" encoding="utf-8"?>
<!-- Generator: Adobe Illustrator 24.0.2, SVG Export Plug-In . SVG Version: 6.00 Build 0)  -->
<svg version="1.1" id="Capa_1" xmlns="http://www.w3.org/2000/svg" xmlns:xlink="http://www.w3.org/1999/xlink" x="0px" y="0px"
	 viewBox="0 0 1024 1024" style="enable-background:new 0 0 1024 1024;" xml:space="preserve">
<style type="text/css">
	.st0{fill:#FFFFFF;}
	.st1{fill:url(#SVGID_1_);}
	.st2{fill:url(#SVGID_2_);}
</style>
<rect x="-34.9" y="-32" class="st0" width="1088.2" height="1088.2"/>
<g>
	
		<linearGradient id="SVGID_1_" gradientUnits="userSpaceOnUse" x1="512" y1="-3101.7834" x2="512" y2="-3935.2927" gradientTransform="matrix(1 0 0 -1 0 -3037.4814)">
		<stop  offset="0.2202" style="stop-color:#20DDFF"/>
		<stop  offset="1" style="stop-color:#024AB0"/>
	</linearGradient>
	<path class="st1" d="M512,119.8c-160.4,0-301.4,83.6-381.6,209.6l90.4-165.1V0H59.9v571.4c0,0.2,0,0.3,0,0.5c0,0.2,0,0.4,0,0.6v6.9
		l0.1-1.4C63.3,825,264.4,1024,512,1024c249.7,0,452.1-202.4,452.1-452.1S761.7,119.8,512,119.8z M512,712.9
		c-77.9,0-141-63.1-141-141s63.1-141,141-141s141,63.1,141,141S589.9,712.9,512,712.9z"/>
	
		<linearGradient id="SVGID_2_" gradientUnits="userSpaceOnUse" x1="511.9999" y1="-3905.4822" x2="511.9999" y2="-3313.2983" gradientTransform="matrix(1 0 0 -1 0 -3037.4814)">
		<stop  offset="0.2682" style="stop-color:#20DDFF"/>
		<stop  offset="1" style="stop-color:#024AB0"/>
	</linearGradient>
	<path class="st2" d="M512,275.8c-163.5,0-296.1,132.6-296.1,296.1S348.5,868,512,868c163.5,0,296.1-132.6,296.1-296.1
		S675.5,275.8,512,275.8z M512,712.9c-77.9,0-141-63.1-141-141s63.1-141,141-141s141,63.1,141,141S589.9,712.9,512,712.9z"/>
</g>
<g>
	<g>
		<path class="st0" d="M358.8,1191.9c7.7,0,7.7-12,0-12C351.1,1179.9,351.1,1191.9,358.8,1191.9L358.8,1191.9z"/>
	</g>
</g>
</svg>
