<?xml version="1.0" encoding="utf-8"?>
<!-- Generator: Adobe Illustrator 25.4.1, SVG Export Plug-In . SVG Version: 6.00 Build 0)  -->
<svg version="1.1" id="Layer_1" xmlns="http://www.w3.org/2000/svg" xmlns:xlink="http://www.w3.org/1999/xlink" x="0px" y="0px"
	 viewBox="0 0 256 256" style="enable-background:new 0 0 256 256;" xml:space="preserve">
<style type="text/css">
	.st0{fill:url(#SVGID_1_);}
	.st1{fill:url(#SVGID_00000027598094470137859870000004385939125030877359_);}
</style>
<path d="M216.1,40.2C167.5-8.5,88.4-8.8,39.9,39.7c-10.8,10.7-19.1,23-25.1,36.1c-0.1,0.1-0.1,0.2-0.1,0.3c-1.6,3.5-3,7-4.2,10.5
	c-0.1,0.3-0.2,0.6-0.3,0.9c-0.6,1.7-1.1,3.3-1.6,5c-0.1,0.3-0.2,0.7-0.3,1c-0.4,1.4-0.7,2.7-1.1,4.1c-0.1,0.5-0.2,1-0.4,1.5
	c-0.3,1.5-0.7,3-1,4.5c-0.1,0.7-0.3,1.4-0.4,2.1c-0.2,1-0.3,2-0.5,3c-0.2,1.2-0.3,2.4-0.5,3.5c-0.1,0.8-0.2,1.7-0.3,2.5
	c-0.1,0.9-0.2,1.9-0.3,2.8c0,0.5-0.1,1.1-0.1,1.6c-0.1,1.8-0.2,3.6-0.2,5.4c0,0.4,0,0.8,0,1.2c-0.1,3.6,0,7.1,0.3,10.7v0.1
	c2.1,28.9,14.1,57.2,36.1,79.3c46.2,46.3,119.8,48.8,168.7,7.4l0,0c0.5-0.4,0.9-0.8,1.4-1.2c0.4-0.3,0.8-0.7,1.2-1.1
	c1.7-1.5,3.3-3,4.9-4.6C264.6,167.9,264.6,88.9,216.1,40.2z"/>
<g>
	<linearGradient id="SVGID_1_" gradientUnits="userSpaceOnUse" x1="128" y1="18.6883" x2="128" y2="257.1302">
		<stop  offset="0" style="stop-color:#FFEC38"/>
		<stop  offset="0.6156" style="stop-color:#F85F57"/>
		<stop  offset="1" style="stop-color:#F0297A"/>
	</linearGradient>
	<path class="st0" d="M216.5,39.8C167.7-9.1,88.3-9.4,39.5,39.3C28.7,50,20.3,62.4,14.2,75.5c-0.1,0.1-0.1,0.2-0.2,0.3
		c-1.6,3.5-3,7-4.2,10.6c-0.1,0.3-0.2,0.6-0.3,0.9C9,89,8.5,90.7,8,92.3c-0.1,0.3-0.2,0.7-0.3,1c-0.4,1.4-0.7,2.7-1.1,4.1
		c-0.1,0.5-0.2,1-0.4,1.5c-0.4,1.5-0.7,3-1,4.5c-0.1,0.7-0.3,1.4-0.4,2.1c-0.2,1-0.3,2-0.5,3c-0.2,1.2-0.3,2.4-0.5,3.6
		c-0.1,0.8-0.2,1.7-0.3,2.5c-0.1,1-0.2,1.9-0.3,2.9c0,0.6-0.1,1.1-0.1,1.7C3.1,121,3,122.8,3,124.6c0,0.4,0,0.8,0,1.2
		c-0.1,3.6,0,7.2,0.3,10.7c0,0,0,0.1,0,0.1c2.1,29,14.1,57.4,36.2,79.6c46.4,46.5,120.3,49,169.4,7.4l0,0c0.5-0.4,0.9-0.8,1.4-1.2
		c0.4-0.4,0.8-0.7,1.2-1.1c1.7-1.5,3.3-3,4.9-4.6C265.3,168.1,265.2,88.7,216.5,39.8z M210.6,210.9c-0.4,0.4-0.8,0.7-1.1,1.1
		c-1.2,1.2-2.5,2.4-3.8,3.5c-0.5,0.5-1,0.9-1.6,1.4c-25.1,21.6-57.2,30.7-88.3,27.5l-3-0.4c-0.3,0-0.6-0.1-0.9-0.1
		c-8.1-1.1-16.2-3.1-24-5.9c-15.7-5.7-30.4-14.7-42.9-27.3c-18.1-18.1-28.9-40.8-32.7-64.3c-0.1-0.9-0.3-1.8-0.4-2.6
		c-0.1-0.8-0.2-1.5-0.3-2.3c-0.1-1.2-0.3-2.4-0.4-3.7c-0.1-0.8-0.1-1.5-0.2-2.3c0-0.8-0.1-1.5-0.1-2.3c-0.1-1.3-0.1-2.6-0.1-3.9
		c0-0.7,0-1.4,0-2.1c0-1.2,0-2.4,0.1-3.6c0-0.7,0.1-1.3,0.1-2c0.1-1.2,0.1-2.3,0.2-3.5c0-0.5,0.1-1,0.1-1.5c0.1-1.5,0.3-3,0.5-4.5
		c0.1-0.4,0.1-0.9,0.2-1.3c0.2-1.6,0.5-3.2,0.8-4.7c0-0.1,0-0.1,0-0.2c0.3-1.7,0.7-3.3,1.1-4.9c0.1-0.3,0.1-0.5,0.2-0.8
		c0.4-1.7,0.8-3.3,1.3-5c0-0.1,0.1-0.3,0.1-0.4c1-3.5,2.2-6.9,3.6-10.3c0,0,0-0.1,0.1-0.1c5.6-14,14-27.2,25.3-38.6l0,0
		c0.2-0.2,0.5-0.5,0.7-0.7C91-0.5,165.3-0.4,210.9,45.3C256.5,91.1,256.4,165.3,210.6,210.9z"/>
	
		<linearGradient id="SVGID_00000021803642125100798330000000215637982557017753_" gradientUnits="userSpaceOnUse" x1="121.9881" y1="18.6883" x2="121.9881" y2="257.1302">
		<stop  offset="0" style="stop-color:#FFEC38"/>
		<stop  offset="0.6156" style="stop-color:#F85F57"/>
		<stop  offset="1" style="stop-color:#F0297A"/>
	</linearGradient>
	<path style="fill:url(#SVGID_00000021803642125100798330000000215637982557017753_);" d="M128,181.3c-15.2,0-28.9-6.4-38.6-16.6
		c-9.7-10.2-15.4-24.2-14.6-39.6c0.7-13.3,6.3-25.3,15.1-34.4s20.7-15,34-16c9.5-0.7,18.8,1.1,27,5c8.2,3.9,15.4,9.9,20.8,17.6
		c0.4,0.6,1,0.9,1.6,1s1.3,0,1.9-0.4l5-3.2l5-3.2c0.6-0.4,1-1,1.2-1.7s0-1.4-0.4-2c-5.8-8.3-13.1-15.2-21.5-20.2s-17.8-8.3-27.8-9.5
		v-4.8v-4.8c0-0.7-0.3-1.4-0.8-1.8c-0.5-0.5-1.1-0.8-1.8-0.8H128h-5.9c-0.7,0-1.4,0.3-1.8,0.8c-0.5,0.5-0.8,1.1-0.8,1.8v4.8v4.8
		c-17.4,2.1-32.8,10.6-44,23S57.7,110.1,57.7,128c0,17.9,6.8,34.3,17.9,46.8s26.6,20.9,44,23v4.7v4.7c0,0.7,0.3,1.4,0.8,1.8
		c0.5,0.5,1.1,0.8,1.8,0.8h5.9h5.9c0.7,0,1.4-0.3,1.8-0.8c0.5-0.5,0.8-1.1,0.8-1.8v-4.7v-4.7c9.4-1.1,18.4-4.2,26.5-8.8
		c8.1-4.7,15.3-10.9,21.1-18.5c0.5-0.6,0.6-1.3,0.5-2c-0.1-0.7-0.5-1.3-1.1-1.7l-4.8-3.4l-4.8-3.4c-0.6-0.4-1.3-0.5-1.9-0.4
		c-0.6,0.1-1.3,0.5-1.7,1c-5,6.5-11.5,11.7-18.7,15.3C144.3,179.4,136.3,181.3,128,181.3z"/>
</g>
</svg>
