<?xml version="1.0" encoding="UTF-8"?>
<svg version="1.1" xmlns="http://www.w3.org/2000/svg" width="256" height="256">
<path d="M0 0 C23.12411139 19.69506066 39.83792804 49.38900563 42.91134644 79.81689453 C43.28677269 85.45531168 43.29349923 91.08614342 43.23193359 96.734375 C43.22504517 98.01072815 43.22504517 98.01072815 43.21801758 99.31286621 C43.12007974 112.53633327 42.26093512 124.90204053 37.66943359 137.421875 C37.22736572 138.64874023 37.22736572 138.64874023 36.77636719 139.90039062 C24.53072817 172.98845111 0.3658553 199.06325859 -31.33056641 214.421875 C-48.41206616 222.23732723 -65.96437698 225.18797244 -84.64306641 224.984375 C-85.49396851 224.97978271 -86.34487061 224.97519043 -87.22155762 224.97045898 C-100.44502467 224.87252115 -112.81073193 224.01337653 -125.33056641 219.421875 C-126.14847656 219.12716309 -126.96638672 218.83245117 -127.80908203 218.52880859 C-160.89714252 206.28316958 -186.97195 182.11829671 -202.33056641 150.421875 C-216.20396777 120.1000849 -217.28393125 84.69572105 -206.07373047 53.41162109 C-193.57502071 19.94759859 -168.90061388 -6.59113621 -136.35839844 -21.48046875 C-90.07766372 -41.48130407 -38.15067764 -31.70522666 0 0 Z " fill="#13110A" transform="translate(213.33056640625,31.578125)"/>
<path d="M0 0 C15.30050432 12.08487635 25.47846192 28.65130528 27.84375 48.24609375 C28.10570924 52.18407729 28.21126659 56.11297721 28.28125 60.05859375 C28.32701172 61.10080078 28.37277344 62.14300781 28.41992188 63.21679688 C28.53075453 70.89316281 26.78712694 75.37600809 21.84375 81.24609375 C22.83375 80.58609375 23.82375 79.92609375 24.84375 79.24609375 C30.17061189 75.69485249 33.40975369 74.31212654 39.84375 75.24609375 C42.53480198 77.42183791 44.29907928 79.15675231 45.84375 82.24609375 C46.90642069 93.26750695 45.40698047 102.22133038 38.6484375 111.14453125 C31.02866354 119.92110257 31.02866354 119.92110257 24.78125 120.55859375 C21.45921118 120.20518536 20.96833445 119.6354632 18.84375 117.24609375 C18.39386719 118.261875 17.94398438 119.27765625 17.48046875 120.32421875 C8.48235112 139.89053127 -4.61137816 150.34395945 -24.76953125 157.93359375 C-27.51003763 158.9956585 -30.06078047 160.1305856 -32.65625 161.49609375 C-42.39650605 166.36622178 -54.31129387 167.07773979 -64.8203125 164.265625 C-68.87992306 162.62868526 -72.25535427 160.99494556 -75.6328125 158.1875 C-78.34911847 156.09771042 -80.4355555 155.3403808 -83.71875 154.43359375 C-96.96074607 150.25789683 -111.03896066 141.51728227 -118.15625 129.24609375 C-123.30770951 118.28060759 -124.67223104 107.75499615 -122.15625 95.74609375 C-120.4847309 87.69672165 -120.72307188 79.45023471 -121.65625 71.30859375 C-123.92308981 50.84036368 -121.13964162 30.46412156 -108.3046875 13.8359375 C-81.52330831 -18.44779778 -34.19882781 -24.31610203 0 0 Z " fill="#F8CE94" transform="translate(170.15625,47.75390625)"/>
<path d="M0 0 C0.66386719 0.51820312 1.32773438 1.03640625 2.01171875 1.5703125 C12.9371911 10.3904707 20.60421821 22.67677742 27 35 C27.47050781 35.89976563 27.94101563 36.79953125 28.42578125 37.7265625 C31.10226218 43.21210546 33.00019801 48.85461622 34.75 54.6875 C35.06650513 55.73901245 35.06650513 55.73901245 35.3894043 56.81176758 C40.50461915 74.65100068 40.26611493 97.26150761 35 115 C34.67128906 116.19625 34.34257812 117.3925 34.00390625 118.625 C27.46149245 140.35758562 12.7269006 164.74672694 -7 177 C-7.99 177 -8.98 177 -10 177 C-10.40089844 176.17757812 -10.80179688 175.35515625 -11.21484375 174.5078125 C-15.23564614 166.61208718 -19.69391382 160.33468521 -26 154 C-24.88080862 150.64242585 -24.13691878 150.11304797 -21.4375 148 C-15.64254911 143.10139043 -11.07920676 136.93108691 -7.53515625 130.23046875 C-6 128 -6 128 -3.984375 127.21484375 C-2.87835938 127.07755859 -2.87835938 127.07755859 -1.75 126.9375 C6.90764368 125.38248633 11.90428319 120.93830768 17 114 C22.66581389 104.98538238 25.3415651 94.60128078 24 84 C22.56804107 79.62690974 20.54404805 75.98079491 17 73 C14.50556226 72.21201945 14.50556226 72.21201945 11.8125 71.8125 C10.46091797 71.57466797 10.46091797 71.57466797 9.08203125 71.33203125 C8.39496094 71.22246094 7.70789063 71.11289063 7 71 C6.9906543 70.351521 6.98130859 69.70304199 6.97167969 69.03491211 C6.67751505 52.74770813 5.78369725 37.69343551 -2 23 C-2.41894531 22.20335937 -2.83789062 21.40671875 -3.26953125 20.5859375 C-13.57810057 2.24065987 -30.34700513 -9.13720722 -50.22265625 -15.22265625 C-51.13917969 -15.47917969 -52.05570313 -15.73570313 -53 -16 C-53.78246094 -16.22558594 -54.56492187 -16.45117188 -55.37109375 -16.68359375 C-76.37580143 -21.81965212 -100.58487003 -16.6904531 -118.8125 -5.6875 C-137.62929409 7.00614713 -149.12786436 24.05667776 -153.65234375 46.19140625 C-153.95680987 49.52684968 -153.98255793 52.63584572 -153.88671875 55.9765625 C-153.85642578 57.059375 -153.82613281 58.1421875 -153.79492188 59.2578125 C-153.72303582 61.51111352 -153.6317371 63.76387514 -153.52148438 66.015625 C-153.34242085 74.12671892 -153.34242085 74.12671892 -155.28759766 76.70996094 C-156.79928443 77.88678911 -158.39859604 78.94851211 -160 80 C-163.66949109 86.65161354 -162.73522411 95.21776465 -160.75 102.3125 C-159.56487349 105.85110887 -157.95351995 108.72942462 -155.96875 111.89453125 C-154.61932853 114.82734646 -154.11871446 117.77331354 -153.5 120.9375 C-150.88806354 134.01100205 -144.13621702 142.79599773 -133.0078125 150.2265625 C-126.86236049 153.84998486 -120.43377978 156.92679254 -114 160 C-115.45374752 163.03965391 -117.13662975 165.84185006 -118.9375 168.6875 C-121.73671069 173.29353618 -123.57253143 177.8160352 -125 183 C-133.819132 178.74862471 -140.92362436 172.68516138 -148 166 C-148.67933594 165.38511719 -149.35867187 164.77023438 -150.05859375 164.13671875 C-167.97735155 147.29957611 -179.84600068 121.27338061 -181.17700195 96.73706055 C-181.7339146 66.28880431 -181.7339146 66.28880431 -177 52 C-176.79101074 51.36143066 -176.58202148 50.72286133 -176.36669922 50.06494141 C-171.35676297 35.30533146 -163.54772725 21.47890703 -153 10 C-152.55285645 9.51047852 -152.10571289 9.02095703 -151.64501953 8.51660156 C-111.76587336 -34.66184918 -44.57927209 -37.82023424 0 0 Z " fill="#F2BD4F" transform="translate(197,46)"/>
<path d="M0 0 C23.12411139 19.69506066 39.83792804 49.38900563 42.91134644 79.81689453 C43.28677269 85.45531168 43.29349923 91.08614342 43.23193359 96.734375 C43.22504517 98.01072815 43.22504517 98.01072815 43.21801758 99.31286621 C43.12007974 112.53633327 42.26093512 124.90204053 37.66943359 137.421875 C37.22736572 138.64874023 37.22736572 138.64874023 36.77636719 139.90039062 C24.53072817 172.98845111 0.3658553 199.06325859 -31.33056641 214.421875 C-48.41206616 222.23732723 -65.96437698 225.18797244 -84.64306641 224.984375 C-85.49396851 224.97978271 -86.34487061 224.97519043 -87.22155762 224.97045898 C-100.44502467 224.87252115 -112.81073193 224.01337653 -125.33056641 219.421875 C-126.14847656 219.12716309 -126.96638672 218.83245117 -127.80908203 218.52880859 C-160.89714252 206.28316958 -186.97195 182.11829671 -202.33056641 150.421875 C-216.20396777 120.1000849 -217.28393125 84.69572105 -206.07373047 53.41162109 C-193.57502071 19.94759859 -168.90061388 -6.59113621 -136.35839844 -21.48046875 C-90.07766372 -41.48130407 -38.15067764 -31.70522666 0 0 Z M-117.33056641 -16.578125 C-118.50748047 -16.26101562 -119.68439453 -15.94390625 -120.89697266 -15.6171875 C-151.98643068 -6.3200219 -176.71176609 15.4498173 -192.08056641 43.671875 C-196.56820044 52.24954161 -199.76357123 61.10154335 -202.33056641 70.421875 C-202.67087891 71.64519531 -203.01119141 72.86851563 -203.36181641 74.12890625 C-210.69438604 106.00521591 -203.2808242 138.95293948 -186.33056641 166.421875 C-173.04563462 186.86759912 -154.31173714 201.43375778 -132.33056641 211.421875 C-131.41404297 211.84339844 -130.49751953 212.26492187 -129.55322266 212.69921875 C-117.06186814 218.06422515 -103.8631733 219.62391359 -90.40234375 219.66210938 C-88.36366428 219.67171899 -86.32603717 219.7027483 -84.28759766 219.734375 C-75.32415488 219.80689432 -67.02503704 218.71026418 -58.33056641 216.421875 C-57.5909668 216.22835449 -56.85136719 216.03483398 -56.08935547 215.83544922 C-33.74241715 209.547785 -12.99359582 196.45428138 1.66943359 178.421875 C2.70197266 177.18050781 2.70197266 177.18050781 3.75537109 175.9140625 C25.04580723 149.0955833 32.95121256 116.32140528 29.36035156 82.51171875 C28.55968373 77.02259371 27.29293226 71.72281587 25.66943359 66.421875 C25.46044434 65.73915527 25.25145508 65.05643555 25.03613281 64.35302734 C14.99378415 32.85691211 -6.26291458 7.61171483 -35.46948242 -7.75976562 C-60.14185764 -20.18538001 -90.5800072 -24.25681527 -117.33056641 -16.578125 Z " fill="#EFE2C9" transform="translate(213.33056640625,31.578125)"/>
<path d="M0 0 C6.90631125 4.85703971 11.06946211 12.22963437 14 20 C14 21.32 14 22.64 14 24 C-15.72983797 39.55990221 -43.42321071 44.51570545 -76 35 C-85.80814477 31.8966973 -85.80814477 31.8966973 -90 29 C-91.57111221 25.61063433 -91.05234227 24.14448473 -89.77734375 20.625 C-89.17875428 19.4093216 -88.56496165 18.20103089 -87.9375 17 C-87.64939453 16.39671875 -87.36128906 15.7934375 -87.06445312 15.171875 C-84.76613448 10.64413806 -82.05733855 8.0386876 -78 5 C-77.0925 5.7425 -76.185 6.485 -75.25 7.25 C-64.58092392 14.72474192 -52.31170619 15.27495244 -39.8046875 13.5625 C-32.80640196 12.06953242 -26.7918976 9.07814715 -20.47265625 5.7890625 C-17.1645499 4.08477374 -13.84429604 2.49648218 -10.4375 1 C-9.50808594 0.5875 -8.57867187 0.175 -7.62109375 -0.25 C-4.5561091 -1.12701498 -3.00167973 -1.03791848 0 0 Z " fill="#F2BC4F" transform="translate(168,204)"/>
<path d="M0 0 C8.42890061 0.3121815 14.86088746 3.63666513 20.625 9.8125 C22.42694368 13.98973308 22.35839703 17.52003715 22 22 C20 21 20 21 19 18 C18.63648438 19.134375 18.27296875 20.26875 17.8984375 21.4375 C12.80770929 36.86882336 12.80770929 36.86882336 7 43 C6.50113281 43.60972656 6.00226563 44.21945313 5.48828125 44.84765625 C-0.32576269 51.4782003 -9.45998371 55.40336694 -18.2265625 56.203125 C-30.53200545 56.44362226 -39.63345337 52.01569982 -48.6875 43.875 C-53.89368749 38.42666425 -57.35759193 31.08713456 -59.1875 23.8125 C-59.455625 22.884375 -59.72375 21.95625 -60 21 C-60.99 20.67 -61.98 20.34 -63 20 C-63.71362066 13.22060369 -63.71362066 13.22060369 -61.83984375 10.015625 C-59.00988367 6.6283582 -56.08406886 3.81514172 -52 2 C-51.34 2.33 -50.68 2.66 -50 3 C-51.98 5.31 -53.96 7.62 -56 10 C-46.12744433 19.01407257 -30.06537362 17.44007902 -17.80224609 17.13183594 C-7.62231657 16.65290564 1.02092038 12.47505742 10 8 C7.451563 5.92270261 5.01072338 4.00643403 2.1875 2.3125 C1.465625 1.879375 0.74375 1.44625 0 1 C0 0.67 0 0.34 0 0 Z " fill="#12100A" transform="translate(137,143)"/>
<path d="M0 0 C-2.13680975 2.33754036 -3.33034329 3.14070177 -6.375 4.4375 C-22.32863544 12.22334418 -32.20836296 28.94372054 -38 45 C-39.1577506 48.47325181 -39.06866652 51.36067448 -39 55 C-38.44570313 54.50628906 -37.89140625 54.01257813 -37.3203125 53.50390625 C-36.59585938 52.86324219 -35.87140625 52.22257812 -35.125 51.5625 C-34.04605469 50.60537109 -34.04605469 50.60537109 -32.9453125 49.62890625 C-29.47458258 46.72269264 -26.8385088 46.64980063 -22.43359375 46.734375 C-15.0307796 47.54238682 -10.39368545 52.02759195 -5.76953125 57.5546875 C-3.21940947 61.07869684 -1.0333877 64.74439554 0 69 C-0.41015625 71.26171875 -0.41015625 71.26171875 -1 73 C-1.46148437 72.48050781 -1.92296875 71.96101563 -2.3984375 71.42578125 C-8.91917257 64.45400719 -16.87056968 59.02569103 -26.6875 58.625 C-32.17414406 58.66516577 -35.88654653 60.42089221 -40 64 C-42.40748024 67.61122036 -42.25204244 69.3153284 -42.2734375 73.609375 C-42.2940625 74.92164062 -42.3146875 76.23390625 -42.3359375 77.5859375 C-42.35844858 79.66380834 -42.3749755 81.74134913 -42.38085938 83.81933594 C-42.44779537 97.85581455 -42.44779537 97.85581455 -47 104 C-47.59314072 105.27788619 -48.16583281 106.56630891 -48.6875 107.875 C-50 111 -50 111 -51 112 C-51.23678716 114.69235776 -51.42198025 117.36498156 -51.5625 120.0625 C-51.60568359 120.82111328 -51.64886719 121.57972656 -51.69335938 122.36132812 C-51.79973633 124.24065438 -51.90039934 126.12030244 -52 128 C-54 126 -54 126 -54.265625 123.12890625 C-54.24081963 117.46708033 -54.15918664 112.05581595 -53 106.5 C-51.3284809 98.4506279 -51.56682188 90.20414096 -52.5 82.0625 C-54.76683981 61.59426993 -51.98339162 41.21802781 -39.1484375 24.58984375 C-33.23979376 17.46724229 -10.69427294 -5.34713647 0 0 Z " fill="#E7A565" transform="translate(101,37)"/>
<path d="M0 0 C1.3125 2.0625 1.3125 2.0625 2 4 C-5.85666297 9.14989318 -14.17656518 13.02142357 -22.75 16.8125 C-23.82693115 17.29243408 -24.9038623 17.77236816 -26.01342773 18.2668457 C-34.446329 21.94519941 -41.99132049 24.39321099 -51.25 24.375 C-52.35154419 24.37584595 -52.35154419 24.37584595 -53.4753418 24.37670898 C-60.17213429 24.24310896 -65.80703815 22.49119144 -72 20 C-73.32665877 19.64102174 -74.65813879 19.29714875 -76 19 C-78.20399168 23.55491614 -78.58846263 28.02906176 -79 33 C-80.43931117 32.54738642 -81.87638999 32.08767021 -83.3125 31.625 C-84.11300781 31.36976563 -84.91351563 31.11453125 -85.73828125 30.8515625 C-88 30 -88 30 -91 28 C-90.670547 20.58730743 -87.39914345 13.56794968 -82.26953125 8.18359375 C-80.625 6.8125 -80.625 6.8125 -78 5 C-77.0925 5.7425 -76.185 6.485 -75.25 7.25 C-64.58092392 14.72474192 -52.31170619 15.27495244 -39.8046875 13.5625 C-32.80640196 12.06953242 -26.7918976 9.07814715 -20.47265625 5.7890625 C-17.1645499 4.08477374 -13.84429604 2.49648218 -10.4375 1 C-9.50808594 0.5875 -8.57867187 0.175 -7.62109375 -0.25 C-4.5756974 -1.12140998 -2.95667115 -1.13212707 0 0 Z " fill="#D98C2A" transform="translate(168,204)"/>
<path d="M0 0 C0.66 0.33 1.32 0.66 2 1 C0.02 3.31 -1.96 5.62 -4 8 C1.55575119 13.07264239 9.88314841 14.31783508 17 16 C16.01 16.33 15.02 16.66 14 17 C14 17.66 14 18.32 14 19 C11.69 19 9.38 19 7 19 C7.38164007 21.50910963 7.38164007 21.50910963 9 24 C11.8712694 25.02009571 14.35244845 25.69607222 17.3125 26.25 C18.45235352 26.48976562 18.45235352 26.48976562 19.61523438 26.734375 C21.73994886 27.17740843 23.86814915 27.5929288 26 28 C27.00417969 28.20109375 28.00835937 28.4021875 29.04296875 28.609375 C29.68878906 28.73828125 30.33460937 28.8671875 31 29 C31 29.33 31 29.66 31 30 C33.31 30.33 35.62 30.66 38 31 C38 31.33 38 31.66 38 32 C37.24976563 32.01417969 36.49953125 32.02835938 35.7265625 32.04296875 C26.87507478 32.45544362 19.57992593 34.16436508 13.375 40.8125 C12.92125 41.534375 12.4675 42.25625 12 43 C15.90697912 44.6384106 19.87572652 45.95074007 23.9140625 47.21875 C26 48 26 48 29 50 C24.33828037 51.47118909 20.06632311 52.7119011 15.32421875 51.078125 C4.40708382 44.76214647 -2.96481989 35.82660523 -6.70703125 23.7109375 C-6.86558594 23.08445313 -7.02414063 22.45796875 -7.1875 21.8125 C-7.455625 20.884375 -7.72375 19.95625 -8 19 C-8.99 18.67 -9.98 18.34 -11 18 C-11.71362066 11.22060369 -11.71362066 11.22060369 -9.83984375 8.015625 C-7.00988367 4.6283582 -4.08406886 1.81514172 0 0 Z " fill="#100D09" transform="translate(85,145)"/>
<path d="M0 0 C0.33 0 0.66 0 1 0 C1.01417969 0.63164062 1.02835938 1.26328125 1.04296875 1.9140625 C1.72804183 14.76381167 6.17579254 26.53048485 15 36 C20.69381555 40.90111369 27.05031379 44.72894637 33.52734375 48.49609375 C36.1535718 50.09340465 38.62975821 51.83071163 41.125 53.625 C52.45680498 61.6911037 62.38252399 63.08747734 76 62 C82.30803634 60.70621571 87.60612353 58.4237418 93.04296875 54.984375 C95.68533254 53.65528183 98.39496702 53.0149207 101.25 52.25 C107.4841868 50.47188898 111.78995042 47.61720715 116.7578125 43.51171875 C117.49773437 43.01285156 118.23765625 42.51398438 119 42 C120.485 42.495 120.485 42.495 122 43 C112.14639828 51.41039742 100.92904363 56.21553836 89 61 C88.05253906 61.38414062 87.10507813 61.76828125 86.12890625 62.1640625 C74.89003972 66.69875756 62.76156779 68.45467095 51.1875 63.75 C48.26164534 62.38206795 46.01178134 61.00979301 43.5234375 58.94140625 C40.80713153 56.85161667 38.7206945 56.09428705 35.4375 55.1875 C22.0529239 50.96684226 8.33219075 42.24315963 1 30 C0.57589844 29.3090625 0.15179688 28.618125 -0.28515625 27.90625 C-4.35830598 19.84279426 -3.27516544 10.69267709 -2 2 C-1.34 1.34 -0.68 0.68 0 0 Z " fill="#E8A665" transform="translate(51,147)"/>
<path d="M0 0 C5.10099395 3.48360562 8.20520045 6.23009686 10.9375 11.875 C11.72253906 13.45667969 11.72253906 13.45667969 12.5234375 15.0703125 C12.86632812 15.95460938 13.20921875 16.83890625 13.5625 17.75 C13.2325 18.41 12.9025 19.07 12.5625 19.75 C12.05460937 19.34007813 11.54671875 18.93015625 11.0234375 18.5078125 C9.99089844 17.69957031 9.99089844 17.69957031 8.9375 16.875 C8.26460937 16.34132813 7.59171875 15.80765625 6.8984375 15.2578125 C-0.24731627 10.64533599 -9.21503853 10.55136059 -17.4375 11.75 C-24.91651801 14.30981006 -30.8212559 19.31077219 -36.4375 24.75 C-36.7675 24.09 -37.0975 23.43 -37.4375 22.75 C-33.94522634 13.25218459 -28.43407598 5.47616988 -19.6875 0.25 C-13.48295553 -2.50893776 -6.28967139 -2.28715323 0 0 Z " fill="#14120C" transform="translate(159.4375,85.25)"/>
<path d="M0 0 C2.34765625 2.140625 2.34765625 2.140625 4 4 C-3.31969243 10.31783508 -10.97788893 13.6569059 -20.76953125 13.29296875 C-26.69666289 12.51444883 -32.05823114 10.34764987 -37 7 C-35.55366256 3.39588346 -33.80863332 1.88597432 -30.5625 -0.1875 C-29.78003906 -0.69667969 -28.99757813 -1.20585937 -28.19140625 -1.73046875 C-19.57209176 -6.72383276 -8.49223752 -4.08838775 0 0 Z " fill="#CB6A37" transform="translate(134,181)"/>
<path d="M0 0 C8.40470031 3.6614536 13.82201002 11.19618088 17.4140625 19.37890625 C17.98949736 21.74861043 17.68552634 23.13684393 16.91015625 25.421875 C16.44867188 24.90238281 15.9871875 24.38289063 15.51171875 23.84765625 C8.99098368 16.87588219 1.03958657 11.44756603 -8.77734375 11.046875 C-14.25559157 11.07900549 -17.96756949 12.87004601 -22.08984375 16.421875 C-22.41984375 17.081875 -22.74984375 17.741875 -23.08984375 18.421875 C-23.74984375 18.421875 -24.40984375 18.421875 -25.08984375 18.421875 C-24.78836075 12.39221502 -21.96024243 8.78537736 -18.08984375 4.421875 C-12.39590284 -0.62502717 -7.48913721 -2.07176132 0 0 Z " fill="#13110B" transform="translate(83.08984375,84.578125)"/>
<path d="M0 0 C-0.37540542 2.48507814 -0.6719917 3.70389276 -2.56640625 5.4140625 C-13.23250687 11.88469106 -24.90291293 12.4621133 -37.125 10.3125 C-41.14011069 9.25748982 -43.43949183 7.30388151 -46 4 C-46 3.34 -46 2.68 -46 2 C-44.0509375 2.2475 -44.0509375 2.2475 -42.0625 2.5 C-30.03154154 3.65551578 -18.83529041 3.40261917 -7.07421875 0.65625 C-4 0 -4 0 0 0 Z " fill="#F1EAD9" transform="translate(138,162)"/>
<path d="M0 0 C4.01501864 2.36127423 6.81368849 5.73076933 9.5625 9.4375 C9.2325 10.0975 8.9025 10.7575 8.5625 11.4375 C8.02625 11.0765625 7.49 10.715625 6.9375 10.34375 C-0.95122878 5.67279217 -8.56419412 5.29574737 -17.4375 6.4375 C-21.12187674 7.66874661 -24.20117837 9.3095077 -27.4375 11.4375 C-28.984375 12.3346875 -28.984375 12.3346875 -30.5625 13.25 C-31.18125 13.641875 -31.8 14.03375 -32.4375 14.4375 C-32.11414256 9.10210228 -29.20661231 5.925582 -25.4375 2.4375 C-18.40969258 -3.02502304 -8.05975111 -3.57351729 0 0 Z " fill="#15120C" transform="translate(159.4375,115.5625)"/>
<path d="M0 0 C0.86367187 -0.03738281 1.72734375 -0.07476562 2.6171875 -0.11328125 C5.87389672 0.43964913 7.02886693 1.84101287 9.125 4.3125 C7.91263672 4.24289063 7.91263672 4.24289063 6.67578125 4.171875 C0.05110394 3.88451708 0.05110394 3.88451708 -6.125 5.9375 C-8.11020605 8.25162396 -8.11020605 8.25162396 -8.375 11.4375 C-8.21 12.38625 -8.045 13.335 -7.875 14.3125 C-3.20092975 17.42854683 1.65117537 16.91363061 7.125 16.3125 C9.87536339 15.26811803 11.70465328 14.04883569 14.125 12.3125 C14.785 11.9825 15.445 11.6525 16.125 11.3125 C16 13.5625 16 13.5625 15.125 16.3125 C10.19030565 20.17443471 6.43682144 21.46992911 0.25 21.5625 C-1.29300781 21.60117188 -1.29300781 21.60117188 -2.8671875 21.640625 C-6.97510806 21.19248821 -9.41448807 19.37011209 -12.6875 17 C-13.875 15.3125 -13.875 15.3125 -14.5 12.625 C-13.56440949 7.66637029 -10.47320456 4.72346767 -6.875 1.3125 C-4.44538821 0.0976941 -2.71115884 0.07642733 0 0 Z " fill="#17130C" transform="translate(108.875,130.6875)"/>
<path d="M0 0 C2.34765625 2.140625 2.34765625 2.140625 4 4 C2.35 5.32 0.7 6.64 -1 8 C-1.53109375 7.65066406 -2.0621875 7.30132812 -2.609375 6.94140625 C-3.31578125 6.48636719 -4.0221875 6.03132812 -4.75 5.5625 C-5.44609375 5.11003906 -6.1421875 4.65757812 -6.859375 4.19140625 C-10.82119467 1.98637888 -14.44230056 1.81802319 -18.9375 1.75 C-19.95714844 1.72421875 -20.97679688 1.6984375 -22.02734375 1.671875 C-27.32885325 2.25706133 -30.46721374 5.20552587 -34 9 C-34.99 8.34 -35.98 7.68 -37 7 C-35.55366256 3.39588346 -33.80863332 1.88597432 -30.5625 -0.1875 C-29.78003906 -0.69667969 -28.99757813 -1.20585937 -28.19140625 -1.73046875 C-19.57209176 -6.72383276 -8.49223752 -4.08838775 0 0 Z " fill="#A95025" transform="translate(134,181)"/>
<path d="M0 0 C3.92246212 2.27729723 7.5610221 5.38028694 9.6875 9.4375 C9.33984375 11.65625 9.33984375 11.65625 8.6875 13.4375 C8.09582031 13.02757812 7.50414062 12.61765625 6.89453125 12.1953125 C6.10433594 11.65648438 5.31414062 11.11765625 4.5 10.5625 C3.72269531 10.02882813 2.94539063 9.49515625 2.14453125 8.9453125 C-3.5937542 5.42388455 -8.66954412 4.4765106 -15.3125 5.4375 C-19.13811989 6.82380418 -22.7229909 8.5267347 -26.3125 10.4375 C-25.24110715 5.44120263 -22.9347279 2.58492949 -18.75 -0.375 C-12.55444417 -2.51528292 -6.06632219 -2.70131814 0 0 Z " fill="#0E0C08" transform="translate(86.3125,115.5625)"/>
<path d="M0 0 C2.13586678 3.20380017 2.23132175 4.01939967 2.125 7.6875 C2.10695312 8.49574219 2.08890625 9.30398437 2.0703125 10.13671875 C2.04710937 10.75160156 2.02390625 11.36648437 2 12 C0.66666667 10 -0.66666667 8 -2 6 C-4.74637817 6.37881078 -5.80049058 6.77832287 -7.6875 8.875 C-9.14532108 11.05349596 -9.14532108 11.05349596 -10 14 C-9.34 14 -8.68 14 -8 14 C-5.68717413 17.46923881 -5.57521414 18.92205575 -6 23 C-7.5 24.875 -7.5 24.875 -9 26 C-9.66 24.02 -10.32 22.04 -11 20 C-11.433125 20.86625 -11.433125 20.86625 -11.875 21.75 C-12.91666667 23.83333333 -13.95833333 25.91666667 -15 28 C-17.38821969 23.22356062 -16.28466687 17.23344268 -14.75 12.3125 C-11.98395701 4.84940287 -8.69256946 -0.92474143 0 0 Z " fill="#17140D" transform="translate(209,130)"/>
<path d="M0 0 C-0.33 0.99 -0.66 1.98 -1 3 C-0.34 3.33 0.32 3.66 1 4 C-5.5996487 5.5964593 -11.98481389 6.19340395 -18.75 6.1875 C-19.81238892 6.1884668 -19.81238892 6.1884668 -20.89624023 6.18945312 C-25.35113541 6.14361765 -29.60339509 5.71933981 -34 5 C-32.68 4.67 -31.36 4.34 -30 4 C-30 3.34 -30 2.68 -30 2 C-27.28119448 1.09373149 -25.39752627 0.8165017 -22.578125 0.68359375 C-21.71703125 0.64169922 -20.8559375 0.59980469 -19.96875 0.55664062 C-18.62296875 0.49766602 -18.62296875 0.49766602 -17.25 0.4375 C-16.36828125 0.39431641 -15.4865625 0.35113281 -14.578125 0.30664062 C-9.71293933 0.07858505 -4.87029709 -0.04657388 0 0 Z " fill="#24211B" transform="translate(129,160)"/>
<path d="M0 0 C3.0267525 1.7574692 3.75864443 3.89865845 4.9375 7.125 C4.80713732 12.33950732 1.64747851 16.29288017 -1.8125 20 C-2.225 20.37125 -2.6375 20.7425 -3.0625 21.125 C-3.7225 20.795 -4.3825 20.465 -5.0625 20.125 C-4.7325 19.465 -4.4025 18.805 -4.0625 18.125 C-3.91874578 14.74677584 -3.98713652 12.35109045 -5.0625 9.125 C-5.7225 9.125 -6.3825 9.125 -7.0625 9.125 C-6.71197365 5.97026281 -6.19730924 4.3016466 -4.25 1.75 C-2.0625 0.125 -2.0625 0.125 0 0 Z " fill="#DFA061" transform="translate(206.0625,134.875)"/>
<path d="M0 0 C1.010625 0.0825 2.02125 0.165 3.0625 0.25 C5.19836678 3.45380017 5.29382175 4.26939967 5.1875 7.9375 C5.16945312 8.74574219 5.15140625 9.55398437 5.1328125 10.38671875 C5.09800781 11.30904297 5.09800781 11.30904297 5.0625 12.25 C3.72916667 10.25 2.39583333 8.25 1.0625 6.25 C-3.18572374 6.72202486 -5.13739709 9.21655518 -7.9375 12.25 C-8.75 9.5625 -8.75 9.5625 -8.9375 6.25 C-6.5625 3.4375 -6.5625 3.4375 -3.9375 1.25 C-2.9375 0.25 -2.9375 0.25 0 0 Z " fill="#110F09" transform="translate(205.9375,129.75)"/>
<path d="M0 0 C3.45413911 1.16105516 6.59901126 2.79721437 9.8125 4.5 C18.49138568 8.845815 27.46186523 9.74075187 37 11 C37 11.33 37 11.66 37 12 C23.33015611 12.68349219 13.01441379 12.04887867 2 3 C0.68861096 2.29114106 -0.63777017 1.60543548 -2 1 C-1.34 0.67 -0.68 0.34 0 0 Z " fill="#DC9F61" transform="translate(90,201)"/>
<path d="M0 0 C3.32821753 4.9923263 2.51014495 10.93473249 1.546875 16.72265625 C1.08008677 18.82653747 0.54676158 20.91547147 0 23 C-2 22 -2 22 -2.609375 20.41015625 C-3.15025098 17.07295144 -3.21035469 13.81726275 -3.25 10.4375 C-3.270625 9.76525391 -3.29125 9.09300781 -3.3125 8.40039062 C-3.35177981 3.45604445 -3.35177981 3.45604445 -1.484375 1.03515625 C-0.99453125 0.69355469 -0.5046875 0.35195312 0 0 Z " fill="#D79C5F" transform="translate(43,127)"/>
<path d="M0 0 C1.65 0.33 3.3 0.66 5 1 C3.25 8.75 3.25 8.75 1 11 C0.6936141 13.73434962 0.4886664 16.38279821 0.375 19.125 C0.33632813 19.87910156 0.29765625 20.63320312 0.2578125 21.41015625 C0.16348969 23.27303184 0.08065338 25.13648255 0 27 C-2 25 -2 25 -2.265625 22.12890625 C-2.23233274 14.52994864 -1.69476612 7.41460179 0 0 Z " fill="#DA9D5F" transform="translate(49,138)"/>
<path d="M0 0 C0.81017578 0.24363281 0.81017578 0.24363281 1.63671875 0.4921875 C8.52132734 1.97152488 16.11442811 1.25192216 23 0 C19.8470483 3.37039665 17.94378232 4.85783871 13.22265625 5.203125 C12.17980469 5.21859375 11.13695313 5.2340625 10.0625 5.25 C9.02222656 5.27578125 7.98195313 5.3015625 6.91015625 5.328125 C3.66363536 4.96207432 2.30021213 4.28358409 0 2 C0 1.34 0 0.68 0 0 Z " fill="#DFA465" transform="translate(100,143)"/>
<path d="M0 0 C0.99 0.33 1.98 0.66 3 1 C-8.63838847 10.54733049 -8.63838847 10.54733049 -15 13 C-15.99 12.67 -16.98 12.34 -18 12 C-15.29880121 9.88681727 -12.59236123 8.1640731 -9.5625 6.5625 C-6.77521576 5.05672576 -4.5891358 3.66059044 -2.125 1.625 C-1.42375 1.08875 -0.7225 0.5525 0 0 Z " fill="#DFA465" transform="translate(170,189)"/>
<path d="M0 0 C-0.99 0.33 -1.98 0.66 -3 1 C-3 1.66 -3 2.32 -3 3 C-8.94 3 -14.88 3 -21 3 C-21.33 2.34 -21.66 1.68 -22 1 C-14.64479068 0.36338219 -7.38395674 -0.12515181 0 0 Z " fill="#0C0A06" transform="translate(125,161)"/>
<path d="M0 0 C3 2 3 2 3.6875 5.125 C3.790625 6.07375 3.89375 7.0225 4 8 C0.535 9.485 0.535 9.485 -3 11 C-3.625 9.125 -3.625 9.125 -4 7 C-3.34 6.34 -2.68 5.68 -2 5 C-1.29289322 3.35008418 -0.62056011 1.68437744 0 0 Z " fill="#D39E63" transform="translate(197,149)"/>
<path d="M0 0 C1.76923828 0.01353516 1.76923828 0.01353516 3.57421875 0.02734375 C4.47785156 0.03894531 5.38148438 0.05054687 6.3125 0.0625 C5.9825 0.7225 5.6525 1.3825 5.3125 2.0625 C0.05719407 3.41001434 -5.30329398 3.15826651 -10.6875 3.0625 C-8.63221196 -1.04807609 -4.03316787 -0.03993236 0 0 Z " fill="#393325" transform="translate(149.6875,127.9375)"/>
<path d="M0 0 C-0.1875 1.8125 -0.1875 1.8125 -1 4 C-3.5625 5.75 -3.5625 5.75 -6 7 C-6.33 6.01 -6.66 5.02 -7 4 C-6.67 3.67 -6.34 3.34 -6 3 C-6.66 2.34 -7.32 1.68 -8 1 C-5.10765685 0.17361624 -3.11257569 0 0 0 Z " fill="#E6E0D2" transform="translate(138,162)"/>
<path d="M0 0 C9.17286652 -0.63019694 9.17286652 -0.63019694 12.625 2 C13.07875 2.66 13.5325 3.32 14 4 C12.4156683 3.91231752 10.83246433 3.80412671 9.25 3.6875 C7.92742187 3.60048828 7.92742187 3.60048828 6.578125 3.51171875 C3.67696226 2.9358819 2.20774393 1.92403852 0 0 Z " fill="#18150F" transform="translate(104,131)"/>
<path d="M0 0 C9.59453303 0.59453303 9.59453303 0.59453303 13 4 C12.67 5.32 12.34 6.64 12 8 C8 5.33333333 4 2.66666667 0 0 Z " fill="#19160F" transform="translate(83,121)"/>
<path d="M0 0 C-0.66 0.66 -1.32 1.32 -2 2 C-4.91952568 1.98251781 -7.72297885 1.86055367 -10.625 1.625 C-11.42679687 1.56828125 -12.22859375 1.5115625 -13.0546875 1.453125 C-15.03715498 1.31152018 -17.01869051 1.15697741 -19 1 C-19 0.67 -19 0.34 -19 0 C-16.77156512 -0.19600577 -14.54220107 -0.38146569 -12.3125 -0.5625 C-10.45044922 -0.71912109 -10.45044922 -0.71912109 -8.55078125 -0.87890625 C-5.44164467 -0.98493841 -2.99189028 -0.77228525 0 0 Z " fill="#EEB06F" transform="translate(132,210)"/>
<path d="M0 0 C0.66 0 1.32 0 2 0 C1.67 0.99 1.34 1.98 1 3 C1.66 3.66 2.32 4.32 3 5 C-0.96 6.98 -0.96 6.98 -5 9 C-3.96483052 4.85932209 -2.83392052 3.09154966 0 0 Z " fill="#1D1A12" transform="translate(65,117)"/>
<path d="M0 0 C0.66 0.66 1.32 1.32 2 2 C1.9765625 4.3828125 1.9765625 4.3828125 1.625 7.125 C1.51414063 8.03507813 1.40328125 8.94515625 1.2890625 9.8828125 C1.19367188 10.58148438 1.09828125 11.28015625 1 12 C-1 10 -1 10 -1.23046875 7.87109375 C-1.20919922 6.66646484 -1.20919922 6.66646484 -1.1875 5.4375 C-1.18105469 4.63183594 -1.17460937 3.82617188 -1.16796875 2.99609375 C-1 1 -1 1 0 0 Z " fill="#272218" transform="translate(194,146)"/>
<path d="M0 0 C-0.33 0.66 -0.66 1.32 -1 2 C-3.06640625 2.6328125 -3.06640625 2.6328125 -5.5625 3.125 C-6.38878906 3.29257813 -7.21507812 3.46015625 -8.06640625 3.6328125 C-8.70449219 3.75398437 -9.34257812 3.87515625 -10 4 C-9.67 3.01 -9.34 2.02 -9 1 C-3.79245283 -1.26415094 -3.79245283 -1.26415094 0 0 Z " fill="#ECAB69" transform="translate(153,201)"/>
<path d="M0 0 C0.33 0 0.66 0 1 0 C1.185625 1.11375 1.185625 1.11375 1.375 2.25 C1.87589514 4.98179311 1.87589514 4.98179311 3.125 7.1875 C3.41375 7.785625 3.7025 8.38375 4 9 C3.67 9.66 3.34 10.32 3 11 C1.68 11.33 0.36 11.66 -1 12 C-0.67 8.04 -0.34 4.08 0 0 Z " fill="#EAC58D" transform="translate(211,135)"/>
<path d="M0 0 C0.66 0.33 1.32 0.66 2 1 C2 1.66 2 2.32 2 3 C1.34 3 0.68 3 0 3 C-0.33 5.31 -0.66 7.62 -1 10 C-1.99 10.33 -2.98 10.66 -4 11 C-3.21681311 7.08406554 -1.60820142 3.63593365 0 0 Z " fill="#DCB67D" transform="translate(197,149)"/>
<path d="M0 0 C0.66 0.33 1.32 0.66 2 1 C0.02 3.31 -1.96 5.62 -4 8 C-4.66 7.67 -5.32 7.34 -6 7 C-5.8125 5.1875 -5.8125 5.1875 -5 3 C-2.5625 1.1875 -2.5625 1.1875 0 0 Z " fill="#201D15" transform="translate(85,145)"/>
<path d="M0 0 C2.64 0.33 5.28 0.66 8 1 C8 1.66 8 2.32 8 3 C8.66 3.66 9.32 4.32 10 5 C5.75354935 5 3.61475228 3.18249194 0 1 C0 0.67 0 0.34 0 0 Z " fill="#232017" transform="translate(137,143)"/>
<path d="M0 0 C0.99 0 1.98 0 3 0 C2.67 2.64 2.34 5.28 2 8 C1.67 7.01 1.34 6.02 1 5 C0.34 5 -0.32 5 -1 5 C-0.67 3.35 -0.34 1.7 0 0 Z " fill="#090805" transform="translate(46,137)"/>
<path d="M0 0 C0.66 0 1.32 0 2 0 C0.50902342 3.7952131 -1.75700849 5.61042731 -5 8 C-5.66 7.67 -6.32 7.34 -7 7 C-5.71034824 5.62437146 -4.37310707 4.29233607 -3 3 C-2.34 3 -1.68 3 -1 3 C-0.67 2.01 -0.34 1.02 0 0 Z " fill="#D9D0BC" transform="translate(209,215)"/>
<path d="M0 0 C2.64 0.66 5.28 1.32 8 2 C7.67 2.99 7.34 3.98 7 5 C4.03824877 4.38722388 2.61941217 3.74627478 0 2 C0 1.34 0 0.68 0 0 Z " fill="#DFA264" transform="translate(100,143)"/>
<path d="M0 0 C0.33 0.99 0.66 1.98 1 3 C-0.32 4.32 -1.64 5.64 -3 7 C-3.66 6.67 -4.32 6.34 -5 6 C-3.86695008 2.60085025 -2.87481525 1.94745549 0 0 Z " fill="#241F16" transform="translate(124,142)"/>
<path d="M0 0 C-1.76956458 2.14210449 -2.87575652 2.96060573 -5.5625 3.8125 C-6.7690625 3.9053125 -6.7690625 3.9053125 -8 4 C-8.66 3.34 -9.32 2.68 -10 2 C-8.71211992 1.46987262 -7.41953322 0.9511671 -6.125 0.4375 C-5.40570313 0.14746094 -4.68640625 -0.14257812 -3.9453125 -0.44140625 C-2 -1 -2 -1 0 0 Z " fill="#D7A469" transform="translate(101,37)"/>
<path d="M0 0 C2.475 0.495 2.475 0.495 5 1 C4.01 1.495 4.01 1.495 3 2 C3 2.66 3 3.32 3 4 C4.32 4.33 5.64 4.66 7 5 C7 5.66 7 6.32 7 7 C4.625 6.3125 4.625 6.3125 2 5 C0.6875 2.375 0.6875 2.375 0 0 Z " fill="#DDD9CD" transform="translate(92,164)"/>
<path d="M0 0 C1.98 0 3.96 0 6 0 C6 0.99 6 1.98 6 3 C3.69 3 1.38 3 -1 3 C-0.67 2.01 -0.34 1.02 0 0 Z " fill="#F0AE6C" transform="translate(108,145)"/>
<path d="M0 0 C1.32 0.66 2.64 1.32 4 2 C2.35 3.65 0.7 5.3 -1 7 C-1.66 6.67 -2.32 6.34 -3 6 C-2.01 4.02 -1.02 2.04 0 0 Z " fill="#E5A666" transform="translate(204,149)"/>
</svg>
