<?xml version="1.0" encoding="UTF-8"?>
<svg width="2048px" height="2048px" viewBox="0 0 2048 2048" version="1.1" xmlns="http://www.w3.org/2000/svg" xmlns:xlink="http://www.w3.org/1999/xlink">
    <title>logo</title>
    <defs>
        <linearGradient x1="61.9080544%" y1="0%" x2="43.4159756%" y2="100%" id="linearGradient-1">
            <stop stop-color="#2E2E2E" offset="0%"></stop>
            <stop stop-color="#161616" offset="100%"></stop>
        </linearGradient>
        <linearGradient x1="50.0054811%" y1="-0.0592130542%" x2="50.0054811%" y2="99.9749323%" id="linearGradient-2">
            <stop stop-color="#E3E3E3" offset="0%"></stop>
            <stop stop-color="#666666" offset="100%"></stop>
        </linearGradient>
        <linearGradient x1="89.8510225%" y1="7.06549896%" x2="9.82862312%" y2="100%" id="linearGradient-3">
            <stop stop-color="#8D8D8D" offset="0%"></stop>
            <stop stop-color="#FFFFFF" offset="23.573374%"></stop>
            <stop stop-color="#949494" offset="100%"></stop>
        </linearGradient>
        <linearGradient x1="88.0244927%" y1="7.06549896%" x2="11.6698361%" y2="100%" id="linearGradient-4">
            <stop stop-color="#8D8D8D" offset="0%"></stop>
            <stop stop-color="#FFFFFF" offset="23.573374%"></stop>
            <stop stop-color="#949494" offset="100%"></stop>
        </linearGradient>
        <linearGradient x1="50.0054811%" y1="-0.0592130542%" x2="50.0054811%" y2="99.9749323%" id="linearGradient-5">
            <stop stop-color="#FFFFFF" offset="0%"></stop>
            <stop stop-color="#949494" offset="100%"></stop>
        </linearGradient>
        <linearGradient x1="49.7117069%" y1="100.117211%" x2="49.7117069%" y2="-0.107576716%" id="linearGradient-6">
            <stop stop-color="#FF8E87" offset="0%"></stop>
            <stop stop-color="#B82D71" offset="100%"></stop>
        </linearGradient>
        <linearGradient x1="49.9708802%" y1="-0.0824754738%" x2="49.9708802%" y2="99.9416281%" id="linearGradient-7">
            <stop stop-color="#FF8E87" offset="0%"></stop>
            <stop stop-color="#B82D71" offset="100%"></stop>
        </linearGradient>
    </defs>
    <g id="Page-1" stroke="none" stroke-width="1" fill="none" fill-rule="evenodd">
        <g id="Group">
            <polygon id="Fill-1" fill="url(#linearGradient-1)" fill-rule="nonzero" points="0 2048 2048 2048 2048 0 0 0"></polygon>
            <g transform="translate(192.000000, 192.000000)">
                <g id="GREY">
                    <g id="Fill-1">
                        <g id="path-3-link" fill="#000000" fill-rule="nonzero">
                            <path d="M832,0 C372.50041,0 0,372.498609 0,832 L0,832 C0,1291.49959 372.50041,1664 832,1664 L832,1664 C1291.50139,1664 1664,1291.49959 1664,832 L1664,832 C1664,372.498609 1291.50139,0 832,0 Z M398.252067,1475.38442 C273.487993,1391.1657 175.824386,1272.57302 117.092601,1133.97329 L117.092601,1133.97329 C14.8675297,892.435356 41.7807118,615.576237 188.615576,398.250266 L188.615576,398.250266 C272.834297,273.486192 391.426977,175.822585 530.026714,117.092601 L530.026714,117.092601 C625.559956,76.6679033 728.267646,55.9369195 832,56.1409631 L832,56.1409631 C986.589174,55.8756918 1137.69737,102.025181 1265.76054,188.613775 L1265.76054,188.613775 C1390.52461,272.834297 1488.18822,391.425176 1546.9182,530.024913 L1546.9182,530.024913 C1649.14688,771.568246 1622.22829,1048.43277 1475.38623,1265.76054 L1475.38623,1265.76054 C1391.1657,1390.52461 1272.57482,1488.18822 1133.97509,1546.9164 L1133.97509,1546.9164 C1036.99939,1587.95878 934.293503,1608.18914 832.070232,1608.18914 L832.070232,1608.18914 C679.683455,1608.18914 528.323142,1563.2678 398.252067,1475.38442 L398.252067,1475.38442 Z" id="path-3"></path>
                        </g>
                        <g id="path-3-link" fill="url(#linearGradient-2)">
                            <path d="M832,0 C372.50041,0 0,372.498609 0,832 L0,832 C0,1291.49959 372.50041,1664 832,1664 L832,1664 C1291.50139,1664 1664,1291.49959 1664,832 L1664,832 C1664,372.498609 1291.50139,0 832,0 Z M398.252067,1475.38442 C273.487993,1391.1657 175.824386,1272.57302 117.092601,1133.97329 L117.092601,1133.97329 C14.8675297,892.435356 41.7807118,615.576237 188.615576,398.250266 L188.615576,398.250266 C272.834297,273.486192 391.426977,175.822585 530.026714,117.092601 L530.026714,117.092601 C625.559956,76.6679033 728.267646,55.9369195 832,56.1409631 L832,56.1409631 C986.589174,55.8756918 1137.69737,102.025181 1265.76054,188.613775 L1265.76054,188.613775 C1390.52461,272.834297 1488.18822,391.425176 1546.9182,530.024913 L1546.9182,530.024913 C1649.14688,771.568246 1622.22829,1048.43277 1475.38623,1265.76054 L1475.38623,1265.76054 C1391.1657,1390.52461 1272.57482,1488.18822 1133.97509,1546.9164 L1133.97509,1546.9164 C1036.99939,1587.95878 934.293503,1608.18914 832.070232,1608.18914 L832.070232,1608.18914 C679.683455,1608.18914 528.323142,1563.2678 398.252067,1475.38442 L398.252067,1475.38442 Z" id="path-3"></path>
                        </g>
                    </g>
                    <g id="Fill-19" transform="translate(491.364194, 933.128646)">
                        <g id="path-6-link" fill="#000000" fill-rule="nonzero">
                            <polygon id="path-6" points="0 323.963294 0.128192 379.012324 339.724359 26.803054 313.538313 -1.13686838e-13"></polygon>
                        </g>
                        <g id="path-6-link" fill="url(#linearGradient-3)">
                            <polygon id="path-6" points="0 323.963294 0.128192 379.012324 339.724359 26.803054 313.538313 -1.13686838e-13"></polygon>
                        </g>
                    </g>
                    <g id="Fill-20" transform="translate(598.684361, 986.849588)">
                        <g id="path-9-link" fill="#000000" fill-rule="nonzero">
                            <polygon id="path-9" points="1.72476 270.242352 0 325.291382 284.811743 26.729822 258.69895 0"></polygon>
                        </g>
                        <g id="path-9-link" fill="url(#linearGradient-4)">
                            <polygon id="path-9" points="1.72476 270.242352 0 325.291382 284.811743 26.729822 258.69895 0"></polygon>
                        </g>
                    </g>
                    <polygon id="Fill-19" fill="url(#linearGradient-3)" fill-rule="nonzero" points="491.364194 1257.09194 491.492386 1312.14097 831.088553 959.9317 804.902507 933.128646"></polygon>
                    <polygon id="Fill-20" fill="url(#linearGradient-4)" fill-rule="nonzero" points="600.409121 1257.09194 598.684361 1312.14097 883.496104 1013.57941 857.383311 986.849588"></polygon>
                    <g id="Fill-4" transform="translate(355.524229, 351.859031)">
                        <g id="path-12-link" transform="translate(0.000000, 0.000000)" fill="#000000" fill-rule="nonzero">
                            <polygon id="path-12" points="776.985871 0 -1.13686838e-13 791.473129 -1.13686838e-13 958.617339 408.163684 539.118339 817.967221 958.617339 978.607931 958.617339 978.607931 958.615669 490.124724 455.547066 937.628241 0"></polygon>
                        </g>
                        <g id="path-12-link" transform="translate(0.000000, 0.000000)" fill="url(#linearGradient-5)">
                            <polygon id="path-12" points="776.985871 0 -1.13686838e-13 791.473129 -1.13686838e-13 958.617339 408.163684 539.118339 817.967221 958.617339 978.607931 958.617339 978.607931 958.615669 490.124724 455.547066 937.628241 0"></polygon>
                        </g>
                    </g>
                </g>
                <g id="PEACH" transform="translate(355.524229, 351.859031)">
                    <g id="Fill-16">
                        <g id="path-15-link" fill="#000000" fill-rule="nonzero">
                            <polygon id="path-15" points="0 0 0 527.648196 109.82523 417.859692 109.82523 0"></polygon>
                        </g>
                        <g id="path-15-link" fill="url(#linearGradient-6)">
                            <polygon id="path-15" points="0 0 0 527.648196 109.82523 417.859692 109.82523 0"></polygon>
                        </g>
                    </g>
                    <g id="Fill-10">
                        <g id="path-18-link" fill="#000000" fill-rule="nonzero">
                            <polygon id="path-18" points="529.464558 0 109.826895 417.858028 0 527.648196 0 688.23685 693.384974 0"></polygon>
                        </g>
                        <g id="path-18-link" fill="url(#linearGradient-7)">
                            <polygon id="path-18" points="529.464558 0 109.826895 417.858028 0 527.648196 0 688.23685 693.384974 0"></polygon>
                        </g>
                    </g>
                </g>
            </g>
        </g>
    </g>
</svg>