<!-- by TradingView --><svg width="18" height="18" xmlns="http://www.w3.org/2000/svg"><path fill="url(#paint0_linear)" d="M0 0h18v18H0z"/><path d="M12.907 10.562c-.272-.344-.482-.59-.482-1.251V7.116c0-.926-.063-1.793-.745-2.428C11.134 4.185 10.235 4 9.525 4c-1.5 0-2.84.61-3.168 2.25-.028.186.109.265.218.292l1.422.13c.137 0 .219-.132.246-.264.11-.556.602-1.023 1.148-1.023.3 0 .892.302.892.937v.794c-.874 0-1.849.059-2.613.376C6.77 7.863 6 8.574 6 9.712c0 1.455 1.12 2.25 2.32 2.25 1.01 0 1.56-.262 2.35-1.03.247.37.399.634.863 1.03.11.054.246.054.327-.025.272-.24.748-.74 1.047-.978.137-.107.11-.265 0-.397zM10.283 8.5c0 .529-.103 1.849-1.44 1.849-.687 0-.701-.81-.701-.81 0-1.04 1.104-1.386 2.141-1.386v.347z" fill="#fff"/><path d="M13.123 12.897C12.013 13.58 10.352 14 9.005 14a8.229 8.229 0 01-4.961-1.633c-.106-.088 0-.176.106-.132a11.035 11.035 0 004.828 1.08c1.215 0 2.746-.22 3.986-.661.184-.044.343.132.159.243zm.396-.464c-.132-.154-.924-.066-1.267-.044-.107 0-.132-.066-.027-.132.607-.376 1.636-.265 1.742-.133.105.133-.027.993-.607 1.39-.08.067-.185.022-.132-.043.132-.266.423-.883.29-1.038z" fill="#FFB300"/><defs><linearGradient id="paint0_linear" x1="3.349" y1="3.122" x2="21.904" y2="24.434" gradientUnits="userSpaceOnUse"><stop stop-color="#1A1E21"/><stop offset="1" stop-color="#06060A"/></linearGradient></defs></svg>