<!-- by TradingView --><svg width="18" height="18" xmlns="http://www.w3.org/2000/svg"><path fill="#D9232E" d="M0 0h18v18H0z"/><path d="M11.488 9.97L15 9.322l-2.927-.6 1.561-1.754-2.732.646.488-2.538-1.853 1.2L8.659 3l-.781 3.738-2.244-1.661.732 2.261L4.22 6.97l1.853 1.846-3.073.6 3.122.647L4.854 11.4l1.95-.139-.877 2.493 2.146-2.077L8.707 15l.683-3.323 1.659 1.662-.195-2.078 2.39.785-1.756-2.077zm-1.22-.878c0 .785-.634 1.385-1.463 1.385-.83 0-1.464-.6-1.464-1.385 0-.784.635-1.384 1.464-1.384.83 0 1.463.6 1.463 1.384z" fill="#fff"/></svg>