<?xml version="1.0" encoding="utf-8"?>
<!-- Generator: Adobe Illustrator 16.0.0, SVG Export Plug-In . SVG Version: 6.00 Build 0)  -->
<!DOCTYPE svg PUBLIC "-//W3C//DTD SVG 1.1//EN" "http://www.w3.org/Graphics/SVG/1.1/DTD/svg11.dtd">
<svg version="1.1" id="Layer_1" xmlns="http://www.w3.org/2000/svg" xmlns:xlink="http://www.w3.org/1999/xlink" x="0px" y="0px"
	 width="352.525px" height="397.979px" viewBox="0 0 352.525 397.979" enable-background="new 0 0 352.525 397.979"
	 xml:space="preserve">
<g>
	<path d="M127.679,256.231c-7.371,0-14.407-1.441-20.861-4.033L25.364,391.963c6.792,2.175,14.515,1.713,21.549-2.351
		l287.896-166.29c6.735-3.891,10.938-9.973,12.609-16.599H183.445C180.135,234.565,156.397,256.231,127.679,256.231z"/>
	<path d="M71.505,200.058c0-18.663,9.157-35.219,23.205-45.44L13.675,15.572C9.335,20.25,6.583,26.538,6.583,33.785v332.544
		c0,7.444,2.909,13.875,7.455,18.589L95.121,245.79C80.841,235.595,71.505,218.901,71.505,200.058z"/>
	<path d="M127.679,155.884c-24.358,0-44.174,19.816-44.174,44.174s19.816,44.174,44.174,44.174s44.174-19.816,44.174-44.174
		S152.037,155.884,127.679,155.884z"/>
	<path d="M127.679,143.884c28.718,0,52.455,21.665,55.766,49.507h163.979c-1.666-6.638-5.869-12.731-12.615-16.628L46.913,10.502
		c-7.205-4.161-15.133-4.553-22.04-2.196l81.472,139.798C112.927,145.391,120.129,143.884,127.679,143.884z"/>
	<path fill="#FFFFFF" d="M347.424,193.391H183.445c-3.311-27.842-27.048-49.507-55.766-49.507c-7.55,0-14.752,1.507-21.334,4.22
		L24.873,8.306c-4.259,1.454-8.125,3.955-11.198,7.267l81.035,139.045c-14.048,10.222-23.205,26.777-23.205,45.44
		c0,18.844,9.336,35.537,23.616,45.732L14.038,384.918c3.132,3.247,7.041,5.672,11.326,7.045l81.454-139.765
		c6.455,2.592,13.491,4.033,20.861,4.033c28.718,0,52.456-21.666,55.766-49.508h163.974
		C348.52,202.358,348.522,197.757,347.424,193.391z M127.679,244.231c-24.358,0-44.174-19.816-44.174-44.174
		s19.816-44.174,44.174-44.174s44.174,19.816,44.174,44.174S152.037,244.231,127.679,244.231z"/>
</g>
<circle fill="#FFFFFF" cx="127.679" cy="200.058" r="28.667"/>
</svg>
