<svg xmlns="http://www.w3.org/2000/svg" xmlns:xlink="http://www.w3.org/1999/xlink" width="256" height="256" viewBox="0 0 256 256"><defs><linearGradient id="a" x1="0.843" y1="0.135" x2="0.206" y2="0.886" gradientUnits="objectBoundingBox"><stop offset="0" stop-color="#b6509e"/><stop offset="1" stop-color="#2ebac6"/></linearGradient><linearGradient id="b" x1="0.5" y1="1.142" x2="0.5" y2="-0.105" gradientUnits="objectBoundingBox"><stop offset="0" stop-color="#f9a606"/><stop offset="1" stop-color="#fbcc5f"/></linearGradient><clipPath id="d"><rect width="256" height="256"/></clipPath></defs><g id="c" clip-path="url(#d)"><g transform="translate(-20 -20)"><path d="M128,256a128.976,128.976,0,0,1-25.8-2.6,127.309,127.309,0,0,1-45.77-19.261,128.366,128.366,0,0,1-46.375-56.315A127.357,127.357,0,0,1,2.6,153.8a129.251,129.251,0,0,1,0-51.593,127.31,127.31,0,0,1,19.26-45.77A128.372,128.372,0,0,1,78.177,10.059,127.33,127.33,0,0,1,102.2,2.6a129.244,129.244,0,0,1,51.593,0,127.308,127.308,0,0,1,45.77,19.26,128.367,128.367,0,0,1,46.375,56.316A127.343,127.343,0,0,1,253.4,102.2a129.248,129.248,0,0,1,0,51.593,127.3,127.3,0,0,1-19.26,45.77,128.382,128.382,0,0,1-56.316,46.375A127.4,127.4,0,0,1,153.8,253.4,128.977,128.977,0,0,1,128,256Zm0-242.287a115.145,115.145,0,0,0-23.033,2.322A113.657,113.657,0,0,0,64.1,33.232,114.622,114.622,0,0,0,22.7,83.515a113.7,113.7,0,0,0-6.659,21.452,115.4,115.4,0,0,0,0,46.065,113.66,113.66,0,0,0,17.2,40.866,114.627,114.627,0,0,0,50.282,41.407,113.75,113.75,0,0,0,21.453,6.658,115.381,115.381,0,0,0,46.065,0,113.609,113.609,0,0,0,40.866-17.2A114.622,114.622,0,0,0,233.3,172.485a113.741,113.741,0,0,0,6.659-21.453,115.4,115.4,0,0,0,0-46.065,113.662,113.662,0,0,0-17.2-40.865A114.619,114.619,0,0,0,172.485,22.7a113.74,113.74,0,0,0-21.453-6.659A115.145,115.145,0,0,0,128,13.714Z" transform="translate(20 20)" fill="url(#a)"/><g transform="translate(49.714 49.714)"><circle cx="98.285" cy="98.285" r="98.285" fill="url(#b)"/><path d="M255.073,188.843H243.409c-6.421-17.822-23.687-30.043-46.456-30.043H159.506v30.043H146.5v10.779h13.006v11.3H146.5V221.7h13.006v29.682h37.447c22.507,0,39.642-12.122,46.227-29.682h11.893V210.924H245.8a48.891,48.891,0,0,0,.36-5.832v-.262c0-1.769-.1-3.506-.262-5.209h9.206V188.843ZM169.99,168.4h26.963c16.708,0,29.125,8.223,34.859,20.411H169.99V168.4Zm26.963,73.288H169.99V221.67h61.756C225.98,233.661,213.6,241.687,196.953,241.687Zm38.364-36.366a38.768,38.768,0,0,1-.393,5.57H169.99v-11.3h64.967a42.631,42.631,0,0,1,.36,5.471Z" transform="translate(-98.504 -106.774)" fill="#fff"/></g></g></g></svg>