<svg width="1000" height="1000" viewBox="0 0 1000 1000" fill="none" xmlns="http://www.w3.org/2000/svg">
<circle cx="500" cy="500" r="500" fill="#5842CF"/>
<path fill-rule="evenodd" clip-rule="evenodd" d="M767.565 654.045L767.554 345.007L499.667 190.329L499.679 499.49L231.864 654.1L499.762 808.757L767.403 654.248L767.565 654.342V654.155L767.66 654.1L767.565 654.045Z" fill="#64C557"/>
<path d="M231.949 345.007L499.835 190.329L499.824 499.664L231.937 654.342L231.949 345.007Z" fill="#80FFDB"/>
<path d="M499.863 190.036L767.761 344.694L678.462 396.246L410.564 241.589L499.863 190.036Z" fill="#92DBDB"/>
<path d="M678.263 396.153L678.267 499.265L410.381 344.587L410.377 241.475L678.263 396.153Z" fill="#53C2C2"/>
<path d="M410.198 344.739L678.096 499.397L588.797 550.949L320.899 396.292L410.198 344.739Z" fill="#85CDE2"/>
<path d="M589.863 551.488L589.866 654.6L321.98 499.922L321.976 396.81L589.863 551.488Z" fill="#0AA7D7"/>
<path d="M321.164 499.442L589.062 654.1L499.763 705.652L231.865 550.995L321.164 499.442Z" fill="#87ADDA"/>
<path d="M499.566 705.56L499.57 808.671L231.684 653.994L231.68 550.882L499.566 705.56Z" fill="#267FE9"/>
<path d="M678.378 396.185L767.674 344.626L767.662 653.961L678.367 705.521L678.378 396.185Z" fill="#64DFDF"/>
<path d="M588.896 550.888L678.191 499.329L678.183 705.553L588.888 757.112L588.896 550.888Z" fill="#48BFE3"/>
<path d="M499.413 705.592L588.709 654.033L588.705 757.144L499.409 808.703L499.413 705.592Z" fill="#5390D9"/>
</svg>
