<svg clip-rule="evenodd" fill-rule="evenodd" viewBox="0 0 560 400" xmlns="http://www.w3.org/2000/svg"><g transform="matrix(.527079 0 0 .527079 571.412 -63.4561)"><circle cx="-552.88" cy="499.841" r="284.587" stroke="#000" stroke-width="1.24"/><path d="m-679.008 337.662-19.08 19.08 24.14 24.139 24.193 24.14-2.003 5.903c-2.583 7.748-3.637 14.231-3.637 22.823 0 27.987 14.653 51.811 40.585 65.989 10.436 5.692 28.356 12.123 48.226 17.235 38.793 9.962 44.749 11.701 52.391 15.285 10.436 4.955 15.602 10.331 17.763 18.448.948 3.531.896 11.437-.053 15.232-2.425 9.224-10.278 18.5-20.029 23.56-13.177 6.905-36.104 8.802-53.392 4.375-6.43-1.581-15.549-6.062-20.134-9.804-9.329-7.695-16.603-20.977-19.818-36.315-.527-2.424-.949-4.48-1.001-4.585-.159-.211-54.131 5.059-54.394 5.376-.211.158-.053 2.372.316 4.901 1.687 12.176 5.956 26.67 10.858 36.737l2.846 5.851-23.455 23.454-23.402 23.455 19.133 19.133 19.08 19.08 48.332-48.333 4.164 1.74c22.032 9.276 55.079 12.175 87.125 7.537 7.695-1.107 18.816-3.742 24.667-5.903l3.479-1.265 23.138 23.138 23.086 23.086 38.212-38.213-21.451-21.452-21.399-21.399 2.688-5.481c5.587-11.227 7.906-20.767 8.38-33.891.843-25.036-5.64-43.905-20.398-59.454-15.39-16.181-32.731-23.876-81.696-36.209-34.523-8.644-49.386-14.6-55.289-22.085-5.851-7.379-6.378-17.709-1.265-25.246 2.951-4.375 10.225-9.066 18.131-11.701 8.907-3.005 23.876-4.375 34.997-3.215 23.455 2.477 35.261 12.491 40.427 34.417.632 2.688 1.212 4.955 1.265 5.06.105.158 38.265-1.212 49.703-1.792l6.535-.316-.369-4.586c-.738-9.329-2.582-17.656-5.956-26.353l-1.844-4.902 23.77-23.824 23.771-23.77-19.08-19.133-19.132-19.08-48.122 48.121-5.85-2.213c-14.389-5.376-28.304-7.748-48.807-8.328-22.401-.58-42.06 2.319-57.135 8.433l-5.587 2.267-24.245-24.14-24.245-24.14z" fill="#fff" fill-rule="nonzero"/></g></svg>