<svg id="Layer_1" data-name="Layer 1" xmlns="http://www.w3.org/2000/svg" viewBox="0 0 245 245">
    <defs>
        <style>.cls-1{fill:#0e560e;}.cls-2{fill:#48c148;}</style>
    </defs>
    <path class="cls-1" d="M93.86,80.26h.19v0h0a37.52,37.52,0,0,1-34.75-23.4A37.22,37.22,0,0,0,56.5,70.93V174A37.49,37.49,0,0,0,94,211.5h0A37.5,37.5,0,0,0,131.52,174V117.89A37.64,37.64,0,0,0,93.86,80.26Z" />
    <path class="cls-2" d="M130.43,34a65.29,65.29,0,0,0-7.56-.45H94a37.45,37.45,0,0,0-34.7,23.36A37.52,37.52,0,0,0,94,80.26h0v0a37.64,37.64,0,0,1,37.47,37.62v46.2A65.57,65.57,0,0,0,130.43,34Z" />
    <path class="cls-2" d="M68.44,107a2.92,2.92,0,0,1-2.07-.86,13,13,0,0,1,0-18.41,2.93,2.93,0,0,1,4.14,4.14,7.16,7.16,0,0,0,0,10.13,2.93,2.93,0,0,1-2.07,5Z" />
    <path class="cls-2" d="M68.44,139.37a2.92,2.92,0,0,1-2.07-.86,13,13,0,0,1,0-18.41,2.93,2.93,0,0,1,4.14,4.14,7.16,7.16,0,0,0,0,10.13,2.93,2.93,0,0,1-2.07,5Z" />
    <path class="cls-2" d="M68.44,171.76a2.91,2.91,0,0,1-2.07-.85,13,13,0,0,1,0-18.42,2.93,2.93,0,0,1,4.14,4.14,7.17,7.17,0,0,0,0,10.14,2.92,2.92,0,0,1-2.07,5Z" />
    <path class="cls-2" d="M83.32,123.17a2.92,2.92,0,0,1-2.07-.86,13,13,0,0,1,0-18.41A2.93,2.93,0,0,1,85.39,108a7.18,7.18,0,0,0,0,10.13,2.93,2.93,0,0,1-2.07,5Z" />
    <path class="cls-2" d="M83.32,155.56a2.91,2.91,0,0,1-2.07-.85,13,13,0,0,1,0-18.42,2.93,2.93,0,0,1,4.14,4.14,7.19,7.19,0,0,0,0,10.14,2.92,2.92,0,0,1-2.07,5Z" />
</svg>