<?xml version="1.0" encoding="UTF-8" standalone="no"?>
<!-- Created with Inkscape (http://www.inkscape.org/) -->

<svg
   width="1098.3"
   height="141.51"
   version="1.1"
   viewBox="0 0 1098.3 141.51"
   xml:space="preserve"
   id="svg22"
   sodipodi:docname="logo.svg"
   inkscape:version="1.1.1 (3bf5ae0d25, 2021-09-20)"
   xmlns:inkscape="http://www.inkscape.org/namespaces/inkscape"
   xmlns:sodipodi="http://sodipodi.sourceforge.net/DTD/sodipodi-0.dtd"
   xmlns="http://www.w3.org/2000/svg"
   xmlns:svg="http://www.w3.org/2000/svg"><defs
     id="defs26" /><sodipodi:namedview
     id="namedview24"
     pagecolor="#ffffff"
     bordercolor="#666666"
     borderopacity="1.0"
     inkscape:pageshadow="2"
     inkscape:pageopacity="0.0"
     inkscape:pagecheckerboard="0"
     showgrid="false"
     inkscape:zoom="1.7656783"
     inkscape:cx="626.38818"
     inkscape:cy="25.202779"
     inkscape:window-width="1920"
     inkscape:window-height="1016"
     inkscape:window-x="0"
     inkscape:window-y="34"
     inkscape:window-maximized="1"
     inkscape:current-layer="svg22" /><g
     transform="matrix(1.3333,0,0,-1.3333032,0,141.51034)"
     id="g20"
     style="fill:#ff66f5;fill-opacity:1"><g
       transform="scale(0.1)"
       fill="#191716"
       id="g18"
       style="fill:#ff66f5;fill-opacity:1"><path
         d="m 764.94,304.32 c -12.148,11.66 -12.347,31.016 -0.441,42.91 v 0.008 c 11.449,11.446 29.922,11.762 41.75,0.696 l 129.93,-121.52 c 70.512,87.793 112.7,198.58 112.7,319.14 0,284.82 -234.8,515.71 -524.44,515.71 -289.64,0 -524.44,-230.89 -524.44,-515.71 0,-262.33 199.24,-478.75 457,-511.32 22.098,-2.7891 44.574,-4.3789 67.441,-4.3789 h 526.6 l -286.1,274.47"
         id="path2"
         style="fill:#ff66f5;fill-opacity:1" /><path
         d="m 1117.2,1022.6 c -5.31,0 -9.76,-4.15 -10.04,-9.46 -0.39,-7.66 -0.64,-15.372 -0.64,-23.138 v -465.33 c 0,-272.14 222.66,-494.81 494.81,-494.81 272.15,0 494.82,222.66 494.82,494.81 v 465.33 c 0,7.766 -0.25,15.478 -0.64,23.138 -0.28,5.31 -4.73,9.46 -10.04,9.46 H 1117.2"
         id="path4"
         style="fill:#ff66f5;fill-opacity:1" /><path
         d="m 2825,365.65 c -25.51,0.364 -43.09,32.207 -16.69,57.762 1.82,1.762 4.37,2.68 6.91,2.68 l 183.54,-0.078 c 5.52,0 10,4.48 10,10 v 201.41 c 0,5.531 -4.49,10.008 -10.02,10 L 2825,647.135 c -25.52,0.359 -43.09,32.207 -16.69,57.758 1.82,1.761 4.37,2.679 6.91,2.679 l 183.54,-0.078 c 5.52,0 10,4.481 10,10 v 302.5 c 0,5.53 -4.48,10 -10,10 h -808.15 c -5.52,0 -10,-4.47 -10,-10 V 59.264 c 0,-5.5312 4.48,-10 10,-10 h 808.15 c 5.52,0 10,4.4688 10,10 v 296.68 c 0,5.528 -4.49,10.008 -10.02,10 L 2825,365.651"
         id="path6"
         style="fill:#ff66f5;fill-opacity:1" /><path
         d="m 3730.2,365.65 c -25.52,0.364 -43.09,32.207 -16.7,57.762 1.82,1.762 4.37,2.68 6.91,2.68 l 183.54,-0.078 c 5.52,0 10,4.48 10,10 v 201.41 c 0,5.531 -4.49,10.008 -10.01,10 l -173.74,-0.289 c -25.52,0.359 -43.09,32.207 -16.69,57.758 1.82,1.761 4.37,2.679 6.9,2.679 l 183.54,-0.078 c 5.52,0 10,4.481 10,10 v 302.5 c 0,5.53 -4.48,10 -10,10 h -808.14 c -5.53,0 -10,-4.47 -10,-10 V 59.264 c 0,-5.5312 4.47,-10 10,-10 h 808.14 c 5.52,0 10,4.4688 10,10 v 296.68 c 0,5.528 -4.49,10.008 -10.01,10 l -173.74,-0.293"
         id="path8"
         style="fill:#ff66f5;fill-opacity:1" /><path
         d="m 5582.1,1025.6 h -496.67 c -5.52,0 -10,-4.48 -10,-10 V 53.38 c 0,-5.5195 4.48,-10 10,-10 h 496.67 c 270.11,0 491.1,221 491.1,491.11 0,270.11 -220.99,491.11 -491.1,491.11"
         id="path10"
         style="fill:#ff66f5;fill-opacity:1" /><path
         d="m 7172.1,528.88 c 0,-292.09 -236.79,-528.89 -528.89,-528.89 -292.09,0 -528.88,236.8 -528.88,528.89 0,292.1 236.79,528.89 528.88,528.89 292.1,0 528.89,-236.79 528.89,-528.89"
         id="path12"
         style="fill:#ff66f5;fill-opacity:1" /><path
         d="M 7228.7,1047.4 V 53.3 c 0,-5.5195 4.47,-10 10,-10 h 988.89 c 5.53,0 10,4.4805 10,10 v 994.53 c 0,8.22 -9.38,12.93 -15.98,8.02 l -491.28,-365.8 c -3.59,-2.676 -8.52,-2.633 -12.08,0.102 l -473.45,365.17 c -6.57,5.07 -16.1,0.38 -16.1,-7.92"
         id="path14"
         style="fill:#ff66f5;fill-opacity:1" /><path
         d="M 4493.2,1020 V 681.04 c 0,-8.23 -9.38,-12.937 -15.97,-8.019 l -462.86,345.07 c -6.6,4.91 -15.98,0.2 -15.98,-8.02 V 53.331 c 0,-5.5195 4.47,-10 10,-10 h 978.52 c 5.51,0 10,4.4805 10,10 v 966.66 c 0,5.53 -4.49,10 -10,10 H 4503.2 c -5.52,0 -10,-4.47 -10,-10"
         id="path16"
         style="fill:#ff66f5;fill-opacity:1" /></g></g></svg>
