<svg width="200" height="200" viewBox="0 0 200 200" fill="none" xmlns="http://www.w3.org/2000/svg">
<path d="M200 100C200 155.228 155.228 200 100 200C44.7715 200 0 155.228 0 100C0 44.7715 44.7715 0 100 0C155.228 0 200 44.7715 200 100Z" fill="#0D0F35"/>
<path d="M51.5645 140.978C52.4272 140.392 53.2325 139.514 53.6335 138.268C54.0792 136.883 53.8165 135.664 53.6077 134.99C53.6007 134.967 53.5936 134.945 53.5863 134.922L53.7527 133.951C54.2116 134.209 54.7401 134.557 55.3432 134.981C55.4883 135.083 55.6913 135.227 55.9027 135.378C56.1804 135.576 56.4727 135.785 56.668 135.921C57.0025 136.154 57.4784 136.478 57.9821 136.746C71.3172 145.034 82.3456 148.451 91.105 148.028C100.161 147.59 106.512 143.034 109.788 136.386C112.954 129.96 113.065 121.996 110.846 114.619C108.612 107.195 103.916 99.9795 96.9146 94.9861C85.1178 86.5721 74.3084 73.7787 68.8423 62.9C66.0665 57.3756 64.9621 52.9196 65.2535 50.0104C65.3891 48.6567 65.8039 47.8376 66.3002 47.3103C66.7969 46.7827 67.7015 46.2009 69.4446 45.9138C73.1367 45.3057 77.4068 43.976 81.74 42.6267C83.4225 42.1028 85.1145 41.5759 86.7858 41.0872C93.0317 39.2607 99.6442 37.7263 106.594 37.7394C120.075 37.7647 135.896 43.6175 152.553 67.9651C173.951 99.242 162.203 134.192 137.552 152.553C125.259 161.71 109.92 166.57 94.1584 164.722C79.9664 163.058 65.1018 155.916 51.5645 140.978ZM54.0462 132.883C54.0465 132.884 54.0418 132.893 54.0309 132.909C54.0404 132.89 54.0459 132.882 54.0462 132.883ZM52.7067 133.494C52.7061 133.493 52.7197 133.494 52.7495 133.502C52.7221 133.499 52.7072 133.495 52.7067 133.494Z" fill="#FFD15C" stroke="#FFD15C" stroke-width="8.05261"/>
<path d="M63.814 47.511C63.814 47.511 102.041 37.3321 110.411 37.3321C118.78 37.3321 152.223 53.5723 161.983 83.2501C175.82 125.323 138.185 152.909 133.935 150.204C174.424 116.727 108.149 54.8469 75.5762 59.4994C71.5047 60.081 73.7666 63.5709 73.7666 63.5709L72.8618 72.6188L66.0759 61.309L63.814 47.511Z" fill="#FFD15C"/>
<path d="M156.414 70.5946C168.486 91.8448 165.977 79.6784 163.297 103.971C168.256 95.9486 176.01 101.955 179.213 105.023C179.787 105.572 180.734 105.232 180.707 104.437C180.585 100.834 179.553 93.0479 173.588 84.6945C165.409 73.2402 156.414 70.5946 156.414 70.5946Z" fill="#FFD15C"/>
<path d="M163.297 103.971C165.977 79.6784 168.486 91.8448 156.414 70.5946C156.414 70.5946 165.409 73.2402 173.588 84.6945C179.553 93.0479 180.585 100.834 180.707 104.437C180.734 105.232 179.787 105.572 179.213 105.023C176.01 101.955 168.256 95.9486 163.297 103.971ZM163.297 103.971C163.759 102.83 164.479 101.05 164.479 101.05" stroke="#FFD15C" stroke-width="0.452394"/>
<path d="M59.2917 100.73C54.1987 109.353 43.7485 108.707 43.9485 118.991C53.2824 139.729 53.3376 138.242 53.3376 138.242C70.6271 128.529 63.522 107.083 60.9565 100.775C60.6665 100.062 59.6831 100.068 59.2917 100.73Z" fill="#FFD15C"/>
<path d="M20.0999 119.796C30.0306 121.092 35.9546 112.458 43.9359 118.948C54.5311 139.071 53.3249 138.198 53.3249 138.198C35.0267 145.843 22.5012 127.04 19.1102 121.135C18.7269 120.468 19.3367 119.696 20.0999 119.796Z" fill="#FFD15C"/>
<path d="M103.398 107.002C103.398 107.002 113.351 117.182 108.149 118.764C101.661 114.771 90.0363 117.874 84.3382 119.796C82.9354 120.269 81.56 119.024 82.0657 117.633C84.0034 112.301 88.7878 102.432 97.9697 101.121C103.398 99.7625 103.398 107.002 103.398 107.002Z" fill="#FFD15C"/>
<path d="M109.506 57.2374C108.375 55.6541 106.113 51.3563 113.125 51.3563C120.137 51.3563 130.851 59.2962 133.03 62.2332C132.352 64.0234 127.828 64.4236 125.566 64.2496C123.304 64.0756 119.458 63.7035 116.518 62.2332C113.577 60.7629 110.637 58.8208 109.506 57.2374Z" fill="#FFD15C"/>
</svg>
