<svg xmlns="http://www.w3.org/2000/svg" xmlns:xlink="http://www.w3.org/1999/xlink" viewBox="0 0 145.2 182.2"><defs><style>.cls-1{fill:url(#Unbenannter_Verlauf_95);}</style><linearGradient id="Unbenannter_Verlauf_95" x1="74.37" y1="11.05" x2="68.38" y2="183.38" gradientUnits="userSpaceOnUse"><stop offset="0" stop-color="#00f0dd"/><stop offset="0.17" stop-color="#2ec4e4"/><stop offset="0.47" stop-color="#787ef0"/><stop offset="0.72" stop-color="#ae4bf8"/><stop offset="0.9" stop-color="#cf2bfd"/><stop offset="1" stop-color="#dc1fff"/></linearGradient></defs><title>Element 3</title><g id="Ebene_2" data-name="Ebene 2"><g id="Ebene_1-2" data-name="Ebene 1"><g id="line"><path class="cls-1" d="M74.37,182.2a24.8,24.8,0,0,1-24.78-24.76,24.34,24.34,0,0,1,1.33-7.89,24.52,24.52,0,0,1-18.79-27.67,24.29,24.29,0,0,1,1-4.11,24.85,24.85,0,0,1-12.82-7.68,24.58,24.58,0,0,1-6.13-17.94,24.21,24.21,0,0,1,1.63-7.22,24.7,24.7,0,0,1,8.84-47.77,24.83,24.83,0,0,1,16.07,5.89,24.85,24.85,0,0,1,2.49-1.91c.33-.21.68-.39,1-.57l.49-.25a24.48,24.48,0,0,1,2.76-1.38c.39-.15.79-.27,1.19-.39l.51-.15a26.19,26.19,0,0,1,2.91-.79c.37-.07.75-.1,1.13-.14l.51,0a25.42,25.42,0,0,1,3-.23c.44,0,.8,0,1.15.07l.5.05a24.29,24.29,0,0,1,3.16.37,12.09,12.09,0,0,1,1.18.32l.55.16a26.13,26.13,0,0,1,2.8.89c.56.24,1.1.53,1.65.83l.53.29.62.3a10.48,10.48,0,0,1,1.19.63c.64.46,1.06.8,1.45,1.12C68.91,29.78,64,13.37,50,8.87a29.81,29.81,0,0,0-9-1.78c-7.15,0-14.37,4.08-26.63,15a3.54,3.54,0,0,1-2.36.9,3.53,3.53,0,0,1-2.35-6.17C23.15,4.73,31.92,0,40.85,0A35,35,0,0,1,52.24,2.19C60.42,5,65.81,9.31,71.38,19.41a72,72,0,0,0,10.86.87h0c25.51,0,32.87-15.78,33.17-16.45a3.56,3.56,0,0,1,3.23-2.09,3.54,3.54,0,0,1,3.23,5c-.37.85-9.44,20.7-39.54,20.7a73.31,73.31,0,0,1-7.78-.48,103.12,103.12,0,0,1,3.66,12.6,25.31,25.31,0,0,1,10.53-2.32A24.32,24.32,0,0,1,102,41.1,23.75,23.75,0,0,1,104.46,43a24.5,24.5,0,0,1,15.92-5.86,25,25,0,0,1,23.14,15.8,24.68,24.68,0,0,1-8.57,29,24.37,24.37,0,0,1,3,14.54,24.93,24.93,0,0,1-22.3,22,22.24,22.24,0,0,1,1.1,5.32,24.55,24.55,0,0,1-5.91,18,24.27,24.27,0,0,1-13,7.83,24.39,24.39,0,0,1,1.33,7.89A24.8,24.8,0,0,1,74.37,182.2Zm0-42.46a17.69,17.69,0,1,0,0,35.38h.76a17.7,17.7,0,0,0-.76-35.38Zm-17.8-31.83a17.67,17.67,0,0,0-14.19,28.17,17.72,17.72,0,0,0,11.8,7,25,25,0,0,1,14.45-9.72,22.85,22.85,0,0,1-1.28-5.91,24.52,24.52,0,0,1,2.74-13.34A17.68,17.68,0,0,0,56.57,107.91Zm19.3,24.86a24.85,24.85,0,0,1,18.67,10.29,17.66,17.66,0,0,0-2.47-35.15c-.45,0-.91,0-1.37,0a17.66,17.66,0,0,0-14.83,24.81Zm37.45-21.35a17.69,17.69,0,0,0,1.91-35.27,18.46,18.46,0,0,0-2-.1,17.68,17.68,0,0,0-15.86,25.49,24.64,24.64,0,0,1,14.77,9.85C112.57,111.41,112.94,111.42,113.32,111.42ZM38.94,76A17.69,17.69,0,0,0,21.27,92.6a17.52,17.52,0,0,0,4.38,12.81A17.72,17.72,0,0,0,36,111.17a4.35,4.35,0,0,0,.52.06,23.58,23.58,0,0,1,13.56-9.47,24.48,24.48,0,0,1,1.59-20.33A17.72,17.72,0,0,0,38.94,76Zm18.55,24.9a24.77,24.77,0,0,1,16.8,7.44A24.58,24.58,0,0,1,89.62,101a24.77,24.77,0,0,1,0-14.37A17.65,17.65,0,0,0,56.05,97,16.49,16.49,0,0,0,57.49,100.93Zm16-32.29A24,24,0,0,1,93.46,79a24.16,24.16,0,0,1,5.25-5.24,25.35,25.35,0,0,1-1.39-3,24.57,24.57,0,0,1,.44-18.95,24.07,24.07,0,0,1,2-3.63A14.8,14.8,0,0,0,98.15,47a17.67,17.67,0,0,0-26.9,18.5,16.9,16.9,0,0,0,1,3.14C72.69,68.65,73.11,68.64,73.53,68.64ZM24.71,44.21a17.65,17.65,0,0,0-5.38,34.46,23.8,23.8,0,0,1,3.24-3.54,24.67,24.67,0,0,1,10.67-5.42c-.27-.81-.5-1.64-.69-2.47l-.1-.49a25.26,25.26,0,0,1-.5-4.41,24.59,24.59,0,0,1,1.61-9.23c.09-.24.2-.48.31-.72a26.27,26.27,0,0,1,1.68-3.29,7.35,7.35,0,0,1,.36-.69l.11-.14A17.75,17.75,0,0,0,24.71,44.21ZM113.38,69a23.07,23.07,0,0,1,2.61.14A24.74,24.74,0,0,1,130.8,76.2a17.7,17.7,0,0,0,6.13-20.73A17.71,17.71,0,0,0,114,45.38a17.69,17.69,0,0,0-10.11,22.89,17.08,17.08,0,0,0,1,2.21A24.72,24.72,0,0,1,113.38,69Zm-72.89.1a24.52,24.52,0,0,1,15.44,6.7A24.59,24.59,0,0,1,65.22,70a22.12,22.12,0,0,1-.88-3,24.56,24.56,0,0,1,3.43-18.61l.09-.13a17.74,17.74,0,0,0-11.27-4,17.64,17.64,0,0,0-16.1,24.83Z"/></g></g></g></svg>