<svg width="347" height="347" viewBox="0 0 347 347" fill="none" xmlns="http://www.w3.org/2000/svg">
<circle cx="173.522" cy="173.662" r="168.264" fill="#FFB800" stroke="#FFB800" stroke-width="10"/>
<circle cx="173.523" cy="173.662" r="162.666" fill="#FFB800" stroke="white" stroke-width="12"/>
<path d="M134.563 125.57L167.343 202.79L196.823 125.57H253.363V138.33H233.783V248.11H253.363V260.87H196.823V161.87L158.983 260.43L158.763 260.21L158.543 260.87H151.723L110.143 160.55V248.11H129.723V260.87H76.703V248.11H96.283V138.33H76.703V125.57H134.563Z" fill="white"/>
<path d="M254.19 96.2117H257.14L264.69 94.7617V98.1117C264.824 97.9117 265.057 97.6284 265.39 97.2617C265.757 96.8951 266.224 96.5451 266.79 96.2117C267.357 95.8784 268.04 95.5951 268.84 95.3617C269.674 95.0951 270.64 94.9617 271.74 94.9617C272.374 94.9617 273.024 95.0117 273.69 95.1117C274.357 95.2117 274.974 95.3784 275.54 95.6117C276.14 95.8451 276.674 96.1617 277.14 96.5617C277.607 96.9617 277.94 97.4784 278.14 98.1117C278.24 97.9784 278.44 97.7451 278.74 97.4117C279.04 97.0451 279.457 96.6784 279.99 96.3117C280.557 95.9451 281.257 95.6284 282.09 95.3617C282.924 95.0951 283.924 94.9617 285.09 94.9617C285.857 94.9617 286.624 95.0284 287.39 95.1617C288.19 95.2951 288.907 95.5451 289.54 95.9117C290.207 96.2451 290.74 96.7117 291.14 97.3117C291.54 97.9117 291.74 98.6951 291.74 99.6617V115.212H294.69V117.762H283.84V98.0617L283.69 98.0117C283.624 97.9784 283.524 97.9617 283.39 97.9617C283.257 97.9284 283.057 97.9117 282.79 97.9117C282.224 97.9117 281.69 98.0617 281.19 98.3617C280.724 98.6617 280.29 99.0117 279.89 99.4117C279.524 99.7784 279.207 100.162 278.94 100.562C278.674 100.928 278.49 101.195 278.39 101.362V115.212H281.34V117.762H270.49V98.0617L270.34 98.0117C270.274 97.9784 270.174 97.9617 270.04 97.9617C269.907 97.9284 269.707 97.9117 269.44 97.9117C268.874 97.9117 268.34 98.0617 267.84 98.3617C267.374 98.6617 266.94 99.0117 266.54 99.4117C266.174 99.7784 265.857 100.162 265.59 100.562C265.324 100.928 265.14 101.195 265.04 101.362V115.212H267.99V117.762H254.19V115.212H257.14V98.7117H254.19V96.2117Z" fill="white"/>
</svg>
