<svg xmlns="http://www.w3.org/2000/svg" xmlns:xlink="http://www.w3.org/1999/xlink" width="256" height="256" viewBox="0 0 256 256"><defs><filter id="a" x="27" y="28" width="202" height="202" filterUnits="userSpaceOnUse"><feOffset dy="1" input="SourceAlpha"/><feGaussianBlur stdDeviation="1" result="b"/><feFlood flood-opacity="0.161"/><feComposite operator="in" in2="b"/><feComposite in="SourceGraphic"/></filter><linearGradient id="c" x1="0.843" y1="0.135" x2="0.206" y2="0.886" gradientUnits="objectBoundingBox"><stop offset="0" stop-color="#b6509e"/><stop offset="1" stop-color="#2ebac6"/></linearGradient><clipPath id="e"><rect width="256" height="256"/></clipPath></defs><g id="d" clip-path="url(#e)"><g transform="translate(-294 -636)"><g transform="translate(324 666)"><g transform="matrix(1, 0, 0, 1, -30, -30)" filter="url(#a)"><g transform="translate(30 226) rotate(-90)" fill="#fff" stroke="#e1e1e1" stroke-width="0.3"><circle cx="98" cy="98" r="98" stroke="none"/><circle cx="98" cy="98" r="97.85" fill="none"/></g></g><path d="M55.689,78.957s50.462,63.539,51.556,64.88c.829,1,2.04,1.564,2.564,1.264,1.682-.964,2.958-1.646,3.2-2.293a2.541,2.541,0,0,0-.27-2.246L0,0S118.644,137.137,124.4,142.789a98.1,98.1,0,0,1-16.7,11.027l-.45.133C100.366,146.436,55.689,78.957,55.689,78.957Z" transform="translate(35.882 31.11)" fill="#ff007a"/><g transform="translate(39.2 98)"><g transform="translate(0 0)"><path d="M155.4,47.08V61.617L173.367,36.3Z" transform="translate(-135.799 -2.817)" fill="#3b3735"/><path d="M172.714,44.547,155.4,15.8V36.707Z" transform="translate(-135.799 -15.8)" fill="#3b3735"/><path d="M155.4,29.6V47.4l17.15-9.963Z" transform="translate(-135.799 -7.065)" fill="#1f1d19"/><path d="M143.8,44.547,161.113,15.8V36.707Z" transform="translate(-143.147 -15.8)" fill="#959190"/><path d="M161.05,29.6V47.4L143.9,37.44Z" transform="translate(-143.085 -7.065)" fill="#403c3a"/><path d="M161.367,47.08V61.617L143.4,36.3Z" transform="translate(-143.4 -2.817)" fill="#959190"/></g></g><g transform="translate(104.533 39.2)"><ellipse cx="29.727" cy="29.4" rx="29.727" ry="29.4" fill="#1e1a31"/><g transform="translate(15.147 17.078)"><g transform="translate(0 0)"><g transform="translate(0 0)"><path d="M10.773,11.009a1.462,1.462,0,0,1,0,2.925H7.029A6.611,6.611,0,0,1,.464,7.277,6.611,6.611,0,0,1,7.029.621h9.655a1.462,1.462,0,0,1,0,2.925H7.029a3.732,3.732,0,0,0,0,7.463Z" transform="translate(-0.464 -0.621)" fill="#fff" fill-rule="evenodd"/><path d="M10.309,10.388a1.462,1.462,0,0,1,0,2.925H6.565A6.611,6.611,0,0,1,0,6.656,6.611,6.611,0,0,1,6.565,0H16.22a1.452,1.452,0,0,1,1.442,1.462A1.452,1.452,0,0,1,16.22,2.925H6.565a3.732,3.732,0,0,0,0,7.463Z" transform="translate(17.662 23.701) rotate(180)" fill="#fff" fill-rule="evenodd"/><path d="M3.048,23.737.7,22.033,15.451,1.167l2.345,1.7Z" transform="translate(-0.466 -0.626)" fill="rgba(255,255,255,0.5)" fill-rule="evenodd"/></g></g></g><path d="M5.73,5.4H1.962V7.947H6.384V9.523H0V0H6.371V1.589H1.962v2.27H5.73Zm9.1-3.807H11.917V9.523H9.955V1.589H7.077V0h7.757ZM23.7,9.523H21.742V5.442H17.915V9.523H15.953V0h1.962V3.859h3.826V0H23.7Z" transform="translate(35.621 40.782) rotate(-90)" fill="#fff"/></g></g></g><path d="M128,256a128.976,128.976,0,0,1-25.8-2.6,127.309,127.309,0,0,1-45.77-19.261,128.366,128.366,0,0,1-46.375-56.315A127.357,127.357,0,0,1,2.6,153.8a129.251,129.251,0,0,1,0-51.593,127.31,127.31,0,0,1,19.26-45.77A128.372,128.372,0,0,1,78.177,10.059,127.33,127.33,0,0,1,102.2,2.6a129.244,129.244,0,0,1,51.593,0,127.308,127.308,0,0,1,45.77,19.26,128.367,128.367,0,0,1,46.375,56.316A127.343,127.343,0,0,1,253.4,102.2a129.248,129.248,0,0,1,0,51.593,127.3,127.3,0,0,1-19.26,45.77,128.382,128.382,0,0,1-56.316,46.375A127.4,127.4,0,0,1,153.8,253.4,128.977,128.977,0,0,1,128,256Zm0-242.287a115.145,115.145,0,0,0-23.033,2.322A113.657,113.657,0,0,0,64.1,33.232,114.622,114.622,0,0,0,22.7,83.515a113.7,113.7,0,0,0-6.659,21.452,115.4,115.4,0,0,0,0,46.065,113.66,113.66,0,0,0,17.2,40.866,114.627,114.627,0,0,0,50.282,41.407,113.75,113.75,0,0,0,21.453,6.658,115.381,115.381,0,0,0,46.065,0,113.609,113.609,0,0,0,40.866-17.2A114.622,114.622,0,0,0,233.3,172.485a113.741,113.741,0,0,0,6.659-21.453,115.4,115.4,0,0,0,0-46.065,113.662,113.662,0,0,0-17.2-40.865A114.619,114.619,0,0,0,172.485,22.7a113.74,113.74,0,0,0-21.453-6.659A115.145,115.145,0,0,0,128,13.714Z" fill="url(#c)"/></g></svg>