<?xml version="1.0" encoding="utf-8"?>
<!-- Generator: Adobe Illustrator 16.0.0, SVG Export Plug-In . SVG Version: 6.00 Build 0)  -->
<!DOCTYPE svg PUBLIC "-//W3C//DTD SVG 1.1//EN" "http://www.w3.org/Graphics/SVG/1.1/DTD/svg11.dtd">
<svg version="1.1" id="Layer_1" xmlns="http://www.w3.org/2000/svg" xmlns:xlink="http://www.w3.org/1999/xlink" x="0px" y="0px"
	 width="512px" height="512px" viewBox="0 0 512 512" enable-background="new 0 0 512 512" xml:space="preserve">
<g>
	<path fill="#EF9A41" d="M179.591,428.939c1.001-2.368,1.9-4.592,2.87-6.784c1.69-3.818,3.428-7.61,5.133-11.42
		c1.984-4.431,3.952-8.861,5.929-13.294c2.589-5.804,5.172-11.614,7.771-17.412c3.846-8.584,7.707-17.156,11.548-25.74
		c4.435-9.926,8.853-19.862,13.289-29.786c2.578-5.77,5.182-11.527,7.762-17.298c3.069-6.867,6.111-13.748,9.181-20.615
		c2.254-5.045,4.541-10.078,6.799-15.121c2.661-5.939,5.328-11.874,7.949-17.83c0.418-0.96,1.085-1.354,1.993-1.542
		c0.462-0.096,0.935-0.189,1.367-0.371c8.416-3.501,16.825-7.021,25.239-10.524c6.551-2.729,13.105-5.434,19.656-8.158
		c5.938-2.469,11.87-4.957,17.81-7.428c6.143-2.557,12.289-5.098,18.43-7.657c5.02-2.092,10.045-4.179,15.047-6.312
		c1.683-0.718,3.291-1.628,4.979-2.342c4.774-2.026,9.576-3.987,14.361-5.989c6.789-2.836,13.567-5.701,20.36-8.525
		c3.666-1.523,7.367-2.958,11.031-4.479c5.23-2.17,10.442-4.388,15.669-6.57c3.629-1.518,7.271-3,10.902-4.516
		c6.789-2.832,13.567-5.683,20.356-8.515c4.006-1.672,8.022-3.311,12.026-4.985c8.313-3.474,16.618-6.965,24.931-10.448
		c3.019-1.265,6.034-2.532,9.054-3.794c0.336-0.141,0.684-0.26,1.258-0.478c-0.222,0.569-0.358,0.972-0.53,1.356
		c-2.054,4.601-4.109,9.2-6.17,13.8c-1.919,4.29-3.846,8.576-5.763,12.865c-2.349,5.251-4.686,10.508-7.036,15.759
		c-1.917,4.291-3.848,8.573-5.767,12.864c-2.303,5.148-4.593,10.302-6.896,15.45c-1.902,4.256-3.813,8.509-5.72,12.763
		c-2.797,6.247-5.593,12.494-8.387,18.741c-4.161,9.307-8.322,18.612-12.479,27.919c-3.404,7.624-6.808,15.253-10.217,22.875
		c-3.16,7.072-6.331,14.141-9.479,21.22c-0.238,0.53-0.574,0.825-1.08,1.035c-4.961,2.056-9.914,4.119-14.869,6.191
		c-6.515,2.726-13.022,5.463-19.538,8.185c-3.833,1.601-7.68,3.175-11.514,4.778c-6.617,2.766-13.228,5.55-19.843,8.313
		c-5.465,2.286-10.934,4.553-16.4,6.825c-6.213,2.584-12.424,5.17-18.635,7.756c-5.908,2.462-11.813,4.92-17.719,7.386
		c-5.906,2.463-11.81,4.929-17.716,7.397c-5.938,2.481-11.873,4.972-17.813,7.45c-7.601,3.176-15.203,6.344-22.805,9.518
		c-7.501,3.127-15.002,6.254-22.5,9.39c-5.835,2.435-11.669,4.882-17.503,7.319c-4.649,1.943-9.304,3.877-13.952,5.819
		c-3.189,1.332-6.375,2.679-9.564,4.008C181.564,428.334,180.82,428.954,179.591,428.939z"/>
	<g>
		<path fill="#EF4141" d="M179.861,429.265c1.09-2.315,2.139-4.461,3.118-6.639c1.706-3.786,3.362-7.596,5.049-11.392
			c1.962-4.413,3.94-8.817,5.907-13.225c2.58-5.777,5.165-11.554,7.737-17.335c3.803-8.549,7.587-17.108,11.396-25.66
			c4.402-9.882,8.827-19.758,13.233-29.638c2.56-5.746,5.094-11.504,7.654-17.25c3.048-6.836,6.122-13.662,9.168-20.5
			c2.241-5.025,4.451-10.063,6.685-15.087c2.631-5.922,5.256-11.842,7.929-17.737c0.429-0.951,0.289-1.703-0.162-2.497
			c-0.228-0.403-0.464-0.813-0.611-1.253c-2.873-8.522-5.729-17.056-8.597-25.579c-2.234-6.634-4.488-13.26-6.726-19.894
			c-2.027-6.015-4.04-12.035-6.066-18.048c-2.096-6.224-4.206-12.439-6.3-18.661c-1.711-5.086-3.427-10.171-5.101-15.274
			c-0.562-1.717-0.933-3.506-1.5-5.222c-1.601-4.862-3.264-9.699-4.892-14.555c-2.307-6.884-4.589-13.779-6.912-20.656
			c-1.252-3.712-2.591-7.391-3.847-11.101c-1.788-5.294-3.531-10.604-5.309-15.905c-1.234-3.679-2.501-7.349-3.738-11.029
			c-2.311-6.879-4.604-13.767-6.915-20.646c-1.364-4.06-2.759-8.107-4.12-12.167c-2.825-8.432-5.636-16.867-8.452-25.303
			c-1.024-3.061-2.046-6.125-3.073-9.187c-0.113-0.343-0.25-0.677-0.462-1.243c-0.273,0.54-0.481,0.91-0.651,1.294
			c-2.045,4.579-4.085,9.16-6.124,13.74c-1.901,4.274-3.796,8.55-5.7,12.824c-2.33,5.228-4.67,10.455-7,15.682
			c-1.902,4.273-3.793,8.551-5.695,12.823c-2.284,5.128-4.579,10.25-6.866,15.377c-1.888,4.236-3.766,8.48-5.653,12.72
			c-2.768,6.225-5.537,12.444-8.308,18.668c-4.128,9.268-8.259,18.535-12.389,27.802c-3.385,7.592-6.774,15.18-10.158,22.772
			c-3.137,7.041-6.268,14.087-9.417,21.125c-0.235,0.527-0.235,0.972-0.063,1.483c1.701,5.017,3.39,10.039,5.073,15.063
			c2.213,6.607,4.413,13.221,6.628,19.826c1.304,3.889,2.636,7.766,3.941,11.654c2.25,6.71,4.48,13.426,6.729,20.137
			c1.857,5.539,3.734,11.074,5.6,16.611c2.119,6.291,4.242,12.583,6.36,18.876c2.015,5.983,4.027,11.967,6.037,17.954
			c2.012,5.984,4.022,11.972,6.03,17.96c2.018,6.022,4.03,12.047,6.049,18.067c2.586,7.707,5.177,15.411,7.765,23.117
			c2.556,7.601,5.11,15.203,7.661,22.806c1.984,5.918,3.962,11.839,5.947,17.753c1.581,4.716,3.17,9.429,4.751,14.141
			c1.084,3.233,2.156,6.475,3.245,9.706C179.031,427.409,179.058,428.371,179.861,429.265z"/>
	</g>
</g>
<path fill="#00CECE" d="M338.796,72.514c-0.99,2.409-1.879,4.67-2.837,6.9c-1.67,3.88-3.386,7.737-5.07,11.61
	c-1.959,4.503-3.902,9.009-5.856,13.514c-2.558,5.902-5.11,11.808-7.679,17.706c-3.799,8.726-7.613,17.442-11.406,26.171
	c-4.385,10.089-8.749,20.191-13.13,30.281c-2.549,5.866-5.121,11.72-7.668,17.587c-3.032,6.981-6.039,13.977-9.072,20.959
	c-2.226,5.127-4.485,10.246-6.717,15.374c-2.628,6.037-5.264,12.07-7.851,18.126c-0.416,0.976-1.071,1.38-1.962,1.572
	c-0.454,0.1-0.916,0.195-1.344,0.381c-8.267,3.582-16.524,7.182-24.79,10.768c-6.433,2.791-12.875,5.558-19.308,8.348
	c-5.834,2.525-11.66,5.069-17.493,7.595c-6.034,2.616-12.072,5.214-18.103,7.835c-4.93,2.14-9.866,4.274-14.781,6.455
	c-1.653,0.735-3.234,1.664-4.889,2.396c-4.692,2.071-9.407,4.077-14.108,6.127c-6.669,2.901-13.327,5.832-20,8.72
	c-3.6,1.558-7.236,3.028-10.836,4.584c-5.136,2.219-10.257,4.489-15.389,6.72c-3.565,1.553-7.144,3.069-10.71,4.62
	c-6.667,2.896-13.328,5.813-19.997,8.711c-3.933,1.71-7.878,3.388-11.81,5.102c-8.167,3.551-16.328,7.121-24.49,10.687
	c-2.965,1.296-5.929,2.59-8.893,3.881c-0.33,0.146-0.672,0.265-1.235,0.488c0.219-0.578,0.354-0.985,0.523-1.38
	c2.028-4.677,4.061-9.352,6.095-14.03c1.897-4.359,3.802-8.717,5.696-13.08c2.318-5.339,4.626-10.681,6.947-16.021
	c1.895-4.359,3.804-8.716,5.7-13.078c2.273-5.235,4.535-10.476,6.81-15.71c1.88-4.327,3.769-8.648,5.651-12.974
	c2.762-6.351,5.526-12.703,8.287-19.055c4.11-9.462,8.22-18.924,12.329-28.388c3.365-7.751,6.724-15.506,10.091-23.256
	c3.123-7.191,6.256-14.376,9.368-21.572c0.232-0.539,0.563-0.841,1.06-1.055c4.873-2.102,9.74-4.214,14.604-6.333
	c6.399-2.786,12.793-5.587,19.192-8.372c3.767-1.639,7.545-3.248,11.311-4.888c6.499-2.829,12.991-5.678,19.49-8.506
	c5.369-2.336,10.74-4.652,16.11-6.98c6.103-2.644,12.205-5.288,18.304-7.934c5.802-2.517,11.604-5.033,17.405-7.553
	c5.801-2.521,11.602-5.044,17.4-7.568c5.833-2.54,11.661-5.084,17.497-7.623c7.467-3.249,14.936-6.489,22.402-9.734
	c7.367-3.2,14.734-6.4,22.099-9.606c5.732-2.492,11.465-4.994,17.194-7.488c4.565-1.986,9.138-3.966,13.705-5.953
	c3.133-1.362,6.26-2.737,9.394-4.098C336.856,73.137,337.59,72.503,338.796,72.514z"/>
<g>
	<path fill="#1E97FF" d="M338.313,73.888c-1.117,2.361-2.187,4.548-3.191,6.769c-1.745,3.863-3.438,7.747-5.166,11.616
		c-2.009,4.501-4.029,8.992-6.043,13.488c-2.641,5.891-5.283,11.78-7.915,17.676c-3.894,8.719-7.765,17.449-11.661,26.167
		c-4.503,10.079-9.031,20.149-13.538,30.226c-2.619,5.858-5.212,11.731-7.834,17.589c-3.116,6.972-6.26,13.933-9.379,20.906
		c-2.294,5.124-4.555,10.26-6.841,15.386c-2.69,6.037-5.376,12.073-8.111,18.087c-0.438,0.97-0.292,1.738,0.17,2.55
		c0.236,0.411,0.48,0.83,0.634,1.28c2.977,8.708,5.934,17.425,8.909,26.136c2.313,6.778,4.648,13.549,6.968,20.326
		c2.099,6.146,4.184,12.299,6.283,18.443c2.172,6.356,4.358,12.709,6.527,19.067c1.774,5.195,3.553,10.39,5.285,15.604
		c0.584,1.754,0.97,3.582,1.554,5.335c1.662,4.967,3.385,9.91,5.071,14.871c2.392,7.036,4.754,14.078,7.16,21.107
		c1.297,3.793,2.686,7.551,3.985,11.342c1.854,5.409,3.659,10.834,5.502,16.252c1.278,3.759,2.588,7.508,3.871,11.269
		c2.394,7.029,4.771,14.066,7.166,21.096c1.411,4.147,2.857,8.282,4.267,12.43c2.929,8.617,5.84,17.236,8.758,25.854
		c1.062,3.129,2.118,6.259,3.184,9.389c0.118,0.349,0.259,0.691,0.479,1.27c0.279-0.551,0.493-0.929,0.667-1.319
		c2.091-4.671,4.178-9.341,6.267-14.013c1.944-4.357,3.882-8.717,5.832-13.078c2.383-5.33,4.778-10.66,7.16-15.99
		c1.947-4.357,3.881-8.72,5.827-13.077c2.336-5.229,4.686-10.453,7.025-15.681c1.932-4.32,3.853-8.648,5.784-12.972
		c2.833-6.349,5.665-12.691,8.5-19.039c4.226-9.449,8.451-18.902,12.677-28.35c3.463-7.742,6.933-15.479,10.393-23.224
		c3.213-7.181,6.412-14.365,9.637-21.542c0.24-0.537,0.24-0.99,0.061-1.516c-1.764-5.125-3.513-10.256-5.256-15.39
		c-2.294-6.75-4.571-13.507-6.868-20.257c-1.351-3.974-2.73-7.934-4.082-11.907c-2.329-6.855-4.643-13.718-6.974-20.574
		c-1.923-5.662-3.867-11.317-5.801-16.974c-2.194-6.427-4.395-12.857-6.588-19.287c-2.089-6.114-4.173-12.229-6.256-18.345
		c-2.085-6.115-4.166-12.231-6.248-18.351c-2.089-6.153-4.176-12.31-6.267-18.462c-2.68-7.873-5.363-15.745-8.047-23.618
		c-2.646-7.768-5.293-15.536-7.936-23.304c-2.058-6.046-4.107-12.095-6.163-18.14c-1.64-4.818-3.287-9.631-4.924-14.448
		c-1.123-3.304-2.234-6.613-3.361-9.916C339.172,75.782,339.143,74.802,338.313,73.888z"/>
</g>
</svg>
