<svg xmlns="http://www.w3.org/2000/svg" viewBox="0 0 128 128"><defs><style>.cls-1{fill:#7f66ff;}.cls-2{fill:#fff;}</style></defs><g id="图层_2" data-name="图层 2"><g id="图层_3" data-name="图层 3"><circle class="cls-1" cx="64" cy="64" r="64"/><path class="cls-2" d="M63.66,23.57c-17.6,20.24-29,32.56-29,44a29,29,0,0,0,58.07,0C92.69,56.13,81.26,43.81,63.66,23.57Zm0,68.63A24.64,24.64,0,0,1,39,67.57c0-11.44,11.44-22,24.64-38.72C76.86,45.57,88.3,56.13,88.3,67.57A24.64,24.64,0,0,1,63.66,92.2Z"/><path class="cls-2" d="M70.48,19.4h0A1.86,1.86,0,0,0,70.57,22c13.64,13.27,26.86,33.78,26.86,45.4a33.43,33.43,0,0,1-66.86,0c0-11.62,13.22-32.13,26.86-45.4a1.86,1.86,0,0,0,.09-2.57h0a1.84,1.84,0,0,0-2.66-.08C39.21,34.79,26.17,54.8,26.17,67.37a37.83,37.83,0,0,0,75.66,0c0-12.57-13-32.58-28.69-48.05A1.84,1.84,0,0,0,70.48,19.4Z"/><path class="cls-2" d="M76.09,12h0a1.88,1.88,0,0,0,0,2.65C92.11,31,106.23,54,106.23,67.37a42.23,42.23,0,0,1-84.46,0C21.77,54,35.89,31,51.91,14.68a1.88,1.88,0,0,0,0-2.65h0a1.89,1.89,0,0,0-2.68,0c-17,17.57-31,40.21-31,55.33C18.25,93.12,38.25,114,64,114s45.75-20.88,45.75-46.63c0-15.12-14-37.76-31-55.33A1.89,1.89,0,0,0,76.09,12Z"/></g></g></svg>