<svg width="32" height="32" viewBox="0 0 32 32" fill="none" xmlns="http://www.w3.org/2000/svg">
<g clip-path="url(#clip0_1_2)">
<path d="M16 32C24.8366 32 32 24.8366 32 16C32 7.16344 24.8366 0 16 0C7.16344 0 0 7.16344 0 16C0 24.8366 7.16344 32 16 32Z" fill="#0B0B0D"/>
<path d="M7.14893 9.09456L9.30495 16.5083C12.9362 16.0544 18.8369 15.9409 22.5815 16.5083L24.7754 9.09456C24.372 9.49801 23.391 10.4714 22.695 11.1371C19.4799 14.2124 18.2317 10.2798 18.0425 9.96454C17.8534 9.64931 16.5926 6.82506 15.9243 5.34988C15.3696 6.59811 14.1768 9.26856 13.844 9.96454C11.9905 14.6548 8.88888 10.8345 8.66193 10.6076C8.43498 10.3806 7.62802 9.53583 7.14893 9.09456Z" fill="url(#paint0_linear_1_2)"/>
<path d="M12.7471 10.9858C12.1116 12.2567 10.9945 11.818 10.5154 11.4397L11.2719 8.26241C11.3854 8.48936 11.8393 9.35177 12.7471 10.9858Z" fill="url(#paint1_linear_1_2)"/>
<path d="M21.3711 11.4775C20.2213 12.2946 19.4042 11.4902 19.1395 10.9858L20.7659 8.30023C20.8416 8.76677 21.0685 10.0553 21.3711 11.4775Z" fill="url(#paint2_linear_1_2)"/>
<path d="M7.14893 9.09456L9.30495 16.5083C12.9362 16.0544 18.8369 15.9409 22.5815 16.5083L24.7754 9.09456C24.372 9.49801 23.391 10.4714 22.695 11.1371C19.4799 14.2124 18.2317 10.2798 18.0425 9.96454C17.8534 9.64931 16.5926 6.82506 15.9243 5.34988C15.3696 6.59811 14.1768 9.26856 13.844 9.96454C11.9905 14.6548 8.88888 10.8345 8.66193 10.6076C8.43498 10.3806 7.62802 9.53583 7.14893 9.09456Z" stroke="url(#paint3_linear_1_2)"/>
<path d="M12.7471 10.9858C12.1116 12.2567 10.9945 11.818 10.5154 11.4397L11.2719 8.26241C11.3854 8.48936 11.8393 9.35177 12.7471 10.9858Z" stroke="url(#paint4_linear_1_2)"/>
<path d="M21.3711 11.4775C20.2213 12.2946 19.4042 11.4902 19.1395 10.9858L20.7659 8.30023C20.8416 8.76677 21.0685 10.0553 21.3711 11.4775Z" stroke="url(#paint5_linear_1_2)"/>
<path d="M9.15369 18.2482V17.2648C9.15369 17.0757 9.19151 17.0378 9.45629 16.9622C12.4823 16.5461 19.7825 16.5839 21.6738 16.8865C22.6639 17.0449 22.7707 17.1765 22.6951 17.2648V18.2482C22.6951 18.2987 22.6572 18.3995 22.5059 18.3995C16.8322 17.643 10.7045 18.1348 9.53194 18.3995C9.25982 18.461 9.16632 18.3239 9.15369 18.2482Z" fill="url(#paint6_linear_1_2)" stroke="url(#paint7_linear_1_2)"/>
<path d="M15.9622 14.617C16.4635 14.617 16.87 14.2275 16.87 13.7471C16.87 13.2666 16.4635 12.8771 15.9622 12.8771C15.4608 12.8771 15.0544 13.2666 15.0544 13.7471C15.0544 14.2275 15.4608 14.617 15.9622 14.617Z" fill="#000508"/>
<path d="M20.1986 14.9953C20.491 14.9953 20.7281 14.7582 20.7281 14.4657C20.7281 14.1733 20.491 13.9362 20.1986 13.9362C19.9061 13.9362 19.669 14.1733 19.669 14.4657C19.669 14.7582 19.9061 14.9953 20.1986 14.9953Z" fill="#000508"/>
<path d="M11.7258 14.9953C12.0182 14.9953 12.2553 14.7582 12.2553 14.4657C12.2553 14.1733 12.0182 13.9362 11.7258 13.9362C11.4333 13.9362 11.1962 14.1733 11.1962 14.4657C11.1962 14.7582 11.4333 14.9953 11.7258 14.9953Z" fill="#000508"/>
<path d="M11 8C11.5523 8 12 7.55228 12 7C12 6.44772 11.5523 6 11 6C10.4477 6 10 6.44772 10 7C10 7.55228 10.4477 8 11 8Z" fill="#EDC875"/>
<path d="M6.5 10C7.32843 10 8 9.32843 8 8.5C8 7.67157 7.32843 7 6.5 7C5.67157 7 5 7.67157 5 8.5C5 9.32843 5.67157 10 6.5 10Z" fill="#F9DA88"/>
<path d="M16 5C16.5523 5 17 4.55228 17 4C17 3.44772 16.5523 3 16 3C15.4477 3 15 3.44772 15 4C15 4.55228 15.4477 5 16 5Z" fill="#DAAE58"/>
<path d="M21 8C21.5523 8 22 7.55228 22 7C22 6.44772 21.5523 6 21 6C20.4477 6 20 6.44772 20 7C20 7.55228 20.4477 8 21 8Z" fill="#C69138"/>
<path d="M25.5 10C26.3284 10 27 9.32843 27 8.5C27 7.67157 26.3284 7 25.5 7C24.6716 7 24 7.67157 24 8.5C24 9.32843 24.6716 10 25.5 10Z" fill="#B87D23"/>
<path d="M6.47424 24.2837V24.1993H6.80491V19.4433H6.47424V19.3589H7.89541C8.01501 19.3589 8.13817 19.3788 8.26481 19.4186C8.39144 19.4585 8.5087 19.523 8.61658 19.6121C8.72446 19.6989 8.81123 19.815 8.87689 19.9604C8.9449 20.1034 8.97887 20.277 8.97887 20.481C8.97887 20.6827 8.94725 20.8562 8.88393 21.0016C8.82295 21.147 8.74435 21.2678 8.6482 21.364C8.55439 21.4578 8.45476 21.5305 8.34923 21.5821C8.24604 21.6313 8.15224 21.6618 8.06781 21.6735C8.15458 21.6759 8.25421 21.6981 8.36678 21.7403C8.48169 21.7826 8.59313 21.8506 8.701 21.9444C8.81123 22.0358 8.90148 22.159 8.97183 22.3138C9.04453 22.4685 9.08092 22.6596 9.08092 22.8871C9.08092 23.2084 9.02933 23.4723 8.92614 23.6786C8.8253 23.8827 8.69276 24.0351 8.5286 24.1359C8.36444 24.2344 8.18742 24.2837 7.99746 24.2837H6.47424ZM7.63509 24.1993H7.8075C7.87551 24.1993 7.93883 24.1524 7.99746 24.0586C8.05609 23.9648 8.10412 23.824 8.14165 23.6364C8.18152 23.4465 8.20149 23.2084 8.20149 22.9223C8.20149 22.6338 8.18386 22.4017 8.14868 22.2258C8.11585 22.0476 8.06895 21.9186 8.00797 21.8388C7.94934 21.7591 7.87899 21.7192 7.79691 21.7192H7.63509V24.1993ZM7.63509 21.6348H7.79691C7.87665 21.6348 7.94117 21.5961 7.99042 21.5188C8.04202 21.4414 8.07954 21.3182 8.10299 21.1494C8.12644 20.9805 8.13817 20.7577 8.13817 20.481C8.13817 20.223 8.12175 20.019 8.08892 19.8689C8.05609 19.7165 8.01266 19.6075 7.95873 19.5418C7.90479 19.4761 7.84502 19.4433 7.77936 19.4433H7.63509V21.6348Z" fill="#F1C563"/>
<path d="M11.2486 24.3611C11.0141 24.3611 10.8043 24.2615 10.619 24.062C10.4337 23.8604 10.2883 23.5708 10.1828 23.1932C10.0773 22.8156 10.0245 22.3607 10.0245 21.8283C10.0245 21.2913 10.0773 20.834 10.1828 20.4564C10.2883 20.0765 10.4337 19.7857 10.619 19.584C10.8043 19.3823 11.0141 19.2815 11.2486 19.2815C11.4855 19.2815 11.6966 19.3823 11.8818 19.584C12.0671 19.7857 12.2137 20.0765 12.3216 20.4564C12.4295 20.834 12.4834 21.2913 12.4834 21.8283C12.4834 22.3607 12.4295 22.8156 12.3216 23.1932C12.2137 23.5708 12.0671 23.8604 11.8818 24.062C11.6966 24.2615 11.4855 24.3611 11.2486 24.3611ZM11.2486 24.2767C11.3167 24.2767 11.3718 24.2204 11.414 24.1078C11.4562 23.9929 11.4891 23.8287 11.5125 23.6153C11.536 23.4019 11.5524 23.1451 11.5618 22.8449C11.5711 22.5424 11.5758 22.2035 11.5758 21.8283C11.5758 21.4531 11.5711 21.1142 11.5618 20.8117C11.5524 20.5091 11.536 20.25 11.5125 20.0343C11.4891 19.8185 11.4562 19.6531 11.414 19.5382C11.3718 19.4233 11.3167 19.3659 11.2486 19.3659C11.1806 19.3659 11.1256 19.4233 11.0833 19.5382C11.0411 19.6531 11.0083 19.8185 10.9849 20.0343C10.9637 20.25 10.9485 20.5091 10.9391 20.8117C10.932 21.1142 10.9286 21.4531 10.9286 21.8283C10.9286 22.2035 10.932 22.5424 10.9391 22.8449C10.9485 23.1451 10.9637 23.4019 10.9849 23.6153C11.0083 23.8287 11.0411 23.9929 11.0833 24.1078C11.1256 24.2204 11.1806 24.2767 11.2486 24.2767Z" fill="#F1C563"/>
<path d="M13.3865 24.2837V24.1993H13.6997V19.4433H13.3865V19.3589H14.864V19.4433H14.5404V24.1993H14.7057C14.8511 24.1993 14.9695 24.1477 15.061 24.0445C15.1548 23.939 15.2228 23.8029 15.265 23.6364C15.3096 23.4676 15.3319 23.2881 15.3319 23.0982H15.4163V24.2837H13.3865Z" fill="#F1C563"/>
<path d="M17.612 24.354C17.3541 24.354 17.1266 24.2649 16.9296 24.0867C16.735 23.9061 16.5825 23.6294 16.4723 23.2565C16.3644 22.8813 16.3105 22.4052 16.3105 21.8283C16.3105 21.2866 16.3761 20.8269 16.5075 20.4494C16.6388 20.0694 16.8089 19.781 17.0175 19.584C17.2287 19.387 17.4479 19.2885 17.6754 19.2885C17.8348 19.2885 17.9768 19.3331 18.101 19.4222C18.2253 19.5113 18.3226 19.6297 18.393 19.7774C18.4657 19.9228 18.5021 20.08 18.5021 20.2488C18.5021 20.3919 18.4751 20.5056 18.4211 20.5901C18.3695 20.6745 18.2863 20.7167 18.1714 20.7167C18.0495 20.7167 17.9627 20.6745 17.9111 20.5901C17.8595 20.5056 17.8337 20.3966 17.8337 20.2629C17.8337 20.1714 17.8536 20.094 17.8935 20.0307C17.9357 19.9651 17.9768 19.9041 18.0166 19.8478C18.0588 19.7892 18.0799 19.7235 18.0799 19.6508C18.0799 19.5875 18.0471 19.5277 17.9814 19.4714C17.9158 19.4152 17.8395 19.387 17.7528 19.387C17.6449 19.387 17.5558 19.4644 17.4854 19.6192C17.4174 19.7716 17.3635 19.971 17.3236 20.2172C17.2861 20.4611 17.2603 20.7249 17.2462 21.0086C17.2321 21.2924 17.2251 21.5657 17.2251 21.8283C17.2251 22.1754 17.231 22.4967 17.2427 22.7922C17.2544 23.0877 17.2743 23.3456 17.3025 23.5661C17.333 23.7842 17.3728 23.9542 17.4221 24.0761C17.4737 24.1957 17.5382 24.2555 17.6156 24.2555C17.6531 24.2555 17.6836 24.2473 17.7071 24.2309C17.7305 24.2121 17.7481 24.1934 17.7598 24.1746V22.1414H17.5382V22.0569H18.8046V22.1414H18.5267V24.2837H18.4247C18.4176 24.2767 18.3965 24.2673 18.3614 24.2555C18.3285 24.2438 18.271 24.2379 18.189 24.2379C18.1233 24.2379 18.0588 24.2473 17.9955 24.2661C17.9345 24.2848 17.8724 24.3037 17.809 24.3224C17.7481 24.3435 17.6824 24.354 17.612 24.354Z" fill="#F1C563"/>
<path d="M19.3998 24.2837V24.1993H19.7235L20.508 19.3553H20.7261L21.5562 24.1993H21.8552V24.2837H20.318V24.1993H20.6416L20.223 21.4343H20.2652L19.8185 24.1993H20.0858V24.2837H19.3998ZM19.9029 23.3163V23.2319H20.6205V23.3163H19.9029Z" fill="#F1C563"/>
<path d="M24.9815 24.3435C24.7845 24.3435 24.6333 24.3037 24.5277 24.2239C24.4245 24.1418 24.353 24.0292 24.3131 23.8862C24.2756 23.7408 24.2568 23.5731 24.2568 23.3832C24.2568 23.2307 24.2639 23.0783 24.2779 22.9259C24.292 22.7734 24.299 22.6327 24.299 22.5037C24.299 22.3466 24.2862 22.2153 24.2604 22.1097C24.2369 22.0042 24.1935 21.9245 24.1302 21.8705C24.0669 21.8166 23.9743 21.7896 23.8523 21.7896H23.701V24.1993H24.0176V24.2837H22.5297V24.1993H22.8603V19.4433H22.5297V19.3589H24.0704C24.2768 19.3589 24.4644 19.3987 24.6333 19.4785C24.8021 19.5559 24.9358 19.6789 25.0343 19.8478C25.1328 20.0143 25.182 20.2324 25.182 20.5021C25.182 20.7202 25.148 20.9055 25.08 21.0579C25.012 21.208 24.9229 21.3311 24.8126 21.4273C24.7048 21.5211 24.5875 21.5938 24.4609 21.6454C24.3366 21.6946 24.217 21.7275 24.1021 21.7439C24.3999 21.758 24.6215 21.813 24.7669 21.9092C24.9147 22.003 25.012 22.1426 25.0589 22.3278C25.1081 22.5131 25.1328 22.7511 25.1328 23.0419C25.1328 23.1334 25.1304 23.226 25.1257 23.3198C25.1234 23.4113 25.1222 23.5004 25.1222 23.5872C25.1222 23.681 25.1257 23.7736 25.1328 23.865C25.1422 23.9542 25.1574 24.0281 25.1785 24.0867C25.2019 24.1453 25.2348 24.1746 25.277 24.1746C25.3028 24.1746 25.3239 24.1664 25.3403 24.15C25.3591 24.1313 25.3696 24.1102 25.372 24.0867H25.4564C25.447 24.1477 25.4165 24.1969 25.365 24.2344C25.3134 24.272 25.2524 24.299 25.182 24.3154C25.1117 24.3342 25.0448 24.3435 24.9815 24.3435ZM23.701 21.7052H23.8769C23.9778 21.7052 24.0587 21.6571 24.1197 21.561C24.1807 21.4625 24.2252 21.3252 24.2534 21.1494C24.2838 20.9711 24.299 20.7601 24.299 20.5162C24.299 20.2887 24.2862 20.0953 24.2604 19.9358C24.2346 19.7763 24.1912 19.6544 24.1302 19.5699C24.0692 19.4855 23.9871 19.4433 23.884 19.4433H23.701V21.7052Z" fill="#F1C563"/>
</g>
<defs>
<linearGradient id="paint0_linear_1_2" x1="8.13238" y1="11.7423" x2="23.4894" y2="13.1797" gradientUnits="userSpaceOnUse">
<stop stop-color="#F9DA88"/>
<stop offset="1" stop-color="#B87D23"/>
</linearGradient>
<linearGradient id="paint1_linear_1_2" x1="8.1324" y1="11.7423" x2="23.4894" y2="13.1797" gradientUnits="userSpaceOnUse">
<stop stop-color="#F9DA88"/>
<stop offset="1" stop-color="#B87D23"/>
</linearGradient>
<linearGradient id="paint2_linear_1_2" x1="8.13237" y1="11.7423" x2="23.4893" y2="13.1797" gradientUnits="userSpaceOnUse">
<stop stop-color="#F9DA88"/>
<stop offset="1" stop-color="#B87D23"/>
</linearGradient>
<linearGradient id="paint3_linear_1_2" x1="8.7754" y1="11.8936" x2="23.0355" y2="12.461" gradientUnits="userSpaceOnUse">
<stop stop-color="#FAE185"/>
<stop offset="1" stop-color="#C0852A"/>
</linearGradient>
<linearGradient id="paint4_linear_1_2" x1="8.77543" y1="11.8936" x2="23.0355" y2="12.461" gradientUnits="userSpaceOnUse">
<stop stop-color="#FAE185"/>
<stop offset="1" stop-color="#C0852A"/>
</linearGradient>
<linearGradient id="paint5_linear_1_2" x1="8.7754" y1="11.8936" x2="23.0354" y2="12.461" gradientUnits="userSpaceOnUse">
<stop stop-color="#FAE185"/>
<stop offset="1" stop-color="#C0852A"/>
</linearGradient>
<linearGradient id="paint6_linear_1_2" x1="9.15369" y1="17.5348" x2="22.7145" y2="17.5348" gradientUnits="userSpaceOnUse">
<stop stop-color="#F3D17E"/>
<stop offset="1" stop-color="#BB8127"/>
</linearGradient>
<linearGradient id="paint7_linear_1_2" x1="10.4051" y1="17.6948" x2="20.9863" y2="19.7711" gradientUnits="userSpaceOnUse">
<stop stop-color="#FAE185"/>
<stop offset="1" stop-color="#C0852A"/>
</linearGradient>
<clipPath id="clip0_1_2">
<rect width="32" height="32" fill="white"/>
</clipPath>
</defs>
</svg>
