<svg xmlns="http://www.w3.org/2000/svg" viewBox="0 0 468.83 468.83"><defs><style>.cls-1{fill:#1e1e1e;}.cls-2{fill:#ff5252;}</style></defs><g id="Layer_2" data-name="Layer 2"><g id="Layer_2-2" data-name="Layer 2"><circle class="cls-1" cx="234.41" cy="234.41" r="234.41"/><path class="cls-2" d="M302.66,210.39a10,10,0,0,0,10-10V181.07a33.59,33.59,0,0,0-33.55-33.55h-4.49V138a10,10,0,0,0-20,0v9.53H211v-9.45a10,10,0,0,0-20,0v9.45h-4.49a33.59,33.59,0,0,0-33.55,33.55v29.82a33.59,33.59,0,0,0,33.55,33.55h92.62A13.57,13.57,0,0,1,292.66,258v30a13.56,13.56,0,0,1-13.55,13.54h-13.4a9.82,9.82,0,0,0-1.09-.06,10,10,0,0,0-1.1.06h-77A13.56,13.56,0,0,1,172.94,288V268.49a10,10,0,0,0-20,0V288a33.59,33.59,0,0,0,33.55,33.54H191v9.53a10,10,0,0,0,20,0v-9.53h43.64V331a10,10,0,0,0,20,0v-9.45h4.49A33.59,33.59,0,0,0,312.66,288V258a33.59,33.59,0,0,0-33.55-33.55H186.49a13.57,13.57,0,0,1-13.55-13.55V181.07a13.57,13.57,0,0,1,13.55-13.55h13.39a10,10,0,0,0,1.1.06,9.82,9.82,0,0,0,1.09-.06h77a13.57,13.57,0,0,1,13.55,13.55v19.32A10,10,0,0,0,302.66,210.39Z"/><path class="cls-2" d="M354.2,184.77a10,10,0,0,0,10-10V162.61a71.57,71.57,0,0,0-71.5-71.49H172.89a71.57,71.57,0,0,0-71.49,71.49V306.46A71.57,71.57,0,0,0,172.89,378H292.7a71.57,71.57,0,0,0,71.5-71.5V294.3a10,10,0,0,0-20,0v12.16A51.55,51.55,0,0,1,292.7,358H172.89a51.55,51.55,0,0,1-51.49-51.5V162.61a51.55,51.55,0,0,1,51.49-51.49H292.7a51.55,51.55,0,0,1,51.5,51.49v12.16A10,10,0,0,0,354.2,184.77Z"/></g></g></svg>