<svg width="300" height="300" viewBox="0 0 300 300" fill="none" xmlns="http://www.w3.org/2000/svg">
<circle cx="150" cy="150" r="150" fill="url(#paint0_linear_664:247)"/>
<circle cx="150" cy="150" r="150" fill="#ffd140"/>  
<circle cx="150" cy="150" r="112.5" fill="white"/>
<path d="M147.75 216C138.875 216 130.687 214.375 123.187 211.125C115.813 207.75 109.75 203 105 196.875L121.875 176.625C129 186.25 137.125 191.062 146.25 191.062C158.625 191.062 164.812 183.812 164.812 169.312V106.875H118.688V82.5H195V167.625C195 183.75 191 195.875 183 204C175 212 163.25 216 147.75 216Z" fill="#100808"/>
<defs>
<linearGradient id="paint0_linear_664:247" x1="45" y1="18.75" x2="228.75" y2="281.25" gradientUnits="userSpaceOnUse">
<stop stop-color="#1BE4AF"/>
<stop offset="1" stop-color="#619CCC"/>
</linearGradient>
</defs>
</svg>
