<?xml version="1.0" encoding="utf-8"?>
<!-- Generator: Adobe Illustrator 25.0.0, SVG Export Plug-In . SVG Version: 6.00 Build 0)  -->
<svg version="1.1" xmlns="http://www.w3.org/2000/svg" xmlns:xlink="http://www.w3.org/1999/xlink" x="0px" y="0px"
	 viewBox="0 0 155.91 155.91" style="enable-background:new 0 0 155.91 155.91;" xml:space="preserve">
<style type="text/css">
	.st0{fill:#FAF5FF;}
	.st1{fill:#1A1A1A;}
	.st2{fill:#FF6469;}
	.st3{fill:#2D0965;}
	.st4{fill:url(#SVGID_1_);}
	.st5{fill:#2A6094;}
	.st6{fill:#1A2D3D;}
	.st7{fill:#130830;}
	.st8{fill:#AF5AAD;}
	.st9{clip-path:url(#SVGID_3_);}
	.st10{clip-path:url(#SVGID_7_);}
	.st11{fill:url(#SVGID_10_);}
	.st12{opacity:0.3;}
	.st13{fill:url(#SVGID_11_);}
	.st14{fill:url(#SVGID_12_);}
	.st15{fill:url(#SVGID_13_);}
	.st16{fill:url(#SVGID_14_);}
	.st17{fill:#353535;}
	.st18{fill:#FFF5FF;}
	.st19{fill:url(#SVGID_15_);}
	.st20{fill:url(#SVGID_16_);}
	.st21{fill:#FFFFFF;}
	.st22{fill:url(#SVGID_17_);}
	.st23{fill:url(#SVGID_18_);}
	.st24{fill:#7D7D7D;}
	.st25{fill:url(#SVGID_19_);}
	.st26{fill:url(#SVGID_20_);}
	.st27{fill:url(#SVGID_21_);}
	.st28{fill:url(#SVGID_22_);}
	.st29{fill:url(#SVGID_23_);}
	.st30{fill:url(#SVGID_24_);}
	.st31{fill:url(#SVGID_25_);}
	.st32{fill:url(#SVGID_26_);}
	.st33{fill:url(#SVGID_27_);}
	.st34{fill:url(#SVGID_28_);}
</style>
<g id="Layer_2">
</g>
<g id="Layer_1">
	<g>
		<linearGradient id="SVGID_1_" gradientUnits="userSpaceOnUse" x1="79.0475" y1="5.6693" x2="79.0475" y2="137.7299">
			<stop  offset="0" style="stop-color:#AF5AAD"/>
			<stop  offset="1" style="stop-color:#2D0965"/>
		</linearGradient>
		<path class="st4" d="M122.17,131.47c17.29-13.34,27.42-33.74,27.42-55.8c0-23.51-11.46-45-30.44-58.06
			c-3.97-2.73-8.29-4.92-12.78-6.65l-1.55-0.6c-3.98-1.53-8.43,0.64-9.67,4.73v0c-1.11,3.69,0.81,7.6,4.41,8.98l1.18,0.45
			c3.25,1.24,6.38,2.79,9.28,4.71c15.47,10.28,24.84,27.53,24.84,46.44c0,25.33-17.5,47.39-41.27,53.87
			c-3.6,0.98-7.16-1.7-7.16-5.44v-2.9V16.09c0-5.96-5-10.71-10.95-10.4l-3.53,0.18c-4.42,0.23-8.81,0.93-13.06,2.19
			C29.78,16.75,8.5,43.77,8.5,75.67c0,22.06,10.14,42.47,27.45,55.8 M71.68,27.23v96.87c0,3.73-3.56,6.42-7.16,5.44
			C40.74,123.05,23.24,101,23.24,75.67s17.5-47.39,41.27-53.87C68.12,20.81,71.68,23.5,71.68,27.23z"/>
		<g>
			<linearGradient id="SVGID_3_" gradientUnits="userSpaceOnUse" x1="79.0475" y1="127.3939" x2="79.0475" y2="147.2218">
				<stop  offset="0" style="stop-color:#AF5AAD"/>
				<stop  offset="1" style="stop-color:#2D0965"/>
			</linearGradient>
			<path style="fill:url(#SVGID_3_);" d="M17.15,131.03c-4.19,0-7.59,3.4-7.59,7.59v0c0,4.19,3.4,7.59,7.59,7.59h123.8
				c4.19,0,7.59-3.4,7.59-7.59v0c0-4.19-3.4-7.59-7.59-7.59H17.15z"/>
		</g>
	</g>
</g>
</svg>
