<svg width="24" height="24" viewBox="0 0 24 24" fill="none" xmlns="http://www.w3.org/2000/svg">
  <path d="M23 12C23 18.0978 18.0978 23 12 23C5.90225 23 1 18.0978 1 12C1 5.90225 5.90225 1 12 1C18.0978 1 23 5.90225 23 12Z" fill="#2775CA" stroke="url(#paint0_linear_1102_2052)" stroke-width="2" />
  <path d="M21.25 12C21.25 17.1275 17.1275 21.25 12 21.25C6.87251 21.25 2.75 17.1275 2.75 12C2.75 6.87251 6.87251 2.75 12 2.75C17.1275 2.75 21.25 6.87251 21.25 12Z" fill="#2775CA" stroke="#6764FB" stroke-width="1.5" />
  <path d="M14.3474 13.2132C14.3474 11.9993 13.6191 11.5831 12.1624 11.4097C11.1219 11.271 10.9138 10.9936 10.9138 10.508C10.9138 10.0223 11.2607 9.71029 11.9543 9.71029C12.5786 9.71029 12.9254 9.91838 13.0988 10.4386C13.1335 10.5427 13.2376 10.612 13.3416 10.612H13.8965C14.0352 10.612 14.1393 10.508 14.1393 10.3693V10.3346C14.0005 9.57153 13.3763 8.98196 12.5786 8.91262V8.08025C12.5786 7.94149 12.4745 7.83744 12.3012 7.80273H11.7809C11.6422 7.80273 11.5381 7.90678 11.5034 8.08025V8.87791C10.463 9.01667 9.80404 9.71029 9.80404 10.5774C9.80404 11.7219 10.4977 12.1727 11.9543 12.3462C12.9254 12.5196 13.2376 12.7276 13.2376 13.2826C13.2376 13.8375 12.752 14.219 12.0931 14.219C11.1913 14.219 10.8791 13.8375 10.7751 13.3172C10.7405 13.1785 10.6364 13.1091 10.5324 13.1091H9.94272C9.80404 13.1091 9.7 13.2132 9.7 13.3519V13.3866C9.83867 14.2536 10.3936 14.8779 11.5381 15.0514V15.8838C11.5381 16.0224 11.6422 16.1265 11.8156 16.1612H12.3358C12.4745 16.1612 12.5786 16.0571 12.6133 15.8838V15.0514C13.6538 14.8779 14.3474 14.1496 14.3474 13.2132Z" fill="white" />
  <path d="M10.241 16.8555C7.53573 15.8844 6.14841 12.8671 7.15425 10.1965C7.67449 8.73984 8.819 7.63004 10.241 7.1098C10.3797 7.04047 10.449 6.93642 10.449 6.76295V6.27743C10.449 6.13867 10.3797 6.03463 10.241 6C10.2062 6 10.1369 6 10.1022 6.03463C6.8074 7.07509 5.0039 10.5781 6.04436 13.8728C6.66865 15.815 8.16001 17.3064 10.1022 17.9307C10.241 18 10.3797 17.9307 10.4143 17.7919C10.449 17.7573 10.449 17.7226 10.449 17.6532V17.1676C10.449 17.0636 10.345 16.9249 10.241 16.8555ZM13.9173 6.03463C13.7785 5.96529 13.6398 6.03463 13.6052 6.17338C13.5705 6.20809 13.5705 6.24272 13.5705 6.31214V6.79766C13.5705 6.93642 13.6745 7.07509 13.7785 7.14451C16.4838 8.11556 17.8711 11.1329 16.8652 13.8035C16.345 15.2602 15.2005 16.37 13.7785 16.8902C13.6398 16.9595 13.5705 17.0636 13.5705 17.237V17.7226C13.5705 17.8613 13.6398 17.9654 13.7785 18C13.8133 18 13.8826 18 13.9173 17.9654C17.2121 16.9249 19.0156 13.4219 17.9751 10.1272C17.3509 8.15027 15.8248 6.65891 13.9173 6.03463Z" fill="white" />
  <defs>
    <linearGradient id="paint0_linear_1102_2052" x1="10.62" y1="24" x2="15.3546" y2="0.201857" gradientUnits="userSpaceOnUse">
      <stop stop-color="#9E620D" />
      <stop offset="0.581544" stop-color="#FFE8BA" />
      <stop offset="1" stop-color="#D79F14" />
      <stop offset="1" stop-color="#FFE9B2" />
    </linearGradient>
  </defs>
</svg>
