<svg xmlns="http://www.w3.org/2000/svg" xmlns:xlink="http://www.w3.org/1999/xlink" viewBox="0 0 950 950"><defs><style>.cls-1{fill:#d3004c;}.cls-2{fill:none;}.cls-3{fill:#3e3a39;}.cls-4{isolation:isolate;}.cls-5{clip-path:url(#clip-path);}.cls-12,.cls-13,.cls-6{fill:#231815;}.cls-12,.cls-6{mix-blend-mode:multiply;}.cls-6{opacity:0.4;}.cls-7{fill:#efefef;}.cls-8{fill:#bc6200;}.cls-9{fill:#2f2725;}.cls-10{fill:#5b360e;}.cls-11{clip-path:url(#clip-path-2);}.cls-12{opacity:0.3;}.cls-14{fill:#f75a53;}.cls-15{clip-path:url(#clip-path-3);}.cls-16{clip-path:url(#clip-path-4);}.cls-17{fill:#e27f2d;}</style><clipPath id="clip-path"><rect class="cls-1" width="950" height="950"/></clipPath><clipPath id="clip-path-2"><path class="cls-2" d="M699.2,474.13c-13-145.28-166.36-230.22-224.36-230.22S263.46,328.85,250.47,474.13c-3.06,34.26-3.11,53-4.2,106-1.06,51.84,15.85,97.68,41.26,129,6.59,8.11,21.45,23.69,24.69,21.45s-3-18.51-.63-19.9c5.35-3.18,21.57,33.39,33.9,51.88,9.4,14.1,27.16,30.36,30.65,27.77s-2.58-15.34,0-16.89c4.72-2.87,16.63,29.37,37,45,21.66,16.64,45,22.19,61.77,34,16.77-11.79,40.1-17.34,61.76-34,20.34-15.61,32.25-47.85,37-45,2.54,1.55-3.42,14.39,0,16.89s21.25-13.67,30.65-27.77c12.33-18.49,28.55-55.06,33.9-51.88,2.33,1.39-4,17.57-.63,19.9s18.1-13.34,24.69-21.45c25.41-31.28,42.32-77.12,41.26-129C702.31,527.11,702.26,508.39,699.2,474.13Z"/></clipPath><clipPath id="clip-path-3"><path class="cls-2" d="M584.65,491.06c-13.67,11.4-16.81,25.63-37.34,36-17.26,8.73-39.26,9.23-54.81,8.53-8-2.12-14.08-4.57-17.64-4.57s-9.67,2.44-17.64,4.57c-15.55.7-37.58.2-54.86-8.53-20.53-10.36-23.67-24.59-37.34-36-10.8-9-15.95,0-9.22,8.39,15,18.76,29.73,61.08,58.6,94.76a66.06,66.06,0,0,0,9.16,8.78c8.4,30.63,24.92,42.79,51.3,42.79s42.91-12.17,51.31-42.83a66,66,0,0,0,9.1-8.74c28.87-33.68,43.58-76,58.6-94.76C600.6,491,595.45,482.06,584.65,491.06Z"/></clipPath><clipPath id="clip-path-4"><path class="cls-3" d="M547.19,422C533,400.36,502.51,349,498.7,303.92c-2.42-28.63,6-66.88,0-90.59-4.13-16.38-12.82-33.94-23.89-33.94s-19.77,17.56-23.9,33.94c-6,23.71,2.45,62,0,90.59C447.16,349,416.72,400.36,402.48,422c-35.62,54.21-27.49,87.41-14.32,103.13,22.39,26.7,68.23,11,86.68,11s64.28,15.74,86.67-11C574.68,509.44,582.81,476.24,547.19,422Z"/></clipPath></defs><g class="cls-4"><g id="Layer_2" data-name="Layer 2"><g id="Layer_3_copy" data-name="Layer 3 copy"><rect class="cls-1" width="950" height="950"/><g class="cls-5"><polygon class="cls-6" points="639.16 126.33 705.3 192.46 769.22 214.45 950 395.23 950 950 527.47 950 299.97 722.5 336.34 465.82 248.2 471.7 208.13 431.63 226.8 423.94 184.07 381.21 566.54 203.07 639.16 126.33"/></g><path class="cls-7" d="M699.2,474.13c-13-145.28-166.36-230.22-224.36-230.22S263.46,328.85,250.47,474.13c-3.06,34.26-3.11,53-4.2,106-1.06,51.84,15.85,97.68,41.26,129,6.59,8.11,21.45,23.69,24.69,21.45s-3-18.51-.63-19.9c5.35-3.18,21.57,33.39,33.9,51.88,9.4,14.1,27.16,30.36,30.65,27.77s-2.58-15.34,0-16.89c4.72-2.87,16.63,29.37,37,45,21.66,16.64,45,22.19,61.77,34,16.77-11.79,40.1-17.34,61.76-34,20.34-15.61,32.25-47.85,37-45,2.54,1.55-3.42,14.39,0,16.89s21.25-13.67,30.65-27.77c12.33-18.49,28.55-55.06,33.9-51.88,2.33,1.39-4,17.57-.63,19.9s18.1-13.34,24.69-21.45c25.41-31.28,42.32-77.12,41.26-129C702.31,527.11,702.26,508.39,699.2,474.13Z"/><path class="cls-8" d="M657.11,384.05C626.67,369,490.6,418.4,474.84,418.4S323,369,292.56,384.05c-27.81,13.75-41.32,62.53-40.33,90.51,1.35,38.08,2.16,61.29,7.37,86.56,6.44,31.31,9.46,37.06,20.26,33.15,45.73-16.58,65.29-70,122.73-49.6,19.2,6.82,55.62-37.55,72.25-43.5,16.62,5.95,53,50.32,72.24,43.5,57.44-20.38,77,33,122.73,49.6,10.8,3.91,13.82-1.84,20.26-33.15,5.21-25.27,6-48.48,7.37-86.56C698.43,446.58,684.92,397.8,657.11,384.05Z"/><path class="cls-9" d="M710.25,387.75c0-2.2,6.53,9,10.32,7.45s-5.93-20.85.22-54.39c10.91-59.53-64.39-118.19-113.16-148.24-21-13-33.1-21-54.15-27.7-3.09-1-5.23-1-6.42-.59-18.74-5.89-42.24-9.72-72.22-9.72h0c-30,0-53.48,3.83-72.22,9.72-1.19-.45-3.33-.4-6.42.59-21.05,6.74-33.1,14.7-54.15,27.7C293.28,222.62,218,281.28,228.89,340.81c6.15,33.54-3.5,52.9.21,54.39s10.33-9.65,10.33-7.45c0,15.45-34.12,38.1-32.68,41.85,2.6,6.69,16.27,4.24,18.58,4,20.9-1.74,2.9,42.39,18.09,103.37,2,8,10.17,11.85,13.85-4.08,5.22-22.64,21.29-107.76,46-116,14.76-4.95,34.69,6,49.48,13h0l.09,0,.09,0c.15.06.36.17.66.31,1.29.59,4,1.81,7.7,3.34a2.53,2.53,0,0,0,.33.12,231.4,231.4,0,0,0,28.41,9.62c.8-1.63,1.66-3.29,2.57-5,17.45-1.79,30.25-14.29,45.08-45.09,6-12.45,12.94-22.18,37.11-53.32,24.16,31.14,31.11,40.87,37.1,53.32,14.83,30.8,27.64,43.3,45.09,45.09.9,1.67,1.77,3.33,2.57,5A231.4,231.4,0,0,0,588,433.8a3.21,3.21,0,0,0,.33-.12c3.72-1.53,6.41-2.75,7.7-3.34.3-.14.51-.25.66-.31l.09,0,.09,0h0c14.79-7,34.72-18,49.48-13,24.75,8.28,40.81,93.4,46,116,3.68,15.93,11.86,12,13.84,4.08,15.2-61-2.8-105.11,18.1-103.37,2.31.19,16,2.64,18.58-4C744.37,425.85,710.25,403.2,710.25,387.75Z"/><path class="cls-7" d="M414.3,330a32.13,32.13,0,1,1-32.13-32.12A32.11,32.11,0,0,1,414.3,330Z"/><path class="cls-10" d="M403.89,330a21.72,21.72,0,1,1-21.72-21.71A21.71,21.71,0,0,1,403.89,330Z"/><path class="cls-7" d="M535.37,330a32.13,32.13,0,1,0,32.13-32.12A32.11,32.11,0,0,0,535.37,330Z"/><path class="cls-10" d="M545.78,330a21.72,21.72,0,1,0,21.72-21.71A21.71,21.71,0,0,0,545.78,330Z"/><path class="cls-3" d="M322.27,227.11c-24,40-43.71,107.58-97.64,144.52-35.5,24.31-46.88,10-44.33-5.87,2.12-13.15-1.39-72.84-9.87-105.71s7.35-48.17,36.13-63.77c21.24-11.5,59.57-31.47,89.91-39,13.55-3.34-3.79-8.18-1.31-11.13,3.64-4.34,17.26,3.09,20.94,1.18,2.45-1.27-4.12-9.06-5.8-18.57-.51-2.92,1.5-5.29,3.31-3.32,8.54,9.32,31.55,18,44.93,28.29,10.29,7.92,28.55,8.63,42.25,9.56,6.78.46,8,2.72,1.5,4.24-6.26,1.49-15.83,4.57-17.05,5.11C344.16,191,330,214.15,322.27,227.11Z"/><path class="cls-3" d="M627.4,227.11c24,40,43.7,107.58,97.64,144.52,35.5,24.31,46.88,10,44.33-5.87-2.13-13.15,1.39-72.84,9.87-105.71s-7.35-48.17-36.13-63.77c-21.24-11.5-59.57-31.47-89.91-39-13.55-3.34,3.79-8.18,1.31-11.13-3.65-4.34-17.27,3.09-20.94,1.18-2.45-1.27,4.12-9.06,5.79-18.57.52-2.92-1.49-5.29-3.31-3.32-8.53,9.32-31.54,18-44.92,28.29-10.29,7.92-28.55,8.63-42.25,9.56-6.78.46-8,2.72-1.5,4.24,6.26,1.49,15.83,4.57,17,5.11C605.51,191,619.63,214.15,627.4,227.11Z"/><g class="cls-11"><polygon class="cls-12" points="419.52 599.62 437.99 618.08 438.82 632.64 739.15 932.98 744.04 598.44 518.76 373.15 419.52 599.62"/></g><path class="cls-13" d="M584.65,491.06c-13.67,11.4-16.81,25.63-37.34,36-26.45,13.36-64.12,7.46-72.47,7.46s-46,5.9-72.48-7.46c-20.53-10.36-23.67-24.59-37.34-36-10.8-9-15.95,0-9.22,8.39,15,18.76,29.73,61.08,58.6,94.76,15.5,18.08,30.82,21.18,60.44,21.18s44.92-3.1,60.43-21.18c28.87-33.68,43.58-76,58.6-94.76C600.6,491,595.45,482.06,584.65,491.06Z"/><path class="cls-14" d="M474.86,531c-8.32,0-30.39,13.32-58.06,4.81,0,81.34,17.38,110,58.06,110s58.06-28.62,58.06-110C505.25,544.33,483.17,531,474.86,531Z"/><g class="cls-15"><polygon class="cls-12" points="391.41 528.58 512.2 649.36 612.83 488.28 581.66 468.79 391.41 528.58"/></g><path class="cls-3" d="M547.19,422C533,400.36,502.51,349,498.7,303.92c-2.42-28.63,6-66.88,0-90.59-4.13-16.38-12.82-33.94-23.89-33.94s-19.77,17.56-23.9,33.94c-6,23.71,2.45,62,0,90.59C447.16,349,416.72,400.36,402.48,422c-35.62,54.21-27.49,87.41-14.32,103.13,22.39,26.7,68.23,11,86.68,11s64.28,15.74,86.67-11C574.68,509.44,582.81,476.24,547.19,422Z"/><g class="cls-16"><path class="cls-17" d="M561.52,525.16c-8.67,10.33-20.83,14.31-33.57,15.31-20.18,1.57-41.8-4.35-53.11-4.35s-32.92,5.92-53.11,4.35c-12.74-1-24.9-5-33.56-15.31-11.34-13.54-18.93-40,1.9-81.75,16.93,4.47,36.38,7.1,51,1.81,15.95-5.78,27-6.51,33.77-6.33s18.42-.28,32.92,5.89c8.89,3.77,32,2.57,51.9-1.33C580.45,485.15,572.85,511.63,561.52,525.16Z"/><polygon class="cls-12" points="517.52 451.81 436.41 496.77 530.74 591.1 583.25 517.55 517.52 451.81"/></g><path class="cls-13" d="M474.82,438.89c-30.81,0-49.76,10-49.76,32.39,0,26.84,32.82,43.06,49.76,43.06s49.79-16.22,49.79-43.06C524.61,448.89,505.65,438.89,474.82,438.89Z"/><path class="cls-8" d="M424.5,291.38c3.28-13.81-10.14-35.63-25.67-31s-14.7,13.55-8.49,20,18.79,9.16,22.77,14.74S423.09,297.28,424.5,291.38Z"/><path class="cls-8" d="M525.17,291.38c-3.28-13.81,10.14-35.63,25.67-31s14.7,13.55,8.49,20-18.79,9.16-22.77,14.74S526.58,297.28,525.17,291.38Z"/></g></g></g></svg>