<svg xmlns="http://www.w3.org/2000/svg" xmlns:xlink="http://www.w3.org/1999/xlink" width="206.08" height="206.08" viewBox="0 0 206.08 206.08"><defs><pattern id="a" width="144" height="37.52" patternTransform="translate(6.32 102.07) scale(0.87 0.84)" patternUnits="userSpaceOnUse" viewBox="0 0 144 37.52"><rect width="144" height="37.52" fill="none"/><rect y="30.01" width="144" height="3.5"/><rect y="33.51" width="144" height="4" fill="none"/><rect y="22.51" width="144" height="3.5"/><rect y="26.01" width="144" height="4" fill="none"/><rect y="15.01" width="144" height="3.5"/><rect y="18.51" width="144" height="4" fill="none"/><rect y="7.5" width="144" height="3.5"/><rect y="11" width="144" height="4" fill="none"/><rect width="144" height="3.5"/><rect y="3.5" width="144" height="4" fill="none"/></pattern><pattern id="b" width="144" height="37.52" patternTransform="translate(-24.16 97.21) scale(0.87 0.84)" patternUnits="userSpaceOnUse" viewBox="0 0 144 37.52"><rect width="144" height="37.52" fill="none"/><rect y="30.01" width="144" height="3.5"/><rect y="33.51" width="144" height="4" fill="none"/><rect y="22.51" width="144" height="3.5"/><rect y="26.01" width="144" height="4" fill="none"/><rect y="15.01" width="144" height="3.5"/><rect y="18.51" width="144" height="4" fill="none"/><rect y="7.5" width="144" height="3.5"/><rect y="11" width="144" height="4" fill="none"/><rect width="144" height="3.5"/><rect y="3.5" width="144" height="4" fill="none"/></pattern></defs><rect x="3.04" y="3.04" width="200" height="200" rx="100" fill="#8effb7" stroke="#000" stroke-miterlimit="10" stroke-width="6.08"/><circle cx="103.04" cy="103.04" r="90" fill="#8effb7" stroke="#000" stroke-miterlimit="10" stroke-width="6.08"/><path d="M60.47,141.12q-13-10-13-30.19V55H79.35v54.87q0,21.71,23.69,21.7,12.25,0,17.91-5.53t5.64-16.17V55h32v56q0,40.17-55.6,40.17Q73.49,151.1,60.47,141.12Z" fill="url(#a)"/><path d="M80.87,136.69q-10.19-3.13-16.26-9.4a21,21,0,0,1-6.08-15.17l26.88-2.06q.48,7.43,4.84,10.33t13.91,2.9q15.8,0,15.8-7.3a5.41,5.41,0,0,0-2.3-4.56c-1.53-1.14-4.15-2.09-7.84-2.85l-23.23-5.47q-14-3.31-19.92-8.27T60.77,81.1q0-10.38,9.61-17.17t32-6.78q18.87,0,30.83,6.78t12.32,19.9L120.43,86q-.12-7.06-4.66-9.69t-13.61-2.63q-13.68,0-13.68,6.73a5.91,5.91,0,0,0,2.36,4.85q2.35,1.88,8.25,3l19.22,4.11a98.45,98.45,0,0,1,17.27,5.24q6.18,2.75,9.08,6.79a17.59,17.59,0,0,1,2.89,10.43q0,25-44.1,25A76.64,76.64,0,0,1,80.87,136.69Z" fill="url(#b)"/></svg>