<svg width="128" height="128" viewBox="0 0 128 128" fill="none" xmlns="http://www.w3.org/2000/svg">
    <mask id="path-1-inside-1_1015_2265" fill="white">
        <path
            d="M128 64C128 99.3462 99.3462 128 64 128C28.6538 128 0 99.3462 0 64C0 28.6538 28.6538 0 64 0C99.3462 0 128 28.6538 128 64Z" />
    </mask>
    <path
        d="M128 64C128 99.3462 99.3462 128 64 128C28.6538 128 0 99.3462 0 64C0 28.6538 28.6538 0 64 0C99.3462 0 128 28.6538 128 64Z"
        fill="black" />
    <path
        d="M121 64C121 95.4802 95.4802 121 64 121V135C103.212 135 135 103.212 135 64H121ZM64 121C32.5198 121 7 95.4802 7 64H-7C-7 103.212 24.7878 135 64 135V121ZM7 64C7 32.5198 32.5198 7 64 7V-7C24.7878 -7 -7 24.7878 -7 64H7ZM64 7C95.4802 7 121 32.5198 121 64H135C135 24.7878 103.212 -7 64 -7V7Z"
        fill="url(#paint0_linear_1015_2265)" mask="url(#path-1-inside-1_1015_2265)" />
    <path
        d="M72.7786 113.888C69.767 111.388 71.2035 105.198 65.6675 99.6657C60.1315 94.1297 47.527 93.3191 41.9946 87.7831C36.4586 82.2471 32.0924 66.0871 26.5564 60.5511C21.0239 55.0151 15.8328 55.1893 12.3341 53.44C5.22304 49.8844 2.08704 42.9795 1.66748 39.2177C1.66748 39.2177 12.8426 28.5475 12.3341 21.44C11.8257 14.3324 19.4453 3.66218 19.4453 3.66218C19.4453 3.66218 23.0008 0.103065 37.223 21.44C40.0106 25.6248 51.4453 24.9955 58.5564 32.1066C65.6675 39.2177 65.6675 49.8808 72.7786 56.9955C79.8897 64.1066 90.5564 64.1066 97.6675 71.2177C104.779 78.3288 104.146 89.7635 108.334 92.5511C129.667 106.773 126.112 110.329 126.112 110.329C126.112 110.329 111.285 120.996 101.227 120.996C97.6675 120.996 87.0008 124.551 87.0008 124.551C83.4453 124.555 79.4524 119.435 72.7786 113.888Z"
        fill="#DD2E44" />
    <path
        d="M122.496 111.883C121.582 109.547 117.881 104.846 104.775 96.1102C100.587 93.3227 101.22 81.888 94.1084 74.7769C86.9973 67.6658 76.3306 67.6658 69.2195 60.5547C62.1084 53.4435 62.1084 42.7769 54.9973 35.6658C47.8862 28.5547 36.4515 29.184 33.6639 24.9991C24.9315 11.8933 20.2311 8.19555 17.8951 7.28177C17.6604 7.18932 17.4506 7.12177 17.2622 7.0791C16.5653 8.25599 15.7937 9.64977 15.0613 11.168C15.3422 11.3209 15.6515 11.5058 15.9857 11.7333C18.6631 13.5502 23.0791 18.0018 30.1119 28.5511C32.8995 32.736 44.3342 32.1067 51.4453 39.2178C58.5564 46.3289 58.5564 56.9956 65.6675 64.1067C72.7786 71.2178 83.4453 71.2178 90.5564 78.3289C97.6675 85.44 97.0346 96.8747 101.223 99.6622C111.772 106.695 116.224 111.111 118.041 113.788C118.336 114.222 118.556 114.606 118.727 114.951C120.238 114.105 121.589 113.291 122.716 112.58C122.674 112.38 122.599 112.142 122.496 111.883V111.883Z"
        fill="#F4ABBA" />
    <path
        d="M118.041 113.792C116.224 111.115 111.772 106.699 101.223 99.6657C97.0346 96.8782 97.6675 85.4435 90.5564 78.3324C83.4453 71.2213 72.7786 71.2213 65.6675 64.1102C58.5564 56.9991 58.5564 46.3324 51.4453 39.2213C44.3342 32.1102 32.8995 32.7395 30.112 28.5546C23.0791 18.0053 18.6631 13.5537 15.9858 11.7368C15.6515 11.5093 15.3422 11.3208 15.0613 11.1715C14.3431 12.6577 13.6782 14.2506 13.1804 15.8435C13.4222 16.032 13.6853 16.2524 13.952 16.48C16.6862 18.8124 20.7075 23.3386 26.5564 32.1102C33.6675 42.7768 40.7786 39.2213 47.8898 46.3324C55.0009 53.4435 55.0009 60.5546 62.112 67.6657C69.2231 74.7768 76.3342 74.7768 83.4453 81.888C90.5564 88.9991 87.0009 96.1102 97.6675 103.221C106.436 109.067 110.962 113.088 113.298 115.826C113.724 116.327 114.094 116.793 114.386 117.209C115.918 116.476 117.38 115.708 118.727 114.955C118.556 114.61 118.336 114.226 118.041 113.792V113.792Z"
        fill="#FFE8B6" />
    <path
        d="M113.298 115.826C110.965 113.092 106.439 109.07 97.6675 103.221C87.0008 96.1102 90.5564 88.9991 83.4453 81.8879C76.3342 74.7768 69.223 74.7768 62.1119 67.6657C55.0008 60.5511 55.0008 53.4435 47.8897 46.3324C40.7786 39.2213 33.6675 42.7768 26.5564 32.1102C20.711 23.3386 16.6897 18.816 13.9519 16.48C13.6853 16.2524 13.4222 16.032 13.1804 15.8435C12.7039 17.3546 12.391 18.8586 12.3306 20.2666C12.3128 20.6648 12.3057 21.0631 12.3342 21.4435C12.423 22.6986 12.135 24.0675 11.623 25.4648C13.7813 27.7795 16.3484 31.0186 19.4453 35.6657C22.2328 39.8506 33.6675 39.2213 40.7786 46.3324C47.8897 53.4435 47.8897 67.6657 55.0008 74.7768C62.1119 81.8879 72.7786 81.8879 79.8897 88.9991C87.0008 96.1102 89.9235 107.545 94.1119 110.332C99.5199 113.938 103.086 116.85 105.419 119.2C105.781 119.563 106.076 119.897 106.379 120.235C109.049 119.541 111.797 118.443 114.382 117.205C114.094 116.793 113.724 116.327 113.298 115.826V115.826Z"
        fill="#EA596E" />
    <path
        d="M94.1119 110.332C89.9235 107.545 87.0008 96.1102 79.8897 88.9991C72.7786 81.888 62.1119 81.888 55.0008 74.7768C47.8897 67.6622 47.8897 53.4435 40.7786 46.3324C33.6675 39.2213 22.2328 39.8506 19.4452 35.6657C16.3483 31.0186 13.7812 27.7795 11.623 25.4648C10.8159 27.6622 9.43279 29.9306 7.93945 31.9857C10.1226 34.5813 12.7288 38.0373 15.8897 42.7768C18.6772 46.9617 30.1119 46.3324 37.223 53.4435C44.3341 60.5546 44.3341 71.2213 51.4452 78.3324C58.5563 85.4435 69.223 85.4435 76.3341 92.5546C83.4452 99.6657 82.8123 111.1 87.0008 113.888C91.5412 116.917 94.9048 119.435 97.4648 121.564C98.9795 121.227 100.331 120.999 101.227 120.999C102.848 120.999 104.594 120.7 106.382 120.238C106.08 119.9 105.781 119.566 105.422 119.204C103.086 116.853 99.5199 113.938 94.1119 110.332V110.332Z"
        fill="#FFE8B6" />
    <path
        d="M76.3342 92.5547C69.2231 85.4436 58.5564 85.4436 51.4453 78.3325C44.3342 71.2178 44.3342 60.5547 37.2231 53.4436C30.1119 46.3325 18.6773 46.9618 15.8897 42.7769C12.7288 38.0374 10.1226 34.5814 7.9395 31.9858C7.46306 32.6401 6.98306 33.2658 6.4995 33.8667C5.8915 34.6276 5.29772 35.3281 4.7395 35.9645C4.9315 36.1992 5.10928 36.3983 5.31195 36.6472C7.2995 39.1041 9.62128 42.2578 12.3342 46.3325C15.1217 50.5174 26.5564 49.8881 33.6675 56.9992C40.7786 64.1103 40.7786 74.7769 47.8897 81.8881C55.0008 88.9992 65.6675 88.9992 72.7786 96.1103C79.8897 103.221 79.2568 114.656 83.4453 117.444C86.6737 119.595 89.2693 121.476 91.4559 123.161C93.3404 122.603 95.5342 121.991 97.4613 121.561C94.9013 119.431 91.5413 116.914 86.9973 113.884C82.8124 111.1 83.4453 99.6658 76.3342 92.5547V92.5547Z"
        fill="#EA596E" />
    <mask id="path-9-outside-2_1015_2265" maskUnits="userSpaceOnUse" x="34.3987" y="34.3988" width="60" height="60"
        fill="black">
        <rect fill="white" x="34.3987" y="34.3988" width="60" height="60" />
        <path fill-rule="evenodd" clip-rule="evenodd"
            d="M89.5998 40.9588C89.5998 39.545 88.4537 38.3988 87.0399 38.3988L48.5452 38.3988C46.8631 38.3988 45.3912 38.6428 44.1296 39.1308C42.868 39.6563 41.8167 40.3507 40.9756 41.214C40.0995 42.1149 39.4512 43.1284 39.0307 44.2545C38.6101 45.4182 38.3998 46.6193 38.3998 47.858V54.0332C38.3998 56.7094 40.5693 58.8788 43.2454 58.8788H74.2399L58.8799 48.6388H87.0399C88.4537 48.6388 89.5998 47.4927 89.5998 46.0788V40.9588ZM38.3987 87.0407C38.3987 88.4545 39.5448 89.6007 40.9587 89.6007L79.4533 89.6007C81.1354 89.6007 82.6073 89.3567 83.8689 88.8687C85.1305 88.3432 86.1818 87.6488 87.0229 86.7855C87.899 85.8846 88.5473 84.8711 88.9679 83.745C89.3884 82.5813 89.5987 81.3802 89.5987 80.1415V73.9663C89.5987 71.2901 87.4292 69.1207 84.7531 69.1207H53.7587L69.1186 79.3607H40.9587C39.5448 79.3607 38.3987 80.5069 38.3987 81.9207V87.0407Z" />
    </mask>
    <path fill-rule="evenodd" clip-rule="evenodd"
        d="M89.5998 40.9588C89.5998 39.545 88.4537 38.3988 87.0399 38.3988L48.5452 38.3988C46.8631 38.3988 45.3912 38.6428 44.1296 39.1308C42.868 39.6563 41.8167 40.3507 40.9756 41.214C40.0995 42.1149 39.4512 43.1284 39.0307 44.2545C38.6101 45.4182 38.3998 46.6193 38.3998 47.858V54.0332C38.3998 56.7094 40.5693 58.8788 43.2454 58.8788H74.2399L58.8799 48.6388H87.0399C88.4537 48.6388 89.5998 47.4927 89.5998 46.0788V40.9588ZM38.3987 87.0407C38.3987 88.4545 39.5448 89.6007 40.9587 89.6007L79.4533 89.6007C81.1354 89.6007 82.6073 89.3567 83.8689 88.8687C85.1305 88.3432 86.1818 87.6488 87.0229 86.7855C87.899 85.8846 88.5473 84.8711 88.9679 83.745C89.3884 82.5813 89.5987 81.3802 89.5987 80.1415V73.9663C89.5987 71.2901 87.4292 69.1207 84.7531 69.1207H53.7587L69.1186 79.3607H40.9587C39.5448 79.3607 38.3987 80.5069 38.3987 81.9207V87.0407Z"
        fill="black" />
    <path
        d="M87.0399 38.3988L87.0398 42.3988H87.0399V38.3988ZM48.5452 38.3988L48.5452 34.3988H48.5452V38.3988ZM44.1296 39.1308L42.6866 35.4001L42.6388 35.4186L42.5915 35.4383L44.1296 39.1308ZM40.9756 41.214L38.1105 38.4228L38.108 38.4253L40.9756 41.214ZM39.0307 44.2545L35.2834 42.8551L35.276 42.875L35.2688 42.895L39.0307 44.2545ZM74.2399 58.8788V62.8788H87.451L76.4587 55.5506L74.2399 58.8788ZM58.8799 48.6388V44.6388H45.6688L56.6611 51.967L58.8799 48.6388ZM40.9587 89.6007L40.9587 85.6007H40.9587V89.6007ZM79.4533 89.6007L79.4533 93.6007H79.4533V89.6007ZM83.8689 88.8687L85.3119 92.5994L85.3597 92.5809L85.407 92.5612L83.8689 88.8687ZM87.0229 86.7855L89.8881 89.5767L89.8905 89.5742L87.0229 86.7855ZM88.9679 83.745L92.7151 85.1444L92.7225 85.1245L92.7297 85.1045L88.9679 83.745ZM53.7587 69.1207V65.1207H40.5476L51.5399 72.4489L53.7587 69.1207ZM69.1186 79.3607V83.3607H82.3297L71.3374 76.0325L69.1186 79.3607ZM87.0399 42.3988C86.2446 42.3988 85.5998 41.7541 85.5998 40.9588H93.5998C93.5998 37.3359 90.6628 34.3988 87.0399 34.3988V42.3988ZM48.5452 42.3988L87.0398 42.3988L87.0399 34.3988L48.5452 34.3988L48.5452 42.3988ZM45.5726 42.8614C46.277 42.589 47.2407 42.3988 48.5452 42.3988V34.3988C46.4855 34.3988 44.5054 34.6966 42.6866 35.4001L45.5726 42.8614ZM43.8408 44.0053C44.2576 43.5774 44.8382 43.1687 45.6677 42.8232L42.5915 35.4383C40.8978 36.1438 39.3757 37.124 38.1105 38.4228L43.8408 44.0053ZM42.7779 45.6539C42.9958 45.0704 43.3354 44.5249 43.8432 44.0028L38.108 38.4253C36.8636 39.705 35.9066 41.1865 35.2834 42.8551L42.7779 45.6539ZM42.3998 47.858C42.3998 47.0823 42.5297 46.3412 42.7925 45.6141L35.2688 42.895C34.6905 44.4951 34.3998 46.1563 34.3998 47.858H42.3998ZM42.3998 54.0332V47.858H34.3998V54.0332H42.3998ZM43.2454 54.8788C42.7784 54.8788 42.3998 54.5002 42.3998 54.0332H34.3998C34.3998 58.9185 38.3601 62.8788 43.2454 62.8788V54.8788ZM74.2399 54.8788H43.2454V62.8788H74.2399V54.8788ZM56.6611 51.967L72.0211 62.207L76.4587 55.5506L61.0987 45.3106L56.6611 51.967ZM87.0399 44.6388H58.8799V52.6388H87.0399V44.6388ZM85.5998 46.0788C85.5998 45.2835 86.2446 44.6388 87.0399 44.6388V52.6388C90.6628 52.6388 93.5998 49.7018 93.5998 46.0788H85.5998ZM85.5998 40.9588V46.0788H93.5998V40.9588H85.5998ZM40.9587 85.6007C41.754 85.6007 42.3987 86.2454 42.3987 87.0407H34.3987C34.3987 90.6637 37.3357 93.6007 40.9587 93.6007V85.6007ZM79.4533 85.6007L40.9587 85.6007L40.9587 93.6007L79.4533 93.6007L79.4533 85.6007ZM82.4259 85.1381C81.7215 85.4105 80.7578 85.6007 79.4533 85.6007V93.6007C81.513 93.6007 83.4931 93.3029 85.3119 92.5994L82.4259 85.1381ZM84.1578 83.9942C83.7409 84.4221 83.1603 84.8308 82.3308 85.1763L85.407 92.5612C87.1007 91.8557 88.6228 90.8755 89.8881 89.5767L84.1578 83.9942ZM85.2206 82.3456C85.0027 82.9291 84.6631 83.4746 84.1553 83.9967L89.8905 89.5742C91.135 88.2945 92.0919 86.813 92.7151 85.1444L85.2206 82.3456ZM85.5987 80.1415C85.5987 80.9172 85.4688 81.6583 85.206 82.3855L92.7297 85.1045C93.308 83.5044 93.5987 81.8432 93.5987 80.1415H85.5987ZM85.5987 73.9663V80.1415H93.5987V73.9663H85.5987ZM84.7531 73.1207C85.2201 73.1207 85.5987 73.4993 85.5987 73.9663H93.5987C93.5987 69.081 89.6384 65.1207 84.7531 65.1207V73.1207ZM53.7587 73.1207H84.7531V65.1207H53.7587V73.1207ZM71.3374 76.0325L55.9775 65.7925L51.5399 72.4489L66.8998 82.6889L71.3374 76.0325ZM40.9587 83.3607H69.1186V75.3607H40.9587V83.3607ZM42.3987 81.9207C42.3987 82.716 41.754 83.3607 40.9587 83.3607V75.3607C37.3357 75.3607 34.3987 78.2977 34.3987 81.9207H42.3987ZM42.3987 87.0407V81.9207H34.3987V87.0407H42.3987Z"
        fill="url(#paint1_linear_1015_2265)" mask="url(#path-9-outside-2_1015_2265)" />
    <defs>
        <linearGradient id="paint0_linear_1015_2265" x1="141.405" y1="-62.8483" x2="-77.4743" y2="125.935"
            gradientUnits="userSpaceOnUse">
            <stop stop-color="#FF0000" />
            <stop offset="1" stop-color="#FFC700" />
        </linearGradient>
        <linearGradient id="paint1_linear_1015_2265" x1="94.9618" y1="13.2585" x2="7.40719" y2="88.7735"
            gradientUnits="userSpaceOnUse">
            <stop stop-color="#FF0000" />
            <stop offset="1" stop-color="#FFC700" />
        </linearGradient>
    </defs>
</svg>