<!-- by TradingView --><svg width="18" height="18" xmlns="http://www.w3.org/2000/svg"><path fill="#1DA1F2" d="M0 0h18v18H0z"/><path d="M15 6.066c-.405.18-.84.303-1.296.357a2.27 2.27 0 00.99-1.258c-.436.261-.918.45-1.432.552A2.247 2.247 0 0011.614 5a2.265 2.265 0 00-2.197 2.79 6.387 6.387 0 01-4.65-2.375 2.278 2.278 0 00-.306 1.142c0 .788.399 1.484 1.004 1.89a2.24 2.24 0 01-1.022-.283v.028c0 1.1.778 2.02 1.81 2.228a2.268 2.268 0 01-1.019.038 2.262 2.262 0 002.107 1.578A4.506 4.506 0 014 12.98 6.353 6.353 0 007.46 14c4.15 0 6.42-3.463 6.42-6.466 0-.1-.003-.197-.007-.294.441-.321.823-.721 1.125-1.177l.002.003z" fill="#fff"/></svg>