<svg width="120" height="120" viewBox="0 0 120 120" fill="none" xmlns="http://www.w3.org/2000/svg">
<circle cx="60" cy="67" r="53" fill="#FFF7DA"/>
<g opacity="0.9">
<path fill-rule="evenodd" clip-rule="evenodd" d="M74.8231 1.54029C71.6767 4.75231 70.6861 8.42248 71.7645 12.8718C71.8557 13.2477 72.529 14.914 73.2609 16.5743C74.6164 19.6499 75.1435 21.3184 75.4012 23.3515C75.4806 23.978 75.5999 24.7797 75.6665 25.1328C75.7851 25.7623 75.797 25.7668 76.257 25.3606C77.7897 24.0074 79.3657 20.3994 79.8698 17.0894C80.2306 14.7208 79.9895 12.9326 78.8256 9.34857C77.4955 5.25215 77.1385 3.7916 76.964 1.72778C76.881 0.748614 76.7125 0 76.5747 0C76.4411 0 75.6528 0.693254 74.8231 1.54029ZM65.8923 3.92897C60.6503 6.61724 56.3033 9.81537 51.9002 14.2228C44.4283 21.7021 41.3565 28.2191 40.7254 37.9319C40.5267 40.989 41.1425 47.2634 41.9107 50.0063C41.9807 50.2569 41.603 49.7956 41.0709 48.9811C40.539 48.1667 38.8487 46.2701 37.3149 44.7665C34.9109 42.4097 34.4545 41.844 34.0059 40.6657C33.4081 39.0949 33.1629 36.1668 33.505 34.6855C33.6282 34.1528 33.6628 33.722 33.5821 33.728C33.1624 33.7589 29.5088 38.8213 27.5311 42.1126C22.4355 50.5925 19.6356 58.9589 19.054 67.4438C18.5659 74.563 21.422 84.0965 26.1494 91.1277C33.1047 101.473 44.506 107.987 57.2533 108.896C66.8165 109.579 76.4609 106.868 84.228 101.313C93.7517 94.5013 99.6586 84.2403 100.845 72.4465C101.67 64.2521 99.1739 54.0709 94.0601 44.7665C91.494 40.0973 86.1133 32.6502 83.608 30.3L82.758 29.5026L82.8928 30.6417C83.9488 39.5601 83.4461 44.9904 81.0935 50.0767C80.6583 51.0174 80.2461 51.7312 80.1777 51.6628C80.1091 51.5945 80.1743 50.4248 80.3225 49.0636C80.6731 45.8454 80.471 41.433 79.8664 39.1081C79.043 35.9419 77.3262 32.9577 73.8257 28.6082C68.2096 21.6296 67.1431 19.4271 66.91 14.325C66.7672 11.2044 67.2061 8.10649 68.2564 4.82043C68.6304 3.65012 68.8882 2.6443 68.8291 2.58529C68.77 2.52629 67.4485 3.13092 65.8923 3.92897ZM43.4776 5.73808C41.9636 10.0981 41.3877 10.9959 37.8956 14.4421C35.8542 16.4568 34.741 17.7448 34.3514 18.5429C33.2902 20.717 33.2407 24.0926 34.2317 26.7207C34.7528 28.1024 36.4473 30.7898 36.8811 30.9226C37.0375 30.9704 37.1899 30.4531 37.2811 29.5639C37.6326 26.1377 38.7292 23.5606 41.1852 20.3898C44.2376 16.4488 45.3661 13.4097 45.0902 9.87414C44.9114 7.58593 43.8138 4.77031 43.4776 5.73808Z" fill="#AD95F0"/>
<path fill-rule="evenodd" clip-rule="evenodd" d="M74.8231 1.54029C71.6767 4.75231 70.6861 8.42248 71.7645 12.8718C71.8557 13.2477 72.529 14.914 73.2609 16.5743C74.6164 19.6499 75.1435 21.3184 75.4012 23.3515C75.4806 23.978 75.5999 24.7797 75.6665 25.1328C75.7851 25.7623 75.797 25.7668 76.257 25.3606C77.7897 24.0074 79.3657 20.3994 79.8698 17.0894C80.2306 14.7208 79.9895 12.9326 78.8256 9.34857C77.4955 5.25215 77.1385 3.7916 76.964 1.72778C76.881 0.748614 76.7125 0 76.5747 0C76.4411 0 75.6528 0.693254 74.8231 1.54029ZM65.8923 3.92897C60.6503 6.61724 56.3033 9.81537 51.9002 14.2228C44.4283 21.7021 41.3565 28.2191 40.7254 37.9319C40.5267 40.989 41.1425 47.2634 41.9107 50.0063C41.9807 50.2569 41.603 49.7956 41.0709 48.9811C40.539 48.1667 38.8487 46.2701 37.3149 44.7665C34.9109 42.4097 34.4545 41.844 34.0059 40.6657C33.4081 39.0949 33.1629 36.1668 33.505 34.6855C33.6282 34.1528 33.6628 33.722 33.5821 33.728C33.1624 33.7589 29.5088 38.8213 27.5311 42.1126C22.4355 50.5925 19.6356 58.9589 19.054 67.4438C18.5659 74.563 21.422 84.0965 26.1494 91.1277C33.1047 101.473 44.506 107.987 57.2533 108.896C66.8165 109.579 76.4609 106.868 84.228 101.313C93.7517 94.5013 99.6586 84.2403 100.845 72.4465C101.67 64.2521 99.1739 54.0709 94.0601 44.7665C91.494 40.0973 86.1133 32.6502 83.608 30.3L82.758 29.5026L82.8928 30.6417C83.9488 39.5601 83.4461 44.9904 81.0935 50.0767C80.6583 51.0174 80.2461 51.7312 80.1777 51.6628C80.1091 51.5945 80.1743 50.4248 80.3225 49.0636C80.6731 45.8454 80.471 41.433 79.8664 39.1081C79.043 35.9419 77.3262 32.9577 73.8257 28.6082C68.2096 21.6296 67.1431 19.4271 66.91 14.325C66.7672 11.2044 67.2061 8.10649 68.2564 4.82043C68.6304 3.65012 68.8882 2.6443 68.8291 2.58529C68.77 2.52629 67.4485 3.13092 65.8923 3.92897ZM43.4776 5.73808C41.9636 10.0981 41.3877 10.9959 37.8956 14.4421C35.8542 16.4568 34.741 17.7448 34.3514 18.5429C33.2902 20.717 33.2407 24.0926 34.2317 26.7207C34.7528 28.1024 36.4473 30.7898 36.8811 30.9226C37.0375 30.9704 37.1899 30.4531 37.2811 29.5639C37.6326 26.1377 38.7292 23.5606 41.1852 20.3898C44.2376 16.4488 45.3661 13.4097 45.0902 9.87414C44.9114 7.58593 43.8138 4.77031 43.4776 5.73808Z" fill="url(#paint0_linear_763_907)" fill-opacity="0.2"/>
</g>
<path fill-rule="evenodd" clip-rule="evenodd" d="M63.4941 53.5109C64.428 56.7522 65.8902 59.5008 67.9542 61.894C68.6258 62.6724 70.7563 64.8087 72.6888 66.6413C80.7536 74.289 83.7927 80.0223 83.7734 87.5505C83.7621 91.8886 82.6781 95.0706 79.9928 98.6484C74.0462 106.571 63.6175 109.868 53.7256 106.952C50.4481 105.986 47.7102 104.474 45.0604 102.166C40.6531 98.3267 38.6747 94.7363 37.7338 88.8696C37.3354 86.3857 37.2207 81.2283 37.5534 80.7643C37.6768 80.5918 37.9191 80.9094 38.2015 81.6144C38.8182 83.1537 40.8438 85.7364 42.2287 86.7496C42.858 87.2099 43.9556 87.8484 44.6679 88.1685L45.9629 88.7502L45.2679 87.9423C44.1925 86.6927 42.8421 84.156 42.1908 82.1625C41.3659 79.6374 41.3711 74.1789 42.2011 71.4779C43.9523 65.7791 49.41 58.7693 58.0577 51.1122L62.7019 47L62.8841 49.513C62.9843 50.8951 63.2588 52.6942 63.4941 53.5109Z" fill="#57FAAC"/>
<path fill-rule="evenodd" clip-rule="evenodd" d="M63.4941 53.5109C64.428 56.7522 65.8902 59.5008 67.9542 61.894C68.6258 62.6724 70.7563 64.8087 72.6888 66.6413C80.7536 74.289 83.7927 80.0223 83.7734 87.5505C83.7621 91.8886 82.6781 95.0706 79.9928 98.6484C74.0462 106.571 63.6175 109.868 53.7256 106.952C50.4481 105.986 47.7102 104.474 45.0604 102.166C40.6531 98.3267 38.6747 94.7363 37.7338 88.8696C37.3354 86.3857 37.2207 81.2283 37.5534 80.7643C37.6768 80.5918 37.9191 80.9094 38.2015 81.6144C38.8182 83.1537 40.8438 85.7364 42.2287 86.7496C42.858 87.2099 43.9556 87.8484 44.6679 88.1685L45.9629 88.7502L45.2679 87.9423C44.1925 86.6927 42.8421 84.156 42.1908 82.1625C41.3659 79.6374 41.3711 74.1789 42.2011 71.4779C43.9523 65.7791 49.41 58.7693 58.0577 51.1122L62.7019 47L62.8841 49.513C62.9843 50.8951 63.2588 52.6942 63.4941 53.5109Z" fill="url(#paint1_linear_763_907)" fill-opacity="0.15"/>
<path d="M73.5461 97.4432C73.1663 102.827 69.7999 105.533 66.7985 106.882C64.2481 107.897 61.0018 108.758 55.2738 106.939C53.268 106.002 51.2142 104.398 49.7417 101.666C48.9716 100.24 46.8012 94.9753 52.4022 88.1202C58.5796 80.7301 59.4317 74.6819 59.2537 72.5235C59.2269 72.1985 58.9607 71.8599 59.2537 72.0598C60.063 72.6117 60.7683 73.2589 61.3711 73.9515C63.6892 76.6148 64.7407 79.8923 64.7407 83.0762C64.7407 84.9887 64.684 88.403 65.071 89.3109C66.199 88.9663 66.7985 86.1404 66.7985 83.0762C67.759 83.8144 71.0755 86.9042 72.4259 90.5881C73.4761 93.4947 73.6862 95.798 73.5461 97.4432Z" fill="#FFF7DA"/>
<defs>
<linearGradient id="paint0_linear_763_907" x1="60" y1="0" x2="60" y2="109" gradientUnits="userSpaceOnUse">
<stop stop-opacity="0"/>
<stop offset="1"/>
</linearGradient>
<linearGradient id="paint1_linear_763_907" x1="60.5659" y1="47" x2="60.5659" y2="108" gradientUnits="userSpaceOnUse">
<stop stop-opacity="0"/>
<stop offset="1"/>
</linearGradient>
</defs>
</svg>
