<svg xmlns="http://www.w3.org/2000/svg" viewBox="0 0 128 128"><defs><style>.cls-1{fill:#7f66ff;}.cls-2{fill:#fff;}</style></defs><g id="图层_2" data-name="图层 2"><g id="图层_3" data-name="图层 3"><circle class="cls-1" cx="64" cy="64" r="64"/><path class="cls-2" d="M52,103.38a1.71,1.71,0,0,0-1.16-1.6,40,40,0,0,1,0-75.56A1.71,1.71,0,0,0,52,24.62V19.76a1.7,1.7,0,0,0-2.21-1.62,48,48,0,0,0,0,91.72A1.7,1.7,0,0,0,52,108.24Z"/><path class="cls-2" d="M75,19.48v4.31c0,1.25.49,1.89,1.2,2.12a40,40,0,0,1,0,76.18,1.71,1.71,0,0,0-1.2,1.62v4.8a1.71,1.71,0,0,0,2.18,1.64,48,48,0,0,0,0-92.3A1.71,1.71,0,0,0,75,19.48Z"/><path class="cls-2" d="M64,60c-4.69,0-8.5-2.69-8.5-6s3.81-6,8.5-6c4.12,0,7.56,2.07,8.34,4.82A1.66,1.66,0,0,0,74,54h5.2a1.65,1.65,0,0,0,1.68-2c-.91-5.24-5.34-9.53-11.25-11.22a1.68,1.68,0,0,1-1.2-1.62V33.7A1.71,1.71,0,0,0,66.67,32H61.08a1.71,1.71,0,0,0-1.71,1.7v5.54a1.67,1.67,0,0,1-1.18,1.61C51.67,42.81,47,48,47,54c0,7.73,7.61,14,17,14,4.69,0,8.5,2.69,8.5,6s-3.81,6-8.5,6c-4.12,0-7.56-2.07-8.34-4.82A1.66,1.66,0,0,0,54.05,74h-5.2a1.65,1.65,0,0,0-1.68,2c.9,5.17,5.23,9.42,11,11.16a1.67,1.67,0,0,1,1.18,1.61V94.3A1.71,1.71,0,0,0,61.08,96h5.59a1.71,1.71,0,0,0,1.71-1.7V88.83a1.68,1.68,0,0,1,1.2-1.62C76.22,85.31,81,80.12,81,74,81,66.27,73.39,60,64,60Z"/></g></g></svg>