<svg width="512" height="512" viewBox="0 0 512 512" fill="none" xmlns="http://www.w3.org/2000/svg">
    <path
        d="M256 512C397.385 512 512 397.385 512 256C512 114.615 397.385 0 256 0C114.615 0 0 114.615 0 256C0 397.385 114.615 512 256 512Z"
        fill="black" />
    <path fill-rule="evenodd" clip-rule="evenodd"
        d="M157.978 326.566C158.942 325.507 160.115 324.66 161.425 324.081C162.733 323.501 164.15 323.201 165.581 323.2L400.179 323.392C401.179 323.395 402.156 323.686 402.992 324.233C403.829 324.78 404.488 325.558 404.89 326.472C405.293 327.386 405.421 328.398 405.26 329.384C405.098 330.369 404.654 331.287 403.981 332.026L354.023 387.034C353.059 388.093 351.884 388.941 350.574 389.521C349.264 390.1 347.847 390.4 346.413 390.4L111.821 390.208C110.822 390.205 109.845 389.914 109.009 389.367C108.173 388.82 107.513 388.042 107.111 387.128C106.708 386.214 106.58 385.202 106.741 384.216C106.902 383.231 107.347 382.313 108.02 381.574L157.978 326.566ZM403.981 280.774C404.654 281.513 405.098 282.431 405.26 283.416C405.421 284.402 405.293 285.414 404.89 286.328C404.488 287.242 403.829 288.02 402.992 288.567C402.156 289.114 401.179 289.405 400.179 289.408L165.587 289.6C164.155 289.6 162.738 289.3 161.427 288.721C160.117 288.141 158.942 287.293 157.978 286.234L108.02 231.194C107.347 230.455 106.902 229.537 106.741 228.552C106.58 227.566 106.708 226.554 107.111 225.64C107.513 224.726 108.173 223.948 109.009 223.401C109.845 222.854 110.822 222.563 111.821 222.56L346.419 222.368C347.852 222.369 349.267 222.669 350.577 223.249C351.886 223.828 353.06 224.675 354.023 225.734L403.981 280.774ZM157.978 124.966C158.942 123.907 160.115 123.06 161.425 122.481C162.733 121.901 164.15 121.601 165.581 121.6L400.179 121.792C401.179 121.794 402.156 122.086 402.992 122.633C403.829 123.18 404.488 123.957 404.89 124.872C405.293 125.786 405.421 126.798 405.26 127.783C405.098 128.769 404.654 129.687 403.981 130.426L354.023 185.434C353.059 186.493 351.884 187.341 350.574 187.921C349.264 188.5 347.847 188.8 346.413 188.8L111.821 188.608C110.822 188.605 109.845 188.314 109.009 187.767C108.173 187.22 107.513 186.442 107.111 185.528C106.708 184.614 106.58 183.602 106.741 182.616C106.902 181.631 107.347 180.713 108.02 179.974L157.978 124.966Z"
        fill="#9945FF" />
</svg>