<?xml version="1.0" standalone="no"?>
<!DOCTYPE svg PUBLIC "-//W3C//DTD SVG 20010904//EN"
 "http://www.w3.org/TR/2001/REC-SVG-20010904/DTD/svg10.dtd">
<svg version="1.0" xmlns="http://www.w3.org/2000/svg"
 width="256.000000pt" height="256.000000pt" viewBox="0 0 256.000000 256.000000"
 preserveAspectRatio="xMidYMid meet">
<metadata>
Created by potrace 1.10, written by Peter Selinger 2001-2011
</metadata>
<g transform="translate(0.000000,256.000000) scale(0.100000,-0.100000)"
fill="#000000" stroke="none">
<path d="M1631 2092 c-13 -2 -36 -15 -50 -28 -21 -20 -27 -36 -31 -87 -4 -48
-8 -61 -20 -58 -84 20 -161 4 -190 -42 -7 -12 -47 -89 -88 -171 -77 -155 -80
-172 -45 -215 16 -18 21 -19 42 -8 13 6 29 21 35 32 6 11 13 22 16 25 3 3 34
64 69 136 61 122 66 130 95 132 17 1 43 5 59 8 18 4 27 1 27 -7 0 -7 11 -25
25 -39 23 -24 25 -30 14 -54 -11 -24 -17 -26 -73 -26 -37 0 -77 -8 -101 -19
-35 -16 -46 -29 -82 -102 -85 -174 -86 -177 -48 -215 24 -23 28 -25 47 -12 12
8 37 44 56 79 85 157 72 144 133 147 l54 3 -27 -28 c-14 -15 -63 -101 -109
-190 -45 -90 -85 -163 -88 -163 -4 0 -24 35 -46 78 -21 42 -60 115 -86 162
-46 85 -93 172 -198 369 -76 141 -82 145 -223 142 -118 -1 -148 -6 -148 -22 0
-5 58 -9 135 -9 l135 0 20 -32 c11 -18 105 -189 208 -380 131 -243 192 -347
204 -348 12 0 42 50 104 173 47 94 93 180 102 190 12 13 31 17 89 17 l73 0 0
45 c0 73 19 85 140 85 135 0 140 -5 140 -138 0 -134 -6 -142 -110 -142 l-78 0
-26 -47 c-15 -25 -25 -47 -24 -48 59 -33 58 -31 58 -120 0 -114 -10 -125 -118
-125 -69 0 -81 3 -100 23 -19 20 -22 35 -22 100 0 92 17 117 78 117 34 0 39 4
65 51 26 47 27 53 13 68 -9 10 -16 32 -16 49 0 32 0 32 -52 32 -29 0 -58 -4
-64 -8 -6 -4 -39 -61 -72 -127 -109 -219 -183 -350 -208 -373 -20 -17 -37 -22
-80 -22 -31 0 -64 4 -74 10 -16 9 -69 104 -409 732 -62 114 -117 210 -122 214
-17 10 -22 -27 -5 -45 9 -10 16 -20 16 -23 0 -3 19 -41 43 -84 52 -94 104
-189 144 -264 17 -30 71 -129 120 -220 50 -91 99 -181 110 -200 43 -79 75
-121 101 -131 41 -16 129 -12 161 7 34 20 104 139 238 405 19 37 42 74 52 83
48 44 109 -31 76 -94 -9 -18 -23 -30 -36 -30 -24 0 -71 -23 -88 -44 -17 -20
-24 -142 -10 -183 14 -44 57 -65 138 -68 80 -3 117 13 137 60 21 51 18 141 -7
191 -16 34 -18 47 -9 63 9 18 20 21 70 21 116 0 140 30 140 174 0 91 -1 97
-29 128 -28 31 -33 33 -110 36 -45 2 -97 1 -115 -2 -44 -8 -86 -51 -86 -86 0
-31 -22 -42 -55 -29 -20 8 -20 8 1 14 13 4 35 34 59 81 l38 74 43 0 c99 0 127
40 125 178 -2 93 -15 140 -43 159 -14 9 -188 20 -227 15z m219 -52 c17 -17 20
-33 20 -125 0 -131 -9 -145 -98 -145 l-58 0 -34 -70 c-19 -39 -41 -77 -50 -85
-10 -9 -45 -15 -99 -17 l-83 -3 -62 -122 c-33 -67 -64 -122 -67 -122 -4 -1
-14 10 -23 24 -16 24 -14 28 40 135 75 147 78 150 179 150 l81 0 27 55 c23 47
24 55 10 55 -9 0 -25 7 -35 17 -15 14 -18 32 -18 126 0 148 -1 147 142 147 95
0 110 -2 128 -20z m-330 -165 c0 -14 0 -28 0 -32 0 -3 -24 -6 -53 -7 l-52 -1
-85 -172 c-47 -94 -87 -172 -90 -172 -3 -1 -12 11 -21 27 -15 26 -14 30 67
194 46 92 91 171 101 177 10 6 44 11 76 11 54 0 57 -1 57 -25z"/>
<path d="M1640 1995 c-1 -3 -1 -40 -2 -82 l0 -78 86 -3 86 -3 0 86 0 85 -85 0
c-47 0 -85 -2 -85 -5z m136 -49 c3 -13 4 -37 2 -52 -3 -27 -6 -29 -55 -32
l-53 -3 0 55 0 56 50 0 c44 0 50 -3 56 -24z"/>
<path d="M1780 1520 l0 -80 80 0 80 0 0 80 0 80 -80 0 -80 0 0 -80z m125 30
c4 -11 4 -34 0 -50 -6 -28 -10 -30 -51 -30 l-44 0 0 43 c0 24 2 46 5 48 2 3
22 6 44 7 32 2 41 -1 46 -18z"/>
<path d="M1640 1160 l0 -60 60 0 60 0 0 60 0 60 -60 0 -60 0 0 -60z m90 0 c0
-27 -3 -30 -30 -30 -27 0 -30 3 -30 30 0 27 3 30 30 30 27 0 30 -3 30 -30z"/>
<path d="M780 820 c-19 -5 -45 -11 -56 -15 -12 -4 -25 -2 -28 4 -20 32 -84 -4
-104 -59 l-9 -24 -13 24 c-36 70 -86 90 -115 46 -16 -23 -14 -30 26 -131 42
-107 64 -135 105 -135 24 0 59 37 69 73 4 12 16 42 28 67 l20 45 11 -76 c15
-103 22 -109 112 -109 61 0 78 4 94 20 12 12 18 26 14 33 -3 7 6 -3 21 -21 32
-38 44 -40 83 -7 l29 24 23 -24 c28 -30 53 -32 80 -5 19 19 20 22 4 52 -15 29
-15 34 0 59 28 47 21 93 -19 128 -32 28 -42 31 -102 31 -48 0 -72 -5 -85 -17
-18 -16 -21 -16 -49 1 -35 21 -90 27 -139 16z m130 -51 c0 -17 -7 -19 -60 -19
-57 0 -60 -1 -60 -25 0 -23 3 -25 50 -25 46 0 50 -2 50 -24 0 -22 -3 -23 -50
-18 l-50 5 0 -32 0 -31 60 0 c53 0 60 -2 60 -20 0 -18 -7 -20 -82 -20 l-83 0
2 117 c2 65 3 118 3 118 0 0 36 -1 80 -3 71 -3 80 -6 80 -23z m-364 -56 c28
-79 44 -109 44 -82 0 7 12 47 26 87 23 63 30 72 51 72 16 0 23 -5 20 -12 -2
-7 -21 -59 -42 -115 -35 -95 -40 -103 -64 -103 -24 0 -30 10 -72 115 l-46 115
27 0 c26 0 30 -6 56 -77z m591 55 c29 -27 30 -74 2 -104 l-21 -23 21 -34 c26
-43 26 -47 -1 -47 -16 0 -30 12 -46 40 -17 31 -29 40 -49 40 -24 0 -25 -2 -20
-40 5 -38 4 -40 -23 -40 l-28 0 2 115 1 115 69 0 c58 0 74 -4 93 -22z m-193
-118 c-9 -50 -14 -55 -31 -31 -13 19 -13 25 -2 32 11 6 11 14 3 38 -10 24 -9
32 5 45 15 16 16 14 22 -21 4 -21 5 -49 3 -63z"/>
<path d="M1020 715 c0 -34 1 -35 40 -35 44 0 65 22 49 52 -7 13 -22 18 -49 18
-39 0 -40 -1 -40 -35z"/>
<path d="M1675 822 c-30 -6 -55 -32 -55 -59 0 -31 -8 -29 -53 14 -36 36 -41
38 -115 41 -96 5 -111 -7 -114 -89 -6 -176 6 -199 100 -199 69 0 111 18 146
62 l24 32 15 -36 c9 -20 24 -41 35 -47 30 -16 143 -13 166 4 16 12 22 12 47 0
38 -20 42 -19 79 11 l31 27 22 -21 c20 -19 43 -26 75 -23 22 2 2 21 -21 21
-15 0 -30 13 -47 40 -14 22 -27 40 -30 40 -3 0 -15 -18 -28 -40 -18 -33 -28
-40 -52 -40 -17 0 -30 1 -30 3 0 2 18 28 40 57 22 29 40 58 40 62 0 5 -18 32
-39 61 -22 28 -39 53 -37 54 2 2 16 0 33 -3 20 -4 35 -17 48 -40 10 -19 21
-34 26 -34 4 0 16 15 27 34 18 30 66 56 79 42 3 -2 -14 -28 -37 -57 -22 -28
-39 -56 -38 -60 7 -19 91 -129 96 -124 3 3 -9 32 -26 64 -30 57 -30 61 -16 90
8 17 19 33 25 36 13 9 11 49 -3 63 -18 18 -52 14 -81 -9 l-26 -20 -30 22 c-21
15 -37 20 -56 15 -38 -10 -42 -33 -12 -87 29 -51 28 -64 -11 -116 l-24 -32
-23 27 c-22 25 -22 28 -8 45 13 14 14 22 4 43 -10 23 -9 30 9 49 26 28 25 39
-4 59 -23 15 -110 25 -151 18z m-129 -66 c29 -29 34 -41 34 -81 0 -40 -5 -52
-34 -81 -32 -32 -38 -34 -105 -34 l-71 0 0 115 0 115 71 0 c67 0 73 -2 105
-34z m274 14 c0 -18 -7 -20 -60 -20 -57 0 -60 -1 -60 -25 0 -23 3 -25 50 -25
46 0 50 -2 50 -24 0 -22 -3 -23 -50 -18 l-50 5 0 -32 0 -31 60 0 c53 0 60 -2
60 -20 0 -18 -7 -20 -85 -20 l-85 0 0 115 0 115 85 0 c78 0 85 -2 85 -20z"/>
<path d="M1420 675 c0 -73 1 -75 24 -75 69 0 108 47 85 102 -14 34 -37 48 -78
48 l-31 0 0 -75z m77 19 c3 -8 1 -26 -5 -39 -16 -35 -42 -22 -42 21 0 28 4 34
20 34 11 0 23 -7 27 -16z"/>
<path d="M1242 813 c-31 -12 -43 -62 -36 -151 4 -48 10 -94 15 -103 15 -28 49
-30 75 -4 22 22 24 32 24 123 0 90 -2 100 -23 120 -24 22 -32 25 -55 15z m48
-138 l0 -115 -25 0 -25 0 0 115 0 115 25 0 25 0 0 -115z"/>
</g>
</svg>
