<svg xmlns="http://www.w3.org/2000/svg" width="40" height="40" viewBox="0 0 40 40">
  <defs>
    <linearGradient id="harmony-a" x1="50%" x2="-19.155%" y1="0%" y2="68.945%">
      <stop offset="0%" stop-color="#00E8A2"/>
      <stop offset="100%" stop-color="#00ADE8"/>
    </linearGradient>
  </defs>
  <g fill="none" fill-rule="evenodd">
    <circle cx="20" cy="20" r="20" fill="url(#harmony-a)" fill-rule="nonzero"/>
    <path fill="#FFF" fill-rule="nonzero" d="M25.7142222,10 C23.354,10 21.4285556,11.9313311 21.3664444,14.2987728 L21.3664444,19.0958783 C20.9316667,19.0958783 20.4968889,19.1582116 20,19.1582116 C19.5031111,19.1582116 19.0683333,19.1582116 18.6335556,19.2205448 L18.6335556,14.2987728 C18.6335556,11.9313311 16.646,10 14.2235556,10.0623333 C11.9254444,10.0623333 10.0621111,11.9936644 10,14.2987728 L10,25.7620928 C10.0621111,28.1295345 11.9875556,30.0608656 14.4098889,29.9985323 C16.7701111,29.9361991 18.6335556,28.0672012 18.6335556,25.7620928 L18.6335556,20.9649873 C19.0683333,20.9649873 19.5031111,20.902654 20,20.902654 C20.4968889,20.902654 20.9316667,20.902654 21.3664444,20.8403207 L21.3664444,25.6997595 C21.4285556,28.0672012 23.354,29.9985323 25.7764444,29.9361991 C28.1366667,29.8738658 30,28.004868 30,25.6997595 L30,14.2987728 C30,11.9313311 28.0745556,10 25.7142222,10 Z M14.3477778,11.7444424 C15.7764444,11.7444424 16.8944444,12.8658856 16.8944444,14.2987728 L16.8944444,19.3451003 C15.6522222,19.5319889 14.4098889,19.9057663 13.2297778,20.4042101 C12.7328889,20.6534321 12.236,20.902654 11.8012222,21.2764313 L11.8012222,14.2987728 C11.8012222,12.9281077 12.9192222,11.7444424 14.3477778,11.7444424 Z M16.8944444,25.7620928 C16.8944444,27.19498 15.7764444,28.3164232 14.3477778,28.3164232 C12.9192222,28.3164232 11.8012222,27.19498 11.8012222,25.7620928 L11.8012222,24.6406497 C11.8012222,23.643873 12.6086667,22.6469853 13.9751111,22.0863193 C14.9067778,21.6502087 15.9006667,21.4009868 16.9565556,21.2140981 L16.8944444,25.7620928 Z M25.7142222,28.3164232 C24.2857778,28.3164232 23.1676667,27.19498 23.1676667,25.7620928 L23.1676667,20.7156542 C24.41,20.5288767 25.6521111,20.1549882 26.8323333,19.6566554 C27.3292222,19.4074335 27.8261111,19.1582116 28.2608889,18.7844342 L28.2608889,25.7620928 C28.2608889,27.19498 27.0807778,28.3164232 25.7142222,28.3164232 Z M26.087,18.0367684 C25.1553333,18.472879 24.1614444,18.722101 23.1055556,18.9089897 L23.1055556,14.2987728 C23.1055556,12.8658856 24.2235556,11.7444424 25.6521111,11.7444424 C27.0807778,11.7444424 28.1987778,12.8658856 28.1987778,14.2987728 L28.1987778,15.4201048 C28.2608889,16.4792147 27.4534444,17.4137692 26.087,18.0367684 Z"/>
  </g>
</svg>
