<svg width="1000" height="1000" viewBox="0 0 1000 1000" fill="none" xmlns="http://www.w3.org/2000/svg">
<path d="M500 1000C776.142 1000 1000 776.142 1000 500C1000 223.858 776.142 0 500 0C223.858 0 0 223.858 0 500C0 776.142 223.858 1000 500 1000Z" fill="url(#paint0_radial_131_36)"/>
<g style="mix-blend-mode:overlay">
<path d="M413.461 487.763C412.345 487.432 410.5 486.985 409.36 486.77C408.22 486.555 406.695 486.332 405.971 486.273C405.246 486.214 404.309 486.25 403.887 486.352C403.465 486.454 402.855 486.675 402.53 486.843C402.205 487.01 401.708 487.45 401.426 487.819C401.144 488.189 400.77 488.895 400.595 489.388C400.42 489.881 400.225 490.967 400.161 491.802C400.096 492.637 400.148 494.276 400.276 495.444C400.403 496.613 400.785 498.935 401.125 500.604C401.465 502.273 402.016 504.732 402.351 506.067C402.685 507.403 403.417 509.907 403.979 511.632C404.54 513.357 405.504 516.088 406.121 517.702C406.739 519.316 407.945 522.149 408.803 523.999C409.66 525.849 411.226 528.945 412.284 530.879C413.341 532.813 414.737 535.25 415.386 536.294C416.035 537.338 418.181 540.343 420.156 542.971C422.13 545.599 424.746 548.841 425.968 550.177C427.19 551.512 429.414 553.779 430.91 555.213C432.773 556.998 435.26 559.035 438.798 561.674C441.64 563.794 444.968 566.186 446.194 566.989C447.42 567.793 449.53 569.037 450.884 569.754C452.238 570.471 454.922 571.81 456.849 572.729C458.776 573.649 461.544 574.883 463 575.474C464.456 576.064 467.38 577.157 469.497 577.901C471.615 578.645 474.35 579.481 475.576 579.76C476.935 580.068 478.517 580.278 479.629 580.296C480.725 580.315 481.763 580.217 482.23 580.052C482.657 579.901 483.307 579.514 483.673 579.193C484.04 578.872 484.547 578.131 484.8 577.546C485.123 576.8 485.289 575.936 485.357 574.656C485.411 573.652 485.347 572.014 485.215 571.015C485.083 570.016 484.475 566.967 483.863 564.241C483.252 561.514 482.483 558.325 482.154 557.155C481.826 555.984 481.158 553.844 480.67 552.4C480.181 550.955 479.277 548.453 478.659 546.839C478.042 545.226 477.204 543.131 476.798 542.185C476.392 541.239 475.645 539.691 475.138 538.745C474.631 537.8 473.216 535.386 471.994 533.381C470.772 531.377 468.525 527.952 467 525.77C465.476 523.588 463.641 521.085 462.923 520.207C462.204 519.33 458.967 515.963 455.729 512.725C451.218 508.214 449.256 506.404 447.336 504.984C445.958 503.965 443.496 502.236 441.865 501.141C440.234 500.046 437.622 498.393 436.062 497.467C434.502 496.541 431.853 495.086 430.175 494.233C428.234 493.247 425.008 491.897 421.308 490.524C418.108 489.336 414.577 488.094 413.461 487.763Z" fill="white"/>
</g>
<g style="mix-blend-mode:overlay">
<path d="M599.333 488.463C598.969 487.931 598.399 487.469 597.666 487.113C597.033 486.807 596.069 486.535 595.437 486.484C594.824 486.436 594.003 486.432 593.613 486.475C593.223 486.519 592.129 486.693 591.181 486.861C590.234 487.03 588.684 487.399 587.736 487.682C586.789 487.965 584.694 488.652 583.08 489.209C581.467 489.765 579.187 490.595 578.015 491.053C576.842 491.511 573.369 493.138 570.298 494.668C565.703 496.958 563.908 497.986 560.166 500.471C557.665 502.132 554.889 504.1 553.997 504.845C553.106 505.589 550.932 507.535 549.166 509.168C547.4 510.801 544.391 513.78 542.479 515.787C540.567 517.795 538.403 520.116 537.671 520.947C536.939 521.777 535.927 523.003 535.423 523.671C534.918 524.339 533.363 526.57 531.966 528.628C530.57 530.687 528.835 533.419 528.111 534.699C527.386 535.978 526.201 538.209 525.477 539.656C524.753 541.103 523.634 543.47 522.991 544.917C522.348 546.364 521.022 549.96 520.044 552.909C519.066 555.859 517.895 559.623 517.443 561.274C516.99 562.925 516.464 565.292 516.272 566.535C516.037 568.065 515.924 570.034 515.922 572.638C515.92 575.768 515.983 576.645 516.261 577.356C516.449 577.836 516.794 578.498 517.029 578.827C517.264 579.156 517.836 579.628 518.3 579.876C519.028 580.265 519.436 580.324 521.272 580.307C522.625 580.295 524.131 580.129 525.409 579.852C526.513 579.612 528.748 578.971 530.373 578.428C531.999 577.885 534.833 576.849 536.672 576.128C538.511 575.406 541.562 574.101 543.451 573.229C545.341 572.357 547.969 571.068 549.292 570.366C550.616 569.663 553.72 567.731 556.191 566.072C558.663 564.414 562.098 561.903 563.825 560.493C565.553 559.083 567.894 557.165 569.027 556.231C570.161 555.297 571.911 553.644 572.916 552.557C573.921 551.471 576.498 548.443 578.643 545.828C581.006 542.947 583.434 539.717 584.804 537.633C586.047 535.741 587.589 533.3 588.23 532.209C588.87 531.118 590.337 528.295 591.488 525.936C592.64 523.577 594.187 520.019 594.925 518.03C595.664 516.04 596.755 512.762 597.351 510.745C597.946 508.729 598.624 506.157 598.857 505.03C599.09 503.902 599.516 501.444 599.804 499.566C600.091 497.689 600.378 495.196 600.441 494.028C600.527 492.416 600.474 491.586 600.221 490.588C600.037 489.865 599.638 488.908 599.333 488.463Z" fill="white"/>
</g>
<g style="mix-blend-mode:overlay">
<path fill-rule="evenodd" clip-rule="evenodd" d="M133 500.188C133 703 297.375 867.375 500.188 867.375C597.572 867.375 690.967 828.689 759.828 759.828C828.689 690.967 867.375 597.572 867.375 500.188C867.375 297.375 703 133 500.188 133C297.375 133 133 297.375 133 500.188ZM276.675 660.56C243.03 613.851 224.911 557.752 224.875 500.188C224.911 442.454 243.137 386.199 276.964 339.414C310.79 292.628 358.499 257.69 413.312 239.562C415.302 238.859 417.432 238.646 419.522 238.94C421.612 239.235 423.6 240.03 425.317 241.256C427.034 242.483 428.43 244.106 429.387 245.987C430.344 247.868 430.833 249.952 430.812 252.062V259.25C430.802 265.023 429.073 270.663 425.845 275.449C422.617 280.236 418.036 283.952 412.688 286.125C370.175 303.284 333.761 332.757 308.118 370.76C282.476 408.763 268.775 453.561 268.775 499.406C268.775 545.251 282.476 590.05 308.118 628.053C333.761 666.055 370.175 695.528 412.688 712.688C418.061 714.915 422.652 718.688 425.879 723.529C429.106 728.369 430.823 734.058 430.812 739.875V746.438C430.812 750.167 429.331 753.744 426.694 756.381C424.056 759.018 420.48 760.5 416.75 760.5H412.375C357.787 742.229 310.319 707.269 276.675 660.56ZM723.609 340C757.249 386.647 775.399 442.676 775.5 500.188C775.552 557.767 757.508 613.907 723.919 660.674C690.329 707.441 642.893 742.471 588.312 760.812C586.117 761.552 583.777 761.762 581.485 761.424C579.193 761.087 577.013 760.212 575.124 758.871C573.234 757.53 571.689 755.761 570.614 753.709C569.539 751.657 568.964 749.379 568.938 747.062V741.75C569.096 735.811 570.944 730.041 574.265 725.115C577.586 720.189 582.242 716.312 587.688 713.938C630.103 696.728 666.419 667.253 691.987 629.286C717.555 591.319 731.214 546.586 731.214 500.812C731.214 455.039 717.555 410.306 691.987 372.339C666.419 334.372 630.103 304.897 587.688 287.688C582.136 285.338 577.382 281.432 574 276.442C570.618 271.452 568.751 265.59 568.625 259.562V254.875C568.625 250.98 570.172 247.244 572.927 244.489C575.681 241.735 579.417 240.188 583.312 240.188H588C642.537 258.442 689.97 293.354 723.609 340ZM485.709 344.592C488.049 344.408 492.062 344.187 494.625 344.101C497.188 344.015 500.562 343.976 502.123 344.015C503.683 344.055 506.327 344.136 507.999 344.195C509.671 344.255 513.045 344.444 515.497 344.615C517.948 344.785 521.231 345.105 522.792 345.326C524.352 345.546 527.224 346.093 529.175 346.54C531.125 346.987 534.362 347.764 536.368 348.266C538.374 348.768 541.155 349.546 542.549 349.995C543.942 350.444 546.939 351.492 549.21 352.323C551.481 353.155 554.832 354.511 556.657 355.336C558.482 356.162 561.604 357.651 563.596 358.647C565.587 359.642 568.437 361.155 569.928 362.009C571.42 362.863 574.335 364.685 576.407 366.057C578.479 367.429 582.081 369.979 584.411 371.724C586.742 373.469 589.693 375.773 590.969 376.845C592.246 377.917 594.972 380.432 597.029 382.436C599.085 384.439 601.779 387.173 603.016 388.512C604.253 389.851 605.958 391.809 606.806 392.863C607.654 393.917 609.488 396.327 610.881 398.219C612.274 400.111 614.464 403.206 615.747 405.098C617.03 406.99 618.847 409.813 619.783 411.371C620.719 412.929 622.318 415.842 623.335 417.846C624.353 419.849 625.866 422.99 626.697 424.826C627.528 426.663 628.803 429.713 629.53 431.605C630.257 433.497 631.404 436.746 632.078 438.827C632.752 440.906 633.807 444.594 634.422 447.021C635.036 449.449 635.812 452.664 636.145 454.166C636.479 455.669 636.936 458.173 637.16 459.731C637.385 461.289 637.892 466.161 638.286 470.558C638.75 475.725 639.002 479.696 639 481.788C638.992 489.035 638.244 496.552 637.269 503.74C637.095 505.02 636.769 506.932 636.543 507.989C636.318 509.047 635.6 512.106 634.948 514.788C634.297 517.469 633.335 520.975 632.811 522.578C632.287 524.181 631.192 527.222 630.378 529.337C629.565 531.451 628.633 533.818 628.307 534.597C627.982 535.376 627.008 537.562 626.142 539.454C625.276 541.346 623.883 544.259 623.047 545.929C622.211 547.598 620.932 550.011 620.205 551.291C619.478 552.571 618.311 554.5 617.611 555.578C616.91 556.656 614.562 560.024 612.393 563.064C606.49 571.335 599.306 578.261 592.175 585.487C574.033 603.868 555.771 621.892 537.477 640.22C521.371 656.357 507.603 670.006 506.881 670.55C506.158 671.095 504.884 671.869 504.048 672.27C502.586 672.972 502.443 673 500.299 673C498.259 673 497.949 672.948 496.651 672.383C495.871 672.044 494.503 671.277 493.612 670.679C492.448 669.899 489.992 667.611 484.898 662.561C480.998 658.693 472.836 650.582 466.761 644.536C460.686 638.49 446.138 623.937 434.432 612.196C422.726 600.455 412.246 589.847 411.144 588.623C410.042 587.399 406.711 583.939 403.741 580.934C400.771 577.929 396.858 573.741 395.046 571.626C393.233 569.512 390.801 566.528 389.642 564.996C388.483 563.465 386.728 561.006 385.741 559.533C384.755 558.06 383.265 555.763 382.432 554.427C381.598 553.092 380.274 550.861 379.488 549.47C378.702 548.079 377.421 545.666 376.641 544.108C375.861 542.55 374.698 540.091 374.058 538.644C373.417 537.198 372.323 534.466 371.626 532.574C370.93 530.682 369.716 527.177 368.93 524.784C368.144 522.391 367.041 518.658 366.48 516.488C365.919 514.318 365.188 511.313 364.856 509.81C364.525 508.308 363.84 504.211 363.334 500.705C362.829 497.199 362.322 493.102 362.208 491.6C362.094 490.097 362 485.676 362 481.776C362 477.875 362.097 473.459 362.216 471.962C362.335 470.465 362.697 467.693 363.02 465.801C363.344 463.909 363.838 460.768 364.117 458.82C364.466 456.389 365.163 453.155 366.339 448.501C367.281 444.772 368.52 440.356 369.092 438.687C369.665 437.018 370.591 434.423 371.152 432.92C371.712 431.418 373.177 428.003 374.406 425.332C375.636 422.661 377.175 419.412 377.827 418.111C378.479 416.809 379.865 414.26 380.908 412.445C381.951 410.63 383.327 408.301 383.966 407.27C384.606 406.239 386.108 404.099 387.305 402.515C388.502 400.931 390.31 398.497 391.322 397.105C392.334 395.714 394.054 393.575 395.144 392.35C396.234 391.126 398.027 389.204 399.129 388.08C400.23 386.955 401.253 385.86 401.403 385.647C401.552 385.434 403.713 383.337 406.204 380.987C408.695 378.637 411.473 376.079 412.377 375.303C413.281 374.527 415.926 372.538 418.254 370.883C420.582 369.228 423.626 367.113 425.02 366.184C426.413 365.255 428.516 363.921 429.693 363.22C430.87 362.519 433.013 361.305 434.455 360.522C435.897 359.739 438.946 358.218 441.23 357.142C443.515 356.067 446.219 354.832 447.239 354.398C448.259 353.965 451.222 352.845 453.825 351.909C456.427 350.974 459.696 349.84 461.089 349.39C462.482 348.94 464.397 348.384 465.344 348.156C466.291 347.927 469.381 347.234 472.21 346.615C475.039 345.997 478.277 345.364 479.404 345.209C480.531 345.054 483.369 344.776 485.709 344.592Z" fill="white"/>
</g>
<defs>
<radialGradient id="paint0_radial_131_36" cx="0" cy="0" r="1" gradientUnits="userSpaceOnUse" gradientTransform="translate(-481.5 -318) rotate(41.6575) scale(1982.92)">
<stop offset="0.381374" stop-color="#ECB91D"/>
<stop offset="0.529997" stop-color="#F681AE"/>
<stop offset="0.948773" stop-color="#17B2E8"/>
</radialGradient>
</defs>
</svg>
