<?xml version="1.0" encoding="UTF-8"?>
<!DOCTYPE svg PUBLIC "-//W3C//DTD SVG 1.1//EN" "http://www.w3.org/Graphics/SVG/1.1/DTD/svg11.dtd">
<!-- Creator: CorelDRAW X7 -->
<svg xmlns="http://www.w3.org/2000/svg" xml:space="preserve" width="200mm" height="200mm" version="1.1" style="shape-rendering:geometricPrecision; text-rendering:geometricPrecision; image-rendering:optimizeQuality; fill-rule:evenodd; clip-rule:evenodd"
viewBox="0 0 20000 20000"
 xmlns:xlink="http://www.w3.org/1999/xlink">
 <defs>
  <style type="text/css">
   <![CDATA[
    .fil1 {fill:#FEFEFE}
    .fil3 {fill:#FCE4CC}
    .fil4 {fill:#F2A44F}
    .fil2 {fill:#ADAFAF}
    .fil6 {fill:#796A56}
    .fil5 {fill:#232323}
    .fil0 {fill:url(#id0)}
   ]]>
  </style>
  <linearGradient id="id0" gradientUnits="userSpaceOnUse" x1="9707.76" y1="426.27" x2="9944.18" y2="17355.3">
   <stop offset="0" style="stop-opacity:1; stop-color:#6C60A7"/>
   <stop offset="1" style="stop-opacity:1; stop-color:#0EAD71"/>
  </linearGradient>
 </defs>
 <g id="Layer_x0020_1">
  <metadata id="CorelCorpID_0Corel-Layer"/>
  <circle class="fil0" cx="10000" cy="10000" r="9578"/>
  <g id="_1869058193408">
   <path class="fil1" d="M4276 13922c27,-23 123,-242 217,-369 180,-244 132,-77 58,-391 -43,-184 -38,-341 35,-498 31,-66 79,-132 119,-178 41,-48 123,-94 155,-141 -27,-74 -75,-146 -105,-233 -67,-188 -68,-396 -15,-590 11,-38 29,-89 49,-120 28,-40 82,-40 139,-38l33 33c-8,54 -74,166 -97,241 -106,361 197,705 210,768 -78,36 -172,102 -232,151 -57,47 -115,138 -146,234 -35,108 -31,231 -5,341 13,51 32,101 50,145 85,204 96,85 -107,341 -176,223 -346,531 -207,829 193,413 1190,694 1066,-466 -24,-226 -59,-223 19,-290 223,-192 396,-342 454,-681 52,-308 -67,-411 -128,-597 76,-86 165,-155 229,-250 18,-28 39,-74 63,-96 21,9 100,55 123,70 -72,138 -138,208 -230,303 50,160 116,333 99,532 -23,270 -140,476 -310,646 -79,79 -58,137 -24,238 39,119 96,220 172,310 27,31 54,54 77,84 -38,100 -421,408 -161,821 67,106 177,188 184,207 38,102 -108,430 107,629 137,126 418,140 623,70 -21,-118 -64,-193 -72,-322 -13,-225 76,-455 159,-649 28,-63 -4,-89 -34,-139 -25,-38 -50,-87 -71,-132 -148,-322 -161,-665 -58,-1019 16,-55 28,-111 65,-138 21,-14 183,-91 154,0 -2,7 -14,29 -17,35 -13,27 -22,48 -34,77 -160,392 -72,865 146,1195 62,92 10,111 -65,299 -41,102 -77,221 -88,345 -38,431 183,526 227,618 -137,261 -408,621 -153,993 77,111 127,136 237,218 12,237 -81,441 49,673 200,358 842,256 1166,124 166,-67 356,-198 345,-433 -10,-215 -155,-396 -251,-519 -56,-72 -132,-124 -189,-192 -50,-58 32,-128 77,-263 70,-208 81,-448 12,-665 -69,-219 -173,-342 -288,-483 169,-234 348,-521 166,-834 -58,-100 -122,-125 -193,-196 72,-291 147,-433 119,-771 -31,-366 -193,-633 -492,-753 -41,-17 -46,-17 -57,-61 -88,-346 86,-804 284,-1047 76,0 100,18 122,77 -46,98 -122,172 -165,271 -67,154 -115,353 -107,533 4,91 6,107 78,140 95,44 174,110 240,192 128,157 221,348 245,618 12,136 8,264 -14,399 -19,119 -66,239 -77,353 30,36 59,55 91,95 357,462 -42,948 -42,980 9,28 69,96 91,131 29,45 56,92 79,142 49,106 82,205 104,336 32,190 11,395 -53,577 -20,56 -44,109 -58,169 28,34 58,56 83,86 42,50 21,52 107,71 101,22 213,37 320,15 188,-38 293,-172 342,-352 89,-330 -13,-681 -228,-928 -25,-30 -65,-59 -83,-94 16,-28 142,-129 216,-250 187,-303 111,-615 -82,-884 -33,-47 -77,-91 -101,-136 27,-64 113,-171 166,-301 267,-648 -274,-875 -334,-935 59,-164 148,-195 177,-466 25,-247 -42,-349 -132,-511l132 -57c87,78 154,313 157,475 4,260 -95,379 -130,508 25,34 53,50 89,79 32,27 57,57 87,80 22,-197 46,-311 138,-445l173 14c-97,122 -169,269 -152,476 14,166 121,356 218,410 -19,164 -267,302 -89,741 96,240 85,90 -2,319 -95,249 -53,544 84,767 87,141 26,97 -23,361 -62,332 69,519 390,525 452,7 477,-352 371,-700 -32,-103 -46,-80 6,-168 129,-214 198,-516 108,-760 -79,-211 -120,-89 -24,-324 47,-115 79,-263 59,-404 -28,-191 -78,-197 -137,-336 80,-148 396,-393 120,-833 -27,-42 -48,-57 -80,-89l206 -2c62,200 120,164 128,447 37,-13 61,-48 87,-76 27,-29 57,-51 87,-82 -6,-35 -28,-76 -42,-110 -87,-214 -111,-433 -42,-660 27,-89 80,-146 100,-216l144 56c-24,73 -77,129 -105,214 -56,170 -29,387 37,548 27,67 102,167 113,222 -183,115 -370,252 -402,537 -24,205 43,385 140,550 30,50 73,99 94,146 -32,67 -130,157 -190,279 -305,611 186,918 224,999 -80,94 -133,95 -243,327 -191,404 -151,1095 461,1046 173,-14 187,-33 284,-140 34,-37 44,-36 22,-91 -125,-308 -149,-623 -27,-938 25,-66 55,-133 91,-189 26,-41 104,-142 114,-176 -1,-39 -188,-250 -188,-558 0,-111 27,-223 69,-303 38,-72 114,-175 169,-204 -4,-75 -31,-161 -48,-234 -128,-555 -26,-1104 511,-1377 30,-263 -22,-507 -147,-723 -16,-28 -115,-166 -115,-182 22,-61 44,-72 119,-79 146,185 228,339 282,628 24,130 30,282 5,415 -12,63 -75,77 -125,104 -248,129 -403,361 -425,710 -13,204 5,412 66,604 20,60 42,113 53,176 -279,198 -340,491 -182,799 39,78 102,175 156,224 -29,61 -145,182 -196,270 -167,287 -182,641 -57,950 23,57 57,102 76,161 -25,39 -90,81 -131,131 -40,49 -80,95 -121,149 -69,93 -151,220 -190,352 -102,349 186,507 442,587 262,82 668,143 897,-9 283,-188 215,-435 198,-827 159,-123 343,-256 338,-561 -4,-270 -136,-443 -254,-651 22,-46 68,-73 98,-113 223,-293 126,-694 -22,-999 -36,-74 -45,-81 -1,-150 224,-351 310,-774 151,-1186 -20,-52 -46,-94 -64,-149 116,-55 192,48 226,149 30,90 59,224 67,330 23,316 -48,569 -182,817 -79,146 -76,87 5,292 19,47 38,97 54,149 88,285 47,423 -21,690 362,53 701,78 748,-346 15,-136 -27,-243 -19,-357 24,-49 281,-177 274,-500 -7,-315 -225,-413 -250,-535 90,-52 204,-251 255,-379 86,-220 -18,-194 -163,-413 -81,-120 -157,-287 -174,-469 -23,-243 44,-352 99,-541 -19,-23 -42,-38 -64,-62 -23,-26 -38,-47 -61,-74 -30,-35 -94,-113 -103,-171l126 -69c51,121 204,278 288,343 -19,103 -371,543 114,1088 80,89 165,163 259,237 -13,306 -102,624 60,875 149,232 443,259 717,100 113,-66 192,-131 252,-247 124,-237 8,-553 -134,-754 -54,-76 -171,-238 -234,-274 5,-48 33,-104 53,-144 72,-149 105,-314 59,-477 -60,-211 -208,-311 -383,-403 17,-80 173,-243 215,-463 56,-287 -50,-385 -104,-547 29,-23 117,-67 161,-8 86,116 113,357 101,492 -19,202 -95,315 -158,465 35,38 54,53 95,88 41,36 59,51 94,93 126,149 177,387 133,585 -23,106 -64,188 -87,284 202,213 323,506 354,533 27,-108 75,-218 56,-343 -10,-73 -11,-110 -31,-172 -15,-45 -37,-105 -58,-145 145,-34 215,-180 202,-330 -11,-143 -76,-298 -136,-396 -92,-148 51,-55 52,-417 1,-87 -25,-161 -49,-221l-95 -177 28 -39c108,-181 137,-298 37,-500 -37,-72 61,-124 129,-292 29,-71 52,-132 65,-222 35,-238 -37,-528 -157,-708 27,-118 222,-334 67,-601 -44,-76 -93,-98 -126,-144 7,-28 46,-84 64,-114 102,-171 224,-490 195,-695 -19,-130 -34,-168 -90,-275 168,-250 293,-619 147,-908 -38,-75 -80,-149 -138,-210 -17,-17 -8,0 -26,-25 13,-55 36,-77 52,-125 13,-40 26,-98 25,-154 -5,-281 -165,-548 -313,-772 -73,-110 96,-485 -275,-800 -38,-33 -179,-125 -234,-130 0,-149 27,-218 0,-373 -20,-117 -59,-213 -115,-299 -82,-126 -244,-270 -385,-335 -27,-13 -50,-20 -76,-34 0,-144 -39,-255 -108,-366 -119,-189 -344,-274 -555,-317 -38,-8 -32,2 -42,-34 -36,-122 -78,-218 -181,-302 -144,-116 -268,-124 -519,-124 -3,-120 -97,-236 -172,-311 -153,-156 -223,-79 -359,-133 -122,-48 -161,-155 -268,-214 -162,-89 -245,-33 -404,-20 -76,-145 -220,-248 -377,-299 -170,-56 -422,-55 -596,-14 -12,-17 -22,-27 -38,-47 -27,-35 -101,-96 -139,-124 -68,-50 -144,-88 -248,-99 -3,0 -7,-1 -10,-1l-45 0c-238,18 -354,303 -745,82 -202,-114 -398,-96 -576,56 -49,41 -95,81 -130,133 -333,-78 -799,-16 -973,313 -67,-15 -129,-25 -212,-25 -146,0 -239,54 -323,160 -36,46 -86,75 -146,99 -77,32 -281,-26 -456,264 -21,36 -62,132 -66,180 -331,0 -568,42 -680,369 -14,39 -11,73 -41,86 -61,29 -195,38 -306,92 -220,108 -340,304 -375,539 -21,135 -109,50 -361,300 -23,23 -38,44 -58,69 -61,75 -108,164 -138,260 -34,110 -42,239 -31,351 5,51 14,78 18,118 -77,7 -186,80 -235,121 -68,57 -117,123 -165,199 -69,110 -117,290 -108,434 2,48 22,119 -3,166l-140 225c-105,173 -170,341 -171,557 0,90 10,151 45,226 12,25 25,37 32,62 -64,17 -147,158 -175,223 -136,328 -28,634 158,911 -122,182 -114,372 -60,585 48,186 217,469 221,508 -127,33 -241,349 -140,554 28,58 59,118 89,174 -172,257 -223,593 -118,888 52,143 84,169 149,275 24,40 -4,68 -20,101 -74,155 -45,317 38,439 25,37 46,43 35,82 -29,107 -242,349 -76,662 48,90 36,70 -28,183 -35,61 -64,134 -85,203 -57,182 -25,431 172,477 -9,20 -16,51 -26,75 -38,94 -48,134 -63,242 -18,120 16,273 64,337z"/>
   <path class="fil2" d="M4276 13922c-5,52 -72,179 -50,387 27,249 177,395 368,521 268,175 736,206 935,-140 120,-208 112,-331 118,-542 2,-43 9,-52 10,-101 0,-51 -9,-67 -9,-110 1,2 2,3 3,5l39 80c14,27 27,57 43,84 40,70 67,98 101,161 -134,201 -195,292 -195,568 0,176 149,435 271,499 -8,17 -22,181 -25,212 -14,156 67,396 214,505 296,222 640,70 785,70 10,19 14,26 25,43 -54,101 -105,181 -147,301 -121,349 -81,594 140,858 22,27 30,29 56,54 18,17 45,42 70,48 -6,68 -26,135 -26,237 0,208 68,451 210,587 128,122 328,175 525,184l118 0c73,-3 143,-12 206,-25 80,-16 140,-27 214,-48 239,-69 523,-200 600,-459 44,-151 20,-301 -36,-441 -14,-33 -27,-57 -47,-89 -14,-25 -40,-65 -46,-90 117,0 192,28 355,-35 210,-80 311,-230 365,-447 40,-159 25,-148 40,-265 6,-43 -6,-59 -6,-99 42,30 157,303 656,224 244,-39 287,-179 343,-216 0,312 68,698 399,804 58,18 192,46 262,43 43,-1 46,-9 93,-9 -14,58 -113,153 -145,381 -42,302 166,529 414,628 147,59 262,82 420,114 71,14 145,25 219,29l144 0c176,-11 346,-64 482,-184 99,-88 147,-199 183,-343 20,-84 27,-131 27,-235 0,-89 -17,-156 -17,-254 70,-16 188,-163 223,-226 61,-110 78,-200 102,-346 31,-180 -112,-527 -215,-681 56,-84 110,-18 348,7 144,15 280,-23 374,-64 102,-45 172,-121 223,-217 142,-263 42,-492 73,-553 25,-47 384,-347 215,-795 -24,-62 -40,-99 -72,-149 -29,-47 -60,-86 -86,-134 98,-146 98,-110 162,-270l24 -44c0,251 -29,501 118,746 322,534 1246,184 1305,-373 9,-81 9,-114 -4,-200 -11,-78 -39,-143 -39,-190 -31,-27 -152,-320 -354,-533 23,-96 64,-178 87,-284 44,-198 -7,-436 -133,-585 -35,-42 -53,-57 -94,-93 -41,-35 -60,-50 -95,-88 63,-150 139,-263 158,-465 12,-135 -15,-376 -101,-492 -44,-59 -132,-15 -161,8 54,162 160,260 104,547 -42,220 -198,383 -215,463 175,92 323,192 383,403 46,163 13,328 -59,477 -20,40 -48,96 -53,144 63,36 180,198 234,274 142,201 258,517 134,754 -60,116 -139,181 -252,247 -274,159 -568,132 -717,-100 -162,-251 -73,-569 -60,-875 -94,-74 -179,-148 -259,-237 -485,-545 -133,-985 -114,-1088 -84,-65 -237,-222 -288,-343l-126 69c9,58 73,136 103,171 23,27 38,48 61,74 22,24 45,39 64,62 -55,189 -122,298 -99,541 17,182 93,349 174,469 145,219 249,193 163,413 -51,128 -165,327 -255,379 25,122 243,220 250,535 7,323 -250,451 -274,500 -8,114 34,221 19,357 -47,424 -386,399 -748,346 68,-267 109,-405 21,-690 -16,-52 -35,-102 -54,-149 -81,-205 -84,-146 -5,-292 134,-248 205,-501 182,-817 -8,-106 -37,-240 -67,-330 -34,-101 -110,-204 -226,-149 18,55 44,97 64,149 159,412 73,835 -151,1186 -44,69 -35,76 1,150 148,305 245,706 22,999 -30,40 -76,67 -98,113 118,208 250,381 254,651 5,305 -179,438 -338,561 17,392 85,639 -198,827 -229,152 -635,91 -897,9 -256,-80 -544,-238 -442,-587 39,-132 121,-259 190,-352 41,-54 81,-100 121,-149 41,-50 106,-92 131,-131 -19,-59 -53,-104 -76,-161 -125,-309 -110,-663 57,-950 51,-88 167,-209 196,-270 -54,-49 -117,-146 -156,-224 -158,-308 -97,-601 182,-799 -11,-63 -33,-116 -53,-176 -61,-192 -79,-400 -66,-604 22,-349 177,-581 425,-710 50,-27 113,-41 125,-104 25,-133 19,-285 -5,-415 -54,-289 -136,-443 -282,-628 -75,7 -97,18 -119,79 0,16 99,154 115,182 125,216 177,460 147,723 -537,273 -639,822 -511,1377 17,73 44,159 48,234 -55,29 -131,132 -169,204 -42,80 -69,192 -69,303 0,308 187,519 188,558 -10,34 -88,135 -114,176 -36,56 -66,123 -91,189 -122,315 -98,630 27,938 22,55 12,54 -22,91 -97,107 -111,126 -284,140 -612,49 -652,-642 -461,-1046 110,-232 163,-233 243,-327 -38,-81 -529,-388 -224,-999 60,-122 158,-212 190,-279 -21,-47 -64,-96 -94,-146 -97,-165 -164,-345 -140,-550 32,-285 219,-422 402,-537 -11,-55 -86,-155 -113,-222 -66,-161 -93,-378 -37,-548 28,-85 81,-141 105,-214l-144 -56c-20,70 -73,127 -100,216 -69,227 -45,446 42,660 14,34 36,75 42,110 -30,31 -60,53 -87,82 -26,28 -50,63 -87,76 -8,-283 -66,-247 -128,-447l-206 2c32,32 53,47 80,89 276,440 -40,685 -120,833 59,139 109,145 137,336 20,141 -12,289 -59,404 -96,235 -55,113 24,324 90,244 21,546 -108,760 -52,88 -38,65 -6,168 106,348 81,707 -371,700 -321,-6 -452,-193 -390,-525 49,-264 110,-220 23,-361 -137,-223 -179,-518 -84,-767 87,-229 98,-79 2,-319 -178,-439 70,-577 89,-741 -97,-54 -204,-244 -218,-410 -17,-207 55,-354 152,-476l-173 -14c-92,134 -116,248 -138,445 -30,-23 -55,-53 -87,-80 -36,-29 -64,-45 -89,-79 35,-129 134,-248 130,-508 -3,-162 -70,-397 -157,-475l-132 57c90,162 157,264 132,511 -29,271 -118,302 -177,466 60,60 601,287 334,935 -53,130 -139,237 -166,301 24,45 68,89 101,136 193,269 269,581 82,884 -74,121 -200,222 -216,250 18,35 58,64 83,94 215,247 317,598 228,928 -49,180 -154,314 -342,352 -107,22 -219,7 -320,-15 -86,-19 -65,-21 -107,-71 -25,-30 -55,-52 -83,-86 14,-60 38,-113 58,-169 64,-182 85,-387 53,-577 -22,-131 -55,-230 -104,-336 -23,-50 -50,-97 -79,-142 -22,-35 -82,-103 -91,-131 0,-32 399,-518 42,-980 -32,-40 -61,-59 -91,-95 11,-114 58,-234 77,-353 22,-135 26,-263 14,-399 -24,-270 -117,-461 -245,-618 -66,-82 -145,-148 -240,-192 -72,-33 -74,-49 -78,-140 -8,-180 40,-379 107,-533 43,-99 119,-173 165,-271 -22,-59 -46,-77 -122,-77 -198,243 -372,701 -284,1047 11,44 16,44 57,61 299,120 461,387 492,753 28,338 -47,480 -119,771 71,71 135,96 193,196 182,313 3,600 -166,834 115,141 219,264 288,483 69,217 58,457 -12,665 -45,135 -127,205 -77,263 57,68 133,120 189,192 96,123 241,304 251,519 11,235 -179,366 -345,433 -324,132 -966,234 -1166,-124 -130,-232 -37,-436 -49,-673 -110,-82 -160,-107 -237,-218 -255,-372 16,-732 153,-993 -44,-92 -265,-187 -227,-618 11,-124 47,-243 88,-345 75,-188 127,-207 65,-299 -218,-330 -306,-803 -146,-1195 12,-29 21,-50 34,-77 3,-6 15,-28 17,-35 29,-91 -133,-14 -154,0 -37,27 -49,83 -65,138 -103,354 -90,697 58,1019 21,45 46,94 71,132 30,50 62,76 34,139 -83,194 -172,424 -159,649 8,129 51,204 72,322 -205,70 -486,56 -623,-70 -215,-199 -69,-527 -107,-629 -7,-19 -117,-101 -184,-207 -260,-413 123,-721 161,-821 -23,-30 -50,-53 -77,-84 -76,-90 -133,-191 -172,-310 -34,-101 -55,-159 24,-238 170,-170 287,-376 310,-646 17,-199 -49,-372 -99,-532 92,-95 158,-165 230,-303 -23,-15 -102,-61 -123,-70 -24,22 -45,68 -63,96 -64,95 -153,164 -229,250 61,186 180,289 128,597 -58,339 -231,489 -454,681 -78,67 -43,64 -19,290 124,1160 -873,879 -1066,466 -139,-298 31,-606 207,-829 203,-256 192,-137 107,-341 -18,-44 -37,-94 -50,-145 -26,-110 -30,-233 5,-341 31,-96 89,-187 146,-234 60,-49 154,-115 232,-151 -13,-63 -316,-407 -210,-768 23,-75 89,-187 97,-241l-33 -33c-57,-2 -111,-2 -139,38 -20,31 -38,82 -49,120 -53,194 -52,402 15,590 30,87 78,159 105,233 -32,47 -114,93 -155,141 -40,46 -88,112 -119,178 -73,157 -78,314 -35,498 74,314 122,147 -58,391 -94,127 -190,346 -217,369z"/>
   <path class="fil3" d="M9242 6501c12,231 -16,442 -176,526 -185,97 -428,-41 -523,-123 -9,28 -76,96 -100,125 -210,244 -182,282 -248,379 -13,19 -13,16 -25,25 19,139 18,234 -35,355 -64,145 -149,220 -159,247 -11,29 30,292 33,356 7,131 -1,251 -24,374 28,42 56,298 73,374 13,57 33,119 52,169 22,59 60,102 64,173 65,22 156,278 488,307 111,10 151,-11 245,-27l1040 -489 -3 -843 0 -20c-393,-15 -703,-369 -689,-788 13,-388 357,-714 761,-705 401,8 728,329 736,730 2,107 -24,225 -62,309 -57,124 -141,233 -241,310 -41,31 -62,46 -107,71 -149,83 -256,61 -283,81l0 864 1033 482c182,26 286,51 452,-30 30,-14 56,-30 81,-47 50,-35 98,-87 135,-135 21,-27 35,-52 59,-73 10,-47 48,-112 67,-157 21,-54 41,-114 55,-174 26,-113 34,-287 70,-385 -22,-139 -32,-235 -22,-379 4,-68 50,-318 29,-359 -20,-39 -260,-236 -189,-589 -40,-29 -59,-98 -86,-144 -58,-106 -212,-298 -294,-382 -79,56 -107,88 -226,123 -99,29 -207,41 -297,-8 -154,-82 -179,-296 -171,-523 -119,-23 -234,-66 -354,-94 -131,-31 -258,-48 -401,-48 -312,0 -489,86 -758,142z"/>
   <path class="fil4" d="M11819 9478c-24,21 -38,46 -59,73 -37,48 -85,100 -135,135 -25,17 -51,33 -81,47 -166,81 -270,56 -452,30 -11,28 3,9 -22,29 -7,6 -17,12 -25,17 -20,14 -33,23 -51,34 -107,65 -236,121 -361,155 -305,84 -962,87 -1267,0 -127,-36 -421,-157 -459,-237 -94,16 -134,37 -245,27 -332,-29 -423,-285 -488,-307 -66,189 -134,254 -169,513 -33,241 46,428 184,504 -2,96 -124,232 -69,433 35,126 138,217 253,262 -15,64 -59,148 -88,208 -55,119 -143,337 -104,469 21,73 75,132 168,134 117,2 275,-197 326,-264 123,-162 111,-204 183,-342l36 -48c-2,104 -35,333 76,357 61,12 92,-53 109,-96 21,-49 40,-132 67,-159 18,245 65,903 303,914 264,12 194,-841 262,-952 125,236 257,460 465,193 62,-81 85,-161 122,-186 26,177 31,367 53,548 17,140 57,422 215,395 263,-45 263,-805 293,-921 31,83 76,270 164,264 129,-9 75,-256 86,-360 22,30 127,255 211,380 54,81 200,272 323,277 87,3 151,-58 173,-120 46,-129 -43,-361 -97,-480 -32,-71 -69,-128 -90,-207 173,-113 321,-197 248,-493 -16,-68 -57,-134 -66,-196 61,-69 108,-87 154,-194 38,-88 48,-201 35,-306 -24,-202 -105,-373 -181,-530z"/>
   <path class="fil2" d="M10755 6501c-8,227 17,441 171,523 90,49 198,37 297,8 119,-35 147,-67 226,-123 27,-57 57,-76 79,-156 17,-66 21,-136 11,-206 -26,-184 -94,-264 -115,-349l57 -52c6,125 37,236 92,325 134,219 138,95 95,262 -71,271 83,458 213,572l-52 130c-71,353 169,550 189,589 21,41 -25,291 -29,359 -10,144 0,240 22,379 37,128 77,224 185,269 129,53 273,-5 347,-77 140,-138 96,-355 12,-527 -50,-101 -60,-92 -18,-157 146,-227 110,-500 -16,-723 -29,-51 -77,-95 -50,-164 24,-61 47,-100 63,-174 45,-205 -6,-387 -127,-539 -43,-55 -71,-61 -47,-152 68,-254 6,-526 -155,-721 -55,-66 -64,-41 -69,-157 -15,-310 -215,-560 -524,-648 -333,-95 -178,20 -303,-162 -69,-102 -132,-148 -269,-195 -3,-155 -36,-443 -152,-486 -49,161 0,70 36,253 19,97 8,217 34,306 25,14 73,20 102,32 160,64 250,237 271,407 10,82 -3,188 10,261 16,95 236,349 94,625 -49,95 -81,85 -129,149 82,182 247,471 74,660 -51,57 -195,134 -314,128 -285,-16 -229,-457 -194,-644 44,-236 50,-146 -36,-346 -96,-223 -106,-405 65,-573 27,-27 34,-26 59,-55 -21,-14 -63,-21 -91,-31 -31,-12 -59,-26 -87,-41 -66,-35 -101,-62 -144,-110 -87,-97 -118,-204 -150,-356 -50,-24 -157,-18 -259,-166 -96,-139 -34,-209 -183,-247 10,120 60,237 116,314 129,178 216,135 246,186 37,61 30,316 371,483 -15,45 -40,69 -60,112 -136,299 99,583 88,703 -6,64 -38,139 -52,302z"/>
   <path class="fil2" d="M7985 8765c23,-123 31,-243 24,-374 -3,-64 -44,-327 -33,-356 10,-27 95,-102 159,-247 53,-121 54,-216 35,-355 -15,-28 -40,-89 -51,-117 24,-44 113,-105 178,-237 52,-104 66,-218 33,-346 -44,-175 -42,-34 99,-268 75,-126 63,-180 83,-281 1,-6 3,-14 6,-20 7,-18 1,-7 10,-17l44 39c-8,90 -94,195 -114,359 -26,211 37,254 85,359 95,82 338,220 523,123 160,-84 188,-295 176,-526 -6,-114 -33,-189 -49,-291 -21,-128 223,-416 88,-707 -19,-43 -49,-74 -62,-120 71,-29 201,-138 246,-193 91,-110 83,-162 132,-308 208,-54 329,-239 358,-477 -26,5 -46,16 -70,28 -74,40 -14,59 -109,213 -88,142 -170,128 -262,161 -49,208 -91,364 -292,470 -30,16 -56,30 -86,41 -30,11 -73,18 -99,34 60,75 146,86 180,257 27,130 -10,265 -55,371 -80,191 -81,109 -38,340 24,125 43,285 22,413 -59,366 -406,230 -527,109 -181,-182 -4,-483 73,-660 -38,-50 -186,-116 -175,-365 9,-200 122,-321 138,-403 23,-109 -30,-255 73,-471 68,-143 144,-183 315,-234 17,-100 15,-208 34,-305 25,-128 85,-129 32,-253 -110,46 -135,325 -151,482 -180,68 -230,118 -308,258 -49,88 -56,41 -256,99 -238,70 -422,221 -492,440 -45,139 -11,271 -99,358 -159,156 -234,477 -169,718 39,144 -22,87 -128,298 -87,177 -72,385 12,565 39,85 10,89 -30,154 -128,212 -173,500 -40,728 45,77 57,55 10,148 -275,547 131,700 331,635 105,-34 174,-142 196,-269z"/>
   <path class="fil1" d="M7875 8010c27,-35 72,-70 114,-139 219,-361 31,-503 1,-580 98,-81 155,-107 225,-253 135,-284 -89,-363 10,-463 58,-58 116,-130 151,-206 82,-177 38,-217 15,-391l44 -24c-18,-212 -5,-276 78,-446 53,-108 47,-90 48,-224 2,-87 28,-162 31,-243 -274,15 -463,162 -559,326 -75,130 -71,205 -81,366 -6,90 -284,227 -247,643 6,66 22,122 41,180 32,100 -4,79 -53,138 -159,188 -217,390 -77,661 42,82 50,65 0,143 -346,532 -20,772 -16,819 2,15 -58,116 -72,143 -82,167 -130,385 60,472 145,66 242,2 288,-107 104,-250 7,-553 -1,-815z"/>
   <path class="fil1" d="M11564 5944l45 34c-34,176 -63,219 13,393 75,172 203,201 174,285 -52,151 -92,217 -14,385 59,126 133,173 225,250 -36,80 -120,133 -102,304 14,141 85,249 159,349 17,23 35,37 48,54 26,34 0,122 -8,170 -19,129 -30,260 -25,393 4,121 22,247 81,329 92,130 457,83 365,-281 -32,-127 -80,-189 -131,-285 15,-47 66,-84 111,-188 66,-155 32,-338 -36,-487 -98,-216 -158,-162 -94,-286 100,-197 124,-376 5,-573 -19,-31 -45,-61 -66,-87 -20,-26 -61,-57 -74,-78 -8,-37 44,-189 52,-250 23,-170 -40,-365 -139,-493 -28,-36 -43,-58 -74,-87 -45,-42 -34,-47 -35,-121 -1,-368 -284,-604 -638,-634 1,73 26,150 30,228 7,145 -15,106 46,227 78,154 95,256 82,449z"/>
   <path class="fil5" d="M9944 8429c17,17 12,13 15,46l0 153c0,196 -6,451 1,634 41,-22 46,-18 85,-1 12,-143 -35,-773 14,-844 27,-20 134,2 283,-81 45,-25 66,-40 107,-71 100,-77 184,-186 241,-310 38,-84 64,-202 62,-309 -8,-401 -335,-722 -736,-730 -404,-9 -748,317 -761,705 -14,419 296,773 689,788l0 20z"/>
   <path class="fil6" d="M9944 8429l3 843 -1040 489c38,80 332,201 459,237 305,87 962,84 1267,0 125,-34 254,-90 361,-155 18,-11 31,-20 51,-34 8,-5 18,-11 25,-17 25,-20 11,-1 22,-29l-1033 -482 0 -864c-49,71 -2,701 -14,844 -39,-17 -44,-21 -85,1 -7,-183 -1,-438 -1,-634l0 -153c-3,-33 2,-29 -15,-46z"/>
   <path class="fil2" d="M5671 6727l-83 9c-51,80 -17,149 -186,352 -30,36 -68,56 -91,91 34,134 212,292 70,658 -26,66 -86,132 -35,204 82,115 156,196 166,392 4,91 -9,165 -38,242 -28,77 -68,126 -95,190 88,114 132,105 218,305 148,347 18,471 81,546 65,78 91,78 189,217 55,78 178,258 111,389 -55,111 -254,145 -385,72 -275,-154 -255,-556 -368,-699 -80,-100 -151,-182 -224,-310 -107,-189 -142,-413 -53,-626 46,-110 27,-81 -32,-177 -109,-177 -176,-416 -54,-621 49,-82 48,-52 -14,-176 -60,-120 -123,-263 -104,-424 8,-72 37,-145 71,-192 30,-40 38,-39 27,-105 -45,-253 -50,-566 115,-769 12,-14 54,-61 62,-74 14,-28 -14,-63 -32,-85 -131,43 -224,322 -249,473 -18,115 -19,229 -6,345 25,220 1,125 -54,290 -68,202 3,422 85,584 32,62 34,56 3,122 -74,158 -82,292 -29,463 33,105 75,156 115,241 65,137 -286,367 273,1065 37,47 45,32 64,114 59,248 132,457 307,606 65,55 158,92 270,86 390,-23 381,-361 185,-633 -207,-287 -194,-158 -187,-340 9,-265 -93,-501 -242,-671 -51,-58 17,-89 59,-243 54,-198 9,-412 -104,-576 -89,-129 -31,-119 13,-252 107,-328 -54,-549 -58,-608 -2,-27 92,-104 149,-207 34,-62 94,-186 90,-268z"/>
   <path class="fil2" d="M15185 6791l0 9c0,104 -14,183 -28,280 -14,98 38,45 87,216 51,179 -22,354 -91,491 -71,142 -57,80 4,205 36,75 54,155 46,252 -11,125 -71,289 -145,388 -16,21 -25,26 -38,47 39,138 142,231 53,527 -43,144 -154,324 -231,413 -68,78 -89,70 -122,199 -22,88 -41,171 -72,250 -57,146 -154,301 -293,351 -209,73 -617,-79 -90,-649 112,-122 69,-34 64,-227 -5,-177 49,-356 142,-499 55,-85 87,-115 151,-176 -40,-117 -142,-194 -133,-426 9,-201 78,-275 161,-396 58,-84 11,-109 -23,-193 -63,-158 -82,-310 -28,-475 25,-76 73,-132 92,-197 -19,-29 -99,-91 -166,-191 -53,-79 -73,-152 -110,-254l-88 -10c9,102 49,197 92,269 22,36 49,71 74,104 20,26 75,81 76,107 1,21 -77,198 -88,274 -20,147 18,326 81,455 45,93 -78,94 -145,370 -25,105 -28,214 -1,318 13,47 28,88 47,131 24,55 51,78 20,124 -115,167 -191,236 -232,488 -29,178 19,267 -36,328 -29,32 -57,55 -86,92 -121,156 -321,459 -145,640 134,138 386,126 534,3 171,-141 236,-374 296,-601 19,-74 32,-74 69,-117 166,-195 341,-491 313,-778 -8,-81 -83,-218 -47,-277 119,-201 213,-482 92,-706 -38,-70 -42,-45 -2,-119 83,-158 151,-386 84,-589 -17,-54 -33,-78 -59,-119 -41,-66 100,-436 -82,-782 -37,-71 -109,-170 -155,-207 -106,53 -16,115 -12,120 128,142 171,336 170,537z"/>
   <path class="fil2" d="M13338 4182c77,57 210,92 277,272 89,244 -7,431 29,479 22,30 65,30 138,133 36,53 69,118 92,188 68,206 31,309 48,513 73,52 100,79 146,156 96,156 110,348 79,529 -22,126 -55,124 -4,251 148,372 141,729 -183,890 -188,93 -324,-19 -361,-185 -38,-167 -1,-389 50,-540 52,-157 30,-102 -43,-204 -45,-62 -83,-123 -105,-208 -65,-250 56,-365 95,-503 -18,-24 -83,-60 -139,-130 -241,-299 -104,-506 -127,-652 -159,-52 -248,-99 -310,-232 -93,-203 -24,-283 -39,-485 -105,-36 -102,-67 -157,-87l-33 78c28,30 55,38 89,69 19,38 -97,577 351,722 9,169 -65,352 122,606 42,58 89,89 126,136 -59,204 -158,349 -15,634 52,104 55,84 111,154 -19,181 -282,852 224,950 176,34 368,-147 426,-230 155,-222 110,-561 8,-814 -48,-118 -5,-93 15,-273 27,-246 -38,-497 -197,-645 -75,-69 2,-154 -66,-442 -41,-179 -146,-363 -253,-423 10,-187 31,-301 -36,-473 -44,-112 -146,-242 -250,-276 3,-210 17,-329 -92,-484 -69,-98 -215,-204 -397,-213 66,179 181,75 322,263 89,119 104,312 59,476z"/>
   <path class="fil2" d="M6556 4143c-106,25 -207,166 -251,274 -69,170 -40,288 -38,471 -202,149 -280,430 -280,718 0,124 13,86 -48,156 -204,235 -225,486 -157,785 34,150 -211,449 -63,833 39,99 105,174 171,227 340,270 769,48 566,-701 -53,-195 -3,-143 73,-275 51,-88 80,-207 76,-331 -5,-150 -42,-209 -83,-322 82,-90 150,-133 210,-286 80,-200 20,-264 41,-450 90,-60 196,-75 284,-250 83,-163 61,-290 63,-481 28,-15 60,-38 91,-60l-36 -85c-54,37 -92,60 -154,90 -16,213 121,583 -353,716 2,214 85,395 -114,646 -25,31 -110,105 -147,124 9,65 59,138 81,204 51,151 35,313 -45,449 -44,74 -82,104 -126,154 11,72 49,168 69,244 23,88 36,184 34,281 -3,184 -85,376 -281,349 -78,-11 -170,-66 -211,-104 -206,-190 -188,-468 -107,-723 26,-78 80,-155 59,-229 -158,-590 181,-757 200,-818 12,-43 -83,-581 288,-821 1,-191 -57,-274 22,-476 47,-119 144,-223 274,-258 -22,-211 -63,-311 58,-486 107,-156 280,-113 321,-267 -175,19 -309,103 -387,201 -110,138 -112,293 -100,501z"/>
   <path class="fil2" d="M7700 3366c-123,63 -285,296 -248,494 16,87 88,210 132,250 68,61 215,62 303,18 78,-39 140,-108 180,-200 72,-168 28,-214 110,-272 272,-192 191,-326 186,-539 64,-63 127,-85 282,-238 69,-68 148,-213 169,-347 247,-7 440,-61 573,-257 37,-55 67,-163 4,-206 -33,47 -52,118 -91,170 -38,49 -84,88 -140,123 -143,90 -251,79 -432,62 -13,224 -51,263 -157,398 -55,70 -214,200 -324,245 13,132 89,181 23,344 -34,84 -83,131 -149,173l-66 38c-33,25 -9,219 -126,354 -86,101 -231,147 -320,16 -196,-288 62,-491 206,-611 -10,-61 -41,-114 -49,-189 -25,-207 115,-326 311,-397 0,-140 -9,-231 50,-348 202,-405 646,-477 683,-524 -81,-127 -389,85 -462,135 -241,166 -339,339 -366,635 -7,84 -61,52 -180,157 -221,196 -97,408 -102,516z"/>
   <path class="fil2" d="M11192 1914c19,41 89,50 130,66 216,86 449,239 550,458 57,124 53,207 52,356 98,47 204,69 276,205 90,171 11,238 -15,390 103,55 280,226 275,405 -3,96 -52,195 -101,243 -30,29 -90,35 -141,29 -221,-29 -243,-352 -264,-423 -20,-68 -186,-65 -238,-278 -30,-118 21,-197 39,-301 -124,-30 -248,-175 -319,-240 -98,-90 -154,-216 -162,-398 -58,-7 -148,18 -234,7 -344,-46 -398,-337 -431,-364 -125,117 88,302 140,341 122,93 249,125 438,120 21,135 102,274 167,350l132 121c37,31 122,81 150,114 8,41 -16,104 -19,154 -10,162 71,292 195,380 108,76 38,91 117,265 113,250 357,301 478,205 51,-41 120,-145 138,-243 37,-209 -105,-433 -249,-516 13,-153 73,-258 -9,-405 -56,-102 -159,-168 -263,-220 -15,-142 -15,-229 -75,-348 -97,-190 -251,-312 -432,-415 -86,-49 -212,-125 -325,-58z"/>
   <path class="fil2" d="M12862 12946c-17,26 -34,40 -53,66 -18,24 -34,46 -49,70 -29,47 -67,120 -61,186 31,25 91,70 121,85 64,-311 202,-309 260,-399 -170,-179 -319,-391 -339,-668 -4,-57 -3,-113 1,-170 4,-48 17,-104 17,-149 -41,9 -86,33 -125,49 -33,14 -31,11 -39,45 -31,122 -3,291 29,403 87,303 223,430 238,482z"/>
   <path class="fil2" d="M6924 12963c45,40 99,55 166,158 19,30 40,69 54,107 15,39 22,88 45,117l118 -75c-14,-126 -104,-257 -169,-322 10,-33 48,-78 69,-111 127,-197 217,-443 214,-687 -2,-123 -32,-131 -180,-183 2,189 66,334 -43,582 -36,83 -76,149 -122,217 -64,97 -135,164 -152,197z"/>
   <path class="fil1" d="M8170 7433c12,-9 12,-6 25,-25 66,-97 38,-135 248,-379 24,-29 91,-97 100,-125 -48,-105 -111,-148 -85,-359 20,-164 106,-269 114,-359l-44 -39c-9,10 -3,-1 -10,17 -3,6 -5,14 -6,20 -20,101 -8,155 -83,281 -141,234 -143,93 -99,268 33,128 19,242 -33,346 -65,132 -154,193 -178,237 11,28 36,89 51,117z"/>
   <path class="fil1" d="M11449 6909c82,84 236,276 294,382 27,46 46,115 86,144l52 -130c-130,-114 -284,-301 -213,-572 43,-167 39,-43 -95,-262 -55,-89 -86,-200 -92,-325l-57 52c21,85 89,165 115,349 10,70 6,140 -11,206 -22,80 -52,99 -79,156z"/>
   <path class="fil1" d="M9416 14775c53,-87 -3,-134 -30,-224 -26,-90 -35,-169 -52,-259l-73 117c-65,112 -12,67 84,242 22,40 40,99 71,124z"/>
   <path class="fil1" d="M10590 14772c32,-41 40,-69 66,-120 110,-217 175,-96 18,-357 -17,35 -35,194 -54,254 -24,77 -89,153 -30,223z"/>
  </g>
 </g>
</svg>
