<svg width="32" height="32" viewBox="0 0 32 32" fill="black" xmlns="http://www.w3.org/2000/svg"><path fill-rule="evenodd" clip-rule="evenodd" d="M9.35064 17.6397L18.5843 26.2275C19.9304 27.5483 19.9304 29.6893 18.5843 31.0094C17.239 32.3302 15.0569 32.3302 13.7108 31.0094L7.18316 24.5354C5.68837 23.0687 5.68837 21.2332 7.18316 19.7665L9.35064 17.6397ZM9.70744 5.0882L27.376 22.4247L22.5025 27.2066L4.83393 9.87012L9.70744 5.0882ZM26.1168 13.6043C27.4628 12.2842 29.6443 12.2842 30.991 13.6043C32.3363 14.9251 32.3363 17.0655 30.991 18.3862L28.5539 20.7775L26.1168 18.3862C24.7714 17.0655 24.7714 14.9251 26.1168 13.6043ZM3.44612 11.3743L5.88254 13.7649C7.22858 15.0857 7.22858 17.2261 5.88254 18.5469C4.53716 19.8676 2.35507 19.8676 1.00903 18.5469C-0.336344 17.2261 -0.336344 15.0857 1.00903 13.7649L3.44612 11.3743ZM13.3543 0.99056C14.7003 -0.330187 16.8824 -0.330187 18.2278 0.99056L24.7409 7.38058C26.2357 8.84728 26.2357 11.2255 24.7409 12.6916L22.5734 14.8183L13.3543 5.77249C12.0083 4.45174 12.0083 2.31131 13.3543 0.99056Z"></path></svg>