<svg width="100%" height="100%" viewBox="0 0 267 267" fill="none" xmlns="http://www.w3.org/2000/svg">
  <path d="M264.351 133.167C264.351 205.609 205.622 264.335 133.176 264.335C60.7293 264.335 2 205.609 2 133.167C2 60.7257 60.7293 2 133.176 2C205.622 2 264.351 60.7257 264.351 133.167Z" fill="#2DD6A0" stroke="black" stroke-width="4" />
  <mask id="mask0" mask-type="alpha" maskUnits="userSpaceOnUse" x="20" y="20" width="226" height="226">
    <path d="M133.175 243.607C194.174 243.607 243.622 194.161 243.622 133.167C243.622 72.1727 194.174 22.7271 133.175 22.7271C72.1772 22.7271 22.7285 72.1727 22.7285 133.167C22.7285 194.161 72.1772 243.607 133.175 243.607Z" fill="#C4C4C4" stroke="black" stroke-width="4" stroke-miterlimit="10" />
  </mask>
  <g mask="url(#mask0)">
    <path fill-rule="evenodd" clip-rule="evenodd" d="M161.103 65.4957C132.023 65.4957 108.369 89.1494 108.369 118.229C108.369 143.97 126.596 165.259 151.085 169.989C142.597 182.651 132.997 194.617 122.979 204.913C106.143 221.332 86.9418 233.993 64.9577 242.203C61.0618 243.594 61.0618 243.455 61.0618 239.42V178.338C61.0618 172.313 61.0464 166.274 61.031 160.229C61 148.124 60.969 135.998 61.0618 123.934C61.0618 96.6629 72.8887 75.3746 95.5684 60.6258C119.918 44.7639 148.302 42.1203 171.817 56.0342C177.104 59.2344 180.722 64.1043 182.67 70.0873C175.991 67.1654 168.756 65.4957 161.103 65.4957ZM182.67 71.2007C191.574 74.8183 206.184 85.532 213.002 101.672C218.428 114.334 220.376 133.813 205.767 139.796L176.826 141.327C176.826 141.327 176.965 160.528 190.461 165.12C182.53 169.99 173.069 172.912 162.912 172.912C159.016 172.912 155.259 172.494 151.641 171.659C167.921 140.77 187.539 94.9935 182.67 71.2007Z" fill="#BF88FF" />
    <path d="M151.085 169.989L152.746 171.103L154.426 168.598L151.464 168.026L151.085 169.989ZM122.979 204.913L124.375 206.345L124.394 206.327L124.412 206.308L122.979 204.913ZM64.9577 242.203L65.6304 244.086L65.6439 244.081L65.6574 244.076L64.9577 242.203ZM61.031 160.229L63.031 160.224L61.031 160.229ZM61.0618 123.934L63.0618 123.95L63.0618 123.942V123.934H61.0618ZM95.5684 60.6258L96.6587 62.3025L96.6601 62.3016L95.5684 60.6258ZM171.817 56.0342L172.852 54.3232L172.844 54.3181L172.835 54.313L171.817 56.0342ZM182.67 70.0873L181.868 71.9196L185.951 73.706L184.571 69.4681L182.67 70.0873ZM213.002 101.672L211.16 102.45L211.164 102.46L213.002 101.672ZM182.67 71.2007L183.422 69.3477L179.961 67.9416L180.71 71.6017L182.67 71.2007ZM205.767 139.796L205.872 141.794L206.211 141.776L206.525 141.647L205.767 139.796ZM176.826 141.327L176.72 139.33L174.812 139.431L174.826 141.341L176.826 141.327ZM190.461 165.12L191.508 166.824L195.135 164.597L191.106 163.226L190.461 165.12ZM151.641 171.659L149.872 170.727L148.661 173.024L151.192 173.608L151.641 171.659ZM110.369 118.229C110.369 90.2539 133.127 67.4957 161.103 67.4957V63.4957C130.918 63.4957 106.369 88.0448 106.369 118.229H110.369ZM151.464 168.026C127.899 163.473 110.369 142.994 110.369 118.229H106.369C106.369 144.947 125.294 167.044 150.706 171.953L151.464 168.026ZM124.412 206.308C134.522 195.918 144.197 183.856 152.746 171.103L149.424 168.876C140.998 181.446 131.472 193.316 121.545 203.519L124.412 206.308ZM65.6574 244.076C87.9244 235.761 107.358 222.94 124.375 206.345L121.583 203.481C104.928 219.723 85.9591 232.225 64.2581 240.329L65.6574 244.076ZM59.0618 239.42C59.0618 240.379 59.0589 241.276 59.1345 241.969C59.1977 242.55 59.3667 243.71 60.3488 244.446C61.3593 245.204 62.5366 245.006 63.1319 244.876C63.8308 244.724 64.692 244.421 65.6304 244.086L64.2851 240.319C63.2756 240.68 62.6757 240.882 62.279 240.968C62.0893 241.01 62.0619 240.997 62.1299 241.001C62.2233 241.006 62.4793 241.044 62.7488 241.246C63.0131 241.444 63.1136 241.669 63.1375 241.732C63.1546 241.777 63.133 241.738 63.1109 241.536C63.0647 241.112 63.0618 240.478 63.0618 239.42H59.0618ZM59.0618 178.338V239.42H63.0618V178.338H59.0618ZM59.031 160.234C59.0464 166.279 59.0618 172.316 59.0618 178.338H63.0618C63.0618 172.31 63.0464 166.268 63.031 160.224L59.031 160.234ZM59.0619 123.919C58.969 135.995 59 148.131 59.031 160.234L63.031 160.224C63 148.117 62.9691 136.002 63.0618 123.95L59.0619 123.919ZM94.4781 58.9492C71.2411 74.0603 59.0618 95.9741 59.0618 123.934H63.0618C63.0618 97.3517 74.5363 76.6888 96.6587 62.3025L94.4781 58.9492ZM172.835 54.313C148.543 39.9386 119.334 42.7573 94.4767 58.95L96.6601 62.3016C120.502 46.7705 148.062 44.302 170.798 57.7555L172.835 54.313ZM184.571 69.4681C182.491 63.0784 178.592 57.7973 172.852 54.3232L170.781 57.7452C175.616 60.6715 178.952 65.1302 180.768 70.7065L184.571 69.4681ZM161.103 67.4957C168.459 67.4957 175.422 69.0995 181.868 71.9196L183.471 68.255C176.56 65.2312 169.053 63.4957 161.103 63.4957V67.4957ZM214.844 100.894C207.781 84.172 192.716 73.1234 183.422 69.3477L181.917 73.0536C190.433 76.5133 204.587 86.892 211.16 102.45L214.844 100.894ZM206.525 141.647C214.733 138.286 218.184 131.103 218.889 123.422C219.589 115.801 217.644 107.427 214.84 100.884L211.164 102.46C213.786 108.579 215.529 116.276 214.906 123.056C214.289 129.776 211.41 135.324 205.009 137.946L206.525 141.647ZM176.931 143.324L205.872 141.794L205.661 137.799L176.72 139.33L176.931 143.324ZM191.106 163.226C185.24 161.231 182.13 156.02 180.487 150.891C179.675 148.358 179.258 145.946 179.044 144.161C178.938 143.272 178.883 142.546 178.855 142.048C178.841 141.799 178.833 141.608 178.83 141.483C178.828 141.42 178.827 141.374 178.826 141.345C178.826 141.331 178.826 141.321 178.826 141.315C178.826 141.312 178.826 141.311 178.826 141.31C178.826 141.31 178.826 141.31 178.826 141.311C178.826 141.311 178.826 141.311 178.826 141.311C178.826 141.312 178.826 141.312 176.826 141.327C174.826 141.341 174.826 141.342 174.826 141.343C174.826 141.343 174.826 141.344 174.826 141.345C174.826 141.347 174.826 141.348 174.826 141.35C174.826 141.355 174.826 141.36 174.826 141.366C174.826 141.379 174.826 141.397 174.827 141.419C174.828 141.463 174.829 141.525 174.831 141.605C174.836 141.763 174.845 141.988 174.861 142.274C174.893 142.844 174.955 143.654 175.072 144.636C175.307 146.595 175.767 149.271 176.678 152.112C178.478 157.732 182.186 164.417 189.817 167.013L191.106 163.226ZM162.912 174.912C173.456 174.912 183.278 171.878 191.508 166.824L189.415 163.415C181.783 168.101 172.682 170.912 162.912 170.912V174.912ZM151.192 173.608C154.964 174.479 158.872 174.912 162.912 174.912V170.912C159.16 170.912 155.554 170.51 152.091 169.711L151.192 173.608ZM180.71 71.6017C181.857 77.2028 181.583 84.2457 180.195 92.2493C178.81 100.23 176.34 109.038 173.197 118.114C166.91 136.267 157.983 155.337 149.872 170.727L153.411 172.592C161.579 157.093 170.602 137.83 176.976 119.423C180.164 110.22 182.703 101.193 184.136 92.9331C185.565 84.6965 185.917 77.095 184.629 70.7996L180.71 71.6017Z" fill="black" />
    <path d="M159.011 107.836C159.011 102.973 154.881 98.8456 150.013 98.6982C145.44 98.5508 141.163 102.678 141.015 107.394C140.868 112.258 144.85 116.533 149.718 116.68C154.586 116.975 159.011 112.7 159.011 107.836Z" fill="black" />
  </g>
  <path d="M133.175 243.607C194.174 243.607 243.622 194.161 243.622 133.167C243.622 72.1727 194.174 22.7271 133.175 22.7271C72.1772 22.7271 22.7285 72.1727 22.7285 133.167C22.7285 194.161 72.1772 243.607 133.175 243.607Z" stroke="black" stroke-width="4" stroke-miterlimit="10" />
</svg>
