<svg xmlns="http://www.w3.org/2000/svg" viewBox="0 0 64 64">
  <defs>
    <linearGradient id="grad" x1="0%" y1="0%" x2="100%" y2="100%">
      <stop offset="0%" stop-color="#f7931a"/>
      <stop offset="100%" stop-color="#ffcc80"/>
    </linearGradient>
  </defs>
  <rect width="64" height="64" rx="16" fill="#0d1821"/>
  <circle cx="32" cy="32" r="22" fill="url(#grad)"/>
  <path d="M36.8 19.2c2.9.8 5 2.7 5 6 0 3.2-2.1 5.1-4.9 5.9 3.7 1 6 3 6 6.8 0 4.6-3.6 7.2-8.9 7.8V49h-4.4v-3.3h-3V49h-4.2v-3.3h-4.4l1.2-4.6h3.7v-7.5h-3.4l1.2-4.6h2.2V19.2h4.4v3.2h3v-3.2h4.3zm-7.4 5.5h-3v6.5h3c3 0 4.9-1.2 4.9-3.3 0-2.2-1.9-3.2-4.9-3.2zm.4 10.8h-3.4v7.8h3.4c3.3 0 5.5-1.3 5.5-3.9 0-2.6-2.1-3.9-5.5-3.9z" fill="#0d1821"/>
</svg>
