<svg width="267" height="267" viewBox="0 0 20 20" fill="none" xmlns="http://www.w3.org/2000/svg">
<path d="M10 20C15.5228 20 20 15.5228 20 10C20 4.47715 15.5228 0 10 0C4.47715 0 0 4.47715 0 10C0 15.5228 4.47715 20 10 20Z" fill="#2DD6A0"/>
<path fill-rule="evenodd" clip-rule="evenodd" d="M10 19.6996C15.357 19.6996 19.6996 15.3569 19.6996 10C19.6996 4.64306 15.357 0.300374 10 0.300374C4.64302 0.300374 0.300355 4.64306 0.300355 10C0.300355 15.3569 4.64302 19.6996 10 19.6996ZM20 10C20 15.5228 15.5228 20 10 20C4.47715 20 0 15.5228 0 10C0 4.47715 4.47715 0 10 0C15.5228 0 20 4.47715 20 10Z" fill="black"/>
<path fill-rule="evenodd" clip-rule="evenodd" d="M10.0001 1.73348C5.43465 1.73348 1.73362 5.43453 1.73362 9.99999C1.73362 14.5654 5.43465 18.2665 10.0001 18.2665C14.5656 18.2665 18.2667 14.5654 18.2667 9.99999C18.2667 5.43453 14.5656 1.73348 10.0001 1.73348ZM1.42871 9.99999C1.42871 5.26611 5.26627 1.42856 10.0001 1.42856C14.734 1.42856 18.5716 5.26611 18.5716 9.99999C18.5716 14.7339 14.734 18.5714 10.0001 18.5714C5.26627 18.5714 1.42871 14.7339 1.42871 9.99999Z" fill="black"/>
<path d="M8.21411 13.7959H8.93176V6.20409H8.21411V5.71429H10.6965C10.9396 5.71429 11.2063 5.75511 11.4965 5.83674C11.7867 5.91838 12.0572 6.04899 12.3082 6.22858C12.5671 6.40817 12.7827 6.64083 12.9553 6.92654C13.1278 7.21225 13.2141 7.55511 13.2141 7.95511C13.2141 8.65715 12.9984 9.21634 12.5671 9.63266C12.1435 10.049 11.5278 10.2572 10.72 10.2572H9.41411V13.7959H10.5788V14.2857H8.21411V13.7959ZM9.41411 9.75511H10.6376C11.0455 9.75511 11.3827 9.69797 11.6494 9.58368C11.9239 9.4694 12.1396 9.32246 12.2965 9.14287C12.4612 8.96327 12.5749 8.77144 12.6376 8.56736C12.7004 8.35511 12.7318 8.15103 12.7318 7.95511C12.7318 7.72654 12.6769 7.50613 12.5671 7.29389C12.4651 7.08164 12.32 6.89389 12.1318 6.73062C11.9435 6.56736 11.72 6.44083 11.4612 6.35103C11.2102 6.25307 10.9396 6.20409 10.6494 6.20409H9.41411V9.75511Z" fill="black"/>
<path d="M8.21411 7.14285H13.9284V7.5H8.21411V7.14285Z" fill="black"/>
<path d="M8.21411 8.57144H13.9284V8.92858H8.21411V8.57144Z" fill="black"/>
</svg>
