<svg xmlns="http://www.w3.org/2000/svg"><path d="M85.7 97c-.5-.3-.9-.6-1.3-.9-3.5-2-6.9-4-10.4-6-.7-.4-1.1-.9-1-1.7.1-5.4 0-10.8.1-16.2 0-.5.4-1.2.8-1.4 4.3-2.5 8.7-4.8 12.9-7.3.9-.5 1.6-.2 2.3.3l8.4 4.8 32.1 18.6c.8.4 1.1.9 1.1 1.9-.1 5 0 10.1 0 15.1 0 .9-.2 1.4-1 1.9-17.6 10.1-35.1 20.2-52.7 30.4-.9.5-1.4.4-2.3 0l-53.1-30.3c-.7-.3-.9-.8-.9-1.5V42.3c0-.9.3-1.2.9-1.6 17.6-10.1 35.2-20.2 52.9-30.4.7-.4 1.2-.4 1.9 0 17.8 10.1 35.5 20.2 53.3 30.2.7.4.9.9.9 1.6v15.7c0 .8-.2 1.3-.9 1.7-4.5 2.6-9 5.1-13.4 7.7-.8.5-1.4.3-2-.2-12.5-7.2-24.9-14.4-37.4-21.6-1-.6-1.7-.6-2.7 0-7.7 4.3-15.3 8.7-23.1 12.9-.7.4-.9.9-.9 1.6V87c0 .8.3 1.3.9 1.6 6.9 3.8 13.9 7.7 20.8 11.7 1.1.6 2.1 1.4 3.2 2 .3.2.9.3 1.2.2 2.9-1.8 6.1-3.6 9.4-5.5zm-48.1-.2c.5.3.8.6 1.1.8 6.5 3.7 12.9 7.5 19.4 11.2 5.4 3.1 11 6.3 16.4 9.4.4.3 1.1.2 1.5 0 2-1 4-2.1 6-3.3 12.2-7.1 24.6-14.2 36.8-21.3 2.5-1.4 5-2.9 7.6-4.4-.4-.3-.7-.6-.9-.8-12.4-7.2-24.9-14.5-37.4-21.6-.4-.3-1.1-.3-1.5 0-3.1 1.7-6.2 3.6-9.4 5.4-.2.1-.3.3-.7.6.4.3.8.5 1 .7 8.2 4.8 16.2 9.4 24.4 14.2 1.8 1 1.8 2 .1 2.9-8.5 4.9-17.1 9.9-25.6 14.8-.9.6-1.7.6-2.6 0-8.2-4.8-16.3-9.4-24.6-14.2-.8-.4-1.3-.5-2 0-2.6 1.6-5.3 3.1-7.9 4.6-.3.1-.9.5-1.7 1zM24.2 42.3c.5.3.8.6 1.1.8 2.8 1.6 5.6 3.2 8.4 4.9 1 .6 1.8.6 2.9 0C48.8 40.9 61 33.8 73.3 26.7c1.6-.9 2.8-.9 4.3.1C90 34 102.3 41 114.6 48.2c.8.4 1.4.5 2.1 0 2.9-1.7 5.8-3.3 8.6-5 .3-.2.7-.5 1.1-.8-.3-.3-.5-.4-.7-.5-16.4-9.5-32.9-19.1-49.4-28.7-.8-.4-1.2-.3-1.9.1-14 8.1-28.1 16.2-42.1 24.2-2.6 1.7-5.2 3.2-8.1 4.8zm49.9 91.2v-1.7c0-3-.1-5.9 0-8.8.1-1.7-.5-2.6-2-3.3-12.2-7-24.5-14.1-36.7-21.2-1.3-.8-1.7-1.6-1.7-3.1.1-14.5 0-28.8.1-43.3 0-.9-.3-1.5-1.1-2-3-1.6-6-3.4-8.8-5.1-.3-.2-.5-.2-.9-.3v57.2c0 1.4.4 2.1 1.6 2.9 14.6 8.4 29.2 16.8 43.8 25.3 1.7 1.1 3.6 2.1 5.7 3.4zm-37.8-39c.6-.3.9-.5 1.4-.7 2.7-1.5 5.4-3.1 8.1-4.6 1.2-.6 1.5-1.4 1.5-2.7-.1-9.2 0-18.3-.1-27.5 0-1.3.4-2 1.5-2.7 7.1-4 14.1-8.1 21.2-12.2 1.4-.8 3.2-1.3 3.9-2.5s.3-3.1.3-4.6v-7.8c-.6.3-.9.5-1.4.7C61 36.7 49.2 43.5 37.4 50.2c-.9.5-1.2 1.1-1.2 2.2v40.5c.1.5.1.9.1 1.6zm91.7-3.3c-1.3.7-2.3 1.3-3.3 1.9-15.6 9-31.1 18-46.8 27-.9.5-1.3 1-1.2 2 .1 3.2 0 6.5 0 9.7 0 .4.1.9.1 1.4.7-.4 1.3-.7 1.8-.9 8.3-4.8 16.7-9.6 25-14.5 7.7-4.5 15.6-8.9 23.3-13.5.4-.3 1-.9 1-1.3.1-3.7.1-7.5.1-11.8zm-13.6-27.8c0-.6.1-1 .1-1.4V52c0-.9-.3-1.4-1.1-1.9-11.1-6.3-22.2-12.7-33.2-19.1-1.1-.6-2.2-1.2-3.4-2 0 .7-.1 1.1-.1 1.5v9.7c0 1 .3 1.5 1.2 2 11.4 6.6 22.8 13.2 34.2 19.7.6.7 1.4 1.1 2.3 1.5zM75.3 74.8v12.1c0 .4.5.9.9 1.1 3.9 2.3 7.8 4.6 11.8 6.9.4.3 1.3.3 1.8 0 2-1 3.8-2.1 5.7-3.2 1.4-.8 2.7-1.6 4.4-2.6-8.3-4.8-16.3-9.5-24.6-14.3zm41.8-11.3c3.7-2.1 7.1-4.1 10.4-6 .3-.2.5-.9.5-1.4.1-2.8 0-5.6 0-8.4v-3c-.6.3-.9.4-1.3.6-2.3 1.3-4.5 2.8-6.8 3.9-2.3 1-3.1 2.5-2.8 4.9.2 3 0 6.1 0 9.4z" fill="#ffd500"/></svg>
