<svg version="1.1" xmlns="http://www.w3.org/2000/svg" viewBox="-625.7983890537114 -2210.3009160877223 3672.639235657445 3717.8804282192473"><desc>Created with Snap</desc><defs></defs><g><rect x="-625.7983890537114" y="-2210.3009160877223" width="3672.639235657445" height="3717.8804282192473" fill="#000000" style=""></rect><g transform="matrix(8.7161,0,0,8.7161,-518.8098,-2100.8428)">
<g id="gSkwsk8pu01wl">
	<g>
		<path d="M365.81528,166.56174c0.61768,2.60449,0.01721-1.06738-0.38635-4.03174c-0.19678-1.48242-0.35449-2.78369-0.31274-3.01367
			c0.03137-0.11719,0.13281,0.02832,0.33252,0.54639c0.17444,0.5249,0.42407,1.42822,0.77783,2.81982
			c-0.146-0.99023-0.30457-2.11865-0.58594-3.3252c-0.29688-1.20312-0.6427-2.50293-1.02368-3.87207
			c-0.39331-1.36523-0.76929-2.81592-1.26233-4.27783c-0.51892-1.45264-1.05334-2.94922-1.59338-4.46143
			c-1.01868-3.04492-2.40552-6.02051-3.56873-8.89111c-0.56494-1.44336-1.23328-2.79541-1.8324-4.09766
			c-0.6012-1.30176-1.16113-2.5415-1.66333-3.69629c0.27393-0.78418,1.56018,0.75684,1.94543,0.38867
			c0.19189-0.18604,0.15698-0.85205-0.34985-2.54199c-0.58972-1.64941-1.65552-4.32373-3.62109-8.47852
			c-1.46033-2.69873-2.6123-4.75049-3.52966-6.30615c-0.96558-1.52686-1.72034-2.54395-2.27539-3.24756
			c-1.12207-1.39941-1.54822-1.48389-1.95032-1.48682c-0.40173-0.00244-0.78003,0.07568-1.7926-0.97949
			c-0.49316-0.53613-1.23059-1.29736-2.18787-2.50635c-0.98242-1.19092-2.15833-2.85205-3.80432-4.99414
			c1.45752,1.98975,2.79407,4.06689,4.1969,6.09229c0.34326,0.51172,0.70142,1.01318,1.03235,1.53271l0.96472,1.57715
			l1.92944,3.15137c-1.21167-1.42041-2.49426-3.16553-3.97778-5.07959c-1.53491-1.87842-3.14075-4.01709-4.90869-6.27832
			c-0.91162-1.10938-1.85474-2.25732-2.82483-3.43799c-0.96948-1.18018-1.91992-2.42969-3.00781-3.61133
			c-2.13306-2.39746-4.26746-4.98047-6.68481-7.41846c-4.63855-5.06201-9.98096-9.89502-15.33752-14.47705
			c-1.38342-1.09277-2.75977-2.18018-4.12354-3.25732c-0.68408-0.53564-1.36499-1.06934-2.04199-1.59961
			c-0.70203-0.49658-1.3999-0.99072-2.09302-1.48096c-1.38904-0.97656-2.75903-1.93946-4.10364-2.88477
			c-1.37073-0.90576-2.755-1.73584-4.08911-2.56982c-7.60144-5.61914-15.12061-10.80566-23.87-15.42383
			c-8.76465-4.52441-18.78674-8.51172-31.16602-10.85498c1.38098,0.13623,7.521,1.13574,6.45093,0.27441
			c-1.10107-0.39404-2.43481-0.78857-3.8894-1.17139c-1.45569-0.37842-3.0238-0.78613-4.63184-1.021
			c-1.60107-0.26953-3.2113-0.51611-4.7196-0.73389c-0.75427-0.10596-1.48291-0.20801-2.17261-0.30469
			c-0.69482-0.05664-1.35034-0.11035-1.95288-0.15967c-6.65302-0.19434-5.75879,0.37158-3.8877,1.02686
			c1.87988,0.65576,4.74719,1.40088,2.2439,1.59082c-2.71783-0.16846-5.38287-0.40625-8.117-0.38379
			c-1.36188-0.0249-2.73596-0.0498-4.13312-0.07568c-0.69794-0.00879-1.39948-0.0498-2.11072-0.03955
			c-0.71112,0.01318-1.42932,0.02637-2.15601,0.04004c-2.90527,0.07275-5.93945-0.05371-9.19788,0.10596
			c-1.62927,0.04248-3.31476,0.06787-5.06927,0.07275c-1.7536,0.02246-3.56903,0.1543-5.47076,0.19678
			c-1.58142-0.06738-3.17725-0.21777-4.76306-0.2168l-4.77667-0.01709c-3.20728-0.08398-6.38513,0.17383-9.60614,0.30322
			c-0.75049,0.34326-1.5401,0.62646-2.34509,0.96729c-0.80505,0.34082-1.64038,0.66553-2.5058,0.97754
			c-1.72845,0.6333-3.5871,1.17676-5.54596,1.75732c-1.94324,0.64111-4.00305,1.25537-6.17566,1.8623
			c-0.54297,0.15234-1.09235,0.30664-1.64801,0.4624c-0.54907,0.17725-1.10437,0.35645-1.66583,0.53809
			c-1.12628,0.35449-2.27728,0.71631-3.4527,1.08643c-9.36597,2.99268-20.2431,7.15674-31.10229,14.17969
			c-2.61151,0.53613-9.28107,4.96191-15.58649,9.81885c-3.06207,2.54883-6.20923,4.98096-8.67517,7.17725
			c-1.25995,1.06592-2.41241,1.99756-3.40491,2.72998c-0.99219,0.73291-1.76428,1.33301-2.3714,1.61377
			c-2.19385,2.10596-3.58594,3.06104-4.57172,3.40918c-0.97815,0.35498-1.52826,0.11768-2.07983-0.22412
			c-1.09521-0.66846-2.08862-1.67529-6.05536,1.59473c-1.65436,1.50146-2.67261,2.5752-3.3468,3.20215
			c-0.6698,0.63086-0.96002,0.84766-0.99628,0.78662c-0.07269-0.12109,0.87103-1.35303,1.81732-2.58691
			c0.95923-1.22119,1.99023-2.38135,1.91302-2.51318c-0.03418-0.06152-0.33612,0.14307-1.04095,0.74805
			c-0.72437,0.5874-1.77808,1.64258-3.34473,3.26025c0.77002-0.9502,1.47314-1.78857,2.11786-2.53076
			c0.67468-0.71436,1.2937-1.33008,1.85675-1.86914c1.12781-1.07764,2.04547-1.83789,2.8335-2.39844
			c0.78809-0.56055,1.44672-0.9209,2.05804-1.19922c0.63116-0.25879,1.21356-0.43652,1.83118-0.64844
			c2.5304-0.79248,5.29303-2.45166,15.07043-10.74268l-1.36438,0.31299c0.9679-0.91016,2.06036-1.86182,3.23907-2.84082
			c0.59125-0.4873,1.19598-0.9917,1.83234-1.48145c0.65411-0.46631,1.32147-0.94238,1.9986-1.4248
			c1.36853-0.94385,2.77612-1.91504,4.19269-2.89209c1.42645-0.96094,2.93604-1.81592,4.3808-2.71875
			c1.46387-0.87305,2.86035-1.8042,4.27032-2.59229c1.40607-0.79443,2.74835-1.57275,3.99042-2.32812
			c2.45898-1.55713,4.62646-2.82422,6.06012-4.03223c1.55756-0.76709,2.91205-1.45068,4.11456-1.99854
			c1.22296-0.50293,2.26575-0.93213,3.15087-1.2959c1.77808-0.70557,2.93951-1.10889,3.65808-1.29346
			c1.43683-0.36914,1.10388,0.13428,0.39105,0.84375c-1.43469,1.42969-4.34814,3.63818,2.00897,1.52295
			c1.68573-1.00244,4.70538-2.5874,8.3905-4.2085c1.86554-0.7627,3.8736-1.5835,5.92889-2.42334
			c2.06531-0.82617,4.2356-1.50391,6.33093-2.26416c1.05298-0.36084,2.08557-0.75439,3.10968-1.08057
			c1.0282-0.31494,2.03149-0.62256,2.99762-0.91846c1.93329-0.59521,3.71124-1.19238,5.24609-1.69775
			c3.08929-0.91016,5.15942-1.69678,5.35431-2.24707l-5.31781,0.95703c-1.76624,0.3501-3.51257,0.79736-5.26953,1.19189
			c-3.52747,0.74219-6.97668,1.78809-10.4411,2.77344c3.35663-1.01025,0.63892-0.67627,1.96509-1.23682
			c3.71545-0.63037,8.78564-1.96484,14.22723-3.47949c2.73865-0.66064,5.55127-1.47998,8.34186-2.1543
			c2.80884-0.62939,5.56348-1.24658,8.11633-1.81885c5.15302-0.88525,9.54785-1.64746,11.96143-1.50439
			c2.41626,0.05908,2.80237,0.66211,0.0816,2.20508c-0.71399,0.10645-1.72675,0.18701-2.87891,0.25879
			c-1.14948,0.11914-2.43738,0.25244-3.70648,0.38428c-2.53461,0.28564-4.99292,0.54102-6.06934,1.01807
			c0.61816,0.57568,4.57782,0.48828,9.75818,0.10303c2.59735-0.08057,5.50574-0.17041,8.45569-0.26123
			c2.95044-0.00391,5.9444,0.09229,8.70679,0.18506c2.8573-0.22607,5.82849-0.35156,8.97723-0.54053
			c3.14142-0.10938,6.43994-0.02881,9.95996,0.0625c6.97522,0.54053,14.85242,1.53271,23.4248,4.57861
			c2.97144,1.01025,3.46997,1.54492,3.98291,2.0293c0.5105,0.48877,1.02002,0.97705,3.89978,2.14648
			c1.09583,0.33594,2.17517,0.61133,3.18494,0.97705c1.01208,0.36182,1.99121,0.71143,2.93945,1.05029
			c1.8894,0.69922,3.67957,1.30518,5.31311,1.99805c1.62366,0.71729,3.14539,1.39014,4.58301,2.02539
			c1.43225,0.64795,2.78577,1.24805,4.01587,1.93506c2.47913,1.33301,4.70752,2.51562,6.7439,3.75293
			c2.01343,1.2793,3.89148,2.50928,5.77405,3.75c1.87671,1.25049,3.672,2.65234,5.65564,4.05615
			c2.0022,1.37842,4.01672,3.02539,6.33728,4.78125c4.63293,3.52197,10.15466,7.96338,17.30029,14.33399
			c8.15955,8.76904,16.8114,18.81299,24.21375,29.78369c7.45288,10.9165,13.41748,22.8501,17.03748,34.12402
			c-0.04517-0.95166,0.32324-0.53125,0.92981,0.71387c0.3031,0.62207,0.66541,1.44971,1.06433,2.41309
			c0.1958,0.48291,0.40454,0.99805,0.62305,1.53711c0.20178,0.54541,0.38513,1.12451,0.58411,1.71582
			c0.76733,2.37402,1.64697,4.99023,2.28992,7.33984c0.59131,2.36328,1.10474,4.41553,1.39844,5.58936
			c0.26929,1.67529,0.76013,5.77734,1.62219,10.53467c0.31018,2.40479,0.66614,4.98682,1.078,7.5376
			c0.39539,2.55371,0.64282,5.1084,1.04712,7.41748c-0.72485-5.47559-0.85474-2.07275-1.64197-5.82812
			c0.40344,2.59473,0.7356,4.93164,1.00537,7.03369c0.15515,1.04932,0.2179,2.04736,0.271,2.98926
			c0.04871,0.94189,0.0946,1.82764,0.1377,2.66064c0.06982,1.6665,0.09839,3.12158,0.09167,4.39307
			c-0.07068,1.2749-0.16577,2.36523-0.27832,3.2998c-0.45007,3.73682-1.17896,4.97461-1.73645,5.55713
			c-0.3175-4.00488-0.57812-7.10107-1.02991-9.76807c-0.49988-2.64941-0.92578-4.90576-1.36682-7.24365
			c-0.52222-2.31934-1.04785-4.71484-1.51819-7.69141c-0.22461-1.49072-0.60449-3.1001-0.90076-4.93066
			C366.53293,170.88986,366.30893,168.83517,365.81528,166.56174z" fill="#ffffff" style=""></path>
		<path d="M47.24979,130.10275c-0.23047-2.4165-4.23279,5.49023-6.89716,12.05127c-1.34241,3.26953-2.38031,6.17627-2.99274,7.06396
			c-0.58893,0.89209-0.66217-0.18799,0.19458-4.88672c-0.56348,1.51758-1.08856,2.93164-1.58093,4.25781
			c-0.23877,0.6665-0.46967,1.31055-0.6933,1.93457c-0.18719,0.63574-0.36829,1.25098-0.54395,1.84766
			c-0.69147,2.39014-1.25323,4.49658-1.72943,6.43799c-0.38074,1.96631-0.68292,3.76562-0.94763,5.52051
			c-0.12506,0.87744-0.2486,1.74365-0.3728,2.61475c-0.11615,0.87109-0.15607,1.76074-0.23425,2.6626
			c0.21869-0.89795,0.39429-1.67139,0.5722-2.32666c0.19867-0.65088,0.36377-1.19141,0.49957-1.63574
			c0.27753-0.88623,0.44952-1.38477,0.54803-1.60742c0.19696-0.44482,0.1001,0.21143-0.03693,1.07568
			c-0.27472,1.73193-0.70673,4.28027,0.7218,0.56299c-4.37756,23.0791-4.15271,46.34326,0.07977,68.32227
			c4.23889,21.99072,12.60101,42.69727,24.2392,60.94238c0.49884,0.87939,0.99585,1.75537,1.49115,2.62793
			c0.49872,0.87207,1.06812,1.69287,1.60052,2.53613c1.08643,1.6709,2.16235,3.33838,3.26984,4.97021
			c2.3595,3.15479,4.61407,6.34961,7.18707,9.23926c4.9422,5.95312,10.45312,11.23145,16.19635,16.1123l4.38751,3.55713
			c1.47552,1.16406,3.03143,2.2251,4.5448,3.3335l2.28632,1.64014c0.7594,0.54932,1.57141,1.02783,2.35498,1.54346
			c1.58014,1.0083,3.1618,2.01807,4.74622,3.0293c1.6189,0.9541,3.26715,1.86426,4.90216,2.7959l2.45947,1.38818l2.53412,1.27002
			c1.69043,0.83936,3.38623,1.68115,5.08868,2.52637c1.73846,0.7627,3.4837,1.52832,5.237,2.29736
			c2.03704,1.19141,3.72338,2.00049,5.00048,2.72314c1.28241,0.71143,2.18787,1.26904,2.78589,1.7002
			c1.19598,0.86279,1.16156,1.21826,0.45062,1.28955c-1.41675,0.14404-5.56433-0.85986-7.8485-1.16699
			c7.29827,3.42969,14.77111,6.49805,22.45739,8.95898c-7.92438-1.9585-15.70209-4.57031-23.37127-7.58105
			c-0.57397,0.28223,1.66327,1.56641,4.71447,3.19678c0.76532,0.4043,1.57843,0.8335,2.4104,1.27246
			c0.83917,0.42432,1.71954,0.80859,2.57678,1.21973c1.72003,0.80908,3.39386,1.6167,4.76776,2.34961
			c2.19379,0.73584,4.42957,1.34766,6.63782,2.0249c-4.57007,0.9209-16.49695-3.26172-28.99718-10.4126
			c-1.58936-0.83984-3.1048-1.87549-4.68475-2.82568c-1.5542-0.99463-3.17737-1.90625-4.69995-2.98975
			c-3.06635-2.13086-6.19861-4.18604-9.09143-6.44629c-1.45905-1.10986-2.94342-2.15088-4.33917-3.25586
			c-1.39301-1.10791-2.76086-2.19629-4.09406-3.25684c-0.6734-0.52197-1.33801-1.03662-1.99268-1.54395
			c-0.63623-0.52979-1.26276-1.05176-1.87848-1.56445c-1.23694-1.01953-2.44403-1.98779-3.61536-2.89551
			c2.72906,2.28711,4.68622,4,6.18188,5.08936c1.49249,1.09326,2.40045,1.7124,2.8866,1.98828
			c0.97217,0.55225,0.258-0.26611-0.84027-1.40967c-0.55103-0.56836-1.19031-1.22754-1.77563-1.83105
			c-0.57922-0.60742-1.0556-1.21338-1.33832-1.60596c-0.54749-0.80664-0.26337-0.82568,2.15839,0.90381
			c-2.22156-1.91748-4.38086-3.90674-6.57098-5.85449c1.48816,1.27344,3.38855,2.80371,5.6377,4.58154
			c1.11017,0.90625,2.41046,1.74951,3.73853,2.7168c1.34741,0.94238,2.74988,1.979,4.27716,3.00537
			c6.14276,4.06543,13.74554,8.6709,22.66351,13.2832c-1.56335-0.77637-3.0415-1.70703-4.5528-2.5752
			c-1.50024-0.8877-3.02118-1.73926-4.50513-2.64941l-4.38574-2.83252l-2.19318-1.41064l-2.12531-1.50781l-4.24579-3.01025
			c-1.40051-1.02051-2.7403-2.11963-4.11328-3.17139c-2.77521-2.07031-5.35889-4.36084-7.98566-6.58643
			c-1.33606-1.08838-2.55975-2.29688-3.82159-3.45996c-1.25378-1.17236-2.50543-2.34326-3.75482-3.51172
			c-1.198-1.22168-2.39386-2.44092-3.58728-3.65771l-1.79224-1.82227c-0.5932-0.61035-1.1413-1.26074-1.71393-1.8877
			c-1.13538-1.26416-2.26825-2.52539-3.39844-3.78418c-1.14832-1.24463-2.16022-2.59766-3.24573-3.88574
			c-1.05615-1.31152-2.16144-2.58203-3.17444-3.91748c-1.00342-1.34326-2.00409-2.68359-3.00183-4.01953L57.47367,299.78
			l-1.40399-2.05859c-0.93292-1.37354-1.86298-2.74268-2.78992-4.10742c-0.95142-1.35107-1.74567-2.79297-2.62433-4.17871
			c-0.85254-1.40088-1.72894-2.78369-2.55804-4.18701c-0.78821-1.42676-1.57349-2.84863-2.35571-4.26514
			c-0.77429-1.42188-1.59991-2.81299-2.27881-4.26953c-0.71216-1.44238-1.42139-2.87842-2.12756-4.30859
			c-0.34888-0.71729-0.71851-1.4248-1.04919-2.14697l-0.95123-2.17969c-5.16998-11.56152-8.96674-23.27686-11.5257-34.68701
			c0.51685,1.29395,1.51318,4.8042,1.08191,0.60303c-0.33289-2.06006-0.77661-3.99316-1.06873-5.85156
			c-0.29547-1.85791-0.60968-3.61523-0.93561-5.28369c-0.16998-0.8335-0.33551-1.64551-0.49683-2.43701
			c-0.13531-0.79443-0.26715-1.56836-0.39563-2.32227c-0.2666-1.50781-0.54187-2.93701-0.81799-4.2959
			c-0.61117-2.71484-0.93829-5.16455-1.35358-7.39404c-0.38263-2.23047-0.75903-4.24707-0.85248-6.10889l0.1358,1.85986
			c0.05762,0.61963,0.14673,1.23828,0.21869,1.85645l0.45691,3.70068c0.19275-2.62891,0.16223-5.65771,0.30548-8.93018
			c0.03973-1.63574,0.05658-3.33301,0.05774-5.07031c0.03601-1.73584,0.14618-3.5083,0.20038-5.30225
			c0.18158-7.17871,0.93182-14.63037,1.99585-20.89062c0.93976-3.3418,2.02399-6.33887,2.97211-9.35303
			c1.08569-2.97119,2.17151-5.94238,3.35809-9.18945c0.63928-1.60498,1.28723-3.28174,1.95184-5.06787
			c0.34021-0.89014,0.65106-1.82031,1.0282-2.75977c0.38214-0.93799,0.77637-1.90527,1.18451-2.90723
			c1.5462-4.04053,3.46796-8.56006,5.79456-13.88184l0.50226,1.12109l2.23712-4.09473
			c0.76099-1.35547,1.45013-2.74854,2.29144-4.05762l2.42957-3.9751l1.21393-1.98486l1.30103-1.93018
			c-1.19275,1.97754-1.38593,2.65234-1.25293,2.71045c0.14056,0.0625,0.60187-0.49365,0.95874-0.83984
			c-0.46429,1.29297-1.08112,2.02393-2.81158,4.78125c0.33533,0.86182,2.12299-0.52637,4.54169-3.11768
			c2.57727-2.49902,5.72345-6.2417,9.13232-9.97461c-0.95892,1.26025-1.91779,2.52002-2.8067,3.68848
			c-0.84418,1.2002-1.5636,2.34766-2.14026,3.31201c2.34918-3.37012,8.13587-10.50049,12.51117-15.08936
			c4.52588-4.48096,7.29089-6.6792,3.27258-0.93994c-0.9696,1.09717-1.87604,2.12598-2.67328,3.13965
			c-0.81702,0.99707-1.59277,1.92285-2.33295,2.78809c-0.73138,0.87207-1.46478,1.65479-2.09991,2.43848
			c-0.64423,0.77686-1.25073,1.50879-1.82678,2.20361c-1.16626,1.38086-2.25769,2.58301-3.27375,3.71631
			c-0.9848,1.15869-1.9032,2.23926-2.81219,3.30859c-0.90662,1.07471-1.8526,2.11523-2.74335,3.28369
			c-0.87836,1.17578-1.78339,2.42969-2.74847,3.84717c-0.48248,0.70898-0.98004,1.4585-1.49664,2.25928
			c-0.49432,0.81299-0.9726,1.6958-1.48926,2.63232c-0.51239,0.93896-1.04517,1.94043-1.60181,3.01562
			c-0.27551,0.53906-0.55969,1.09473-0.85321,1.66895C47.78269,128.8591,47.5261,129.47336,47.24979,130.10275z" fill="#ffffff" style=""></path>
		<path d="M112.60429,49.40744c-1.00085,0.51123-1.85901,0.9502-2.58942,1.32324c-0.71906,0.39307-1.31226,0.7168-1.79431,0.98047
			c-0.96814,0.51953-1.5058,0.77197-1.72504,0.82471c-0.4386,0.10498,0.39716-0.58838,1.60327-1.52637
			c1.18591-0.9707,2.83459-2.03418,3.8974-2.85938c1.06763-0.81641,1.57971-1.34619,0.58496-1.06885l3.5119-2.04443
			c1.18909-0.64795,2.39996-1.25635,3.59943-1.88623l3.60785-1.87305c1.19696-0.63623,2.4527-1.15137,3.6767-1.73291
			c0.2193,0.1958-0.53857,0.76611-1.80951,1.5332c-1.27045,0.77246-3.00732,1.82812-4.80103,2.91846
			C116.72721,46.0715,113.07652,48.62082,112.60429,49.40744z" fill="#ffffff" style=""></path>
		<path d="M229.14682,369.05295c0.78955,0.28271,3.92273-0.09131,7.60229-0.8042c3.65894-0.81494,7.89954-1.77441,10.92896-2.60352
			c1.46545-0.51904,2.7926-0.98877,4.026-1.42578c1.21936-0.47314,2.32251-0.97656,3.38586-1.42676
			c1.0592-0.45703,2.0708-0.89307,3.07776-1.32764c0.50354-0.21387,1.00586-0.42725,1.51257-0.64209
			c0.49829-0.23682,1.00073-0.47559,1.5127-0.71875c2.04138-0.98535,4.29028-1.89893,7.00073-3.12451
			c2.67786-1.29883,5.96484-2.58057,9.94775-4.5791c-5.58704,4.3335-2.02197,3.396,4.62488,0.74854
			c1.64441-0.68652,3.42529-1.57373,5.31921-2.46484c0.94324-0.45557,1.90784-0.92139,2.88086-1.39111
			c0.94946-0.51465,1.9071-1.03369,2.86035-1.55029c0.9574-0.51514,1.91016-1.02832,2.84595-1.53223
			c0.46985-0.25049,0.93555-0.49854,1.39526-0.74365c0.44836-0.2627,0.89087-0.52246,1.32617-0.77783
			c1.74133-1.02246,3.38196-1.95996,4.82971-2.74023c-1.81567,1.36279-3.92053,3.14844-6.39172,4.98242
			c-1.2511,0.89844-2.56726,1.84375-3.9325,2.82373c-0.68835,0.48535-1.38892,0.979-2.09998,1.47998
			c-0.7356,0.46289-1.48206,0.93262-2.23706,1.40771c-1.51453,0.94531-3.07336,1.90088-4.66223,2.84912
			c-1.62354,0.88428-3.29114,1.73535-4.96594,2.5752l-2.52368,1.2334c-0.85437,0.38086-1.72559,0.72119-2.58765,1.06885
			c-1.72815,0.68701-3.45374,1.33252-5.15881,1.91895c0.64978-0.66943-2.05359,0.10938-5.67566,1.26074
			c-0.90137,0.29834-1.8623,0.61621-2.84436,0.94141c-0.99414,0.2876-2.00964,0.58105-3.00708,0.86963
			c-1.98853,0.58398-3.90527,1.14697-5.43677,1.59668c-4.54016,1.95801-2.39148,2.36426-3.9071,3.71094
			c-0.77087,0.64551-2.43225,1.6792-6.46021,2.90088c-2.01392,0.60498-4.57104,1.47852-7.94458,2.14062
			c-1.68445,0.35107-3.55237,0.74072-5.62488,1.17236c-2.08972,0.33398-4.39465,0.65479-6.9281,1.01367
			c-1.87097,0.18164-4.43811,0.2876-7.20575,0.48535c-1.38458,0.08545-2.81897,0.21631-4.2486,0.27783
			c-1.43115,0.02441-2.85443,0.04932-4.2099,0.07227c-1.35529,0.01709-2.64252,0.02393-3.80127,0.01367
			c-1.15875,0-2.18896-0.12842-3.03015-0.20801c-1.68292-0.18994-2.60785-0.44238-2.30322-0.79492
			c-1.28625-0.16113-2.55377-0.17676-3.82501-0.13086c-1.26996,0.0249-2.54291,0.0498-3.83173,0.0752
			c-1.29053,0.02148-2.60028,0.02002-3.93732-0.08887c-1.33936-0.08252-2.69727-0.36084-4.08063-0.84766l-2.77875-0.95557
			c8.37946,0.8916,16.81311,0.94775,25.18054,0.60547c0.92462,0.17676,2.84241,0.52588,5.13184,0.38525
			c-1.19769-0.22314-0.09033-0.49268,1.96747-0.84326c2.0545-0.43213,5.05841-0.95312,7.68469-1.46875
			c5.24652-1.21777,8.92059-2.47656,0.88208-2.31104c-11.19348,1.17334-22.51001,1.24072-33.72198,0.2251
			c-2.034-0.28467-2.81238-0.6377-2.67511-0.77539c0.14014-0.16357,1.20184-0.17334,2.89935-0.23486
			c1.69519-0.03662,4.01422-0.01221,6.65753,0.06641c2.64905-0.01904,5.62701-0.06836,8.63501-0.03467
			c2.18903,0.11279,4.0943,0.13379,5.77313,0.18896c1.67755,0.02148,3.13403,0.12891,4.41272,0.04688
			c2.56165-0.09082,4.45239-0.19482,6.14777-0.34277c1.69952-0.10938,3.18524-0.44482,4.96173-0.78271
			c0.88525-0.18213,1.84302-0.37988,2.93237-0.604C226.54086,369.69553,227.75766,369.44064,229.14682,369.05295z" fill="#ffffff" style=""></path>
		<path d="M145.88614,365.34836l-1.62543-0.9707c2.3728,0.74902,4.72131,1.5708,7.10956,2.26074l7.19928,1.94287l7.28125,1.59033
			c1.20764,0.29053,2.43933,0.4624,3.66339,0.66943l3.67419,0.60645C163.94791,370.23801,154.81558,368.134,145.88614,365.34836z" fill="#ffffff" style=""></path>
		<path d="M323.48398,318.56613c-0.91016,1.10938-1.81714,2.15967-2.75562,3.14453
			c-0.97021,0.95312-1.94373,1.86914-2.91626,2.78467c-0.96753,0.92041-1.93445,1.84082-2.91821,2.77686
			c-1.0127,0.9043-2.02246,1.84668-3.02966,2.8667l-1.71619-0.94385l3.4436-2.49854
			c1.15515-0.82959,2.22412-1.75879,3.34448-2.63525l3.33472-2.67383C321.35812,320.4675,322.40915,319.50705,323.48398,318.56613z" fill="#ffffff" style=""></path>
		<path d="M51.54343,299.41232c-1.44421-1.51221-3.289-3.72998-5.00104-6.47803c-0.88239-1.3584-1.79388-2.81104-2.71576-4.30762
			c-0.90033-1.50781-1.72198-3.10791-2.58453-4.67529c-0.82697-1.58496-1.74976-3.11279-2.46259-4.67383
			c-0.76086-1.53906-1.49377-3.02197-2.17584-4.40186c-1.44995-2.72412-2.49603-5.12451-3.48999-6.60107
			c2.07806,5.34521,1.70129,3.3584,2.49884,4.53662c-0.61615-1.73389-1.18805-3.48389-1.78125-5.22217
			c-0.58258-1.74219-1.20447-3.4668-1.67096-5.24561C37.74704,274.72629,43.15036,286.89914,51.54343,299.41232z" fill="#ffffff" style=""></path>
		<path d="M355.67111,270.92892c0.48315-1.12012,0.95471-2.17773,1.36316-3.2041c0.37158-1.04053,0.72522-2.03125,1.06396-2.98047
			c0.6499-1.90674,1.28442-3.62646,1.74866-5.2876c0.44092-1.66553,0.85388-3.22461,1.2561-4.74365
			c0.19763-0.75781,0.3927-1.50537,0.58716-2.25098c0.18469-0.74805,0.32263-1.50732,0.49072-2.26367
			c0.63672-3.03467,1.43127-6.11963,2.17102-9.87891c0.88049-3.72607,1.74292-8.10547,2.87744-13.6582
			c1.14502-4.82568,0.12646,6.17236,1.479-0.87598c1.40063-7.04883,0.6366-8.82764,0.55798-12.33203l-0.80359,2.69385
			c0.38806-1.33936,0.87378-3.42578,1.28186-5.67627c0.34558-2.25342,0.70264-4.66504,1.07336-6.63135
			c0.71729-3.96484,1.39856-6.19482,2.40039-1.49365c-0.08203,1.81494-0.14246,3.56787-0.18433,5.26562
			c-0.06165,1.69727-0.01404,3.34424-0.14343,4.93408c-0.07483,1.59326-0.14746,3.1377-0.21802,4.63965
			c-0.05457,1.50391-0.08118,2.96875-0.21521,4.38721c-0.23291,2.83936-0.30469,5.55957-0.55188,8.16113
			c-0.25525,2.60889-0.50073,5.11865-0.74121,7.57617c-0.35986,2.44189-0.72034,4.83984-1.11414,7.2334
			c-0.3938,2.39307-1.02209,4.73047-1.60681,7.12744c-0.55798,2.40674-1.41956,4.77148-2.30688,7.22314
			c-0.46167,1.21924-0.90002,2.47217-1.45776,3.71143c-0.56873,1.23486-1.16858,2.48828-1.80396,3.76367
			c-1.09302,0.98389-2.16284,1.96143-3.25867,2.91211l-2.55432,6.25098c-0.40649,1.05322-0.88574,2.07178-1.36743,3.09033
			l-1.43079,3.06543c-0.29968,0.36572-0.51221,0.40771-0.88794,0.86865c-0.38025,0.4585-0.88306,1.35547-1.95715,3.33252
			c-1.98523,4.26514-0.93176,2.89014,0.68982,0.56543c0.40454-0.58203,0.84766-1.21973,1.28162-1.84424
			c0.40601-0.64062,0.80505-1.26709,1.16736-1.80127c0.72339-1.06787,1.29187-1.76904,1.41736-1.48779
			c-0.91187,1.99951-1.80017,4.01611-2.849,5.94971c-1.02271,1.94678-1.99255,3.93018-3.06384,5.85645l-3.31934,5.72803
			c-1.11084,1.91064-2.37097,3.72559-3.55261,5.59766c-1.9718,2.57178,1.09924-2.5166,0.38257-1.85059
			c-1.00293,1.20605-1.91333,2.38477-2.75562,3.5415c-0.89209,1.11963-1.72253,2.2124-2.50134,3.29248
			c-0.77979,1.0791-1.51282,2.1416-2.22144,3.18994c-0.72583,1.03418-1.47693,2.01367-2.19727,3.00293
			c-2.85254,3.97559-5.90186,7.58447-10.32104,10.79443c0.94409-0.98438,1.8092-2.04541,2.68494-3.09229l2.62427-3.13623
			c0.89209-1.02637,1.71533-2.11279,2.53223-3.20264l2.46375-3.24805c-6.37744,7.47461-12.76868,13.26416-18.8501,18.17773
			c-6.04272,4.97949-12.03076,8.80518-17.78955,12.44189c8.10327-5.37549,14.64819-11.07275,20.29944-16.74365
			c1.37537-1.4541,2.72559-2.88184,4.05566-4.28809c1.30762-1.42383,2.49805-2.91699,3.71863-4.34424
			c0.60315-0.71875,1.20288-1.43408,1.79968-2.14551c0.59229-0.71436,1.12878-1.47168,1.69104-2.19971
			c1.10925-1.46484,2.20996-2.91846,3.30652-4.36621c1.03259-1.4917,2.0614-2.97754,3.09058-4.46436l1.54517-2.22168
			c0.50671-0.74658,0.97095-1.52539,1.4624-2.28613c0.97937-1.521,1.96301-3.04883,2.9552-4.58984
			c0.94104-1.5708,1.89001-3.15527,2.85095-4.75977c0.4884-0.7959,0.97974-1.59717,1.47473-2.40381
			c0.46228-0.82617,0.92786-1.6582,1.39722-2.49756c0.95532-1.66748,1.92603-3.3623,2.91626-5.09082
			c0.92981-1.76123,1.89722-3.54736,2.90979-5.36572c0.25281-0.45459,0.50708-0.91211,0.76294-1.37256
			c0.23645-0.46973,0.47424-0.94189,0.7135-1.41748C354.67831,272.85959,355.1716,271.90012,355.67111,270.92892z" fill="#ffffff" style=""></path>
	</g>
</g>


<desc>Created with Snap</desc><defs></defs></g><g><g transform="matrix(1,0,0,-1,0,0)"><path d="M94 -5L94 166Q38 174 38 192Q38 205 57 222Q76 239 95 257Q95 317 77 391Q59 466 51 507Q43 548 43 582Q43 616 53 625Q64 634 84 634Q104 634 110 628Q116 623 118 615Q120 607 120 598Q121 589 124 581Q129 562 155 562Q222 563 289 573Q356 584 422 595Q554 617 607 617Q661 617 692 614Q693 595 696 581Q699 567 699 558Q699 541 666 546Q143 527 143 468Q143 403 152 356Q161 310 165 298Q170 286 176 286Q233 286 291 296Q350 306 408 317Q467 329 526 339Q585 349 642 349Q643 349 643 341Q643 334 642 325Q639 301 642 301Q599 277 486 262Q437 255 386 249Q335 243 292 236Q193 222 177 199L166 3Q155 -8 141 -8L104 -5Q99 -5 94 -5ZM754 388Q752 442 750 484Q748 527 747 547Q747 568 731 648Q740 660 748 671Q757 682 773 682Q808 682 827 387Q837 216 837 45Q837 -1 773 -1L765 0Q765 52 762 133Q759 214 757 274Q756 334 754 388ZM892 133Q892 149 889 177Q887 206 885 240Q883 274 883 309Q883 344 889 373Q902 438 943 438Q971 430 980 418Q990 406 990 388Q990 371 981 345Q948 258 948 188Q948 165 951 139Q967 72 1061 72Q1110 72 1154 89Q1238 120 1268 162Q1277 208 1277 242Q1277 277 1274 304Q1272 331 1268 363Q1265 396 1264 435Q1277 441 1289 441Q1302 441 1315 428Q1329 415 1338 379Q1348 343 1351 294Q1354 246 1354 194Q1355 142 1355 93Q1355 45 1359 10Q1347 -1 1336 -1Q1296 -1 1277 79Q1264 68 1233 52Q1167 16 1077 4Q1060 2 1039 2Q1018 2 986 10Q955 18 927 47Q899 76 892 133ZM1416 30Q1465 79 1515 142Q1565 205 1576 226L1492 318Q1476 335 1461 352Q1446 369 1434 382Q1422 395 1415 404L1408 412L1466 474Q1511 419 1532 390Q1554 362 1567 345Q1589 317 1631 276Q1645 296 1681 348Q1741 437 1777 480Q1800 480 1814 464Q1828 448 1828 434Q1802 378 1753 316Q1735 294 1720 273Q1705 253 1696 229Q1757 186 1842 83Q1861 60 1869 48Q1869 41 1858 27Q1841 3 1828 -3Q1809 6 1788 29Q1768 53 1745 81Q1722 109 1697 137Q1673 165 1646 183Q1623 157 1582 108Q1507 18 1482 0Q1463 -4 1428 18Q1419 23 1416 30ZM1898 30Q1947 79 1997 142Q2047 205 2058 226L1974 318Q1958 335 1943 352Q1928 369 1916 382Q1904 395 1897 404L1890 412L1948 474Q1993 419 2014 390Q2036 362 2049 345Q2071 317 2113 276Q2127 296 2163 348Q2223 437 2259 480Q2282 480 2296 464Q2310 448 2310 434Q2284 378 2235 316Q2217 294 2202 273Q2187 253 2178 229Q2239 186 2324 83Q2343 60 2351 48Q2351 41 2340 27Q2323 3 2310 -3Q2291 6 2270 29Q2250 53 2227 81Q2204 109 2179 137Q2155 165 2128 183Q2105 157 2064 108Q1989 18 1964 0Q1945 -4 1910 18Q1901 23 1898 30Z" fill="#ffffff" style=""></path></g></g></g></svg>