<!-- by TradingView --><svg width="18" height="18" xmlns="http://www.w3.org/2000/svg"><path fill="#007DC3" d="M0 0h18v18H0z"/><path d="M15 9.004C15 11.208 12.312 13 9.004 13a8.64 8.64 0 01-2.71-.428l1.063-4.194h.516L7.357 10h.763l.63-2H7.47l.358-1.51c.053-.206.255-.507.54-.507.164 0 .374.087.381.198-.217 0-.39.214-.39.452 0 .238.18.428.39.428.135 0 .45-.166.434-.53-.007-.223-.134-.675-.816-.69-.793-.016-1.34.729-1.534 1.482-.112.452-.404 1.522-.644 2.498l-.629 2.45C4.01 11.549 3 10.35 3 8.996 3 6.792 5.687 5 8.996 5 12.312 5.008 15 6.792 15 9.004zM4.48 10l.272-.742c1.272.023 1.52-.31 1.699-1.15C6.578 7.513 6.359 7 5.805 7h-1.52l-.142.462h.337L3.7 10.008h.779V10zm.806-2.538c.396-.016.47.106.35.638-.203.896-.405.9-.779.9l.429-1.538zm9.377 1.019c0-.246-.172-.481-.382-.481-.172 0-.411.164-.576.457L13.898 8h-1.04l-.103.308h.277l-.534 1.695h.764l.27-.88c.113-.349.323-.753.383-.698-.068.333.164.508.366.508.21-.008.382-.207.382-.452zM11.201 9h1.28c.008-.032.01-.026.017-.065.142-.706-.277-.935-.801-.935-.57 0-1.018-.017-1.243.935-.15.634.178 1.052.747 1.068.51.016.983-.046 1.222-.775h-.778l-.04.093c-.118.374-.217.412-.351.412-.135 0-.196-.192-.15-.412L11.2 9zm.137-.549c.06-.23.142-.268.307-.26.164 0 .247.03.194.26l-.084.321h-.502l.085-.321zM10.16 9.695h-.652L10.632 8H9l-.143.308h.651l-1.063 1.695h1.617l.098-.308z" fill="#fff"/></svg>