<svg fill="none" height="280" viewBox="0 0 440 280" width="440" xmlns="http://www.w3.org/2000/svg" xmlns:xlink="http://www.w3.org/1999/xlink"><mask id="a" height="174" maskUnits="userSpaceOnUse" width="350" x="44" y="22"><path d="m44.8662 22h348.739v173.412h-348.739z" fill="#c4c4c4"/></mask><mask id="b" height="481" maskUnits="userSpaceOnUse" width="347" x="46" y="24"><path clip-rule="evenodd" d="m219.297 24.6375c-95.701 0-173.2824 75.3005-173.2824 168.1885v311.207h86.8954v-303.171c0-46.307 38.676-83.846 86.385-83.846 47.71 0 86.386 37.539 86.386 83.846v303.171h86.898v-311.207c0-92.8881-77.581-168.1885-173.282-168.1885z" fill="#e9bcff" fill-rule="evenodd"/></mask><circle cx="89.8975" cy="187.751" fill="#444" r="70.8975"/><circle cx="349.536" cy="187.751" fill="#ddd" r="70.8975"/><g mask="url(#a)"><g mask="url(#b)"><path d="m46.0176 197.92c0-95.701 77.5814-173.2825 173.2824-173.2825s173.282 77.5815 173.282 173.2825v306.113h-346.5644z" fill="#e9bcff"/><path d="m65.6729 200.579c0-84.973 68.8841-153.8577 153.8581-153.8577s153.858 68.8847 153.858 153.8577v334.139h-307.7161z" fill="#2c98f3"/><path d="m85.8828 200.181c0-72.552 58.8152-131.3672 131.3672-131.3672s131.367 58.8152 131.367 131.3672v383.741h-262.7342z" fill="#58c971"/><path d="m110.421 202.796c0-60.131 48.745-108.8766 108.876-108.8766s108.877 48.7456 108.877 108.8766v442.379h-217.753z" fill="#ffca42"/></g></g></svg>