<svg width="140" height="140" viewBox="0 0 140 140" fill="none" xmlns="http://www.w3.org/2000/svg">
<circle cx="70" cy="70" r="66" fill="url(#paint0_linear)"/>
<path fill-rule="evenodd" clip-rule="evenodd" d="M70 137C107.003 137 137 107.003 137 70C137 32.9969 107.003 3 70 3C32.9969 3 3 32.9969 3 70C3 107.003 32.9969 137 70 137ZM70 130C103.137 130 130 103.137 130 70C130 36.8629 103.137 10 70 10C36.8629 10 10 36.8629 10 70C10 103.137 36.8629 130 70 130Z" fill="url(#paint1_linear)"/>
<path fill-rule="evenodd" clip-rule="evenodd" d="M102.416 40.2472C102.833 42.8605 103.05 45.5406 103.05 48.2714C103.05 76.172 80.4318 98.7899 52.5312 98.7899C45.9811 98.7899 39.7222 97.5433 33.9788 95.2745C32.6854 93.4345 31.5294 91.4909 30.5257 89.4587C59.5767 81.9485 83.0167 60.4896 93.2746 32.6528C93.1222 32.5576 92.9692 32.4634 92.8156 32.37C96.3791 34.5353 99.6106 37.1924 102.416 40.2472Z" fill="#FFDA16"/>
<path fill-rule="evenodd" clip-rule="evenodd" d="M98.037 44.5185C98.037 72.4191 75.4191 95.037 47.5185 95.037C42.2163 95.037 37.105 94.2202 32.3034 92.7055C32.8326 93.5823 33.3916 94.4391 33.9789 95.2746C39.7223 97.5434 45.9812 98.7899 52.5311 98.7899C80.4317 98.7899 103.05 76.172 103.05 48.2714C103.05 45.5406 102.833 42.8604 102.416 40.2471C100.817 38.5061 99.0798 36.8942 97.2215 35.429C97.7572 38.3776 98.037 41.4154 98.037 44.5185Z" fill="#BD6F00"/>
<path fill-rule="evenodd" clip-rule="evenodd" d="M96.5512 34.9109C86.1486 63.3575 61.7995 85.0864 31.7823 91.819C31.3404 91.0466 30.9212 90.2596 30.5257 89.4588C59.5767 81.9486 83.0166 60.4896 93.2744 32.6527C94.4019 33.3568 95.4952 34.1106 96.5512 34.9109Z" fill="white"/>
<defs>
<linearGradient id="paint0_linear" x1="136" y1="4" x2="4" y2="136" gradientUnits="userSpaceOnUse">
<stop stop-color="#FFDA16"/>
<stop offset="1" stop-color="#F5CA00"/>
</linearGradient>
<linearGradient id="paint1_linear" x1="137.12" y1="137.12" x2="2.88036" y2="2.88036" gradientUnits="userSpaceOnUse">
<stop offset="0.267361" stop-color="#BD7900"/>
<stop offset="0.690104" stop-color="#FFF168"/>
<stop offset="0.78125" stop-color="#FFF168"/>
<stop offset="0.846875" stop-color="white"/>
</linearGradient>
</defs>
</svg>
