<svg xmlns="http://www.w3.org/2000/svg" viewBox="0 0 128 128"><defs><style>.cls-1{fill:#7f66ff;}.cls-2{fill:#fff;}</style></defs><g id="图层_2" data-name="图层 2"><g id="图层_3" data-name="图层 3"><circle class="cls-1" cx="64" cy="64" r="64"/><path class="cls-2" d="M111.77,37.83,89,51.53l-12.8,7.69a14.19,14.19,0,0,0-7.25,11.36L92.07,56.67l12.46-7.48A14.15,14.15,0,0,0,111.77,37.83Z"/><path class="cls-2" d="M82.72,75.39l-8.9,5.34,3.09,5.14,8.9-5.34,12.45-7.48a14.19,14.19,0,0,0,7.25-11.36Z"/><path class="cls-2" d="M77.72,98.18,74,100.4l3.09,5.14,3.69-2.22,12.45-7.48a14.17,14.17,0,0,0,7.25-11.35Z"/><path class="cls-2" d="M73.82,80.73c-2.57,1.55-8.43,8.53-9.47,16.27-.85,6.35,2.79,10.42,5.61,10.68,3.39.32,5.24-1,7.16-2.14-1.22-2-3.09-5.14-3.09-5.14s-3.68.6-4.18-1.4c-.74-3,.88-9.41,7.06-13.13Z"/><path class="cls-2" d="M16.23,37.83,39,51.53l12.8,7.69a14.19,14.19,0,0,1,7.25,11.36L35.93,56.67,23.47,49.19A14.15,14.15,0,0,1,16.23,37.83Z"/><path class="cls-2" d="M45.28,75.39l8.9,5.34-3.09,5.14-8.9-5.34L29.74,73.05a14.19,14.19,0,0,1-7.25-11.36Z"/><path class="cls-2" d="M50.28,98.18,54,100.4l-3.09,5.14-3.69-2.22L34.74,95.84a14.17,14.17,0,0,1-7.25-11.35Z"/><path class="cls-2" d="M54.18,80.73c2.57,1.55,8.43,8.53,9.47,16.27.85,6.35-2.79,10.42-5.61,10.68-3.39.32-5.24-1-7.16-2.14,1.22-2,3.09-5.14,3.09-5.14s3.68.6,4.18-1.4c.74-3-.88-9.41-7.06-13.13Z"/></g></g></svg>