<svg viewBox="0 0 664.12 663.76" xmlns="http://www.w3.org/2000/svg" xmlns:xlink="http://www.w3.org/1999/xlink"><radialGradient id="a" cx="449.85" cy="508.58" fy="491.012985" gradientTransform="matrix(1 0 0 .98 0 9.94)" gradientUnits="userSpaceOnUse" r="481.42"><stop offset=".07" stop-color="#00d1a9"/><stop offset=".17" stop-color="#00caa3"/><stop offset=".3" stop-color="#00b693"/><stop offset=".47" stop-color="#009679"/><stop offset=".65" stop-color="#006955"/><stop offset=".85" stop-color="#003027"/><stop offset="1"/></radialGradient><radialGradient id="b" cx="713.38" cy="327.06" fx="763.425259" fy="251.806959" gradientUnits="userSpaceOnUse" r="352.82"><stop offset=".17" stop-color="#f2f2f2"/><stop offset=".3" stop-color="#c1ede0"/><stop offset=".42" stop-color="#98e8d0"/><stop offset=".54" stop-color="#78e5c4"/><stop offset=".66" stop-color="#61e2bc"/><stop offset=".77" stop-color="#54e1b7"/><stop offset=".87" stop-color="#4fe0b5"/></radialGradient><linearGradient id="c" gradientUnits="userSpaceOnUse" x1="210.09" x2="781.01" y1="407.71" y2="286.78"><stop offset=".12" stop-color="#34518c"/><stop offset=".37" stop-color="#34518f"/><stop offset=".56" stop-color="#365299"/><stop offset=".74" stop-color="#3852aa"/><stop offset=".91" stop-color="#3c53c2"/><stop offset="1" stop-color="#3e54d1"/></linearGradient><linearGradient id="d" gradientUnits="userSpaceOnUse" x1="274.8" x2="896.6" y1="768.25" y2="698.84"><stop offset="0" stop-color="#3e54d1"/><stop offset=".07" stop-color="#3d54c9"/><stop offset=".4" stop-color="#3852a8"/><stop offset=".67" stop-color="#355193"/><stop offset=".85" stop-color="#34518c"/></linearGradient><circle cx="332.88" cy="331.89" fill="#15cecb" r="199.32"/><path d="m346.74 584.53c-4.05-20.24-15.12-65 24.39-85.2 35.3-18 79.82.2 94.1 36.42 10.2 25.9 38.72 73.49 66.94 101.71 22.26 22.26 106.21 74.44 179.06 6.65 0 0-38.93 71.93-127.73 90.16-44.5 9.14-105.5 7.51-163.93-36.87-56.64-43.06-71.16-104.52-72.83-112.87z" fill="url(#a)" transform="translate(-208.63 -207.61)"/><path d="m736.47 493.71c4 20.24 15.11 65.05-24.39 85.2-35.31 18-79.83-.21-94.1-36.42-10.21-25.9-38.72-73.49-67-101.71-22.26-22.26-105.89-74.47-178.74-6.68 0 0 40.52-72.36 127.42-90.13 44.51-9.11 105.54-7.51 163.93 36.87 56.69 43.06 71.21 104.52 72.88 112.87z" fill="url(#b)" transform="translate(-208.63 -207.61)"/><path d="m208.63 512.18s70.82-140.64 164.92-130.52 129.51 44.52 209.45 44.52 111.3-27.32 67.79-46.54-68.8-6.08-92.07-19.23c-11-6.2-2.4-16.93 11.13-19.22a132.35 132.35 0 0 1 23.42-1.36 71.35 71.35 0 0 1 15.12 2c20.09 4.85 79.67 21.29 144.6 59.09 40 23.27 60.85 19.73 71.74 10.37 10.35-8.9 12.47-24.13 5.58-35.91-17.54-30-72.76-111.52-172.46-147.48-123.41-44.51-232.23-5.81-282 22.39s-150.02 104.05-167.22 261.89z" fill="url(#c)" transform="translate(-208.63 -207.61)"/><path d="m872.74 566.8s-70.82 140.64-164.92 130.52-129.51-44.52-209.44-44.52-111.3 27.32-67.79 46.54 68.8 6.08 92.07 19.23c11 6.2 2.4 16.93-11.13 19.22a132.35 132.35 0 0 1 -23.42 1.36 71.35 71.35 0 0 1 -15.12-2c-20.09-4.85-79.67-21.29-144.6-59.09-40-23.27-60.85-19.73-71.74-10.37-10.35 8.9-12.47 24.13-5.58 35.91 17.54 30 72.76 111.52 172.46 147.48 123.41 44.51 232.23 5.81 282-22.39s150.01-104.05 167.21-261.89z" fill="url(#d)" transform="translate(-208.63 -207.61)"/></svg>