<svg xmlns="http://www.w3.org/2000/svg" viewBox="0 0 457.08 457.08"><defs><style>.cls-1{font-size:216px;font-family:NeuropolXRg-Regular, Neuropol X;}.cls-1,.cls-2{fill:#3069b0;}</style></defs><g id="Calque_2" data-name="Calque 2"><g id="logo"><text class="cls-1" transform="translate(336.86 260.69) rotate(180)">G</text><text class="cls-1" transform="translate(282.4 327.87) rotate(-135)">G</text><text class="cls-1" transform="translate(196.39 336.86) rotate(-90)">G</text><text class="cls-1" transform="translate(129.21 282.4) rotate(-45)">G</text><text class="cls-1" transform="translate(120.22 196.39)">G</text><text class="cls-1" transform="translate(174.68 129.21) rotate(45)">G</text><text class="cls-1" transform="translate(260.69 120.22) rotate(90)">G</text><text class="cls-1" transform="translate(327.87 174.68) rotate(135)">G</text><path class="cls-2" d="M228.54,263.58a35,35,0,1,1,35-35A35.08,35.08,0,0,1,228.54,263.58Zm0-61.08a26,26,0,1,0,26,26A26.07,26.07,0,0,0,228.54,202.5Z" transform="translate(0 0)"/><path class="cls-2" d="M228.54,361.27c-73.18,0-132.72-59.54-132.72-132.73S155.36,95.82,228.54,95.82s132.73,59.54,132.73,132.72S301.73,361.27,228.54,361.27Zm0-256.45A123.73,123.73,0,1,0,352.27,228.54,123.86,123.86,0,0,0,228.54,104.82Z" transform="translate(0 0)"/></g></g></svg>