<svg width="800" height="800" viewBox="0 0 800 800" fill="none" xmlns="http://www.w3.org/2000/svg">
<g clip-path="url(#clip0_2_39)">
<rect width="800" height="800" fill="black"/>
<path fill-rule="evenodd" clip-rule="evenodd" d="M456.539 285.331C449.38 285.331 443.576 291.135 443.576 298.294V318.468H476.036V285.331H456.539ZM395.108 367.959H362.648V401.096H395.108V367.959ZM476.037 367.959H443.577V401.096H476.037V367.959ZM281.702 367.96H314.162V401.097H281.702V367.96ZM281.702 298.303C281.702 291.144 287.505 285.34 294.664 285.34H314.162V318.477H281.702V298.303ZM476.037 450.596H443.577V483.733H476.037V450.596ZM281.702 450.584H314.162V483.721H281.702V450.584ZM395.108 409.933H362.648V443.07H395.108V409.933ZM443.577 409.937H476.037V443.074H443.577V409.937ZM314.162 409.934H281.702V443.071H314.162V409.934ZM443.577 327.309H476.037V360.446H443.577V327.309ZM314.162 327.306H281.702V360.443H314.162V327.306ZM443.577 492.573H476.037V525.71H456.539C449.38 525.71 443.577 519.907 443.577 512.748V492.573ZM314.162 492.576H281.702V512.75C281.702 519.909 287.505 525.713 294.664 525.713H314.162V492.576ZM403.749 367.959H436.209V401.096H403.749V367.959ZM517.155 367.959H484.695V401.096H517.155V367.959ZM322.821 367.96H355.281V401.097H322.821V367.96ZM504.193 285.331H484.695V318.468H517.155V298.294C517.155 291.135 511.352 285.331 504.193 285.331ZM322.82 285.331H342.318C349.477 285.331 355.281 291.135 355.281 298.294V318.468H322.82V285.331ZM517.155 450.596H484.695V483.733H517.155V450.596ZM322.821 450.583H355.281V483.72H322.821V450.583ZM436.209 409.937H403.749V443.074H436.209V409.937ZM484.695 409.937H517.155V443.074H484.695V409.937ZM355.281 409.933H322.821V443.07H355.281V409.933ZM484.695 327.309H517.155V360.446H484.695V327.309ZM355.281 327.306H322.821V360.443H355.281V327.306ZM484.695 492.573H517.155V512.748C517.155 519.907 511.352 525.71 504.193 525.71H484.695V492.573ZM355.281 492.576H322.821V525.713H342.318C349.477 525.713 355.281 519.909 355.281 512.75V492.576Z" fill="url(#paint0_radial_2_39)"/>
<path fill-rule="evenodd" clip-rule="evenodd" d="M467.092 119.9C464.191 123.189 459.766 124.584 455.514 123.686C362.424 104.021 261.915 133.773 193.702 210.867C125.28 288.199 106.563 393.711 135.533 486.482C136.851 490.705 135.955 495.342 133.054 498.631V498.631C127.136 505.341 116.401 503.317 113.68 494.71C81.8139 393.894 101.994 279.026 176.411 194.919C250.602 111.069 360.044 78.8783 461.249 100.638C469.917 102.502 473.01 113.19 467.092 119.9V119.9ZM317.856 677.994C320.894 674.549 325.591 673.202 329.994 674.366C426.71 699.951 533.666 671.153 605.153 590.358C676.85 509.327 693.97 397.354 658.838 301.521C657.244 297.174 658.066 292.264 661.104 288.82V288.82C666.844 282.312 677.231 284.012 680.271 292.217C718.84 396.325 700.405 518.195 622.445 606.306C544.71 694.161 428.277 725.304 323.167 697.1C314.856 694.87 312.116 684.502 317.856 677.994V677.994Z" fill="url(#paint1_radial_2_39)"/>
</g>
<defs>
<radialGradient id="paint0_radial_2_39" cx="0" cy="0" r="1" gradientUnits="userSpaceOnUse" gradientTransform="translate(399.428 405.522) rotate(96.7181) scale(245.666 294.247)">
<stop stop-color="#CB34FF"/>
<stop offset="1" stop-color="#609FFF" stop-opacity="0.2"/>
</radialGradient>
<radialGradient id="paint1_radial_2_39" cx="0" cy="0" r="1" gradientUnits="userSpaceOnUse" gradientTransform="translate(399.565 400.458) rotate(48.8051) scale(620.767 677.011)">
<stop stop-color="#CB34FF"/>
<stop offset="1" stop-color="#609FFF" stop-opacity="0.2"/>
</radialGradient>
<clipPath id="clip0_2_39">
<rect width="800" height="800" fill="white"/>
</clipPath>
</defs>
</svg>
