<?xml version="1.0" encoding="UTF-8"?>
<svg width="150px" height="150px" viewBox="0 0 150 150" version="1.1" xmlns="http://www.w3.org/2000/svg" xmlns:xlink="http://www.w3.org/1999/xlink">
    <title>logo-coin</title>
    <defs>
        <linearGradient x1="-24.5801021%" y1="-24.2658799%" x2="108.549419%" y2="109.875843%" id="linearGradient-1">
            <stop stop-color="#88CAB9" offset="0%"></stop>
            <stop stop-color="#2E7A6E" offset="51.9176136%"></stop>
            <stop stop-color="#2B7368" offset="100%"></stop>
        </linearGradient>
    </defs>
    <g id="logo-coin" stroke="none" stroke-width="1" fill="none" fill-rule="evenodd">
        <g id="Group-8">
            <circle id="Oval" fill="url(#linearGradient-1)" fill-rule="nonzero" cx="75" cy="75" r="75"></circle>
            <g id="Group-2" transform="translate(32.142857, 32.773109)" fill="#FFFFFF">
                <path d="M64.8785792,37.7400247 L86.016433,3.62921058 C86.9106185,2.18583603 85.8713714,0.324813373 84.1760995,0.324813373 L56.6295551,0.324813373 C55.8609452,0.324813373 55.1486279,0.731641582 54.7610753,1.39381941 L47.9886482,12.9451438 C47.5924352,13.6181415 47.5924352,14.4534377 47.9864831,15.1285994 L61.1676009,37.6924172 C61.9903382,39.101168 64.0190352,39.1271358 64.8785792,37.7400247" id="Fill-8"></path>
                <path d="M57.509884,45.3851491 L57.509884,45.3851491 L40.9165714,16.9850777 L31.5785029,1.06900604 C31.1909503,0.406828209 30.478633,0 29.7100231,0 L2.16997403,0 C0.470371938,0 -0.566710099,1.86318664 0.329640556,3.30439721 L29.2012251,49.7780281 C29.4155698,50.1199369 29.5281549,50.5159453 29.5281549,50.9184455 L29.5281549,94.8948437 C29.5281549,96.0893606 30.4959538,97.0588235 31.6932531,97.0588235 L55.3447858,97.0588235 C56.53992,97.0588235 57.509884,96.0893606 57.509884,94.8948437 L57.509884,52.6604493 L57.509884,45.3851491 Z" id="Fill-10"></path>
            </g>
        </g>
    </g>
</svg>