<?xml version="1.0" encoding="utf-8"?>
<!-- Generator: Adobe Illustrator 22.1.0, SVG Export Plug-In . SVG Version: 6.00 Build 0)  -->
<svg version="1.1" id="Layer_1" xmlns="http://www.w3.org/2000/svg" xmlns:xlink="http://www.w3.org/1999/xlink" x="0px" y="0px"
	 viewBox="0 0 512 512" style="enable-background:new 0 0 512 512;" xml:space="preserve">
<g>
	<path d="M447,31H65.1C46.3,31,31,46.3,31,65.1v381.8c0,18.9,15.3,34.2,34.1,34.2h381.8c18.8,0,34.1-15.3,34.1-34.1V65.1
		C481,46.3,465.8,31,447,31z M269.7,391.7c-74.9,7.5-141.8-47.1-149.4-122h94.8v20.5c0,3.7,3,6.8,6.8,6.8h68.2c3.7,0,6.8-3,6.8-6.8
		v-68.2c0-3.7-3-6.8-6.8-6.8H222c-3.7,0-6.8,3-6.8,6.8v20.5h-94.8c7-69.7,65.7-122.7,135.7-122.7s128.7,53,135.7,122.7
		C399.3,317.3,344.6,384.2,269.7,391.7z"/>
</g>
</svg>
