<svg xmlns="http://www.w3.org/2000/svg" viewBox="0 0 128 128"><defs><style>.cls-1{fill:#7f66ff;}.cls-2{fill:#1f213d;}.cls-3{fill:#6764fb;fill-rule:evenodd;}</style></defs><g id="图层_2" data-name="图层 2"><g id="图层_3" data-name="图层 3"><path class="cls-1" d="M64,0a64,64,0,1,0,64,64A64,64,0,0,0,64,0Zm0,116.21A52.21,52.21,0,1,1,116.21,64,52.2,52.2,0,0,1,64,116.21Z"/><circle class="cls-2" cx="64" cy="64" r="52"/><path class="cls-3" d="M88.56,42a2.49,2.49,0,0,0-2.48-2.49H48.73a11.88,11.88,0,0,0-4.28.71,9,9,0,0,0-3.06,2,8.37,8.37,0,0,0-1.89,3,10.1,10.1,0,0,0-.61,3.49v5.51a5.18,5.18,0,0,0,5.19,5.18H73.66l-14.9-9.93H86.08A2.48,2.48,0,0,0,88.56,47ZM38.89,86.68a2.48,2.48,0,0,0,2.48,2.48H78.72A11.67,11.67,0,0,0,83,88.45a9.12,9.12,0,0,0,3.06-2,8.37,8.37,0,0,0,1.89-3A10.38,10.38,0,0,0,88.56,80V74.48a5.18,5.18,0,0,0-5.19-5.18H53.79l14.9,9.93H41.37a2.48,2.48,0,0,0-2.48,2.48Z"/></g></g></svg>