<svg width="117" height="34" viewBox="0 0 117 34" fill="none" xmlns="http://www.w3.org/2000/svg">
<path d="M39.7835 11.1164H42.7708V18.7402L50.5454 11.1164H54.3714L47.1151 18.1465L54.3714 25.8457H50.3946L44.9665 20.2292L42.7708 22.3495V25.8457H39.7835V11.1164ZM55.8415 11.1164H63.3333C64.4642 11.1164 65.4443 11.2358 66.2736 11.4745C67.1028 11.707 67.7908 12.0462 68.3373 12.4923C68.8839 12.9383 69.2891 13.4818 69.553 14.1226C69.8232 14.7634 69.9582 15.489 69.9582 16.2995C69.9582 16.846 69.8923 17.3675 69.7603 17.8638C69.6284 18.3538 69.4242 18.8062 69.1478 19.2208C68.8776 19.6355 68.5352 20.0061 68.1206 20.3328C67.706 20.6532 67.2191 20.9202 66.6599 21.1338L69.864 25.8457H66.2076L63.437 21.6616H63.3522L58.8288 21.6521V25.8457H55.8415V11.1164ZM63.4087 19.07C63.9742 19.07 64.4673 19.0041 64.8883 18.8721C65.3155 18.7402 65.6704 18.5549 65.9531 18.3162C66.2421 18.0774 66.4557 17.7884 66.594 17.4492C66.7385 17.1036 66.8107 16.7204 66.8107 16.2995C66.8107 15.4765 66.528 14.8419 65.9626 14.3959C65.3971 13.9435 64.5459 13.7174 63.4087 13.7174H58.8288V19.07H63.4087ZM73.1246 11.1164H76.1308V25.8457H73.1246V11.1164ZM80.6353 21.4637C81.1693 21.7652 81.7096 22.0385 82.2562 22.2835C82.809 22.5223 83.3807 22.7265 83.9713 22.8961C84.5619 23.0594 85.1807 23.1851 85.8278 23.273C86.4812 23.361 87.1754 23.405 87.9104 23.405C88.7962 23.405 89.5501 23.3484 90.1721 23.2353C90.7941 23.116 91.2998 22.9558 91.6893 22.7547C92.0851 22.5474 92.371 22.3024 92.5469 22.0197C92.7291 21.737 92.8202 21.4291 92.8202 21.0961C92.8202 20.5621 92.5971 20.1412 92.1511 19.8334C91.705 19.5192 91.0171 19.3622 90.0873 19.3622C89.6789 19.3622 89.2486 19.3905 88.7962 19.447C88.3439 19.4973 87.8853 19.5538 87.4204 19.6166C86.9618 19.6794 86.5063 19.7391 86.0539 19.7957C85.6079 19.8459 85.187 19.8711 84.7912 19.8711C84.1315 19.8711 83.497 19.7863 82.8876 19.6166C82.2845 19.447 81.7473 19.1926 81.2761 18.8533C80.8112 18.514 80.4405 18.09 80.1641 17.5811C79.8877 17.0722 79.7495 16.4785 79.7495 15.8C79.7495 15.3979 79.8029 14.999 79.9097 14.6032C80.0228 14.2074 80.1987 13.8305 80.4374 13.4724C80.6824 13.108 80.9965 12.7719 81.3798 12.464C81.763 12.1499 82.2248 11.8797 82.7651 11.6536C83.3116 11.4274 83.9399 11.2515 84.6498 11.1259C85.366 10.9939 86.1796 10.928 87.0906 10.928C87.7502 10.928 88.413 10.9656 89.079 11.041C89.7449 11.1101 90.392 11.2107 91.0202 11.3426C91.6548 11.4745 92.2642 11.6347 92.8484 11.8232C93.4327 12.0054 93.9761 12.2096 94.4787 12.4357L93.1689 14.8482C92.7542 14.666 92.3082 14.4995 91.8307 14.3488C91.3532 14.1917 90.8538 14.0566 90.3323 13.9435C89.8109 13.8305 89.2706 13.7425 88.7114 13.6797C88.1586 13.6106 87.5931 13.576 87.0152 13.576C86.1922 13.576 85.5136 13.6357 84.9796 13.7551C84.4519 13.8744 84.031 14.0284 83.7169 14.2168C83.4027 14.399 83.1828 14.6063 83.0572 14.8388C82.9378 15.065 82.8781 15.2911 82.8781 15.5173C82.8781 15.9571 83.076 16.3183 83.4718 16.601C83.8676 16.8775 84.4708 17.0157 85.2812 17.0157C85.6079 17.0157 85.9817 16.9937 86.4026 16.9497C86.8298 16.8995 87.2759 16.846 87.7408 16.7895C88.212 16.733 88.6894 16.6827 89.1732 16.6387C89.6632 16.5885 90.1376 16.5633 90.5962 16.5633C91.4632 16.5633 92.2296 16.6607 92.8956 16.8555C93.5678 17.0502 94.1301 17.3298 94.5824 17.6942C95.0347 18.0523 95.3771 18.4889 95.6096 19.0041C95.842 19.513 95.9583 20.0847 95.9583 20.7192C95.9583 21.5673 95.7604 22.3244 95.3646 22.9903C94.9751 23.65 94.4159 24.2091 93.6872 24.6677C92.9647 25.1201 92.0914 25.4656 91.0674 25.7043C90.0433 25.9368 88.903 26.053 87.6466 26.053C86.8173 26.053 86.0068 25.9996 85.2152 25.8928C84.4236 25.7923 83.6635 25.6478 82.9347 25.4593C82.2122 25.2646 81.5211 25.0353 80.8615 24.7714C80.2081 24.5013 79.6018 24.206 79.0427 23.8856L80.6353 21.4637ZM99.2377 11.1164H102.225V14.9613H111.385V11.1164H114.382V25.8457H111.385V17.5151H102.225V25.8457H99.2377V11.1164Z" fill="white"/>
<circle cx="17.1863" cy="16.6863" r="16.6863" fill="url(#paint0_radial_2424_5810)"/>
<path fill-rule="evenodd" clip-rule="evenodd" d="M0.503906 17C0.671165 26.0708 8.07652 33.3725 17.1873 33.3725C26.298 33.3725 33.7034 26.0708 33.8707 17H0.503906Z" fill="url(#paint1_linear_2424_5810)"/>
<path d="M15.7749 8.41565L22.9336 8.41565L17.4334 16.7633L24.4334 25.2634L17.4334 25.2634L10.9335 16.7634L15.7749 8.41565Z" fill="white"/>
<defs>
<radialGradient id="paint0_radial_2424_5810" cx="0" cy="0" r="1" gradientUnits="userSpaceOnUse" gradientTransform="translate(10.5 9) rotate(62.488) scale(27.0601)">
<stop stop-color="#0BCDCB"/>
<stop offset="1" stop-color="#8906F8"/>
</radialGradient>
<linearGradient id="paint1_linear_2424_5810" x1="0.5" y1="22" x2="31.5" y2="28" gradientUnits="userSpaceOnUse">
<stop stop-color="#0BCDCB"/>
<stop offset="1" stop-color="#8906F8"/>
</linearGradient>
</defs>
</svg>
