<svg xmlns="http://www.w3.org/2000/svg" viewBox="0 0 128 128"><defs><style>.cls-1{fill:#7f66ff;}.cls-2{fill:#1f213d;fill-rule:evenodd;}.cls-3{fill:#fff;}</style></defs><g id="图层_2" data-name="图层 2"><g id="图层_3" data-name="图层 3"><circle class="cls-1" cx="64" cy="64" r="64"/><path class="cls-2" d="M34.59,27.13H94.48a4,4,0,0,1,3.46,2l17.45,30.25a4,4,0,0,1-.65,4.82l-48,47.33a4,4,0,0,1-5.62,0l-48-47.27a4,4,0,0,1-.6-4.92L31.19,29A4,4,0,0,1,34.59,27.13Z"/><path class="cls-3" d="M69.69,55V49.12H86.75V40.64H41.3v8.48H58.36V55c-12,.63-21,3.21-21,6.31v6.45c.07,3.1,9.06,5.68,21,6.31V88.52H69.69V74.08c12-.63,21-3.21,21-6.31V61.32C90.66,58.22,81.67,55.64,69.69,55ZM64,69.64c-12.78,0-23.47-2.18-26.09-5.1,2.22-2.47,10.24-4.42,20.43-5v6.16c1.82.1,3.72.15,5.66.15s3.84-.05,5.67-.15V59.59c10.18.53,18.21,2.48,20.42,5C87.5,67.46,76.81,69.64,64,69.64Z"/></g></g></svg>