<svg width="100" height="100" viewBox="0 0 100 100" fill="none" xmlns="http://www.w3.org/2000/svg">
<circle cx="50" cy="50" r="48" fill="white" stroke="#E79062" stroke-width="4"/>
<path d="M82.6521 43.5856C82.5913 50.4418 79.8674 56.9962 75.0732 61.8226C70.279 66.6489 63.8023 69.3565 57.0526 69.3562H42.2871C40.5449 69.3562 38.8742 68.6532 37.6424 67.4019C36.4105 66.1505 35.7185 64.4533 35.7185 62.6836C35.7185 60.914 36.4105 59.2168 37.6424 57.9653C38.8742 56.714 40.5449 56.011 42.2871 56.011H57.0526C58.953 56.0156 60.8287 55.5738 62.5331 54.7201C64.6765 53.6527 66.4737 51.9831 67.7111 49.9094C68.9486 47.8357 69.5746 45.445 69.5148 43.0208C69.387 39.6918 67.9893 36.5439 65.6176 34.243C63.2458 31.9421 60.0859 30.6687 56.8064 30.6922H33.2642V17.3469H56.6476C70.8571 17.3469 82.7791 29.1511 82.6521 43.5856Z" fill="url(#paint0_linear)"/>
<path d="M69.5148 43.3354C69.5127 45.7037 68.8576 48.024 67.6236 50.0334C66.3897 52.0428 64.6262 53.6607 62.5331 54.7039C60.8287 55.5576 58.953 55.9995 57.0527 55.9949H42.2871C40.545 55.9949 38.8743 56.6979 37.6424 57.9492C36.4105 59.2006 35.7185 60.8978 35.7185 62.6675C35.7185 63.5437 35.8884 64.4114 36.2185 65.221C36.5486 66.0306 37.0325 66.7661 37.6424 67.3858C38.2524 68.0053 38.9765 68.4969 39.7734 68.8322C40.5704 69.1675 41.4245 69.3401 42.2871 69.3401H57.0527C63.8366 69.3401 70.3431 66.6047 75.1429 61.7349C79.9429 56.865 82.6437 50.259 82.6521 43.3677L69.5148 43.3354Z" fill="url(#paint1_linear)"/>
<path d="M80.5472 82.6531H64.8445L56.2663 69.3643L47.6643 56.011L33.2642 33.7017V17.3469H38.4349L47.0369 30.6922L62.5331 54.712L69.761 65.9191L80.5472 82.6531Z" fill="url(#paint2_linear)"/>
<path d="M24.5828 70.034C28.579 70.034 31.8186 66.7431 31.8186 62.6836C31.8186 58.6241 28.579 55.3333 24.5828 55.3333C20.5865 55.3333 17.3469 58.6241 17.3469 62.6836C17.3469 66.7431 20.5865 70.034 24.5828 70.034Z" fill="url(#paint3_linear)"/>
<defs>
<linearGradient id="paint0_linear" x1="74.3122" y1="68.267" x2="39.4945" y2="26.7592" gradientUnits="userSpaceOnUse">
<stop stop-color="#AE67F3"/>
<stop offset="0.51" stop-color="#F175CE"/>
<stop offset="0.57" stop-color="#F077C6"/>
<stop offset="1" stop-color="#E79062"/>
</linearGradient>
<linearGradient id="paint1_linear" x1="42.0727" y1="67.5973" x2="76.9057" y2="50.6922" gradientUnits="userSpaceOnUse">
<stop stop-color="white" stop-opacity="0"/>
<stop offset="0.54" stop-color="#231F20" stop-opacity="0.4"/>
<stop offset="1" stop-color="white" stop-opacity="0"/>
</linearGradient>
<linearGradient id="paint2_linear" x1="9871.96" y1="13787.1" x2="7094.84" y2="11352.5" gradientUnits="userSpaceOnUse">
<stop stop-color="#AE67F3"/>
<stop offset="0.51" stop-color="#F175CE"/>
<stop offset="0.57" stop-color="#F077C6"/>
<stop offset="1" stop-color="#E79062"/>
</linearGradient>
<linearGradient id="paint3_linear" x1="2727.6" y1="3283.17" x2="1861.05" y2="2814.82" gradientUnits="userSpaceOnUse">
<stop stop-color="#AE67F3"/>
<stop offset="0.51" stop-color="#F175CE"/>
<stop offset="0.57" stop-color="#F077C6"/>
<stop offset="1" stop-color="#E79062"/>
</linearGradient>
</defs>
</svg>
