<?xml version="1.0" encoding="utf-8"?>
<!-- Generator: Adobe Illustrator 22.1.0, SVG Export Plug-In . SVG Version: 6.00 Build 0)  -->
<svg version="1.1" xmlns="http://www.w3.org/2000/svg" xmlns:xlink="http://www.w3.org/1999/xlink" x="0px" y="0px"
	 viewBox="0 0 792 612" style="enable-background:new 0 0 792 612;" xml:space="preserve">
<style type="text/css">
	.st0{fill:#FFA1D7;}
	.st1{fill:none;stroke:#231F20;stroke-miterlimit:10;}
	.st2{fill:none;stroke:#000000;stroke-miterlimit:10;}
	.st3{fill:#5D5D5D;}
	.st4{fill:none;stroke:#231F20;stroke-linecap:round;stroke-miterlimit:10;}
	.st5{fill:none;stroke:#000000;stroke-linecap:round;stroke-miterlimit:10;}
	.st6{fill:url(#SVGID_1_);}
	.st7{fill:url(#SVGID_2_);}
	.st8{fill:url(#SVGID_3_);}
	.st9{fill:url(#SVGID_4_);}
	.st10{fill:url(#SVGID_5_);}
	.st11{fill:url(#SVGID_6_);}
	.st12{fill:#FFFFFF;}
	.st13{fill:url(#SVGID_7_);}
	.st14{fill:url(#SVGID_8_);}
	.st15{fill:url(#SVGID_9_);}
	.st16{fill:url(#SVGID_10_);}
	.st17{fill:url(#SVGID_11_);}
	.st18{fill:url(#SVGID_12_);}
	.st19{fill:url(#SVGID_13_);}
	.st20{fill:url(#SVGID_14_);}
	.st21{fill:url(#SVGID_15_);}
	.st22{fill:url(#SVGID_16_);}
	.st23{fill:url(#SVGID_17_);}
	.st24{fill:url(#SVGID_18_);}
	.st25{fill:url(#SVGID_19_);}
	.st26{fill:url(#SVGID_20_);}
	.st27{fill:url(#SVGID_21_);}
	.st28{fill:url(#SVGID_22_);}
	.st29{fill:url(#SVGID_23_);}
	.st30{fill:url(#SVGID_24_);}
	.st31{fill:#22C1C3;}
	.st32{fill:url(#SVGID_25_);}
</style>
<g id="sketch">
</g>
<g id="line1">
	<g>
		<linearGradient id="SVGID_1_" gradientUnits="userSpaceOnUse" x1="119.1267" y1="290.1287" x2="609.9925" y2="290.1287">
			<stop  offset="0" style="stop-color:#FDBB2D"/>
			<stop  offset="0.1865" style="stop-color:#FABB2F"/>
			<stop  offset="0.3266" style="stop-color:#F0BB36"/>
			<stop  offset="0.4516" style="stop-color:#E0BC41"/>
			<stop  offset="0.5678" style="stop-color:#C9BC50"/>
			<stop  offset="0.6779" style="stop-color:#ACBD65"/>
			<stop  offset="0.7835" style="stop-color:#88BE7D"/>
			<stop  offset="0.8853" style="stop-color:#5DBF9B"/>
			<stop  offset="0.982" style="stop-color:#2CC1BC"/>
			<stop  offset="1" style="stop-color:#22C1C3"/>
		</linearGradient>
		<path class="st6" d="M609.2,282.5c-0.4-4.6-0.9-9.3-1.5-14c-1.3-9.3-3.1-18.6-5.4-27.8c-2.5-9.8-5.7-19.6-9.4-29
			c-0.5-1.2-0.9-2.3-1.4-3.5c-2.1-5-4.3-10-6.7-14.9c-13.3-27-31.4-51.1-53.7-71.7c-12.6-11.6-26.5-22-41.3-30.8
			c-14.6-8.7-30.1-15.8-46-21.2c-2-0.7-4-1.4-6.1-2c-1.9-0.6-3.8-1.2-5.6-1.7c-3.3-1-6.8-1.9-10.4-2.7c-0.2-0.1-0.5-0.1-0.7-0.2
			c-2.5-0.6-5.1-1.2-8.1-1.8c-5.5-1.1-11.2-2-17-2.8c-12.7-1.6-25.6-2.2-38.4-1.8c-1.4,0-2.7,0.1-4.1,0.2c-2.9,0.1-5.5,0.3-8.2,0.5
			c-47.3,3.7-92.1,20.9-129.6,49.6c-36.5,27.9-64.4,65.4-80.7,108.3c-12.8,33.9-17.9,69.6-15,106c0.4,5.2,1,10.5,1.7,15.6
			c4.6,32.2,15.4,62.7,32,90.6c11.4,19.1,25.4,36.6,41.6,52c0,0,0,0,0,0c0,0,0.1,0,0.1,0.1c0,0,0.1,0,0.1,0c0,0,0,0,0,0
			c0,0,0.1,0,0.1,0c0,0,0,0,0,0c0.1,0,0.2,0,0.3-0.1c0,0,0,0,0,0c0,0,0,0,0,0c0.1-0.1,0.1-0.1,0.1-0.2c0,0,0,0,0,0
			c0.1-0.2,0.1-0.3,0.2-0.5l0.1-0.1c0,0,0,0,0,0c0,0,0,0,0,0c0-0.1,0.1-0.2,0.1-0.4c0.8-2,3.8-9,9.4-16.5c0.2-0.3,0.4-0.5,0.6-0.8
			c6.5-8.5,17.7-19,33.6-20.2c0.1,0,0.1,0,0.2-0.1c4.1-0.1,8.2-0.3,12.2-0.7c31.5-2.5,61.7-10.8,89.8-24.8c8.5-4.2,16.9-9,24.8-14.2
			c0,0,0,0,0,0c0,0,0,0,0.1-0.1c0,0,0,0,0.1-0.1c0,0,0-0.1,0-0.1c0,0,0-0.1,0-0.1c0,0,0,0,0,0c0.1-3.6,0.1-7.3-0.2-11
			c-0.4-5.3-1.7-9.8-3-14.9c-1.5-6.2-3.8-12.3-6.5-18.1c-3.2-6.6-10-11.7-15.1-17.1c-9.7-10.3-1.6-8.3-3.4-10
			c0.5,0.4,1.6,1.9,2.1,2.3l0,0l0,0c0,0,0,0,0,0c1.4,1.3,3,2.5,4.6,3.9c5.6,4.5,11.6,8.7,17.8,12.4c12.4,7.4,25.7,12.9,39.6,16.5
			c1.9,0.5,3.7,0.9,5.4,1.3l1.4,0.3c0.6,0.1,1.2,0.3,1.8,0.4l0.6,0.1c0,0,0.1,0,0.1,0c0.1,0,0.1,0,0.2,0c0.2-0.1,0.3-0.2,0.3-0.4
			c0,0,0,0,0,0l0,0c0,0,0-0.1,0-0.2c0.1-1,0.3-2.1,0.3-3.3c0-0.4,0.1-0.8,0.1-1.2c0-0.9,0.1-1.9,0.1-2.8c0-1.4,0-2.8-0.1-4.2
			c0-0.2,0-0.4,0-0.6c-1.2-14.9-7.9-28.6-19-38.6c-0.4-0.3-0.7-0.7-1.1-1c0,0,0,0,0,0c0,0,0,0,0,0c-0.8-0.8-1.5-1.6-2.2-2.4
			c-0.5-0.6-1-1.2-1.6-1.7c-0.9-1-1.8-2-2.7-3c-1.8-2-3.7-4.2-5.5-6.5c-6.5-8.1-12.1-16.9-16.8-26.1c-1.7-3.3-3.3-6.7-4.7-10.2
			c-6-14.5-9.7-30-11-45.8c-0.2-1.9-0.3-3.8-0.3-5.7c1.1-0.9,2.2-1.8,3.4-2.6c1.8-1.1,3.7-2.1,5.5-2.9c0,0,0,0,0,0c0,0,0,0,0,0
			c0,0,0,0,0.1,0c0,0,0.1,0,0.2-0.1c0,0,0,0,0,0c0,0,0,0,0,0c1.8-0.8,3.8-1.6,5.8-2.2c4.3-1.4,8.8-2.3,13.4-2.7
			c1.2-0.1,2.4-0.1,3.5-0.2c0.5,1.3,1.1,2.7,1.7,4l0.2,0.4c0.8,1.8,1.7,3.7,2.7,5.8c5.7,11.4,12.9,22.1,21.3,31.8
			c9.2,10.6,19.8,19.8,31.5,27.5c7.5,4.9,15.6,9.2,23.9,12.8c2.3,1,4.6,1.9,6.9,2.7c-6.5,6.2-12.6,13.1-17.9,20.4
			c-0.3,0.4-0.6,0.9-0.9,1.3c-2.3,3.1-4.4,6.4-6.3,9.6l-0.1,0.1c-0.1,0.1-0.1,0.2-0.1,0.2c-0.6,1-1.2,2.1-2,3.4
			c-1.9,3.3-3.7,6.8-5.3,10.2c-1.5,3.2-2.9,6.4-4.2,9.7c-0.8,2.1-1.6,4.3-2.3,6.4c-1.6,4.7-3,9.5-4,14.2c-0.1,0.5-0.2,1.1-0.4,1.6
			l-0.4,1.6c-0.1,0.7-0.3,1.3-0.4,2c-2.6,13.4-3.4,27.2-2.3,41c0.2,2.5,0.5,5.2,0.8,7.8c0,0,0,0.1,0,0.1c0,0,0,0.1,0,0.1
			c0,0,0,0.1,0.1,0.1c0,0,0,0,0,0.1c0,0,0.1,0,0.1,0.1c0,0,0,0,0.1,0c0.1,0,0.1,0,0.2,0c0,0,0,0,0,0c0,0,0,0,0,0c0,0,0,0,0,0
			c0.7,0,1.5-0.1,2.2-0.1c17.2-1.4,32.8-10.2,42.8-24.2c0.1-0.1,0.1-0.3,0.4-0.9c0-0.1,0-0.2,0-0.2c0-0.1,0.1-0.1,0.1-0.2
			c0.3-1.2,0.7-2.5,1-3.7l0-0.1c2.3-7.9,5.2-15.7,8.7-23.1l0.5-1.1c0.5-1.1,1.1-2.3,1.8-3.7c0.5-0.9,1-1.8,1.5-2.8
			c0.3-0.6,0.7-1.2,1-1.8c2-3.6,4.2-7.1,6.5-10.6c4.9-7.3,10.5-14.1,16.5-20.4c4.9-5.1,10.2-9.8,15.7-14.2c3.8-2.3,7.5-5,11-7.8
			c2-1.7,3.9-3.4,5.7-5.1c0.9-0.9,1.6-1.6,2.2-2.3c8.1-8.4,14.4-18.1,18.9-28.7c0.3,2.4,0.6,4.9,0.9,7.6c0.2,2.2,0.4,4.4,0.6,6.6
			c0.2,2.2,0.3,4.5,0.4,6.7c0,1,0.1,2,0.1,2.9l0,0.6c0,0.4,0,0.8,0,1.2c0.1,3.4,0.2,6.9,0.1,10.4c0,2-0.1,3.9-0.1,5.9
			c-0.3,10.3-1.4,20.7-3,30.9c-0.4,2.2-0.8,4.4-1.2,6.7c-3.1,15.9-7.5,31.1-13.1,44.9l-0.3,0.7c-0.3,0.8-0.6,1.6-1,2.4
			c-0.1,0.1-0.1,0.2-0.2,0.4l-0.5,1c-2.4,4.9-8.7,17.9-15.9,30.9c-0.3,0.6-0.7,1.2-1,1.8l-0.5,0.8c-4.6,8.1-8.7,14.7-12.4,19.8
			c-2.9,4-5.4,7-7.7,9c-0.3,0.3-0.6,0.5-0.9,0.8l0.1,0.1c-2.4,2.2-4.6,4.6-6.5,7.1c-8.6,8-15.5,17.5-20.5,28.1
			c-2.4,5.1-4.4,10.5-5.8,15.8c-1.2,4.5-2.1,9.3-2.7,14.1l0,0c0,0.1,0,0.2,0,0.3c0.1,0.2,0.3,0.3,0.4,0.3c0.1,0,0.1,0,0.2,0
			c4-1.9,8.1-4,12.2-6.2c2.1-1.1,3.9-2.1,5.5-3.1c0.2-0.1,0.3-0.2,0.5-0.3l0.2-0.1c0.4-0.2,0.8-0.5,1.2-0.7
			c29.1-17.1,53.9-39.7,73.9-67c1.4-1.9,2.8-3.9,4.1-5.8c4.4-6.5,8.6-13.3,12.5-20.2c18.7-33.7,29.2-71.9,30.4-110.4
			C610.2,300.8,609.9,291.6,609.2,282.5z"/>
		<linearGradient id="SVGID_2_" gradientUnits="userSpaceOnUse" x1="584.14" y1="165.3129" x2="585.0843" y2="165.3129">
			<stop  offset="0" style="stop-color:#FFFFFF"/>
			<stop  offset="1" style="stop-color:#000000"/>
		</linearGradient>
		<path class="st7" d="M585,165.1l-0.9,0.5l0.9-0.3C585.1,165.2,585,165.1,585,165.1z"/>
	</g>
	<g>
		<g>
			<linearGradient id="SVGID_3_" gradientUnits="userSpaceOnUse" x1="117.3219" y1="250.8471" x2="417.8005" y2="250.8471">
				<stop  offset="0" style="stop-color:#22C1C3"/>
				<stop  offset="6.034249e-02" style="stop-color:#4DC0A6"/>
				<stop  offset="0.1296" style="stop-color:#76BF8A"/>
				<stop  offset="0.2052" style="stop-color:#9ABE71"/>
				<stop  offset="0.2862" style="stop-color:#B9BD5C"/>
				<stop  offset="0.3744" style="stop-color:#D2BC4A"/>
				<stop  offset="0.4727" style="stop-color:#E5BC3D"/>
				<stop  offset="0.5866" style="stop-color:#F3BB34"/>
				<stop  offset="0.7302" style="stop-color:#FBBB2F"/>
				<stop  offset="1" style="stop-color:#FDBB2D"/>
			</linearGradient>
			<path class="st8" d="M346.1,340.2c4.9,5.1,9.7,13.1,12.8,19.5c2.9,5.9,4.3,12.6,5.9,18.8c1.3,5.1,2,10.5,2.4,15.8
				c0.3,3.6,0.4,7.2,0.2,10.8c-8,5.2-16.3,10-24.9,14.2c-28.4,14.1-59,22.5-90.8,25.1c-21.8,1.7-43.7,0.6-65-3.3
				c-11.7-2.2-23.3-5.2-34.5-9c-16.8-28.2-27.7-59-32.3-91.6c-0.7-5.2-1.3-10.5-1.8-15.8c-2.9-36.9,2.2-73,15.2-107.3
				c16.4-43.4,44.7-81.3,81.6-109.6c37.9-29,83.3-46.4,131.1-50.2c2.7-0.2,5.4-0.4,8.3-0.5c1.4-0.1,2.7-0.1,4.1-0.2
				c12.9-0.4,26,0.2,38.8,1.9c5.8,0.7,11.6,1.7,17.2,2.8c1.2,0.2,2.3,0.5,3.3,0.7c-4.6-0.1-9.2-0.1-13.8,0.2
				c-1.1,0.1-2.2,0.1-3.3,0.2c-2.4,0.2-4.8,0.4-7.1,0.7c-0.7,0.1-1.4,0.2-2.1,0.3c-0.6,0.1-1.2,0.2-1.9,0.3
				c-36,5.5-69.1,23.6-93.1,51.2c-24,27.5-37.4,62.7-38,99c-0.1,4.8,0.1,9.7,0.5,14.5c2.3,28.9,12.7,56.5,30.1,79.8l0.1,0.1l0.2,0
				c0.3,0.1,0.6,0.1,0.8,0.2c0.2,0,0.3,0.1,0.4,0.1c0,0,0.1,0,0.1,0c9.4,1.8,19.1,5,27.6,9.6c6.8,3.7,12.8,9.1,18.3,13.4
				C340.2,334.5,342.9,336.9,346.1,340.2z"/>
		</g>
	</g>
	<g>
		<g>
			<linearGradient id="SVGID_4_" gradientUnits="userSpaceOnUse" x1="186.6972" y1="453.7014" x2="235.578" y2="453.7014">
				<stop  offset="0" style="stop-color:#FDBB2D"/>
				<stop  offset="6.488162e-02" style="stop-color:#E1BC40"/>
				<stop  offset="0.1933" style="stop-color:#AFBD63"/>
				<stop  offset="0.3246" style="stop-color:#83BE80"/>
				<stop  offset="0.4566" style="stop-color:#60BF98"/>
				<stop  offset="0.5894" style="stop-color:#45C0AB"/>
				<stop  offset="0.7233" style="stop-color:#31C1B8"/>
				<stop  offset="0.8592" style="stop-color:#26C1C0"/>
				<stop  offset="1" style="stop-color:#22C1C3"/>
			</linearGradient>
			<path class="st9" d="M186.7,440.6c4.6,9.7,10.6,18.5,17.9,26.2c0.1-0.1,0.2-0.3,0.3-0.4c6.3-8.3,16.5-18.1,30.7-21.5
				c-0.3,0-0.5,0-0.8,0C218.6,444.9,202.5,443.4,186.7,440.6z"/>
			<linearGradient id="SVGID_5_" gradientUnits="userSpaceOnUse" x1="152.014" y1="458.1643" x2="204.4093" y2="458.1643">
				<stop  offset="0" style="stop-color:#22C1C3"/>
				<stop  offset="8.664620e-02" style="stop-color:#37C0B5"/>
				<stop  offset="0.5397" style="stop-color:#A1BE6C"/>
				<stop  offset="0.8534" style="stop-color:#E3BC3F"/>
				<stop  offset="1" style="stop-color:#FDBB2D"/>
			</linearGradient>
			<path class="st10" d="M152,431.7c11.7,19.4,26,37.3,42.4,53c0-0.1,0.1-0.3,0.1-0.4c0,0,0,0,0,0c2.3-6.3,5.6-12.2,9.8-17.4
				c-7.3-7.7-13.3-16.6-17.7-26.2C174.9,438.5,163.3,435.5,152,431.7z"/>
			<linearGradient id="SVGID_6_" gradientUnits="userSpaceOnUse" x1="258.4174" y1="184.5854" x2="417.0636" y2="184.5854">
				<stop  offset="0" style="stop-color:#FDBB2D"/>
				<stop  offset="5.771714e-02" style="stop-color:#E4BC3E"/>
				<stop  offset="0.1891" style="stop-color:#B1BD61"/>
				<stop  offset="0.3232" style="stop-color:#85BE7F"/>
				<stop  offset="0.4574" style="stop-color:#61BF98"/>
				<stop  offset="0.5919" style="stop-color:#46C0AB"/>
				<stop  offset="0.7268" style="stop-color:#32C1B8"/>
				<stop  offset="0.8624" style="stop-color:#26C1C0"/>
				<stop  offset="1" style="stop-color:#22C1C3"/>
			</linearGradient>
			<path class="st11" d="M287.3,227.8c1.2,15.2,4.6,30,10,44.1c0,0,0,0.1,0.1,0.2l0.1,0.2c-1.1,1.2-2.2,2.4-3.2,3.7
				c-1.2,1.6-2.2,3.3-3.1,4.9c-3.2,6.2-4.6,13.1-4.1,20.1c0.2,2,0.4,4.2,0.9,6.3c-16.8-23.1-26.9-50.2-29.1-78.6
				c-0.4-4.8-0.5-9.7-0.5-14.6c0.5-36.4,14-71.6,38-99.2c24-27.6,57.2-45.8,93.3-51.3c0.6-0.1,1.2-0.2,1.9-0.3
				c0.7-0.1,1.4-0.2,2.1-0.3c2.3-0.3,4.6-0.5,7.1-0.7c1.1-0.1,2.2-0.2,3.3-0.2c4.3-0.3,8.7-0.3,13-0.2c-5.5,0.9-10.9,2.1-16.3,3.6
				c-0.5,0.1-0.9,0.3-1.4,0.4c-3.3,0.9-6.7,2-10.1,3.3C323.8,92.9,281.8,158.1,287.3,227.8z"/>
		</g>
	</g>
</g>
<g id="Layer_3">
	<path class="st12" d="M296.9,271.4c0,0,45.3,62.1,44.6,61.3l8.8,10.2c0,0-22.1-18.9-32.8-25c0,0-22.2-10.5-29.1-10.5
		C288.3,307.4,279.3,288.7,296.9,271.4z"/>
	<path class="st12" d="M288.3,307.4c0,0,0.5,1.1,1,1.1c0,0,14.3,3.2,17.9,4.8l-3.3-6.4L288.3,307.4z"/>
	<path class="st12" d="M347.3,337.9c1.7,0.6-5.6-2.9-5.6-2.9"/>
</g>
</svg>
