<svg width="100" height="100" viewBox="0 0 100 100" fill="none" xmlns="http://www.w3.org/2000/svg">
<g clip-path="url(#clip0)">
<path d="M100 50C100 77.6142 77.6142 100 50 100C22.3858 100 0 77.6142 0 50C0 22.3858 22.3858 0 50 0C77.6142 0 100 22.3858 100 50Z" fill="#0546C3"/>
<path d="M39.9932 26.9143C54.0912 30.5793 54.1734 40.0373 57.1374 43.6926C58.402 45.252 61.1053 45.4674 62.9999 48.4999C64.8945 51.5324 59.6 52.7297 60.0383 54.8796C61.907 64.0445 60.5724 69.553 57.984 74.4601C57.7599 74.8849 57.8597 75.4085 58.2082 75.7389C63.6483 80.8963 61.8808 88.1486 61.0831 90.343C60.9589 90.6845 60.4691 90.691 60.2397 90.3781C59.0409 88.7431 57.5407 87.6841 56.1514 86.7034C54.1052 85.259 52.2996 83.9843 52.0518 81.2894C49.8331 82.8206 47.5458 82.1807 44.9967 81.4676L44.994 81.4669C43.2456 80.9779 41.3743 80.4544 39.3175 80.5732C38.93 80.5957 38.621 80.2149 38.8034 79.9007C40.0361 77.7794 43.5662 72.6541 50.4115 73.2554C50.8229 73.2915 51.2338 73.0979 51.388 72.7147C52.5955 69.7148 50.7941 66.2605 46.5 64.5C14.1 54.0999 12.4999 48.5 12.9999 46C13.4999 43.5 16.2263 43.9855 15.9093 40.5C15 30.5 25.2643 23.0854 39.9932 26.9143Z" fill="#FA98D2"/>
<path d="M40.5598 54.6228C34.2408 55.4499 19.6122 60.0687 23.7811 63.4507C30.4095 68.8281 35.6062 58.8473 40.5598 54.6228Z" fill="#FA98D2"/>
<path d="M26.8143 45.7612C26.1133 46.3675 25.3292 46.4867 24.4657 45.8167C23.5877 45.1356 23.5357 43.6814 24.3907 42.9418C25.0917 42.3355 26.0219 42.325 26.7394 42.8863C27.6146 43.571 27.6694 45.0216 26.8143 45.7612Z" fill="white"/>
<path d="M56.7495 32.2208C56.6457 32.5901 56.2701 33.0401 55.2977 33.4288C54.3422 33.8106 52.98 34.0582 51.2707 34.126C47.8637 34.2612 43.3093 33.6742 38.4346 32.3042C33.56 30.9343 29.3665 29.0629 26.5287 27.1727C25.105 26.2244 24.0712 25.3034 23.4545 24.4798C22.8269 23.6415 22.7407 23.0617 22.8445 22.6923C22.9482 22.323 23.3239 21.873 24.2963 21.4844C25.2518 21.1026 26.6139 20.8549 28.3233 20.7871C31.7303 20.652 36.2847 21.239 41.1593 22.6089C46.034 23.9789 50.2274 25.8503 53.0653 27.7404C54.489 28.6888 55.5228 29.6097 56.1395 30.4334C56.7671 31.2717 56.8533 31.8515 56.7495 32.2208Z" stroke="white" stroke-width="2"/>
<path d="M77.9901 44.4552C86.7346 44.4777 89.0272 40.431 87.1018 39.8463C82.391 38.4156 75.9391 37.9265 70.8211 38.4362C63.3691 39.1784 63.4728 45.1452 66.8156 47.3845C72.0699 50.9043 75.7137 51.5343 75.9147 49.8528C76.0185 48.9849 75.1012 48.218 74.0524 47.4486C73.9108 47.3447 74.0353 47.1213 74.2006 47.1805C79.9573 49.2427 81.1255 47.6291 80.9279 46.8705C80.7737 46.2788 79.4845 45.4428 77.9186 44.8241C77.7541 44.7591 77.8133 44.4547 77.9901 44.4552Z" fill="white"/>
<path d="M70.7103 25.5451C76.2472 18.7863 74.9525 14.9075 73.2897 16.0406C69.2213 18.813 64.7944 23.532 61.9821 27.8384C57.8873 34.1087 62.6002 37.7695 66.4408 36.5697C72.4773 34.684 75.253 32.2407 74.0693 31.0297C73.4583 30.4046 72.2857 30.6383 71.0287 30.9728C70.859 31.0179 70.763 30.7808 70.9128 30.6892C76.1291 27.4981 75.6046 25.5762 74.8898 25.2546C74.3306 25.0029 72.5624 25.1675 70.9801 25.883C70.8189 25.9559 70.5983 25.682 70.7103 25.5451Z" fill="white"/>
<path d="M17.3606 46.9592C17.0619 46.76 16.6583 46.8408 16.4592 47.1394C16.26 47.4381 16.3408 47.8417 16.6394 48.0408L17.3606 46.9592ZM22.6166 48.2055C22.7302 47.865 22.5461 47.4969 22.2055 47.3834C21.865 47.2698 21.4969 47.4539 21.3834 47.7945L22.6166 48.2055ZM16.6394 48.0408C17.4528 48.583 18.6586 49.1208 19.7552 49.3264C20.3003 49.4286 20.8793 49.4607 21.3887 49.3227C21.928 49.1766 22.409 48.8285 22.6166 48.2055L21.3834 47.7945C21.341 47.9215 21.2595 48.0109 21.0488 48.0679C20.8082 48.1331 20.4497 48.1339 19.9948 48.0486C19.0914 47.8792 18.0472 47.417 17.3606 46.9592L16.6394 48.0408Z" fill="white"/>
</g>
<defs>
<clipPath id="clip0">
<rect width="100" height="100" fill="white"/>
</clipPath>
</defs>
</svg>
