<!-- by TradingView --><svg width="18" height="18" xmlns="http://www.w3.org/2000/svg"><path fill="#059BD8" d="M0 0h18v18H0z"/><path d="M7.18 5.083c0 .35-.006.7 0 1.05.016.714.031 1.432.056 2.147.01.311.034.625.055.936.013.165.031.326.05.488.012.114.024.227.049.341.03.15.067.296.107.443.022.078.05.09.133.072.006 0 .012-.004.018-.004.308-.008.616-.02.92-.023.148 0 .299.008.443.027.191.02.379.053.57.083.215.033.427.069.64.108.123.024.245.057.365.087a10.15 10.15 0 01.767.218 5.6 5.6 0 01.375.138c.108.044.215.098.32.146.2.093.385.207.56.338.12.093.23.198.301.33.08.149.105.316.084.484a1.351 1.351 0 01-.213.565c-.12.18-.267.335-.434.473-.258.215-.55.386-.855.526-.215.099-.443.18-.668.263-.129.048-.258.09-.39.129-.136.039-.271.072-.406.105-.133.033-.265.068-.397.095-.108.024-.216.036-.327.057-.126.024-.249.051-.378.069-.185.027-.37.054-.554.075-.221.027-.446.054-.67.078-.111.011-.219.018-.33.024-.249.014-.501.032-.75.047-.093.006-.093 0-.099-.09-.015-.254-.034-.505-.05-.76l-.045-.651-.065-.81c-.015-.177-.025-.357-.04-.533-.025-.275-.052-.548-.08-.823a16.82 16.82 0 00-.04-.392c-.021-.176-.046-.35-.068-.526-.021-.174-.033-.35-.055-.524-.018-.161-.046-.326-.068-.487-.027-.2-.055-.398-.086-.598-.028-.17-.061-.341-.089-.512-.022-.131-.037-.263-.055-.392-.022-.14-.05-.28-.074-.421-.034-.204-.071-.404-.105-.608-.025-.152-.05-.302-.077-.454-.043-.216-.089-.431-.132-.65-.025-.131-.046-.263-.07-.391-.025-.129-.056-.257-.084-.389l-.061-.308-.084-.4c-.03-.147-.064-.294-.092-.444-.012-.056.03-.074.074-.09l.495-.179c.154-.057.308-.11.462-.164.117-.042.237-.087.354-.132l.467-.167c.065-.024.127-.048.191-.07a.534.534 0 01.099-.03c.058-.011.073.004.07.06-.006.168-.009.336-.015.506-.003.129-.003.254-.003.383v1.122c-.01.009-.012.009-.015.009zm1.44 6.739c-.104-.003-.12.015-.11.09.009.062.021.125.03.19.013.073.019.147.031.22l.065.391c.024.165.046.332.068.5.027.188.058.377.086.568.009.054.052.072.098.042.016-.01.028-.024.043-.033l.652-.467c.167-.12.333-.242.502-.362.15-.107.301-.209.452-.32.062-.045.056-.069-.009-.098l-.083-.036-.486-.198c-.185-.077-.37-.158-.557-.23-.182-.069-.37-.132-.554-.192-.083-.035-.17-.05-.228-.065z" fill="#fff"/></svg>