<svg xmlns="http://www.w3.org/2000/svg" xmlns:xlink="http://www.w3.org/1999/xlink" width="256" height="256" viewBox="0 0 256 256"><defs><linearGradient id="a" x1="0.843" y1="0.135" x2="0.206" y2="0.886" gradientUnits="objectBoundingBox"><stop offset="0" stop-color="#b6509e"/><stop offset="1" stop-color="#2ebac6"/></linearGradient><clipPath id="c"><rect width="256" height="256"/></clipPath></defs><g id="b" clip-path="url(#c)"><g transform="translate(-20 -20)"><path d="M128,256a128.976,128.976,0,0,1-25.8-2.6,127.309,127.309,0,0,1-45.77-19.261,128.366,128.366,0,0,1-46.375-56.315A127.357,127.357,0,0,1,2.6,153.8a129.251,129.251,0,0,1,0-51.593,127.31,127.31,0,0,1,19.26-45.77A128.372,128.372,0,0,1,78.177,10.059,127.33,127.33,0,0,1,102.2,2.6a129.244,129.244,0,0,1,51.593,0,127.308,127.308,0,0,1,45.77,19.26,128.367,128.367,0,0,1,46.375,56.316A127.343,127.343,0,0,1,253.4,102.2a129.248,129.248,0,0,1,0,51.593,127.3,127.3,0,0,1-19.26,45.77,128.382,128.382,0,0,1-56.316,46.375A127.4,127.4,0,0,1,153.8,253.4,128.977,128.977,0,0,1,128,256Zm0-242.287a115.145,115.145,0,0,0-23.033,2.322A113.657,113.657,0,0,0,64.1,33.232,114.622,114.622,0,0,0,22.7,83.515a113.7,113.7,0,0,0-6.659,21.452,115.4,115.4,0,0,0,0,46.065,113.66,113.66,0,0,0,17.2,40.866,114.627,114.627,0,0,0,50.282,41.407,113.75,113.75,0,0,0,21.453,6.658,115.381,115.381,0,0,0,46.065,0,113.609,113.609,0,0,0,40.866-17.2A114.622,114.622,0,0,0,233.3,172.485a113.741,113.741,0,0,0,6.659-21.453,115.4,115.4,0,0,0,0-46.065,113.662,113.662,0,0,0-17.2-40.865A114.619,114.619,0,0,0,172.485,22.7a113.74,113.74,0,0,0-21.453-6.659A115.145,115.145,0,0,0,128,13.714Z" transform="translate(20 20)" fill="url(#a)"/><path d="M590.4,433.373,514.555,297.34a7.512,7.512,0,0,0-13.221,0L425.518,433.373a7.526,7.526,0,0,0,2.7,10.148l75.932,45.4a7.973,7.973,0,0,0,7.886,0l75.816-45.316a7.689,7.689,0,0,0,2.551-10.234m-57.319-54.825-1.856-1.566-.116-.116a18.466,18.466,0,0,0-1.855-1.334l-.116-.116c-.609-.406-1.247-.841-1.972-1.247-.116,0-.116-.116-.2-.116a18.354,18.354,0,0,0-1.971-1.044c-.116,0-.116-.116-.2-.116-.609-.319-1.334-.609-2.059-.928-.116,0-.116-.116-.2-.116-.609-.2-1.247-.522-1.855-.725a31.691,31.691,0,0,0-5.161-1.45,25.87,25.87,0,0,1-5.277,6.813,29.282,29.282,0,0,1,9.1,2.174,35.126,35.126,0,0,1,4.755,2.493.29.29,0,0,1,.2.116,7.126,7.126,0,0,1,1.131.841,2.129,2.129,0,0,1,.522.406,6.643,6.643,0,0,1,1.044.841c.2.2.406.319.609.522.319.319.609.522.928.841l.609.609.841.841.609.609a7.229,7.229,0,0,0,.725.841c.2.232.406.522.609.725l.609.928a4.438,4.438,0,0,1,.522.841l.609.928a7.1,7.1,0,0,0,.522.841c.2.319.319.609.522.928s.319.609.522.928c.116.319.319.609.406.928a10.592,10.592,0,0,0,.522,1.131,26.708,26.708,0,0,1,1.769,6.61l.928,3.624c.406,1.566,4.146,14.786,12.815,19.251,9.945,5.161,23.078,11.6,28.239,14.062L511.772,480.11V452.19c0-4.436,8.785-9.626,12.815-11.365l.2-.116c.841-.406,1.653-.841,2.493-1.334l.319-.2a31.946,31.946,0,0,0,4.958-3.624c.116-.116.319-.2.406-.406.2-.116.319-.319.522-.406.522-.406.928-.928,1.45-1.334l.2-.2a11.176,11.176,0,0,0,1.45-1.653c.116-.2.319-.319.406-.522a15.79,15.79,0,0,0,1.131-1.45c.116-.116.2-.319.319-.406l1.247-1.856c0-.116.116-.116.116-.2.522-.841,1.044-1.768,1.566-2.58a40.133,40.133,0,0,1-4.871-7.654,28.114,28.114,0,0,1-1.971,4.436c-.319.609-.725,1.247-1.044,1.856-.116.116-.116.2-.2.2a15.709,15.709,0,0,1-1.044,1.45c-.116.116-.2.319-.319.406a7.234,7.234,0,0,1-1.131,1.334c-.116.116-.116.2-.2.2a28.924,28.924,0,0,1-8.9,6.813l-.609.319c-1.768.725-16.961,7.654-16.961,18.091v27.92L435.84,439.259c4.436-2.7,17.28-10.35,27.833-13.656,4.146-1.334,12.931,4.233,17.888,8.263l.319.319a17.381,17.381,0,0,0,2.059,1.768l.2.2a29.344,29.344,0,0,0,5.074,3.421l1.247.609a.291.291,0,0,1,.2.116c1.131.609,2.262,1.131,3.508,1.653a3.863,3.863,0,0,0,.522.2c.116,0,.2.116.406.116,1.769.609,3.508,1.131,5.277,1.566a25.689,25.689,0,0,1,5.393-6.813,29.638,29.638,0,0,1-8.495-1.856c-.116-.116-.319-.116-.406-.2a4.306,4.306,0,0,1-.928-.406c-.116-.116-.319-.116-.406-.2-.319-.116-.609-.319-.841-.406a29.562,29.562,0,0,1-5.683-3.624l-2.7-2.493a51.056,51.056,0,0,0-8.06-5.8c-6.726-3.827-12.409-5.074-16.758-3.711-8.988,2.9-19.251,8.379-25.456,12L504.2,307.864v53.695c0,1.855-2.783,6.813-12.206,11.075l-.609.319a30.6,30.6,0,0,0-2.7,1.449l-.2.116a39.71,39.71,0,0,0-5.074,3.624,22.383,22.383,0,0,0-2.783,2.7l-.116.116a21.254,21.254,0,0,0-2.493,2.9l-.116.116c-.406.522-.725,1.044-1.131,1.566,0,.116-.116.116-.116.2-.319.522-.609.928-.928,1.45,0,.116-.116.116-.116.2l-.928,1.566c-.116.116-.116.2-.2.406-.319.522-.522,1.044-.725,1.45a.29.29,0,0,1-.116.2c-.2.522-.406.928-.609,1.45a3.867,3.867,0,0,0-.2.522l-.609,1.565a3.861,3.861,0,0,0-.2.522,5.9,5.9,0,0,1-.406,1.131,5.005,5.005,0,0,0-.2.609c-.116.522-.319,1.044-.406,1.45a6.776,6.776,0,0,0-.2.725c-.116.319-.116.725-.2,1.044-.116.319-.116.609-.2.928-.116.406-.116.841-.2,1.247,0,.319-.116.522-.116.841,0,.406-.116.725-.116,1.131a3.757,3.757,0,0,1-.116,1.131v1.566a35.535,35.535,0,0,0,.406,5.6,40.873,40.873,0,0,1,8.495,3.218,31.054,31.054,0,0,1-1.334-8.379v-.522a12.273,12.273,0,0,1,.116-2.058v-.522a12.735,12.735,0,0,1,.2-1.769v-.2c.116-.609.2-1.247.319-1.971,0-.2.116-.319.116-.522.116-.522.319-1.044.406-1.566,0-.116.116-.2.116-.319L479.3,396c.116-.116.116-.319.2-.406.2-.522.406-1.044.609-1.45.116-.116.116-.2.2-.406a10.135,10.135,0,0,1,.928-1.653,1.947,1.947,0,0,0,.2-.319c.319-.522.522-.928.841-1.45a1.949,1.949,0,0,0,.2-.319,17.639,17.639,0,0,1,1.131-1.566.113.113,0,0,1,.116-.116c.406-.522.725-.928,1.131-1.45a1.956,1.956,0,0,0,.2-.319,32.377,32.377,0,0,1,6.32-5.393l3.218-1.566c1.769-.725,16.874-7.857,16.874-18.323V307.777l68.8,123.509c-6.118-2.986-16.961-8.379-25.34-12.728-4.871-2.493-8.06-11.278-8.988-14.5l-.928-3.711a19.953,19.953,0,0,0-1.131-5.886,38.125,38.125,0,0,0-10.814-15.917" transform="translate(-359.755 -243.682)" fill="#553680"/></g></g></svg>