<?xml version="1.0" encoding="UTF-8"?>
<svg version="1.1" xmlns="http://www.w3.org/2000/svg" width="256" height="224">
<path d="M0,0 L158,0 L158,1 L160,1 L160,4 L161,4 L161,6 L162,6 L162,8 L163,8 L163,10 L164,10 L164,12 L165,12 L165,13 L166,13 L166,16 L167,16 L167,18 L168,18 L168,20 L169,20 L169,22 L170,22 L170,24 L171,24 L171,26 L172,26 L172,28 L173,28 L173,30 L174,30 L174,33 L175,33 L175,35 L176,35 L176,37 L177,37 L177,39 L178,39 L178,41 L179,41 L179,43 L180,43 L180,45 L181,45 L181,48 L182,48 L182,50 L183,50 L183,52 L184,52 L184,54 L185,54 L185,56 L186,56 L186,58 L187,58 L187,60 L188,60 L188,62 L189,62 L189,64 L190,64 L190,67 L191,67 L191,69 L192,69 L192,70 L193,70 L193,72 L194,72 L194,75 L195,75 L195,77 L196,77 L196,79 L197,79 L197,81 L198,81 L198,83 L199,83 L199,85 L200,85 L200,87 L201,87 L201,89 L202,89 L202,92 L203,92 L203,94 L204,94 L204,96 L205,96 L205,98 L206,98 L206,101 L205,101 L205,102 L204,102 L204,103 L203,103 L203,104 L202,104 L202,105 L201,105 L201,106 L200,106 L200,107 L199,107 L199,108 L198,108 L198,109 L197,109 L197,110 L196,110 L196,111 L195,111 L195,112 L194,112 L194,113 L193,113 L193,114 L192,114 L192,115 L191,115 L191,116 L190,116 L190,117 L189,117 L189,118 L187,118 L187,119 L186,119 L186,120 L185,120 L185,121 L184,121 L184,122 L183,122 L183,123 L182,123 L182,124 L181,124 L181,125 L180,125 L180,126 L179,126 L179,127 L178,127 L178,128 L177,128 L177,129 L176,129 L176,130 L175,130 L175,131 L174,131 L174,132 L173,132 L173,133 L172,133 L172,134 L171,134 L171,135 L170,135 L170,136 L169,136 L169,137 L168,137 L168,138 L167,138 L167,139 L166,139 L166,140 L164,140 L164,141 L163,141 L163,142 L162,142 L162,143 L161,143 L161,144 L160,144 L160,145 L159,145 L159,146 L158,146 L158,147 L157,147 L157,148 L156,148 L156,149 L155,149 L155,150 L154,150 L154,151 L153,151 L153,152 L152,152 L152,153 L151,153 L151,154 L150,154 L150,155 L149,155 L149,156 L148,156 L148,157 L147,157 L147,158 L146,158 L146,159 L145,159 L145,160 L144,160 L144,161 L143,161 L143,162 L141,162 L141,163 L140,163 L140,164 L139,164 L139,165 L138,165 L138,166 L137,166 L137,167 L136,167 L136,168 L135,168 L135,169 L134,169 L134,170 L133,170 L133,171 L132,171 L132,172 L131,172 L131,173 L130,173 L130,174 L129,174 L129,175 L128,175 L128,176 L127,176 L127,177 L126,177 L126,178 L125,178 L125,179 L124,179 L124,180 L123,180 L123,181 L126,181 L126,182 L128,182 L128,183 L129,183 L129,189 L127,189 L127,190 L125,190 L125,191 L123,191 L123,192 L121,192 L121,193 L119,193 L119,194 L117,194 L117,195 L116,195 L116,196 L113,196 L113,197 L114,197 L114,198 L116,198 L116,199 L118,199 L118,200 L120,200 L120,201 L122,201 L122,202 L125,202 L125,201 L128,201 L128,200 L129,200 L129,207 L126,207 L126,208 L124,208 L124,209 L122,209 L122,208 L121,208 L121,207 L119,207 L119,206 L117,206 L117,205 L115,205 L115,204 L113,204 L113,203 L110,203 L110,202 L108,202 L108,201 L106,201 L106,200 L104,200 L104,199 L103,199 L103,200 L102,200 L102,201 L101,201 L101,202 L100,202 L100,203 L99,203 L99,204 L98,204 L98,205 L97,205 L97,206 L96,206 L96,207 L95,207 L95,208 L94,208 L94,209 L92,209 L92,210 L91,210 L91,211 L90,211 L90,212 L89,212 L89,213 L88,213 L88,214 L87,214 L87,215 L86,215 L86,216 L85,216 L85,217 L84,217 L84,218 L83,218 L83,219 L82,219 L82,220 L81,220 L81,221 L77,221 L77,220 L76,220 L76,219 L75,219 L75,218 L74,218 L74,217 L73,217 L73,216 L72,216 L72,215 L71,215 L71,214 L70,214 L70,213 L69,213 L69,212 L68,212 L68,211 L67,211 L67,210 L66,210 L66,209 L65,209 L65,208 L64,208 L64,207 L63,207 L63,206 L62,206 L62,205 L61,205 L61,204 L59,204 L59,203 L58,203 L58,202 L57,202 L57,201 L56,201 L56,200 L55,200 L55,199 L54,199 L54,198 L53,198 L53,197 L52,197 L52,196 L51,196 L51,195 L50,195 L50,194 L49,194 L49,193 L48,193 L48,192 L47,192 L47,191 L46,191 L46,190 L45,190 L45,189 L44,189 L44,188 L43,188 L43,187 L42,187 L42,186 L41,186 L41,185 L40,185 L40,184 L39,184 L39,183 L38,183 L38,182 L36,182 L36,181 L35,181 L35,180 L34,180 L34,179 L33,179 L33,178 L32,178 L32,177 L31,177 L31,176 L30,176 L30,175 L29,175 L29,174 L28,174 L28,173 L27,173 L27,172 L26,172 L26,171 L25,171 L25,170 L24,170 L24,169 L23,169 L23,168 L22,168 L22,167 L21,167 L21,166 L20,166 L20,165 L19,165 L19,164 L18,164 L18,163 L17,163 L17,162 L16,162 L16,161 L15,161 L15,160 L13,160 L13,159 L12,159 L12,158 L11,158 L11,157 L10,157 L10,156 L9,156 L9,155 L8,155 L8,154 L7,154 L7,153 L6,153 L6,152 L5,152 L5,151 L4,151 L4,150 L3,150 L3,149 L2,149 L2,148 L1,148 L1,147 L0,147 L0,146 L-1,146 L-1,145 L-2,145 L-2,144 L-3,144 L-3,143 L-4,143 L-4,142 L-5,142 L-5,141 L-6,141 L-6,140 L-7,140 L-7,139 L-8,139 L-8,138 L-9,138 L-9,137 L-10,137 L-10,136 L-11,136 L-11,135 L-12,135 L-12,134 L-13,134 L-13,133 L-15,133 L-15,132 L-16,132 L-16,131 L-17,131 L-17,130 L-18,130 L-18,129 L-19,129 L-19,128 L-20,128 L-20,127 L-21,127 L-21,126 L-22,126 L-22,125 L-23,125 L-23,124 L-24,124 L-24,123 L-25,123 L-25,122 L-26,122 L-26,121 L-27,121 L-27,120 L-28,120 L-28,119 L-29,119 L-29,118 L-30,118 L-30,117 L-31,117 L-31,116 L-32,116 L-32,115 L-33,115 L-33,114 L-34,114 L-34,113 L-35,113 L-35,112 L-37,112 L-37,111 L-38,111 L-38,110 L-39,110 L-39,109 L-40,109 L-40,108 L-41,108 L-41,107 L-42,107 L-42,106 L-43,106 L-43,105 L-44,105 L-44,104 L-45,104 L-45,103 L-46,103 L-46,102 L-47,102 L-47,96 L-46,96 L-46,94 L-45,94 L-45,92 L-44,92 L-44,90 L-43,90 L-43,88 L-42,88 L-42,86 L-41,86 L-41,84 L-40,84 L-40,81 L-39,81 L-39,79 L-38,79 L-38,77 L-37,77 L-37,75 L-36,75 L-36,73 L-35,73 L-35,71 L-34,71 L-34,69 L-33,69 L-33,66 L-32,66 L-32,64 L-31,64 L-31,62 L-30,62 L-30,61 L-29,61 L-29,59 L-28,59 L-28,56 L-27,56 L-27,54 L-26,54 L-26,52 L-25,52 L-25,50 L-24,50 L-24,48 L-23,48 L-23,46 L-22,46 L-22,44 L-21,44 L-21,42 L-20,42 L-20,40 L-19,40 L-19,37 L-18,37 L-18,35 L-17,35 L-17,33 L-16,33 L-16,31 L-15,31 L-15,29 L-14,29 L-14,27 L-13,27 L-13,25 L-12,25 L-12,22 L-11,22 L-11,20 L-10,20 L-10,18 L-9,18 L-9,16 L-8,16 L-8,14 L-7,14 L-7,12 L-6,12 L-6,10 L-5,10 L-5,8 L-4,8 L-4,6 L-3,6 L-3,4 L-2,4 L-2,2 L-1,2 L-1,1 L0,1 Z " fill="#1A8A3B" transform="translate(47,1)"/>
<path d="M0,0 L120,0 L120,29 L76,29 L76,49 L88,49 L88,50 L99,50 L99,51 L106,51 L106,52 L110,52 L110,53 L115,53 L115,54 L121,54 L121,55 L125,55 L125,56 L126,56 L126,57 L129,57 L129,58 L131,58 L131,59 L133,59 L133,60 L135,60 L135,61 L136,61 L136,62 L137,62 L137,63 L138,63 L138,69 L137,69 L137,70 L136,70 L136,71 L134,71 L134,72 L132,72 L132,73 L130,73 L130,74 L128,74 L128,75 L126,75 L126,76 L122,76 L122,77 L117,77 L117,78 L114,78 L114,79 L108,79 L108,80 L103,80 L103,81 L98,81 L98,82 L85,82 L85,83 L76,83 L76,145 L44,145 L44,83 L39,83 L39,82 L23,82 L23,81 L16,81 L16,80 L11,80 L11,79 L6,79 L6,78 L2,78 L2,77 L-3,77 L-3,76 L-6,76 L-6,75 L-8,75 L-8,74 L-11,74 L-11,73 L-12,73 L-12,72 L-14,72 L-14,71 L-16,71 L-16,70 L-17,70 L-17,68 L-18,68 L-18,63 L-17,63 L-17,62 L-16,62 L-16,61 L-15,61 L-15,60 L-13,60 L-13,59 L-12,59 L-12,58 L-10,58 L-10,57 L-7,57 L-7,56 L-5,56 L-5,55 L0,55 L0,54 L4,54 L4,53 L8,53 L8,52 L13,52 L13,51 L19,51 L19,50 L29,50 L29,49 L44,49 L44,29 L0,29 Z " fill="#F7FBF8" transform="translate(66,32)"/>
<path d="M0,0 L120,0 L120,29 L76,29 L76,49 L80,49 L80,50 L76,50 L76,73 L44,73 L44,50 L39,50 L39,49 L44,49 L44,29 L0,29 Z " fill="#FBFDFC" transform="translate(66,32)"/>
<path d="M0,0 L14,0 L14,22 L46,22 L46,0 L61,0 L61,1 L68,1 L68,2 L73,2 L73,3 L80,3 L80,4 L85,4 L85,5 L89,5 L89,6 L93,6 L93,7 L94,7 L94,8 L97,8 L97,9 L98,9 L98,10 L99,10 L99,11 L101,11 L101,15 L100,15 L100,16 L99,16 L99,17 L97,17 L97,18 L95,18 L95,19 L93,19 L93,20 L90,20 L90,21 L86,21 L86,22 L82,22 L82,23 L76,23 L76,24 L71,24 L71,25 L61,25 L61,26 L50,26 L50,27 L10,27 L10,26 L-4,26 L-4,25 L-13,25 L-13,24 L-18,24 L-18,23 L-24,23 L-24,22 L-28,22 L-28,21 L-31,21 L-31,20 L-34,20 L-34,19 L-36,19 L-36,18 L-38,18 L-38,17 L-39,17 L-39,16 L-40,16 L-40,15 L-41,15 L-41,12 L-40,12 L-40,11 L-39,11 L-39,10 L-38,10 L-38,9 L-37,9 L-37,8 L-35,8 L-35,7 L-33,7 L-33,6 L-28,6 L-28,5 L-25,5 L-25,4 L-21,4 L-21,3 L-14,3 L-14,2 L-8,2 L-8,1 L0,1 Z " fill="#1D8B3D" transform="translate(96,83)"/>
<path d="M0,0 L1,0 L1,1 L3,1 L3,2 L5,2 L5,3 L7,3 L7,4 L9,4 L9,5 L11,5 L11,6 L13,6 L13,7 L15,7 L15,8 L18,8 L18,15 L16,15 L16,16 L14,16 L14,17 L12,17 L12,18 L11,18 L11,19 L8,19 L8,20 L9,20 L9,21 L11,21 L11,22 L13,22 L13,23 L15,23 L15,24 L17,24 L17,25 L20,25 L20,24 L23,24 L23,23 L24,23 L24,30 L21,30 L21,31 L19,31 L19,32 L17,32 L17,31 L16,31 L16,30 L14,30 L14,29 L12,29 L12,28 L10,28 L10,27 L8,27 L8,26 L5,26 L5,25 L3,25 L3,24 L1,24 L1,23 L-1,23 L-1,20 L0,20 L0,17 L1,17 L1,16 L3,16 L3,15 L5,15 L5,14 L6,14 L6,13 L8,13 L8,12 L9,12 L9,11 L10,11 L10,9 L8,9 L8,8 L6,8 L6,7 L3,7 L3,6 L1,6 L1,5 L0,5 Z " fill="#4AC2C1" transform="translate(152,178)"/>
<path d="M0,0 L3,0 L3,1 L5,1 L5,2 L6,2 L6,3 L7,3 L7,4 L8,4 L8,5 L9,5 L9,6 L10,6 L10,7 L11,7 L11,8 L12,8 L12,9 L13,9 L13,10 L14,10 L14,11 L15,11 L15,12 L16,12 L16,13 L17,13 L17,14 L18,14 L18,15 L19,15 L19,16 L20,16 L20,17 L21,17 L21,18 L22,18 L22,19 L23,19 L23,20 L24,20 L24,21 L25,21 L25,22 L27,22 L27,21 L28,21 L28,20 L29,20 L29,19 L30,19 L30,18 L31,18 L31,17 L32,17 L32,16 L33,16 L33,15 L34,15 L34,14 L35,14 L35,13 L36,13 L36,12 L37,12 L37,11 L38,11 L38,10 L39,10 L39,9 L40,9 L40,8 L41,8 L41,7 L42,7 L42,6 L44,6 L44,5 L45,5 L45,4 L46,4 L46,3 L49,3 L49,4 L48,4 L48,5 L47,5 L47,6 L46,6 L46,7 L45,7 L45,8 L44,8 L44,9 L43,9 L43,10 L42,10 L42,11 L41,11 L41,12 L39,12 L39,13 L38,13 L38,14 L37,14 L37,15 L36,15 L36,16 L35,16 L35,17 L34,17 L34,18 L33,18 L33,19 L32,19 L32,20 L31,20 L31,21 L30,21 L30,22 L29,22 L29,23 L28,23 L28,24 L24,24 L24,23 L23,23 L23,22 L22,22 L22,21 L21,21 L21,20 L20,20 L20,19 L19,19 L19,18 L18,18 L18,17 L17,17 L17,16 L16,16 L16,15 L15,15 L15,14 L14,14 L14,13 L13,13 L13,12 L12,12 L12,11 L11,11 L11,10 L10,10 L10,9 L9,9 L9,8 L8,8 L8,7 L6,7 L6,6 L5,6 L5,5 L4,5 L4,4 L3,4 L3,3 L2,3 L2,2 L1,2 L1,1 L0,1 Z " fill="#219449" transform="translate(100,198)"/>
<path d="M0,0 L1,0 L1,1 L3,1 L3,2 L5,2 L5,3 L7,3 L7,4 L9,4 L9,5 L11,5 L11,6 L13,6 L13,7 L15,7 L15,8 L18,8 L18,15 L16,15 L16,16 L14,16 L14,17 L12,17 L12,18 L10,18 L10,17 L9,17 L9,18 L7,18 L7,16 L8,16 L8,15 L7,15 L7,13 L8,13 L8,12 L9,12 L9,11 L10,11 L10,9 L8,9 L8,8 L6,8 L6,7 L3,7 L3,6 L1,6 L1,5 L0,5 Z M6,18 L7,18 L7,19 L6,19 Z " fill="#49C1BF" transform="translate(152,178)"/>
<path d="M0,0 L4,0 L4,1 L6,1 L6,2 L8,2 L8,3 L10,3 L10,4 L12,4 L12,5 L16,5 L16,6 L19,6 L19,7 L21,7 L21,8 L22,8 L22,14 L20,14 L20,15 L18,15 L18,16 L16,16 L16,10 L13,10 L13,9 L11,9 L11,8 L9,8 L9,7 L7,7 L7,6 L5,6 L5,5 L3,5 L3,4 L1,4 L1,3 L-1,3 L-1,2 L-2,2 L-2,1 L0,1 Z " fill="#087C90" transform="translate(154,176)"/>
<path d="M0,0 L10,0 L10,1 L15,1 L15,2 L1,2 L1,3 L-7,3 L-7,4 L-13,4 L-13,5 L-20,5 L-20,6 L-24,6 L-24,7 L-27,7 L-27,8 L-32,8 L-32,9 L-34,9 L-34,10 L-36,10 L-36,11 L-37,11 L-37,9 L-39,9 L-39,8 L-36,8 L-36,7 L-34,7 L-34,6 L-29,6 L-29,5 L-25,5 L-25,4 L-21,4 L-21,3 L-16,3 L-16,2 L-10,2 L-10,1 L0,1 Z " fill="#DAECE0" transform="translate(95,81)"/>
<path d="M0,0 L1,0 L1,3 L0,3 L0,4 L-1,4 L-1,5 L-2,5 L-2,6 L-3,6 L-3,7 L-4,7 L-4,8 L-5,8 L-5,9 L-6,9 L-6,10 L-7,10 L-7,11 L-8,11 L-8,12 L-9,12 L-9,13 L-10,13 L-10,14 L-11,14 L-11,15 L-12,15 L-12,16 L-13,16 L-13,17 L-14,17 L-14,18 L-15,18 L-15,19 L-16,19 L-16,20 L-18,20 L-18,21 L-19,21 L-19,22 L-20,22 L-20,23 L-21,23 L-21,24 L-22,24 L-22,25 L-23,25 L-23,26 L-24,26 L-24,27 L-25,27 L-25,28 L-26,28 L-26,29 L-27,29 L-27,30 L-28,30 L-28,31 L-29,31 L-29,32 L-30,32 L-30,33 L-31,33 L-31,34 L-32,34 L-32,35 L-33,35 L-33,36 L-34,36 L-34,37 L-35,37 L-35,38 L-36,38 L-36,39 L-37,39 L-37,36 L-36,36 L-36,35 L-35,35 L-35,34 L-34,34 L-34,33 L-33,33 L-33,32 L-32,32 L-32,31 L-31,31 L-31,30 L-30,30 L-30,29 L-29,29 L-29,28 L-28,28 L-28,27 L-27,27 L-27,26 L-26,26 L-26,25 L-25,25 L-25,24 L-24,24 L-24,23 L-23,23 L-23,22 L-22,22 L-22,21 L-21,21 L-21,20 L-20,20 L-20,19 L-19,19 L-19,18 L-18,18 L-18,17 L-17,17 L-17,16 L-16,16 L-16,15 L-15,15 L-15,14 L-13,14 L-13,13 L-12,13 L-12,12 L-11,12 L-11,11 L-10,11 L-10,10 L-9,10 L-9,9 L-8,9 L-8,8 L-7,8 L-7,7 L-6,7 L-6,6 L-5,6 L-5,5 L-4,5 L-4,4 L-3,4 L-3,3 L-1,3 L-1,2 L0,2 Z " fill="#23934B" transform="translate(252,99)"/>
<path d="M0,0 L8,0 L8,1 L19,1 L19,2 L26,2 L26,3 L30,3 L30,4 L35,4 L35,5 L41,5 L41,6 L45,6 L45,7 L46,7 L46,8 L49,8 L49,9 L48,9 L48,11 L47,11 L47,10 L44,10 L44,9 L43,9 L43,8 L39,8 L39,7 L35,7 L35,6 L30,6 L30,5 L23,5 L23,4 L18,4 L18,3 L11,3 L11,2 L-4,2 L-4,1 L0,1 Z " fill="#E3F1E8" transform="translate(146,81)"/>
<path d="M0,0 L3,0 L3,1 L2,1 L2,2 L1,2 L1,3 L0,3 L0,4 L-1,4 L-1,5 L-3,5 L-3,6 L-4,6 L-4,7 L-5,7 L-5,8 L-6,8 L-6,9 L-7,9 L-7,10 L-8,10 L-8,11 L-9,11 L-9,12 L-10,12 L-10,13 L-11,13 L-11,14 L-12,14 L-12,15 L-13,15 L-13,16 L-14,16 L-14,17 L-15,17 L-15,18 L-16,18 L-16,19 L-17,19 L-17,20 L-18,20 L-18,21 L-19,21 L-19,22 L-20,22 L-20,23 L-21,23 L-21,20 L-20,20 L-20,19 L-19,19 L-19,18 L-18,18 L-18,17 L-17,17 L-17,16 L-16,16 L-16,15 L-15,15 L-15,14 L-14,14 L-14,13 L-13,13 L-13,12 L-12,12 L-12,11 L-11,11 L-11,10 L-10,10 L-10,9 L-9,9 L-9,8 L-8,8 L-8,7 L-7,7 L-7,6 L-6,6 L-6,5 L-5,5 L-5,4 L-4,4 L-4,3 L-2,3 L-2,2 L-1,2 L-1,1 L0,1 Z " fill="#229449" transform="translate(191,158)"/>
<path d="M0,0 L4,0 L4,1 L5,1 L5,2 L6,2 L6,3 L7,3 L7,4 L8,4 L8,5 L9,5 L9,6 L10,6 L10,7 L11,7 L11,8 L12,8 L12,9 L13,9 L13,10 L14,10 L14,11 L15,11 L15,12 L16,12 L16,13 L17,13 L17,14 L18,14 L18,15 L19,15 L19,16 L20,16 L20,17 L21,17 L21,18 L22,18 L22,21 L21,21 L21,20 L20,20 L20,19 L19,19 L19,18 L18,18 L18,17 L17,17 L17,16 L16,16 L16,15 L15,15 L15,14 L14,14 L14,13 L13,13 L13,12 L12,12 L12,11 L11,11 L11,10 L10,10 L10,9 L9,9 L9,8 L8,8 L8,7 L6,7 L6,6 L5,6 L5,5 L4,5 L4,4 L3,4 L3,3 L2,3 L2,2 L1,2 L1,1 L0,1 Z " fill="#219348" transform="translate(54,154)"/>
<path d="M0,0 L4,0 L4,1 L5,1 L5,2 L6,2 L6,3 L7,3 L7,4 L8,4 L8,5 L9,5 L9,6 L10,6 L10,7 L11,7 L11,8 L12,8 L12,9 L13,9 L13,10 L14,10 L14,11 L15,11 L15,12 L16,12 L16,13 L17,13 L17,14 L18,14 L18,15 L19,15 L19,16 L20,16 L20,17 L21,17 L21,20 L20,20 L20,19 L19,19 L19,18 L18,18 L18,17 L17,17 L17,16 L16,16 L16,15 L15,15 L15,14 L14,14 L14,13 L13,13 L13,12 L12,12 L12,11 L11,11 L11,10 L10,10 L10,9 L9,9 L9,8 L8,8 L8,7 L7,7 L7,6 L6,6 L6,5 L4,5 L4,4 L3,4 L3,3 L2,3 L2,2 L1,2 L1,1 L0,1 Z " fill="#229448" transform="translate(79,178)"/>
<path d="M0,0 L2,0 L2,1 L4,1 L4,2 L5,2 L5,3 L6,3 L6,4 L7,4 L7,5 L8,5 L8,6 L9,6 L9,7 L10,7 L10,8 L11,8 L11,9 L12,9 L12,10 L13,10 L13,11 L14,11 L14,12 L15,12 L15,13 L16,13 L16,14 L17,14 L17,15 L18,15 L18,16 L19,16 L19,18 L20,18 L20,20 L19,20 L19,19 L18,19 L18,18 L17,18 L17,17 L16,17 L16,16 L15,16 L15,15 L14,15 L14,14 L13,14 L13,13 L12,13 L12,12 L11,12 L11,11 L10,11 L10,10 L9,10 L9,9 L8,9 L8,8 L7,8 L7,7 L6,7 L6,6 L5,6 L5,5 L4,5 L4,4 L3,4 L3,3 L2,3 L2,2 L1,2 L1,1 L0,1 Z " fill="#24944C" transform="translate(13,114)"/>
<path d="M0,0 L3,0 L3,1 L2,1 L2,2 L1,2 L1,3 L-1,3 L-1,4 L-2,4 L-2,5 L-3,5 L-3,6 L-4,6 L-4,7 L-5,7 L-5,8 L-6,8 L-6,9 L-7,9 L-7,10 L-8,10 L-8,11 L-9,11 L-9,12 L-10,12 L-10,13 L-11,13 L-11,14 L-12,14 L-12,15 L-13,15 L-13,16 L-14,16 L-14,17 L-15,17 L-15,18 L-16,18 L-16,19 L-17,19 L-17,20 L-18,20 L-18,17 L-17,17 L-17,16 L-16,16 L-16,15 L-15,15 L-15,14 L-14,14 L-14,13 L-13,13 L-13,12 L-12,12 L-12,11 L-11,11 L-11,10 L-10,10 L-10,9 L-9,9 L-9,8 L-8,8 L-8,7 L-7,7 L-7,6 L-6,6 L-6,5 L-4,5 L-4,4 L-3,4 L-3,3 L-2,3 L-2,2 L0,2 Z " fill="#24944C" transform="translate(212,138)"/>
<path d="M0,0 L4,0 L4,1 L6,1 L6,2 L8,2 L8,3 L10,3 L10,6 L12,6 L12,7 L13,7 L13,9 L11,9 L11,8 L9,8 L9,7 L7,7 L7,6 L5,6 L5,5 L3,5 L3,4 L1,4 L1,3 L-1,3 L-1,2 L-2,2 L-2,1 L0,1 Z " fill="#0B7E90" transform="translate(154,176)"/>
<path d="M0,0 L1,0 L1,7 L-2,7 L-2,8 L-4,8 L-4,9 L-6,9 L-6,8 L-5,8 L-5,2 L-3,2 L-3,1 L0,1 Z " fill="#28949C" transform="translate(175,201)"/>
<path d="M0,0 L1,0 L1,6 L-1,6 L-1,7 L-3,7 L-3,8 L-5,8 L-5,2 L-2,2 L-2,1 L0,1 Z " fill="#2A929B" transform="translate(175,184)"/>
<path d="M0,0 L1,0 L1,2 L2,2 L2,4 L3,4 L3,6 L4,6 L4,8 L5,8 L5,10 L6,10 L6,12 L7,12 L7,14 L6,14 L6,15 L5,15 L5,13 L4,13 L4,11 L3,11 L3,9 L2,9 L2,7 L1,7 L1,5 L0,5 Z " fill="#209147" transform="translate(228,49)"/>
<path d="M0,0 L1,0 L1,2 L0,2 L0,3 L-1,3 L-1,4 L-2,4 L-2,5 L-1,5 L-1,6 L-2,6 L-2,9 L-3,9 L-3,11 L-4,11 L-4,13 L-7,13 L-7,11 L-6,11 L-6,9 L-5,9 L-5,7 L-4,7 L-4,5 L-3,5 L-3,3 L-2,3 L-2,1 L0,1 Z " fill="#259A59" transform="translate(44,8)"/>
<path d="M0,0 L1,0 L1,2 L2,2 L2,4 L1,4 L1,5 L0,5 L0,8 L-1,8 L-1,10 L-2,10 L-2,11 L-3,11 L-3,13 L-5,13 L-5,11 L-4,11 L-4,8 L-3,8 L-3,6 L-2,6 L-2,4 L-1,4 L-1,2 L0,2 Z " fill="#25944D" transform="translate(11,74)"/>
<path d="M0,0 L1,0 L1,2 L2,2 L2,4 L3,4 L3,6 L4,6 L4,8 L5,8 L5,10 L6,10 L6,13 L4,13 L4,9 L2,9 L2,8 L1,8 L1,6 L0,6 L0,4 L-1,4 L-1,2 L0,2 Z " fill="#2B9755" transform="translate(214,19)"/>
<path d="M0,0 L1,0 L1,5 L-1,5 L-1,8 L0,8 L0,9 L1,9 L1,10 L2,10 L2,11 L3,11 L3,12 L4,12 L4,15 L3,15 L3,14 L2,14 L2,13 L1,13 L1,12 L0,12 L0,11 L-1,11 L-1,10 L-2,10 L-2,4 L-1,4 L-1,2 L0,2 Z " fill="#27924E" transform="translate(2,93)"/>
<path d="M0,0 L1,0 L1,3 L2,3 L2,5 L3,5 L3,6 L4,6 L4,8 L5,8 L5,11 L6,11 L6,13 L4,13 L4,12 L3,12 L3,10 L2,10 L2,8 L1,8 L1,6 L0,6 Z " fill="#269548" transform="translate(236,65)"/>
<path d="M0,0 L1,0 L1,2 L2,2 L2,4 L1,4 L1,6 L0,6 L0,8 L-1,8 L-1,10 L-2,10 L-2,12 L-4,12 L-4,8 L-3,8 L-3,7 L-2,7 L-2,5 L-1,5 L-1,2 L0,2 Z " fill="#1E944F" transform="translate(20,55)"/>
<path d="M0,0 L1,0 L1,2 L2,2 L2,4 L3,4 L3,6 L4,6 L4,8 L5,8 L5,10 L6,10 L6,12 L5,12 L5,11 L4,11 L4,9 L2,9 L2,8 L1,8 L1,6 L0,6 L0,4 L-1,4 L-1,2 L0,2 Z " fill="#28944E" transform="translate(243,80)"/>
<path d="M0,0 L3,0 L3,1 L5,1 L5,2 L6,2 L6,3 L7,3 L7,4 L8,4 L8,5 L9,5 L9,7 L6,7 L6,6 L5,6 L5,5 L4,5 L4,4 L3,4 L3,3 L2,3 L2,2 L1,2 L1,1 L0,1 Z " fill="#238B54" transform="translate(100,198)"/>
<path d="M0,0 L3,0 L3,1 L2,1 L2,2 L1,2 L1,3 L0,3 L0,4 L-1,4 L-1,5 L-3,5 L-3,6 L-4,6 L-4,7 L-5,7 L-5,8 L-8,8 L-8,7 L-7,7 L-7,6 L-6,6 L-6,5 L-5,5 L-5,4 L-4,4 L-4,3 L-2,3 L-2,2 L-1,2 L-1,1 L0,1 Z " fill="#299454" transform="translate(191,158)"/>
<path d="M0,0 L2,0 L2,3 L0,3 L0,4 L-2,4 L-2,5 L-4,5 L-4,6 L-6,6 L-6,5 L-7,5 L-7,4 L-5,4 L-5,3 L-3,3 L-3,2 L-1,2 L-1,1 L0,1 Z M-9,5 L-7,5 L-7,6 L-9,6 Z M-10,6 L-9,6 L-9,7 L-10,7 Z " fill="#4CCAC7" transform="translate(168,190)"/>
<path d="M0,0 L6,0 L6,1 L9,1 L9,2 L3,2 L3,3 L-2,3 L-2,2 L-5,2 L-5,1 L0,1 Z " fill="#D2E8DA" transform="translate(79,83)"/>
<path d="M0,0 L3,0 L3,1 L4,1 L4,2 L5,2 L5,3 L6,3 L6,4 L7,4 L7,5 L8,5 L8,6 L9,6 L9,9 L8,9 L8,8 L7,8 L7,7 L6,7 L6,6 L5,6 L5,5 L4,5 L4,4 L3,4 L3,3 L2,3 L2,2 L1,2 L1,1 L0,1 Z " fill="#23944C" transform="translate(43,143)"/>
<path d="M0,0 L4,0 L4,1 L5,1 L5,2 L6,2 L6,3 L7,3 L7,6 L8,6 L8,7 L6,7 L6,6 L5,6 L5,5 L4,5 L4,4 L3,4 L3,3 L2,3 L2,2 L1,2 L1,1 L0,1 Z " fill="#478B72" transform="translate(54,154)"/>
<path d="M0,0 L4,0 L4,1 L8,1 L8,2 L7,2 L7,3 L1,3 L1,2 L-4,2 L-4,1 L0,1 Z " fill="#D5E9DC" transform="translate(168,83)"/>
<path d="M0,0 L1,0 L1,1 L2,1 L2,3 L1,3 L1,5 L0,5 L0,8 L-1,8 L-1,9 L-3,9 L-3,6 L-2,6 L-2,4 L-1,4 L-1,2 L0,2 Z M2,0 L3,0 L3,1 L2,1 Z " fill="#239149" transform="translate(31,32)"/>
<path d="M0,0 L3,0 L3,1 L2,1 L2,2 L1,2 L1,3 L0,3 L0,4 L-1,4 L-1,5 L-2,5 L-2,6 L-3,6 L-3,7 L-4,7 L-4,8 L-5,8 L-5,5 L-4,5 L-4,4 L-2,4 L-2,2 L-1,2 L-1,1 L0,1 Z " fill="#32965F" transform="translate(146,201)"/>
<path d="M0,0 L1,0 L1,2 L2,2 L2,4 L3,4 L3,6 L4,6 L4,9 L2,9 L2,7 L1,7 L1,5 L0,5 Z " fill="#218F49" transform="translate(224,40)"/>
<path d="M0,0 L4,0 L4,1 L5,1 L5,2 L6,2 L6,5 L4,5 L4,4 L3,4 L3,3 L2,3 L2,2 L1,2 L1,1 L0,1 Z " fill="#368259" transform="translate(79,178)"/>
<path d="M0,0 L7,0 L7,1 L5,1 L5,2 L1,2 L1,3 L-2,3 L-2,1 L0,1 Z " fill="#E6F2EB" transform="translate(70,85)"/>
<path d="M0,0 L1,0 L1,3 L0,3 L0,5 L-1,5 L-1,7 L-3,7 L-3,8 L-4,8 L-4,6 L-3,6 L-3,4 L-2,4 L-2,2 L-1,2 L-1,1 L0,1 Z " fill="#229249" transform="translate(47,1)"/>
<path d="M0,0 L1,0 L1,2 L-1,2 L-1,1 L0,1 Z " fill="#55AAAA" transform="translate(175,191)"/>
</svg>
