<svg xmlns="http://www.w3.org/2000/svg" width="337.572" height="335.218" viewBox="0 0 337.572 335.218">
  <path id="Flux_symbol_blue-substract" d="M168.786,335.218a172.681,172.681,0,0,1-17.257-.865c-5.611-.566-11.25-1.42-16.759-2.54-5.438-1.1-10.88-2.495-16.176-4.13-5.236-1.617-10.453-3.514-15.507-5.636A169.13,169.13,0,0,1,28.826,261.32,167.261,167.261,0,0,1,13.264,232.85c-2.138-5.018-4.047-10.2-5.676-15.4-1.647-5.258-3.046-10.663-4.159-16.063A166.973,166.973,0,0,1,.871,184.746a168.944,168.944,0,0,1,0-34.274A166.972,166.972,0,0,1,3.429,133.83c1.113-5.4,2.512-10.8,4.159-16.063,1.629-5.2,3.538-10.381,5.676-15.4A167.258,167.258,0,0,1,28.826,73.9a169.128,169.128,0,0,1,74.261-60.726c5.054-2.123,10.271-4.019,15.507-5.636,5.3-1.636,10.738-3.025,16.176-4.13,5.509-1.119,11.147-1.974,16.759-2.54a172.518,172.518,0,0,1,34.515,0c5.612.566,11.25,1.42,16.759,2.54,5.438,1.105,10.88,2.495,16.176,4.13,5.236,1.617,10.454,3.514,15.507,5.636A169.129,169.129,0,0,1,308.746,73.9a167.254,167.254,0,0,1,15.562,28.471c2.138,5.018,4.047,10.2,5.676,15.4,1.647,5.259,3.046,10.663,4.159,16.063a166.952,166.952,0,0,1,2.558,16.642,168.945,168.945,0,0,1,0,34.274,166.955,166.955,0,0,1-2.558,16.642c-1.113,5.4-2.512,10.8-4.159,16.063-1.629,5.2-3.538,10.381-5.676,15.4a167.255,167.255,0,0,1-15.562,28.471,169.127,169.127,0,0,1-74.261,60.726c-5.054,2.123-10.271,4.019-15.507,5.636-5.3,1.636-10.738,3.025-16.176,4.13-5.509,1.119-11.148,1.974-16.759,2.54A172.681,172.681,0,0,1,168.786,335.218Zm-21.3-94.12h0l-.468.275L128.264,252.2l41.3,23.834,19.225-11.1-40.586-23.42-.717-.413Zm63.424-108.159h0l-51.68,29.84v59.652l51.611,29.785.069.041,51.68-29.826V162.779l-51.68-29.84ZM106.269,170.824,76.543,187.975v34.3l29.727,17.166L136,222.279v-34.3Zm0-25.459h0l11.025,6.365,19.887,11.476V150.049l11.025-6.365,51.68-29.826,11.025-6.365,11.025,6.365,40.655,23.461V114.974L169.568,61.286,76.543,114.974v47.543l18.7-10.787,11.025-6.365Z" fill="#2b61d1"/>
</svg>
