<svg width="70" height="66" viewBox="0 0 70 66" fill="none" xmlns="http://www.w3.org/2000/svg" class="farming__pool-logo"><g clip-path="url(#clip0)"><path d="M38.6879 65.9963C55.983 65.9963 70.0001 52.5171 70.0001 35.8537C70.0001 19.1903 55.983 5.76221 38.6879 5.76221C21.3928 5.76221 7.36719 19.2415 7.36719 35.8537C7.36719 52.4659 21.3928 65.9963 38.6879 65.9963Z" fill="url(#paint0_linear)"></path><path d="M31.5854 60.6866C49.0085 60.6866 63.1707 47.0963 63.1707 30.339C63.1707 13.5817 48.9659 0 31.5854 0C14.2049 0 0 13.5817 0 30.339C0 47.0963 14.1195 60.6866 31.5854 60.6866Z" fill="url(#paint1_radial)"></path><path d="M43.9722 33.2927C42.361 31.4475 40.1156 30.2746 37.6807 30.0062C42.8368 28.4525 45.4149 25.4675 45.4149 21.0513C45.4388 19.6368 45.1317 18.2363 44.5181 16.9616C43.9045 15.6869 43.0013 14.5733 41.8807 13.7098C39.5246 11.7806 36.3775 10.8159 32.4393 10.8159H21.9819V18.0464H31.1758C32.3759 17.9864 33.5557 18.3726 34.488 19.1306C34.9173 19.535 35.2517 20.0296 35.4672 20.5786C35.6827 21.1277 35.7739 21.7177 35.7344 22.3062C35.7755 22.8897 35.6848 23.4751 35.469 24.0189C35.2533 24.5626 34.918 25.051 34.488 25.4476C33.5486 26.19 32.3717 26.5661 31.1758 26.5062H21.9819V33.7367H32.2258C32.8136 33.7171 33.3991 33.8192 33.9456 34.0366C34.4921 34.2541 34.9877 34.5821 35.4014 35.0001C35.8189 35.4356 36.1433 35.9517 36.3546 36.5167C36.566 37.0818 36.6599 37.684 36.6307 38.2867C36.6623 38.8837 36.5642 39.4806 36.3432 40.0361C36.1221 40.5917 35.7834 41.0928 35.3502 41.5049C34.4671 42.2987 33.31 42.7181 32.1234 42.6745H21.9819V49.9135H33.3441C37.4246 49.9135 40.6059 48.9944 42.888 47.1562C44.0011 46.2739 44.8903 45.1416 45.4836 43.8512C46.0769 42.5607 46.3575 41.1486 46.3027 39.7293C46.3518 37.3689 45.5211 35.0746 43.9722 33.2927V33.2927Z" fill="white"></path><path d="M12.6768 22.272C12.6768 23.404 13.1265 24.4897 13.9269 25.2901C14.7274 26.0906 15.813 26.5403 16.9451 26.5403H22.0158V18.0464H16.9109C15.7922 18.0553 14.7216 18.5031 13.9297 19.2934C13.1379 20.0837 12.6879 21.1533 12.6768 22.272V22.272Z" fill="white"></path><path d="M12.6768 37.9622V38.4146C12.688 39.5392 13.1427 40.6139 13.9419 41.4052C14.7411 42.1965 15.8204 42.6403 16.9451 42.6402H22.0158V33.7366H16.9109C15.7922 33.7455 14.7216 34.1933 13.9297 34.9835C13.1379 35.7738 12.6879 36.8435 12.6768 37.9622V37.9622Z" fill="white"></path></g><defs><linearGradient id="paint0_linear" x1="130.414" y1="121.484" x2="19.4123" y2="17.8927" gradientUnits="userSpaceOnUse"><stop stop-color="#007BC4"></stop><stop offset="1" stop-color="#42C0EC"></stop></linearGradient><radialGradient id="paint1_radial" cx="0" cy="0" r="1" gradientUnits="userSpaceOnUse" gradientTransform="translate(-3.94168 6.47457) scale(104.193 100.212)"><stop stop-color="#FBBD3E"></stop><stop offset="0.08" stop-color="#FAB849"></stop><stop offset="0.23" stop-color="#F7AC60"></stop><stop offset="0.41" stop-color="#F3967A"></stop><stop offset="0.63" stop-color="#EE748D"></stop><stop offset="0.71" stop-color="#EC6490"></stop></radialGradient><clipPath id="clip0"><rect width="70" height="65.9963" fill="white"></rect></clipPath></defs></svg>