<?xml version="1.0" encoding="utf-8"?>
<!-- Generator: Adobe Illustrator 24.3.0, SVG Export Plug-In . SVG Version: 6.00 Build 0)  -->
<svg version="1.1" id="Calque_1" xmlns="http://www.w3.org/2000/svg" xmlns:xlink="http://www.w3.org/1999/xlink" x="0px" y="0px"
	 viewBox="0 0 30.5 29.9" style="enable-background:new 0 0 30.5 29.9;" xml:space="preserve">
<g id="Calque_2_1_">
	<g id="Calque_1-2">
		<path d="M15.3,0C6.8,0,0,6.8,0,15.3c0,6.7,4.3,12.5,10.6,14.6c0.3,0.1,0.6,0,0.8-0.1l0.2-0.1h0c1-0.4,1.7-1.4,1.7-2.5v-9.5h-3.3
			c-1,0-1.8-0.8-1.8-1.8S9.2,14,10.2,14l0,0h10.2c1,0,1.8,0.8,1.8,1.8s-0.8,1.8-1.8,1.8h-3.3v9.5c0,1.2,0.7,2.2,1.8,2.5l0,0l0,0h0
			c0.2,0.1,0.4,0.1,0.5,0.1c0.1,0,0.2,0,0.3,0c8-2.6,12.5-11.2,9.9-19.2C27.8,4.3,21.9,0,15.3,0z M4.5,17.7c-1,0-1.8-0.8-1.8-1.8
			S3.5,14,4.5,14c1,0,1.8,0.8,1.8,1.8c0,0,0,0,0,0C6.3,16.9,5.5,17.7,4.5,17.7z M15.3,11c-2,0-3.6-1.6-3.6-3.6s1.6-3.6,3.6-3.6
			c2,0,3.6,1.6,3.6,3.6c0,0,0,0,0,0C18.9,9.4,17.3,11,15.3,11z M26.1,17.7c-1,0-1.8-0.8-1.8-1.8s0.8-1.8,1.8-1.8s1.8,0.8,1.8,1.8
			c0,0,0,0,0,0C27.9,16.9,27.1,17.7,26.1,17.7L26.1,17.7z"/>
	</g>
</g>
</svg>
