<?xml version="1.0" encoding="UTF-8" standalone="no"?>
<!DOCTYPE svg PUBLIC "-//W3C//DTD SVG 1.1//EN" "http://www.w3.org/Graphics/SVG/1.1/DTD/svg11.dtd">

<svg height="100%" stroke-miterlimit="10" style="fill-rule:nonzero;clip-rule:evenodd;stroke-linecap:round;stroke-linejoin:round;" version="1.1" viewBox="0 0 545 545" width="100%" xml:space="preserve" xmlns="http://www.w3.org/2000/svg" xmlns:vectornator="http://vectornator.io" xmlns:xlink="http://www.w3.org/1999/xlink">
<defs>
<linearGradient gradientTransform="matrix(0.877037 0 0 0.877037 252.328 403.617)" gradientUnits="userSpaceOnUse" id="LinearGradient" x1="758.913" x2="57.4773" y1="-42.2496" y2="275.659">
<stop offset="0" stop-color="#d1b413"/>
<stop offset="1" stop-color="#a57d08"/>
</linearGradient>
<linearGradient gradientTransform="matrix(0.877037 0 0 0.877037 252.328 403.617)" gradientUnits="userSpaceOnUse" id="LinearGradient_2" x1="788.228" x2="0" y1="72.0631" y2="275.536">
<stop offset="0" stop-color="#fff362"/>
<stop offset="1" stop-color="#ffe233"/>
</linearGradient>
<linearGradient gradientTransform="matrix(0.877037 0 0 0.877037 122.527 78.2363)" gradientUnits="userSpaceOnUse" id="LinearGradient_3" x1="425.026" x2="95.6192" y1="108.236" y2="413.549">
<stop offset="0" stop-color="#bd9505"/>
<stop offset="1" stop-color="#997203"/>
</linearGradient>
<linearGradient gradientTransform="matrix(0.877037 0 0 0.877037 122.527 78.2363)" gradientUnits="userSpaceOnUse" id="LinearGradient_4" x1="445.954" x2="218" y1="-40.2554" y2="436">
<stop offset="0" stop-color="#ebd913"/>
<stop offset="1" stop-color="#ffe233"/>
</linearGradient>
<linearGradient gradientTransform="matrix(0.877037 0 0 0.877037 122.527 78.2363)" gradientUnits="userSpaceOnUse" id="LinearGradient_5" x1="619.059" x2="101.198" y1="-378.271" y2="387.672">
<stop offset="0" stop-color="#ffde17"/>
<stop offset="1" stop-color="#ffde16"/>
</linearGradient>
<linearGradient gradientTransform="matrix(0.877037 0 0 0.877037 256.642 235.353)" gradientUnits="userSpaceOnUse" id="LinearGradient_6" x1="386.103" x2="138.089" y1="100.71" y2="348.355">
<stop offset="0" stop-color="#9b8403"/>
<stop offset="1" stop-color="#a57d08"/>
</linearGradient>
</defs>
<g>
<path d="M0 272.5C0 122.002 122.002 4.61853e-14 272.5 4.61853e-14C422.998 4.61853e-14 545 122.002 545 272.5C545 422.998 422.998 545 272.5 545C122.002 545 0 422.998 0 272.5Z" fill="#eac636" fill-rule="evenodd" opacity="1" stroke="none"/>
<path d="M16.5 272.5C16.5 131.115 131.115 16.5 272.5 16.5C413.885 16.5 528.5 131.115 528.5 272.5C528.5 413.885 413.885 528.5 272.5 528.5C131.115 528.5 16.5 413.885 16.5 272.5Z" fill="none" fill-rule="evenodd" opacity="1" stroke="#c09300" stroke-linecap="butt" stroke-linejoin="miter" stroke-width="15"/>
<g opacity="1">
<g opacity="1">
<path d="M310.786 431.17C283.595 410.469 266.79 401.432 260.372 404.061C250.744 408.005 250.744 456.695 255.228 464.408C258.217 469.55 276.737 466.275 310.786 454.583C319.731 457.575 325.674 459.072 328.618 459.072C331.562 459.072 335.997 456.461 341.925 451.241C357.773 456.461 366.704 459.072 368.719 459.072C371.742 459.072 377.259 425.088 374.236 420.208C372.221 416.954 360.761 420.608 339.857 431.17C332.883 427.661 327.756 426.014 324.476 426.227C321.195 426.441 316.632 428.088 310.786 431.17Z" fill="url(#LinearGradient)" fill-rule="evenodd" opacity="1" stroke="none"/>
<path d="M310.045 435.685C309.119 434.403 276.856 414.107 268.721 417.439C260.586 420.771 258.749 451.236 262.537 457.753C265.044 462.065 281.032 459.621 310.5 450.419C310.649 450.372 310.649 449.201 310.5 446.906C310.95 448.868 311.634 450.075 312.552 450.526C318.656 453.528 326.364 454.49 328.725 454.49C330.983 454.49 335.566 451.596 340.281 447.488C341.73 446.225 341.73 444.237 342.009 444.034C342.306 443.817 341.712 446.557 342.009 447.383C342.306 448.208 360.885 454.49 364.493 454.49C368.101 454.49 370.13 430.67 367.576 426.546C365.955 423.93 354.153 425.884 342.551 435.003C340.905 436.297 341.614 437.478 341.614 437.478C341.614 437.478 341.148 437.084 340.215 436.297C333.169 432.104 328.261 430.098 325.489 430.279C322.972 430.442 316.04 431.612 311.733 435.154C310.99 435.766 311.393 438.775 310.971 439.01C310.728 439.146 310.971 436.967 310.045 435.685Z" fill="url(#LinearGradient_2)" fill-rule="evenodd" opacity="1" stroke="none"/>
</g>
<g opacity="1">
<path d="M335.619 78.4008C335.619 80.3366 340.628 94.9136 350.644 122.132L350.949 122.96L350.949 137.399L374.303 137.399C370.975 137.399 366.245 140.173 360.113 145.72L359.75 146.049L354.735 154.869C383.091 173.32 397.268 185.348 397.268 190.953C397.268 194.983 400.354 211.833 403.566 229.413L403.771 230.536C403.908 231.285 404.045 232.035 404.182 232.785L404.584 234.989L404.778 236.056C404.811 236.233 404.843 236.411 404.875 236.588L405.068 237.651C405.162 238.169 405.256 238.685 405.349 239.2C406.001 239.131 406.662 239.031 407.326 238.917L407.849 238.825C408.111 238.778 408.373 238.73 408.635 238.682L409.158 238.587C412.99 237.89 416.714 237.37 419.087 240.822C422.517 245.81 423.052 259.561 421.972 266.934C419.455 284.127 411.112 293.595 401.94 295.733C400.548 297.908 398.991 300.187 397.268 302.568C396.991 302.846 396.715 303.122 396.443 303.395L395.634 304.205C395.367 304.472 395.102 304.736 394.841 304.998L394.064 305.774C393.936 305.902 393.809 306.029 393.682 306.156L392.93 306.907C381.893 317.929 376.231 323.44 375.945 323.44C375.624 323.44 375.077 330.453 374.303 344.48C373.052 366.359 371.381 378.105 369.29 379.718C368.065 380.663 366.293 383.11 364.448 385.566L363.958 386.215L363.631 386.645L363.34 387.024C360.818 390.287 358.337 393.018 357.088 391.469C355.543 389.555 354.759 382.778 354.736 371.137L354.735 370.605L353.345 403.594C353.33 403.954 353.097 404.264 352.765 404.383L352.662 404.413L331.311 409.231C331.265 409.241 331.218 409.248 331.171 409.251C330.722 409.278 330.332 408.963 330.255 408.53L330.243 408.429L327.953 370.605L326.8 406.378C326.787 406.766 326.523 407.094 326.156 407.195L326.054 407.217L304.406 410.481C304.363 410.488 304.319 410.491 304.275 410.491C303.825 410.491 303.455 410.153 303.404 409.716L303.398 409.614L303.398 378.267C301.174 399.845 298.651 410.633 295.83 410.633C293.725 410.633 281.194 397.774 267.625 383.788L266.776 382.912C266.492 382.62 266.209 382.327 265.924 382.034L265.026 381.109C264.577 380.645 264.127 380.182 263.677 379.718C262.87 378.886 262.297 369.682 261.684 360.158L261.567 358.333C261.543 357.975 261.52 357.617 261.497 357.26L261.45 356.548L261.45 356.548L261.403 355.837L261.403 355.837L261.355 355.131C260.751 346.204 260.069 338.274 259.071 338.274C255.001 338.274 237.775 341.644 232.991 338.274C224.865 332.55 214.083 321.974 200.646 306.547C182.001 312.417 166.397 311.09 153.835 302.568C145.068 296.62 137.681 287.76 132.289 279.045C126.091 269.029 122.527 259.205 122.527 254.213C122.527 244.879 149.617 217.883 154.73 214.752C158.087 212.697 162.128 215.276 166.853 222.489L167.075 222.83L200.646 154.869C214.036 149.616 225.637 145.548 235.448 142.665L252.558 132.578C253.347 131.524 254.105 130.514 254.83 129.547L256.101 127.852C257.062 126.57 257.961 125.372 258.796 124.259L259.256 123.645C259.71 123.04 260.144 122.461 260.558 121.909L260.966 121.365C261.099 121.187 261.231 121.011 261.36 120.839L261.742 120.33C262.366 119.497 262.936 118.738 263.451 118.051L263.754 117.647C263.852 117.516 263.949 117.387 264.043 117.262L264.319 116.893C265.308 115.575 266.031 114.611 266.489 114L266.607 113.842C266.924 113.42 267.082 113.208 267.082 113.208C267.082 113.208 266.838 115.379 266.826 118.969L266.826 119.532C266.832 121.351 266.899 123.497 267.082 125.885C267.538 131.833 267.671 134.075 269.178 136.733C288.562 132.801 319.695 112.741 323.081 112.741C324.699 112.741 327.25 105.822 329.63 98.1811L329.846 97.4847C329.989 97.0193 330.132 96.5519 330.274 96.084L330.598 95.0083L330.784 94.3854C332.882 87.3318 334.685 80.5251 335.348 78.7075L335.404 78.5602C335.544 78.2025 335.619 78.1288 335.619 78.4008Z" fill="url(#LinearGradient_3)" fill-rule="evenodd" opacity="1" stroke="none"/>
<path d="M170.639 277.215C173.733 272.507 175.279 268.041 175.279 263.817C175.279 257.482 170.639 243.357 170.639 242.995C170.639 242.633 160.411 238.078 160.411 238.078C160.411 238.078 135.484 246.823 135.484 252.994C135.484 259.165 128.074 257.454 150.438 282.704C165.347 299.537 178.698 303.964 190.49 295.986L180.683 277.215L170.639 277.215Z" fill="url(#LinearGradient_4)" fill-rule="evenodd" opacity="1" stroke="none"/>
<path d="M359.162 240.439C347.433 242.023 336.063 237.55 325.053 227.021C308.537 211.228 274.582 175.574 265.946 180.398C257.309 185.223 215.932 226.681 211.572 260.151C207.212 293.621 263.549 332.944 290.55 332.944C317.551 332.944 290.55 337.602 275.17 335.22C264.917 333.632 265.532 349.495 277.014 382.809C287.59 398.832 293.753 406.254 295.504 405.074C298.13 403.305 300.811 361.557 301.732 360.035C302.652 358.514 305.04 356.845 306.598 358.645C307.637 359.844 308.161 375.963 308.169 407.001L323.369 405.074C323.926 374.286 324.487 358.386 325.053 357.376C325.901 355.861 333.43 351.119 334.547 354.114C335.291 356.111 335.609 373.098 335.502 405.074L348.737 403.08C350.371 372.721 351.312 356.399 351.559 354.114C351.93 350.687 356.995 351.669 356.995 351.669C356.995 351.669 357.718 362.878 359.162 385.295C360.837 381.695 362.789 379.127 365.016 377.593C367.243 376.059 368.71 367.056 369.417 350.583L370.132 338.578L371.017 323.726C394.339 300.385 405.08 282.257 403.242 269.34C400.484 249.966 375.243 219.055 371.017 216.98C366.79 214.906 350.235 222.323 347.861 227.021C346.279 230.153 350.046 234.626 359.162 240.439Z" fill="url(#LinearGradient_5)" fill-rule="evenodd" opacity="1" stroke="none"/>
<g opacity="1">
<path d="M332.283 287.12C323.54 305.575 319.168 316.458 319.168 319.769C319.168 323.08 326.861 323.827 342.246 322.012L344.46 326.977C346.304 327.875 345.566 322.89 342.246 312.024C338.927 301.157 335.605 292.856 332.283 287.12ZM256.642 279.781C256.642 294.414 285.02 320.723 290.227 320.723C295.433 320.723 308.294 304.875 308.294 294.913C308.294 284.952 303.623 257.886 296.925 251.357C290.227 244.828 286.199 238.413 275.586 236.631C264.973 234.849 273.76 233.51 279.049 242.849C284.338 252.188 256.642 265.147 256.642 279.781ZM365.954 264.415C355.781 277.65 352.39 290.082 355.781 301.711C360.868 319.155 365.954 314.787 365.954 314.787C365.954 314.787 381.695 302.979 381.695 296.411C381.695 289.844 380.943 270.475 374.523 270.475C370.243 270.475 367.386 268.455 365.954 264.415Z" fill="url(#LinearGradient_6)" fill-rule="evenodd" opacity="1" stroke="none"/>
<path d="M332.305 294.955L329.216 300.849C333.339 311.642 335.4 317.877 335.4 319.554C335.4 321.231 337.461 321.231 341.583 319.554L332.305 294.955Z" fill="#ffe233" fill-rule="evenodd" opacity="1" stroke="none"/>
</g>
<path d="M285.659 246.462C283.241 245.378 280.818 248.471 278.39 255.741C290.435 272.948 296.457 283.354 296.457 286.958C296.457 292.364 293.721 312.618 291.523 314.954C289.325 317.29 304.67 306.339 304.67 297.584C304.67 288.83 304.415 278.079 300.436 265.621C296.457 253.163 289.286 248.088 285.659 246.462Z" fill="#ffe233" fill-rule="evenodd" opacity="1" stroke="none"/>
<path d="M364.219 273.497C363.306 273.497 361.234 278.395 364.219 280.593C367.204 282.791 373.4 289.752 373.4 297.387C373.4 305.022 370.989 305.234 367.608 310.459C364.228 315.684 378.97 302.173 378.97 297.387C378.97 292.602 379.142 287.69 377.758 280.593C376.374 273.497 365.133 273.497 364.219 273.497Z" fill="#ffe233" fill-rule="evenodd" opacity="1" stroke="none"/>
</g>
</g>
</g>
</svg>
