<svg xmlns="http://www.w3.org/2000/svg" xmlns:xlink="http://www.w3.org/1999/xlink" width="256" height="256" viewBox="0 0 256 256"><defs><linearGradient id="a" x1="0.843" y1="0.135" x2="0.206" y2="0.886" gradientUnits="objectBoundingBox"><stop offset="0" stop-color="#b6509e"/><stop offset="1" stop-color="#2ebac6"/></linearGradient><clipPath id="c"><rect width="256" height="256"/></clipPath></defs><g id="b" clip-path="url(#c)"><path d="M128,256a128.976,128.976,0,0,1-25.8-2.6,127.309,127.309,0,0,1-45.77-19.261,128.366,128.366,0,0,1-46.375-56.315A127.357,127.357,0,0,1,2.6,153.8a129.251,129.251,0,0,1,0-51.593,127.31,127.31,0,0,1,19.26-45.77A128.372,128.372,0,0,1,78.177,10.059,127.33,127.33,0,0,1,102.2,2.6a129.244,129.244,0,0,1,51.593,0,127.308,127.308,0,0,1,45.77,19.26,128.367,128.367,0,0,1,46.375,56.316A127.343,127.343,0,0,1,253.4,102.2a129.248,129.248,0,0,1,0,51.593,127.3,127.3,0,0,1-19.26,45.77,128.382,128.382,0,0,1-56.316,46.375A127.4,127.4,0,0,1,153.8,253.4,128.977,128.977,0,0,1,128,256Zm0-242.287a115.145,115.145,0,0,0-23.033,2.322A113.657,113.657,0,0,0,64.1,33.232,114.622,114.622,0,0,0,22.7,83.515a113.7,113.7,0,0,0-6.659,21.452,115.4,115.4,0,0,0,0,46.065,113.66,113.66,0,0,0,17.2,40.866,114.627,114.627,0,0,0,50.282,41.407,113.75,113.75,0,0,0,21.453,6.658,115.381,115.381,0,0,0,46.065,0,113.609,113.609,0,0,0,40.866-17.2A114.622,114.622,0,0,0,233.3,172.485a113.741,113.741,0,0,0,6.659-21.453,115.4,115.4,0,0,0,0-46.065,113.662,113.662,0,0,0-17.2-40.865A114.619,114.619,0,0,0,172.485,22.7a113.74,113.74,0,0,0-21.453-6.659A115.145,115.145,0,0,0,128,13.714Z" fill="url(#a)"/><ellipse cx="98.285" cy="97.205" rx="98.285" ry="97.205" transform="translate(29.714 30.629)" fill="#1e1a31"/><g transform="translate(79.793 87.096)"><g transform="translate(0 0)"><g transform="translate(0)"><g transform="translate(0)"><path d="M34.548,34.967a4.835,4.835,0,0,1,0,9.669H22.171A21.859,21.859,0,0,1,.464,22.629,21.859,21.859,0,0,1,22.171.621H54.092a4.8,4.8,0,0,1,4.769,4.835,4.8,4.8,0,0,1-4.769,4.835H22.171a12.339,12.339,0,0,0,0,24.677Z" transform="translate(-0.464 -0.621)" fill="#fff" fill-rule="evenodd"/><path d="M34.085,34.346a4.835,4.835,0,0,1,0,9.669H21.707A21.859,21.859,0,0,1,0,22.008,21.859,21.859,0,0,1,21.707,0H53.628A4.8,4.8,0,0,1,58.4,4.835a4.8,4.8,0,0,1-4.769,4.835H21.707a12.339,12.339,0,0,0,0,24.677Z" transform="translate(58.397 78.361) rotate(180)" fill="#fff" fill-rule="evenodd"/><path d="M8.456,75.789.7,70.157,49.463,1.167,57.215,6.8Z" transform="translate(0.081 0.622)" fill="rgba(255,255,255,0.5)" fill-rule="evenodd"/></g></g></g></g><g transform="translate(145.643 161.814) rotate(-90)"><g transform="translate(0 0)"><path d="M5.633.228V15.687a8.011,8.011,0,0,0,1.239,4.874A4.582,4.582,0,0,0,10.778,22.2,4.636,4.636,0,0,0,14.7,20.561a7.92,7.92,0,0,0,1.258-4.874V.228h5.633V15.382q0,5.711-2.76,8.719T10.778,27.11q-5.3,0-8.037-3.008T0,15.382V.228ZM30.382,18.2a4.383,4.383,0,0,0,1.6,3.179,5.837,5.837,0,0,0,3.849,1.2,5.658,5.658,0,0,0,3.248-.857,2.723,2.723,0,0,0,1.258-2.38,2.171,2.171,0,0,0-.695-1.694,4.893,4.893,0,0,0-1.953-.99q-1.258-.362-3.887-.895a20.29,20.29,0,0,1-4.356-1.276,6.913,6.913,0,0,1-2.873-2.323,6.869,6.869,0,0,1-1.108-4.093,7.146,7.146,0,0,1,1.258-4.15,8.511,8.511,0,0,1,3.493-2.875A11.765,11.765,0,0,1,35.264,0a12.086,12.086,0,0,1,5.2,1.085,9.017,9.017,0,0,1,3.643,2.989,7.535,7.535,0,0,1,1.371,4.3H39.958a4.047,4.047,0,0,0-1.427-2.76,4.892,4.892,0,0,0-3.267-1.047,5.091,5.091,0,0,0-3,.8,2.633,2.633,0,0,0-1.127,2.285,2.082,2.082,0,0,0,.676,1.656,5.037,5.037,0,0,0,1.915.952q1.239.362,3.831.857a22.9,22.9,0,0,1,4.431,1.237A6.706,6.706,0,0,1,44.9,14.6,6.623,6.623,0,0,1,46,18.619a7.544,7.544,0,0,1-1.314,4.36,8.909,8.909,0,0,1-3.662,3.027,12.246,12.246,0,0,1-5.276,1.1,13,13,0,0,1-5.614-1.161,9.332,9.332,0,0,1-3.849-3.217,8.268,8.268,0,0,1-1.427-4.607Zm19-17.972H58.51a14.006,14.006,0,0,1,6.966,1.694,11.662,11.662,0,0,1,4.657,4.721,14.319,14.319,0,0,1,1.634,6.911,14.319,14.319,0,0,1-1.634,6.911,11.662,11.662,0,0,1-4.657,4.721,14.006,14.006,0,0,1-6.966,1.694H49.384ZM58.51,22.122a6.844,6.844,0,0,0,5.539-2.342,9.346,9.346,0,0,0,1.972-6.225A9.346,9.346,0,0,0,64.049,7.33,6.844,6.844,0,0,0,58.51,4.988H55.018V22.122Z"/><path d="M5.633.228V15.687a8.011,8.011,0,0,0,1.239,4.874A4.582,4.582,0,0,0,10.778,22.2,4.636,4.636,0,0,0,14.7,20.561a7.92,7.92,0,0,0,1.258-4.874V.228h5.633V15.382q0,5.711-2.76,8.719T10.778,27.11q-5.3,0-8.037-3.008T0,15.382V.228ZM30.382,18.2a4.383,4.383,0,0,0,1.6,3.179,5.837,5.837,0,0,0,3.849,1.2,5.658,5.658,0,0,0,3.248-.857,2.723,2.723,0,0,0,1.258-2.38,2.171,2.171,0,0,0-.695-1.694,4.893,4.893,0,0,0-1.953-.99q-1.258-.362-3.887-.895a20.29,20.29,0,0,1-4.356-1.276,6.913,6.913,0,0,1-2.873-2.323,6.869,6.869,0,0,1-1.108-4.093,7.146,7.146,0,0,1,1.258-4.15,8.511,8.511,0,0,1,3.493-2.875A11.765,11.765,0,0,1,35.264,0a12.086,12.086,0,0,1,5.2,1.085,9.017,9.017,0,0,1,3.643,2.989,7.535,7.535,0,0,1,1.371,4.3H39.958a4.047,4.047,0,0,0-1.427-2.76,4.892,4.892,0,0,0-3.267-1.047,5.091,5.091,0,0,0-3,.8,2.633,2.633,0,0,0-1.127,2.285,2.082,2.082,0,0,0,.676,1.656,5.037,5.037,0,0,0,1.915.952q1.239.362,3.831.857a22.9,22.9,0,0,1,4.431,1.237A6.706,6.706,0,0,1,44.9,14.6,6.623,6.623,0,0,1,46,18.619a7.544,7.544,0,0,1-1.314,4.36,8.909,8.909,0,0,1-3.662,3.027,12.246,12.246,0,0,1-5.276,1.1,13,13,0,0,1-5.614-1.161,9.332,9.332,0,0,1-3.849-3.217,8.268,8.268,0,0,1-1.427-4.607Zm19-17.972H58.51a14.006,14.006,0,0,1,6.966,1.694,11.662,11.662,0,0,1,4.657,4.721,14.319,14.319,0,0,1,1.634,6.911,14.319,14.319,0,0,1-1.634,6.911,11.662,11.662,0,0,1-4.657,4.721,14.006,14.006,0,0,1-6.966,1.694H49.384ZM58.51,22.122a6.844,6.844,0,0,0,5.539-2.342,9.346,9.346,0,0,0,1.972-6.225A9.346,9.346,0,0,0,64.049,7.33,6.844,6.844,0,0,0,58.51,4.988H55.018V22.122Z" fill="#fff"/></g></g></g></svg>