<?xml version="1.0" encoding="utf-8"?>
<!-- Generator: Adobe Illustrator 25.4.0, SVG Export Plug-In . SVG Version: 6.00 Build 0)  -->
<svg version="1.1" xmlns="http://www.w3.org/2000/svg" xmlns:xlink="http://www.w3.org/1999/xlink" x="0px" y="0px"
	 viewBox="0 0 540 540" style="enable-background:new 0 0 540 540;" xml:space="preserve">
<style type="text/css">
	.st0{fill:#277CE2;}
	.st1{fill:#7FFDFF;}
</style>
<g id="Text">
	<path class="st0" d="M181.16,393.54v14.51c-5.44-3.16-11.09-4.74-16.93-4.74c-2.62,0-4.62,0.54-6,1.61
		c-1.38,1.08-2.07,2.45-2.07,4.13c0,1.68,0.84,3.17,2.52,4.48c1.68,1.31,4.2,2.7,7.56,4.18c2.08,0.94,3.81,1.76,5.19,2.47
		c1.38,0.71,2.96,1.68,4.74,2.92c1.78,1.24,3.19,2.56,4.23,3.93c1.04,1.38,1.93,3.07,2.67,5.09c0.74,2.02,1.11,4.2,1.11,6.55
		c0,6.11-2.25,11.07-6.75,14.86c-4.5,3.8-10.48,5.69-17.94,5.69c-8,0-14.51-1.41-19.55-4.23V439.4c6.11,4.43,12.63,6.65,19.55,6.65
		c2.35,0,4.3-0.62,5.85-1.87c1.55-1.24,2.32-2.87,2.32-4.89c0-0.67-0.1-1.31-0.3-1.91c-0.2-0.6-0.57-1.18-1.11-1.71
		c-0.54-0.54-1.06-0.99-1.56-1.36c-0.5-0.37-1.24-0.81-2.22-1.31c-0.98-0.51-1.8-0.92-2.47-1.26c-0.67-0.34-1.66-0.81-2.97-1.41
		c-1.31-0.6-2.37-1.07-3.17-1.41c-4.37-2.02-7.88-4.5-10.53-7.46c-2.65-2.96-3.98-6.89-3.98-11.79c0-5.85,2.15-10.56,6.45-14.16
		c4.3-3.59,10.24-5.39,17.84-5.39C170.41,390.12,176.26,391.26,181.16,393.54z"/>
	<path class="st0" d="M230.65,391.53h11.49l6.65,23.98c1.41,5.04,2.67,9.73,3.78,14.06c1.11,4.33,1.86,7.41,2.27,9.22l0.6,2.72
		c0.87-5.98,2.75-14.68,5.64-26.1l6.25-24.89h15.82l-18.14,67.92h-17.33l-5.95-21.47c-1.41-5.17-2.57-9.54-3.48-13.1
		c-0.91-3.56-1.46-5.85-1.66-6.85l-0.2-1.51c-0.2,2.76-2.02,9.91-5.44,21.47l-6.25,21.47h-17.33l-18.24-67.92h16.33l6.25,24.99
		c1.34,5.38,2.45,10.23,3.33,14.56c0.87,4.33,1.41,7.34,1.61,9.02l0.4,2.42c1.14-5.24,3.43-13.91,6.85-26L230.65,391.53z"/>
	<path class="st0" d="M292.62,458.45v-67.92h15.52v67.92H292.62z"/>
	<path class="st0" d="M320.74,458.45l5.84-67.92h17.03l9.47,24.59c1.61,4.1,2.99,7.86,4.13,11.29c1.14,3.43,1.88,5.84,2.22,7.26
		l0.51,2.02c1.07-4.43,3.43-11.29,7.05-20.56l9.57-24.59h17.03l7.06,67.92h-15.52l-2.52-26.3l-1.31-19.85
		c-1.75,5.04-4.17,11.66-7.26,19.85l-9.57,25.6h-9.17l-9.47-25.6c-1.55-4.16-2.86-7.89-3.93-11.19c-1.08-3.29-1.78-5.58-2.12-6.85
		l-0.5-1.81c0,4.77-0.3,11.39-0.91,19.85l-2.12,26.3H320.74z"/>
</g>
<g id="Glass">
	<path class="st1" d="M248.61,193.17c-3.62,0.09-7.23,0.18-10.82,0.32c-2.07,0.08-4.12,0.18-6.18,0.27
		c-3.24,0.14-6.48,0.29-9.69,0.47c-2.17,0.12-4.32,0.26-6.47,0.4c-3.08,0.2-6.16,0.4-9.21,0.64c-2.17,0.16-4.33,0.34-6.49,0.52
		c-3,0.25-5.99,0.52-8.95,0.8c-2.12,0.2-4.24,0.41-6.35,0.63c-2.97,0.31-5.91,0.64-8.84,0.99c-2.03,0.24-4.07,0.47-6.08,0.73
		c-3,0.38-5.95,0.79-8.89,1.2c-1.87,0.26-3.76,0.51-5.6,0.79c-0.51,0.08-1,0.16-1.51,0.24v81.4c0,3.38,1.97,6.44,5.05,7.84
		l24.36,11.07c10.93,4.97,23.55,5.59,34.56,0.82c11-4.76,19.12-13.66,22.85-25.04l4.82-14.73c3.51-10.72,13.3-18.52,24.58-18.61
		c11.48-0.1,21.23,6.91,24.8,17.79l4.71,14.38c3.73,11.4,11.81,21.11,22.76,26c10.95,4.89,23.01,4.85,33.92-0.11l25.47-11.58
		c3.08-1.4,5.05-4.46,5.05-7.84v-81.4c-15.14-2.3-31.03-4.13-47.45-5.49c-2.62-0.22-5.26-0.4-7.9-0.59c-3-0.22-6-0.44-9.04-0.62
		c-2.81-0.17-5.64-0.3-8.46-0.45c-2.88-0.15-5.75-0.31-8.66-0.42c-3.38-0.14-6.78-0.22-10.18-0.32c-2.39-0.07-4.77-0.16-7.17-0.21
		c-5.84-0.12-11.71-0.18-17.6-0.18c-5.41,0-10.8,0.06-16.17,0.16C252.09,193.06,250.35,193.12,248.61,193.17z"/>
</g>
<g id="Frame">
	<path class="st0" d="M338.87,334.38c-9.59,0-19.18-1.96-28.14-5.9c-18.19-7.99-32.18-23.41-38.37-42.29l-2.36-7.22l-2.36,7.22
		c-6.19,18.89-20.17,34.3-38.37,42.29c-18.19,7.99-39.01,7.86-57.1-0.36l-25.47-11.58c-13.32-6.06-21.88-19.34-21.88-33.98v-93.64
		c0-6.99,5.03-12.96,11.91-14.14h0c40.18-6.94,86.26-10.6,133.26-10.6c15.36,0,30.62,0.39,45.61,1.15
		c15.9,0.81,27.92,14.73,26.55,30.59v0c-23.3-2.01-47.58-3.03-72.16-3.03c-40.79,0-80.77,2.84-116.47,8.25v81.43
		c0,3.38,1.97,6.44,5.05,7.84l24.36,11.07c10.93,4.97,23.55,5.59,34.56,0.82c11-4.76,19.12-13.66,22.85-25.04l4.82-14.73
		c3.51-10.72,13.3-18.52,24.58-18.61c11.48-0.1,21.23,6.91,24.8,17.79l4.71,14.38c3.73,11.4,11.81,21.11,22.76,26
		c10.95,4.89,23.01,4.85,33.92-0.11l25.47-11.58c3.08-1.4,5.05-4.46,5.05-7.84V80.75h28.71v201.81c0,14.64-8.56,27.92-21.88,33.98
		l-25.47,11.58C358.64,332.29,348.76,334.38,338.87,334.38z"/>
</g>
</svg>
