<svg id="Layer_1" data-name="Layer 1" xmlns="http://www.w3.org/2000/svg" viewBox="0 0 1024 1024"><rect width="1024" height="1024" fill="#031e28"/><path d="M673.24,780.71c-9.2,7.58-19,14.57-31.48,19.9,0-8.78.21-16.57,0-24.36-.42-12.24-7-15.65-17.24-8.82q-69,46-150.51,30.77A192.3,192.3,0,0,1,402.06,769c-4.24-2.88-8.28-7.08-14.11-4.17-6.33,3.13-5.37,9.33-5.5,14.83-.16,6.41,0,12.82,0,19.36-.46.2-1.42,1-1.79.79-44.3-24.48-77.4-57.71-83.48-110.63-3.83-33.47,8.41-62.41,29.6-87.64,20-23.82,45.22-40.72,73.91-52.63,7-2.92,13.61-6.75,20.4-10.16,1.12-4,3.2-7.62,5.2-11.24a476.28,476.28,0,0,1,169.38-4.62c.21.58.5,1.16.75,1.75,2.12,4.7,6.24,8.45,6.58,14,16.73,10.37,35.93,15.7,52.5,26.61,35.1,23.15,62.95,52,70.41,94.85C734.69,711.18,711.21,749.44,673.24,780.71Z" fill="#ddd"/><path d="M671.85,756.3c-3.25,2.53-6.58,5-10.08,7.33a13.54,13.54,0,0,1-21.14-10.83l0-.67c-.41-11.46-6.89-14.65-17.09-8.26q-68.41,43-149.21,28.8A196.73,196.73,0,0,1,403,745.31c-4.21-2.69-8.21-6.62-14-3.9-6.28,2.93-5.33,8.73-5.45,13.88v.18a9.22,9.22,0,0,1-14.86,7.16c-23.06-18.09-65.34-56.09-69.71-92-3.8-31.33,8.34-58.41,29.35-82,19.85-22.29,44.83-38.11,73.27-49.25,5.15-2,10.09-4.53,15.05-7a15.22,15.22,0,0,0,6.9-6.88l.15-.3a12.88,12.88,0,0,1,9.14-7A501.3,501.3,0,0,1,594.91,515c.21.55.49,1.09.74,1.64,1.57,3.29,4.25,6.07,5.64,9.43a12.73,12.73,0,0,0,5.82,6.39c15.36,8,32.29,13,47.12,22.17,34.79,21.67,62.41,48.63,69.8,88.77C732.78,691.22,709.5,727,671.85,756.3Z" fill="#fff"/><path d="M665.91,548.5a93,93,0,0,0,5.37-9.16C667.78,542,664.66,544.67,665.91,548.5Zm10.7-104.88c-18.61-15.57-39.6-20.4-63.16-15a42.73,42.73,0,0,1-8.37,1c-19.69.21-29.85-15.32-20.24-32.56,13.45-24.06,35.69-34.68,62.29-37.3,6.75-.38,13,1.5,18.78,4.2a52.46,52.46,0,0,1,13.82,9.83,717.45,717.45,0,0,0-36.14-121.29c-6.08,14.78-11.74,29.77-15.32,45.34-2.91,12.87-9.66,15.49-21.73,13.2a519.41,519.41,0,0,0-91.23-8.74c-32.31-.33-64.28,3.16-96.09,8.24-17.62,2.83-17.7,2.54-23.11-13.78-4.79-14.36-9.66-28.77-15.2-42.88-6.87,17.28-25,65.49-36.76,120.53.12-.16.29-.33.41-.46,8.91-9.32,20.07-14.61,39.72-13.69,18.24,1.87,38.48,12.07,52.84,32.35,5.79,8.2,8.49,17.4,2.87,27.1-5.83,10.12-15.74,11.58-25.31,9.41-26.23-5.91-49.05-.62-70,16.28a72,72,0,0,1-9.5,7c-.54.29-1.12.58-1.66.83-.71,18.45.17,36.39,3.29,53.05a44.3,44.3,0,0,1,1.41-10.91,45.69,45.69,0,0,1,7-14.95c14.07-19.78,38.14-26.48,59.91-16.66,20,9,30.6,31.48,25.61,53.13-1.83,8-7.5,14.08-9.66,21.82a.28.28,0,0,0,.17,0,296.36,296.36,0,0,1,181.49-.09H603c-.34-5.53-4.46-9.28-6.58-14-9.12-19.95-2.37-44.22,16-56.84C632.48,454,657.87,457,674.9,475.1a45.42,45.42,0,0,1,10.79,19A244.07,244.07,0,0,0,688.56,451,58.38,58.38,0,0,1,676.61,443.62Zm-326,94a43.68,43.68,0,0,1-9-11.74,114.62,114.62,0,0,0,12.28,26.77c2-1.83,3-3.62,3-5.58-.08-2.17-1.5-4.62-4.5-7.66A21.56,21.56,0,0,0,350.64,537.64Z" fill="#36ffe7"/><path d="M342.27,525.11c3.08,9.66,13.65,13.1,18.82,21.22-1.38,1.29-9.55,8.74-11.8,10.19-18.4,11.62-33.62,28.08-48.15,46.74-1-66-5.79-129.87-2-193.61,1.5-25.19,13.37-49.47,23.52-73.11a447,447,0,0,1,30.52-58.92c3.13-5.08,7.75-11.2-.08-15.45-6.79-3.7-11.66.17-15.7,6.58-31.22,49.59-50,104.3-65.86,160.18-4.92,17.4-8.54,35.14-12.91,52.66-2.46,10.08-6.12,19.74-17.07,23.15-11.37,3.59-19.86-1.91-27.9-9.82a407.62,407.62,0,0,1-53.75-65c-22.11-33.35-14.7-76.11,15.78-102.21,46.47-39.77,97.47-72.49,151.89-100.14,23.86-12.11,40-6.62,50.09,18.16,1.12,2.7,2.2,5.45,3.2,8.16-6.87,17.28-25,65.49-36.76,120.53l-.21.21c-13.16,13.91-24,29.44-29.23,48.26-2.83,10.24-5.91,21.23,4.16,28.85,5.29,4,10.2,3.62,14.66,1.54-.71,18.45.17,36.39,3.29,53.05a.06.06,0,0,0,0,.08C336.82,513.07,339.06,519,342.27,525.11Z" fill="#2fccb2"/><path d="M864.31,430.47c-16.41,23.94-34.77,46.34-56,66.28-16.49,15.49-35.81,10.95-41.22-11-10.83-43.72-21.57-87.4-37.93-129.53-10.83-27.81-22.82-55-38.14-80.65-1.88-3.12-3.83-6.16-5.79-9.2-3.66-5.75-8.83-7.16-14.49-3.75-6.29,3.79-3.66,8.74-.67,13.45a421.14,421.14,0,0,1,38.56,77.73c11,29,18.94,58.17,17.78,90.15-1.88,50.25-.63,100.59-3.29,150.89-.08,1.49-.33,3-.75,6.45-13.45-15.11-25.48-29.48-40.76-40.43-5.54-4-16.1-8.69-17.77-13.94,2-2.95,4.91-5,6.54-8.21,2.33-1.75,5.73-2.87,7.31-5,9-11.91,11.7-26.4,8-39.64A244.07,244.07,0,0,0,688.56,451l1.46.71c12.7,6,20.94.71,21.4-13.66.58-19-14.57-48-31.69-64.28a717.45,717.45,0,0,0-36.14-121.29c1.13-2.7,2.25-5.45,3.38-8.16,9.36-22.4,26-28.48,47.71-17.69a735.73,735.73,0,0,1,106.51,64C818.3,303,834.87,316.18,851,329.79,880,354.19,885.79,399.07,864.31,430.47Z" fill="#2fccb2"/><path d="M241.91,455.81s-1.75-.42-6.36-5a389.7,389.7,0,0,1-51-61.68,59.1,59.1,0,0,1,10.62-77.54c39.47-33.76,85.56-59,135.75-85.69-1,1.26-2.92,1-3.86,2.49-34.26,54.4-53.74,114.23-68.28,165.59-3.24,11.48-5.93,23-8.53,34.2-1.48,6.38-3,12.75-4.55,19.1-1.59,6.52-2.7,8.05-3,8.36A6.12,6.12,0,0,1,241.91,455.81Zm550.36,6.46a12.83,12.83,0,0,1-1.67-4.18l-.39-1.55c-10.66-43.09-21.7-87.64-38.35-130.53-13.43-34.51-25.66-60.34-39.67-83.79-2-3.31-4-6.5-6.09-9.7-.37-.56-.74-1.11-1.12-1.65a706.69,706.69,0,0,1,87.26,53.9c15.73,11.41,32.43,22.9,49.45,37.25,20.83,17.51,24.31,51.26,8.74,74-16.84,24.58-34.21,45.14-53.08,62.87A14.6,14.6,0,0,1,792.27,462.27Z" fill="#36ffe7"/><path d="M420.41,429.92a38.56,38.56,0,0,1-5.74-.83c-26.24-5.91-49-.62-70,16.28-6.92,5.58-15.66,14-25.82,6.33s-7-18.61-4.16-28.85c5.08-18.16,15.32-33.27,27.85-46.8-3,11-11.28,48.63,19.28,41A66.74,66.74,0,0,1,420.41,429.92Z" fill="#dbdcd6"/><path d="M440,419.68c-4.66,8.12-11.91,10.66-19.57,10.24A66.74,66.74,0,0,0,361.83,417c-30.56,7.66-22.28-29.94-19.28-41l2-2.13c8.91-9.32,20.11-14.61,39.76-13.69,18.2,1.87,38.43,12.07,52.8,32.35C442.94,400.78,445.6,410,440,419.68Z" fill="#fff"/><path d="M647.12,359.72c6.78-.38,13,1.52,18.81,4.2,21.73,9.95,46.24,50.06,45.48,74.12-.45,14.35-8.68,19.71-21.41,13.65a63,63,0,0,1-13.39-8.06C658,428.05,637,423.23,613.45,428.57a40,40,0,0,1-8.36,1c-19.71.23-29.86-15.33-20.24-32.55C598.31,373,620.55,362.36,647.12,359.72Z" fill="#b0e0e8"/><path d="M568.19,626.86c-8.66,15.49-21.65,26.86-37.43,34.85-2.5,1.25-5.25,2-7.29,4.54-16.57,2-22.19-.42-22.19-.42-10.37-5.82-20.77-10.65-29-18.86-6.33-6.28-12.24-12.78-16.49-20.69-11-20.57-4.2-37.72,18.45-43.72a146.87,146.87,0,0,1,75.28-.08C572.73,588.47,579.93,605.8,568.19,626.86Z" fill="#b9b9ba"/><path d="M482.11,737.07c-7.19-2.79-15.74-6.61-16.4-13.94s8.66-10.64,14.56-14.34c21.6-13.51,50.43-11.42,70.77,4.61,10.53,8.3,10.62,10.67.23,18.59-2.78,2.12-5.33,4.88-9.21,5.14C528.8,720.83,495.54,720.8,482.11,737.07Z" fill="#ffc5e3"/><path d="M482.11,737.07c13.43-16.27,46.69-16.24,59.95.06C522.07,747.39,502.08,747.19,482.11,737.07Z" fill="#ff007a"/><path d="M602,430.12a41.36,41.36,0,0,0,5.93-.86c27.1-6.11,50.63-.64,72.31,16.82,7.14,5.76,16.17,14.49,26.67,6.54s7.22-19.23,4.3-29.81c-5.25-18.75-15.83-34.37-28.78-48.35,3.1,11.4,11.66,50.24-19.91,42.33A68.92,68.92,0,0,0,602,430.12Z" fill="#dbdcd6"/><path d="M581.76,419.54c4.82,8.39,12.3,11,20.22,10.58a68.92,68.92,0,0,1,60.52-13.33c31.57,7.91,23-30.93,19.91-42.33l-2.06-2.19c-9.21-9.64-20.78-15.1-41.08-14.15-18.8,1.93-39.7,12.47-54.54,33.42C578.71,400,576,409.52,581.76,419.54Z" fill="#fff"/><path d="M568.19,610.21c-8.66,15.49-21.65,26.85-37.43,34.85-2.5,1.25-5.25,2-7.29,4.54-16.57,1.95-22.19-.42-22.19-.42-10.37-5.83-20.77-10.66-29-18.86-6.33-6.29-12.24-12.78-16.49-20.69-11-20.57-4.2-37.73,18.45-43.72a147,147,0,0,1,75.28-.09C572.73,571.82,579.93,589.14,568.19,610.21Z" fill="#031e28"/><path d="M614.91,629.86c-5.79-2.62-9.87.54-12.37,6.16-5.12,11.58-14.82,18.32-26.56,20.7-18,3.7-35.89,2.45-52.51-7.12-16.57,1.95-22.19-.42-22.19-.42-31.6,17.15-60.12,11.37-80.86-15.82-2.74-3.62-6.12-5.33-10.45-3.75-5,1.83-6.24,6-5.16,10.83,1.21,5.16,3.46,10.57,7.58,13.45,13.32,9.28,14.4,23.31,16.94,37.43,6.75,37,38.27,66.91,71.53,70.61,50.22,5.58,84.94-29,93.85-70,3.08-14.2,3.25-29.19,17.53-38.39,3-2,4.62-6.5,6.2-10.16C620.69,638.15,620.9,632.53,614.91,629.86ZM551.29,732c-2.79,2.13-5.33,4.88-9.25,5.13-20,10.28-40,10.07-59.91,0-7.2-2.79-15.78-6.62-16.41-13.94s8.66-10.66,14.54-14.33c21.6-13.53,50.46-11.45,70.78,4.58C561.57,721.71,561.65,724.08,551.29,732Z" fill="#031e28"/><path d="M670.07,276.08s-11.91-26.28-25.29-26.52c0,0-13.19,34.63-19,55.26s38.76-21.56,72.29,23.4" fill="#ff007a"/><path d="M353.34,275.89S365.44,249.21,379,249c0,0,13.39,35.15,19.29,56.1s-42.23-21.33-72.21,23.75" fill="#ff007a"/><path d="M614.92,312c.47-.19,1-.35,1.42-.55-1.32-.1-2.63-.15-3.94-.22-2.84-.64-5.28-.44-8.55-1.55-4.21-1.42-8.43-2.86-12.73-3.94-8.6-2.16-17.25-4.37-26-5.72-4.4-.74-8.8-1.44-13.22-2.06s-8.87-.93-13.32-1.38c-8.89-.94-17.85-1.05-26.79-1.31a319,319,0,0,0-53.47,4.16c-17.58,3-35.12,4-51.13,11.75,16,7.77,33.55,12.09,51.13,15.14a321.1,321.1,0,0,0,53.47,4.16c8.94-.27,17.9-.37,26.79-1.32,4.45-.45,8.89-.81,13.32-1.38s8.82-1.32,13.22-2.06c8.8-1.35,17.45-3.56,26-5.72,4.3-1.07,8.52-2.52,12.73-3.93,3.7-1.27,7.38-2.58,11-4h.1Z" fill="#a9fff3"/><path d="M861.6,314.8A786,786,0,0,0,700.38,209.71c-28.56-14-56-4.12-68.49,25.28a478.85,478.85,0,0,0-17.32,47.42c-2.62,8.49-5.78,11.7-15.07,9.57-10.53-2.41-21.44-3.33-32.23-4.28-48.75-4.38-97.34-3.58-145.64,4.74-5.62,1-8.37,0-10.37-6.24-5.7-17.53-11.86-35-19.07-51.92-12-28.36-40.22-38.35-67.82-24.78-58.71,28.94-113.25,64.21-163.13,106.59-28.85,24.53-41.3,65.29-27.77,100.59,16.11,42,46.3,74.28,80.56,102,19.2,15.53,49.18,4,58.92-19.65,2-5,3.29-10.2,5.16-16.07,2.79,3.87,2.08,7.16,2.17,10.28.66,33.81.66,67.62,2.62,101.39,0,.5,0,1,.08,1.54,1.09,17,4.08,34.31-.2,51.29-7.42,29.15-4.88,57.38,7.12,84.77,14,32.06,37.68,55.75,66.61,74.45,3.25,2.08,17.57,12.28,31.9,11.28,11.45-.79,14.44-13.36,13.86-25.64,73,37.09,145.35,38,217.88.62,3.21,1.71,1.33,4.91,1.79,7.37,3.13,15.95,17.41,23.36,31.73,15.49C708.05,786,737.4,741.74,742.9,703.93c4.62-31.77-3.34-60.62-2.75-75.86.66-16.65,1.45-33.27,2.08-49.92.83-20.78,1.41-41.51,1.25-62.33-.09-10.49,0-20.94,0-31.44,1.12-.08,2.25-.2,3.41-.33.42,1.83.75,3.67,1.29,5.41,11.74,38.48,46.14,47.22,75.07,19.07A414.54,414.54,0,0,0,879,442C907,400.28,899.86,347.15,861.6,314.8Zm2.71,115.67c-16.41,23.94-34.77,46.34-56,66.28-16.49,15.49-35.81,10.95-41.22-11-10.83-43.72-21.57-87.4-37.93-129.53-10.83-27.81-22.82-55-38.14-80.65-1.88-3.12-3.83-6.16-5.79-9.2-3.66-5.75-8.83-7.16-14.49-3.75-6.29,3.79-3.66,8.74-.67,13.45a421.14,421.14,0,0,1,38.56,77.73c11,29,18.94,58.17,17.78,90.15-1.54,40.76-1,81.6-2.17,122.45q-.37,14.18-1.12,28.44c-.08,1.49-.33,3-.75,6.45-13.45-15.11-25.48-29.48-40.76-40.43-5.54-4-14-7.12-15.7-12.37-1-3,.75-5.33,3.25-7.45,2.75-2.37,6.45-4.54,8.53-7.28,13.7-18.07,12.79-42.06-2.79-58.67-17-18.15-42.42-21.11-62.53-7.33a46.26,46.26,0,0,0-16.74,55.09c.21.58.5,1.16.75,1.75,2.12,4.7,6.24,8.45,6.58,14,16.73,10.37,35.93,15.7,52.5,26.61,35.1,23.15,62.95,52,70.41,94.85,8.82,51.13-14.66,89.39-52.63,120.66-9.2,7.58-19,14.57-31.48,19.9,0-8.78.21-16.57,0-24.36-.42-12.24-7-15.65-17.24-8.82q-69,46-150.51,30.77A192.3,192.3,0,0,1,402.06,769c-4.24-2.88-8.28-7.08-14.11-4.17-6.33,3.13-5.37,9.33-5.5,14.83-.16,6.41,0,12.82,0,19.36-.46.2-1.42,1-1.79.79-44.3-24.48-77.4-57.71-83.48-110.63-3.83-33.47,8.41-62.41,29.6-87.64,20-23.82,45.22-40.72,73.91-52.63,7-2.92,13.61-6.75,20.4-10.16,1.12-4,3.2-7.62,5.2-11.24a40.36,40.36,0,0,0,4.46-10.58c5-21.65-5.62-44.13-25.61-53.13-21.77-9.82-45.84-3.12-59.91,16.66-12.62,17.74-11.12,41.68,5.45,57.21,5.54,5.16,7.25,8.62,5.79,11.86-1.08,2.34-3.83,4.58-8,7.21-18.41,11.61-32.77,27.89-47.3,46.55-.13-7.37-.25-14.7-.46-22-1.46-58.21-4.91-115-1.5-171.58,1.5-25.19,13.37-49.47,23.52-73.11a447,447,0,0,1,30.52-58.92c3.13-5.08,7.75-11.2-.08-15.45-6.79-3.7-11.66.17-15.7,6.58-31.22,49.59-50,104.3-65.86,160.18-4.92,17.4-8.54,35.14-12.91,52.66-2.46,10.08-6.12,19.74-17.07,23.15-11.37,3.59-19.86-1.91-27.9-9.82a407.62,407.62,0,0,1-53.75-65c-22.11-33.35-14.7-76.11,15.78-102.21,46.47-39.77,97.47-72.49,151.89-100.14,23.86-12.11,40-6.62,50.09,18.16,6.82,16.73,12.69,33.89,18.4,51,5.41,16.32,5.49,16.61,23.11,13.78,31.81-5.08,63.78-8.57,96.09-8.24A519.41,519.41,0,0,1,606.54,311c12.07,2.29,18.82-.33,21.73-13.2,4.25-18.44,11.41-36.05,18.7-53.5,9.36-22.4,26-28.48,47.71-17.69a735.73,735.73,0,0,1,106.51,64C818.26,303,834.87,316.18,851,329.79,880,354.19,885.79,399.07,864.31,430.47Z" fill="#031e28"/><circle cx="396.52" cy="492.38" r="14" fill="#fff"/><circle cx="627.69" cy="492.38" r="14" fill="#fff"/></svg>