<?xml version="1.0" encoding="utf-8"?>
<!-- Generator: Adobe Illustrator 26.0.1, SVG Export Plug-In . SVG Version: 6.00 Build 0)  -->
<svg version="1.1" id="Layer_1" xmlns="http://www.w3.org/2000/svg" xmlns:xlink="http://www.w3.org/1999/xlink" x="0px" y="0px"
	 viewBox="0 0 216 216" style="enable-background:new 0 0 216 216;" xml:space="preserve">
<style type="text/css">
	.st0{fill:#A9D9C2;}
	.st1{fill:#00A39A;}
</style>
<path class="st0" d="M124.33,149.53c-8.18-1.3-16.29-3.32-24.14-5.29c-15.42-3.86-31.37-7.84-47.97-6.18
	c-6.27,0.63-12.65,1.27-19.04,2.39c0.58,1.32,1.19,2.62,1.83,3.9c2.21-0.23,4.42-0.41,6.61-0.6c2.08-0.17,4.17-0.35,6.25-0.56
	c18.75-1.17,39.12,1.79,62.35,9.05c19.39,6.46,41.58,7.13,63.88,2.13c1.04-1.49,2.04-3.01,2.99-4.57
	c-8.2,1.84-16.65,2.79-25.27,2.79C142.78,152.6,133.57,151.58,124.33,149.53z"/>
<path class="st0" d="M126.89,126.53c-8.18-1.3-16.29-3.32-24.14-5.29c-15.42-3.86-31.37-7.84-47.97-6.18
	c-9.07,0.91-18.36,1.84-27.57,4.23c0.28,2,0.63,3.98,1.05,5.93c5.29-1.02,10.65-1.47,15.92-1.91c2.08-0.17,4.17-0.35,6.25-0.56
	c18.76-1.17,39.12,1.79,62.35,9.05c24.45,8.15,49.76,5.34,72.19,0.54c0.76-2.42,1.4-4.89,1.94-7.4
	c-10.42,3.09-21.35,4.65-32.53,4.65C145.34,129.6,136.12,128.58,126.89,126.53z"/>
<path class="st0" d="M111.22,136.67c-22.58-7.06-42.34-9.94-60.37-8.82c-2.02,0.2-4.13,0.38-6.24,0.56
	c-5.19,0.43-10.23,0.86-15.1,1.77c0.52,1.84,1.09,3.65,1.73,5.43c6.9-1.27,13.75-1.96,20.47-2.63c17.48-1.74,33.87,2.35,49.72,6.31
	c7.76,1.94,15.79,3.95,23.77,5.21l0.16,0.03c18.91,4.2,37.69,3.91,55.04-0.78c0.92-1.88,1.77-3.8,2.55-5.76
	c-11.58,2.35-23.88,4.1-36.43,4.1C134.85,142.09,122.97,140.59,111.22,136.67z"/>
<path class="st0" d="M108.66,157.11c-22.58-7.06-42.34-9.94-60.37-8.82c-2.02,0.2-4.13,0.38-6.24,0.56
	c-1.47,0.12-2.93,0.25-4.37,0.38c0.74,1.26,1.51,2.5,2.32,3.71c10.61-1.12,21.81-0.94,33.99,0.49c9.81,1.31,18.99,3.93,27.88,6.47
	c8.71,2.49,17.71,5.06,27.11,6.31c12.39,1.46,24.47,0.75,36.12-1.02c1.48-1.49,2.88-3.04,4.24-4.63
	c-8.17,1.48-16.31,2.24-24.28,2.24C132.34,162.8,120.05,160.91,108.66,157.11z"/>
<path class="st0" d="M128.34,171.28c-9.81-1.31-18.99-3.93-27.88-6.47c-8.71-2.49-17.71-5.06-27.11-6.31
	c-10.64-1.25-20.5-1.5-29.86-0.74c1.37,1.76,2.79,3.46,4.29,5.1c19.42-1.15,38.36,0.84,56.01,5.99l0.12,0.04
	c15.67,5.45,31.62,7.92,47.34,7.47c2.47-1.59,4.85-3.3,7.13-5.13c-5.16,0.56-10.39,0.88-15.71,0.88
	C137.96,172.11,133.18,171.85,128.34,171.28z"/>
<path class="st0" d="M52.66,167.74c1.22,1.12,2.47,2.21,3.76,3.26c13.27,0.58,25.67,3.96,38.63,7.52c7.28,2,14.8,4.06,22.59,5.62
	c4.78,0.76,9.46,1.19,14.06,1.39c3.59-1.12,7.08-2.5,10.44-4.09c-13.29-0.55-26.66-3.12-39.84-7.69
	C86.62,169.17,69.87,167.17,52.66,167.74z"/>
<path class="st0" d="M64.62,176.86c12.46,7.8,27.18,12.33,42.93,12.33c2.57,0,5.11-0.13,7.62-0.37c-7.49-1.56-14.6-3.49-21.48-5.38
	C83.87,180.74,74.36,178.15,64.62,176.86z"/>
<path class="st0" d="M113.78,111.11c-22.58-7.06-42.35-9.94-60.37-8.82c-2.02,0.2-4.13,0.38-6.24,0.56
	c-7.2,0.6-14.13,1.18-20.7,3.09c-0.02,0.7-0.05,1.4-0.05,2.11c0,2.06,0.1,4.09,0.25,6.1c9.3-2.34,18.56-3.27,27.6-4.17
	c17.48-1.74,33.87,2.35,49.72,6.31c7.76,1.94,15.79,3.95,23.77,5.21l0.16,0.03c20.72,4.6,41.29,3.81,59.99-2.24
	c0.34-2.47,0.59-4.97,0.7-7.5c-12.48,2.67-25.85,4.74-39.54,4.74C137.41,116.53,125.53,115.03,113.78,111.11z"/>
<path class="st1" d="M107.56,26.91c-42.22,0-76.99,32.41-80.78,73.66c6.59-1.69,13.35-2.26,19.97-2.81
	c2.08-0.17,4.17-0.35,6.25-0.56c18.75-1.17,39.12,1.79,62.35,9.05c24.86,8.29,50.61,5.24,73.31,0.3
	C187.85,62.5,151.79,26.91,107.56,26.91z"/>
</svg>
