<svg width="24" height="24" viewBox="0 0 24 24" fill="none" xmlns="http://www.w3.org/2000/svg">
<circle cx="12" cy="12" r="11.75" fill="black" stroke="black" stroke-width="0.5"/>
<path d="M5.52205 8.72842L7.31094 6.79657C7.36771 6.73525 7.44749 6.7004 7.53105 6.7004L18.2343 6.70021C18.5906 6.70021 18.7691 7.13107 18.5171 7.38305L16.6171 9.28304C16.5421 9.35805 16.4404 9.4002 16.3343 9.4002H5.81554C5.46654 9.4002 5.28492 8.9845 5.52205 8.72842Z" fill="url(#paint0_linear_1004_2054)"/>
<path d="M7.28286 13.183L5.4829 11.383C5.23092 11.131 5.40938 10.7002 5.76574 10.7002H16.3388C16.4422 10.7002 16.5417 10.7403 16.6162 10.8121L18.4854 12.6119C18.7447 12.8616 18.568 13.3 18.2079 13.3L7.56571 13.3002C7.45962 13.3002 7.35788 13.2581 7.28286 13.183Z" fill="url(#paint1_linear_1004_2054)"/>
<path d="M18.1344 14.7998L7.56573 14.8C7.45964 14.8 7.35791 14.8421 7.28289 14.9172L5.58289 16.6172C5.3309 16.8691 5.50937 17.3 5.86573 17.3H16.4343C16.5404 17.3 16.6422 17.2579 16.7172 17.1828L18.4172 15.4827C18.6692 15.2307 18.4907 14.7998 18.1344 14.7998Z" fill="url(#paint2_linear_1004_2054)"/>
<path d="M23 12C23 18.0978 18.0978 23 12 23C5.90225 23 1 18.0978 1 12C1 5.90225 5.90225 1 12 1C18.0978 1 23 5.90225 23 12Z" stroke="url(#paint3_linear_1004_2054)" stroke-width="2"/>
<defs>
<linearGradient id="paint0_linear_1004_2054" x1="17.1456" y1="7.09497" x2="3.3862" y2="8.83299" gradientUnits="userSpaceOnUse">
<stop stop-color="#14EEB2"/>
<stop offset="1" stop-color="#6D9CCB"/>
</linearGradient>
<linearGradient id="paint1_linear_1004_2054" x1="6.50002" y1="12.5" x2="18.5" y2="12.5" gradientUnits="userSpaceOnUse">
<stop stop-color="#8981D4"/>
<stop offset="1" stop-color="#4CB8C1"/>
</linearGradient>
<linearGradient id="paint2_linear_1004_2054" x1="5.50002" y1="17" x2="18.5" y2="15" gradientUnits="userSpaceOnUse">
<stop stop-color="#C947E7"/>
<stop offset="1" stop-color="#7396CE"/>
</linearGradient>
<linearGradient id="paint3_linear_1004_2054" x1="10.62" y1="24" x2="15.3546" y2="0.201857" gradientUnits="userSpaceOnUse">
<stop stop-color="#9E620D"/>
<stop offset="0.581544" stop-color="#FFE8BA"/>
<stop offset="1" stop-color="#D79F14"/>
<stop offset="1" stop-color="#FFE9B2"/>
</linearGradient>
</defs>
</svg>
