<!-- by TradingView --><svg width="18" height="18" xmlns="http://www.w3.org/2000/svg"><path fill="#08090D" d="M0 0h18v18H0z"/><path d="M6.635 8.818c.14-.154.12-.163.257-.526.123-.329.316-.619.559-.853A2.23 2.23 0 019 6.809c.564 0 1.12.217 1.55.63.242.234.435.524.558.853.137.363.117.372.257.526.136.15.278.184.722.184H14c0-1.481-.62-2.713-1.62-3.653A4.932 4.932 0 009 4a4.932 4.932 0 00-3.38 1.349C4.62 6.289 4 7.52 4 9.002h1.913c.444 0 .586-.033.722-.184zm6.845 2.584c-.407-.417-1.638-1.801-1.848-2.016-.385-.395-.353-.384-.9-.384H7.268c-.547 0-.515-.011-.9.384-.21.215-1.441 1.6-1.848 2.016A5.081 5.081 0 006.393 13.5l2.128-2.182c.194-.198.28-.275.385-.308a.296.296 0 01.188 0c.105.033.191.11.385.308l2.128 2.182a5.08 5.08 0 001.873-2.098z" fill="#fff"/></svg>