<svg width="485" height="485" viewBox="0 0 485 485" fill="none" xmlns="http://www.w3.org/2000/svg">
<circle cx="242.5" cy="242.5" r="242.5" fill="#3524D0"/>
<path fill-rule="evenodd" clip-rule="evenodd" d="M78 210.407C78 128.58 151.651 62 242.19 62C332.728 62 406.379 128.58 406.379 210.407C406.379 300.17 292.228 402.306 257.217 431.487C253.001 434.998 247.686 436.921 242.197 436.921C236.709 436.921 231.394 434.998 227.178 431.487C192.151 402.321 78 300.186 78 210.407ZM206.428 319.183C216.699 323.987 228.346 326.388 241.368 326.388C254.757 326.388 266.678 323.729 277.133 318.411C287.77 313.093 296.115 305.802 302.168 296.539C308.22 287.104 311.247 276.554 311.247 264.888C311.247 248.248 306.386 235.039 296.666 225.261C287.128 215.483 275.023 209.736 260.351 208.02L298.591 171.738V142.661H180.293V171.738H258.975L211.38 215.483L228.438 234.524C233.206 233.152 237.516 232.466 241.368 232.466C252.189 232.466 260.901 235.554 267.504 241.729C274.29 247.734 277.683 255.453 277.683 264.888C277.683 274.152 274.198 281.872 267.229 288.047C260.442 294.223 251.822 297.311 241.368 297.311C230.914 297.311 222.202 294.223 215.232 288.047C208.446 281.7 204.869 273.895 204.503 264.631L173.69 273.123C174.057 282.729 177.083 291.65 182.769 299.884C188.454 307.947 196.341 314.38 206.428 319.183Z" fill="white"/>
</svg>
