<?xml version="1.0" encoding="utf-8"?>
<!-- Generator: Adobe Illustrator 24.0.2, SVG Export Plug-In . SVG Version: 6.00 Build 0)  -->
<svg version="1.1" id="Layer_1" xmlns="http://www.w3.org/2000/svg" xmlns:xlink="http://www.w3.org/1999/xlink" x="0px" y="0px"
	 viewBox="0 0 1000 1000" style="enable-background:new 0 0 1000 1000;" xml:space="preserve">
<style type="text/css">
	.st0{fill:url(#SVGID_1_);}
</style>
<linearGradient id="SVGID_1_" gradientUnits="userSpaceOnUse" x1="171.5435" y1="826.7556" x2="826.7612" y2="171.5379">
	<stop  offset="0" style="stop-color:#AB66FF"/>
	<stop  offset="1" style="stop-color:#14E48F"/>
</linearGradient>
<path class="st0" d="M517.61,580.29H390.42c-10.17,0-16.67-10.83-11.9-19.81l60.76-114.28c8.67-16.31,25.63-26.5,44.11-26.5h127.18
	c10.17,0,16.67,10.83,11.9,19.81l-60.76,114.28C553.04,570.1,536.08,580.29,517.61,580.29z M434.92,339.58h300.75
	c18.47,0,35.43-10.19,44.11-26.5l60.76-114.27c4.77-8.98-1.73-19.81-11.9-19.81H497.33H336.79c-18.47,0-35.43,10.19-44.11,26.5
	l-71.29,134.08c-9.09,17.1-7.48,37.91,4.13,53.41l75.59,100.87c5.92,7.9,18.05,6.96,22.69-1.76l67-126.02
	C399.48,349.77,416.44,339.58,434.92,339.58z M564.92,660.41H264.33c-18.47,0-35.43,10.19-44.11,26.5l-60.76,114.27
	c-4.77,8.98,1.73,19.81,11.9,19.81c112.45-0.02,370.47,0.02,488.45,0.01c18.47,0,35.43-10.2,44.1-26.51
	c19.45-36.61,53.37-100.25,73.17-137.45c9.1-17.1,7.49-37.92-4.13-53.42l-73.92-97.75c-5.92-7.9-18.04-6.97-22.68,1.74L609.13,634.1
	C600.45,650.38,583.37,660.41,564.92,660.41z"/>
</svg>
