<?xml version="1.0" encoding="UTF-8"?>
<svg version="1.1" xmlns="http://www.w3.org/2000/svg" width="1024" height="1024">
<path d="M0 0 C337.92 0 675.84 0 1024 0 C1024 337.92 1024 675.84 1024 1024 C686.08 1024 348.16 1024 0 1024 C0 686.08 0 348.16 0 0 Z " fill="#000000" transform="translate(0,0)"/>
<path d="M0 0 C43.98724222 -3.5353333 43.98724222 -3.5353333 54.54785156 1.78857422 C59.52177958 6.50150601 61.62836881 12.38851941 63.75927734 18.78222656 C65.97597597 24.5311616 69.58590443 29.38708456 73.0625 34.4375 C74.28640066 36.30868629 75.50667334 38.18225249 76.72265625 40.05859375 C79.38746934 44.11260195 82.14571045 48.07737523 85 52 C85.33620361 51.50822266 85.67240723 51.01644531 86.01879883 50.50976562 C89.42952198 45.52134419 92.84199765 40.53412563 96.25585938 35.54785156 C97.33823659 33.96670813 98.42032342 32.38536582 99.50195312 30.80371094 C99.96021484 30.1337207 100.41847656 29.46373047 100.890625 28.7734375 C101.30678574 28.1630513 101.72294647 27.5526651 102.15171814 26.92378235 C103.03809137 25.63656291 103.93427225 24.35598631 104.84437561 23.08543396 C107.27159774 19.67300027 109.40952265 16.29616518 111.28588867 12.54956055 C117.3391769 1.25642651 117.3391769 1.25642651 123.59890747 -0.89196777 C130.96510864 -2.12417164 138.33710483 -1.551161 145.75 -1.0625 C148.0075268 -0.97710547 150.26536492 -0.8995598 152.5234375 -0.83007812 C158.02248445 -0.64389556 163.50977852 -0.36063672 169 0 C164.82482839 6.67949996 160.53393674 13.21127409 155.875 19.5625 C154.73822857 21.12496167 153.60151139 22.68746282 152.46484375 24.25 C151.60415283 25.42949219 151.60415283 25.42949219 150.72607422 26.6328125 C147.95326861 30.43551734 145.19429263 34.24817685 142.4375 38.0625 C141.89915527 38.80701416 141.36081055 39.55152832 140.80615234 40.31860352 C136.6747102 46.04207445 132.59516736 51.80074637 128.54125977 57.5793457 C125.87228889 61.37615058 123.17215144 65.14647574 120.4296875 68.890625 C119.83671875 69.70208984 119.24375 70.51355469 118.6328125 71.34960938 C117.48897542 72.91158245 116.34075833 74.47036059 115.1875 76.02539062 C111.13594633 81.10521254 111.13594633 81.10521254 109 87 C110.28595092 89.80488198 112.11854643 92.13063327 114 94.5625 C115.11049632 96.06167004 116.21981961 97.56170952 117.328125 99.0625 C117.92173828 99.85527344 118.51535156 100.64804687 119.12695312 101.46484375 C122.42739042 105.93196326 125.57963151 110.50264398 128.75 115.0625 C129.9526563 116.78287983 131.15574078 118.50296046 132.359375 120.22265625 C133.23963278 121.48173627 134.11986148 122.74083662 135 124 C133.36743754 128.18167326 130.2913425 130.94467643 127.14453125 134.015625 C126.56466965 134.59028503 125.98480804 135.16494507 125.38737488 135.75701904 C123.5337814 137.59284019 121.6736614 139.42185415 119.8125 141.25 C109.07028866 151.80784697 109.07028866 151.80784697 99 163 C96.69 165.64 94.38 168.28 92 171 C118.4 171.33 144.8 171.66 172 172 C170.56685401 175.58286497 169.44158789 178.08867043 167.3828125 181.1953125 C166.86452881 181.98365479 166.34624512 182.77199707 165.81225586 183.58422852 C165.25546143 184.42268311 164.69866699 185.2611377 164.125 186.125 C162.94037991 187.92771139 161.75681012 189.73111335 160.57421875 191.53515625 C159.97528809 192.44797363 159.37635742 193.36079102 158.75927734 194.30126953 C156.11150551 198.36295005 153.51966406 202.45889488 150.9375 206.5625 C150.44499756 207.34488037 149.95249512 208.12726074 149.44506836 208.93334961 C148.45328358 210.509721 147.46182656 212.08629865 146.47070312 213.66308594 C145.02034408 215.96767371 143.5657292 218.26950935 142.109375 220.5703125 C136.54451019 229.36259345 131.01044905 238.1735038 125.5 247 C119.51141771 256.5923578 113.49053904 266.16355736 107.44287109 275.71875 C105.98751567 278.01973833 104.53440882 280.32213105 103.08203125 282.625 C97.1488871 292.03134797 91.19023349 301.42108113 85.21582031 310.80126953 C79.94094473 319.08599551 74.69384287 327.38802842 69.45458984 335.6953125 C68.00918211 337.98545164 66.56159316 340.27419657 65.11328125 342.5625 C58.89893106 352.38400653 52.72522845 362.23022013 46.5715332 372.08984375 C42.69254592 378.30178396 38.79365744 384.50052394 34.875 390.6875 C25.14846966 406.06263236 15.63824493 421.56695713 6.21282959 437.12802124 C0.55423734 446.46893502 -5.16543199 455.76790713 -11 465 C-7.27837846 462.09184765 -3.7788726 459.01970456 -0.3125 455.8125 C0.75096838 454.83166931 1.81477545 453.85120572 2.87890625 452.87109375 C3.40500488 452.38624512 3.93110352 451.90139648 4.47314453 451.40185547 C8.28552377 447.90158659 12.14821171 444.45673308 16 441 C16.845625 440.236875 17.69125 439.47375 18.5625 438.6875 C22.35347002 435.26638072 26.15028266 431.85497455 30 428.5 C34.71548138 424.38689548 39.3661738 420.20476822 44 416 C44.96679688 415.12730469 45.93359375 414.25460937 46.9296875 413.35546875 C54.14284968 406.79950072 61.08002557 400.00305822 67.91235352 393.05078125 C68.58709717 392.36757813 69.26184082 391.684375 69.95703125 390.98046875 C70.54460205 390.38129639 71.13217285 389.78212402 71.73754883 389.16479492 C73.61839176 387.36513653 75.53325551 385.67957181 77.51049805 383.98950195 C82.65474536 379.51385588 87.43183929 374.68071862 92.23150635 369.84365845 C93.9121424 368.15007138 95.59604629 366.45979223 97.28076172 364.77026367 C100.85668537 361.18300187 104.42864432 357.5918088 108 354 C112.14379823 349.83247027 116.28927661 345.66664025 120.43902588 341.5050354 C122.08498106 339.85267468 123.72785645 338.19729535 125.37060547 336.54174805 C130.17432511 331.71479818 135.01889504 327.00520612 140.19824219 322.5769043 C143.29796842 319.86401382 146.17146574 316.93170856 149.0625 314 C149.69808838 313.360625 150.33367676 312.72125 150.98852539 312.0625 C152.9948365 310.04411603 154.99784001 308.02250124 157 306 C172.02522946 290.82211944 172.02522946 290.82211944 178.08984375 285.6875 C182.4348804 281.84894001 186.43153461 277.62683649 190.5 273.5 C195.91471221 268.00760181 201.32214308 262.61389768 207.18164062 257.59570312 C210.09698335 255.03734114 212.79069349 252.27290722 215.5 249.5 C219.59203331 245.35613152 223.73372378 241.37702698 228.17578125 237.60546875 C230.20805506 235.81689372 232.10057895 233.92881247 234 232 C237.10375954 228.85421664 240.31876298 225.92705984 243.66796875 223.046875 C246.66270244 220.41833152 249.57971009 217.71068577 252.5 215 C256.63193654 211.1686642 260.79039804 207.38363622 265.0546875 203.69921875 C267.3366529 201.70593572 269.57228574 199.66506973 271.8125 197.625 C276.09987461 193.75526919 280.517992 190.08831667 285.0078125 186.45703125 C288.42738231 183.64905552 291.77692947 180.76741331 295.125 177.875 C309.31378637 165.65356636 309.31378637 165.65356636 315 163 C315 165 315 165 313 167.125 C312.00246673 168.0859007 311.00211364 169.04387708 310 170 C308.70388095 171.26629204 307.41253939 172.53748531 306.125 173.8125 C305.50882813 174.41707031 304.89265625 175.02164063 304.2578125 175.64453125 C302.34350169 177.64164097 300.52103591 179.67465731 298.70703125 181.76171875 C295.08387315 185.9298981 291.34657595 189.97795638 287.5625 194 C286.90507813 194.70060547 286.24765625 195.40121094 285.5703125 196.12304688 C281.67851474 200.25760034 277.72552542 204.31259922 273.67578125 208.29296875 C271.92981988 210.07148884 270.30773595 211.91906268 268.6875 213.8125 C265.7774953 217.20195627 262.67839675 220.36451107 259.5 223.5 C256.40507389 226.55336953 253.38065663 229.62323755 250.5625 232.9375 C247.54647107 236.47679178 244.3055113 239.73493546 241 243 C237.77789409 246.18287174 234.60947468 249.34690212 231.6875 252.8125 C227.61341583 257.6108658 223.08351998 261.96674177 218.5925293 266.37036133 C215.48684172 269.43396532 212.49647252 272.53126566 209.65625 275.84375 C204.56698156 281.74592746 198.93098865 287.11275745 193.3828125 292.578125 C192.53460938 293.41859375 191.68640625 294.2590625 190.8125 295.125 C189.67748047 296.24261719 189.67748047 296.24261719 188.51953125 297.3828125 C186.5771528 299.40047694 184.75557141 301.4341286 182.93780518 303.55921936 C178.6531033 308.46812409 174.08266381 313.06501476 169.47558594 317.66967773 C168.54613663 318.60248566 167.61668732 319.53529358 166.65907288 320.49636841 C164.13024791 323.03395552 161.59825666 325.56835941 159.0653677 328.10188937 C157.47719497 329.69077701 155.88973818 331.28037639 154.30252838 332.87022591 C148.74864014 338.43334162 143.19219945 343.99389297 137.63330078 349.55200195 C132.47837837 354.70632419 127.32905561 359.86619366 122.18233848 365.02870792 C117.74065312 369.48353249 113.29505584 373.93442813 108.84647775 378.38236958 C106.19967896 381.02891526 103.55440326 383.67693735 100.91307831 386.32894707 C98.42554209 388.82627255 95.93310537 391.31860725 93.43707085 393.8074379 C92.10358213 395.13940794 90.77497414 396.47625893 89.4466095 397.81333923 C84.38201706 402.85206229 79.13069502 407.48523802 73.54149246 411.93629551 C70.94600737 414.04384228 68.46741706 416.24453392 66 418.5 C61.70008209 422.41891252 57.24080453 426.09170869 52.71875 429.75 C49.22091849 432.64475711 45.88214596 435.69589539 42.52734375 438.75390625 C39.93037607 441.06187598 37.26595987 443.25555863 34.5625 445.4375 C30.75912497 448.51336588 27.09917348 451.68753166 23.5 455 C19.0301488 459.11378909 14.40955107 462.97087297 9.68359375 466.78515625 C7.05291443 468.95632827 4.52057576 471.20241357 2 473.5 C-1.31989486 476.52282421 -4.69764112 479.42512161 -8.1875 482.25 C-12.66214616 485.87263314 -17.03387598 489.59482326 -21.375 493.375 C-32.77213993 503.29534777 -44.31855404 513.0175744 -56.09375 522.48828125 C-57.0940625 523.29652344 -58.094375 524.10476563 -59.125 524.9375 C-60.03507813 525.66839844 -60.94515625 526.39929688 -61.8828125 527.15234375 C-64.07134155 528.82614739 -64.07134155 528.82614739 -65 531 C-65.66 530.67 -66.32 530.34 -67 530 C-53.0994984 505.629313 -39.19315371 481.26362195 -24.86376953 457.14160156 C-23.13920085 454.23463931 -21.4188901 451.32521443 -19.70001221 448.41488647 C-10.59334258 432.99829443 -1.3857445 417.65692972 8.03515625 402.4296875 C11.88918761 396.19530966 15.68959808 389.92942325 19.48345947 383.65835571 C26.95868616 371.30387237 34.56824034 359.03815947 42.24316406 346.80664062 C45.05270882 342.31824061 47.84010238 337.8162213 50.625 333.3125 C51.15528809 332.4551123 51.68557617 331.59772461 52.23193359 330.71435547 C53.82172076 328.14317018 55.41096507 325.57165024 57 323 C66.9195491 306.94647571 76.90480613 290.93498103 86.91601562 274.93847656 C98.38809539 256.60541344 109.78673204 238.22861213 121.125 219.8125 C121.74560303 218.80461426 122.36620605 217.79672852 123.00561523 216.75830078 C128.69059272 207.51771702 134.34254537 198.25765304 140 189 C109.97 188.67 79.94 188.34 49 188 C50.91977192 184.16045615 53.15025944 181.31400062 55.9375 178.125 C59.84500257 173.58393528 63.63932101 168.98256679 67.3125 164.25 C72.10730784 158.07849979 77.04961255 152.03881817 82.05395508 146.03613281 C83.16378529 144.69963921 84.26661022 143.35729255 85.36181641 142.00878906 C86.49508287 140.61914429 87.65002988 139.24700371 88.82177734 137.88964844 C90.40133053 135.9762606 91.81528654 134.18007301 93 132 C92.78811073 129.23018903 92.78811073 129.23018903 91 127 C90.43023437 126.14019531 89.86046875 125.28039062 89.2734375 124.39453125 C88.64695312 123.54246094 88.02046875 122.69039062 87.375 121.8125 C84 117.21836735 84 117.21836735 84 115 C79.84526486 118.74127849 76.89977544 123.2370227 73.75 127.8125 C73.14881348 128.67818604 72.54762695 129.54387207 71.92822266 130.43579102 C69.94832123 133.2878946 67.97402367 136.14382569 66 139 C63.83394562 142.12765274 61.66648822 145.25431795 59.49707031 148.37963867 C58.10637314 150.38360578 56.71762859 152.38892969 55.33105469 154.39575195 C54.69329102 155.31573975 54.05552734 156.23572754 53.3984375 157.18359375 C52.83817871 157.99368896 52.27791992 158.80378418 51.70068359 159.63842773 C51.13945801 160.41774658 50.57823242 161.19706543 50 162 C49.47647949 162.91426758 48.95295898 163.82853516 48.41357422 164.77050781 C44.64473772 168.25189715 40.93228406 167.62385961 35.984375 167.48828125 C35.01340881 167.48120651 34.04244263 167.47413177 33.04205322 167.46684265 C29.94391506 167.43887633 26.84759092 167.37613268 23.75 167.3125 C21.64846362 167.28742007 19.54689888 167.26460637 17.4453125 167.24414062 C12.29617713 167.18904207 7.148396 167.10275293 2 167 C3.36980611 164.21261885 4.82855845 161.65152201 6.58203125 159.0859375 C7.09499756 158.33449463 7.60796387 157.58305176 8.13647461 156.80883789 C8.68956299 156.00567139 9.24265137 155.20250488 9.8125 154.375 C10.3907251 153.53251709 10.9689502 152.69003418 11.56469727 151.82202148 C15.97093903 145.42959896 20.48474615 139.12125283 25.05200195 132.84326172 C29.69674263 126.45057509 34.22998518 119.98408162 38.74072266 113.49633789 C41.69605214 109.25577602 44.68251087 105.04391542 47.73828125 100.875 C48.33833984 100.05515625 48.93839844 99.2353125 49.55664062 98.390625 C50.69958476 96.83449195 51.8477656 95.28218717 53.00195312 93.734375 C53.51306641 93.03828125 54.02417969 92.3421875 54.55078125 91.625 C55.00106689 91.01914062 55.45135254 90.41328125 55.9152832 89.7890625 C57.12513052 87.79361773 57.74294319 86.32379359 58 84 C56.41009227 81.33896441 54.79281977 78.9660966 52.9375 76.5 C51.81945483 74.9680735 50.70230324 73.43549453 49.5859375 71.90234375 C48.99651367 71.10038574 48.40708984 70.29842773 47.79980469 69.47216797 C44.82167042 65.38147514 41.94869163 61.21829279 39.0625 57.0625 C34.08259114 49.92743486 29.02460855 42.85412797 23.91235352 35.81347656 C18.00957938 27.66687359 12.25640612 19.41603918 6.515625 11.15478516 C5.06813484 9.09686826 3.58371109 7.07021566 2.09375 5.04296875 C0 2 0 2 0 0 Z " fill="#00E6FD" transform="translate(288,395)"/>
<path d="M0 0 C18.18947868 15.01935665 30.47529897 35.72694514 33.01318359 59.34619141 C33.11409999 61.11610977 33.19766651 62.88710944 33.26318359 64.65869141 C33.32634766 65.53009766 33.38951172 66.40150391 33.45458984 67.29931641 C34.4298426 89.82450915 25.38113208 111.07892412 10.95068359 127.97119141 C-4.31437473 144.05214078 -25.79155369 154.07140569 -48.01416016 154.86181641 C-72.56322939 155.27710045 -94.10011008 149.09937227 -112.38891602 132.04736328 C-129.15187251 115.79038606 -138.55835467 93.80231241 -138.97851562 70.45678711 C-139.07079879 45.60275877 -131.42127774 24.61291571 -113.73681641 6.65869141 C-83.82805254 -23.30525468 -33.46731791 -25.84614065 0 0 Z " fill="#00E6FD" transform="translate(591.73681640625,411.34130859375)"/>
<path d="M0 0 C18.19732872 9.95769047 35.29110683 22.66524049 50.5234375 36.734375 C52.57528734 38.61146161 54.65660954 40.43374637 56.76171875 42.25 C61.15516102 46.08580518 65.31668715 50.12450068 69.4375 54.25 C70.55717163 55.37088013 70.55717163 55.37088013 71.69946289 56.5144043 C76.42112289 61.28860158 80.83661586 66.12803693 84.9765625 71.41796875 C87.17714247 74.22604473 89.48962639 76.91742335 91.8125 79.625 C147.41708168 146.40206331 172.48343376 236.39525738 165.25 322.375 C158.62383686 389.72168846 131.80050585 453.17969223 88.59082031 505.08447266 C87.13022227 506.84319768 85.68519554 508.61356638 84.2421875 510.38671875 C78.03511723 517.91520086 71.31252409 524.89208623 64.4375 531.8125 C63.57511719 532.68414795 62.71273438 533.5557959 61.82421875 534.45385742 C55.85697753 540.39227958 49.5670339 545.74066991 43 551 C41.1849197 552.55950185 39.37183674 554.12133812 37.5625 555.6875 C-29.15148215 611.09693062 -119.92605428 635.16289285 -205.53344727 627.97973633 C-239.0354276 624.83548785 -276.78506171 617.61095821 -307 602 C-303.34958384 597.63730751 -299.61135582 593.52626192 -295.515625 589.578125 C-293.78603688 587.87001498 -293.78603688 587.87001498 -292 585 C-286.07849033 585.68785213 -280.71886486 587.73452972 -275.125 589.6875 C-255.49205142 596.36225274 -235.51793672 601.02476901 -215 604 C-214.20255371 604.11859375 -213.40510742 604.2371875 -212.58349609 604.359375 C-186.85663722 607.9952213 -158.70046983 607.60502112 -133 604 C-131.59451904 603.80664062 -131.59451904 603.80664062 -130.16064453 603.609375 C-98.21874682 599.07100966 -67.03805917 590.12696797 -38 576 C-37.28279785 575.65582031 -36.5655957 575.31164062 -35.82666016 574.95703125 C-13.81133848 564.36776802 7.04764234 551.4481457 26 536 C26.50917969 535.59233398 27.01835938 535.18466797 27.54296875 534.76464844 C35.95275329 528.00048223 43.66481362 520.54107653 51.3125 512.9375 C52.231521 512.02774414 53.15054199 511.11798828 54.09741211 510.18066406 C60.15712534 504.09304101 65.65938467 497.72224758 71 491 C72.04835145 489.72196134 73.09883435 488.44566521 74.15234375 487.171875 C81.00557292 478.78945246 87.22034833 470.15415194 93 461 C93.36657715 460.42378906 93.7331543 459.84757812 94.11083984 459.25390625 C113.7746397 428.13058374 127.66991417 394.01896884 135.9375 358.1875 C136.20763916 357.03540039 136.47777832 355.88330078 136.75610352 354.69628906 C141.04164639 335.09050699 142.50781906 315.30200771 142.39111328 295.27050781 C142.37500112 292.00022724 142.39110344 288.73118178 142.41015625 285.4609375 C142.42947853 266.30683632 140.70236306 247.26562194 136.75 228.5 C136.53947998 227.48413818 136.32895996 226.46827637 136.11206055 225.42163086 C121.01484551 154.75971075 81.84819659 89.90125541 25 45 C24.07574219 44.2575 23.15148437 43.515 22.19921875 42.75 C11.8660893 34.60143618 0.91781218 27.33538209 -10 20 C-8.52430274 16.8525276 -7.04386446 13.70730861 -5.5625 10.5625 C-5.14162109 9.66466797 -4.72074219 8.76683594 -4.28710938 7.84179688 C-3.88427734 6.98779297 -3.48144531 6.13378906 -3.06640625 5.25390625 C-2.69459229 4.46314697 -2.32277832 3.6723877 -1.93969727 2.85766602 C-1 1 -1 1 0 0 Z " fill="#00E6FC" transform="translate(687,210)"/>
<path d="M0 0 C0.97135895 0.00115814 1.9427179 0.00231628 2.94351196 0.00350952 C19.11046354 0.04140379 34.86804609 0.92075346 50.875 3.3125 C52.12458496 3.48869873 52.12458496 3.48869873 53.39941406 3.66845703 C58.58846068 4.4065264 63.73292168 5.29925591 68.875 6.3125 C69.75430176 6.48507324 70.63360352 6.65764648 71.53955078 6.83544922 C85.23979297 9.57078562 98.56647139 13.07067982 111.875 17.3125 C111.49698242 17.74602783 111.11896484 18.17955566 110.72949219 18.6262207 C108.2143577 21.5320289 105.76437562 24.42502713 103.515625 27.54296875 C100.71632542 31.00550108 98.7282012 33.04936542 94.875 35.3125 C89.42612256 35.29569976 84.73500007 33.74005648 79.57275391 32.10595703 C39.48734014 20.31612945 -9.06848209 18.96788694 -50.125 26.3125 C-51.84976563 26.61849121 -51.84976563 26.61849121 -53.609375 26.93066406 C-94.47917327 34.39809795 -133.8780674 48.04408909 -169.125 70.3125 C-170.67960937 71.29089844 -170.67960937 71.29089844 -172.265625 72.2890625 C-199.6372021 90.07326901 -226.14091493 112.38921956 -246.125 138.3125 C-246.97546581 139.363924 -247.82847291 140.41329593 -248.68359375 141.4609375 C-293.31557308 196.516912 -317.32237132 266.86428438 -317.375 337.5 C-317.37567474 338.32543304 -317.37634949 339.15086609 -317.37704468 340.00131226 C-317.34630909 363.89493197 -314.49200926 387.01731483 -309.125 410.3125 C-308.90473145 411.27462402 -308.68446289 412.23674805 -308.45751953 413.22802734 C-300.21861235 448.48719949 -285.44349179 482.3159174 -265.125 512.3125 C-264.67962891 512.97185547 -264.23425781 513.63121094 -263.77539062 514.31054688 C-260.99312028 518.38924576 -258.10429726 522.37582106 -255.125 526.3125 C-254.68446289 526.89580078 -254.24392578 527.47910156 -253.79003906 528.08007812 C-248.29194221 535.31462147 -242.56444201 542.21514303 -236.37890625 548.875 C-234.46857219 550.94094186 -232.6317003 553.04200579 -230.8125 555.1875 C-223.01345006 564.12429369 -214.52776226 572.31815194 -205.171875 579.60546875 C-203.125 581.3125 -203.125 581.3125 -202.125 583.3125 C-203.40656377 586.33947094 -205.19762917 589.11438407 -206.875 591.9375 C-207.33132813 592.73929688 -207.78765625 593.54109375 -208.2578125 594.3671875 C-208.70382812 595.12515625 -209.14984375 595.883125 -209.609375 596.6640625 C-210.01897461 597.36354004 -210.42857422 598.06301758 -210.85058594 598.78369141 C-211.4814209 599.54045166 -211.4814209 599.54045166 -212.125 600.3125 C-216.37812557 600.3125 -218.34008085 597.87869331 -221.375 595.1875 C-221.98545166 594.65415039 -222.59590332 594.12080078 -223.22485352 593.57128906 C-242.6289474 576.50417559 -242.6289474 576.50417559 -249.40625 568.34375 C-251.19284335 566.23232149 -253.06716328 564.21728368 -254.9597168 562.20092773 C-266.21206659 550.16827009 -275.88554863 536.93055069 -285.125 523.3125 C-285.54604004 522.69246094 -285.96708008 522.07242188 -286.40087891 521.43359375 C-314.51849268 479.4893161 -332.15736232 429.32858037 -338.125 379.3125 C-338.24516983 378.3690271 -338.24516983 378.3690271 -338.36776733 377.40649414 C-340.03443875 364.18862908 -340.48777464 351.12728995 -340.4375 337.8125 C-340.43567719 336.80603424 -340.43385437 335.79956848 -340.43197632 334.76260376 C-340.38336593 318.77327024 -339.78003522 303.11319742 -337.125 287.3125 C-336.95339355 286.28576172 -336.78178711 285.25902344 -336.60498047 284.20117188 C-326.73539455 227.22393768 -303.49166442 173.42950518 -267.125 128.3125 C-266.39023437 127.38566406 -265.65546875 126.45882812 -264.8984375 125.50390625 C-256.40737357 114.92758103 -247.11920736 105.20745726 -237.57553101 95.58779907 C-236.16655849 94.16690998 -234.76156153 92.74208212 -233.35668945 91.31713867 C-227.25918275 85.21200259 -220.89535566 79.65748175 -214.125 74.3125 C-213.06496679 73.4545968 -212.00504123 72.59656053 -210.9453125 71.73828125 C-181.91483239 48.97670192 -149.41982465 31.52862789 -114.69726562 19.22460938 C-112.54710874 18.46217713 -110.40551282 17.68120111 -108.265625 16.890625 C-91.47980168 10.93436511 -73.81190876 6.8488202 -56.25 4 C-55.35104004 3.85296631 -54.45208008 3.70593262 -53.52587891 3.55444336 C-35.75731457 0.87301687 -17.95008513 -0.06713314 0 0 Z " fill="#00E6FC" transform="translate(512.125,162.6875)"/>
<path d="M0 0 C89.65702479 0 89.65702479 0 106.0859375 14.890625 C116.38518096 25.54501479 121.41169034 38.99159085 121.3125 53.625 C121.30686035 54.50019287 121.3012207 55.37538574 121.29541016 56.27709961 C120.99903142 72.28888741 116.52270436 84.94199637 105.45703125 96.76171875 C101.67117749 100.21051716 97.50268539 102.61622538 93 105 C96.9740164 112.33079571 101.01468491 119.61982476 105.125 126.875 C105.67833008 127.8544458 106.23166016 128.8338916 106.80175781 129.84301758 C109.6708047 134.91511168 112.55787093 139.9758274 115.4765625 145.01953125 C116.02683105 145.9729541 116.57709961 146.92637695 117.14404297 147.90869141 C118.19352265 149.72461992 119.24706558 151.53820785 120.30517578 153.34912109 C120.77681152 154.16590332 121.24844727 154.98268555 121.734375 155.82421875 C122.14913086 156.53666748 122.56388672 157.24911621 122.99121094 157.9831543 C124 160 124 160 125 164 C112.13 164 99.26 164 86 164 C83.855 160.24625 81.71 156.4925 79.5 152.625 C73.19959464 141.64145091 66.6658722 130.82516626 59.9296875 120.10400391 C59.28386719 119.06937012 58.63804687 118.03473633 57.97265625 116.96875 C57.39781494 116.05544922 56.82297363 115.14214844 56.23071289 114.20117188 C55 112 55 112 55 110 C49.06 110 43.12 110 37 110 C37 127.82 37 145.64 37 164 C24.79 164 12.58 164 0 164 C0 109.88 0 55.76 0 0 Z " fill="#00E6FD" transform="translate(646,397)"/>
<path d="M0 0 C5.20851383 2.08340553 9.22874053 4.65227117 13.8125 7.8125 C15.06848999 8.67657471 15.06848999 8.67657471 16.34985352 9.55810547 C39.43356353 25.64046311 61.98944042 45.52848587 79 68 C79.91326247 69.16208751 80.82738654 70.32349821 81.7421875 71.484375 C127.20193582 129.8545721 149.62177904 206.46140553 140.8125 280.125 C140.27820171 284.09620612 139.65945137 288.04779537 139 292 C138.82839355 293.05300293 138.65678711 294.10600586 138.47998047 295.19091797 C130.68593874 341.8924817 112.37651264 385.07462689 84 423 C83.53883789 423.61810547 83.07767578 424.23621094 82.60253906 424.87304688 C68.46718644 443.67336682 51.69280494 461.7055021 33 476 C31.49953125 477.19109375 31.49953125 477.19109375 29.96875 478.40625 C-29.4902017 525.40948207 -107.88033336 547.35676014 -183.20019531 538.87231445 C-205.33909938 536.02168565 -226.75434193 530.76216205 -248 524 C-245.47934593 518.50039111 -242.36559856 513.98569597 -237 511 C-232.1953547 511.19083872 -227.92881316 512.71491281 -223.41357422 514.23876953 C-218.98963936 515.63405872 -214.46735071 516.57903027 -209.9375 517.5625 C-209.09622559 517.75924316 -208.25495117 517.95598633 -207.38818359 518.15869141 C-188.67086043 522.3260735 -169.87267456 523.55400117 -150.75 523.4375 C-149.14874268 523.43293793 -149.14874268 523.43293793 -147.51513672 523.42828369 C-131.01567797 523.35897118 -115.16870285 522.52976832 -99 519 C-97.96697754 518.78569336 -96.93395508 518.57138672 -95.86962891 518.35058594 C-60.52702245 510.92653132 -24.37239717 497.40845275 5 476 C6.14179918 475.20107739 7.28512445 474.40433294 8.4296875 473.609375 C29.09598133 459.17980365 48.48470352 441.93021825 64 422 C65.01941 420.7212575 66.03894997 419.4426186 67.05859375 418.1640625 C74.36948376 408.90164268 80.81824915 399.34898586 86.74755859 389.14941406 C87.92542842 387.1279782 89.12616364 385.12200021 90.33203125 383.1171875 C106.70650742 355.47547838 116.25949533 324.43883057 122 293 C122.17789062 292.09056641 122.35578125 291.18113281 122.5390625 290.24414062 C127.8730598 262.36765472 127.43356809 229.81258446 122 202 C121.80664062 200.99018066 121.61328125 199.98036133 121.4140625 198.93994141 C116.61876225 174.67853421 108.94279993 151.18474165 98 129 C97.65001953 128.28231445 97.30003906 127.56462891 96.93945312 126.82519531 C88.75079356 110.19626932 78.50247435 94.52267712 67 80 C66.29746094 79.10539062 65.59492187 78.21078125 64.87109375 77.2890625 C58.9280004 69.86816955 52.54329399 62.88982358 46 56 C44.82244141 54.75863281 44.82244141 54.75863281 43.62109375 53.4921875 C38.11781778 47.84123865 32.17794812 42.893904 26 38 C24.95120587 37.14919758 23.90304671 36.29761192 22.85546875 35.4453125 C13.28995807 27.72827785 3.20323861 20.8420438 -7 14 C-4.69 9.38 -2.38 4.76 0 0 Z " fill="#00E6FC" transform="translate(664,252)"/>
<path d="M0 0 C0.77746582 0.14115234 1.55493164 0.28230469 2.35595703 0.42773438 C6.90935517 1.25818702 11.45663048 2.11639296 16 3 C16 3.66 16 4.32 16 5 C14.42578125 6.55078125 14.42578125 6.55078125 12.3125 8.3125 C9.79205191 10.42473992 7.94207557 12.08535612 6.078125 14.83203125 C1.6193639 17.97240233 -1.57548083 16.90859189 -6.80664062 16.06640625 C-8.04607422 15.83824219 -9.28550781 15.61007813 -10.5625 15.375 C-13.00073778 14.96279393 -15.43953943 14.55390866 -17.87890625 14.1484375 C-19.08619385 13.94677979 -20.29348145 13.74512207 -21.53735352 13.53735352 C-32.79165684 11.79084561 -44.07746673 11.7974781 -55.4375 11.8125 C-56.28104034 11.81310425 -57.12458069 11.8137085 -57.99368286 11.81433105 C-70.75666834 11.83913852 -83.35399405 12.1225041 -96 14 C-97.36753418 14.20133545 -97.36753418 14.20133545 -98.76269531 14.40673828 C-153.21629835 22.68199973 -204.46189493 45.2936008 -245 83 C-246.35022913 84.17122148 -247.70426491 85.33807233 -249.0625 86.5 C-256.26747816 92.78982973 -262.8767721 99.65935868 -269 107 C-269.41056641 107.4861377 -269.82113281 107.97227539 -270.24414062 108.47314453 C-283.31949069 124.03168876 -294.53426246 141.02386752 -304 159 C-304.33692871 159.63147949 -304.67385742 160.26295898 -305.02099609 160.91357422 C-318.23764253 185.82502677 -327.57896322 213.14374418 -332 241 C-332.14808105 241.87720703 -332.29616211 242.75441406 -332.44873047 243.65820312 C-343.78515378 312.72618587 -325.86062386 385.77205594 -286 443 C-278.84421946 452.93858408 -271.12064794 462.29954576 -262.6796875 471.16796875 C-260.29847035 473.68456121 -258.01435081 476.25381569 -255.75 478.875 C-250.72605462 484.56741212 -244.97289783 489.33367357 -239 494 C-239.65902299 497.57040303 -241.16229158 500.17732255 -243.0625 503.25 C-243.61035156 504.14203125 -244.15820312 505.0340625 -244.72265625 505.953125 C-245.35494141 506.96632813 -245.35494141 506.96632813 -246 508 C-249.81562395 506.70176525 -252.07090879 505.25033142 -254.8125 502.3125 C-257.36206389 499.65373691 -259.9183424 497.16730882 -262.75 494.8125 C-268.66919965 489.70414962 -273.81035032 483.83123645 -279 478 C-279.4630957 477.48163574 -279.92619141 476.96327148 -280.40332031 476.42919922 C-331.66782043 418.64113438 -355.25857834 342.43607196 -351.76171875 265.9375 C-348.75440061 215.84235691 -331.03543282 166.44240871 -303 125 C-302.57509277 124.3694873 -302.15018555 123.73897461 -301.71240234 123.08935547 C-291.72914152 108.40529644 -280.30223747 94.78657753 -268 82 C-267.50113281 81.47921875 -267.00226563 80.9584375 -266.48828125 80.421875 C-259.72287478 73.39559167 -252.68456361 67.02751485 -245 61 C-243.90785637 60.11842219 -242.81675404 59.23555319 -241.7265625 58.3515625 C-174.38153924 4.08519342 -84.5274134 -15.50824248 0 0 Z " fill="#00E6FB" transform="translate(570,215)"/>
<path d="M0 0 C0 4.13234261 -1.8984047 7.05405466 -3.77734375 10.62890625 C-4.17523605 11.39824997 -4.57312836 12.16759369 -4.983078 12.96025085 C-5.8449603 14.62551599 -6.70953574 16.28938936 -7.57647705 17.95202637 C-9.88220309 22.37446246 -12.16869757 26.80682794 -14.45703125 31.23828125 C-14.92336975 32.14017181 -15.38970825 33.04206238 -15.87017822 33.97128296 C-20.3716496 42.68974428 -24.75830892 51.46347961 -29.125 60.25 C-33.69930054 69.44141824 -38.29958944 78.61157682 -43.12451172 87.67480469 C-47.23994093 95.4120173 -51.24241992 103.20657228 -55.25 111 C-56.72767572 113.87249302 -58.20557354 116.74487172 -59.68359375 119.6171875 C-60.04837326 120.32611649 -60.41315277 121.03504547 -60.78898621 121.76545715 C-65.96363519 131.81902169 -71.16993436 141.85612997 -76.38427734 151.88916016 C-77.96300802 154.9287773 -79.53833044 157.97014179 -81.11328125 161.01171875 C-86.41122856 171.22534886 -91.81604579 181.36820249 -97.35986328 191.45043945 C-101.97080929 199.87097983 -106.37093603 208.39556113 -110.76660156 216.92993164 C-115.09025434 225.3026528 -119.53911162 233.59843089 -124.09375 241.84765625 C-124.55007813 242.67523438 -125.00640625 243.5028125 -125.4765625 244.35546875 C-125.86924316 245.06340576 -126.26192383 245.77134277 -126.66650391 246.50073242 C-128.5143607 249.96402609 -130.24449564 253.48899128 -132 257 C-107.25 257.33 -82.5 257.66 -57 258 C-61.14107643 262.83125583 -65.28549972 267.54893516 -69.625 272.1875 C-70.22965088 272.83533447 -70.83430176 273.48316895 -71.45727539 274.15063477 C-75.85827969 278.84170133 -80.36798612 283.40725601 -84.94506836 287.92578125 C-88.22156682 291.17516462 -91.28426331 294.5388697 -94.2734375 298.05078125 C-97.66356254 301.87809436 -101.3529093 305.41976025 -105 309 C-105.66 309.66 -106.32 310.32 -107 311 C-110.66666667 307.33333333 -114.33333333 303.66666667 -118 300 C-117.31035156 299.24976563 -116.62070312 298.49953125 -115.91015625 297.7265625 C-110.52992323 291.86815069 -105.17405618 285.99080922 -99.875 280.05859375 C-98.29812034 278.32731129 -96.6558817 276.6558817 -95 275 C-117.11 275 -139.22 275 -162 275 C-160.5412094 271.3530235 -159.11647796 268.26188404 -157.19921875 264.88671875 C-156.64089355 263.89841064 -156.08256836 262.91010254 -155.50732422 261.8918457 C-154.60651123 260.30569458 -154.60651123 260.30569458 -153.6875 258.6875 C-147.17468538 247.14159705 -140.83053728 235.51301376 -134.53955078 223.84521484 C-132.62010804 220.29792882 -130.68008948 216.76217569 -128.73925781 213.2265625 C-116.18311465 190.33158277 -104.09128974 167.18373805 -92.1015625 143.98828125 C-88.99574877 137.98275824 -85.85363757 131.9969911 -82.6965332 126.01831055 C-80.41654464 121.69840641 -78.14936851 117.37215754 -75.89453125 113.0390625 C-75.36166504 112.01522461 -74.82879883 110.99138672 -74.27978516 109.93652344 C-73.25105459 107.95855943 -72.22331511 105.9800795 -71.19677734 104.00097656 C-68.22158759 98.28140456 -65.16465854 92.61703119 -62 87 C-64.69181275 89.662342 -67.37762147 92.33066667 -70.0625 95 C-71.19075195 96.11568359 -71.19075195 96.11568359 -72.34179688 97.25390625 C-76.54012601 101.4340608 -80.54854554 105.70059584 -84.41186523 110.19140625 C-87.47402293 113.67864133 -90.83714653 116.85274308 -94.15625 120.09375 C-96.32719489 122.2585449 -98.34307936 124.52097592 -100.34375 126.84375 C-104.65538935 131.82305869 -109.33970831 136.39067175 -114.0390625 141 C-114.70679688 141.66 -115.37453125 142.32 -116.0625 143 C-116.94615234 143.86625 -116.94615234 143.86625 -117.84765625 144.75 C-119.60014704 146.58200489 -121.24316906 148.44178952 -122.88951111 150.36669922 C-128.02053535 156.24052596 -133.48293422 161.79498301 -138.92016602 167.3828125 C-140.11703869 168.61548052 -141.31388655 169.84817264 -142.51071167 171.08088684 C-153.40036575 182.28637163 -164.35505768 193.42807132 -175.32898045 204.55097961 C-182.69064795 212.01504039 -190.03011966 219.49856415 -197.3190918 227.03369141 C-203.69959144 233.62960952 -210.1184082 240.18528722 -216.58562607 246.69624329 C-219.99920358 250.13549486 -223.39145547 253.59080409 -226.73840523 257.09503174 C-249.79411693 281.19153044 -249.79411693 281.19153044 -261.84989071 281.82606506 C-266.07368703 281.63507336 -269.89756938 281.03139303 -274 280 C-268.93734547 273.87871877 -263.42013602 268.29135615 -257.79125977 262.69360352 C-256.76703918 261.67130551 -255.74304855 260.64877707 -254.7192688 259.6260376 C-252.52561472 257.43552864 -250.33042073 255.2465792 -248.13400459 253.0588398 C-244.65491396 249.59335061 -241.17971131 246.12397979 -237.70506287 242.65403748 C-229.70101962 234.66200297 -221.69196463 226.67499708 -213.68284607 218.68804932 C-206.34084153 211.36626838 -198.99992192 204.04340825 -191.66305774 196.7164759 C-188.21505312 193.27342778 -184.76463134 189.83282673 -181.31228459 186.39413273 C-179.15797974 184.24733384 -177.00579061 182.09842321 -174.85414505 179.94895935 C-173.86302431 178.95969659 -172.8710467 177.97129139 -171.87810707 176.98385429 C-166.90141858 172.03385819 -162.06019399 167.04065408 -157.48789883 161.71374416 C-155.51158385 159.4374481 -153.41597763 157.30328826 -151.27734375 155.1796875 C-149.99065796 153.89795654 -149.99065796 153.89795654 -148.67797852 152.59033203 C-147.77362061 151.69427246 -146.8692627 150.79821289 -145.9375 149.875 C-144.97748625 148.9194063 -144.01777547 147.96350816 -143.05834961 147.00732422 C-139.53229527 143.49449408 -136.0007571 139.98719427 -132.46936035 136.47973633 C-129.47308792 133.50334483 -126.47897769 130.52480843 -123.48757935 127.54351807 C-122.1011466 126.16346867 -120.71162702 124.78652256 -119.32202148 123.40966797 C-114.94135342 119.0458692 -110.7330407 114.62090379 -106.70556641 109.93041992 C-103.59770123 106.41282904 -100.24352302 103.14187946 -96.90625 99.84375 C-96.15589478 99.0971814 -95.40553955 98.35061279 -94.63244629 97.5814209 C-91.45783496 94.42298888 -88.27724084 91.27060721 -85.09716797 88.11767578 C-82.76059639 85.79930255 -80.42712001 83.4778448 -78.09375 81.15625 C-77.3862561 80.45705444 -76.67876221 79.75785889 -75.9498291 79.03747559 C-72.01476354 75.12159291 -68.29224805 71.09587193 -64.6673584 66.89221191 C-62.1191778 64.00039352 -59.40192714 61.29663953 -56.65625 58.59375 C-55.7970697 57.74024963 -55.7970697 57.74024963 -54.92053223 56.86950684 C-52.51060718 54.47567314 -50.09465522 52.08795757 -47.67919922 49.69970703 C-39.04178688 41.15766533 -39.04178688 41.15766533 -30.9140625 32.13671875 C-26.1116657 26.77567579 -20.86710929 21.80809814 -15.75 16.75 C-13.40853627 14.435216 -11.07047417 12.11707141 -8.734375 9.796875 C-7.93746246 9.01240997 -7.93746246 9.01240997 -7.12445068 8.21209717 C-4.51075901 5.61575184 -2.10877378 3.02516136 0 0 Z " fill="#00E7FC" transform="translate(721,102)"/>
<path d="M0 0 C9.2011341 7.50246319 15.24660224 17.84009873 17.78125 29.40625 C19.20620374 47.97382905 16.47506405 64.66872419 4.15625 79.28125 C-4.79363238 88.60796954 -15.62150702 92.25771378 -28.24755859 92.73803711 C-41.85330046 93.00273444 -53.73861829 89.57698067 -63.84375 80.21875 C-75.52204041 67.92861294 -78.83093534 53.06275773 -78.55859375 36.703125 C-77.95125203 22.74182567 -72.0634209 9.66891833 -61.90625 0.03125 C-43.50577955 -15.21396151 -18.89498145 -13.57245146 0 0 Z " fill="#000000" transform="translate(569.21875,439.59375)"/>
<path d="M0 0 C4.269375 -0.04125 8.53875 -0.0825 12.9375 -0.125 C14.26515381 -0.14320801 15.59280762 -0.16141602 16.96069336 -0.18017578 C26.19660644 -0.22313674 34.52858945 -0.08138068 42 6 C47.02167679 11.42883977 47.30680265 15.93298166 47.2109375 23.11328125 C46.77025339 29.14412492 45.41806713 33.45001965 41.3125 37.9375 C33.00993822 43.1070196 23.96714435 42.24042807 14.5 42.125 C9.715 42.08375 4.93 42.0425 0 42 C0 28.14 0 14.28 0 0 Z " fill="#000101" transform="translate(683,432)"/>
<path d="M0 0 C0.66 0.33 1.32 0.66 2 1 C4.00097518 1.12027472 6.0058621 1.17737258 8.01025391 1.20532227 C9.27141022 1.22526749 10.53256653 1.24521271 11.8319397 1.26576233 C13.21347937 1.28274665 14.59502034 1.29962546 15.9765625 1.31640625 C17.38618582 1.3369756 18.79580297 1.35797207 20.20541382 1.37937927 C23.91747035 1.43460195 27.62958257 1.48401031 31.34173584 1.53222656 C35.12891603 1.58244018 38.91601526 1.63812697 42.703125 1.69335938 C50.13534812 1.80094333 57.56763852 1.90238773 65 2 C61.45412059 4.3639196 59.98496318 4.24355585 55.78442383 4.22705078 C54.5033223 4.22689972 53.22222076 4.22674866 51.90229797 4.22659302 C50.50387416 4.21637973 49.10545192 4.20594774 47.70703125 4.1953125 C46.27642515 4.19158178 44.84581648 4.18873509 43.41520691 4.18673706 C39.65207856 4.17910522 35.88910489 4.15946069 32.1260376 4.1373291 C28.28521822 4.11686094 24.44437383 4.10773327 20.60351562 4.09765625 C13.06893994 4.07621429 5.53449166 4.04208387 -2 4 C-1.34 2.68 -0.68 1.36 0 0 Z " fill="#00DAE5" transform="translate(561,373)"/>
<path d="M0 0 C15.84 0 31.68 0 48 0 C47.01 1.65 46.02 3.3 45 5 C44.505 4.01 44.505 4.01 44 3 C29.48 3 14.96 3 0 3 C0 2.01 0 1.02 0 0 Z " fill="#00DDEB" transform="translate(409,395)"/>
<path d="M0 0 C0.33 0.66 0.66 1.32 1 2 C-5 8 -11 14 -17 20 C-17.99 19.34 -18.98 18.68 -20 18 C-18.4312132 13.45481632 -14.81474781 11.22171907 -11.125 8.4375 C-10.18720703 7.71530273 -10.18720703 7.71530273 -9.23046875 6.97851562 C-6.17198537 4.62807438 -3.09143529 2.30692533 0 0 Z " fill="#02E4ED" transform="translate(602,558)"/>
<path d="M0 0 C0.66 0.33 1.32 0.66 2 1 C-0.21744753 4.04899035 -2.57594135 6.57402745 -5.4375 9 C-11.64623242 14.2897929 -17.2762774 20.19775072 -23 26 C-23.66 25.67 -24.32 25.34 -25 25 C-16.75 16.75 -8.5 8.5 0 0 Z " fill="#00F7FB" transform="translate(449,697)"/>
<path d="M0 0 C0.99 0.99 1.98 1.98 3 3 C2.01 3.33 1.02 3.66 0 4 C-1.41885068 6.45153993 -2.63795499 8.81149 -3.8125 11.375 C-4.14958984 12.06078125 -4.48667969 12.7465625 -4.83398438 13.453125 C-5.91204406 15.67827934 -5.91204406 15.67827934 -7 19 C-6.34 19.99 -5.68 20.98 -5 22 C-7.475 21.01 -7.475 21.01 -10 20 C-8.52430274 16.8525276 -7.04386446 13.70730861 -5.5625 10.5625 C-5.14162109 9.66466797 -4.72074219 8.76683594 -4.28710938 7.84179688 C-3.88427734 6.98779297 -3.48144531 6.13378906 -3.06640625 5.25390625 C-2.5086853 4.06776733 -2.5086853 4.06776733 -1.93969727 2.85766602 C-1 1 -1 1 0 0 Z " fill="#02F7FB" transform="translate(687,210)"/>
<path d="M0 0 C0.33 0.99 0.66 1.98 1 3 C0.505 3.433125 0.01 3.86625 -0.5 4.3125 C-2.33218192 5.99740483 -2.33218192 5.99740483 -2 9 C-1.34 9.66 -0.68 10.32 0 11 C-2.64 10.67 -5.28 10.34 -8 10 C-6.34908222 5.70761377 -3.26245434 3.1206085 0 0 Z " fill="#01DEE7" transform="translate(424,766)"/>
<path d="M0 0 C2.9746228 2.82984027 5.39997658 5.76065023 7.75 9.125 C8.67039062 10.42824219 8.67039062 10.42824219 9.609375 11.7578125 C11 14 11 14 11 16 C11.66 16 12.32 16 13 16 C13.33 17.65 13.66 19.3 14 21 C10.21527718 17.55130397 7.54712094 13.61946841 4.75 9.375 C4.29109375 8.694375 3.8321875 8.01375 3.359375 7.3125 C0 2.25344122 0 2.25344122 0 0 Z " fill="#01EBEF" transform="translate(299,410)"/>
<path d="M0 0 C0 3.78713193 -1.26892594 5.83354401 -3 9.1875 C-3.556875 10.27417969 -4.11375 11.36085938 -4.6875 12.48046875 C-5.120625 13.31191406 -5.55375 14.14335938 -6 15 C-6.66 15 -7.32 15 -8 15 C-7.67 13.68 -7.34 12.36 -7 11 C-7.66 10.67 -8.32 10.34 -9 10 C-6.03 6.7 -3.06 3.4 0 0 Z " fill="#02DAE0" transform="translate(721,102)"/>
<path d="M0 0 C0.66 0.66 1.32 1.32 2 2 C-1.61328125 6.6875 -1.61328125 6.6875 -3 8 C-3.99 8 -4.98 8 -6 8 C-6.28875 8.639375 -6.5775 9.27875 -6.875 9.9375 C-8 12 -8 12 -10 13 C-9.48223379 8.89552608 -7.35372556 7.04300477 -4.4375 4.25 C-3.61121094 3.45078125 -2.78492188 2.6515625 -1.93359375 1.828125 C-1.29550781 1.22484375 -0.65742187 0.6215625 0 0 Z " fill="#00D3DF" transform="translate(569,258)"/>
<path d="M0 0 C3.6930085 1.62668231 6.61629195 3.91312407 9.75 6.4375 C10.73484375 7.21996094 11.7196875 8.00242188 12.734375 8.80859375 C13.85585938 9.89333984 13.85585938 9.89333984 15 11 C15 11.99 15 12.98 15 14 C14.34 13.67 13.68 13.34 13 13 C13 12.34 13 11.68 13 11 C12.4225 10.731875 11.845 10.46375 11.25 10.1875 C8.94449957 8.97070811 6.97943808 7.69666121 5 6 C5 5.34 5 4.68 5 4 C4.360625 3.71125 3.72125 3.4225 3.0625 3.125 C1 2 1 2 0 0 Z " fill="#01EEF3" transform="translate(728,240)"/>
<path d="M0 0 C2.95409701 1.37154504 5.44008376 2.98863724 8 5 C7.35455571 8.48539917 5.89865603 11.02819057 4 14 C2.46554906 10.93109813 3.45015711 8.29905734 4 5 C3.01 4.319375 3.01 4.319375 2 3.625 C1.34 3.08875 0.68 2.5525 0 2 C0 1.34 0 0.68 0 0 Z " fill="#01F2F6" transform="translate(323,704)"/>
<path d="M0 0 C0 3.70099611 -0.57407968 4.2610577 -3 7 C-5.28186354 9.06381881 -7.62329138 11.04654086 -10 13 C-10.66 12.67 -11.32 12.34 -12 12 C-8.04 8.04 -4.08 4.08 0 0 Z " fill="#00161B" transform="translate(659,188)"/>
<path d="M0 0 C1.32 0.33 2.64 0.66 4 1 C3.01 1.495 3.01 1.495 2 2 C1.87625 2.598125 1.7525 3.19625 1.625 3.8125 C0.79944477 6.70194332 -0.80351643 8.01607936 -3 10 C-3.66 9.67 -4.32 9.34 -5 9 C-3.35 6.03 -1.7 3.06 0 0 Z " fill="#02DDE3" transform="translate(226,916)"/>
<path d="M0 0 C3.26008643 3.16952847 6.22237877 6.39937989 9 10 C8.67 10.66 8.34 11.32 8 12 C7.60167969 11.52949219 7.20335937 11.05898438 6.79296875 10.57421875 C6.26316406 9.95160156 5.73335938 9.32898438 5.1875 8.6875 C4.66542969 8.07261719 4.14335937 7.45773437 3.60546875 6.82421875 C2.12827531 5.14575321 0.59960869 3.56117966 -1 2 C-0.67 1.34 -0.34 0.68 0 0 Z " fill="#01F2F7" transform="translate(258,692)"/>
<path d="M0 0 C0.66 0.33 1.32 0.66 2 1 C1.67 1.33 1.34 1.66 1 2 C1.66 2.33 2.32 2.66 3 3 C1.63016497 6.16115776 1.0109362 6.9927092 -2 9 C-2.125 5.625 -2.125 5.625 -2 2 C-1.34 1.34 -0.68 0.68 0 0 Z " fill="#02F2FD" transform="translate(582,574)"/>
<path d="M0 0 C0.66 0.66 1.32 1.32 2 2 C-0.97 4.475 -0.97 4.475 -4 7 C-4.66 6.67 -5.32 6.34 -6 6 C-4.02 4.02 -2.04 2.04 0 0 Z " fill="#01E3ED" transform="translate(741,720)"/>
<path d="M0 0 C0 4.31618166 -2.13270348 5.92789659 -5 9 C-5.66 9 -6.32 9 -7 9 C-5.44499019 5.18315774 -2.96404505 2.80804268 0 0 Z " fill="#00E5EC" transform="translate(577,250)"/>
<path d="M0 0 C0.66 0 1.32 0 2 0 C1.67 0.66 1.34 1.32 1 2 C0.67 1.34 0.34 0.68 0 0 Z M-3 1 C-2.01 1.33 -1.02 1.66 0 2 C-2.97 4.475 -2.97 4.475 -6 7 C-6.66 6.67 -7.32 6.34 -8 6 C-6.35 4.35 -4.7 2.7 -3 1 Z " fill="#00DDE9" transform="translate(618,210)"/>
<path d="M0 0 C3.36720387 1.39332574 4.9859524 2.9789286 7 6 C4 6 4 6 1.8125 4.125 C0 2 0 2 0 0 Z " fill="#00CDD9" transform="translate(270,737)"/>
</svg>
