<svg xmlns="http://www.w3.org/2000/svg" width="1024" height="1024"><path d="M0 0h1024v1024H0z"/><path fill="#00e6fd" d="M288 395c43.987-3.535 43.987-3.535 54.548 1.789 4.974 4.713 7.08 10.6 9.211 16.993 2.217 5.75 5.827 10.605 9.303 15.656a1587 1587 0 0 1 3.66 5.62A305 305 0 0 0 373 447l1.019-1.49a28808 28808 0 0 1 13.483-19.706l1.389-2.03 1.26-1.85a253 253 0 0 1 2.693-3.839c2.428-3.412 4.566-6.789 6.442-10.535 6.053-11.294 6.053-11.294 12.313-13.442 7.366-1.232 14.738-.66 22.151-.17q3.386.127 6.773.232c5.5.186 10.987.47 16.477.83-4.175 6.68-8.466 13.211-13.125 19.563l-3.41 4.687-1.739 2.383a3359 3359 0 0 0-8.288 11.43l-1.632 2.256a1571 1571 0 0 0-12.265 17.26 714 714 0 0 1-8.111 11.312l-1.797 2.459a961 961 0 0 1-3.445 4.675c-4.052 5.08-4.052 5.08-6.188 10.975 1.286 2.805 3.119 5.13 5 7.563q1.666 2.249 3.328 4.5l1.799 2.402c3.3 4.467 6.453 9.038 9.623 13.598l3.61 5.16L423 519c-1.633 4.182-4.709 6.945-7.855 10.016l-1.758 1.741a1894 1894 0 0 1-5.574 5.493C397.07 546.808 397.07 546.808 387 558l-7 8 80 1c-1.433 3.583-2.558 6.089-4.617 9.195l-1.57 2.39-1.688 2.54a5753 5753 0 0 0-5.366 8.176 906 906 0 0 0-7.822 12.261l-1.492 2.371-2.974 4.73q-2.176 3.457-4.362 6.907A5053 5053 0 0 0 413.5 642a5496 5496 0 0 1-18.057 28.719 6314 6314 0 0 0-4.361 6.906 7594 7594 0 0 1-17.866 28.176 6863 6863 0 0 0-15.761 24.894q-2.169 3.436-4.342 6.867a5657 5657 0 0 0-18.541 29.528 3433 3433 0 0 1-11.697 18.597c-9.727 15.376-19.237 30.88-28.662 46.441-5.659 9.34-11.378 18.64-17.213 27.872 3.722-2.908 7.221-5.98 10.688-9.187l3.19-2.942 1.595-1.47c3.813-3.5 7.675-6.944 11.527-10.401l2.563-2.312c3.79-3.422 7.587-6.833 11.437-10.188 4.715-4.113 9.366-8.295 14-12.5l2.93-2.645c7.213-6.555 14.15-13.352 20.982-20.304l2.045-2.07 1.78-1.816c1.881-1.8 3.796-3.485 5.773-5.175 5.145-4.476 9.922-9.31 14.722-14.146q2.52-2.54 5.049-5.074A11942 11942 0 0 0 396 749q6.216-6.252 12.439-12.495 2.468-2.48 4.932-4.963c4.803-4.827 9.648-9.537 14.827-13.965 3.1-2.713 5.973-5.645 8.865-8.577a4155.732 4155.732 0 0 0 7.938-8c15.024-15.178 15.024-15.178 21.089-20.312 4.345-3.84 8.342-8.061 12.41-12.188 5.415-5.492 10.822-10.886 16.682-15.904 2.915-2.559 5.609-5.323 8.318-8.096 4.092-4.144 8.234-8.123 12.676-11.895 2.032-1.788 3.925-3.676 5.824-5.605 3.104-3.146 6.319-6.073 9.668-8.953 2.995-2.629 5.912-5.336 8.832-8.047 4.132-3.831 8.29-7.616 12.555-11.3 2.282-1.994 4.517-4.035 6.758-6.075 4.287-3.87 8.705-7.537 13.195-11.168 3.42-2.808 6.769-5.69 10.117-8.582C597.314 560.654 597.314 560.654 603 558c0 2 0 2-2 4.125q-1.497 1.44-3 2.875a805 805 0 0 0-3.875 3.813l-1.867 1.832a169 169 0 0 0-5.551 6.117c-3.623 4.168-7.36 8.216-11.144 12.238l-1.993 2.123a437 437 0 0 1-11.894 12.17c-1.746 1.778-3.368 3.626-4.989 5.52-2.91 3.389-6.009 6.552-9.187 9.687-3.095 3.053-6.12 6.123-8.937 9.438-3.017 3.539-6.257 6.797-9.563 10.062-3.222 3.183-6.39 6.347-9.312 9.813-4.075 4.798-8.604 9.154-13.095 13.557-3.106 3.064-6.097 6.161-8.937 9.474-5.089 5.902-10.725 11.269-16.273 16.734l-2.57 2.547-2.293 2.258a141 141 0 0 0-5.582 6.176c-4.285 4.91-8.855 9.506-13.462 14.11l-2.817 2.827q-3.793 3.806-7.594 7.606l-4.762 4.768q-8.33 8.345-16.67 16.682a13750 13750 0 0 0-15.45 15.477 12188 12188 0 0 1-13.337 13.353 5434 5434 0 0 0-7.933 7.947q-3.731 3.746-7.476 7.478a1473 1473 0 0 0-3.99 4.006c-5.065 5.04-10.316 9.672-15.906 14.123-2.595 2.108-5.074 4.309-7.541 6.564-4.3 3.919-8.76 7.592-13.281 11.25-3.498 2.895-6.837 5.946-10.192 9.004-2.597 2.308-5.261 4.502-7.964 6.683A228 228 0 0 0 311.5 850c-4.47 4.114-9.09 7.97-13.816 11.785-2.631 2.171-5.163 4.417-7.684 6.715a231 231 0 0 1-10.187 8.75c-4.475 3.623-8.847 7.345-13.188 11.125-11.397 9.92-22.944 19.643-34.719 29.113l-3.031 2.45-2.758 2.214c-2.188 1.674-2.188 1.674-3.117 3.848l-2-1c13.9-24.37 27.807-48.736 42.136-72.858q2.587-4.361 5.164-8.727c9.107-15.417 18.314-30.758 27.735-45.985 3.854-6.235 7.655-12.5 11.448-18.772 7.476-12.354 15.085-24.62 22.76-36.851 2.81-4.489 5.597-8.99 8.382-13.495l1.607-2.598q2.385-3.856 4.768-7.714a9896 9896 0 0 1 29.916-48.062 8909 8909 0 0 0 34.209-55.125l1.88-3.055c5.686-9.24 11.338-18.5 16.995-27.758l-91-1c1.92-3.84 4.15-6.686 6.938-9.875a355 355 0 0 0 11.375-13.875c4.794-6.172 9.737-12.211 14.741-18.214a479 479 0 0 0 3.308-4.027 192 192 0 0 1 3.46-4.12c1.58-1.913 2.993-3.709 4.178-5.889-.212-2.77-.212-2.77-2-5l-1.727-2.605-1.898-2.582C372 512.218 372 512.218 372 510c-4.155 3.741-7.1 8.237-10.25 12.813l-1.822 2.623Q356.96 529.715 354 534q-3.25 4.692-6.503 9.38-2.086 3.006-4.166 6.016l-1.933 2.788-1.697 2.454L338 557l-1.586 2.77c-3.77 3.482-7.482 2.854-12.43 2.718l-2.942-.021c-3.098-.028-6.194-.09-9.292-.154q-3.152-.038-6.305-.069A1669 1669 0 0 1 290 562c1.37-2.787 2.829-5.348 4.582-7.914l1.554-2.277 1.676-2.434 1.753-2.553c4.406-6.392 8.92-12.7 13.487-18.979 4.645-6.392 9.178-12.859 13.689-19.347a649 649 0 0 1 8.997-12.621l1.819-2.484a800 800 0 0 1 3.445-4.657l1.549-2.109 1.364-1.836c1.21-1.995 1.828-3.465 2.085-5.789a83 83 0 0 0-5.062-7.5l-3.352-4.598-1.786-2.43c-2.978-4.09-5.851-8.254-8.738-12.41a1396 1396 0 0 0-15.15-21.249c-5.902-8.146-11.656-16.397-17.396-24.658a362 362 0 0 0-4.422-6.112C288 397 288 397 288 395"/><path fill="#00e6fd" d="M591.737 411.341c18.19 15.02 30.475 35.727 33.013 59.347q.15 2.654.25 5.312l.191 2.64c.976 22.526-8.073 43.78-22.504 60.673-15.265 16.08-36.742 26.1-58.964 26.89-24.55.415-46.086-5.762-64.375-22.814-16.763-16.257-26.17-38.245-26.59-61.59-.092-24.855 7.558-45.845 25.242-63.799 29.909-29.964 80.27-32.505 113.737-6.659"/><path fill="#00e6fc" d="M687 210c18.197 9.958 35.291 22.665 50.523 36.734a286 286 0 0 0 6.239 5.516c4.393 3.836 8.555 7.875 12.676 12 1.12 1.12 1.12 1.12 2.261 2.264 4.722 4.775 9.138 9.614 13.278 14.904 2.2 2.808 4.513 5.5 6.836 8.207 55.604 66.777 80.67 156.77 73.437 242.75-6.626 67.347-33.45 130.805-76.66 182.71a689 689 0 0 0-4.348 5.302c-6.207 7.528-12.93 14.505-19.804 21.426l-2.614 2.64c-5.967 5.94-12.257 11.288-18.824 16.547q-2.723 2.339-5.437 4.688c-66.714 55.409-157.49 79.475-243.096 72.292C447.965 834.835 410.215 827.61 380 812c3.65-4.363 7.389-8.474 11.484-12.422 1.73-1.708 1.73-1.708 3.516-4.578 5.922.688 11.281 2.735 16.875 4.688C431.508 806.362 451.482 811.025 472 814l2.417.36c25.726 3.635 53.883 3.245 79.583-.36l2.84-.39C588.78 809.07 619.961 800.126 649 786l2.173-1.043C673.19 774.367 694.048 761.448 713 746l1.543-1.235c8.41-6.765 16.122-14.224 23.77-21.827l2.784-2.757c6.06-6.088 11.562-12.459 16.903-19.181q1.572-1.917 3.152-3.828A263 263 0 0 0 780 671l1.11-1.746c19.665-31.123 33.56-65.235 41.827-101.067.27-1.152.54-2.304.82-3.49 4.285-19.606 5.75-39.395 5.634-59.426-.016-3.27 0-6.54.02-9.81.018-19.154-1.709-38.195-5.661-56.961l-.638-3.078C808.015 364.76 768.848 299.902 712 255l-2.8-2.25c-10.334-8.149-21.282-15.415-32.2-22.75q2.214-4.72 4.438-9.437l1.275-2.721 1.22-2.588 1.127-2.396C686 211 686 211 687 210M512.125 162.688l2.944.003c16.166.038 31.924.917 47.931 3.309l2.524.356c5.19.738 10.334 1.63 15.476 2.644l2.665.523c13.7 2.735 27.026 6.235 40.335 10.477l-1.146 1.314c-2.515 2.906-4.965 5.799-7.213 8.916-2.8 3.463-4.788 5.507-8.641 7.77-5.449-.017-10.14-1.572-15.302-3.207C551.612 183.003 503.057 181.655 462 189l-3.484.618C417.646 197.086 378.246 210.732 343 233l-3.14 1.977C312.487 252.76 285.983 275.077 266 301q-1.275 1.576-2.559 3.148c-44.632 55.056-68.638 125.404-68.691 196.04l-.002 2.5c.03 23.894 2.885 47.017 8.252 70.312l.667 2.916c8.24 35.259 23.015 69.087 43.333 99.084.445.66.89 1.319 1.35 1.998A300 300 0 0 0 257 689l1.335 1.768c5.498 7.234 11.226 14.135 17.411 20.794a195 195 0 0 1 5.567 6.313c7.799 8.937 16.284 17.13 25.64 24.418C309 744 309 744 310 746c-1.282 3.027-3.073 5.802-4.75 8.625l-1.383 2.43-1.351 2.297-1.242 2.12L300 763c-4.253 0-6.215-2.434-9.25-5.125l-1.85-1.616c-19.404-17.067-19.404-17.067-26.181-25.228-1.787-2.111-3.661-4.126-5.554-6.143C245.913 712.856 236.24 699.618 227 686l-1.276-1.879C197.607 642.177 179.968 592.016 174 542l-.243-1.906c-1.666-13.218-2.12-26.28-2.07-39.594l.006-3.05c.049-15.99.652-31.65 3.307-47.45l.52-3.111C185.39 389.91 208.633 336.117 245 291l2.227-2.809c8.49-10.576 17.779-20.296 27.322-29.916 1.41-1.42 2.814-2.845 4.22-4.27 6.097-6.105 12.46-11.66 19.231-17.005l3.18-2.574c29.03-22.762 61.525-40.21 96.248-52.514 2.15-.762 4.291-1.543 6.431-2.334 16.786-5.956 34.454-10.042 52.016-12.89l2.724-.446c17.769-2.681 35.576-3.622 53.526-3.554"/><path fill="#00e6fd" d="M646 397c89.657 0 89.657 0 106.086 14.89 10.3 10.655 15.326 24.102 15.226 38.735-.005.875-.01 1.75-.017 2.652-.296 16.012-4.772 28.665-15.838 40.485-3.786 3.449-7.954 5.854-12.457 8.238a1338 1338 0 0 0 12.125 21.875l1.677 2.968a1781 1781 0 0 0 8.675 15.177l1.667 2.889q1.575 2.725 3.161 5.44l1.43 2.475 1.256 2.16C770 557 770 557 771 561h-39l-6.5-11.375c-6.3-10.984-12.834-21.8-19.57-32.521l-1.957-3.135-1.742-2.768C701 509 701 509 701 507h-18v54h-37z"/><path fill="#00e6fc" d="M664 252c5.209 2.083 9.229 4.652 13.813 7.813l2.537 1.745C703.434 277.64 725.99 297.528 743 320q1.37 1.743 2.742 3.484c45.46 58.37 67.88 134.977 59.07 208.641A380 380 0 0 1 803 544l-.52 3.19C794.686 593.893 776.377 637.076 748 675l-1.397 1.873c-14.136 18.8-30.91 36.833-49.603 51.127l-3.031 2.406c-59.46 47.003-137.85 68.95-213.17 60.466-22.138-2.85-43.553-8.11-64.799-14.872 2.52-5.5 5.634-10.014 11-13 4.805.19 9.071 1.715 13.586 3.239 4.424 1.395 8.947 2.34 13.476 3.323l2.55.597c18.717 4.167 37.515 5.395 56.638 5.279l3.235-.01c16.5-.069 32.346-.898 48.515-4.428l3.13-.65c35.343-7.423 71.498-20.942 100.87-42.35a1206 1206 0 0 1 3.43-2.39c20.666-14.43 40.055-31.68 55.57-51.61l3.059-3.836c7.31-9.262 13.76-18.815 19.689-29.015a504 504 0 0 1 3.584-6.032C770.707 607.475 780.259 576.44 786 545l.54-2.756c5.333-27.876 4.894-60.431-.54-88.244l-.586-3.06C780.62 426.679 772.943 403.185 762 381l-1.06-2.175C752.75 362.196 742.501 346.523 731 332l-2.129-2.71c-5.943-7.422-12.328-14.4-18.871-21.29l-2.379-2.508c-5.503-5.65-11.443-10.598-17.621-15.492q-1.573-1.275-3.145-2.555C677.29 279.728 667.203 272.842 657 266z"/><path fill="#00e6fb" d="m570 215 2.356.428Q579.185 216.673 586 218v2c-1.574 1.55-1.574 1.55-3.687 3.313-2.52 2.112-4.37 3.772-6.235 6.519-4.459 3.14-7.653 2.077-12.885 1.234l-3.755-.691q-3.659-.618-7.317-1.227l-3.658-.61c-11.255-1.747-22.54-1.74-33.9-1.726l-2.557.002c-12.763.025-25.36.309-38.006 2.186l-2.763.407C416.784 237.682 365.538 260.294 325 298a781 781 0 0 1-4.062 3.5c-7.205 6.29-13.815 13.16-19.938 20.5l-1.244 1.473C286.68 339.032 275.466 356.023 266 374l-1.021 1.914C251.762 400.825 242.421 428.144 238 456l-.449 2.658C226.215 527.726 244.14 600.772 284 658c7.156 9.939 14.88 19.3 23.32 28.168 2.382 2.517 4.666 5.086 6.93 7.707 5.024 5.692 10.777 10.459 16.75 15.125-.659 3.57-2.162 6.177-4.062 9.25l-1.66 2.703L324 723c-3.816-1.298-6.07-2.75-8.812-5.687-2.55-2.66-5.106-5.146-7.938-7.5-5.92-5.109-11.06-10.982-16.25-16.813l-1.403-1.57c-51.265-57.789-74.856-133.994-71.359-210.492C221.246 430.842 238.965 381.442 267 340l1.288-1.91c9.983-14.685 21.41-28.303 33.712-41.09l1.512-1.578A206 206 0 0 1 325 276q1.638-1.322 3.273-2.648C395.618 219.085 485.473 199.492 570 215"/><path fill="#00e7fc" d="M721 102c0 4.132-1.898 7.054-3.777 10.629l-1.206 2.331q-1.293 2.499-2.593 4.992c-2.306 4.422-4.593 8.855-6.881 13.286l-1.413 2.733c-4.502 8.719-8.888 17.492-13.255 26.279-4.574 9.191-9.175 18.362-14 27.425-4.115 7.737-8.117 15.532-12.125 23.325l-5.539 10.765a8582 8582 0 0 1-15.595 30.124q-2.367 4.56-4.73 9.123a1424 1424 0 0 1-16.246 30.438c-4.61 8.421-9.01 16.946-13.407 25.48a1016 1016 0 0 1-13.327 24.918l-1.383 2.507-1.19 2.146c-1.847 3.463-3.577 6.988-5.333 10.499l75 1c-4.141 4.831-8.285 9.549-12.625 14.188-.605.647-1.21 1.295-1.832 1.963-4.401 4.69-8.911 9.256-13.488 13.775-3.277 3.25-6.34 6.613-9.328 10.125-3.39 3.827-7.08 7.369-10.727 10.949l-2 2-11-11 2.09-2.273a1730 1730 0 0 0 16.035-17.668c1.577-1.732 3.22-3.403 4.875-5.059h-67c1.459-3.647 2.884-6.738 4.8-10.113l1.693-2.995 1.82-3.204c6.512-11.546 12.856-23.175 19.147-34.843 1.92-3.547 3.86-7.083 5.8-10.618 12.557-22.895 24.649-46.043 36.638-69.239a2369 2369 0 0 1 9.405-17.97q3.42-6.48 6.802-12.979l1.615-3.102 3.083-5.936A578 578 0 0 1 659 189q-4.037 3.994-8.062 8l-2.28 2.254c-4.198 4.18-8.207 8.447-12.07 12.937-3.062 3.488-6.425 6.662-9.744 9.903-2.171 2.165-4.187 4.427-6.188 6.75-4.311 4.98-8.996 9.547-13.695 14.156l-2.024 2-1.785 1.75c-1.752 1.832-3.395 3.692-5.042 5.617-5.13 5.874-10.593 11.428-16.03 17.016l-3.59 3.698c-10.89 11.205-21.845 22.347-32.819 33.47a3243 3243 0 0 0-21.99 22.483q-9.568 9.895-19.267 19.662a757 757 0 0 0-10.152 10.399c-23.056 24.097-23.056 24.097-35.112 24.731-4.224-.19-8.048-.795-12.15-1.826 5.063-6.121 10.58-11.709 16.209-17.306l3.072-3.068q3.29-3.286 6.585-6.567 5.218-5.2 10.429-10.405 12.007-11.987 24.022-23.966a44321 44321 0 0 0 22.02-21.972q5.172-5.164 10.35-10.322 3.232-3.221 6.459-6.445 1.486-1.485 2.976-2.965c4.977-4.95 9.818-9.943 14.39-15.27 1.976-2.277 4.072-4.41 6.21-6.534l2.6-2.59 2.74-2.715 2.88-2.868q5.29-5.268 10.589-10.527 4.494-4.465 8.981-8.936 2.08-2.07 4.166-4.134c4.38-4.364 8.589-8.79 12.616-13.48 3.108-3.517 6.462-6.788 9.8-10.086l2.274-2.263c3.174-3.158 6.355-6.31 9.535-9.463q3.504-3.479 7.003-6.962l2.144-2.119a217 217 0 0 0 11.283-12.145c2.548-2.892 5.265-5.595 8.01-8.298l1.736-1.724q3.616-3.59 7.242-7.17c8.637-8.542 8.637-8.542 16.765-17.563 4.802-5.361 10.047-10.329 15.164-15.387a4268 4268 0 0 0 7.016-6.953l1.61-1.585c2.613-2.596 5.015-5.187 7.124-8.212"/><path d="M569.219 439.594c9.2 7.502 15.246 17.84 17.781 29.406 1.425 18.568-1.306 35.262-13.625 49.875-8.95 9.327-19.778 12.976-32.404 13.457-13.606.264-25.49-3.161-35.596-12.52-11.678-12.29-14.987-27.155-14.715-43.515.607-13.961 6.495-27.034 16.652-36.672 18.401-15.245 43.012-13.604 61.907-.031"/><path fill="#000101" d="m683 432 12.938-.125 4.023-.055c9.236-.043 17.568.099 25.039 6.18 5.022 5.429 5.307 9.933 5.21 17.113-.44 6.031-1.792 10.337-5.898 14.825-8.302 5.169-17.345 4.302-26.812 4.187L683 474z"/><path fill="#00dae5" d="m561 373 2 1c2.001.12 4.006.177 6.01.205l3.822.06q2.072.027 4.145.051l4.228.063q5.568.082 11.137.153 5.68.077 11.361.161 11.149.162 22.297.307c-3.546 2.364-5.015 2.244-9.216 2.227h-3.882l-4.195-.032-4.292-.008c-3.763-.008-7.526-.028-11.289-.05-3.84-.02-7.682-.03-11.522-.04A8251 8251 0 0 1 559 377z"/><path fill="#00ddeb" d="M409 395h48l-3 5-1-2h-44z"/><path fill="#02e4ed" d="m602 558 1 2-18 18-3-2c1.569-4.545 5.185-6.778 8.875-9.562l1.895-1.46A818 818 0 0 1 602 558"/><path fill="#00f7fb" d="m449 697 2 1c-2.217 3.049-4.576 5.574-7.437 8-6.21 5.29-11.84 11.198-17.563 17l-2-1z"/><path fill="#02f7fb" d="m687 210 3 3-3 1a86 86 0 0 0-3.812 7.375l-1.022 2.078c-1.078 2.225-1.078 2.225-2.166 5.547l2 3-5-2q2.214-4.72 4.438-9.437l1.275-2.721 1.22-2.588 1.127-2.396C686 211 686 211 687 210"/><path fill="#01dee7" d="m424 766 1 3-1.5 1.313c-1.832 1.684-1.832 1.684-1.5 4.687l2 2-8-1c1.65-4.292 4.738-6.88 8-10"/><path fill="#01ebef" d="M299 410c2.975 2.83 5.4 5.76 7.75 9.125l1.86 2.633C310 424 310 424 310 426h2l1 5c-3.785-3.449-6.453-7.38-9.25-11.625l-1.39-2.062c-3.36-5.06-3.36-5.06-3.36-7.313"/><path fill="#02dae0" d="M721 102c0 3.787-1.269 5.834-3 9.188l-1.687 3.292L715 117h-2l1-4-2-1z"/><path fill="#00d3df" d="m569 258 2 2c-3.613 4.688-3.613 4.688-5 6h-3l-.875 1.938C561 270 561 270 559 271c.518-4.104 2.646-5.957 5.563-8.75l2.503-2.422z"/><path fill="#01eef3" d="M728 240c3.693 1.627 6.616 3.913 9.75 6.438l2.984 2.37L743 251v3l-2-1v-2l-1.75-.812c-2.306-1.217-4.27-2.491-6.25-4.188v-2l-1.937-.875C729 242 729 242 728 240"/><path fill="#01f2f6" d="M323 704c2.954 1.372 5.44 2.989 8 5-.645 3.485-2.101 6.028-4 9-1.534-3.069-.55-5.7 0-9l-2-1.375-2-1.625z"/><path fill="#00161b" d="M659 188c0 3.701-.574 4.261-3 7-2.282 2.064-4.623 4.047-7 6l-2-1z"/><path fill="#02dde3" d="m226 916 4 1-2 1-.375 1.813c-.826 2.889-2.429 4.203-4.625 6.187l-2-1z"/><path fill="#01f2f7" d="M258 692c3.26 3.17 6.222 6.4 9 10l-1 2-1.207-1.426-1.606-1.886-1.582-1.864A88 88 0 0 0 257 694z"/><path fill="#02f2fd" d="m582 574 2 1-1 1 2 1c-1.37 3.161-1.99 3.993-5 6-.125-3.375-.125-3.375 0-7z"/><path fill="#01e3ed" d="m741 720 2 2-6 5-2-1z"/><path fill="#00e5ec" d="M577 250c0 4.316-2.133 5.928-5 9h-2c1.555-3.817 4.036-6.192 7-9"/><path fill="#00dde9" d="M618 210h2l-1 2zm-3 1 3 1-6 5-2-1z"/><path fill="#00cdd9" d="M270 737c3.367 1.393 4.986 2.979 7 6-3 0-3 0-5.187-1.875C270 739 270 739 270 737"/></svg>