<svg id="svg" version="1.1" xmlns="http://www.w3.org/2000/svg" xmlns:xlink="http://www.w3.org/1999/xlink" width="400" height="211.16751269035532" viewBox="0, 0, 400,211.16751269035532"><g id="svgg"><path id="path0" d="M128.403 76.456 C 128.081 77.058,128.248 77.286,131.280 80.416 C 132.661 81.841,134.053 83.314,134.373 83.689 C 134.693 84.065,135.668 85.123,136.538 86.041 C 137.408 86.959,138.120 87.757,138.120 87.814 C 138.120 87.870,138.528 88.402,139.027 88.995 C 139.526 89.588,140.294 90.573,140.735 91.183 C 141.175 91.793,141.628 92.291,141.741 92.291 C 141.854 92.291,141.897 92.373,141.835 92.472 C 141.774 92.571,142.031 93.023,142.407 93.475 C 142.783 93.928,143.224 94.559,143.387 94.879 C 143.550 95.198,143.762 95.459,143.858 95.459 C 143.955 95.459,144.034 95.593,144.034 95.757 C 144.034 95.921,144.295 96.279,144.615 96.552 C 144.934 96.826,145.227 97.228,145.265 97.447 C 145.303 97.666,145.460 97.972,145.614 98.126 C 145.768 98.280,146.197 99.027,146.566 99.785 C 146.936 100.544,147.325 101.110,147.431 101.045 C 147.537 100.979,147.624 101.124,147.624 101.367 C 147.624 101.610,147.772 101.865,147.953 101.935 C 148.134 102.004,148.233 102.188,148.173 102.344 C 148.113 102.500,148.180 102.749,148.321 102.898 C 148.462 103.046,148.806 103.621,149.086 104.174 C 149.365 104.727,149.721 105.285,149.876 105.414 C 150.031 105.543,150.158 105.830,150.158 106.051 C 150.158 106.273,150.306 106.511,150.487 106.581 C 150.670 106.651,150.763 106.845,150.698 107.016 C 150.624 107.209,150.737 107.367,151.000 107.435 C 151.231 107.496,151.380 107.612,151.329 107.694 C 151.197 107.907,152.137 110.338,152.477 110.665 C 152.538 110.723,152.825 111.238,153.115 111.809 C 154.314 114.167,154.506 114.484,154.652 114.338 C 154.736 114.254,154.805 114.391,154.805 114.643 C 154.805 114.894,154.900 115.100,155.016 115.100 C 155.132 115.100,155.227 115.235,155.227 115.400 C 155.227 115.737,155.835 116.943,156.216 117.362 C 156.353 117.512,156.685 118.087,156.955 118.638 C 157.224 119.190,157.518 119.673,157.608 119.713 C 157.698 119.753,157.907 120.109,158.073 120.505 C 158.238 120.901,158.473 121.225,158.595 121.225 C 158.717 121.225,158.817 121.364,158.817 121.535 C 158.817 121.911,160.909 125.275,161.291 125.512 C 161.440 125.605,161.563 125.799,161.563 125.942 C 161.563 126.086,161.844 126.533,162.188 126.935 C 162.532 127.337,162.817 127.785,162.821 127.930 C 162.826 128.076,162.901 128.195,162.988 128.196 C 163.076 128.197,163.372 128.528,163.647 128.932 C 163.922 129.336,164.231 129.615,164.333 129.552 C 164.436 129.488,164.522 129.608,164.525 129.819 C 164.531 130.235,166.813 132.850,167.165 132.844 C 167.421 132.840,168.118 133.607,167.982 133.743 C 167.930 133.794,168.052 133.969,168.251 134.130 C 168.561 134.382,168.588 134.382,168.435 134.128 C 168.316 133.931,168.334 133.880,168.490 133.976 C 168.619 134.056,168.665 134.276,168.593 134.466 C 168.504 134.696,168.542 134.760,168.708 134.658 C 168.843 134.574,168.955 134.606,168.955 134.729 C 168.955 134.852,169.096 134.952,169.269 134.952 C 169.442 134.952,169.814 135.309,170.097 135.744 C 170.380 136.180,170.862 136.727,171.169 136.959 C 171.476 137.191,171.911 137.548,172.136 137.751 C 172.361 137.954,172.619 138.120,172.709 138.120 C 172.799 138.120,173.034 138.287,173.230 138.490 C 174.279 139.577,174.636 139.848,174.847 139.718 C 174.978 139.636,175.079 139.717,175.079 139.903 C 175.079 140.084,175.198 140.234,175.343 140.236 C 175.488 140.238,175.833 140.478,176.110 140.769 C 176.458 141.137,176.742 141.258,177.034 141.166 C 177.319 141.075,177.407 141.110,177.307 141.272 C 177.123 141.570,178.029 142.334,178.399 142.192 C 178.548 142.134,178.857 142.312,179.085 142.585 C 179.314 142.859,179.503 143.017,179.507 142.935 C 179.511 142.854,179.766 143.020,180.073 143.305 C 180.380 143.590,180.808 143.823,181.023 143.823 C 181.239 143.823,181.415 143.918,181.415 144.034 C 181.415 144.150,181.653 144.245,181.943 144.245 C 182.233 144.245,182.471 144.336,182.471 144.446 C 182.471 144.671,183.615 145.242,184.266 145.342 C 184.498 145.377,184.752 145.495,184.830 145.603 C 185.021 145.868,185.639 145.945,185.639 145.705 C 185.639 145.337,186.013 145.515,186.122 145.935 C 186.189 146.187,186.411 146.357,186.675 146.357 C 186.918 146.357,187.117 146.441,187.117 146.543 C 187.117 146.817,187.869 146.968,188.203 146.761 C 188.392 146.644,188.531 146.700,188.611 146.928 C 188.756 147.342,189.428 147.475,189.803 147.164 C 190.072 146.940,190.098 146.962,190.158 147.466 C 190.178 147.634,190.476 147.713,190.977 147.683 C 191.637 147.644,191.763 147.704,191.763 148.057 C 191.763 148.482,192.433 148.522,193.060 148.134 C 193.228 148.030,193.274 148.113,193.200 148.393 C 193.076 148.867,193.680 149.011,194.331 148.662 C 194.646 148.493,194.720 148.531,194.720 148.861 C 194.720 149.356,195.302 149.619,195.688 149.299 C 196.014 149.029,196.410 149.209,196.410 149.627 C 196.410 149.829,196.631 149.895,197.148 149.847 C 197.555 149.809,197.840 149.854,197.783 149.946 C 197.646 150.168,198.198 150.370,198.939 150.370 C 199.292 150.370,199.586 150.509,199.664 150.713 C 199.766 150.977,199.972 151.029,200.550 150.935 C 201.136 150.840,201.280 150.877,201.193 151.102 C 201.108 151.325,201.285 151.378,201.954 151.330 C 202.635 151.281,202.907 151.366,203.194 151.716 C 203.488 152.076,203.613 152.112,203.829 151.901 C 204.212 151.524,204.435 151.574,204.435 152.037 C 204.435 152.364,204.577 152.431,205.207 152.402 C 205.631 152.382,206.111 152.498,206.272 152.659 C 206.459 152.846,206.792 152.908,207.186 152.829 C 207.659 152.734,207.856 152.799,208.019 153.103 C 208.225 153.487,208.702 153.565,209.005 153.262 C 209.276 152.991,209.504 153.111,209.504 153.524 C 209.504 153.880,209.628 153.924,210.454 153.856 C 211.137 153.801,211.404 153.857,211.404 154.056 C 211.404 154.423,212.176 154.611,212.765 154.387 C 213.284 154.189,213.855 154.427,213.652 154.756 C 213.574 154.883,213.794 154.945,214.206 154.913 C 214.582 154.883,214.891 154.775,214.892 154.673 C 214.899 154.284,215.232 153.983,215.529 154.097 C 215.935 154.253,215.967 152.579,215.566 152.178 C 215.403 152.015,215.309 151.487,215.334 150.873 C 215.356 150.306,215.271 149.652,215.144 149.419 C 215.017 149.187,214.893 148.637,214.868 148.197 C 214.843 147.758,214.728 147.282,214.612 147.141 C 214.497 147.000,214.370 146.600,214.330 146.251 C 214.290 145.903,214.164 145.551,214.050 145.470 C 213.935 145.388,213.870 144.997,213.904 144.601 C 213.942 144.158,213.839 143.753,213.636 143.550 C 213.454 143.368,213.305 142.927,213.305 142.571 C 213.305 142.188,213.196 141.922,213.038 141.922 C 212.867 141.922,212.782 141.660,212.804 141.201 C 212.829 140.671,212.739 140.455,212.462 140.383 C 212.185 140.310,212.114 140.140,212.192 139.733 C 212.266 139.348,212.193 139.141,211.952 139.049 C 211.689 138.948,211.637 138.751,211.734 138.231 C 211.832 137.708,211.780 137.514,211.513 137.412 C 211.297 137.329,211.209 137.137,211.282 136.907 C 211.346 136.703,211.258 136.264,211.085 135.932 C 210.912 135.599,210.771 135.195,210.771 135.034 C 210.771 134.873,210.626 134.741,210.450 134.741 C 210.214 134.741,210.164 134.603,210.261 134.215 C 210.355 133.841,210.296 133.652,210.054 133.559 C 209.851 133.481,209.715 133.184,209.715 132.818 C 209.715 132.482,209.620 132.207,209.504 132.207 C 209.388 132.207,209.293 132.071,209.293 131.905 C 209.293 131.739,209.141 131.452,208.955 131.266 C 208.770 131.081,208.672 130.789,208.737 130.618 C 208.819 130.405,208.718 130.306,208.418 130.306 C 208.058 130.306,208.003 130.213,208.109 129.789 C 208.188 129.476,208.134 129.206,207.974 129.103 C 207.828 129.010,207.709 128.743,207.709 128.511 C 207.709 128.277,207.567 128.088,207.392 128.088 C 207.171 128.087,207.096 127.911,207.143 127.508 C 207.197 127.047,207.141 126.956,206.868 127.060 C 206.586 127.169,206.551 127.092,206.669 126.622 C 206.789 126.142,206.749 126.062,206.415 126.120 C 206.096 126.175,206.031 126.075,206.080 125.607 C 206.122 125.204,206.043 125.026,205.822 125.026 C 205.623 125.026,205.551 124.905,205.629 124.702 C 205.697 124.523,205.606 124.214,205.426 124.015 C 205.114 123.670,205.069 123.562,205.069 123.161 C 205.069 123.065,204.831 122.859,204.541 122.703 C 204.230 122.537,204.013 122.235,204.013 121.968 C 204.013 121.719,203.823 121.312,203.590 121.062 C 203.358 120.813,203.168 120.462,203.168 120.283 C 203.168 120.104,203.037 119.958,202.878 119.958 C 202.718 119.958,202.532 119.680,202.464 119.341 C 202.390 118.970,202.165 118.669,201.901 118.585 C 201.616 118.494,201.498 118.321,201.566 118.093 C 201.679 117.717,201.033 116.790,200.659 116.790 C 200.536 116.790,200.490 116.647,200.557 116.473 C 200.624 116.299,200.589 116.156,200.479 116.156 C 200.369 116.156,200.172 115.921,200.041 115.634 C 199.910 115.347,199.577 115.055,199.300 114.986 C 198.927 114.892,198.817 114.741,198.873 114.399 C 198.968 113.831,197.861 112.566,197.270 112.566 C 196.764 112.566,196.495 112.185,196.792 111.888 C 197.036 111.644,197.000 111.587,195.654 110.124 C 195.180 109.608,194.686 109.187,194.556 109.187 C 194.237 109.187,193.242 108.249,193.242 107.948 C 193.242 107.816,193.141 107.709,193.018 107.709 C 192.895 107.709,192.850 107.619,192.917 107.510 C 193.089 107.232,191.770 105.779,191.498 105.947 C 191.372 106.025,191.338 105.984,191.419 105.853 C 191.581 105.590,190.540 104.541,190.116 104.541 C 189.963 104.541,189.897 104.446,189.968 104.329 C 190.040 104.213,189.903 104.118,189.664 104.118 C 189.425 104.118,189.229 104.023,189.229 103.907 C 189.229 103.791,189.130 103.696,189.009 103.696 C 188.888 103.696,188.585 103.506,188.336 103.273 C 188.086 103.041,187.947 102.851,188.026 102.851 C 188.191 102.851,187.716 102.233,186.779 101.229 C 186.419 100.844,186.020 100.528,185.892 100.528 C 185.764 100.528,185.573 100.373,185.467 100.184 C 185.336 99.949,185.228 99.916,185.128 100.078 C 184.916 100.420,184.583 100.372,184.583 100.000 C 184.583 99.826,184.491 99.683,184.378 99.683 C 184.266 99.683,184.228 99.541,184.295 99.366 C 184.362 99.192,184.334 99.050,184.234 99.050 C 184.133 99.050,183.788 98.806,183.467 98.509 C 183.071 98.142,182.750 98.011,182.466 98.101 C 182.174 98.193,182.049 98.136,182.049 97.910 C 182.049 97.314,180.805 96.233,180.455 96.524 C 180.169 96.761,180.054 96.657,180.130 96.230 C 180.185 95.921,179.284 95.269,178.969 95.390 C 178.801 95.454,178.669 95.379,178.669 95.218 C 178.669 95.060,178.194 94.665,177.613 94.338 C 177.033 94.012,176.558 93.646,176.558 93.524 C 176.558 93.392,176.342 93.356,176.030 93.434 C 175.660 93.527,175.502 93.480,175.502 93.279 C 175.502 92.793,174.787 92.297,174.279 92.430 C 173.962 92.513,173.812 92.457,173.812 92.257 C 173.812 92.095,173.622 91.800,173.390 91.601 C 173.157 91.402,172.967 91.301,172.967 91.376 C 172.967 91.451,172.784 91.346,172.560 91.144 C 172.311 90.918,171.992 90.826,171.738 90.907 C 171.425 91.006,171.330 90.945,171.353 90.662 C 171.375 90.387,171.251 90.299,170.896 90.338 C 170.628 90.366,170.463 90.302,170.529 90.194 C 170.596 90.087,170.459 89.938,170.225 89.864 C 169.991 89.789,169.799 89.640,169.799 89.532 C 169.799 89.423,169.614 89.335,169.387 89.335 C 169.161 89.335,168.879 89.168,168.760 88.965 C 168.642 88.762,168.542 88.669,168.539 88.759 C 168.531 88.953,167.300 88.344,166.910 87.953 C 166.761 87.805,166.447 87.733,166.213 87.794 C 165.907 87.874,165.787 87.803,165.787 87.541 C 165.787 87.259,165.669 87.207,165.264 87.308 C 164.855 87.411,164.768 87.370,164.865 87.120 C 164.980 86.819,164.731 86.716,163.947 86.742 C 163.806 86.747,163.711 86.661,163.736 86.552 C 163.760 86.443,163.425 86.228,162.990 86.074 C 162.556 85.921,161.965 85.641,161.678 85.453 C 161.390 85.265,161.009 85.111,160.831 85.111 C 160.653 85.111,160.507 85.016,160.507 84.900 C 160.507 84.784,160.216 84.688,159.861 84.688 C 159.484 84.688,159.269 84.601,159.345 84.477 C 159.456 84.298,158.950 84.163,158.749 84.319 C 158.712 84.348,158.515 84.205,158.312 84.002 C 158.109 83.799,157.765 83.633,157.548 83.633 C 157.330 83.633,157.094 83.537,157.022 83.421 C 156.950 83.305,156.671 83.210,156.402 83.210 C 156.133 83.210,155.795 83.069,155.651 82.896 C 155.508 82.723,155.323 82.623,155.241 82.674 C 155.158 82.725,154.826 82.628,154.501 82.460 C 154.177 82.292,153.693 82.154,153.425 82.154 C 153.158 82.154,152.907 82.062,152.869 81.949 C 152.830 81.836,152.561 81.718,152.270 81.685 C 151.980 81.653,151.685 81.549,151.616 81.454 C 151.547 81.360,151.166 81.233,150.771 81.173 C 150.376 81.113,149.963 80.976,149.852 80.870 C 149.742 80.763,149.345 80.676,148.970 80.676 C 148.595 80.676,148.135 80.523,147.948 80.336 C 147.735 80.123,147.378 80.030,146.991 80.087 C 146.603 80.144,146.333 80.074,146.266 79.899 C 146.205 79.740,145.835 79.620,145.406 79.620 C 144.991 79.620,144.419 79.467,144.134 79.280 C 143.848 79.093,143.482 78.991,143.320 79.053 C 143.159 79.115,142.849 79.051,142.632 78.911 C 142.416 78.771,141.954 78.627,141.605 78.590 C 141.257 78.553,140.876 78.455,140.760 78.372 C 140.644 78.288,140.169 78.194,139.704 78.162 C 139.240 78.130,138.717 77.987,138.543 77.843 C 138.369 77.699,137.895 77.562,137.490 77.538 C 137.086 77.513,136.663 77.402,136.550 77.290 C 136.438 77.177,135.943 77.086,135.451 77.086 C 134.958 77.086,134.495 76.989,134.422 76.871 C 134.349 76.753,134.208 76.707,134.108 76.769 C 134.008 76.831,133.873 76.797,133.810 76.693 C 133.746 76.590,133.264 76.497,132.740 76.487 C 132.215 76.476,131.619 76.383,131.416 76.279 C 130.596 75.862,128.660 75.976,128.403 76.456 M137.064 154.488 C 137.064 154.662,136.969 154.805,136.853 154.805 C 136.737 154.805,136.642 154.710,136.642 154.593 C 136.642 154.477,136.428 154.389,136.167 154.397 C 135.726 154.411,135.722 154.424,136.104 154.573 C 136.880 154.877,135.183 155.034,132.716 154.887 C 130.733 154.768,130.355 154.796,130.251 155.066 C 130.158 155.310,129.852 155.369,128.950 155.317 C 127.900 155.256,127.772 155.294,127.772 155.660 C 127.772 156.089,127.464 156.216,127.252 155.874 C 127.082 155.599,126.245 155.684,125.909 156.011 C 125.755 156.161,125.356 156.283,125.022 156.283 C 124.687 156.283,124.338 156.406,124.245 156.557 C 124.152 156.707,123.743 156.826,123.337 156.821 C 122.819 156.814,122.597 156.906,122.593 157.128 C 122.590 157.317,122.433 157.418,122.202 157.378 C 121.989 157.341,121.658 157.380,121.467 157.465 C 120.998 157.673,120.873 157.704,120.380 157.735 C 120.148 157.749,119.958 157.898,119.958 158.064 C 119.958 158.268,119.737 158.360,119.282 158.347 C 118.911 158.337,118.571 158.438,118.526 158.573 C 118.481 158.707,118.204 158.817,117.911 158.817 C 117.529 158.817,117.412 158.905,117.497 159.127 C 117.633 159.481,117.306 159.774,117.117 159.467 C 116.969 159.227,116.080 159.363,115.988 159.640 C 115.952 159.746,115.501 159.958,114.984 160.110 C 114.322 160.306,114.044 160.500,114.044 160.768 C 114.044 161.073,113.934 161.121,113.494 161.010 C 113.167 160.928,112.883 160.969,112.795 161.111 C 112.714 161.242,112.399 161.370,112.094 161.395 C 111.789 161.421,111.557 161.533,111.578 161.644 C 111.599 161.755,111.331 161.866,110.982 161.888 C 109.969 161.955,109.909 161.980,110.243 162.196 C 110.591 162.422,110.433 162.472,109.556 162.414 C 109.237 162.393,108.976 162.472,108.976 162.589 C 108.976 162.706,108.714 162.832,108.395 162.869 C 108.072 162.906,107.837 163.052,107.866 163.197 C 107.895 163.341,107.752 163.444,107.549 163.427 C 106.650 163.352,106.246 163.469,106.361 163.770 C 106.455 164.015,106.328 164.052,105.725 163.954 C 105.179 163.866,104.938 163.916,104.854 164.135 C 104.785 164.314,104.496 164.420,104.140 164.396 C 103.810 164.373,103.409 164.438,103.249 164.539 C 103.020 164.684,103.017 164.725,103.233 164.727 C 103.385 164.729,103.456 164.817,103.392 164.922 C 103.327 165.027,102.893 165.062,102.429 165.000 C 101.796 164.915,101.584 164.960,101.584 165.178 C 101.584 165.386,101.295 165.469,100.581 165.466 C 100.029 165.464,99.512 165.555,99.433 165.668 C 99.312 165.839,97.940 165.990,96.251 166.018 C 96.048 166.021,95.882 166.119,95.882 166.235 C 95.882 166.350,95.787 166.386,95.671 166.315 C 95.554 166.243,95.459 166.279,95.459 166.396 C 95.459 166.512,95.246 166.565,94.984 166.514 C 94.723 166.463,94.248 166.401,93.928 166.376 C 93.609 166.351,93.347 166.275,93.347 166.207 C 93.347 166.058,92.058 165.911,90.972 165.937 C 90.537 165.947,90.227 165.880,90.284 165.788 C 90.449 165.521,89.877 165.388,88.820 165.448 C 88.283 165.478,87.954 165.435,88.089 165.351 C 88.492 165.102,87.490 164.888,87.069 165.134 C 86.850 165.261,86.807 165.354,86.966 165.358 C 87.164 165.363,87.181 165.470,87.030 165.753 C 86.794 166.194,86.962 167.109,87.247 166.933 C 87.350 166.870,87.434 166.924,87.434 167.054 C 87.434 167.184,87.529 167.231,87.645 167.159 C 87.761 167.088,87.856 167.174,87.856 167.352 C 87.856 167.552,87.977 167.628,88.173 167.553 C 88.374 167.476,88.490 167.556,88.490 167.770 C 88.490 167.957,88.636 168.110,88.813 168.110 C 88.991 168.110,89.192 168.252,89.258 168.427 C 89.325 168.601,89.512 168.743,89.674 168.743 C 89.836 168.743,89.968 168.838,89.968 168.955 C 89.968 169.071,90.070 169.166,90.194 169.166 C 90.318 169.166,90.735 169.407,91.121 169.701 C 91.507 169.996,91.905 170.213,92.005 170.185 C 92.258 170.111,93.195 170.649,93.474 171.028 C 93.601 171.201,93.815 171.275,93.949 171.192 C 94.088 171.106,94.192 171.168,94.192 171.336 C 94.192 171.497,94.335 171.646,94.509 171.665 C 94.683 171.684,94.964 171.716,95.133 171.735 C 95.303 171.755,95.492 171.903,95.554 172.065 C 95.617 172.228,95.752 172.308,95.856 172.244 C 95.960 172.180,96.152 172.256,96.283 172.414 C 96.419 172.577,96.796 172.668,97.162 172.625 C 97.515 172.584,97.754 172.630,97.694 172.728 C 97.556 172.952,98.590 173.437,98.856 173.273 C 98.964 173.206,99.107 173.293,99.173 173.467 C 99.240 173.640,99.471 173.747,99.686 173.706 C 99.902 173.664,100.186 173.760,100.318 173.919 C 100.481 174.115,100.884 174.180,101.576 174.122 C 102.424 174.051,102.611 174.100,102.694 174.419 C 102.792 174.793,103.520 174.903,103.832 174.591 C 104.158 174.265,104.802 174.443,104.701 174.830 C 104.586 175.268,106.283 175.506,106.542 175.088 C 106.737 174.772,107.825 174.817,108.103 175.151 C 108.233 175.307,108.283 175.490,108.216 175.557 C 108.149 175.625,108.340 175.653,108.640 175.620 C 108.941 175.587,109.187 175.632,109.187 175.721 C 109.187 176.220,118.314 175.896,118.792 175.380 C 119.278 174.856,120.245 174.690,120.491 175.088 C 120.741 175.492,122.492 175.265,122.492 174.829 C 122.492 174.438,123.308 174.276,123.633 174.601 C 123.996 174.964,124.940 174.819,124.972 174.395 C 125.015 173.826,125.195 173.685,125.495 173.985 C 125.929 174.419,126.863 174.290,126.997 173.777 C 127.090 173.422,127.180 173.373,127.401 173.556 C 127.784 173.874,128.656 173.797,128.526 173.457 C 128.381 173.081,128.792 172.886,129.132 173.168 C 129.348 173.347,129.508 173.313,129.794 173.027 C 130.170 172.651,130.239 172.621,130.834 172.571 C 131.008 172.557,131.151 172.402,131.151 172.228 C 131.151 171.853,131.253 171.838,131.798 172.130 C 132.142 172.314,132.207 172.278,132.207 171.905 C 132.207 171.610,132.330 171.475,132.577 171.500 C 133.448 171.589,133.808 171.494,133.474 171.265 C 133.232 171.100,133.321 171.062,133.845 171.108 C 134.361 171.153,134.691 171.019,135.165 170.571 C 135.513 170.243,135.797 170.075,135.797 170.197 C 135.797 170.320,135.940 170.365,136.114 170.298 C 136.288 170.231,136.431 169.997,136.431 169.777 C 136.431 169.348,136.743 169.239,136.961 169.592 C 137.177 169.941,137.456 169.624,137.337 169.166 C 137.228 168.748,137.597 168.549,137.733 168.952 C 137.775 169.077,138.037 169.039,138.384 168.859 C 138.704 168.693,138.965 168.616,138.965 168.687 C 138.965 168.759,139.200 168.597,139.487 168.327 C 139.773 168.058,139.953 167.748,139.885 167.639 C 139.816 167.527,140.027 167.470,140.367 167.509 C 140.763 167.554,140.953 167.487,140.919 167.316 C 140.888 167.165,141.083 167.054,141.379 167.054 C 141.661 167.054,142.064 166.840,142.276 166.579 C 142.488 166.317,142.851 166.103,143.083 166.103 C 143.381 166.103,143.485 165.986,143.437 165.705 C 143.385 165.404,143.457 165.341,143.731 165.446 C 143.930 165.523,144.318 165.438,144.592 165.259 C 144.866 165.079,145.090 164.997,145.090 165.075 C 145.090 165.154,145.256 165.070,145.459 164.888 C 145.663 164.706,146.375 164.308,147.043 164.004 C 147.711 163.700,148.258 163.359,148.258 163.246 C 148.258 163.133,148.537 163.041,148.879 163.041 C 149.220 163.041,149.559 162.946,149.630 162.830 C 149.702 162.714,149.945 162.619,150.171 162.619 C 150.407 162.619,150.581 162.475,150.581 162.279 C 150.581 162.025,150.710 161.972,151.093 162.068 C 151.416 162.149,151.724 162.079,151.923 161.880 C 152.098 161.705,152.588 161.563,153.014 161.563 C 153.611 161.563,153.814 161.466,153.899 161.140 C 154.020 160.677,154.279 160.592,154.497 160.944 C 154.691 161.257,156.615 161.083,156.547 160.758 C 156.484 160.460,156.569 160.449,158.573 160.504 C 159.933 160.541,160.161 160.492,160.433 160.104 C 160.603 159.861,160.859 159.662,161.001 159.662 C 161.490 159.662,161.257 158.507,160.753 158.433 C 160.502 158.396,160.296 158.238,160.296 158.082 C 160.296 157.885,160.101 157.829,159.664 157.898 C 159.195 157.972,159.060 157.924,159.141 157.713 C 159.216 157.518,159.041 157.414,158.577 157.378 C 158.208 157.350,157.792 157.173,157.655 156.985 C 157.492 156.762,157.214 156.680,156.854 156.749 C 156.519 156.813,156.320 156.763,156.346 156.621 C 156.372 156.479,156.036 156.396,155.481 156.408 C 154.788 156.422,154.601 156.357,154.687 156.133 C 154.749 155.971,154.706 155.897,154.591 155.968 C 154.476 156.039,154.382 156.001,154.382 155.885 C 154.382 155.768,154.002 155.694,153.537 155.720 C 152.983 155.751,152.693 155.678,152.693 155.506 C 152.693 155.320,152.298 155.263,151.311 155.305 C 150.218 155.353,149.953 155.305,150.040 155.079 C 150.131 154.842,149.562 154.812,146.752 154.911 C 143.268 155.033,142.240 154.940,142.792 154.554 C 143.001 154.407,142.920 154.375,142.503 154.442 C 142.183 154.493,141.922 154.453,141.922 154.353 C 141.922 154.253,140.829 154.171,139.493 154.171 C 137.475 154.171,137.064 154.225,137.064 154.488 M140.180 154.536 C 139.744 154.582,139.031 154.582,138.596 154.536 C 138.160 154.491,138.516 154.453,139.388 154.453 C 140.259 154.453,140.615 154.491,140.180 154.536 " stroke="none" fill="#ea4fda" fill-rule="evenodd"></path><path id="path1" d="M173.893 47.671 C 173.451 47.980,173.376 48.739,173.696 49.660 C 173.873 50.166,174.018 50.789,174.020 51.044 C 174.022 51.298,174.118 51.565,174.234 51.637 C 174.351 51.709,174.446 51.981,174.446 52.242 C 174.446 52.504,174.585 52.902,174.756 53.128 C 174.926 53.353,175.069 53.753,175.072 54.016 C 175.076 54.278,175.166 54.659,175.273 54.860 C 175.379 55.062,175.624 55.797,175.817 56.494 C 176.010 57.191,176.249 57.951,176.348 58.184 C 176.447 58.416,176.579 58.891,176.639 59.240 C 176.969 61.127,177.129 61.820,177.303 62.099 C 177.409 62.269,177.573 62.930,177.667 63.569 C 177.762 64.208,177.923 65.253,178.025 65.892 C 178.127 66.531,178.312 67.814,178.436 68.743 C 178.560 69.673,178.762 70.908,178.884 71.489 C 179.121 72.612,179.195 74.217,179.462 83.997 C 179.582 88.388,179.705 90.244,179.889 90.428 C 180.031 90.570,180.148 91.041,180.148 91.474 C 180.148 92.080,180.307 92.423,180.839 92.963 C 181.897 94.036,183.360 95.308,184.059 95.762 C 184.405 95.987,184.796 96.277,184.927 96.408 C 185.058 96.538,185.669 97.067,186.285 97.583 C 189.961 100.664,195.899 106.604,198.203 109.504 C 198.664 110.084,199.258 110.797,199.523 111.088 C 199.988 111.597,202.420 114.811,202.851 115.485 C 202.967 115.666,203.514 116.462,204.065 117.254 C 204.617 118.045,205.069 118.741,205.069 118.801 C 205.069 118.915,206.145 120.617,206.334 120.803 C 206.456 120.923,206.889 121.668,207.376 122.598 C 207.559 122.946,207.756 123.279,207.814 123.337 C 208.218 123.742,212.038 131.574,212.038 131.996 C 212.038 132.113,212.276 132.702,212.566 133.303 C 212.856 133.905,213.094 134.524,213.094 134.678 C 213.094 134.832,213.175 135.123,213.274 135.325 C 213.766 136.327,214.144 137.250,214.374 138.015 C 214.610 138.801,215.027 139.974,215.425 140.971 C 215.518 141.204,215.762 141.988,215.968 142.714 C 216.173 143.440,216.419 144.034,216.513 144.034 C 216.607 144.034,216.684 144.267,216.684 144.552 C 216.684 144.837,216.773 145.288,216.881 145.555 C 216.989 145.822,217.132 146.295,217.198 146.607 C 217.603 148.507,219.430 146.796,219.430 144.517 C 219.430 144.030,219.523 143.413,219.637 143.146 C 220.645 140.780,220.878 120.825,219.958 115.628 C 219.773 114.583,219.537 113.157,219.433 112.460 C 219.038 109.819,218.833 108.805,218.607 108.383 C 218.479 108.143,218.374 107.734,218.374 107.473 C 218.374 107.213,218.284 106.708,218.174 106.351 C 218.064 105.994,217.812 105.132,217.612 104.435 C 217.413 103.738,217.178 103.025,217.090 102.851 C 217.002 102.677,216.771 101.988,216.577 101.320 C 216.382 100.653,216.137 100.053,216.031 99.988 C 215.926 99.923,215.839 99.656,215.839 99.396 C 215.839 99.136,215.764 98.833,215.671 98.722 C 215.579 98.612,215.377 98.141,215.223 97.677 C 214.958 96.878,214.681 96.210,213.692 93.981 C 212.337 90.928,208.671 83.790,208.395 83.668 C 208.308 83.629,208.237 83.506,208.237 83.393 C 208.237 82.701,201.276 72.501,199.634 70.787 C 199.487 70.634,199.366 70.441,199.366 70.359 C 199.366 70.277,198.867 69.686,198.258 69.046 C 197.648 68.405,196.709 67.362,196.171 66.728 C 195.079 65.442,189.205 59.509,187.084 57.550 C 182.189 53.031,180.614 51.694,177.719 49.601 C 176.558 48.761,175.555 47.998,175.491 47.905 C 175.317 47.652,174.163 47.483,173.893 47.671 M147.835 80.223 C 147.835 80.440,148.475 80.740,148.623 80.592 C 148.674 80.541,148.518 80.393,148.276 80.263 C 148.033 80.133,147.835 80.116,147.835 80.223 M173.442 91.675 C 173.646 91.793,173.812 92.028,173.812 92.196 C 173.812 92.365,173.955 92.503,174.129 92.503 C 174.303 92.503,174.446 92.419,174.446 92.316 C 174.446 92.113,173.508 91.443,173.239 91.453 C 173.147 91.457,173.239 91.556,173.442 91.675 M175.441 93.140 C 175.558 93.587,175.820 93.686,176.023 93.358 C 176.091 93.248,175.964 93.059,175.739 92.939 C 175.391 92.753,175.348 92.782,175.441 93.140 M176.558 93.638 C 176.558 93.688,176.896 93.928,177.309 94.172 C 177.723 94.416,178.002 94.519,177.930 94.402 C 177.788 94.173,176.558 93.488,176.558 93.638 M180.051 96.290 C 179.907 96.523,180.240 96.775,180.435 96.580 C 180.636 96.379,180.599 96.093,180.371 96.093 C 180.262 96.093,180.118 96.181,180.051 96.290 M181.987 97.782 C 182.100 98.214,182.292 98.313,182.540 98.066 C 182.693 97.912,182.304 97.360,182.042 97.360 C 181.951 97.360,181.927 97.550,181.987 97.782 M184.319 99.601 C 184.464 99.665,184.583 99.861,184.583 100.035 C 184.583 100.209,184.702 100.312,184.847 100.264 C 185.317 100.107,185.127 99.579,184.583 99.530 C 184.293 99.504,184.174 99.536,184.319 99.601 M187.565 102.180 C 187.723 102.433,187.930 102.640,188.025 102.640 C 188.120 102.640,188.150 102.718,188.091 102.813 C 187.971 103.008,188.696 103.696,189.020 103.696 C 189.135 103.696,189.229 103.791,189.229 103.907 C 189.229 104.023,189.388 104.118,189.583 104.118 C 190.007 104.118,189.410 103.416,188.095 102.370 C 187.443 101.851,187.336 101.812,187.565 102.180 M192.890 107.391 C 192.890 107.566,192.969 107.709,193.066 107.709 C 193.163 107.709,193.242 107.816,193.242 107.948 C 193.242 108.288,194.257 109.187,194.641 109.187 C 194.925 109.187,194.924 109.150,194.634 108.860 C 194.454 108.680,194.185 108.371,194.036 108.173 C 193.492 107.452,192.890 107.040,192.890 107.391 M196.727 111.932 C 196.530 112.250,196.804 112.566,197.274 112.566 C 197.626 112.566,197.656 112.500,197.466 112.144 C 197.219 111.683,196.931 111.601,196.727 111.932 M198.890 114.440 C 198.816 114.722,198.907 114.885,199.176 114.956 C 199.519 115.045,199.540 115.000,199.334 114.604 C 199.008 113.977,199.011 113.978,198.890 114.440 M201.478 118.228 C 201.478 118.341,201.629 118.492,201.813 118.563 C 202.018 118.641,202.115 118.594,202.064 118.440 C 201.958 118.124,201.478 117.950,201.478 118.228 M249.736 118.896 C 249.504 118.999,248.981 119.091,248.574 119.099 C 248.168 119.108,247.563 119.258,247.230 119.431 C 246.898 119.605,246.357 119.747,246.028 119.747 C 245.700 119.747,245.373 119.842,245.301 119.958 C 245.229 120.074,244.980 120.169,244.747 120.169 C 244.515 120.169,243.784 120.416,243.123 120.718 C 242.462 121.019,241.589 121.414,241.183 121.594 C 240.776 121.774,240.396 121.978,240.338 122.048 C 240.280 122.119,239.947 122.318,239.599 122.491 C 237.598 123.487,231.679 128.535,231.679 129.246 C 231.679 129.323,231.385 129.711,231.026 130.110 C 230.184 131.044,228.619 133.089,228.322 133.644 C 228.195 133.881,227.963 134.203,227.806 134.360 C 227.649 134.517,227.273 135.023,226.970 135.485 C 226.667 135.947,225.939 137.027,225.353 137.885 C 224.232 139.527,223.987 140.565,224.602 141.075 C 225.078 141.470,230.195 140.956,230.687 140.464 C 230.814 140.337,231.085 140.232,231.288 140.232 C 231.607 140.232,232.417 139.845,234.108 138.885 C 235.128 138.306,237.134 136.827,237.910 136.081 C 238.376 135.635,239.089 135.016,239.494 134.706 C 239.900 134.396,240.811 133.588,241.518 132.911 C 244.423 130.126,247.399 127.950,249.268 127.246 C 249.823 127.036,250.328 126.784,250.389 126.685 C 250.450 126.586,250.738 126.505,251.030 126.505 C 251.321 126.505,251.730 126.413,251.939 126.301 C 252.819 125.831,257.541 125.689,261.035 126.029 C 264.759 126.392,265.521 126.510,266.241 126.836 C 266.607 127.002,267.195 127.138,267.548 127.138 C 267.902 127.138,268.249 127.233,268.321 127.350 C 268.393 127.466,268.760 127.561,269.136 127.561 C 269.512 127.561,269.911 127.644,270.021 127.745 C 270.131 127.846,270.792 128.092,271.489 128.292 C 272.186 128.492,272.974 128.741,273.241 128.847 C 273.508 128.953,273.919 129.039,274.154 129.039 C 274.389 129.039,274.724 129.182,274.898 129.356 C 275.072 129.530,275.440 129.673,275.715 129.673 C 275.991 129.673,276.268 129.757,276.332 129.861 C 276.396 129.964,276.758 130.092,277.136 130.145 C 277.515 130.198,277.970 130.306,278.148 130.384 C 278.325 130.463,278.655 130.392,278.881 130.227 C 279.521 129.759,278.858 128.738,276.876 127.138 C 276.372 126.732,275.857 126.298,275.731 126.175 C 275.228 125.682,272.472 123.759,272.269 123.759 C 272.150 123.759,272.020 123.688,271.982 123.601 C 271.886 123.385,269.653 122.273,269.324 122.278 C 269.179 122.279,269.060 122.199,269.060 122.098 C 269.060 121.998,268.609 121.753,268.057 121.554 C 267.505 121.355,266.864 121.109,266.631 121.007 C 265.329 120.435,264.519 120.169,264.084 120.169 C 263.814 120.169,263.535 120.074,263.464 119.958 C 263.392 119.842,262.978 119.747,262.543 119.747 C 262.108 119.747,261.649 119.642,261.521 119.515 C 260.953 118.947,250.819 118.415,249.736 118.896 M202.484 119.436 C 202.539 119.723,202.659 119.958,202.750 119.958 C 202.946 119.958,202.766 119.151,202.539 119.010 C 202.454 118.958,202.429 119.149,202.484 119.436 M204.019 121.994 C 204.016 122.243,204.155 122.502,204.329 122.568 C 204.731 122.723,204.734 122.478,204.336 121.952 C 204.032 121.550,204.026 121.551,204.019 121.994 M206.019 125.660 C 205.935 125.796,205.961 126.003,206.077 126.119 C 206.218 126.260,206.339 126.248,206.441 126.082 C 206.526 125.946,206.500 125.739,206.383 125.623 C 206.243 125.482,206.121 125.495,206.019 125.660 M207.075 127.772 C 207.003 127.888,206.974 127.990,207.010 127.999 C 207.618 128.150,207.771 128.117,207.671 127.857 C 207.539 127.511,207.261 127.471,207.075 127.772 M208.169 129.599 C 207.909 129.859,208.019 130.306,208.342 130.306 C 208.694 130.306,208.738 130.124,208.483 129.722 C 208.390 129.575,208.248 129.520,208.169 129.599 M208.659 130.703 C 208.659 130.850,208.801 131.113,208.976 131.287 C 209.381 131.692,209.376 131.385,208.969 130.847 C 208.795 130.617,208.659 130.554,208.659 130.703 M257.465 131.483 C 253.516 133.657,254.864 139.176,259.344 139.176 C 260.897 139.176,261.348 139.012,262.314 138.093 C 265.771 134.806,261.645 129.182,257.465 131.483 M296.199 131.372 C 293.125 131.518,289.875 131.896,289.466 132.154 C 289.336 132.236,288.706 132.372,288.068 132.457 C 285.165 132.843,284.201 133.027,284.080 133.218 C 284.008 133.330,283.569 133.476,283.105 133.540 C 281.276 133.795,278.763 134.472,278.437 134.798 C 278.352 134.883,278.019 134.952,277.696 134.952 C 277.374 134.952,277.052 135.048,276.980 135.164 C 276.908 135.280,276.639 135.375,276.381 135.375 C 276.123 135.375,275.725 135.497,275.496 135.646 C 275.267 135.795,274.699 136.041,274.234 136.192 C 273.770 136.343,272.914 136.689,272.334 136.961 C 271.753 137.233,270.874 137.623,270.380 137.828 C 269.886 138.034,269.483 138.278,269.483 138.372 C 269.483 138.466,269.351 138.543,269.190 138.543 C 268.852 138.543,268.164 138.885,267.262 139.502 C 266.915 139.739,266.275 140.117,265.839 140.342 C 265.404 140.567,265.048 140.804,265.048 140.868 C 265.048 140.933,264.739 141.168,264.361 141.391 C 263.984 141.613,263.284 142.085,262.806 142.440 C 262.328 142.794,261.666 143.273,261.336 143.506 C 261.005 143.738,260.256 144.310,259.670 144.777 C 258.546 145.674,258.246 145.905,256.260 147.398 C 255.576 147.913,254.968 148.388,254.910 148.454 C 254.852 148.520,253.854 149.283,252.693 150.148 C 251.531 151.014,250.486 151.830,250.370 151.962 C 250.253 152.093,249.731 152.468,249.208 152.795 C 248.685 153.122,248.210 153.454,248.152 153.532 C 248.094 153.611,247.738 153.855,247.360 154.074 C 246.983 154.294,246.674 154.548,246.674 154.639 C 246.674 154.730,246.581 154.805,246.467 154.805 C 246.353 154.805,245.759 155.122,245.147 155.510 C 244.535 155.899,243.630 156.392,243.136 156.607 C 242.643 156.822,242.239 157.075,242.239 157.168 C 242.239 157.262,242.114 157.339,241.961 157.339 C 241.706 157.339,239.881 158.129,239.021 158.612 C 238.819 158.725,238.468 158.817,238.241 158.817 C 238.014 158.817,237.770 158.912,237.698 159.029 C 237.626 159.145,237.354 159.240,237.092 159.240 C 236.831 159.240,236.433 159.379,236.207 159.550 C 235.982 159.720,235.460 159.863,235.048 159.867 C 234.635 159.870,234.207 159.958,234.097 160.062 C 233.374 160.744,218.996 160.745,218.279 160.064 C 218.168 159.959,217.641 159.873,217.107 159.873 C 216.572 159.873,216.026 159.764,215.892 159.630 C 215.669 159.407,214.826 159.199,212.883 158.886 C 212.476 158.821,212.049 158.692,211.932 158.600 C 211.816 158.508,211.364 158.366,210.927 158.284 C 210.490 158.203,210.081 158.052,210.017 157.949 C 209.953 157.846,209.627 157.761,209.293 157.761 C 208.958 157.761,208.625 157.666,208.553 157.550 C 208.482 157.434,208.137 157.339,207.787 157.339 C 207.437 157.339,207.008 157.196,206.834 157.022 C 206.659 156.848,206.244 156.705,205.911 156.705 C 205.577 156.705,205.246 156.610,205.174 156.494 C 205.102 156.378,204.783 156.283,204.465 156.283 C 204.146 156.283,203.796 156.193,203.685 156.084 C 203.575 155.974,203.105 155.790,202.640 155.674 C 202.175 155.557,201.415 155.354,200.950 155.222 C 200.486 155.089,199.820 154.928,199.472 154.864 C 199.124 154.799,198.651 154.617,198.422 154.459 C 198.193 154.301,197.747 154.171,197.431 154.171 C 197.115 154.171,196.798 154.076,196.727 153.960 C 196.655 153.844,196.288 153.749,195.912 153.749 C 195.535 153.749,195.137 153.659,195.026 153.550 C 194.797 153.322,193.303 152.912,192.132 152.755 C 191.695 152.696,191.286 152.563,191.222 152.459 C 191.157 152.355,190.749 152.270,190.315 152.270 C 189.880 152.270,189.415 152.161,189.282 152.027 C 189.033 151.779,187.757 151.483,186.061 151.282 C 185.539 151.220,184.997 151.077,184.858 150.964 C 184.615 150.767,183.499 150.541,180.993 150.180 C 180.354 150.088,179.688 149.952,179.514 149.877 C 178.931 149.626,174.579 148.994,171.595 148.726 C 170.665 148.643,169.776 148.491,169.618 148.389 C 167.925 147.298,135.177 147.327,133.846 148.421 C 133.700 148.541,133.010 148.690,132.313 148.752 C 130.082 148.949,126.603 149.628,126.188 149.948 C 126.072 150.038,125.597 150.161,125.132 150.223 C 123.689 150.415,122.468 150.731,122.222 150.978 C 122.092 151.108,121.751 151.214,121.465 151.214 C 119.673 151.214,118.300 153.009,119.793 153.400 C 120.318 153.537,121.399 153.346,121.559 153.088 C 121.621 152.987,122.028 152.904,122.462 152.904 C 122.897 152.904,123.343 152.818,123.453 152.712 C 123.563 152.607,124.129 152.470,124.710 152.409 C 125.290 152.347,126.716 152.137,127.878 151.941 C 130.499 151.500,142.786 151.267,144.139 151.633 C 144.604 151.758,145.792 151.956,146.779 152.073 C 147.767 152.190,149.192 152.380,149.947 152.495 C 150.702 152.610,151.748 152.760,152.270 152.827 C 152.793 152.894,153.326 153.034,153.454 153.138 C 153.674 153.317,154.961 153.643,156.389 153.882 C 156.737 153.941,157.212 154.067,157.445 154.163 C 158.602 154.641,159.829 155.016,160.237 155.016 C 160.488 155.016,160.752 155.111,160.824 155.227 C 160.895 155.343,161.167 155.438,161.427 155.438 C 161.688 155.438,161.991 155.527,162.101 155.635 C 162.212 155.744,163.062 156.084,163.992 156.392 C 164.921 156.700,165.871 157.070,166.103 157.216 C 166.336 157.361,166.977 157.612,167.529 157.773 C 168.081 157.933,168.532 158.121,168.532 158.189 C 168.532 158.258,168.936 158.483,169.430 158.690 C 171.466 159.543,177.146 162.474,178.863 163.558 C 179.333 163.854,179.765 164.097,179.823 164.097 C 179.881 164.097,180.448 164.430,181.084 164.836 C 181.719 165.243,182.339 165.576,182.461 165.576 C 182.583 165.576,182.682 165.649,182.682 165.739 C 182.682 165.828,183.039 166.089,183.474 166.317 C 183.910 166.546,184.314 166.782,184.372 166.843 C 184.520 166.997,186.102 168.003,186.484 168.186 C 186.658 168.269,186.990 168.454,187.223 168.596 C 189.907 170.238,190.592 170.609,194.720 172.655 C 197.878 174.220,198.655 174.584,199.789 175.032 C 200.079 175.147,200.935 175.490,201.690 175.794 C 202.445 176.099,203.223 176.347,203.419 176.347 C 203.616 176.347,203.835 176.441,203.907 176.558 C 203.979 176.674,204.298 176.769,204.616 176.769 C 204.935 176.769,205.290 176.863,205.405 176.978 C 205.631 177.204,207.075 177.555,208.765 177.794 C 209.345 177.876,209.936 178.015,210.078 178.103 C 211.393 178.923,223.536 178.890,225.082 178.063 C 225.326 177.932,225.955 177.825,226.478 177.825 C 227.002 177.825,227.481 177.742,227.543 177.642 C 227.606 177.541,228.107 177.408,228.658 177.346 C 229.208 177.283,229.694 177.128,229.736 177.001 C 229.779 176.873,230.133 176.769,230.523 176.769 C 230.913 176.769,231.290 176.674,231.362 176.558 C 231.434 176.441,231.653 176.347,231.850 176.347 C 232.168 176.348,233.701 175.777,235.618 174.946 C 235.984 174.787,236.388 174.657,236.516 174.657 C 236.643 174.657,236.748 174.562,236.748 174.446 C 236.748 174.329,236.903 174.234,237.094 174.234 C 237.557 174.234,242.622 171.550,243.311 170.939 C 243.495 170.777,243.712 170.644,243.795 170.644 C 243.878 170.644,244.061 170.549,244.201 170.432 C 244.341 170.316,244.976 169.872,245.612 169.446 C 246.842 168.622,248.499 167.336,250.053 165.999 C 250.576 165.549,251.383 164.883,251.848 164.518 C 252.313 164.153,253.453 163.122,254.382 162.227 C 255.312 161.332,256.690 160.080,257.445 159.445 C 258.200 158.809,259.105 158.004,259.456 157.656 C 259.808 157.307,260.473 156.740,260.935 156.395 C 261.396 156.050,261.964 155.588,262.196 155.369 C 262.429 155.149,263.141 154.583,263.780 154.110 C 264.419 153.637,264.989 153.187,265.048 153.109 C 265.106 153.031,265.502 152.740,265.928 152.461 C 266.354 152.182,267.521 151.360,268.520 150.634 C 269.520 149.908,270.382 149.314,270.436 149.314 C 270.490 149.314,271.182 148.910,271.973 148.416 C 272.765 147.922,273.597 147.403,273.823 147.263 C 274.049 147.122,274.733 146.746,275.343 146.427 C 275.953 146.108,276.452 145.787,276.452 145.714 C 276.452 145.641,276.975 145.360,277.614 145.090 C 278.252 144.820,278.775 144.519,278.775 144.422 C 278.775 144.325,278.900 144.245,279.052 144.245 C 279.205 144.245,279.723 144.055,280.204 143.823 C 280.684 143.590,281.166 143.400,281.273 143.400 C 281.381 143.400,281.587 143.258,281.732 143.083 C 281.876 142.909,282.173 142.767,282.391 142.767 C 282.609 142.767,282.788 142.672,282.788 142.555 C 282.788 142.439,283.014 142.344,283.290 142.344 C 283.566 142.344,283.910 142.202,284.055 142.027 C 284.200 141.853,284.477 141.711,284.672 141.711 C 284.867 141.711,285.117 141.631,285.227 141.533 C 285.337 141.435,285.974 141.188,286.642 140.985 C 287.310 140.782,287.856 140.529,287.856 140.424 C 287.856 140.319,288.095 140.232,288.387 140.232 C 288.679 140.232,289.083 140.151,289.285 140.052 C 290.563 139.425,291.186 139.172,291.600 139.113 C 291.858 139.076,292.135 138.981,292.216 138.900 C 292.296 138.820,292.626 138.754,292.948 138.754 C 293.270 138.754,293.592 138.659,293.664 138.543 C 293.736 138.427,294.003 138.331,294.257 138.330 C 294.512 138.330,294.987 138.190,295.314 138.019 C 295.641 137.849,296.235 137.687,296.634 137.661 C 297.033 137.634,297.360 137.536,297.360 137.444 C 297.360 137.351,297.781 137.276,298.295 137.276 C 298.813 137.276,299.362 137.144,299.524 136.982 C 299.686 136.820,300.287 136.634,300.860 136.569 C 301.432 136.503,302.471 136.354,303.168 136.238 C 303.865 136.122,305.100 135.929,305.913 135.809 C 306.727 135.689,307.534 135.524,307.709 135.442 C 308.010 135.302,308.757 135.226,314.150 134.789 C 315.428 134.685,316.711 134.475,317.001 134.321 C 317.291 134.168,317.672 133.975,317.846 133.894 C 318.829 133.434,318.065 132.418,316.736 132.418 C 316.286 132.418,315.743 132.325,315.529 132.210 C 315.315 132.096,314.443 131.950,313.589 131.886 C 312.736 131.822,311.373 131.681,310.560 131.573 C 308.615 131.315,299.940 131.193,296.199 131.372 M167.238 133.210 C 167.590 133.862,168.477 134.580,168.628 134.335 C 168.767 134.111,168.736 134.080,168.321 134.029 C 168.205 134.014,168.089 133.907,168.063 133.791 C 167.995 133.489,167.414 132.841,167.211 132.841 C 167.116 132.841,167.129 133.007,167.238 133.210 M168.792 134.723 C 168.836 134.887,169.191 135.268,169.582 135.568 C 170.279 136.104,170.287 136.105,170.032 135.627 C 169.889 135.359,169.612 135.081,169.416 135.009 C 169.220 134.937,168.982 134.776,168.886 134.651 C 168.774 134.505,168.740 134.531,168.792 134.723 M211.616 138.626 C 211.616 138.788,211.758 138.975,211.932 139.042 C 212.287 139.177,212.304 139.143,212.121 138.666 C 211.963 138.253,211.616 138.226,211.616 138.626 M212.185 139.945 C 212.016 140.114,212.207 140.444,212.473 140.444 C 212.582 140.444,212.672 140.301,212.672 140.127 C 212.672 139.800,212.422 139.707,212.185 139.945 M178.458 142.450 C 178.603 142.624,178.802 142.767,178.900 142.767 C 178.998 142.767,179.024 142.624,178.957 142.450 C 178.890 142.276,178.691 142.133,178.515 142.133 C 178.255 142.133,178.244 142.192,178.458 142.450 M185.676 145.864 C 185.714 146.058,185.856 146.253,185.992 146.299 C 186.149 146.351,186.198 146.223,186.126 145.947 C 185.991 145.430,185.577 145.355,185.676 145.864 M188.197 146.760 C 187.962 146.909,187.989 146.990,188.335 147.175 C 188.710 147.376,188.751 147.351,188.656 146.987 C 188.596 146.757,188.534 146.570,188.518 146.571 C 188.503 146.573,188.358 146.658,188.197 146.760 M189.766 147.188 C 189.609 147.441,189.793 147.835,190.068 147.835 C 190.263 147.835,190.236 147.293,190.031 147.088 C 189.962 147.019,189.842 147.064,189.766 147.188 M191.065 147.759 C 190.868 147.956,191.106 148.258,191.459 148.258 C 191.627 148.258,191.763 148.115,191.763 147.941 C 191.763 147.623,191.318 147.507,191.065 147.759 M192.826 148.249 C 192.496 148.458,192.642 148.735,193.117 148.804 C 193.300 148.831,193.364 148.703,193.297 148.446 C 193.240 148.226,193.180 148.048,193.164 148.050 C 193.149 148.051,192.996 148.141,192.826 148.249 M194.300 148.677 C 194.051 148.832,194.039 148.928,194.243 149.132 C 194.551 149.440,194.786 149.267,194.686 148.808 C 194.635 148.574,194.524 148.537,194.300 148.677 M195.684 149.292 C 195.612 149.408,195.754 149.611,196.000 149.743 C 196.382 149.947,196.437 149.928,196.376 149.613 C 196.292 149.181,195.873 148.986,195.684 149.292 M197.374 149.925 C 197.246 150.131,197.879 150.449,198.059 150.269 C 198.120 150.208,198.053 150.158,197.911 150.158 C 197.768 150.158,197.711 150.063,197.782 149.947 C 197.854 149.831,197.818 149.736,197.702 149.736 C 197.586 149.736,197.438 149.821,197.374 149.925 M198.944 150.616 C 198.944 150.751,199.007 150.800,199.083 150.723 C 199.159 150.647,199.352 150.692,199.510 150.824 C 199.738 151.013,199.771 150.990,199.665 150.716 C 199.514 150.321,198.944 150.242,198.944 150.616 M200.754 150.979 C 200.690 151.082,200.820 151.214,201.043 151.272 C 201.326 151.346,201.413 151.290,201.334 151.085 C 201.207 150.752,200.926 150.701,200.754 150.979 M202.369 151.458 C 202.414 151.592,202.658 151.779,202.912 151.873 C 203.329 152.027,203.348 152.004,203.114 151.629 C 202.838 151.187,202.233 151.049,202.369 151.458 M215.332 151.392 C 215.176 151.644,215.395 152.270,215.639 152.270 C 215.736 152.270,215.776 152.067,215.728 151.819 C 215.620 151.258,215.497 151.126,215.332 151.392 M203.948 151.772 C 203.779 151.941,203.970 152.270,204.236 152.270 C 204.346 152.270,204.435 152.128,204.435 151.954 C 204.435 151.627,204.186 151.534,203.948 151.772 M205.591 152.491 C 205.522 152.602,205.511 152.693,205.567 152.693 C 205.622 152.693,205.818 152.750,206.002 152.821 C 206.185 152.891,206.336 152.854,206.336 152.738 C 206.336 152.442,205.742 152.246,205.591 152.491 M207.285 152.905 C 207.213 153.022,207.326 153.180,207.537 153.255 C 207.747 153.330,208.001 153.436,208.099 153.490 C 208.198 153.544,208.171 153.387,208.039 153.141 C 207.780 152.656,207.494 152.567,207.285 152.905 M208.991 153.302 C 208.927 153.405,209.016 153.607,209.189 153.751 C 209.451 153.968,209.504 153.936,209.504 153.563 C 209.504 153.110,209.204 152.958,208.991 153.302 M210.819 153.999 C 210.950 154.391,211.404 154.456,211.404 154.083 C 211.404 153.899,211.254 153.749,211.070 153.749 C 210.886 153.749,210.773 153.862,210.819 153.999 M215.068 154.220 C 214.728 154.765,214.799 155.023,215.225 154.794 C 215.447 154.676,215.628 154.493,215.628 154.387 C 215.628 154.056,215.242 153.941,215.068 154.220 M134.424 154.313 C 132.550 154.547,132.429 155.006,134.240 155.013 C 135.594 155.018,136.621 154.776,136.104 154.573 C 135.722 154.424,135.726 154.411,136.167 154.397 C 136.428 154.389,136.642 154.477,136.642 154.593 C 136.642 154.710,136.737 154.805,136.853 154.805 C 136.969 154.805,137.064 154.662,137.064 154.488 C 137.064 154.171,136.087 154.106,134.424 154.313 M141.922 154.333 C 141.922 154.444,142.183 154.493,142.503 154.442 C 142.905 154.378,142.997 154.410,142.802 154.548 C 142.357 154.860,143.006 155.016,144.737 155.013 C 146.295 155.009,147.215 154.747,146.438 154.527 C 145.607 154.293,141.922 154.134,141.922 154.333 M212.777 154.389 C 212.377 154.541,212.383 154.560,212.883 154.758 C 213.424 154.971,213.728 154.916,213.728 154.604 C 213.728 154.325,213.239 154.215,212.777 154.389 M138.596 154.536 C 139.031 154.582,139.744 154.582,140.180 154.536 C 140.615 154.491,140.259 154.453,139.388 154.453 C 138.516 154.453,138.160 154.491,138.596 154.536 M129.537 155.065 C 129.472 155.170,129.472 155.308,129.537 155.373 C 129.697 155.533,130.306 155.284,130.306 155.058 C 130.306 154.816,129.687 154.822,129.537 155.065 M149.879 155.142 C 150.010 155.485,150.496 155.536,150.686 155.227 C 150.758 155.111,150.740 155.009,150.646 155.000 C 150.552 154.991,150.315 154.953,150.120 154.915 C 149.888 154.870,149.804 154.948,149.879 155.142 M127.392 155.492 C 127.195 155.730,127.184 155.864,127.353 155.969 C 127.666 156.162,127.826 155.978,127.738 155.527 C 127.673 155.198,127.639 155.194,127.392 155.492 M125.539 155.962 C 125.315 156.131,125.227 156.271,125.343 156.273 C 125.657 156.278,126.193 155.901,126.061 155.769 C 125.998 155.705,125.763 155.792,125.539 155.962 M154.531 156.213 C 154.590 156.367,154.724 156.494,154.827 156.494 C 154.931 156.494,155.016 156.367,155.016 156.213 C 155.016 156.058,154.882 155.931,154.719 155.931 C 154.556 155.931,154.471 156.058,154.531 156.213 M123.900 156.424 C 123.698 156.626,123.726 156.917,123.948 156.917 C 124.052 156.917,124.191 156.774,124.258 156.600 C 124.382 156.278,124.157 156.167,123.900 156.424 M157.683 157.017 C 157.751 157.194,157.939 157.339,158.101 157.339 C 158.513 157.339,158.467 157.181,157.977 156.919 C 157.637 156.737,157.582 156.755,157.683 157.017 M161.225 158.962 C 161.239 159.349,161.105 159.630,160.840 159.768 C 160.617 159.884,160.396 160.121,160.349 160.296 C 160.273 160.577,160.288 160.577,160.488 160.296 C 160.632 160.091,160.713 160.070,160.715 160.236 C 160.721 160.694,161.305 160.284,161.575 159.633 C 161.793 159.105,161.784 158.948,161.520 158.684 C 161.238 158.402,161.205 158.433,161.225 158.962 M117.033 159.229 C 117.123 159.501,117.413 159.550,117.439 159.298 C 117.448 159.214,117.341 159.107,117.202 159.060 C 117.062 159.014,116.986 159.090,117.033 159.229 M113.563 160.602 C 113.217 160.858,113.215 160.890,113.540 161.015 C 113.967 161.179,114.106 161.069,114.010 160.643 C 113.950 160.375,113.879 160.368,113.563 160.602 M156.811 160.457 C 156.408 160.753,156.479 161.133,156.907 160.974 C 157.329 160.818,157.501 160.453,157.196 160.357 C 157.101 160.327,156.927 160.372,156.811 160.457 M153.899 161.140 C 153.779 161.598,153.902 161.660,154.357 161.372 C 154.517 161.271,154.582 161.082,154.502 160.953 C 154.280 160.592,154.021 160.673,153.899 161.140 M150.581 162.328 C 150.581 162.608,150.638 162.623,150.898 162.408 C 151.072 162.263,151.214 162.109,151.214 162.065 C 151.214 162.021,151.072 161.985,150.898 161.985 C 150.723 161.985,150.581 162.139,150.581 162.328 M159.979 163.019 C 159.747 163.118,159.058 163.267,158.448 163.351 C 157.838 163.435,157.286 163.589,157.221 163.695 C 157.156 163.800,156.806 163.886,156.444 163.886 C 155.714 163.886,154.593 164.194,153.679 164.646 C 153.350 164.809,152.857 164.942,152.582 164.942 C 152.308 164.942,152.025 165.037,151.954 165.153 C 151.882 165.269,151.664 165.364,151.469 165.364 C 151.274 165.364,150.591 165.613,149.950 165.917 C 147.470 167.095,144.346 168.643,144.245 168.743 C 144.187 168.801,143.807 169.028,143.400 169.246 C 142.424 169.769,141.013 170.569,139.800 171.283 C 139.260 171.602,138.614 171.927,138.364 172.007 C 138.114 172.086,137.909 172.240,137.909 172.348 C 137.909 172.456,137.776 172.545,137.614 172.545 C 137.452 172.545,136.668 172.865,135.872 173.256 C 132.962 174.686,132.090 175.079,131.831 175.079 C 131.686 175.079,131.403 175.168,131.201 175.277 C 130.720 175.537,128.133 176.435,126.927 176.760 C 126.404 176.901,125.692 177.144,125.343 177.300 C 124.697 177.588,124.170 177.702,122.013 178.022 C 121.343 178.121,120.678 178.297,120.535 178.414 C 120.276 178.624,118.699 178.776,114.467 178.998 C 112.356 179.108,110.734 179.591,109.715 180.413 C 108.461 181.424,103.698 184.583,102.113 185.455 C 100.680 186.242,98.056 187.489,96.727 188.014 C 96.436 188.128,96.056 188.307,95.882 188.410 C 95.707 188.514,95.422 188.654,95.248 188.722 C 92.750 189.695,92.397 189.940,92.397 190.705 C 92.397 191.431,93.345 191.964,94.650 191.971 C 94.960 191.973,95.248 192.079,95.290 192.207 C 95.333 192.334,95.840 192.484,96.417 192.539 C 96.994 192.594,97.656 192.723,97.888 192.826 C 99.763 193.656,117.419 193.120,118.333 192.205 C 118.460 192.078,119.049 191.975,119.641 191.975 C 120.233 191.975,120.808 191.889,120.919 191.784 C 121.029 191.679,121.547 191.546,122.070 191.488 C 123.341 191.348,125.084 190.919,125.333 190.685 C 125.443 190.581,125.841 190.496,126.218 190.496 C 126.594 190.496,126.961 190.401,127.033 190.285 C 127.105 190.169,127.436 190.074,127.769 190.074 C 128.103 190.074,128.518 189.931,128.692 189.757 C 128.866 189.583,129.248 189.440,129.540 189.440 C 129.831 189.440,130.129 189.345,130.201 189.229 C 130.272 189.113,130.516 189.018,130.742 189.018 C 130.968 189.018,131.646 188.780,132.248 188.490 C 132.849 188.200,133.509 187.962,133.712 187.962 C 133.916 187.962,134.142 187.867,134.213 187.751 C 134.285 187.635,134.522 187.540,134.739 187.540 C 134.956 187.540,135.276 187.397,135.450 187.223 C 135.625 187.049,135.870 186.906,135.996 186.906 C 136.122 186.906,136.390 186.824,136.592 186.724 C 136.924 186.559,138.243 185.945,140.232 185.029 C 140.639 184.842,141.019 184.636,141.077 184.571 C 141.135 184.506,141.515 184.324,141.922 184.166 C 142.328 184.008,142.778 183.790,142.920 183.681 C 143.063 183.572,143.728 183.199,144.399 182.851 C 145.069 182.503,145.665 182.151,145.723 182.069 C 145.781 181.987,146.257 181.713,146.779 181.461 C 147.302 181.209,148.300 180.673,148.997 180.270 C 150.184 179.584,150.604 179.369,152.482 178.488 C 152.888 178.298,153.252 178.070,153.291 177.983 C 153.330 177.896,153.520 177.822,153.713 177.818 C 153.907 177.814,154.541 177.578,155.121 177.292 C 155.702 177.006,156.328 176.772,156.512 176.771 C 156.696 176.770,156.913 176.702,156.994 176.621 C 157.326 176.289,160.964 175.444,162.936 175.241 C 167.872 174.734,171.808 175.151,175.396 176.562 C 176.308 176.921,181.046 179.346,181.204 179.535 C 181.310 179.663,182.620 180.419,184.372 181.365 C 184.894 181.647,185.417 181.952,185.533 182.042 C 186.009 182.412,189.943 184.372,190.209 184.372 C 190.367 184.372,190.497 184.443,190.497 184.530 C 190.498 184.617,190.949 184.863,191.500 185.076 C 192.052 185.290,192.979 185.694,193.562 185.974 C 194.144 186.254,194.780 186.484,194.975 186.484 C 195.169 186.484,195.388 186.579,195.459 186.695 C 195.531 186.811,195.861 186.906,196.193 186.906 C 196.525 186.906,196.833 187.013,196.876 187.144 C 196.989 187.484,198.847 187.810,203.801 188.362 C 206.133 188.622,212.308 188.622,214.467 188.362 C 219.826 187.718,221.270 187.473,221.589 187.154 C 221.726 187.018,222.193 186.906,222.627 186.906 C 223.062 186.906,223.476 186.811,223.548 186.695 C 223.620 186.579,223.887 186.481,224.141 186.477 C 224.638 186.469,226.740 185.790,226.966 185.564 C 227.042 185.489,227.319 185.428,227.583 185.428 C 227.848 185.428,228.116 185.343,228.180 185.240 C 228.243 185.137,228.629 184.991,229.037 184.914 C 229.445 184.838,229.778 184.684,229.778 184.573 C 229.778 184.462,229.963 184.372,230.188 184.372 C 230.414 184.372,230.657 184.277,230.729 184.161 C 230.800 184.044,231.018 183.949,231.213 183.949 C 231.693 183.949,237.686 180.950,238.015 180.546 C 238.073 180.474,238.317 180.355,238.558 180.279 C 238.799 180.204,239.179 179.978,239.403 179.776 C 239.627 179.574,240.173 179.219,240.616 178.986 C 241.060 178.754,241.582 178.418,241.778 178.240 C 241.973 178.062,242.494 177.695,242.936 177.425 C 244.028 176.755,244.452 176.086,244.147 175.516 C 243.765 174.802,242.882 174.987,240.092 176.369 C 238.659 177.078,237.249 177.752,236.959 177.867 C 236.668 177.981,236.162 178.209,235.833 178.372 C 235.504 178.536,235.099 178.669,234.933 178.669 C 234.766 178.669,234.465 178.755,234.263 178.860 C 234.062 178.965,233.469 179.163,232.946 179.301 C 232.423 179.439,231.711 179.678,231.362 179.832 C 231.014 179.987,230.444 180.173,230.095 180.246 C 228.215 180.638,227.823 180.752,227.607 180.967 C 227.477 181.097,227.016 181.204,226.582 181.204 C 226.148 181.204,225.531 181.303,225.211 181.425 C 224.398 181.734,210.960 181.742,210.384 181.434 C 210.147 181.307,209.425 181.204,208.778 181.204 C 208.132 181.204,207.603 181.113,207.603 181.002 C 207.603 180.891,207.247 180.744,206.811 180.674 C 206.375 180.604,205.854 180.457,205.652 180.347 C 205.451 180.238,205.047 180.148,204.755 180.148 C 204.463 180.148,204.224 180.072,204.224 179.980 C 204.224 179.888,203.677 179.631,203.010 179.410 C 202.342 179.188,201.653 178.937,201.478 178.853 C 201.304 178.768,199.879 178.065,198.310 177.289 C 195.551 175.924,194.909 175.588,191.975 173.962 C 191.220 173.544,190.269 173.033,189.863 172.828 C 189.456 172.623,189.013 172.348,188.879 172.217 C 188.744 172.087,188.126 171.720,187.506 171.402 C 186.886 171.084,185.903 170.558,185.322 170.232 C 184.741 169.906,183.800 169.386,183.231 169.075 C 182.662 168.764,181.780 168.278,181.270 167.993 C 180.761 167.709,180.213 167.476,180.052 167.476 C 179.892 167.476,179.729 167.392,179.690 167.289 C 179.652 167.187,178.765 166.706,177.719 166.221 C 176.674 165.736,175.653 165.250,175.452 165.141 C 175.250 165.031,174.949 164.942,174.783 164.942 C 174.617 164.942,174.447 164.842,174.407 164.720 C 174.306 164.417,173.451 164.201,168.955 163.341 C 166.966 162.961,160.646 162.734,159.979 163.019 M86.487 165.570 C 86.417 165.684,86.512 166.040,86.699 166.362 C 86.886 166.685,86.985 166.775,86.920 166.563 C 86.855 166.352,86.900 165.995,87.020 165.771 C 87.253 165.336,86.749 165.146,86.487 165.570 M98.929 165.677 C 98.571 165.947,98.565 165.985,98.879 165.991 C 99.075 165.995,99.299 165.897,99.375 165.773 C 99.605 165.400,99.363 165.348,98.929 165.677 M143.432 165.565 C 143.478 165.704,143.585 165.811,143.669 165.803 C 143.922 165.776,143.873 165.487,143.601 165.396 C 143.461 165.350,143.385 165.426,143.432 165.565 M93.347 166.164 C 93.347 166.256,93.609 166.351,93.928 166.376 C 94.248 166.401,94.723 166.463,94.984 166.514 C 95.246 166.565,95.459 166.512,95.459 166.396 C 95.459 166.279,95.554 166.243,95.671 166.315 C 95.787 166.386,95.882 166.345,95.882 166.222 C 95.882 166.089,95.366 165.998,94.615 165.998 C 93.918 165.998,93.347 166.073,93.347 166.164 M140.936 167.367 C 140.936 167.619,141.002 167.631,141.271 167.427 C 141.455 167.288,141.645 167.146,141.693 167.114 C 141.741 167.081,141.591 167.054,141.359 167.054 C 141.126 167.054,140.936 167.195,140.936 167.367 M139.880 167.793 C 139.880 167.967,139.948 168.110,140.030 168.110 C 140.113 168.110,140.299 167.967,140.444 167.793 C 140.662 167.530,140.637 167.476,140.293 167.476 C 140.066 167.476,139.880 167.619,139.880 167.793 M138.338 168.860 C 137.945 169.075,137.778 169.084,137.663 168.898 C 137.456 168.563,137.193 168.856,137.344 169.251 C 137.472 169.583,138.574 169.206,138.868 168.730 C 139.014 168.493,139.001 168.496,138.338 168.860 M136.431 169.825 C 136.431 170.198,136.484 170.230,136.745 170.012 C 137.063 169.749,136.995 169.377,136.630 169.377 C 136.520 169.377,136.431 169.579,136.431 169.825 M92.080 170.238 C 92.080 170.353,92.247 170.505,92.450 170.577 C 92.653 170.649,92.990 170.855,93.198 171.034 C 93.508 171.301,93.555 171.304,93.459 171.055 C 93.314 170.680,92.080 169.949,92.080 170.238 M133.474 171.278 C 133.738 171.448,133.720 171.486,133.369 171.502 C 133.136 171.513,133.062 171.569,133.205 171.627 C 133.347 171.685,133.677 171.582,133.938 171.399 L 134.413 171.067 133.785 171.070 C 133.302 171.072,133.230 171.120,133.474 171.278 M132.207 171.905 C 132.207 172.187,132.308 172.282,132.524 172.199 C 132.698 172.132,132.841 171.945,132.841 171.783 C 132.841 171.621,132.698 171.489,132.524 171.489 C 132.349 171.489,132.207 171.676,132.207 171.905 M131.151 172.228 C 131.151 172.402,131.008 172.557,130.834 172.571 C 130.660 172.586,130.407 172.610,130.271 172.624 C 130.136 172.639,129.985 172.769,129.937 172.914 C 129.832 173.227,129.969 173.246,130.467 172.990 C 130.669 172.886,131.114 172.690,131.457 172.553 C 131.948 172.357,132.015 172.264,131.774 172.111 C 131.333 171.833,131.151 171.867,131.151 172.228 M128.520 173.164 C 128.364 173.417,128.761 173.667,129.043 173.493 C 129.279 173.347,129.124 172.967,128.828 172.967 C 128.725 172.967,128.587 173.056,128.520 173.164 M127.014 173.680 C 126.937 173.879,126.936 174.102,127.010 174.177 C 127.085 174.251,127.258 174.199,127.395 174.062 C 127.586 173.871,127.587 173.753,127.399 173.566 C 127.211 173.378,127.119 173.405,127.014 173.680 M100.106 173.897 C 100.428 174.219,100.935 174.229,100.813 173.911 C 100.754 173.756,100.524 173.643,100.302 173.660 C 100.040 173.680,99.971 173.762,100.106 173.897 M125.026 174.129 C 125.026 174.647,125.115 174.763,125.449 174.688 C 125.922 174.581,125.958 174.488,125.664 174.134 C 125.324 173.724,125.026 173.721,125.026 174.129 M101.795 174.340 C 101.795 174.514,101.882 174.657,101.989 174.657 C 102.096 174.657,102.326 174.712,102.502 174.779 C 102.741 174.871,102.792 174.792,102.705 174.462 C 102.574 173.960,101.795 173.855,101.795 174.340 M103.816 174.633 C 103.668 174.873,104.123 175.235,104.564 175.226 C 105.051 175.217,104.806 174.446,104.317 174.446 C 104.105 174.446,103.880 174.530,103.816 174.633 M122.492 174.868 C 122.492 175.340,122.741 175.398,123.357 175.069 C 123.878 174.789,123.686 174.446,123.008 174.446 C 122.633 174.446,122.492 174.561,122.492 174.868 M106.554 175.069 C 106.371 175.364,107.254 175.768,107.838 175.657 C 108.115 175.604,108.342 175.642,108.342 175.742 C 108.342 175.842,108.532 175.924,108.765 175.924 C 108.997 175.924,109.187 175.832,109.187 175.719 C 109.187 175.607,109.062 175.563,108.910 175.621 C 108.757 175.680,108.457 175.534,108.243 175.298 C 107.844 174.856,106.774 174.711,106.554 175.069 M118.752 175.401 L 118.286 175.940 119.069 175.808 C 120.335 175.595,120.619 175.480,120.534 175.220 C 120.370 174.721,119.242 174.836,118.752 175.401 M113.149 175.862 C 113.412 175.913,113.792 175.911,113.994 175.858 C 114.196 175.805,113.981 175.764,113.516 175.766 C 113.052 175.768,112.887 175.812,113.149 175.862 " stroke="none" fill="#4883d6" fill-rule="evenodd"></path></g></svg>