<svg height="59" viewBox="0 0 59 59" width="59" xmlns="http://www.w3.org/2000/svg"><g fill="#44d7b6" transform="translate(0 .14)"><path d="m38.0935147 57.001c1.619-.605 3.196-1.358 4.717-2.237.125-.042.241-.108.344-.2 2.301-1.368 4.465-3.034 6.412-4.981 3.114-3.114 5.45-6.683 6.999-10.426.019-.039.036-.075.05-.115.909-2.222 1.539-4.505 1.888-6.79.01-.063.027-.123.025-.186.335-2.301.383-4.6.143-6.844.004-.076-.01-.148-.024-.223-.606-5.231-2.788-10.134-6.607-13.953-.688-.689-1.433-1.331-2.26-1.963-.605-.794-1.262-1.558-1.983-2.279-4.385-4.388-10.423-6.804-17.001-6.804-7.789 0-15.638 3.381-21.53400003 9.277-11.307 11.308-12.417 28.595-2.475 38.538.7.7 1.456 1.331 2.235 1.928.646.85 1.30300003 1.61 2.00700003 2.314 4.388 4.387 10.426 6.803 17.004 6.803 3.37 0 6.751-.636 9.98-1.831.028-.01.054-.016.08-.028zm-6.909-.345-2.488-2.488c1.513-.271 3.011-.665 4.482-1.176l2.661 2.661c-1.53.472-3.087.808-4.655 1.003zm25.579-26.748-2.426-2.426c.025-.186.05-.371.072-.557.054-.479.096-.958.125-1.436.017-.275.025-.548.033-.822.009-.277.013-.553.014-.829 0-.116.007-.233.006-.349l2.126 2.126c.14 1.412.156 2.848.05 4.293zm-1.488 6.997-2.678-2.678c.139-.36.273-.722.398-1.085.055-.159.105-.319.157-.479.138-.426.266-.853.385-1.281.045-.163.094-.326.136-.49.087-.336.163-.673.237-1.01l2.536 2.536c-.259 1.505-.652 3.006-1.171 4.487zm-4.73 1.63c.314-.546.606-1.1.884-1.657.059-.119.116-.238.173-.357.05-.103.101-.206.15-.309l2.724 2.724c-.419.955-.897 1.894-1.426 2.817l-2.772-2.772c.064-.107.13-.213.192-.321.024-.042.051-.083.075-.125zm-2.35 3.528c.341-.446.667-.898.981-1.356l2.789 2.789c-.557.832-1.154 1.647-1.805 2.438l-2.811-2.811c.27-.324.531-.653.786-.985.02-.026.041-.05.06-.075zm-5.563 10.485-2.797-2.797c.85-.545 1.679-1.132 2.483-1.76l2.819 2.819c-.811.623-1.646 1.204-2.505 1.738zm-7.41-.34c.967-.415 1.917-.882 2.846-1.396l2.764 2.764c-.948.502-1.918.948-2.903 1.339zm11.465-2.676-2.825-2.825c.498-.441.989-.892 1.462-1.366.237-.237.463-.481.692-.723l2.817 2.817c-.229.244-.441.497-.68.735-.474.473-.966.923-1.466 1.362zm6.631-33.757c1.28 1.962 2.186 4.121 2.766 6.383l-1.71-1.71c-.02-.158-.047-.314-.07-.47-.038-.26-.075-.52-.121-.778-.084-.47-.181-.936-.291-1.398-.05-.207-.107-.41-.162-.616-.095-.356-.198-.71-.309-1.061-.038-.116-.064-.235-.103-.35zm-42.642-5.083c5.523-5.523 12.857-8.691 20.12-8.691 6.044 0 11.58 2.208 15.589 6.217.561.561 1.082 1.148 1.566 1.757l.26.344c.02.026.039.053.059.079.441.585.847 1.188 1.22 1.808.008.014.016.028.024.042.366.612.699 1.241.999 1.883.014.029.026.06.039.089.284.614.537 1.241.761 1.878.019.056.039.111.058.167.195.57.359 1.15.507 1.735.034.136.073.27.105.407.129.551.229 1.109.317 1.67.03.194.063.387.088.583.07.534.118 1.072.151 1.613.014.221.026.443.034.666.019.535.02 1.073.004 1.612-.007.221-.018.441-.03.662-.031.553-.076 1.108-.143 1.663-.023.194-.054.388-.081.582-.084.588-.181 1.175-.306 1.761-.029.138-.066.275-.097.412-.135.59-.286 1.178-.462 1.764-.026.088-.05.177-.077.265-.201.648-.43 1.291-.68 1.93-.037.096-.071.192-.11.287-.258.64-.543 1.273-.85 1.9-.048.098-.094.196-.143.293-.314.625-.654 1.242-1.016 1.852-.055.093-.111.185-.167.277-.373.611-.768 1.213-1.189 1.804-.058.081-.118.161-.177.242-.436.599-.893 1.188-1.378 1.762-.048.057-.099.112-.148.169-.512.597-1.046 1.182-1.612 1.748-.345.345-.697.681-1.056 1.008-5.381 4.896-12.248 7.679-19.053 7.679-.215 0-.425-.018-.639-.024-.462-.012-.923-.026-1.378-.063-.29-.024-.574-.064-.86-.098-.401-.048-.801-.099-1.196-.167-.271-.046-.539-.101-.806-.157-.414-.087-.823-.184-1.229-.293-.237-.063-.473-.126-.707-.197-.452-.137-.895-.293-1.334-.458-.18-.067-.363-.127-.54-.199-.607-.246-1.202-.515-1.78-.814-.104-.054-.202-.119-.305-.174-.46-.248-.912-.509-1.352-.79-.244-.157-.479-.328-.717-.495-.97700003-.684-1.90800003-1.434-2.75700003-2.283-9.163-9.161-8.053-25.18 2.47400003-35.707zm5.62 42.798c.272.084.547.162.823.237.432.117.868.22 1.309.313.107.023.211.055.318.076l1.382 1.382c-1.539-.557-2.999-1.277-4.353-2.158.17.057.348.097.521.15zm7.661 3.01-1.957-1.957c.356.024.716.032 1.076.042.24.006.474.033.715.033.804 0 1.608-.045 2.411-.116l2.345 2.345c-.172.003-.343.013-.514.013-1.391 0-2.751-.131-4.076-.36z"/><path d="m12.3255147 38.25 6.014-1.468c.043-.01.077-.055.088-.115l.209-1.135c-2.145-1.718-3.367-4.104-3.639-7.106-1.089-.791-1.608-2.141-1.309-3.529l.276-1.28c.236-1.093.983-2.062 1.996-2.622.419-1.214.958-2.336 1.606-3.339.282-.437.511-.762.698-1.025.564-.798.564-.798.547-2.049-.007-.503.01-1.016.049-1.525.053-.672.631-1.197 1.317-1.197.407 0 .784.197 1.008.528.133.196.417.514 1.014.918 1.104.746 2.791 1.079 4.705.952.293-.02.595-.03.902-.03 9.284.009 11.737 4.493 12.083 8.483 1.344.892 2.078 2.279 1.939 3.734l-.16 1.674c-.169 1.775-1.599 3.212-3.555 3.644-1.634 3.323-4.245 5.477-7.604 6.277l-.176 1.261c-.016.112.05.298.232.438l7.92 6.112c1.417-.979 2.763-2.094 4.01-3.341 4.694-4.694 7.547-10.686 8.034-16.874.491-6.246-1.483-11.931-5.559-16.006-3.631-3.63-8.665-5.63-14.174-5.63-6.736 0-13.554 2.955-18.705 8.106-4.69500003 4.694-7.54800003 10.686-8.03400003 16.874-.491 6.246.711 9.804 4.788 13.88.469-2.117 1.58900003-4.056 3.48000003-4.61z"/></g></svg>