<svg xmlns="http://www.w3.org/2000/svg" viewBox="0 0 128 128"><defs><style>.cls-1{fill:#7f66ff;}.cls-2{fill:#1f213d;}.cls-3{fill:#fff;}</style></defs><g id="图层_2" data-name="图层 2"><g id="图层_3" data-name="图层 3"><circle class="cls-1" cx="64" cy="64" r="64"/><path class="cls-2" d="M111.36,27.5H34.58a1.12,1.12,0,0,0-.77.32L18,43.63a1.1,1.1,0,0,0,.77,1.87H95.55a1.1,1.1,0,0,0,.77-.32l15.81-15.81A1.09,1.09,0,0,0,111.36,27.5Z"/><path class="cls-2" d="M111.36,84H34.58a1.12,1.12,0,0,0-.77.32L18,100.13a1.1,1.1,0,0,0,.77,1.87H95.55a1.1,1.1,0,0,0,.77-.32l15.81-15.81A1.09,1.09,0,0,0,111.36,84Z"/><path class="cls-2" d="M18.77,55.75H95.55a1.1,1.1,0,0,1,.77.32l15.81,15.81a1.09,1.09,0,0,1-.77,1.87H34.58a1.12,1.12,0,0,1-.77-.32L18,57.62A1.1,1.1,0,0,1,18.77,55.75Z"/><path class="cls-3" d="M89,33H84.78L64,85.83V33c-5-2-18-1-27,8-8,8-10,22,3,21-2-4-2-14,4-20a16.61,16.61,0,0,1,8-4.62v1L33,96h7.22L52,58.48V96H64.22L79.81,56.37,71,96H83L97,33Z"/></g></g></svg>