<?xml version="1.0" encoding="UTF-8"?>
<svg xmlns="http://www.w3.org/2000/svg" xmlns:xlink="http://www.w3.org/1999/xlink" width="256pt" height="256pt" viewBox="0 0 256 256" version="1.1">
<g id="surface1">
<path style=" stroke:none;fill-rule:nonzero;fill:rgb(0%,0%,0%);fill-opacity:1;" d="M 127.742188 252.414062 C 59.648438 252.414062 3.839844 197.121094 3.839844 128.511719 C 3.839844 59.902344 59.648438 4.609375 127.742188 4.609375 C 195.839844 4.609375 251.648438 59.902344 251.648438 128.511719 C 251.648438 197.121094 195.839844 252.414062 127.742188 252.414062 Z M 127.742188 14.847656 C 65.28125 14.847656 14.078125 66.046875 14.078125 128.511719 C 14.078125 190.976562 65.28125 242.175781 127.742188 242.175781 C 190.207031 242.175781 241.40625 190.976562 241.40625 128.511719 C 241.40625 66.046875 190.207031 14.847656 127.742188 14.847656 Z M 127.742188 14.847656 "/>
<path style=" stroke:none;fill-rule:nonzero;fill:rgb(0%,0%,0%);fill-opacity:1;" d="M 221.441406 156.671875 L 198.910156 96.257812 C 198.398438 94.207031 196.351562 92.671875 194.816406 92.671875 L 158.976562 92.671875 L 137.472656 35.839844 C 136.960938 34.304688 135.425781 32.769531 133.886719 32.769531 C 132.351562 32.257812 130.304688 33.28125 129.792969 34.304688 L 76.03125 93.183594 L 39.167969 93.183594 C 37.632812 93.183594 36.097656 94.207031 35.585938 95.230469 C 34.558594 96.769531 34.558594 98.304688 35.070312 99.328125 L 57.601562 159.742188 C 58.113281 161.792969 60.160156 163.328125 61.695312 163.328125 L 96.511719 163.328125 L 118.015625 220.160156 C 118.527344 221.695312 120.0625 223.230469 121.601562 223.230469 C 122.113281 223.230469 122.113281 223.230469 122.625 223.230469 C 124.160156 223.230469 125.183594 222.71875 126.207031 221.695312 L 158.464844 186.878906 L 179.96875 162.816406 L 217.34375 162.816406 C 218.878906 162.816406 220.414062 161.792969 220.929688 160.769531 C 221.953125 159.742188 222.464844 158.207031 221.441406 156.671875 Z M 131.328125 46.59375 L 150.273438 96.257812 L 130.304688 118.273438 L 122.113281 95.742188 C 121.601562 93.695312 119.550781 92.160156 118.015625 92.160156 L 90.367188 92.160156 Z M 45.824219 102.398438 L 113.40625 102.398438 L 122.625 126.464844 L 98.046875 153.601562 L 64.769531 153.601562 Z M 151.296875 180.222656 L 124.671875 209.40625 L 105.726562 159.230469 L 126.207031 136.703125 L 134.910156 159.742188 C 135.425781 161.792969 137.472656 163.328125 139.007812 163.328125 L 166.144531 163.328125 Z M 142.59375 153.601562 L 133.375 128.511719 L 157.441406 102.398438 L 191.742188 102.398438 L 210.6875 153.089844 L 142.59375 153.089844 Z M 142.59375 153.601562 "/>
</g>
</svg>
