<svg width="128" height="128" viewBox="0 0 128 128" fill="none" xmlns="http://www.w3.org/2000/svg">
    <ellipse cx="64" cy="64" fill="black" rx="64" ry="64" />
    <ellipse cx="64" cy="64" rx="60.5" ry="60.5" stroke="url(#paint0_linear_901_2205)" stroke-width="7" />
    <path fill-rule="evenodd" clip-rule="evenodd"
        d="M89.6001 40.9588C89.6001 39.545 88.4539 38.3988 87.0401 38.3988L48.5455 38.3988C46.8633 38.3988 45.3915 38.6428 44.1299 39.1308C42.8683 39.6563 41.8169 40.3507 40.9759 41.214C40.0997 42.1149 39.4514 43.1284 39.0309 44.2545C38.6104 45.4182 38.4001 46.6193 38.4001 47.858V54.0332C38.4001 56.7094 40.5695 58.8788 43.2457 58.8788H74.2401L58.8801 48.6388H87.0401C88.4539 48.6388 89.6001 47.4927 89.6001 46.0788V40.9588ZM38.3989 87.0407C38.3989 88.4545 39.5451 89.6007 40.9589 89.6007L79.4536 89.6007C81.1357 89.6007 82.6076 89.3567 83.8692 88.8687C85.1308 88.3432 86.1821 87.6488 87.0232 86.7855C87.8993 85.8846 88.5476 84.8711 88.9681 83.745C89.3886 82.5813 89.5989 81.3802 89.5989 80.1415V73.9663C89.5989 71.2901 87.4295 69.1207 84.7534 69.1207H53.7589L69.1189 79.3607H40.9589C39.5451 79.3607 38.3989 80.5069 38.3989 81.9207V87.0407Z"
        fill="url(#paint1_linear_901_2205)" />
    <defs>
        <linearGradient id="paint0_linear_901_2205" x1="141.405" y1="-62.8483" x2="-77.4743" y2="125.935"
            gradientUnits="userSpaceOnUse">
            <stop stop-color="#FF0000" />
            <stop offset="1" stop-color="#FFC700" />
        </linearGradient>
        <linearGradient id="paint1_linear_901_2205" x1="94.962" y1="13.2585" x2="7.40744" y2="88.7735"
            gradientUnits="userSpaceOnUse">
            <stop stop-color="#FF0000" />
            <stop offset="1" stop-color="#FFC700" />
        </linearGradient>
    </defs>
</svg>