<svg fill="none" height="100" viewBox="0 0 100 100" width="100" xmlns="http://www.w3.org/2000/svg" xmlns:xlink="http://www.w3.org/1999/xlink"><linearGradient id="a" gradientUnits="userSpaceOnUse" x1="50" x2="50" y1="10" y2="90"><stop offset="0" stop-color="#99b998"/><stop offset="1" stop-color="#fdceaa"/></linearGradient><path d="m50 90c22.0914 0 40-17.9086 40-40s-17.9086-40-40-40-40 17.9086-40 40 17.9086 40 40 40z" fill="url(#a)" stroke="#000" stroke-width=".5"/><path d="m23 42.8277 27-26.8277 27 26.8277-13.2487 13.1641-13.4917-13.4056-.2424-.2409-.2431.2409-13.5 13.4138z" fill="#fff6f0" stroke="#000"/><path d="m28.968 60.2h10.608v3.024h-7.44v3.84h7.152v3.024h-7.152v3.888h7.728v3.024h-10.896zm26.1193 0v10.992c0 1.92-.512 3.424-1.536 4.512-1.008 1.088-2.512 1.632-4.512 1.632s-3.512-.544-4.536-1.632c-1.008-1.088-1.512-2.592-1.512-4.512v-10.992h3.168v10.992c0 .992.232 1.768.696 2.328s1.192.84 2.184.84 1.72-.28 2.184-.84.696-1.336.696-2.328v-10.992zm14.3353 16.8h-3.168v-5.04c0-.384-.104-.696-.312-.936-.192-.24-.52-.36-.984-.36h-3.648v6.336h-3.168v-16.8h6.432c.864 0 1.624.12 2.28.36s1.2.576 1.632 1.008c.448.416.784.904 1.008 1.464.24.56.36 1.16.36 1.8v.576c0 .688-.184 1.336-.552 1.944-.368.592-.936 1.048-1.704 1.368v.432c.56.064 1 .28 1.32.648.336.368.504.832.504 1.392zm-8.112-9.36h3.024c.768 0 1.352-.176 1.752-.528.4-.368.6-.88.6-1.536v-.288c0-.56-.2-1.04-.6-1.44-.4-.416-.984-.624-1.752-.624h-3.024z" fill="#2a363a"/></svg>