<!-- by TradingView --><svg width="18" height="18" xmlns="http://www.w3.org/2000/svg"><path fill="#154785" d="M0 0h18v18H0z"/><path d="M1.583 10.493c.087.131.242.178.413.178h6.358l-3.104.306 3.662 1.585 4.395-1.891h1.759c.166 0 .389-.07.474-.26l.373-.818 1.053-.445-.722-.301.246-.541a.473.473 0 00.045-.198.373.373 0 00-.06-.205c-.088-.135-.258-.216-.457-.216h-6.42l.007-.02 3.214-.245.005-.025L8.929 5.77 4.425 7.688H2.911c-.169 0-.393.101-.475.29l-.306.705-1.095.465.746.337-.214.495a.664.664 0 00-.058.26c0 .094.025.18.074.253z" fill="#FFE600"/><path d="M8.205 8.048l-.004.024.478.105-.399.892-.187-1.021H7.33L6.32 10.293h.781l.45-1.004c.016.073.204 1.004.204 1.004h.731L9.49 8.047H8.205zm-1.209 0h-.77s-.783 1.86-.79 1.874h-.364l.789-1.874h-.772l-.867 1.93c-.039.085-.036.168.006.227.04.056.115.088.21.088h1.216c.186 0 .384-.102.433-.223.035-.087.893-1.986.902-2.006l.007-.016zM3.998 9.116l-.763-.224.22-.468h.37l-.17.375h.77l.191-.438c.039-.092.036-.174-.006-.231-.04-.054-.112-.083-.204-.083H3.232c-.254 0-.418.082-.5.25l-.299.666a.282.282 0 00-.023.108c0 .034.007.065.022.094a.21.21 0 00.132.104l.763.23-.192.423h-.367l.172-.37h-.772l-.189.426c-.048.117-.023.188.006.228.041.055.118.09.21.09h1.213c.182 0 .38-.1.432-.216l.296-.656a.252.252 0 00.023-.103.207.207 0 00-.02-.091.226.226 0 00-.14-.114zm7.59-.98c-.04-.058-.116-.09-.21-.09h-1.163c-.145 0-.402.033-.5.252l-.753 1.68c-.038.086-.036.167.007.227.04.056.115.088.21.088h1.228c.158 0 .358-.083.42-.223l.766-1.71c.04-.085.038-.165-.005-.225zm-1.477 1.786h-.367c.014-.033.689-1.483.696-1.498h.367l-.696 1.498zm5.958-1.786c-.041-.058-.116-.09-.211-.09h-1.163c-.144 0-.402.033-.5.252l-.752 1.68c-.039.086-.037.167.006.226.041.057.115.088.21.088h1.229c.158 0 .358-.082.42-.222l.766-1.71c.039-.085.037-.165-.005-.224zm-1.465 1.786h-.368l.677-1.498h.366l-.675 1.498zm-2.263 0h-.368l.635-1.498h.367c-.013.029-.132.375-.132.375h.8l.19-.438c.038-.086.037-.166-.006-.226-.041-.057-.116-.089-.21-.089h-1.163c-.145 0-.402.033-.5.252l-.752 1.68c-.04.086-.037.167.006.226.04.057.115.088.21.088h1.228c.158 0 .358-.082.42-.222l.23-.522h-.768l-.188.374z" fill="#154785"/><path d="M4.302 6.598c-.012.002-.276.07-.276.07l-1.72-1.269.915-.365.092-.98 1.723 1.27-.015.307 1.246.923L5 7.092l-.021.009-.677-.503zM13.876 12.159l.294-.394 1.149 2.18-2.436-.455.273-.366-1.735-1.276 1.29-.547 1.165.858z" fill="#FF3B4B"/></svg>