<svg xmlns="http://www.w3.org/2000/svg" xmlns:xlink="http://www.w3.org/1999/xlink" width="256" height="256" viewBox="0 0 256 256"><defs><linearGradient id="a" x1="0.843" y1="0.135" x2="0.206" y2="0.886" gradientUnits="objectBoundingBox"><stop offset="0" stop-color="#b6509e"/><stop offset="1" stop-color="#2ebac6"/></linearGradient><clipPath id="c"><rect width="256" height="256"/></clipPath></defs><g id="b" clip-path="url(#c)"><g transform="translate(-20 -20)"><path d="M128,256a128.976,128.976,0,0,1-25.8-2.6,127.309,127.309,0,0,1-45.77-19.261,128.366,128.366,0,0,1-46.375-56.315A127.357,127.357,0,0,1,2.6,153.8a129.251,129.251,0,0,1,0-51.593,127.31,127.31,0,0,1,19.26-45.77A128.372,128.372,0,0,1,78.177,10.059,127.33,127.33,0,0,1,102.2,2.6a129.244,129.244,0,0,1,51.593,0,127.308,127.308,0,0,1,45.77,19.26,128.367,128.367,0,0,1,46.375,56.316A127.343,127.343,0,0,1,253.4,102.2a129.248,129.248,0,0,1,0,51.593,127.3,127.3,0,0,1-19.26,45.77,128.382,128.382,0,0,1-56.316,46.375A127.4,127.4,0,0,1,153.8,253.4,128.977,128.977,0,0,1,128,256Zm0-242.287a115.145,115.145,0,0,0-23.033,2.322A113.657,113.657,0,0,0,64.1,33.232,114.622,114.622,0,0,0,22.7,83.515a113.7,113.7,0,0,0-6.659,21.452,115.4,115.4,0,0,0,0,46.065,113.66,113.66,0,0,0,17.2,40.866,114.627,114.627,0,0,0,50.282,41.407,113.75,113.75,0,0,0,21.453,6.658,115.381,115.381,0,0,0,46.065,0,113.609,113.609,0,0,0,40.866-17.2A114.622,114.622,0,0,0,233.3,172.485a113.741,113.741,0,0,0,6.659-21.453,115.4,115.4,0,0,0,0-46.065,113.662,113.662,0,0,0-17.2-40.865A114.619,114.619,0,0,0,172.485,22.7a113.74,113.74,0,0,0-21.453-6.659A115.145,115.145,0,0,0,128,13.714Z" transform="translate(20 20)" fill="url(#a)"/><g transform="translate(49.714 49.714)"><path d="M321.816-420.6c-54.493-.218-98.835,44.148-98.676,98.325s44.27,98.254,98.325,98.245c53.569-.01,97.87-44.089,98.293-97.006C420.189-374.933,377.189-420.379,321.816-420.6ZM321-231.946c-49.5-.2-89.939-40.747-89.938-90.479,0-50.064,40.591-90.326,91.093-90.262,49.028.062,90.4,40.777,89.684,91.677C411.145-271.611,370.4-231.746,321-231.946Z" transform="translate(-223.139 420.602)" fill="#282138"/><path d="M361.793-87.505a84.059,84.059,0,0,1-55.035-20.714c-1.41-1.205-1.637-1.887-.179-3.287,3.911-3.757,3.84-3.832,8.051-.448,28.4,22.817,69.48,21.972,97.31-2.067,1.321-1.141,1.973-1.155,3.19.087,4.169,4.259,4.225,4.213-.588,8.012C399.143-93.767,381.614-87.7,361.793-87.505Z" transform="translate(-263.741 270.046)" fill="#82808a"/><path d="M548.463-284.116c-.08-16.388-6.434-32.9-18.562-47.222-1.137-1.342-1.173-1.971.073-3.192,4.194-4.111,4.2-4.211,7.862.4a82.336,82.336,0,0,1,18.143,45.393c1.908,23.67-5.023,44.462-20.324,62.557-1.208,1.429-1.875,1.642-3.276.189-3.744-3.885-3.773-3.779-.451-8.039C542.839-248.023,548.487-263.859,548.463-284.116Z" transform="translate(-373.781 379.728)" fill="#83808a"/><path d="M361.962-393.062a84.373,84.373,0,0,1,55.563,20.546c1.587,1.339,1.807,2.12.168,3.651-3.773,3.526-3.655,3.579-7.68.411a74.916,74.916,0,0,0-43.532-16.565c-20.454-1.018-38.408,5.247-53.972,18.445-1.327,1.125-1.99,1.162-3.21-.081-4.16-4.237-4.213-4.191.41-7.869A83.369,83.369,0,0,1,361.962-393.062Z" transform="translate(-264.047 407.04)" fill="#83808a"/><path d="M250.823-282.207c.192-20.409,7.042-38.732,20.476-54.65,1.468-1.739,2.282-1.757,3.826-.1,3.38,3.632,3.474,3.543.446,7.35a74.928,74.928,0,0,0-16.87,49.532,74.241,74.241,0,0,0,18.263,47.743c1.378,1.619,1.579,2.485-.091,4.043-3.937,3.674-3.846,3.776-7.19-.4C257.25-244.2,250.971-261.9,250.823-282.207Z" transform="translate(-236.772 380.013)" fill="#83808a"/><path d="M422.4-264.4c-.774-6.15-4.489-9.992-10.2-12.1-.838-.31-1.863-.281-2.557-1.207,6.809-3.867,8.424-10.053,7.284-17.177-1.1-6.859-5.746-10.609-12.073-12.635a35.785,35.785,0,0,0-8.9-1.831c-1.351-.076-1.967-.558-1.9-2,.1-2.108.025-4.224.025-6.337,0-7.91,0-7.874-7.919-7.474-1.343.068-1.742.5-1.709,1.785.069,2.7.02,5.409.02,8.113,0,5.4,0,5.333-5.34,5.4-1.668.022-2.2-.479-2.15-2.144.107-3.8-.013-7.606.058-11.407.024-1.328-.413-1.794-1.741-1.736-2.024.089-4.059.1-6.083,0-1.423-.073-1.91.384-1.876,1.845.09,3.885-.047,7.776.065,11.661.048,1.655-.434,2.2-2.12,2.163-4.392-.105-8.788-.064-13.183-.027-4.529.038-3.924-.627-3.948,3.83-.035,6.357-.01,6.358,6.437,6.411,4.321.036,6.007,1.692,6.014,5.955q.016,10.775,0,21.55c0,5.831.01,11.663,0,17.494-.009,3.839-1,4.848-4.741,4.883a36.777,36.777,0,0,1-3.8-.022,1.877,1.877,0,0,0-2.372,1.886c-.35,2.592-.719,5.186-1.226,7.75-.289,1.461.072,1.914,1.584,1.878,3.8-.091,7.606-.056,11.408-.022,5.856.052,5.856.069,5.856,5.8,0,.929-.049,1.862.01,2.788.148,2.335-1.029,5.373.477,6.818,1.489,1.429,4.513.243,6.848.461,1.725.161,2.385-.39,2.318-2.221-.134-3.629.068-7.271-.083-10.9-.081-1.937.572-2.423,2.438-2.4,5.151.054,5.152-.029,5.152,5.24,0,.93-.055,1.863.011,2.788.171,2.412-1.084,5.565.529,7.042,1.575,1.442,4.688.241,7.112.453,1.608.141,2.02-.537,1.985-2.038-.084-3.632.085-7.272-.07-10.9-.089-2.088.36-2.966,2.7-3.03a44.771,44.771,0,0,0,10.952-1.849C419.814-243.3,423.862-252.744,422.4-264.4Zm-45.25-24.915c0-2.529,0-5.057,0-7.586,0-.86-.043-1.735,1.224-1.76,4.97-.1,9.949-.313,14.739,1.437,4.053,1.482,6.164,4.209,6.18,8,.016,3.724-2.12,6.428-6.256,7.918-4.692,1.691-9.583,1.646-14.468,1.678-1.353.009-1.432-.843-1.427-1.851C377.156-284.086,377.146-286.7,377.146-289.311Zm22.845,36.51c-3,2.125-6.522,2.791-10.041,3.162-3.6.38-7.246.311-10.866.527-1.515.091-2.109-.363-2.043-1.969.118-2.868.034-5.744.034-8.616h.073c0-2.872.03-5.744-.014-8.615-.019-1.218.3-1.86,1.69-1.876,5.492-.064,10.971-.077,16.343,1.314A14.276,14.276,0,0,1,400-266.747,8.368,8.368,0,0,1,399.991-252.8Z" transform="translate(-284.694 373.669)" fill="#ef9142"/></g></g></g></svg>