<?xml version="1.0" encoding="utf-8"?>
<!-- Generator: Adobe Illustrator 26.0.1, SVG Export Plug-In . SVG Version: 6.00 Build 0)  -->
<svg version="1.1" id="Layer_1" xmlns="http://www.w3.org/2000/svg" xmlns:xlink="http://www.w3.org/1999/xlink" x="0px" y="0px"
	 viewBox="0 0 1080 1080" style="enable-background:new 0 0 1080 1080;" xml:space="preserve">
<style type="text/css">
	.st0{fill:#00ED96;}
	.st1{fill:url(#SVGID_1_);}
	.st2{fill:url(#SVGID_00000102517757384992371050000001921208760807761829_);}
	.st3{fill:#0091C9;}
	.st4{fill:url(#SVGID_00000134214108509471043630000016014069395792268465_);}
	.st5{fill:url(#SVGID_00000176757337373968785830000017032071014588852903_);}
	.st6{fill:#B43FEA;}
	.st7{fill:url(#SVGID_00000165196180448580110110000003693130051391198611_);}
	.st8{fill:url(#SVGID_00000116218795891464656000000001468222337539577479_);}
</style>
<rect width="1080" height="1080"/>
<g>
	<polygon class="st0" points="378.4,537.3 348.5,537.3 446.4,365.2 529.7,513.3 659.8,513.3 447.8,147.7 155.2,649.2 311.1,649.2 	
		"/>
	
		<linearGradient id="SVGID_1_" gradientUnits="userSpaceOnUse" x1="1400.1282" y1="26.5424" x2="1400.1282" y2="-572.3222" gradientTransform="matrix(0.896 0.7745 0.89 -1.0296 -565.7828 -910.0183)">
		<stop  offset="0" style="stop-color:#0DF5AD"/>
		<stop  offset="0.1157" style="stop-color:#1AE7B2"/>
		<stop  offset="0.3325" style="stop-color:#3DC4C0"/>
		<stop  offset="0.6273" style="stop-color:#758AD6"/>
		<stop  offset="0.9855" style="stop-color:#C23AF5"/>
		<stop  offset="1" style="stop-color:#C537F6"/>
	</linearGradient>
	<polygon class="st1" points="378.4,537.3 348.5,537.3 446.4,365.2 529.7,513.3 659.8,513.3 447.8,147.7 155.2,649.2 311.1,649.2 	
		"/>
	
		<linearGradient id="SVGID_00000171711427564749492770000012392282825282109091_" gradientUnits="userSpaceOnUse" x1="-10.61" y1="656.3486" x2="1001.916" y2="71.7665">
		<stop  offset="0" style="stop-color:#BF8500"/>
		<stop  offset="0.2409" style="stop-color:#D99A00"/>
		<stop  offset="0.5008" style="stop-color:#EEAB00"/>
		<stop  offset="0.7562" style="stop-color:#FBB600"/>
		<stop  offset="1" style="stop-color:#FFB900"/>
	</linearGradient>
	<polygon style="fill:url(#SVGID_00000171711427564749492770000012392282825282109091_);" points="378.4,537.3 348.5,537.3 
		446.4,365.2 529.7,513.3 659.8,513.3 447.8,147.7 155.2,649.2 311.1,649.2 	"/>
	<polygon class="st3" points="624.8,673.2 639.7,701.2 439.1,701.2 523.2,553 461.3,442.4 248.9,808.2 827.9,808.3 750.1,673.2 	"/>
	
		<linearGradient id="SVGID_00000121989991372452795720000003847175577234387362_" gradientUnits="userSpaceOnUse" x1="1620.9498" y1="26.5424" x2="1620.9498" y2="-572.3222" gradientTransform="matrix(0.896 0.7745 0.89 -1.0296 -565.7828 -910.0183)">
		<stop  offset="0" style="stop-color:#0DF5AD"/>
		<stop  offset="0.1157" style="stop-color:#1AE7B2"/>
		<stop  offset="0.3325" style="stop-color:#3DC4C0"/>
		<stop  offset="0.6273" style="stop-color:#758AD6"/>
		<stop  offset="0.9855" style="stop-color:#C23AF5"/>
		<stop  offset="1" style="stop-color:#C537F6"/>
	</linearGradient>
	<polygon style="fill:url(#SVGID_00000121989991372452795720000003847175577234387362_);" points="624.8,673.2 639.7,701.2 
		439.1,701.2 523.2,553 461.3,442.4 248.9,808.2 827.9,808.3 750.1,673.2 	"/>
	
		<linearGradient id="SVGID_00000044178255156671070100000015824099610601739658_" gradientUnits="userSpaceOnUse" x1="139.7669" y1="916.8092" x2="1152.293" y2="332.227">
		<stop  offset="0" style="stop-color:#BF8500"/>
		<stop  offset="0.2409" style="stop-color:#D99A00"/>
		<stop  offset="0.5008" style="stop-color:#EEAB00"/>
		<stop  offset="0.7562" style="stop-color:#FBB600"/>
		<stop  offset="1" style="stop-color:#FFB900"/>
	</linearGradient>
	<polygon style="fill:url(#SVGID_00000044178255156671070100000015824099610601739658_);" points="624.8,673.2 639.7,701.2 
		439.1,701.2 523.2,553 461.3,442.4 248.9,808.2 827.9,808.3 750.1,673.2 	"/>
	<polygon class="st6" points="555,282.5 619.1,392.2 632.4,364.2 728.4,537.3 563.6,537.3 498.8,653.2 924.8,653.2 631.2,148.8 	"/>
	
		<linearGradient id="SVGID_00000051360617995870987480000017153703236297096866_" gradientUnits="userSpaceOnUse" x1="1582.3091" y1="26.5424" x2="1582.3091" y2="-572.3222" gradientTransform="matrix(0.896 0.7745 0.89 -1.0296 -565.7828 -910.0183)">
		<stop  offset="0" style="stop-color:#0DF5AD"/>
		<stop  offset="0.1157" style="stop-color:#1AE7B2"/>
		<stop  offset="0.3325" style="stop-color:#3DC4C0"/>
		<stop  offset="0.6273" style="stop-color:#758AD6"/>
		<stop  offset="0.9855" style="stop-color:#C23AF5"/>
		<stop  offset="1" style="stop-color:#C537F6"/>
	</linearGradient>
	<polygon style="fill:url(#SVGID_00000051360617995870987480000017153703236297096866_);" points="555,282.5 619.1,392.2 
		632.4,364.2 728.4,537.3 563.6,537.3 498.8,653.2 924.8,653.2 631.2,148.8 	"/>
	
		<linearGradient id="SVGID_00000054965630922115293650000004366465195045820088_" gradientUnits="userSpaceOnUse" x1="75.9891" y1="806.3427" x2="1088.5151" y2="221.7605">
		<stop  offset="0" style="stop-color:#BF8500"/>
		<stop  offset="0.2409" style="stop-color:#D99A00"/>
		<stop  offset="0.5008" style="stop-color:#EEAB00"/>
		<stop  offset="0.7562" style="stop-color:#FBB600"/>
		<stop  offset="1" style="stop-color:#FFB900"/>
	</linearGradient>
	<polygon style="fill:url(#SVGID_00000054965630922115293650000004366465195045820088_);" points="555,282.5 619.1,392.2 
		632.4,364.2 728.4,537.3 563.6,537.3 498.8,653.2 924.8,653.2 631.2,148.8 	"/>
</g>
</svg>
