<svg width="500" height="500" viewBox="0 0 500 500" fill="none" xmlns="http://www.w3.org/2000/svg">
<rect width="500" height="500" rx="68" fill="#1C1B18"/>
<g clip-path="url(#clip0_749_205)">
<mask id="mask0_749_205" style="mask-type:alpha" maskUnits="userSpaceOnUse" x="114" y="39" width="272" height="422">
<path d="M232.722 459.464C230.769 461.417 227.604 461.417 225.651 459.464L136.67 370.466C134.718 368.513 134.718 365.347 136.67 363.394L289.992 210.042L363.24 231.746C363.563 231.842 363.817 232.095 363.914 232.418L385.528 304.396C385.846 305.453 385.557 306.599 384.776 307.38L232.722 459.464Z" fill="url(#paint0_linear_749_205)"/>
<mask id="mask1_749_205" style="mask-type:alpha" maskUnits="userSpaceOnUse" x="135" y="210" width="251" height="251">
<path d="M232.722 459.464C230.769 461.417 227.604 461.417 225.651 459.464L136.67 370.466C134.718 368.513 134.718 365.347 136.67 363.394L289.992 210.042L363.24 231.746C363.563 231.842 363.817 232.095 363.914 232.418L385.528 304.396C385.846 305.453 385.557 306.599 384.776 307.38L232.722 459.464Z" fill="url(#paint1_linear_749_205)"/>
</mask>
<g mask="url(#mask1_749_205)">
<ellipse cx="358.129" cy="240.194" rx="29.1193" ry="29.1249" transform="rotate(-180 358.129 240.194)" fill="white" fill-opacity="0.24"/>
<rect width="70.7458" height="279.991" transform="matrix(-0.707038 -0.707175 0.707038 -0.707175 172.488 426.086)" fill="#221B24" fill-opacity="0.15"/>
</g>
<path d="M267.278 40.5359C269.231 38.5831 272.396 38.5831 274.349 40.5359L363.33 129.534C365.282 131.487 365.282 134.653 363.33 136.606L210.008 289.958L136.76 268.254C136.437 268.158 136.184 267.905 136.086 267.582L114.472 195.604C114.154 194.547 114.443 193.401 115.224 192.62L267.278 40.5359Z" fill="url(#paint2_linear_749_205)"/>
<mask id="mask2_749_205" style="mask-type:alpha" maskUnits="userSpaceOnUse" x="114" y="39" width="251" height="251">
<path d="M267.278 40.5359C269.231 38.5831 272.396 38.5831 274.349 40.5359L363.33 129.534C365.282 131.487 365.282 134.653 363.33 136.606L210.008 289.958L136.76 268.254C136.437 268.158 136.184 267.905 136.086 267.582L114.472 195.604C114.154 194.547 114.443 193.401 115.224 192.62L267.278 40.5359Z" fill="url(#paint3_linear_749_205)"/>
</mask>
<g mask="url(#mask2_749_205)">
<ellipse cx="141.871" cy="259.806" rx="29.1193" ry="29.1249" fill="white" fill-opacity="0.24"/>
<rect width="70.7458" height="279.991" transform="matrix(0.707038 0.707175 -0.707038 0.707175 327.512 73.9139)" fill="#221B24" fill-opacity="0.15"/>
</g>
</mask>
<g mask="url(#mask0_749_205)">
<rect x="32.6733" y="15.1564" width="404.758" height="461.63" fill="url(#paint4_linear_749_205)"/>
<mask id="mask3_749_205" style="mask-type:alpha" maskUnits="userSpaceOnUse" x="135" y="210" width="251" height="251">
<path d="M232.722 459.464C230.769 461.417 227.604 461.417 225.651 459.464L136.67 370.465C134.718 368.513 134.718 365.347 136.67 363.394L289.992 210.042L363.24 231.746C363.563 231.842 363.817 232.094 363.914 232.418L385.528 304.396C385.846 305.453 385.557 306.599 384.776 307.38L232.722 459.464Z" fill="url(#paint5_linear_749_205)"/>
</mask>
<g mask="url(#mask3_749_205)">
<path fill-rule="evenodd" clip-rule="evenodd" d="M265.627 234.564L338.243 260.66L363.54 329.884L373.582 319.84C374.364 319.057 374.652 317.908 374.332 316.848L352.444 244.592C352.347 244.27 352.095 244.02 351.773 243.923L278.246 221.943L265.627 234.564Z" fill="#E2C2DD" fill-opacity="0.2"/>
<rect width="70.7458" height="279.991" transform="matrix(-0.707038 -0.707175 0.707038 -0.707175 172.488 426.086)" fill="#221B24" fill-opacity="0.15"/>
<rect width="40.0884" height="279.254" transform="matrix(-0.707038 -0.707175 0.707038 -0.707175 170.215 428.843)" fill="url(#paint6_linear_749_205)"/>
<rect width="40.0884" height="279.254" transform="matrix(0.707038 0.707175 -0.707038 0.707175 314.562 184.081)" fill="url(#paint7_linear_749_205)"/>
</g>
<mask id="mask4_749_205" style="mask-type:alpha" maskUnits="userSpaceOnUse" x="114" y="39" width="251" height="251">
<path d="M267.278 40.5359C269.231 38.5831 272.396 38.5831 274.349 40.5359L363.33 129.534C365.282 131.487 365.282 134.653 363.33 136.606L210.008 289.958L136.76 268.254C136.437 268.158 136.184 267.905 136.086 267.582L114.472 195.604C114.154 194.547 114.443 193.401 115.224 192.62L267.278 40.5359Z" fill="url(#paint8_linear_749_205)"/>
</mask>
<g mask="url(#mask4_749_205)">
<path fill-rule="evenodd" clip-rule="evenodd" d="M233.396 266.749L161.636 238.384L138.526 168.4L128.173 178.123C127.366 178.881 127.042 180.021 127.33 181.09L146.937 253.998C147.024 254.322 147.268 254.581 147.586 254.687L220.388 278.967L233.396 266.749Z" fill="#D79CE8" fill-opacity="0.26"/>
<rect width="70.7458" height="279.991" transform="matrix(0.707038 0.707175 -0.707038 0.707175 327.512 73.9139)" fill="#53395A" fill-opacity="0.15"/>
<rect width="40.0884" height="279.254" transform="matrix(0.707038 0.707175 -0.707038 0.707175 323.554 78.665)" fill="url(#paint9_linear_749_205)"/>
<rect width="40.0884" height="279.254" transform="matrix(0.707038 0.707175 -0.707038 0.707175 323.554 78.665)" fill="url(#paint10_linear_749_205)"/>
</g>
</g>
</g>
<defs>
<linearGradient id="paint0_linear_749_205" x1="181.161" y1="414.965" x2="364.01" y2="232.151" gradientUnits="userSpaceOnUse">
<stop stop-color="#FFF271"/>
<stop offset="0.479167" stop-color="#B816FD"/>
<stop offset="1" stop-color="#0EE6EF"/>
</linearGradient>
<linearGradient id="paint1_linear_749_205" x1="181.161" y1="414.965" x2="364.01" y2="232.151" gradientUnits="userSpaceOnUse">
<stop stop-color="#FFF271"/>
<stop offset="0.479167" stop-color="#B816FD"/>
<stop offset="1" stop-color="#0EE6EF"/>
</linearGradient>
<linearGradient id="paint2_linear_749_205" x1="318.839" y1="85.0352" x2="135.99" y2="267.849" gradientUnits="userSpaceOnUse">
<stop stop-color="#0EE6EF"/>
<stop offset="0.479167" stop-color="#B816FD"/>
<stop offset="1" stop-color="#FFF271"/>
</linearGradient>
<linearGradient id="paint3_linear_749_205" x1="318.839" y1="85.0352" x2="135.99" y2="267.849" gradientUnits="userSpaceOnUse">
<stop stop-color="#FFF271"/>
<stop offset="0.479167" stop-color="#B816FD"/>
<stop offset="1" stop-color="#0EE6EF"/>
</linearGradient>
<linearGradient id="paint4_linear_749_205" x1="315.13" y1="87.9686" x2="172.399" y2="433.079" gradientUnits="userSpaceOnUse">
<stop stop-color="#FFE16D"/>
<stop offset="0.494792" stop-color="#B816FD"/>
<stop offset="0.9375" stop-color="#4FC4F9"/>
</linearGradient>
<linearGradient id="paint5_linear_749_205" x1="181.161" y1="414.965" x2="364.01" y2="232.151" gradientUnits="userSpaceOnUse">
<stop stop-color="#FFF271"/>
<stop offset="0.479167" stop-color="#B816FD"/>
<stop offset="1" stop-color="#0EE6EF"/>
</linearGradient>
<linearGradient id="paint6_linear_749_205" x1="0.155892" y1="127.338" x2="37.2039" y2="128.449" gradientUnits="userSpaceOnUse">
<stop stop-color="#221B24" stop-opacity="0.19"/>
<stop offset="1" stop-color="#221B24" stop-opacity="0"/>
</linearGradient>
<linearGradient id="paint7_linear_749_205" x1="0.155892" y1="127.338" x2="37.2038" y2="128.449" gradientUnits="userSpaceOnUse">
<stop stop-color="#221B24" stop-opacity="0.19"/>
<stop offset="1" stop-color="#221B24" stop-opacity="0"/>
</linearGradient>
<linearGradient id="paint8_linear_749_205" x1="318.839" y1="85.0352" x2="135.99" y2="267.849" gradientUnits="userSpaceOnUse">
<stop stop-color="#FFF271"/>
<stop offset="0.479167" stop-color="#B816FD"/>
<stop offset="1" stop-color="#0EE6EF"/>
</linearGradient>
<linearGradient id="paint9_linear_749_205" x1="0.155892" y1="127.338" x2="37.2039" y2="128.449" gradientUnits="userSpaceOnUse">
<stop stop-color="#221B24" stop-opacity="0.19"/>
<stop offset="1" stop-color="#221B24" stop-opacity="0"/>
</linearGradient>
<linearGradient id="paint10_linear_749_205" x1="0.155892" y1="127.338" x2="37.2039" y2="128.449" gradientUnits="userSpaceOnUse">
<stop stop-color="#221B24" stop-opacity="0.19"/>
<stop offset="1" stop-color="#221B24" stop-opacity="0"/>
</linearGradient>
<clipPath id="clip0_749_205">
<rect width="324" height="426" fill="white" transform="translate(88 37)"/>
</clipPath>
</defs>
</svg>
