<svg xmlns="http://www.w3.org/2000/svg" xmlns:xlink="http://www.w3.org/1999/xlink" width="256" height="256" viewBox="0 0 256 256"><defs><filter id="a" x="27" y="28" width="202" height="202" filterUnits="userSpaceOnUse"><feOffset dy="1" input="SourceAlpha"/><feGaussianBlur stdDeviation="1" result="b"/><feFlood flood-opacity="0.161"/><feComposite operator="in" in2="b"/><feComposite in="SourceGraphic"/></filter><linearGradient id="c" x1="0.5" y1="1.142" x2="0.5" y2="-0.105" gradientUnits="objectBoundingBox"><stop offset="0" stop-color="#f9a606"/><stop offset="1" stop-color="#fbcc5f"/></linearGradient><linearGradient id="d" x1="0.843" y1="0.135" x2="0.206" y2="0.886" gradientUnits="objectBoundingBox"><stop offset="0" stop-color="#b6509e"/><stop offset="1" stop-color="#2ebac6"/></linearGradient><clipPath id="f"><rect width="256" height="256"/></clipPath></defs><g id="e" clip-path="url(#f)"><g transform="translate(-259 -636)"><g transform="translate(289 666)"><g transform="matrix(1, 0, 0, 1, -30, -30)" filter="url(#a)"><g transform="translate(30 226) rotate(-90)" fill="#fff" stroke="#e1e1e1" stroke-width="0.3"><circle cx="98" cy="98" r="98" stroke="none"/><circle cx="98" cy="98" r="97.85" fill="none"/></g></g><path d="M55.689,78.957s50.462,63.539,51.556,64.88c.829,1,2.04,1.564,2.564,1.264,1.682-.964,2.958-1.646,3.2-2.293a2.541,2.541,0,0,0-.27-2.246L0,0S118.644,137.137,124.4,142.789a98.1,98.1,0,0,1-16.7,11.027l-.45.133C100.366,146.436,55.689,78.957,55.689,78.957Z" transform="translate(35.882 31.11)" fill="#ff007a"/><g transform="translate(39.2 98)"><g transform="translate(0 0)"><path d="M155.4,47.08V61.617L173.367,36.3Z" transform="translate(-135.799 -2.817)" fill="#3b3735"/><path d="M172.714,44.547,155.4,15.8V36.707Z" transform="translate(-135.799 -15.8)" fill="#3b3735"/><path d="M155.4,29.6V47.4l17.15-9.963Z" transform="translate(-135.799 -7.065)" fill="#1f1d19"/><path d="M143.8,44.547,161.113,15.8V36.707Z" transform="translate(-143.147 -15.8)" fill="#959190"/><path d="M161.05,29.6V47.4L143.9,37.44Z" transform="translate(-143.085 -7.065)" fill="#403c3a"/><path d="M161.367,47.08V61.617L143.4,36.3Z" transform="translate(-143.4 -2.817)" fill="#959190"/></g></g><g transform="translate(104.533 39.201)"><circle cx="29.4" cy="29.4" r="29.4" fill="url(#c)"/><path d="M178.977,167.787h-3.489c-1.921-5.331-7.085-8.987-13.9-8.987h-11.2v8.987H146.5v3.224h3.891v3.381H146.5v3.224h3.891v8.879h11.2c6.733,0,11.858-3.626,13.828-8.879h3.557v-3.224H176.2a14.624,14.624,0,0,0,.108-1.744v-.079c0-.529-.029-1.049-.078-1.558h2.754v-3.224Zm-25.451-6.115h8.065c5,0,8.712,2.46,10.427,6.105H153.527Zm8.065,21.923h-8.065v-5.988H172C170.275,181.193,166.571,183.594,161.592,183.594Zm11.476-10.878a11.608,11.608,0,0,1-.118,1.666H153.527V171H172.96a12.77,12.77,0,0,1,.108,1.637Z" transform="translate(-132.143 -143.238)" fill="#fff"/></g></g></g><path d="M128,256a128.976,128.976,0,0,1-25.8-2.6,127.309,127.309,0,0,1-45.77-19.261,128.366,128.366,0,0,1-46.375-56.315A127.357,127.357,0,0,1,2.6,153.8a129.251,129.251,0,0,1,0-51.593,127.31,127.31,0,0,1,19.26-45.77A128.372,128.372,0,0,1,78.177,10.059,127.33,127.33,0,0,1,102.2,2.6a129.244,129.244,0,0,1,51.593,0,127.308,127.308,0,0,1,45.77,19.26,128.367,128.367,0,0,1,46.375,56.316A127.343,127.343,0,0,1,253.4,102.2a129.248,129.248,0,0,1,0,51.593,127.3,127.3,0,0,1-19.26,45.77,128.382,128.382,0,0,1-56.316,46.375A127.4,127.4,0,0,1,153.8,253.4,128.977,128.977,0,0,1,128,256Zm0-242.287a115.145,115.145,0,0,0-23.033,2.322A113.657,113.657,0,0,0,64.1,33.232,114.622,114.622,0,0,0,22.7,83.515a113.7,113.7,0,0,0-6.659,21.452,115.4,115.4,0,0,0,0,46.065,113.66,113.66,0,0,0,17.2,40.866,114.627,114.627,0,0,0,50.282,41.407,113.75,113.75,0,0,0,21.453,6.658,115.381,115.381,0,0,0,46.065,0,113.609,113.609,0,0,0,40.866-17.2A114.622,114.622,0,0,0,233.3,172.485a113.741,113.741,0,0,0,6.659-21.453,115.4,115.4,0,0,0,0-46.065,113.662,113.662,0,0,0-17.2-40.865A114.619,114.619,0,0,0,172.485,22.7a113.74,113.74,0,0,0-21.453-6.659A115.145,115.145,0,0,0,128,13.714Z" fill="url(#d)"/></g></svg>