<svg width="264.43876953125px" height="121.6174835205078px" xmlns="http://www.w3.org/2000/svg" viewBox="117.780615234375 14.191258239746098 264.43876953125 121.6174835205078" style="background: rgba(0, 0, 0, 0);" preserveAspectRatio="xMidYMid"><defs><filter id="editing-vr"><feFlood flood-color="#f00" flood-opacity="0.7" result="c1"></feFlood><feFlood flood-color="#00f" flood-opacity="0.7" result="c3"></feFlood><feComposite operator="in" in="c1" in2="SourceAlpha" result="text-c1"></feComposite><feComposite operator="in" in="c3" in2="SourceAlpha" result="text-c3"></feComposite><feOffset in="text-c1" dx="5" dy="-1" result="text1"></feOffset><feOffset in="text-c3" dx="-5" dy="1" result="text3"></feOffset><feBlend in="SourceGraphic" in2="text1" mode="multiply" result="text4"></feBlend><feBlend in="text4" in2="text3" mode="multiply"></feBlend></filter></defs><g filter="url(#editing-vr)"><g transform="translate(161.26093780994415, 97.39999961853027)"><path d="M26.05-29.57L26.05-29.57L26.05-29.57Q27.01-31.49 27.01-33.28L27.01-33.28L27.01-33.28Q27.01-35.07 26.82-36.06L26.82-36.06L26.82-36.06Q26.62-37.06 26.18-37.82L26.18-37.82L26.18-37.82Q25.22-39.49 23.30-39.49L23.30-39.49L23.30-39.49Q20.93-39.49 19.01-37.76L19.01-37.76L19.01-37.76Q16.96-35.97 16.96-33.15L16.96-33.15L16.96-33.15Q16.96-31.36 18.21-29.98L18.21-29.98L18.21-29.98Q19.46-28.61 21.38-27.33L21.38-27.33L21.38-27.33Q23.30-26.05 25.47-24.77L25.47-24.77L25.47-24.77Q27.65-23.49 29.57-21.95L29.57-21.95L29.57-21.95Q33.98-18.43 33.98-13.70L33.98-13.70L33.98-13.70Q33.98-10.50 32.29-7.78L32.29-7.78L32.29-7.78Q30.59-5.06 27.78-3.07L27.78-3.07L27.78-3.07Q21.63 1.28 13.50 1.28L13.50 1.28L13.50 1.28Q6.91 1.28 3.52-0.86L3.52-0.86L3.52-0.86Q0.13-3.01 0.13-6.27L0.13-6.27L0.13-6.27Q0.13-12.10 4.67-13.57L4.67-13.57L4.67-13.57Q5.95-14.02 7.90-14.02L7.90-14.02L7.90-14.02Q9.86-14.02 12.10-13.18L12.10-13.18L12.10-13.18Q11.07-10.56 11.07-8.19L11.07-8.19L11.07-8.19Q11.07-3.07 14.72-3.07L14.72-3.07L14.72-3.07Q17.09-3.07 19.04-4.80L19.04-4.80L19.04-4.80Q20.99-6.53 20.99-8.48L20.99-8.48L20.99-8.48Q20.99-10.43 19.74-11.84L19.74-11.84L19.74-11.84Q18.50-13.25 16.64-14.37L16.64-14.37L16.64-14.37Q14.78-15.49 12.64-16.58L12.64-16.58L12.64-16.58Q10.50-17.66 8.64-19.20L8.64-19.20L8.64-19.20Q4.29-22.72 4.29-28.35L4.29-28.35L4.29-28.35Q4.29-32 6.08-34.85L6.08-34.85L6.08-34.85Q7.87-37.70 10.75-39.62L10.75-39.62L10.75-39.62Q16.51-43.52 23.58-43.52L23.58-43.52L23.58-43.52Q30.66-43.52 34.08-41.41L34.08-41.41L34.08-41.41Q37.50-39.30 37.50-35.71L37.50-35.71L37.50-35.71Q37.50-32.58 35.07-30.59L35.07-30.59L35.07-30.59Q32.96-28.93 30.40-28.93L30.40-28.93L30.40-28.93Q27.84-28.93 26.05-29.57ZM40.45-39.68L40.45-39.68L40.45-39.68Q41.34-41.47 43.30-42.46L43.30-42.46L43.30-42.46Q45.25-43.46 47.94-43.46L47.94-43.46L47.94-43.46Q52.16-43.46 54.69-40.42L54.69-40.42L54.69-40.42Q57.22-37.38 57.22-30.72L57.22-30.72L57.22-7.87L71.87-42.18L79.42-42.18L81.15-9.79L80.96-7.94L96.19-42.18L104.96-42.18L84.48 0L70.85 0L69.57-19.46L61.12 0L45.70 0L43.78-30.72L43.78-30.72Q43.58-34.18 42.66-36.45L42.66-36.45L42.66-36.45Q41.73-38.72 40.45-39.68ZM128.70 1.28L128.70 1.28L128.70 1.28Q120.51 1.28 119.74-10.37L119.74-10.37L108.74-10.37L108.74-10.37Q107.46-7.42 106.56-4.86L106.56-4.86L104.90 0L95.94 0L116.10-42.24L129.86-42.24L132.54-11.14L132.54-11.14Q133.18-4.42 135.74-2.43L135.74-2.43L135.74-2.43Q133.89 1.28 128.70 1.28ZM114.24-23.17L110.72-15.04L119.55-15.04L118.78-31.49L118.78-33.22L114.24-23.17ZM138.82-0.32L138.82-0.32L146.88-42.24L146.88-42.24Q154.43-42.88 159.30-42.88L159.30-42.88L159.30-42.88Q164.16-42.88 167.30-42.46L167.30-42.46L167.30-42.46Q170.43-42.05 172.54-40.96L172.54-40.96L172.54-40.96Q176.77-38.91 176.77-33.28L176.77-33.28L176.77-33.28Q176.77-30.02 173.95-27.26L173.95-27.26L173.95-27.26Q171.33-24.77 168.45-24.19L168.45-24.19L168.45-24.19Q171.52-23.68 173.70-21.38L173.70-21.38L173.70-21.38Q176-18.94 176-15.17L176-15.17L176-15.17Q176-7.87 170.56-3.62L170.56-3.62L170.56-3.62Q165.12 0.64 154.43 0.64L154.43 0.64L154.43 0.64Q147.07 0.64 138.82-0.32ZM156.22-20.61L153.02-4.03L153.02-4.03Q153.60-3.97 153.73-3.97L153.73-3.97L154.30-3.97L154.30-3.97Q159.55-3.97 161.79-7.42L161.79-7.42L161.79-7.42Q163.46-10.11 163.46-15.04L163.46-15.04L163.46-15.04Q163.46-17.66 161.76-19.07L161.76-19.07L161.76-19.07Q160.06-20.48 156.22-20.61L156.22-20.61ZM165.95-33.22L165.95-33.22L165.95-33.22Q165.95-38.53 160.83-38.53L160.83-38.53L160.26-38.53L160.26-38.53Q160-38.53 159.62-38.46L159.62-38.46L157.06-24.96L157.70-24.96L157.70-24.96Q165.95-25.15 165.95-33.22Z" fill="#444"></path></g></g><style>text {
  font-size: 64px;
  font-family: Arial Black;
  dominant-baseline: central;
  text-anchor: middle;
}</style></svg>