<svg width="2048" height="2048" viewBox="0 0 2048 2048" fill="none" xmlns="http://www.w3.org/2000/svg">
<rect x="40" y="40" width="1968" height="1968" rx="984" fill="black"/>
<path d="M1024.63 356.998L1201.07 525.814V1026.51L717.969 1505.32V1023.64C717.969 1011.3 722.875 999.455 731.607 990.725L805.276 917.075V1295.88L1113.76 990.133V563.095L1024.77 477.946L936.238 563.037L936.238 982.771L997.615 1044.13L933.821 1107.91L848.93 1023.04L848.93 525.872L1024.63 356.998Z" fill="url(#paint0_linear_1153_11)"/>
<path d="M1318.39 990.725C1327.13 999.455 1332.03 1011.3 1332.03 1023.64V1505.86L1056.73 1231.01L1118.42 1169.24L1244.73 1295.34V917.075L1318.39 990.725Z" fill="url(#paint1_linear_1153_11)"/>
<path d="M1025 1261.85L981.347 1305.49L981.347 1647.36L1025 1691L1068.65 1647.36L1068.65 1305.49L1025 1261.85Z" fill="url(#paint2_linear_1153_11)"/>
<path d="M848.93 1434.96L922.003 1362.23V1603.71L862.64 1544.62C853.864 1535.89 848.93 1524.02 848.93 1511.64V1434.96Z" fill="url(#paint3_linear_1153_11)"/>
<path d="M1128.32 1363.68L1201.39 1436.42L1201.39 1520.36C1201.39 1532.75 1196.45 1544.62 1187.68 1553.35L1128.32 1612.44L1128.32 1363.68Z" fill="url(#paint4_linear_1153_11)"/>
<path d="M1024.63 356.998L1201.07 525.814V1026.51L717.969 1505.32V1023.64C717.969 1011.3 722.875 999.455 731.607 990.725L805.276 917.075V1295.88L1113.76 990.133V563.095L1024.77 477.946L936.238 563.037L936.238 982.771L997.615 1044.13L933.821 1107.91L848.93 1023.04L848.93 525.872L1024.63 356.998Z" fill="url(#paint5_linear_1153_11)"/>
<path d="M1318.39 990.725C1327.13 999.455 1332.03 1011.3 1332.03 1023.64V1505.86L1056.73 1231.01L1118.42 1169.24L1244.73 1295.34V917.075L1318.39 990.725Z" fill="url(#paint6_linear_1153_11)"/>
<path d="M1025 1261.85L981.347 1305.49L981.347 1647.36L1025 1691L1068.65 1647.36L1068.65 1305.49L1025 1261.85Z" fill="url(#paint7_linear_1153_11)"/>
<path d="M848.93 1434.96L922.003 1362.23V1603.71L862.64 1544.62C853.864 1535.89 848.93 1524.02 848.93 1511.64V1434.96Z" fill="url(#paint8_linear_1153_11)"/>
<path d="M1128.32 1363.68L1201.39 1436.42L1201.39 1520.36C1201.39 1532.75 1196.45 1544.62 1187.68 1553.35L1128.32 1612.44L1128.32 1363.68Z" fill="url(#paint9_linear_1153_11)"/>
<rect x="40" y="40" width="1968" height="1968" rx="984" stroke="url(#paint10_linear_1153_11)" stroke-width="80"/>
<defs>
<linearGradient id="paint0_linear_1153_11" x1="959.52" y1="356.998" x2="966.065" y2="1669.18" gradientUnits="userSpaceOnUse">
<stop stop-color="#6167FB"/>
<stop offset="0.54357" stop-color="#26BAF8"/>
<stop offset="0.80082" stop-color="#46F7B0"/>
</linearGradient>
<linearGradient id="paint1_linear_1153_11" x1="959.52" y1="356.998" x2="966.065" y2="1669.18" gradientUnits="userSpaceOnUse">
<stop stop-color="#6167FB"/>
<stop offset="0.54357" stop-color="#26BAF8"/>
<stop offset="0.80082" stop-color="#46F7B0"/>
</linearGradient>
<linearGradient id="paint2_linear_1153_11" x1="959.52" y1="356.998" x2="966.065" y2="1669.18" gradientUnits="userSpaceOnUse">
<stop stop-color="#6167FB"/>
<stop offset="0.54357" stop-color="#26BAF8"/>
<stop offset="0.80082" stop-color="#46F7B0"/>
</linearGradient>
<linearGradient id="paint3_linear_1153_11" x1="959.52" y1="356.998" x2="966.065" y2="1669.18" gradientUnits="userSpaceOnUse">
<stop stop-color="#6167FB"/>
<stop offset="0.54357" stop-color="#26BAF8"/>
<stop offset="0.80082" stop-color="#46F7B0"/>
</linearGradient>
<linearGradient id="paint4_linear_1153_11" x1="959.52" y1="356.998" x2="966.065" y2="1669.18" gradientUnits="userSpaceOnUse">
<stop stop-color="#6167FB"/>
<stop offset="0.54357" stop-color="#26BAF8"/>
<stop offset="0.80082" stop-color="#46F7B0"/>
</linearGradient>
<linearGradient id="paint5_linear_1153_11" x1="959.52" y1="356.998" x2="966.065" y2="1669.18" gradientUnits="userSpaceOnUse">
<stop stop-color="#6167FB"/>
<stop offset="0.54357" stop-color="#26BAF8"/>
<stop offset="0.80082" stop-color="#46F7B0"/>
</linearGradient>
<linearGradient id="paint6_linear_1153_11" x1="959.52" y1="356.998" x2="966.065" y2="1669.18" gradientUnits="userSpaceOnUse">
<stop stop-color="#6167FB"/>
<stop offset="0.54357" stop-color="#26BAF8"/>
<stop offset="0.80082" stop-color="#46F7B0"/>
</linearGradient>
<linearGradient id="paint7_linear_1153_11" x1="959.52" y1="356.998" x2="966.065" y2="1669.18" gradientUnits="userSpaceOnUse">
<stop stop-color="#6167FB"/>
<stop offset="0.54357" stop-color="#26BAF8"/>
<stop offset="0.80082" stop-color="#46F7B0"/>
</linearGradient>
<linearGradient id="paint8_linear_1153_11" x1="959.52" y1="356.998" x2="966.065" y2="1669.18" gradientUnits="userSpaceOnUse">
<stop stop-color="#6167FB"/>
<stop offset="0.54357" stop-color="#26BAF8"/>
<stop offset="0.80082" stop-color="#46F7B0"/>
</linearGradient>
<linearGradient id="paint9_linear_1153_11" x1="959.52" y1="356.998" x2="966.065" y2="1669.18" gradientUnits="userSpaceOnUse">
<stop stop-color="#6167FB"/>
<stop offset="0.54357" stop-color="#26BAF8"/>
<stop offset="0.80082" stop-color="#46F7B0"/>
</linearGradient>
<linearGradient id="paint10_linear_1153_11" x1="805.611" y1="-8.03843e-08" x2="810.236" y2="2014.54" gradientUnits="userSpaceOnUse">
<stop stop-color="#6167FB"/>
<stop offset="0.54357" stop-color="#26BAF8"/>
<stop offset="0.80082" stop-color="#46F7B0"/>
</linearGradient>
</defs>
</svg>
