<svg width="221" height="220" viewBox="0 0 221 220" fill="none" xmlns="http://www.w3.org/2000/svg">
<g clip-path="url(#clip0_10983_63930)">
<path d="M219.275 110C219.275 170.05 170.595 218.73 110.545 218.73C50.4953 218.73 1.81528 170.05 1.81528 110C1.81528 49.9504 50.4953 1.27036 110.545 1.27036C170.595 1.27036 219.275 49.9504 219.275 110Z" fill="#011417" stroke="white" stroke-width="2.54071"/>
<path d="M109.796 63.6594C111.894 63.6527 113.952 64.2335 115.737 65.336C117.522 66.4386 118.962 68.0189 119.895 69.8979L151.652 133.412C152.514 135.134 152.921 137.047 152.835 138.97C152.749 140.894 152.172 142.763 151.16 144.401C150.148 146.038 148.735 147.39 147.053 148.328C145.372 149.265 143.479 149.757 141.553 149.757H78.039C76.1139 149.757 74.2207 149.265 72.5393 148.328C70.8579 147.39 69.444 146.038 68.4322 144.401C67.4203 142.763 66.8439 140.894 66.7578 138.97C66.6716 137.047 67.0787 135.134 67.9402 133.412L99.6974 69.8979C100.63 68.0189 102.071 66.4386 103.856 65.336C105.64 64.2335 107.698 63.6527 109.796 63.6594ZM109.796 55.8965C106.258 55.8961 102.789 56.8809 99.7793 58.7406C96.7691 60.6003 94.3362 63.2614 92.7531 66.4258L60.9959 129.94C59.5425 132.846 58.856 136.074 59.0016 139.319C59.1471 142.564 60.12 145.719 61.8277 148.482C63.5353 151.245 65.9212 153.526 68.7585 155.108C71.5958 156.69 74.7905 157.52 78.039 157.52H141.553C144.802 157.52 147.997 156.69 150.834 155.108C153.671 153.526 156.057 151.245 157.765 148.482C159.472 145.719 160.445 142.564 160.591 139.319C160.736 136.074 160.05 132.846 158.597 129.94L126.839 66.4258C125.256 63.2614 122.823 60.6003 119.813 58.7406C116.803 56.8809 113.335 55.8961 109.796 55.8965V55.8965Z" fill="#70D44B"/>
</g>
<defs>
<clipPath id="clip0_10983_63930">
<rect width="220" height="220" fill="white" transform="translate(0.544922)"/>
</clipPath>
</defs>
</svg>
