<svg width="347" height="363" viewBox="0 0 347 363" fill="none" xmlns="http://www.w3.org/2000/svg">
<ellipse cx="44" cy="147" rx="36" ry="46" fill="#FCCA97"/>
<ellipse cx="304" cy="147" rx="36" ry="46" fill="#FCCA97"/>
<ellipse cx="173" cy="132.5" rx="105" ry="72.5" fill="#FCCA97"/>
<ellipse cx="173" cy="174.5" rx="105" ry="72.5" fill="#FCCA97"/>
<path d="M285.518 86.5358C279.537 86.5358 273.954 87.3333 268.77 88.9284C250.426 59.4196 218.924 39.0824 182.237 36.291C189.415 25.5243 201.777 18.7452 215.734 18.7452C218.924 18.7452 221.715 15.9538 221.715 12.7637C221.715 9.57354 218.924 6.78216 215.734 6.78216C198.985 6.78216 184.231 14.7575 174.661 27.1193C169.078 14.7575 159.109 5.18709 146.747 0.40187C143.557 -0.794435 140.366 0.800635 138.771 3.59201C137.575 6.78216 139.17 9.97231 141.962 11.5674C151.931 15.5551 159.906 23.5304 163.894 33.1009C164.293 34.2972 164.691 35.0947 165.09 36.291C128.403 39.0824 96.5019 59.4196 78.1586 88.9284C72.9746 87.3333 67.3918 86.5358 61.4103 86.5358C27.515 86.5358 0 114.051 0 147.946C0 181.841 27.515 209.356 61.4103 209.356C67.3918 209.356 72.9746 208.559 78.1586 206.964C98.097 238.865 133.189 260 173.464 260C213.74 260 248.831 238.865 268.77 206.964C273.954 208.559 279.537 209.356 285.518 209.356C319.413 209.356 346.928 181.841 346.928 147.946C346.928 114.051 319.413 86.5358 285.518 86.5358ZM46.2571 191.412C30.3064 191.412 17.147 171.473 17.147 146.75C17.147 122.026 30.3064 102.088 46.2571 102.088C59.0177 102.088 69.7844 114.45 73.7721 131.995C74.9684 136.382 57.8214 126.811 57.8214 131.995C57.8214 135.983 74.9684 154.725 74.5697 158.314C70.9808 177.455 59.8152 191.412 46.2571 191.412ZM242.052 185.43C244.445 189.817 245.641 195.001 245.641 199.786C245.641 225.307 213.341 246.043 173.065 246.043C133.189 246.043 100.49 225.307 100.49 199.786C100.49 194.602 101.686 189.817 104.079 185.43C86.5327 175.86 74.9684 157.118 74.9684 135.584C74.9684 104.082 100.49 78.9592 131.594 78.9592C147.943 78.9592 162.299 85.7383 172.667 96.505C183.035 85.7383 197.789 78.9592 213.74 78.9592C245.242 78.9592 270.365 104.48 270.365 135.584C271.561 157.118 259.598 175.86 242.052 185.43ZM302.665 191.412C289.107 191.412 277.941 177.455 274.751 158.713C273.954 155.124 291.5 136.382 291.5 132.394C291.5 127.21 274.353 137.179 275.549 132.394C279.537 114.848 290.303 102.487 303.064 102.487C319.015 102.487 332.174 122.425 332.174 147.149C331.775 171.473 318.616 191.412 302.665 191.412Z" fill="#5B3221"/>
<path d="M173.464 162.701C182.493 162.701 189.813 159.13 189.813 154.725C189.813 150.321 182.493 146.75 173.464 146.75C164.434 146.75 157.114 150.321 157.114 154.725C157.114 159.13 164.434 162.701 173.464 162.701Z" fill="#5B3221"/>
<path d="M124.815 117.241C113.649 117.241 104.079 126.413 104.079 137.977C104.079 149.541 113.251 158.713 124.815 158.713C135.98 158.713 145.551 149.541 145.551 137.977C145.551 126.413 136.379 117.241 124.815 117.241ZM116.042 137.977C112.852 137.977 110.06 135.185 110.06 131.995C110.06 128.805 112.852 126.014 116.042 126.014C119.232 126.014 122.023 128.805 122.023 131.995C122.422 135.185 119.631 137.977 116.042 137.977Z" fill="#5B3221"/>
<path d="M222.114 114.848C210.948 114.848 201.378 124.02 201.378 135.584C201.378 146.75 210.55 156.32 222.114 156.32C233.279 156.32 242.85 147.149 242.85 135.584C242.451 124.02 233.279 114.848 222.114 114.848ZM212.942 135.186C209.752 135.186 206.961 132.394 206.961 129.204C206.961 126.014 209.752 123.223 212.942 123.223C216.132 123.223 218.924 126.014 218.924 129.204C219.323 132.394 216.531 135.186 212.942 135.186Z" fill="#5B3221"/>
<circle cx="213" cy="129" r="6" fill="white"/>
<circle cx="116" cy="132" r="6" fill="white"/>
<path d="M122.023 104.481C130.796 103.284 137.575 104.481 137.974 101.29C138.373 98.1002 129.999 93.315 120.827 96.9039C111.655 100.094 106.87 108.069 107.269 108.867C106.87 110.063 112.852 105.278 122.023 104.481Z" fill="#5B3221"/>
<path d="M222.512 104.481C231.285 105.278 237.666 110.063 237.666 108.867C237.666 108.069 233.279 100.094 224.107 96.9039C214.936 93.315 206.562 98.1002 206.96 101.29C206.96 104.481 213.74 103.284 222.512 104.481Z" fill="#5B3221"/>
<path d="M176.654 220.921C208.954 224.51 217.329 196.596 210.948 187.424C201.777 178.651 192.605 191.412 172.667 184.633C154.722 177.854 137.974 183.038 133.986 193.007C129.6 202.179 142.759 216.933 176.654 220.921Z" fill="#5B3221"/>
<path d="M60.92 314.92C54.2 314.92 48.28 313.533 43.16 310.76C38.04 307.987 34.04 304.093 31.16 299.08C28.3867 293.96 27 288.093 27 281.48C27 274.867 28.3867 269.053 31.16 264.04C34.04 259.027 38.04 255.187 43.16 252.52C48.28 249.747 54.2 248.36 60.92 248.36C67.64 248.36 73.56 249.747 78.68 252.52C83.9067 255.187 87.96 259.027 90.84 264.04C93.72 269.053 95.16 274.813 95.16 281.32C95.16 287.933 93.72 293.8 90.84 298.92C87.96 304.04 83.9067 307.987 78.68 310.76C73.56 313.533 67.64 314.92 60.92 314.92ZM60.92 305.64C67.5333 305.64 72.8667 303.453 76.92 299.08C80.9733 294.6 83 288.68 83 281.32C83 274.173 80.9733 268.467 76.92 264.2C72.8667 259.827 67.5333 257.64 60.92 257.64C54.3067 257.64 49.0267 259.827 45.08 264.2C41.1333 268.573 39.16 274.333 39.16 281.48C39.16 288.733 41.1333 294.6 45.08 299.08C49.1333 303.453 54.4133 305.64 60.92 305.64Z" fill="#5B3221"/>
<path d="M137.92 333.92C131.2 333.92 125.28 332.533 120.16 329.76C115.04 326.987 111.04 323.093 108.16 318.08C105.387 312.96 104 307.093 104 300.48C104 293.867 105.387 288.053 108.16 283.04C111.04 278.027 115.04 274.187 120.16 271.52C125.28 268.747 131.2 267.36 137.92 267.36C144.64 267.36 150.56 268.747 155.68 271.52C160.907 274.187 164.96 278.027 167.84 283.04C170.72 288.053 172.16 293.813 172.16 300.32C172.16 306.933 170.72 312.8 167.84 317.92C164.96 323.04 160.907 326.987 155.68 329.76C150.56 332.533 144.64 333.92 137.92 333.92ZM137.92 324.64C144.533 324.64 149.867 322.453 153.92 318.08C157.973 313.6 160 307.68 160 300.32C160 293.173 157.973 287.467 153.92 283.2C149.867 278.827 144.533 276.64 137.92 276.64C131.307 276.64 126.027 278.827 122.08 283.2C118.133 287.573 116.16 293.333 116.16 300.48C116.16 307.733 118.133 313.6 122.08 318.08C126.133 322.453 131.413 324.64 137.92 324.64Z" fill="#5B3221"/>
<path d="M262.48 269.12V277.6H251.92V333.44C251.92 343.147 248.987 350.347 243.12 355.04C237.253 359.733 229.413 362.08 219.6 362.08C212.133 362.08 204.24 360.8 195.92 358.24L198.32 348.96C206.427 351.413 213.413 352.64 219.28 352.64C225.893 352.64 231.013 351.093 234.64 348C238.267 345.013 240.08 340.427 240.08 334.24V325.6C237.093 327.84 233.733 329.547 230 330.72C226.373 331.893 222.747 332.48 219.12 332.48C213.147 332.48 207.707 331.2 202.8 328.64C197.893 325.973 194 322.187 191.12 317.28C188.347 312.373 186.96 306.613 186.96 300C186.96 293.173 188.347 287.36 191.12 282.56C193.893 277.653 197.68 273.973 202.48 271.52C207.387 268.96 212.827 267.68 218.8 267.68C222.427 267.68 226.16 268.32 230 269.6C233.84 270.773 237.147 272.48 239.92 274.72V269.12H262.48ZM199.28 300.8C199.28 307.947 201.36 313.547 205.52 317.6C209.68 321.653 215.013 323.68 221.52 323.68C224.613 323.68 227.76 323.147 230.96 322.08C234.267 321.013 237.307 319.467 240.08 317.44L239.92 282.88C236.827 280.853 233.52 279.253 230 278.08C226.587 276.907 223.333 276.32 220.24 276.32C213.947 276.32 208.88 278.507 205.04 282.88C201.2 287.147 199.28 293.12 199.28 300.8Z" fill="#5B3221"/>
<path d="M335.56 304.52V313H315.24L314.6 307.4C311.187 309.96 307.773 311.827 304.36 313C300.947 314.173 297.107 314.76 292.84 314.76C286.44 314.76 281.213 313 277.16 309.48C273.213 305.853 271.24 301.373 271.24 296.04C271.24 289.213 273.533 284.253 278.12 281.16C282.813 277.96 288.947 276.36 296.52 276.36C301.96 276.36 307.773 277.053 313.96 278.44V271.88C313.96 267.08 312.627 263.453 309.96 261C307.4 258.547 303.773 257.32 299.08 257.32C295.987 257.32 292.413 257.853 288.36 258.92C284.413 259.88 280.787 261.267 277.48 263.08L273.96 255.4C277.48 253.16 281.533 251.453 286.12 250.28C290.813 249.107 295.187 248.52 299.24 248.52C307.453 248.52 313.907 250.547 318.6 254.6C323.293 258.547 325.64 263.933 325.64 270.76V304.52H335.56ZM282.44 295.4C282.44 298.707 283.507 301.427 285.64 303.56C287.88 305.587 290.867 306.6 294.6 306.6C300.893 306.6 307.347 304.307 313.96 299.72V285.32C308.307 284.04 302.76 283.4 297.32 283.4C293.053 283.4 289.48 284.36 286.6 286.28C283.827 288.093 282.44 291.133 282.44 295.4Z" fill="#5B3221"/>
</svg>
