<!-- by TradingView --><svg width="18" height="18" xmlns="http://www.w3.org/2000/svg"><path fill="url(#paint0_linear)" d="M0 0h18v18H0z"/><path d="M13.2 9h-1.537L12 7h1.588c.93 0 1.25.568 1.25.946 0 .534-.361 1.054-1.637 1.054zm1.129 1.862c0 .534-.35 1.138-1.555 1.138h-1.637l.353-2h1.594c.937 0 1.245.486 1.245.862zM9.563 7H7.941l.353-2h1.648c.815 0 1.176.477 1.176.855C11.118 6.389 10.78 7 9.563 7zm.835 1.811c0 .395-.352 1.189-1.4 1.189H7.204l.353-2h1.82c.71 0 1.02.553 1.02.811zm-.693 3.01c0 .535-.372 1.179-1.31 1.179H6.529l.353-2h1.89c.606 0 .933.443.933.82zM5.197 7H3.706l.353-2h1.518c.947 0 1.305.477 1.305.855C6.882 6.389 6.472 7 5.197 7zm.98 1.811C6.176 9.345 5.81 10 4.633 10H3l.353-2H5.01c.812 0 1.165.434 1.165.811z" fill="#F6F8FD"/><defs><linearGradient id="paint0_linear" x1="3.349" y1="3.122" x2="21.904" y2="24.434" gradientUnits="userSpaceOnUse"><stop stop-color="#1A1E21"/><stop offset="1" stop-color="#06060A"/></linearGradient></defs></svg>