<?xml version="1.0" encoding="UTF-8"?>
<svg id="Layer_1" data-name="Layer 1" xmlns="http://www.w3.org/2000/svg" viewBox="0 0 414.64 414.64">
  <defs>
    <style>
      .cls-1, .cls-2 {
        stroke-width: 0px;
      }

      .cls-2 {
        fill: #fff;
      }
    </style>
  </defs>
  <g id="Layer_3" data-name="Layer 3">
    <circle class="cls-1" cx="207.32" cy="207.32" r="207.32"/>
  </g>
  <g id="Layer_1-2" data-name="Layer 1">
    <g>
      <path class="cls-2" d="m237.62,202.19c-1.41.51-2.9.27-4.36.27-17.81.02-35.63,0-53.44,0-.59,0-1.18-.06-1.77,0-2.23.26-3.31-.49-3.1-2.94.18-2.04.04-4.12.04-6.18,0-10.45,0-20.9-.02-31.35,0-4.74.47-4.14-4.31-4.15-22.67-.03-45.34-.06-68.01-.04-7.81,0-13.35-3.03-16.8-10.41-6.54-13.99-13.54-27.76-20.34-41.62-.45-.92-.93-1.84-1.33-2.79-1.87-4.34-.26-7.24,4.38-7.81,1.31-.16,2.65-.09,3.97-.09h266.75c1.76,0,3.55-.2,5.27.33,3.43,1.04,4.62,3.47,3.35,6.82-.26.68-.63,1.33-.95,1.99-7.19,14.66-14.49,29.26-21.53,43.99-3.19,6.68-8.48,9.52-15.53,9.54-21.64.07-43.28.05-64.92.07h-2.65c-4.73.05-4.24-.57-4.25,4.21-.02,12.36,0,24.72-.03,37.09,0,1.01.22,2.07-.41,3.02v.04Z"/>
      <path class="cls-2" d="m206.68,265.33c9.27,0,18.54-.01,27.81,0,3.45,0,3.51.05,3.51,3.24,0,16.33,0,32.66,0,48.98,0,2.99-.75,5.78-2.09,8.48-7.57,15.28-15.07,30.59-22.64,45.87-1.23,2.48-2.34,5.24-5.82,5.29-3.5.05-4.66-2.66-5.9-5.16-8.3-16.72-16.57-33.45-24.84-50.19-1.19-2.41-1.67-5-1.67-7.69,0-15.3.02-30.6-.11-45.89-.02-2.44.81-2.99,3.06-2.97,9.56.09,19.13.04,28.69.04h0Z"/>
      <path class="cls-2" d="m238.09,233.54c0-9.27-.02-18.54,0-27.81,0-3.11.06-3.18,3.09-3.19,16.63-.03,33.26-.03,49.89-.03.73,0,1.47.05,2.2.09,4.12.2,7.22,3.16,4.61,8.27-6.34,12.44-12.36,25.05-18.51,37.59-1.3,2.64-2.66,5.25-3.88,7.92-2.44,5.36-6.83,8.22-12.44,8.54-7.63.43-15.3.15-22.95.27-2.4.04-2.02-1.55-2.03-2.97v-28.69h.02Z"/>
    </g>
  </g>
</svg>
