<svg id="svg" version="1.1" xmlns="http://www.w3.org/2000/svg" xmlns:xlink="http://www.w3.org/1999/xlink" width="400" height="400" viewBox="0, 0, 400,400"><g id="svgg"><path id="path0" d="M171.541 52.279 C 163.416 52.439,163.706 52.301,163.526 56.102 C 163.364 59.550,164.070 59.341,152.000 59.511 C 140.361 59.675,141.066 59.423,140.800 63.519 L 140.600 66.600 134.000 66.898 C 125.857 67.266,126.520 66.950,126.339 70.543 C 126.145 74.390,126.526 74.177,119.530 74.337 C 112.409 74.500,112.260 74.579,111.740 78.460 L 111.400 81.000 108.319 81.200 C 104.560 81.444,104.396 81.597,103.999 85.213 C 103.627 88.594,103.423 88.786,100.180 88.794 C 97.155 88.802,96.800 89.159,96.800 92.200 C 96.800 95.263,96.455 95.600,93.320 95.600 C 89.814 95.600,89.200 96.255,89.200 99.992 C 89.200 103.183,89.289 103.113,85.000 103.297 L 82.600 103.400 82.400 110.084 C 82.169 117.814,82.174 117.804,78.347 118.081 C 75.174 118.311,74.800 118.726,74.800 122.016 C 74.800 125.870,74.793 125.879,71.977 125.676 C 68.119 125.397,67.789 125.975,67.424 133.656 C 67.093 140.604,67.212 140.385,63.749 140.394 C 60.431 140.402,60.544 140.048,60.252 151.400 C 59.955 162.937,60.168 162.382,56.024 162.432 C 53.752 162.459,53.551 162.518,54.521 162.872 C 55.570 163.254,55.596 163.316,54.921 163.828 C 53.959 164.557,53.689 164.533,53.497 163.700 C 52.907 161.146,52.733 171.845,52.882 201.418 C 53.028 230.238,53.138 235.316,53.627 235.625 C 53.942 235.824,55.280 235.993,56.600 236.000 C 60.247 236.019,60.019 235.339,60.288 246.959 C 60.561 258.734,60.339 258.131,64.318 257.936 C 67.706 257.771,67.600 257.542,67.600 265.016 C 67.600 272.560,67.195 271.909,72.000 272.098 L 74.600 272.200 74.800 279.200 C 75.035 287.417,74.948 287.200,77.998 287.200 C 81.979 287.200,82.400 287.522,82.400 290.567 C 82.400 293.774,83.057 294.400,86.425 294.400 C 89.128 294.400,89.600 295.055,89.600 298.811 C 89.600 301.541,89.574 301.524,94.000 301.698 L 96.600 301.800 96.800 305.400 L 97.000 309.000 99.400 309.099 C 100.720 309.153,102.385 309.297,103.100 309.417 L 104.400 309.636 104.400 312.356 C 104.400 315.866,104.917 316.400,108.317 316.400 C 111.269 316.400,111.600 316.798,111.600 320.350 C 111.600 323.444,111.415 323.363,119.068 323.600 C 126.616 323.833,126.145 323.568,126.400 327.732 L 126.600 331.000 133.371 331.110 C 141.202 331.237,141.109 331.198,140.883 334.316 C 140.610 338.099,140.312 338.000,151.967 338.000 C 163.601 338.000,163.200 337.858,163.200 341.987 C 163.200 345.911,159.746 345.573,200.020 345.587 C 239.775 345.602,236.400 345.917,236.400 342.190 C 236.400 337.971,236.320 338.000,248.097 338.000 C 259.696 338.000,259.448 338.082,259.059 334.363 C 258.732 331.230,258.713 331.239,266.629 331.110 L 273.400 331.000 273.600 327.400 L 273.800 323.800 277.187 323.682 C 281.120 323.546,281.186 323.488,281.194 320.133 C 281.204 316.168,280.769 316.400,288.175 316.400 C 295.726 316.400,295.509 316.527,295.694 312.000 L 295.800 309.400 299.285 309.285 L 302.770 309.169 302.986 307.885 C 303.105 307.178,303.247 305.520,303.301 304.200 L 303.400 301.800 306.382 301.681 C 310.121 301.531,310.400 301.298,310.400 298.325 C 310.400 294.782,310.726 294.400,313.752 294.400 C 317.045 294.400,317.600 293.835,317.600 290.483 C 317.600 287.505,317.985 287.200,321.750 287.200 C 325.089 287.200,324.963 287.492,325.200 279.200 L 325.400 272.200 328.464 272.084 C 332.455 271.933,332.359 272.113,332.489 264.572 L 332.600 258.200 335.600 258.000 C 339.926 257.712,339.600 258.624,339.600 246.819 C 339.600 235.013,339.234 236.000,343.609 236.000 C 345.118 236.000,346.448 235.845,346.565 235.657 C 346.682 235.468,346.827 218.953,346.889 198.957 L 347.000 162.600 343.525 162.391 C 339.162 162.129,339.648 163.443,339.338 151.069 L 339.072 140.400 336.159 140.400 C 332.477 140.400,332.640 140.729,332.400 132.800 L 332.200 126.200 328.884 126.084 C 324.967 125.946,324.800 125.746,324.800 121.174 L 324.800 118.400 321.829 118.400 C 317.342 118.400,317.415 118.591,317.403 106.800 L 317.400 103.400 314.418 103.281 C 310.571 103.127,310.400 102.961,310.400 99.375 C 310.400 95.876,310.300 95.784,306.647 95.951 C 303.296 96.104,303.214 96.008,303.206 91.900 L 303.200 88.800 300.100 88.794 C 295.935 88.786,295.840 88.700,295.600 84.716 L 295.400 81.400 292.800 81.294 C 288.289 81.109,288.400 81.191,288.400 78.041 C 288.400 74.497,288.481 74.543,281.600 74.195 C 273.835 73.802,274.063 73.918,273.918 70.317 L 273.800 67.400 267.800 67.116 C 264.500 66.960,261.260 66.780,260.600 66.716 L 259.400 66.600 259.200 63.200 L 259.000 59.800 248.633 59.693 C 236.652 59.570,237.200 59.748,237.200 55.965 C 237.200 53.582,237.090 53.169,236.348 52.772 C 235.499 52.318,187.902 51.955,171.541 52.279 M176.000 58.400 C 176.000 58.649,174.078 58.775,170.900 58.733 C 166.822 58.679,166.281 58.612,168.200 58.400 C 172.132 57.965,176.000 57.965,176.000 58.400 M131.773 67.959 C 132.930 68.412,131.951 68.820,129.894 68.742 C 128.921 68.705,127.917 68.804,127.663 68.961 C 127.172 69.265,127.004 68.329,127.467 67.867 C 127.821 67.513,130.796 67.577,131.773 67.959 M127.680 71.680 C 127.307 72.053,127.200 71.947,127.200 71.200 C 127.200 70.453,127.307 70.347,127.680 70.720 C 128.053 71.093,128.053 71.307,127.680 71.680 M117.900 76.157 C 117.515 76.449,117.200 76.874,117.200 77.101 C 117.200 77.329,116.927 77.619,116.594 77.747 C 116.261 77.875,115.810 78.449,115.592 79.022 C 115.083 80.360,114.293 80.096,113.962 78.476 C 113.646 76.931,114.394 76.166,116.050 76.340 C 116.683 76.406,117.200 76.267,117.200 76.030 C 117.200 75.794,117.515 75.606,117.900 75.613 C 118.567 75.625,118.567 75.651,117.900 76.157 M124.230 80.048 C 124.349 80.242,123.312 80.381,121.924 80.358 L 119.400 80.316 121.000 79.822 C 122.620 79.321,123.833 79.407,124.230 80.048 M132.826 89.214 C 133.474 89.561,133.600 90.068,133.600 92.334 C 133.600 95.725,133.875 96.000,137.266 96.000 C 140.548 96.000,140.800 96.309,140.800 100.331 C 140.800 103.607,140.791 103.600,145.008 103.600 L 147.951 103.600 148.177 105.300 C 148.302 106.235,148.448 107.900,148.502 109.000 L 148.600 111.000 152.000 111.200 L 155.400 111.400 155.400 114.800 L 155.400 118.200 152.000 118.200 L 148.600 118.200 148.484 114.700 L 148.369 111.200 145.610 111.200 C 140.984 111.200,140.800 111.039,140.800 107.010 L 140.800 103.600 138.089 103.600 C 134.159 103.600,133.600 103.101,133.600 99.591 C 133.600 95.939,133.631 95.953,125.508 96.090 L 119.000 96.200 118.898 99.000 C 118.727 103.724,118.815 103.600,115.606 103.600 C 111.545 103.600,111.857 100.649,112.085 136.884 L 112.283 168.410 111.360 169.405 C 110.576 170.252,110.081 170.400,108.043 170.400 C 104.955 170.400,105.137 169.760,105.170 180.509 C 105.208 192.822,105.445 192.150,100.973 192.400 L 97.400 192.600 97.263 210.048 L 97.127 227.496 100.572 227.677 C 105.290 227.924,104.980 227.137,105.125 239.219 L 105.249 249.600 107.802 249.600 C 111.555 249.600,112.513 250.524,112.729 254.352 L 112.890 257.200 115.271 257.200 C 118.912 257.200,119.200 257.476,119.200 260.965 C 119.200 264.597,119.527 264.930,123.360 265.200 L 126.200 265.400 126.320 268.192 C 126.532 273.108,126.971 272.800,119.766 272.800 C 110.813 272.800,111.150 273.121,111.261 264.705 C 111.357 257.387,111.594 257.856,107.668 257.600 L 104.600 257.400 104.400 254.000 L 104.200 250.600 101.001 250.481 C 96.752 250.324,97.029 251.074,96.800 239.081 L 96.600 228.600 94.000 228.498 C 92.570 228.441,90.995 228.303,90.500 228.190 L 89.600 227.985 89.600 210.382 L 89.600 192.780 90.626 192.390 C 91.190 192.176,92.810 192.000,94.226 192.000 L 96.800 192.000 96.806 181.500 C 96.813 169.192,96.553 169.968,100.707 169.874 C 102.482 169.833,104.085 169.650,104.267 169.467 C 104.570 169.164,104.724 137.645,104.515 119.000 C 104.468 114.820,104.558 109.690,104.715 107.600 L 105.000 103.800 107.400 103.697 C 111.717 103.512,111.600 103.609,111.600 100.215 C 111.600 96.474,112.105 96.000,116.089 96.000 L 118.800 96.000 118.842 94.500 C 118.866 93.675,118.852 92.508,118.813 91.908 C 118.711 90.352,119.129 89.280,119.919 89.072 C 121.346 88.696,132.080 88.815,132.826 89.214 M279.900 89.052 C 280.721 89.272,280.800 89.531,280.800 92.014 C 280.800 95.972,280.822 96.000,283.994 96.000 C 287.407 96.000,287.711 96.338,288.094 100.560 C 289.082 111.430,289.282 116.167,288.813 117.566 C 288.481 118.556,288.264 124.609,288.113 137.100 L 287.893 155.200 291.356 155.200 C 295.708 155.200,295.660 155.106,295.510 163.353 L 295.400 169.400 292.320 169.516 C 288.180 169.673,288.084 169.516,288.030 162.511 C 287.974 155.268,287.878 155.064,284.678 155.406 C 280.668 155.836,281.000 158.546,281.000 125.330 L 281.000 96.385 274.260 96.176 C 266.193 95.927,266.400 95.832,266.400 99.785 C 266.400 103.237,265.960 103.600,261.781 103.600 L 259.200 103.600 259.200 106.976 C 259.200 110.984,259.250 110.934,255.000 111.200 L 251.800 111.400 251.600 115.000 L 251.400 118.600 248.200 118.800 L 245.000 119.000 244.891 121.800 C 244.718 126.238,249.580 125.809,200.267 125.739 C 151.154 125.670,155.914 126.112,156.084 121.638 L 156.200 118.600 199.887 118.498 L 243.574 118.396 244.021 117.560 C 244.269 117.097,244.409 115.536,244.334 114.062 L 244.200 111.400 246.600 111.301 C 247.920 111.247,249.585 111.103,250.300 110.983 L 251.600 110.764 251.600 107.815 C 251.600 103.486,251.491 103.600,255.643 103.600 L 259.200 103.600 259.200 100.574 C 259.200 96.274,259.416 96.000,262.800 96.000 C 266.133 96.000,266.400 95.693,266.400 91.860 C 266.400 90.160,266.572 89.197,266.900 89.065 C 267.617 88.775,278.826 88.764,279.900 89.052 M139.999 112.100 C 139.998 112.861,135.152 112.951,134.170 112.208 C 133.475 111.682,133.723 111.624,136.700 111.613 C 139.081 111.604,140.000 111.739,139.999 112.100 M272.400 111.961 C 271.239 112.612,268.000 112.752,268.000 112.151 C 268.000 111.741,268.638 111.603,270.500 111.612 C 272.066 111.620,272.776 111.750,272.400 111.961 M127.694 120.087 C 127.281 120.944,127.252 120.916,127.227 119.620 C 127.206 118.568,127.311 118.351,127.667 118.707 C 128.012 119.052,128.019 119.412,127.694 120.087 M128.370 125.024 C 128.386 125.256,128.136 125.796,127.813 126.224 C 127.277 126.931,127.227 126.770,127.243 124.400 L 127.261 121.800 127.800 123.200 C 128.097 123.970,128.353 124.791,128.370 125.024 M129.751 131.331 C 130.841 130.879,140.000 131.151,140.000 131.634 C 140.000 131.840,137.198 132.000,133.600 132.000 C 128.113 132.000,127.200 131.912,127.200 131.386 C 127.200 130.884,127.355 130.855,128.051 131.227 C 128.588 131.515,129.214 131.553,129.751 131.331 M192.320 162.880 C 192.598 163.158,192.800 164.493,192.800 166.056 C 192.800 169.225,192.772 169.199,196.581 169.487 C 199.948 169.742,199.985 169.787,199.995 173.620 C 200.002 176.540,199.669 176.800,195.934 176.800 L 192.829 176.800 192.714 180.700 C 192.652 182.845,192.653 187.663,192.717 191.407 L 192.834 198.214 195.852 198.061 C 199.574 197.873,199.642 197.939,200.012 202.077 C 200.424 206.689,200.334 206.800,196.186 206.800 L 192.800 206.800 192.800 210.186 C 192.800 214.586,193.888 214.306,177.679 214.087 C 161.739 213.872,162.800 214.176,162.800 209.814 C 162.800 206.415,162.783 206.400,159.016 206.400 C 156.071 206.400,155.580 206.004,155.869 203.859 C 155.982 203.016,155.960 201.713,155.819 200.963 L 155.564 199.600 152.396 199.600 C 148.194 199.600,148.400 200.226,148.400 187.469 C 148.400 175.348,148.003 176.400,152.579 176.400 L 155.493 176.400 155.692 173.606 C 155.954 169.948,156.279 169.600,159.435 169.600 C 162.500 169.600,162.800 169.233,162.800 165.493 C 162.800 164.085,162.920 162.813,163.067 162.667 C 163.581 162.153,191.798 162.358,192.320 162.880 M273.120 162.880 C 273.404 163.164,273.600 164.531,273.600 166.231 C 273.600 169.721,273.747 169.865,277.523 170.070 C 280.923 170.255,281.332 170.613,281.019 173.139 C 280.610 176.449,280.897 176.800,284.015 176.800 C 288.176 176.800,288.000 176.306,288.000 187.952 C 288.000 199.725,288.148 199.285,284.167 199.353 L 281.400 199.400 281.284 202.464 C 281.141 206.228,281.023 206.335,276.815 206.483 L 273.469 206.600 273.559 209.647 C 273.695 214.241,274.386 213.989,261.471 214.059 C 247.352 214.136,245.536 214.059,244.800 213.349 C 244.136 212.709,243.969 207.638,244.565 206.200 C 246.113 202.465,244.378 199.600,240.570 199.600 C 237.104 199.600,237.200 199.935,237.200 187.875 C 237.200 176.096,236.857 176.962,241.615 176.724 C 243.493 176.629,245.248 176.417,245.515 176.253 C 246.304 175.765,246.140 171.218,245.301 170.291 C 244.375 169.267,244.021 163.286,244.855 162.757 C 245.748 162.192,272.548 162.308,273.120 162.880 M302.706 180.943 L 302.813 192.085 299.590 191.939 C 295.392 191.748,295.613 192.391,295.606 180.367 C 295.599 168.458,295.133 169.800,299.272 169.800 L 302.600 169.800 302.706 180.943 M276.500 178.689 C 275.455 178.819,275.200 179.032,275.200 179.775 C 275.200 180.283,274.930 181.465,274.600 182.400 C 274.150 183.675,274.000 185.940,274.000 191.450 L 274.000 198.800 277.400 198.800 C 279.835 198.800,280.810 198.658,280.834 198.300 C 281.007 195.717,280.659 184.113,280.399 183.799 C 280.213 183.575,279.934 182.269,279.779 180.896 C 279.471 178.175,279.654 178.298,276.500 178.689 M156.604 191.031 C 156.269 199.078,156.168 198.809,159.495 198.739 C 162.520 198.676,162.522 198.668,162.135 190.916 L 161.800 184.200 159.349 184.082 L 156.899 183.964 156.604 191.031 M309.226 192.414 C 309.973 192.814,310.000 193.434,310.000 210.200 C 310.000 230.170,310.406 228.400,305.826 228.400 L 303.200 228.400 303.200 231.174 C 303.200 235.746,303.033 235.946,299.116 236.084 L 295.800 236.200 295.680 238.991 C 295.516 242.796,295.099 243.200,291.338 243.200 L 288.400 243.200 288.400 246.167 C 288.400 250.466,288.456 250.400,284.771 250.400 C 281.149 250.400,280.982 250.253,280.836 246.939 C 280.691 243.665,281.196 243.200,284.896 243.200 L 288.000 243.200 288.000 239.824 C 288.000 235.838,287.971 235.869,292.000 235.600 L 295.000 235.400 295.242 232.400 C 295.603 227.916,295.524 228.000,299.378 228.000 L 302.671 228.000 302.936 216.535 C 303.081 210.229,303.200 202.129,303.200 198.535 L 303.200 192.000 305.826 192.000 C 307.271 192.000,308.801 192.186,309.226 192.414 M268.500 200.273 C 267.671 200.441,267.600 200.674,267.600 203.228 L 267.600 206.000 270.418 206.000 L 273.235 206.000 273.118 203.100 L 273.000 200.200 271.200 200.146 C 270.210 200.116,268.995 200.173,268.500 200.273 M166.600 200.763 L 164.600 201.000 164.398 203.271 L 164.195 205.542 166.898 205.671 L 169.602 205.800 169.601 203.100 C 169.600 201.174,169.457 200.418,169.100 200.463 C 168.825 200.497,167.700 200.632,166.600 200.763 M221.791 221.700 C 221.904 222.195,222.042 223.860,222.098 225.400 L 222.200 228.200 225.600 228.083 C 230.600 227.912,230.897 228.518,229.964 237.000 C 229.332 242.754,229.559 243.200,233.128 243.200 C 236.755 243.200,237.414 243.828,237.027 246.919 C 236.687 249.640,237.009 249.924,240.617 250.080 L 243.400 250.200 243.616 253.600 C 243.909 258.204,244.225 258.000,236.784 258.000 C 228.759 258.000,229.200 258.200,229.200 254.557 L 229.200 251.600 222.849 251.600 C 215.416 251.600,215.367 251.623,215.712 254.972 C 215.990 257.663,215.259 258.099,210.771 257.919 L 207.800 257.800 207.682 255.108 C 207.518 251.362,207.896 250.800,210.581 250.800 C 213.941 250.800,214.000 250.741,214.000 247.386 C 214.000 243.532,214.334 243.200,218.214 243.200 C 222.029 243.200,222.000 243.259,222.000 235.440 C 222.000 228.276,222.067 228.400,218.200 228.400 C 214.797 228.400,214.400 228.052,214.400 225.075 C 214.400 221.329,214.922 220.800,218.615 220.800 C 221.367 220.800,221.600 220.866,221.791 221.700 M243.638 221.670 C 244.621 223.508,244.598 227.416,243.600 228.115 C 242.635 228.791,237.734 228.668,236.300 227.931 C 235.020 227.274,235.313 222.681,236.700 221.646 C 238.349 220.415,242.975 220.432,243.638 221.670 M170.400 234.800 C 170.850 235.091,170.650 235.188,169.600 235.188 C 168.550 235.188,168.350 235.091,168.800 234.800 C 169.130 234.587,169.490 234.412,169.600 234.412 C 169.710 234.412,170.070 234.587,170.400 234.800 M177.400 234.997 C 177.620 235.074,176.540 235.133,175.000 235.129 C 173.316 235.124,172.587 235.012,173.172 234.849 C 174.078 234.596,176.491 234.680,177.400 234.997 M183.600 234.800 C 183.600 235.020,182.745 235.174,181.700 235.143 L 179.800 235.086 181.400 234.800 C 182.280 234.642,183.135 234.488,183.300 234.457 C 183.465 234.426,183.600 234.580,183.600 234.800 M189.900 237.076 C 189.515 237.176,188.885 237.176,188.500 237.076 C 188.115 236.975,188.430 236.893,189.200 236.893 C 189.970 236.893,190.285 236.975,189.900 237.076 M295.228 251.873 C 295.452 252.463,295.583 253.948,295.518 255.173 L 295.400 257.400 292.418 257.519 C 288.654 257.670,288.400 257.889,288.400 260.987 C 288.400 264.699,288.157 264.834,280.705 265.283 C 272.993 265.748,273.600 265.463,273.600 268.614 C 273.600 272.371,273.280 272.801,270.486 272.795 C 266.411 272.785,266.400 272.775,266.400 269.167 C 266.400 265.421,266.631 265.200,270.542 265.200 C 273.546 265.200,273.754 264.877,273.553 260.523 C 273.419 257.644,273.279 257.693,281.700 257.640 L 288.000 257.600 288.000 254.200 L 288.000 250.800 291.410 250.800 C 294.741 250.800,294.829 250.825,295.228 251.873 M140.632 273.377 C 140.991 273.867,141.200 275.156,141.200 276.876 L 141.200 279.600 147.826 279.600 C 156.026 279.600,156.000 279.589,156.000 283.138 C 156.000 287.432,156.089 287.383,148.260 287.392 C 140.500 287.401,140.806 287.569,140.760 283.277 L 140.725 280.000 137.936 280.000 C 133.901 280.000,133.600 279.753,133.600 276.435 C 133.600 273.525,133.889 272.988,135.600 272.720 C 138.034 272.338,140.067 272.603,140.632 273.377 M266.319 275.965 C 266.462 279.545,266.417 279.586,262.300 279.594 L 259.200 279.600 259.200 276.680 C 259.200 272.938,259.408 272.740,263.195 272.885 L 266.200 273.000 266.319 275.965 M259.105 293.986 C 259.228 310.465,259.548 309.276,255.038 309.115 L 251.800 309.000 251.584 298.200 C 251.330 285.525,251.843 287.200,248.214 287.200 C 244.595 287.200,244.308 286.868,244.482 282.892 L 244.600 280.200 251.400 279.990 C 255.140 279.874,258.380 279.799,258.600 279.823 C 258.856 279.851,259.038 284.947,259.105 293.986 M185.120 287.680 C 185.398 287.958,185.600 289.293,185.600 290.856 C 185.600 292.427,185.788 293.669,186.051 293.832 C 186.299 293.985,195.794 294.198,207.151 294.304 C 231.420 294.531,229.670 294.219,229.517 298.297 L 229.400 301.400 207.845 301.504 C 183.480 301.620,185.200 301.869,185.200 298.231 C 185.200 294.656,185.651 294.800,174.451 294.800 C 162.822 294.800,163.200 294.934,163.200 290.818 C 163.200 287.017,162.633 287.200,174.400 287.200 C 181.831 287.200,184.772 287.332,185.120 287.680 M239.500 287.463 L 244.000 287.722 244.000 290.612 C 244.000 294.402,244.174 294.315,236.399 294.442 L 229.800 294.549 229.680 291.783 C 229.457 286.674,229.035 286.860,239.500 287.463 " stroke="none" fill="#e9a016" fill-rule="evenodd"></path><path id="path1" d="M164.234 45.946 C 163.724 46.771,164.510 51.600,165.158 51.618 C 172.252 51.819,189.401 52.028,209.884 52.164 C 239.377 52.359,236.311 52.833,235.810 48.154 L 235.536 45.600 199.992 45.600 C 180.442 45.600,164.351 45.756,164.234 45.946 M142.254 53.711 C 141.696 54.119,141.580 54.704,141.677 56.611 L 141.800 59.000 151.400 59.113 C 163.534 59.255,162.800 59.440,162.800 56.235 C 162.800 54.279,162.653 53.629,162.167 53.443 C 160.844 52.935,142.986 53.176,142.254 53.711 M237.200 56.113 C 237.200 59.760,236.689 59.600,248.298 59.600 L 258.435 59.600 258.318 56.700 L 258.200 53.800 247.700 53.693 L 237.200 53.587 237.200 56.113 M126.973 61.401 C 126.849 62.062,126.805 63.502,126.874 64.601 L 127.000 66.600 133.717 66.710 L 140.434 66.819 140.317 63.710 L 140.200 60.600 133.699 60.400 L 127.197 60.200 126.973 61.401 M259.200 63.372 C 259.200 67.027,258.549 66.702,266.527 67.039 L 273.200 67.320 273.195 64.760 C 273.185 60.283,273.747 60.615,265.978 60.496 L 259.200 60.391 259.200 63.372 M112.882 70.500 L 113.000 73.400 118.200 73.519 C 121.060 73.585,123.985 73.531,124.700 73.401 L 126.000 73.164 126.000 70.382 L 126.000 67.600 119.382 67.600 L 112.765 67.600 112.882 70.500 M274.000 70.400 C 274.000 73.893,273.815 73.799,281.517 74.197 L 287.234 74.492 287.117 71.146 L 287.000 67.800 280.500 67.690 L 274.000 67.580 274.000 70.400 M105.200 78.200 L 105.200 81.200 107.720 81.200 C 110.824 81.200,111.200 80.850,111.200 77.963 C 111.200 75.311,111.055 75.200,107.567 75.200 L 105.200 75.200 105.200 78.200 M288.400 77.973 C 288.400 81.144,288.350 81.101,292.200 81.259 L 294.600 81.357 294.717 78.279 L 294.834 75.200 291.617 75.200 L 288.400 75.200 288.400 77.973 M97.452 82.900 C 97.138 84.071,97.133 86.959,97.443 87.767 C 97.900 88.960,102.560 88.644,103.136 87.381 C 103.849 85.815,103.714 83.427,102.869 82.662 C 101.659 81.567,97.763 81.739,97.452 82.900 M295.900 82.230 C 295.735 82.397,295.600 83.660,295.600 85.038 C 295.600 88.432,296.019 88.800,299.884 88.800 L 302.910 88.800 302.630 85.708 C 302.476 84.008,302.259 82.526,302.148 82.415 C 301.806 82.073,296.219 81.907,295.900 82.230 M119.919 89.072 C 119.129 89.280,118.711 90.352,118.813 91.908 C 118.852 92.508,118.866 93.675,118.842 94.500 L 118.800 96.000 116.089 96.000 C 112.105 96.000,111.600 96.474,111.600 100.215 C 111.600 103.609,111.717 103.512,107.400 103.697 L 105.000 103.800 104.715 107.600 C 104.558 109.690,104.468 114.820,104.515 119.000 C 104.724 137.645,104.570 169.164,104.267 169.467 C 104.085 169.650,102.482 169.833,100.707 169.874 C 96.553 169.968,96.813 169.192,96.806 181.500 L 96.800 192.000 94.226 192.000 C 92.810 192.000,91.190 192.176,90.626 192.390 L 89.600 192.780 89.600 210.382 L 89.600 227.985 90.500 228.190 C 90.995 228.303,92.570 228.441,94.000 228.498 L 96.600 228.600 96.800 239.081 C 97.029 251.074,96.752 250.324,101.001 250.481 L 104.200 250.600 104.400 254.000 L 104.600 257.400 107.668 257.600 C 111.594 257.856,111.357 257.387,111.261 264.705 C 111.150 273.121,110.813 272.800,119.766 272.800 C 126.971 272.800,126.532 273.108,126.320 268.192 L 126.200 265.400 123.360 265.200 C 119.527 264.930,119.200 264.597,119.200 260.965 C 119.200 257.476,118.912 257.200,115.271 257.200 L 112.890 257.200 112.729 254.352 C 112.513 250.524,111.555 249.600,107.802 249.600 L 105.249 249.600 105.125 239.219 C 104.980 227.137,105.290 227.924,100.572 227.677 L 97.127 227.496 97.263 210.048 L 97.400 192.600 100.973 192.400 C 105.445 192.150,105.208 192.822,105.170 180.509 C 105.137 169.760,104.955 170.400,108.043 170.400 C 110.081 170.400,110.576 170.252,111.360 169.405 L 112.283 168.410 112.085 136.884 C 111.857 100.649,111.545 103.600,115.606 103.600 C 118.815 103.600,118.727 103.724,118.898 99.000 L 119.000 96.200 125.508 96.090 C 133.631 95.953,133.600 95.939,133.600 99.591 C 133.600 103.101,134.159 103.600,138.089 103.600 L 140.800 103.600 140.800 107.010 C 140.800 111.039,140.984 111.200,145.610 111.200 L 148.369 111.200 148.484 114.700 L 148.600 118.200 152.000 118.200 L 155.400 118.200 155.400 114.800 L 155.400 111.400 152.000 111.200 L 148.600 111.000 148.502 109.000 C 148.448 107.900,148.302 106.235,148.177 105.300 L 147.951 103.600 145.008 103.600 C 140.791 103.600,140.800 103.607,140.800 100.331 C 140.800 96.309,140.548 96.000,137.266 96.000 C 133.875 96.000,133.600 95.725,133.600 92.334 C 133.600 90.068,133.474 89.561,132.826 89.214 C 132.080 88.815,121.346 88.696,119.919 89.072 M266.900 89.065 C 266.572 89.197,266.400 90.160,266.400 91.860 C 266.400 95.693,266.133 96.000,262.800 96.000 C 259.416 96.000,259.200 96.274,259.200 100.574 L 259.200 103.600 255.643 103.600 C 251.491 103.600,251.600 103.486,251.600 107.815 L 251.600 110.764 250.300 110.983 C 249.585 111.103,247.920 111.247,246.600 111.301 L 244.200 111.400 244.334 114.062 C 244.409 115.536,244.269 117.097,244.021 117.560 L 243.574 118.396 199.887 118.498 L 156.200 118.600 156.084 121.638 C 155.914 126.112,151.154 125.670,200.267 125.739 C 249.580 125.809,244.718 126.238,244.891 121.800 L 245.000 119.000 248.200 118.800 L 251.400 118.600 251.600 115.000 L 251.800 111.400 255.000 111.200 C 259.250 110.934,259.200 110.984,259.200 106.976 L 259.200 103.600 261.924 103.600 C 265.765 103.600,266.200 103.195,266.200 99.617 C 266.200 95.876,266.016 95.955,274.200 96.186 L 281.000 96.379 281.325 101.889 C 281.646 107.322,281.447 130.303,280.946 145.686 C 280.623 155.622,280.703 155.832,284.635 155.411 C 287.867 155.065,287.875 155.082,288.113 162.736 C 288.330 169.716,288.301 169.670,292.362 169.516 L 295.400 169.400 295.510 163.353 C 295.660 155.106,295.708 155.200,291.356 155.200 L 287.893 155.200 288.113 137.100 C 288.264 124.609,288.481 118.556,288.813 117.566 C 289.282 116.167,289.082 111.430,288.094 100.560 C 287.711 96.338,287.407 96.000,283.994 96.000 C 280.822 96.000,280.800 95.972,280.800 92.014 C 280.800 89.531,280.721 89.272,279.900 89.052 C 278.826 88.764,267.617 88.775,266.900 89.065 M303.479 89.454 C 303.088 89.845,303.141 94.888,303.543 95.521 C 303.772 95.882,304.656 96.005,306.436 95.921 L 309.000 95.800 309.117 92.700 L 309.234 89.600 307.050 89.600 C 305.848 89.600,304.616 89.504,304.312 89.388 C 304.007 89.271,303.633 89.301,303.479 89.454 M89.736 90.222 C 89.440 90.995,89.888 94.448,90.343 94.903 C 90.528 95.088,91.921 95.185,93.440 95.120 L 96.200 95.000 96.318 92.300 L 96.437 89.600 93.206 89.600 C 90.652 89.600,89.925 89.730,89.736 90.222 M84.100 97.082 C 83.270 97.242,83.200 97.471,83.200 100.028 L 83.200 102.800 86.000 102.800 L 88.800 102.800 88.800 100.050 L 88.800 97.300 87.550 97.050 C 86.242 96.788,85.594 96.794,84.100 97.082 M311.100 97.067 C 310.529 97.223,310.400 97.717,310.400 99.749 C 310.400 102.908,310.713 103.200,314.097 103.200 L 316.834 103.200 316.717 100.100 L 316.600 97.000 314.200 96.938 C 312.880 96.904,311.485 96.962,311.100 97.067 M75.599 110.862 L 75.600 117.924 78.100 117.710 C 81.977 117.379,82.000 117.335,82.000 110.168 L 82.000 104.061 78.799 103.930 L 75.598 103.800 75.599 110.862 M317.823 104.500 C 317.302 106.214,317.241 107.538,317.471 112.135 C 317.780 118.329,317.827 118.400,321.629 118.400 L 324.400 118.400 324.400 112.254 C 324.400 104.554,324.129 104.000,320.358 104.000 C 318.799 104.000,317.922 104.173,317.823 104.500 M68.667 119.467 C 68.204 119.929,68.378 124.218,68.880 124.720 C 69.150 124.990,70.444 125.200,71.837 125.200 C 74.713 125.200,74.800 125.094,74.800 121.567 L 74.800 119.200 71.867 119.200 C 70.253 119.200,68.813 119.320,68.667 119.467 M324.800 121.557 C 324.800 125.648,325.086 126.000,328.406 126.000 L 331.232 126.000 331.116 122.700 L 331.000 119.400 327.900 119.283 L 324.800 119.166 324.800 121.557 M61.483 127.050 C 61.138 127.395,61.102 138.479,61.443 139.367 C 61.626 139.846,62.263 140.000,64.053 140.000 C 67.111 140.000,67.257 139.639,67.111 132.445 L 67.000 127.000 64.383 126.884 C 62.944 126.820,61.639 126.895,61.483 127.050 M332.400 132.557 C 332.400 140.334,332.430 140.400,336.000 140.400 L 338.819 140.400 338.710 133.700 L 338.600 127.000 335.500 126.883 L 332.400 126.766 332.400 132.557 M53.867 141.067 C 53.720 141.213,53.600 145.991,53.600 151.683 L 53.600 162.034 56.700 161.917 L 59.800 161.800 59.647 151.600 C 59.543 144.691,59.349 141.305,59.047 141.106 C 58.487 140.738,54.228 140.706,53.867 141.067 M339.341 151.255 C 339.652 163.378,339.224 162.159,343.238 162.341 L 346.413 162.485 346.307 151.743 L 346.200 141.000 342.636 140.883 L 339.071 140.767 339.341 151.255 M46.800 163.049 C 45.713 163.360,45.912 241.578,47.000 241.792 C 47.440 241.879,48.861 242.041,50.157 242.152 C 53.537 242.442,53.387 241.942,53.498 253.320 C 53.616 265.352,53.286 264.248,56.871 264.602 C 61.476 265.057,61.200 264.559,61.200 272.414 L 61.200 279.200 63.924 279.200 C 68.258 279.200,68.222 279.135,68.081 286.748 L 67.961 293.157 69.281 293.379 C 70.006 293.501,71.590 293.645,72.800 293.700 L 75.000 293.800 75.099 296.200 C 75.153 297.520,75.297 299.185,75.417 299.900 L 75.636 301.200 78.542 301.200 C 82.299 301.200,82.783 301.566,83.045 304.609 C 83.426 309.042,83.224 308.800,86.528 308.800 C 90.094 308.800,90.400 309.069,90.400 312.200 C 90.400 315.295,90.728 315.600,94.053 315.600 C 97.233 315.600,97.346 315.756,97.379 320.200 L 97.400 323.000 100.200 323.102 C 104.870 323.271,104.669 323.111,104.884 326.831 C 105.102 330.598,105.378 330.925,108.096 330.638 C 111.659 330.263,112.400 330.834,112.400 333.959 C 112.400 337.659,112.283 337.600,119.656 337.600 C 126.950 337.600,126.522 337.348,126.800 341.800 L 127.000 345.000 134.000 345.200 L 141.000 345.400 141.248 348.745 C 141.568 353.044,140.834 352.787,152.820 352.794 C 164.452 352.801,164.000 352.667,164.000 356.106 C 164.000 360.453,159.811 360.000,200.000 360.000 C 240.189 360.000,236.000 360.453,236.000 356.106 C 236.000 352.671,235.570 352.801,246.980 352.795 C 259.784 352.788,258.743 353.132,258.885 348.857 L 259.000 345.400 266.000 345.200 L 273.000 345.000 273.102 342.200 C 273.272 337.506,273.208 337.600,276.234 337.600 C 280.029 337.600,280.400 337.303,280.400 334.266 C 280.400 330.747,280.282 330.800,288.080 330.800 L 294.800 330.800 294.840 328.100 C 294.910 323.382,294.867 323.432,299.004 323.200 L 302.575 323.000 302.666 319.641 C 302.776 315.593,302.709 315.670,306.200 315.520 L 309.000 315.400 309.200 312.485 C 309.441 308.973,309.626 308.814,313.492 308.806 C 316.792 308.799,316.646 308.983,316.905 304.508 C 317.088 301.367,316.996 301.438,321.132 301.200 L 324.600 301.000 324.800 297.400 L 325.000 293.800 327.200 293.700 C 328.410 293.645,330.001 293.499,330.735 293.376 L 332.069 293.151 331.781 286.586 L 331.494 280.021 332.573 279.610 C 333.167 279.385,334.810 279.200,336.226 279.200 L 338.800 279.200 338.800 272.424 C 338.800 264.614,338.536 265.107,342.895 264.777 C 346.805 264.481,346.394 265.745,346.504 253.682 C 346.615 241.601,346.344 242.340,350.749 242.085 L 353.927 241.901 353.872 202.552 L 353.816 163.202 352.608 162.976 C 351.944 162.852,350.418 162.806,349.217 162.875 L 347.034 163.000 346.913 199.000 C 346.846 218.800,346.709 235.225,346.608 235.500 C 346.486 235.834,345.505 236.000,343.645 236.000 C 339.228 236.000,339.600 235.006,339.600 246.819 C 339.600 258.624,339.926 257.712,335.600 258.000 L 332.600 258.200 332.489 264.572 C 332.359 272.113,332.455 271.933,328.464 272.084 L 325.400 272.200 325.200 279.200 C 324.963 287.492,325.089 287.200,321.750 287.200 C 317.967 287.200,317.600 287.496,317.600 290.552 C 317.600 293.845,317.035 294.400,313.683 294.400 C 310.735 294.400,310.400 294.800,310.400 298.325 C 310.400 301.298,310.121 301.531,306.382 301.681 L 303.400 301.800 303.301 304.200 C 303.247 305.520,303.105 307.178,302.986 307.885 L 302.770 309.169 299.285 309.285 L 295.800 309.400 295.694 312.000 C 295.509 316.527,295.726 316.400,288.175 316.400 C 280.769 316.400,281.204 316.168,281.194 320.133 C 281.186 323.488,281.120 323.546,277.187 323.682 L 273.800 323.800 273.600 327.400 L 273.400 331.000 266.629 331.110 C 258.713 331.239,258.732 331.230,259.059 334.363 C 259.448 338.084,259.703 338.000,248.041 338.000 C 236.290 338.000,236.400 337.960,236.400 342.246 C 236.400 345.907,239.726 345.602,200.020 345.587 C 159.689 345.573,163.200 345.923,163.200 341.918 C 163.200 337.875,163.562 338.000,151.897 338.000 C 140.321 338.000,140.610 338.097,140.883 334.316 C 141.109 331.198,141.202 331.237,133.371 331.110 L 126.600 331.000 126.400 327.732 C 126.145 323.568,126.616 323.833,119.068 323.600 C 111.415 323.363,111.600 323.444,111.600 320.350 C 111.600 316.781,111.277 316.400,108.248 316.400 C 104.909 316.400,104.400 315.856,104.400 312.287 L 104.400 309.636 103.100 309.417 C 102.385 309.297,100.720 309.153,99.400 309.099 L 97.000 309.000 96.800 305.400 L 96.600 301.800 94.000 301.698 C 89.574 301.524,89.600 301.541,89.600 298.811 C 89.600 295.055,89.128 294.400,86.425 294.400 C 83.057 294.400,82.400 293.774,82.400 290.567 C 82.400 287.522,81.979 287.200,77.998 287.200 C 74.948 287.200,75.035 287.417,74.800 279.200 L 74.600 272.200 72.000 272.098 C 67.195 271.909,67.600 272.560,67.600 265.016 C 67.600 257.542,67.706 257.771,64.318 257.936 C 60.339 258.131,60.561 258.734,60.288 246.959 C 60.019 235.339,60.247 236.019,56.600 236.000 C 55.280 235.993,53.942 235.824,53.626 235.624 C 53.136 235.315,53.018 229.920,52.826 199.130 L 52.600 163.000 50.000 162.938 C 48.570 162.904,47.130 162.954,46.800 163.049 M163.072 163.062 C 162.922 163.211,162.800 164.743,162.800 166.467 L 162.800 169.600 159.849 169.600 C 156.232 169.600,155.960 169.861,155.692 173.606 L 155.493 176.400 152.579 176.400 C 148.003 176.400,148.400 175.348,148.400 187.469 C 148.400 200.226,148.194 199.600,152.396 199.600 L 155.564 199.600 155.819 200.963 C 155.960 201.713,155.982 203.016,155.869 203.859 C 155.580 206.004,156.071 206.400,159.016 206.400 C 162.783 206.400,162.800 206.415,162.800 209.814 C 162.800 214.176,161.739 213.872,177.679 214.087 C 193.888 214.306,192.800 214.586,192.800 210.186 L 192.800 206.800 196.180 206.800 C 200.170 206.800,200.421 206.573,200.137 203.217 C 199.764 198.802,200.058 199.080,195.980 199.275 L 192.400 199.446 192.400 192.403 C 192.400 184.164,192.513 184.402,188.620 184.394 C 184.748 184.385,184.661 184.298,184.411 180.121 L 184.200 176.600 177.557 176.491 C 169.731 176.362,169.967 176.238,169.686 180.614 L 169.495 183.600 167.121 183.600 C 163.064 183.600,163.200 183.322,163.200 191.600 C 163.200 199.946,163.133 199.817,167.293 199.516 C 170.078 199.314,170.400 199.712,170.400 203.346 C 170.400 206.060,169.999 206.401,166.820 206.394 C 163.321 206.386,163.257 206.320,163.118 202.588 L 163.000 199.400 159.600 199.200 L 156.200 199.000 156.200 188.000 L 156.200 177.000 158.600 176.897 C 162.904 176.712,162.752 176.846,162.884 173.140 L 163.000 169.888 167.000 170.012 C 171.943 170.167,171.478 170.173,182.503 169.791 C 192.948 169.429,192.488 169.618,192.319 165.736 L 192.200 163.000 177.772 162.895 C 169.836 162.837,163.221 162.912,163.072 163.062 M244.400 165.538 C 244.400 169.473,244.342 169.444,252.800 169.752 C 256.650 169.892,262.815 170.123,266.500 170.264 L 273.200 170.522 273.200 173.247 C 273.200 176.597,273.472 176.800,277.951 176.800 L 281.155 176.800 281.179 187.682 C 281.207 199.984,280.968 199.111,284.353 199.244 C 288.109 199.391,288.000 199.729,288.000 187.952 C 288.000 176.306,288.176 176.800,284.015 176.800 C 280.897 176.800,280.610 176.449,281.019 173.139 C 281.343 170.518,280.959 170.222,277.015 170.059 L 273.600 169.918 273.600 166.839 C 273.600 162.486,274.772 162.800,258.520 162.800 L 244.400 162.800 244.400 165.538 M295.772 169.967 C 295.418 170.310,295.626 190.622,295.989 191.196 C 296.258 191.621,297.291 191.835,299.590 191.939 L 302.813 192.085 302.706 180.943 L 302.600 169.800 299.272 169.800 C 297.441 169.800,295.866 169.875,295.772 169.967 M192.880 170.480 C 192.609 170.751,192.400 172.052,192.400 173.472 C 192.400 176.430,192.534 176.513,197.008 176.320 L 199.800 176.200 199.920 173.910 C 200.104 170.389,199.740 170.000,196.266 170.000 C 194.539 170.000,193.165 170.195,192.880 170.480 M251.594 177.416 C 251.377 177.986,251.200 179.700,251.200 181.226 L 251.200 184.000 248.424 184.000 C 245.166 184.000,245.166 184.001,245.019 180.340 C 244.880 176.900,244.713 176.764,240.800 176.897 L 237.800 177.000 237.693 187.973 C 237.635 194.009,237.726 199.086,237.897 199.257 C 238.068 199.428,241.117 199.692,244.673 199.844 L 251.139 200.120 251.270 202.869 C 251.443 206.517,251.542 206.399,248.267 206.406 C 244.383 206.414,244.200 206.575,244.200 209.971 C 244.200 214.412,243.133 214.159,261.471 214.059 C 274.071 213.991,273.600 214.133,273.600 210.404 C 273.600 206.927,273.499 206.800,270.731 206.800 C 267.083 206.800,266.800 206.527,266.800 203.010 C 266.800 199.511,266.842 199.468,270.600 199.200 L 273.400 199.000 273.400 192.000 L 273.400 185.000 270.227 184.712 C 266.146 184.343,265.886 184.071,265.615 179.900 L 265.400 176.600 258.694 176.490 L 251.988 176.381 251.594 177.416 M303.200 198.535 C 303.200 202.129,303.081 210.229,302.936 216.535 L 302.671 228.000 299.343 228.000 C 295.455 228.000,295.480 227.969,295.680 232.608 L 295.800 235.400 299.249 235.515 C 303.262 235.648,303.185 235.734,303.195 231.100 L 303.200 228.400 305.826 228.400 C 310.406 228.400,310.000 230.170,310.000 210.200 C 310.000 190.230,310.406 192.000,305.826 192.000 L 303.200 192.000 303.200 198.535 M274.484 199.476 C 273.608 199.652,273.574 199.800,273.684 202.930 L 273.800 206.200 277.038 206.315 C 281.124 206.460,281.306 206.281,280.950 202.450 L 280.685 199.600 278.843 199.595 C 277.829 199.592,276.640 199.522,276.200 199.441 C 275.760 199.359,274.988 199.375,274.484 199.476 M192.150 200.850 C 193.064 205.418,192.450 206.471,188.964 206.320 L 186.200 206.200 186.081 203.464 C 185.928 199.942,186.221 199.600,189.399 199.600 C 191.880 199.600,191.902 199.610,192.150 200.850 M215.614 221.574 C 215.386 221.999,215.200 223.510,215.200 224.931 C 215.200 227.966,215.244 228.000,219.233 228.000 L 222.000 228.000 222.000 225.033 C 222.000 220.795,222.004 220.800,218.771 220.800 C 216.469 220.800,215.962 220.924,215.614 221.574 M236.700 221.646 C 235.701 222.392,235.600 222.700,235.600 225.019 C 235.600 228.165,235.841 228.323,240.200 228.021 L 243.400 227.800 243.521 225.212 C 243.723 220.918,243.640 220.798,240.492 220.813 C 238.415 220.822,237.549 221.013,236.700 221.646 M223.300 228.282 C 222.409 228.454,222.400 228.522,222.400 235.254 C 222.400 243.679,222.434 243.600,218.760 243.600 C 214.633 243.600,214.240 243.913,214.551 246.950 C 214.917 250.527,214.354 251.200,210.991 251.200 C 207.981 251.200,207.600 251.598,207.600 254.741 C 207.600 257.925,207.679 258.000,211.024 258.000 C 215.397 258.000,215.985 257.618,215.711 254.959 C 215.367 251.625,215.421 251.600,222.849 251.600 L 229.200 251.600 229.200 254.592 C 229.200 258.252,228.763 258.070,237.200 257.914 L 243.400 257.800 243.400 254.200 L 243.400 250.600 240.418 250.481 C 236.658 250.331,236.400 250.109,236.400 247.031 C 236.400 245.642,236.190 244.350,235.920 244.080 C 235.650 243.810,234.358 243.600,232.969 243.600 C 229.663 243.600,229.479 243.330,229.782 238.923 C 230.288 231.579,230.240 228.796,229.600 228.391 C 229.006 228.016,225.038 227.948,223.300 228.282 M288.700 236.276 C 288.103 236.432,288.000 236.956,288.000 239.829 L 288.000 243.200 284.847 243.200 C 281.255 243.200,281.210 243.247,281.212 247.000 C 281.213 249.930,281.376 250.054,285.035 249.918 L 288.200 249.800 288.316 246.500 L 288.432 243.200 291.336 243.200 C 295.014 243.200,295.200 243.004,295.200 239.120 L 295.200 236.000 292.300 236.046 C 290.705 236.072,289.085 236.175,288.700 236.276 M288.968 251.340 C 288.854 251.637,288.815 253.122,288.880 254.640 L 289.000 257.400 292.200 257.400 L 295.400 257.400 295.518 255.173 C 295.723 251.299,295.321 250.800,291.997 250.800 C 289.998 250.800,289.115 250.957,288.968 251.340 M273.741 258.609 C 273.609 258.954,273.610 260.443,273.743 261.918 C 273.877 263.393,273.989 264.747,273.993 264.926 C 274.005 265.494,286.691 265.069,287.280 264.480 C 287.610 264.151,287.800 262.910,287.800 261.080 L 287.800 258.200 280.891 258.091 C 274.917 257.996,273.950 258.066,273.741 258.609 M267.100 266.032 C 266.540 266.358,266.400 266.993,266.400 269.206 C 266.400 272.552,266.802 272.896,270.509 272.719 L 273.000 272.600 273.116 269.100 L 273.231 265.600 270.516 265.612 C 269.022 265.619,267.485 265.808,267.100 266.032 M259.623 273.557 C 259.390 273.992,259.200 275.529,259.200 276.974 L 259.200 279.600 262.300 279.594 C 266.417 279.586,266.462 279.545,266.319 275.965 L 266.200 273.000 263.123 272.884 C 260.401 272.781,259.997 272.858,259.623 273.557 M134.480 273.680 C 134.202 273.958,134.000 275.288,134.000 276.837 C 134.000 279.974,134.032 280.000,137.995 280.000 L 140.725 280.000 140.760 283.277 C 140.806 287.569,140.500 287.401,148.260 287.392 C 156.089 287.383,156.000 287.432,156.000 283.138 C 156.000 279.589,156.026 279.600,147.826 279.600 L 141.200 279.600 141.200 277.033 C 141.200 273.219,141.183 273.200,137.837 273.200 C 136.133 273.200,134.764 273.396,134.480 273.680 M244.667 280.267 C 244.242 280.692,244.358 285.575,244.814 286.426 C 245.166 287.084,245.671 287.200,248.171 287.200 C 251.871 287.200,251.600 286.298,251.600 298.590 C 251.600 306.341,251.717 308.750,252.100 308.868 C 252.375 308.952,253.968 308.958,255.639 308.881 L 258.679 308.741 258.939 303.307 C 259.083 300.319,259.200 293.852,259.200 288.937 L 259.200 280.000 252.067 280.000 C 248.143 280.000,244.813 280.120,244.667 280.267 M168.000 287.479 C 163.556 287.693,163.600 287.665,163.600 290.382 C 163.600 291.683,163.776 293.210,163.990 293.774 L 164.380 294.800 174.310 294.800 C 185.667 294.800,185.200 294.653,185.200 298.231 C 185.200 301.869,183.480 301.620,207.845 301.504 L 229.400 301.400 229.400 298.207 L 229.400 295.014 227.800 294.735 C 226.920 294.582,220.440 294.429,213.400 294.394 C 195.112 294.303,186.521 294.122,186.029 293.818 C 185.792 293.672,185.600 292.343,185.600 290.856 C 185.600 289.293,185.398 287.958,185.120 287.680 C 184.664 287.224,175.525 287.117,168.000 287.479 M230.078 287.706 C 229.732 288.123,229.603 289.337,229.682 291.437 L 229.800 294.549 236.399 294.441 C 244.189 294.315,244.000 294.411,244.000 290.551 L 244.000 287.600 242.063 287.600 C 240.997 287.600,237.980 287.485,235.359 287.344 C 231.332 287.127,230.512 287.183,230.078 287.706 " stroke="none" fill="#5c2b0d" fill-rule="evenodd"></path><path id="path2" d="M0.000 200.000 L 0.000 400.000 200.000 400.000 L 400.000 400.000 400.000 200.000 L 400.000 0.000 200.000 0.000 L 0.000 0.000 0.000 200.000 M236.052 44.662 C 237.372 45.301,237.600 45.902,237.600 48.753 C 237.600 52.114,237.227 52.000,248.236 52.000 C 259.862 52.000,259.523 51.876,259.691 56.200 L 259.800 59.000 266.371 59.110 C 274.124 59.240,274.000 59.180,274.000 62.835 C 274.000 66.358,273.976 66.347,281.801 66.669 C 288.830 66.960,288.523 66.796,288.800 70.400 L 289.000 73.000 291.800 73.109 C 295.517 73.254,296.000 73.798,296.000 77.844 L 296.000 80.800 299.171 80.800 C 303.300 80.800,303.600 81.087,303.600 85.029 L 303.600 88.000 305.940 88.000 C 310.489 88.000,311.096 88.544,311.296 92.800 L 311.400 95.000 314.295 95.117 C 317.793 95.259,318.147 95.678,318.041 99.545 C 317.955 102.649,318.106 102.786,321.620 102.794 C 325.046 102.802,325.199 102.998,325.202 107.380 C 325.204 109.371,325.320 112.485,325.462 114.300 L 325.719 117.600 328.415 117.600 C 332.172 117.600,332.749 118.141,332.891 121.800 L 333.000 124.600 335.853 124.717 C 340.066 124.889,340.168 125.062,340.331 132.337 C 340.484 139.182,340.494 139.200,343.787 139.200 C 347.702 139.200,347.568 138.787,347.693 151.224 L 347.800 161.800 351.116 162.000 C 353.460 162.141,354.542 162.376,354.810 162.800 C 355.040 163.166,355.190 178.750,355.194 202.811 C 355.201 248.166,355.597 243.996,351.277 244.006 C 347.243 244.015,347.501 243.252,347.660 254.727 C 347.823 266.398,348.064 265.716,343.681 266.000 L 340.600 266.200 340.732 272.657 C 340.885 280.167,341.138 279.716,336.600 280.000 L 333.400 280.200 333.176 287.200 C 333.053 291.050,332.918 294.227,332.876 294.261 C 332.302 294.721,329.784 295.200,327.940 295.200 L 325.600 295.200 325.600 298.111 C 325.600 302.184,325.108 302.800,321.857 302.800 C 318.816 302.800,318.400 303.165,318.400 305.836 C 318.400 308.905,317.692 309.555,314.200 309.691 L 311.400 309.800 311.200 312.660 C 310.926 316.576,310.380 317.131,306.653 317.283 L 303.800 317.400 303.600 320.400 C 303.340 324.296,303.255 324.399,300.276 324.405 C 296.030 324.415,296.000 324.438,296.000 327.798 C 296.000 331.644,296.168 331.559,288.371 331.690 L 281.800 331.800 281.600 335.068 C 281.355 339.068,281.468 338.955,277.468 339.200 L 274.200 339.400 274.000 342.400 C 273.718 346.634,274.149 346.400,266.623 346.400 C 259.110 346.400,259.616 346.090,259.605 350.700 C 259.602 352.075,259.555 353.238,259.500 353.284 C 259.445 353.330,254.540 353.465,248.600 353.584 L 237.800 353.800 237.681 356.790 C 237.484 361.707,241.806 361.201,200.038 361.194 C 177.971 361.190,163.565 361.040,163.200 360.810 C 162.776 360.542,162.541 359.460,162.400 357.116 L 162.200 353.800 151.400 353.584 C 145.460 353.465,140.555 353.330,140.500 353.284 C 140.445 353.238,140.398 352.075,140.395 350.700 C 140.384 346.092,140.886 346.400,133.402 346.400 C 125.893 346.400,126.192 346.549,125.894 342.650 C 125.626 339.144,125.775 339.213,118.562 339.206 C 111.227 339.199,111.113 339.132,110.800 334.660 L 110.600 331.800 107.735 331.683 C 104.329 331.544,104.028 331.278,103.721 328.128 C 103.419 325.028,102.942 324.566,99.733 324.267 C 96.466 323.962,96.641 324.161,96.400 320.468 L 96.200 317.400 93.313 317.200 C 89.529 316.938,89.062 316.471,88.800 312.687 L 88.600 309.800 85.800 309.691 C 82.407 309.559,81.600 308.874,81.600 306.129 C 81.600 303.212,81.181 302.800,78.209 302.800 C 74.884 302.800,74.400 302.204,74.400 298.111 L 74.400 295.200 71.400 295.200 C 66.824 295.200,66.800 295.157,66.800 287.047 C 66.800 279.541,67.073 280.016,62.749 280.005 C 59.660 279.998,59.638 279.948,59.511 272.572 L 59.400 266.200 57.000 266.097 C 51.821 265.875,51.947 266.194,52.185 253.904 L 52.369 244.407 51.484 244.229 C 50.998 244.131,49.621 243.954,48.424 243.836 C 44.666 243.463,45.013 247.494,44.903 202.886 C 44.842 178.352,44.950 163.173,45.187 162.800 C 45.461 162.370,46.563 162.143,49.084 162.000 L 52.600 161.800 52.800 150.919 C 53.027 138.592,52.804 139.284,56.600 139.120 L 59.400 139.000 59.600 132.980 C 59.860 125.148,60.048 124.800,64.009 124.800 L 66.800 124.800 66.800 122.076 C 66.800 118.206,67.158 117.844,71.164 117.662 L 74.400 117.515 74.400 111.184 C 74.400 102.913,74.445 102.800,77.757 102.800 C 81.488 102.800,81.600 102.718,81.600 99.976 C 81.600 95.869,82.157 95.304,86.400 95.104 L 88.600 95.000 88.713 92.000 C 88.854 88.241,89.129 88.000,93.276 88.000 L 96.400 88.000 96.400 84.849 C 96.400 81.013,96.535 80.874,100.418 80.719 L 103.400 80.600 103.522 78.003 C 103.690 74.402,104.468 73.600,107.790 73.600 C 110.860 73.600,111.200 73.255,111.200 70.143 C 111.200 66.542,111.488 66.400,118.809 66.400 C 125.479 66.400,125.582 66.355,125.640 63.420 C 125.662 62.309,125.805 60.950,125.957 60.400 L 126.235 59.400 133.217 59.200 L 140.200 59.000 140.316 55.936 C 140.480 51.609,139.871 51.836,151.961 51.600 L 162.200 51.400 162.318 48.483 C 162.518 43.529,158.870 43.957,200.000 44.063 C 227.352 44.133,235.230 44.264,236.052 44.662 M186.400 180.018 L 186.400 182.837 189.100 182.718 L 191.800 182.600 191.926 180.832 C 192.166 177.478,191.941 177.200,188.992 177.200 L 186.400 177.200 186.400 180.018 M267.884 178.250 C 267.728 178.406,267.600 179.487,267.600 180.653 C 267.600 183.179,268.114 183.600,271.192 183.600 L 273.237 183.600 273.118 180.900 L 273.000 178.200 270.584 178.083 C 269.255 178.019,268.040 178.094,267.884 178.250 " stroke="none" fill="#fbfbfb" fill-rule="evenodd"></path><path id="path3" d="M163.718 44.770 C 162.488 45.534,162.431 45.685,162.318 48.483 L 162.200 51.400 151.961 51.600 C 139.871 51.836,140.480 51.609,140.316 55.936 L 140.200 59.000 133.217 59.200 L 126.235 59.400 125.957 60.400 C 125.805 60.950,125.662 62.309,125.640 63.420 C 125.582 66.355,125.479 66.400,118.809 66.400 C 111.488 66.400,111.200 66.542,111.200 70.143 C 111.200 73.255,110.860 73.600,107.790 73.600 C 104.468 73.600,103.690 74.402,103.522 78.003 L 103.400 80.600 100.418 80.719 C 96.535 80.874,96.400 81.013,96.400 84.849 L 96.400 88.000 93.276 88.000 C 89.129 88.000,88.854 88.241,88.713 92.000 L 88.600 95.000 86.400 95.104 C 82.157 95.304,81.600 95.869,81.600 99.976 C 81.600 102.718,81.488 102.800,77.757 102.800 C 74.445 102.800,74.400 102.913,74.400 111.184 L 74.400 117.515 71.164 117.662 C 67.158 117.844,66.800 118.206,66.800 122.076 L 66.800 124.800 64.009 124.800 C 60.048 124.800,59.860 125.148,59.600 132.980 L 59.400 139.000 56.600 139.120 C 52.804 139.284,53.027 138.592,52.800 150.919 L 52.600 161.800 49.084 162.000 C 46.563 162.143,45.461 162.370,45.187 162.800 C 44.950 163.173,44.842 178.352,44.903 202.886 C 45.013 247.494,44.666 243.463,48.424 243.836 C 49.621 243.954,50.998 244.131,51.484 244.229 L 52.369 244.407 52.185 253.904 C 51.947 266.194,51.821 265.875,57.000 266.097 L 59.400 266.200 59.511 272.572 C 59.638 279.948,59.660 279.998,62.749 280.005 C 67.073 280.016,66.800 279.541,66.800 287.047 C 66.800 295.157,66.824 295.200,71.400 295.200 L 74.400 295.200 74.400 298.111 C 74.400 302.204,74.884 302.800,78.209 302.800 C 81.181 302.800,81.600 303.212,81.600 306.129 C 81.600 308.874,82.407 309.559,85.800 309.691 L 88.600 309.800 88.800 312.687 C 89.062 316.471,89.529 316.938,93.313 317.200 L 96.200 317.400 96.400 320.468 C 96.641 324.161,96.466 323.962,99.733 324.267 C 102.942 324.566,103.419 325.028,103.721 328.128 C 104.028 331.278,104.329 331.544,107.735 331.683 L 110.600 331.800 110.800 334.660 C 111.113 339.132,111.227 339.199,118.562 339.206 C 125.775 339.213,125.626 339.144,125.894 342.650 C 126.192 346.549,125.893 346.400,133.402 346.400 C 140.886 346.400,140.384 346.092,140.395 350.700 C 140.398 352.075,140.445 353.238,140.500 353.284 C 140.555 353.330,145.460 353.465,151.400 353.584 L 162.200 353.800 162.400 357.116 C 162.541 359.460,162.776 360.542,163.200 360.810 C 163.565 361.040,177.971 361.190,200.038 361.194 C 241.806 361.201,237.484 361.707,237.681 356.790 L 237.800 353.800 248.600 353.584 C 254.540 353.465,259.445 353.330,259.500 353.284 C 259.555 353.238,259.602 352.075,259.605 350.700 C 259.616 346.090,259.110 346.400,266.623 346.400 C 274.149 346.400,273.718 346.634,274.000 342.400 L 274.200 339.400 277.468 339.200 C 281.468 338.955,281.355 339.068,281.600 335.068 L 281.800 331.800 288.371 331.690 C 296.168 331.559,296.000 331.644,296.000 327.798 C 296.000 324.438,296.030 324.415,300.276 324.405 C 303.255 324.399,303.340 324.296,303.600 320.400 L 303.800 317.400 306.653 317.283 C 310.380 317.131,310.926 316.576,311.200 312.660 L 311.400 309.800 314.200 309.691 C 317.692 309.555,318.400 308.905,318.400 305.836 C 318.400 303.165,318.816 302.800,321.857 302.800 C 325.108 302.800,325.600 302.184,325.600 298.111 L 325.600 295.200 327.940 295.200 C 329.784 295.200,332.302 294.721,332.876 294.261 C 332.918 294.227,333.053 291.050,333.176 287.200 L 333.400 280.200 336.600 280.000 C 341.138 279.716,340.885 280.167,340.732 272.657 L 340.600 266.200 343.681 266.000 C 348.064 265.716,347.823 266.398,347.660 254.727 C 347.501 243.252,347.243 244.015,351.277 244.006 C 355.597 243.996,355.201 248.166,355.194 202.811 C 355.190 178.750,355.040 163.166,354.810 162.800 C 354.542 162.376,353.460 162.141,351.116 162.000 L 347.800 161.800 347.693 151.224 C 347.568 138.787,347.702 139.200,343.787 139.200 C 340.494 139.200,340.484 139.182,340.331 132.337 C 340.168 125.062,340.066 124.889,335.853 124.717 L 333.000 124.600 332.891 121.800 C 332.749 118.141,332.172 117.600,328.415 117.600 L 325.719 117.600 325.462 114.300 C 325.320 112.485,325.204 109.371,325.202 107.380 C 325.199 102.998,325.046 102.802,321.620 102.794 C 318.106 102.786,317.955 102.649,318.041 99.545 C 318.147 95.678,317.793 95.259,314.295 95.117 L 311.400 95.000 311.296 92.800 C 311.096 88.544,310.489 88.000,305.940 88.000 L 303.600 88.000 303.600 85.029 C 303.600 81.087,303.300 80.800,299.171 80.800 L 296.000 80.800 296.000 77.844 C 296.000 73.798,295.517 73.254,291.800 73.109 L 289.000 73.000 288.800 70.400 C 288.523 66.796,288.830 66.960,281.801 66.669 C 273.976 66.347,274.000 66.358,274.000 62.835 C 274.000 59.180,274.124 59.240,266.371 59.110 L 259.800 59.000 259.691 56.200 C 259.523 51.876,259.862 52.000,248.236 52.000 C 237.227 52.000,237.600 52.114,237.600 48.753 C 237.600 43.758,240.887 44.168,200.000 44.063 C 165.659 43.974,164.976 43.988,163.718 44.770 M235.913 45.700 C 236.140 45.975,236.477 47.640,236.662 49.400 L 237.000 52.600 247.715 52.800 C 259.929 53.028,259.184 52.776,259.194 56.676 C 259.202 59.770,258.717 59.563,266.383 59.757 C 273.968 59.948,273.246 59.553,273.554 63.687 L 273.800 67.000 280.600 67.200 L 287.400 67.400 287.600 70.281 C 287.851 73.892,288.125 74.154,291.919 74.400 L 295.000 74.600 295.102 77.200 C 295.283 81.795,295.110 81.600,299.020 81.600 C 302.901 81.600,302.637 81.328,303.006 85.700 L 303.268 88.800 305.860 88.800 C 309.602 88.800,310.000 89.111,310.000 92.040 C 310.000 95.664,310.300 96.000,313.534 96.000 C 316.959 96.000,317.200 96.254,317.200 99.866 C 317.200 103.373,317.463 103.600,321.527 103.600 C 324.931 103.600,324.787 103.263,324.795 111.267 C 324.801 118.714,324.664 118.400,327.911 118.400 C 331.428 118.400,331.998 118.924,332.006 122.162 C 332.014 125.462,332.168 125.619,335.563 125.781 C 339.246 125.958,338.968 125.404,339.200 132.999 C 339.433 140.623,339.166 140.145,343.332 140.400 L 346.600 140.600 346.800 151.400 L 347.000 162.200 350.243 162.441 C 352.027 162.574,353.692 162.810,353.943 162.965 C 354.281 163.173,354.400 173.601,354.400 202.834 L 354.400 242.420 353.374 242.810 C 352.810 243.024,351.286 243.200,349.988 243.200 C 346.589 243.200,346.625 243.070,346.932 254.327 C 347.236 265.463,347.310 265.198,343.886 265.206 C 342.519 265.209,340.952 265.438,340.405 265.715 L 339.410 266.219 339.405 272.809 L 339.400 279.400 336.800 279.502 C 331.987 279.692,332.400 279.007,332.400 286.800 C 332.400 294.593,332.813 293.908,328.000 294.098 L 325.400 294.200 325.200 297.682 C 324.956 301.934,324.955 301.935,320.999 302.081 L 317.800 302.200 317.586 305.200 C 317.306 309.132,317.248 309.200,314.209 309.200 C 310.473 309.200,310.400 309.258,310.400 312.247 C 310.400 315.549,309.804 316.124,306.092 316.400 L 303.400 316.600 303.298 319.200 C 303.117 323.790,303.285 323.600,299.416 323.600 C 295.455 323.600,295.558 323.497,295.241 327.757 L 295.000 331.000 288.200 331.200 L 281.400 331.400 281.200 334.281 C 280.949 337.892,280.675 338.154,276.881 338.400 L 273.800 338.600 273.681 341.582 C 273.515 345.739,273.765 345.600,266.431 345.600 C 259.032 345.600,259.200 345.510,259.200 349.466 C 259.200 353.346,259.643 353.200,247.859 353.200 C 235.992 353.200,236.800 352.963,236.800 356.443 C 236.800 361.274,240.804 360.800,200.000 360.800 C 159.196 360.800,163.200 361.274,163.200 356.443 C 163.200 352.963,164.008 353.200,152.141 353.200 C 140.357 353.200,140.800 353.346,140.800 349.466 C 140.800 345.512,140.964 345.600,133.600 345.600 C 126.300 345.600,126.400 345.650,126.400 342.000 C 126.400 338.360,126.478 338.400,119.396 338.400 C 111.896 338.400,111.877 338.390,111.600 334.333 L 111.400 331.400 108.400 331.287 C 104.712 331.149,104.400 330.825,104.400 327.138 C 104.400 323.877,104.077 323.600,100.275 323.600 C 97.079 323.600,96.870 323.364,96.719 319.582 L 96.600 316.600 93.943 316.337 C 89.869 315.934,89.600 315.693,89.600 312.429 C 89.600 309.232,89.562 309.200,85.757 309.200 C 82.788 309.200,82.400 308.744,82.400 305.250 C 82.400 302.438,81.930 302.045,78.400 301.913 L 75.400 301.800 75.159 298.279 C 74.866 293.987,74.940 294.065,70.999 293.919 L 67.800 293.800 67.694 287.200 C 67.571 279.534,67.607 279.603,63.824 279.594 C 60.133 279.585,60.248 279.825,60.556 272.742 C 60.878 265.310,60.985 265.525,56.865 265.286 C 52.632 265.041,52.761 265.424,52.982 253.834 C 53.188 243.044,53.292 243.388,49.712 243.007 C 48.220 242.848,46.685 242.550,46.300 242.345 C 45.641 241.993,45.600 239.687,45.600 202.576 L 45.600 163.180 46.626 162.790 C 48.922 161.917,53.159 162.297,53.436 163.400 C 53.721 164.537,53.912 164.593,54.916 163.832 C 55.579 163.329,55.542 163.258,54.409 162.863 L 53.187 162.437 53.294 151.519 L 53.400 140.600 56.787 140.482 C 60.993 140.336,60.785 140.714,60.800 133.200 C 60.813 126.563,60.939 126.000,62.433 125.911 C 65.422 125.733,67.600 126.023,67.600 126.600 C 67.600 127.306,68.232 127.396,68.633 126.747 C 68.786 126.498,68.617 126.129,68.256 125.927 C 67.733 125.635,67.600 124.911,67.600 122.370 C 67.600 118.554,67.976 118.260,72.600 118.472 L 75.400 118.600 75.400 111.014 L 75.400 103.428 78.745 103.336 C 82.743 103.226,82.294 103.610,82.510 100.108 C 82.745 96.303,83.036 96.000,86.449 96.000 L 89.200 96.000 89.200 92.790 C 89.200 89.713,89.242 89.564,90.226 89.190 C 91.613 88.663,96.134 88.694,96.675 89.235 C 96.988 89.548,97.185 89.548,97.378 89.235 C 97.526 88.996,97.457 88.800,97.224 88.800 C 96.754 88.800,96.644 84.882,97.055 82.824 L 97.310 81.548 100.955 81.674 L 104.600 81.800 104.468 78.880 C 104.383 77.009,104.508 75.752,104.817 75.380 C 105.429 74.642,111.201 74.561,111.920 75.280 C 112.293 75.653,112.510 75.650,112.897 75.263 C 113.292 74.868,113.273 74.692,112.800 74.400 C 112.034 73.926,111.843 68.229,112.573 67.622 C 112.841 67.400,115.992 67.171,119.629 67.110 L 126.200 67.000 126.400 63.800 C 126.679 59.330,126.189 59.600,134.024 59.600 L 140.800 59.600 140.800 56.624 C 140.800 52.782,140.046 53.034,152.268 52.800 C 164.216 52.572,163.386 52.859,163.445 48.925 C 163.476 46.832,163.658 45.809,164.045 45.564 C 164.984 44.969,235.422 45.102,235.913 45.700 M168.200 58.400 C 166.281 58.612,166.822 58.679,170.900 58.733 C 174.078 58.775,176.000 58.649,176.000 58.400 C 176.000 57.965,172.132 57.965,168.200 58.400 M127.467 67.867 C 127.004 68.329,127.172 69.265,127.663 68.961 C 127.917 68.804,128.921 68.705,129.894 68.742 C 131.951 68.820,132.930 68.412,131.773 67.959 C 130.796 67.577,127.821 67.513,127.467 67.867 M127.200 71.200 C 127.200 71.947,127.307 72.053,127.680 71.680 C 128.053 71.307,128.053 71.093,127.680 70.720 C 127.307 70.347,127.200 70.453,127.200 71.200 M117.200 76.030 C 117.200 76.267,116.683 76.406,116.050 76.340 C 114.394 76.166,113.646 76.931,113.962 78.476 C 114.293 80.096,115.083 80.360,115.592 79.022 C 115.810 78.449,116.261 77.875,116.594 77.747 C 116.927 77.619,117.200 77.329,117.200 77.101 C 117.200 76.874,117.515 76.449,117.900 76.157 C 118.567 75.651,118.567 75.625,117.900 75.613 C 117.515 75.606,117.200 75.794,117.200 76.030 M121.000 79.822 L 119.400 80.316 121.924 80.358 C 123.312 80.381,124.349 80.242,124.230 80.048 C 123.833 79.407,122.620 79.321,121.000 79.822 M134.170 112.208 C 135.152 112.951,139.998 112.861,139.999 112.100 C 140.000 111.739,139.081 111.604,136.700 111.613 C 133.723 111.624,133.475 111.682,134.170 112.208 M268.000 112.151 C 268.000 112.570,268.455 112.653,269.900 112.499 C 272.952 112.174,273.323 111.626,270.500 111.612 C 268.638 111.603,268.000 111.741,268.000 112.151 M127.227 119.620 C 127.252 120.916,127.281 120.944,127.694 120.087 C 128.019 119.412,128.012 119.052,127.667 118.707 C 127.311 118.351,127.206 118.568,127.227 119.620 M127.243 124.400 C 127.227 126.770,127.277 126.931,127.813 126.224 C 128.508 125.304,128.507 125.037,127.800 123.200 L 127.261 121.800 127.243 124.400 M127.200 131.386 C 127.200 131.912,128.113 132.000,133.600 132.000 C 137.198 132.000,140.000 131.840,140.000 131.634 C 140.000 131.151,130.841 130.879,129.751 131.331 C 129.214 131.553,128.588 131.515,128.051 131.227 C 127.355 130.855,127.200 130.884,127.200 131.386 M185.882 176.652 C 185.375 177.159,185.563 183.071,186.100 183.516 C 186.375 183.744,188.001 183.991,189.714 184.065 L 192.828 184.200 192.714 180.400 L 192.600 176.600 189.382 176.485 C 187.611 176.422,186.036 176.497,185.882 176.652 M269.609 176.698 C 266.964 176.879,266.814 177.080,266.806 180.451 C 266.799 183.708,266.958 183.849,270.907 184.091 C 273.923 184.275,274.022 184.252,274.255 183.322 C 274.937 180.605,273.650 176.235,272.238 176.474 C 271.997 176.515,270.814 176.616,269.609 176.698 M191.819 178.132 C 191.947 178.645,191.996 179.860,191.926 180.832 L 191.800 182.600 189.100 182.718 L 186.400 182.837 186.400 180.018 L 186.400 177.200 188.992 177.200 C 191.374 177.200,191.604 177.276,191.819 178.132 M273.118 180.900 L 273.237 183.600 271.192 183.600 C 268.114 183.600,267.600 183.179,267.600 180.653 C 267.600 177.992,267.658 177.942,270.584 178.083 L 273.000 178.200 273.118 180.900 M168.800 234.800 C 168.350 235.091,168.550 235.188,169.600 235.188 C 170.650 235.188,170.850 235.091,170.400 234.800 C 170.070 234.587,169.710 234.412,169.600 234.412 C 169.490 234.412,169.130 234.587,168.800 234.800 M173.172 234.849 C 172.587 235.012,173.316 235.124,175.000 235.129 C 177.870 235.137,178.107 234.967,175.572 234.718 C 174.786 234.640,173.706 234.700,173.172 234.849 M181.400 234.800 L 179.800 235.086 181.700 235.143 C 182.745 235.174,183.600 235.020,183.600 234.800 C 183.600 234.580,183.465 234.426,183.300 234.457 C 183.135 234.488,182.280 234.642,181.400 234.800 M188.500 237.076 C 188.885 237.176,189.515 237.176,189.900 237.076 C 190.285 236.975,189.970 236.893,189.200 236.893 C 188.430 236.893,188.115 236.975,188.500 237.076 " stroke="none" fill="#bca798" fill-rule="evenodd"></path><path id="path4" d="M164.045 45.564 C 163.658 45.809,163.476 46.832,163.445 48.925 C 163.386 52.859,164.216 52.572,152.268 52.800 C 140.046 53.034,140.800 52.782,140.800 56.624 L 140.800 59.600 134.024 59.600 C 126.189 59.600,126.679 59.330,126.400 63.800 L 126.200 67.000 119.610 67.110 C 111.755 67.242,111.352 67.569,112.230 73.100 L 112.436 74.400 117.968 74.400 C 123.369 74.400,126.000 74.154,126.000 73.650 C 126.001 73.513,123.076 73.400,119.500 73.400 L 113.000 73.400 112.882 70.500 L 112.765 67.600 119.364 67.600 L 125.963 67.600 126.103 70.300 L 126.243 73.000 126.322 70.100 L 126.400 67.200 129.100 67.133 L 131.800 67.066 129.400 66.833 L 127.000 66.600 126.874 64.601 C 126.805 63.502,126.849 62.062,126.973 61.401 L 127.197 60.200 133.699 60.400 L 140.200 60.600 140.428 63.600 L 140.656 66.600 140.728 63.874 C 140.848 59.314,140.122 59.614,151.314 59.511 L 161.000 59.422 151.400 59.211 L 141.800 59.000 141.677 56.611 C 141.580 54.704,141.696 54.119,142.254 53.711 C 142.986 53.176,160.844 52.935,162.167 53.443 C 162.952 53.744,163.109 58.800,162.333 58.800 C 162.077 58.800,161.961 58.894,162.076 59.009 C 162.819 59.752,163.410 58.566,163.526 56.102 C 163.707 52.262,163.410 52.400,171.516 52.400 C 180.352 52.400,180.272 52.015,171.388 51.788 C 167.700 51.693,164.637 51.567,164.581 51.508 C 164.526 51.449,164.417 50.140,164.340 48.600 L 164.200 45.800 199.868 45.698 L 235.536 45.596 235.810 48.152 C 235.960 49.557,235.970 51.065,235.831 51.501 C 235.255 53.316,236.691 53.578,247.876 53.693 L 258.200 53.800 258.317 56.665 C 258.472 60.459,258.308 60.379,266.138 60.498 L 272.799 60.600 273.000 61.800 C 273.110 62.460,273.245 63.990,273.300 65.200 L 273.400 67.400 280.200 67.600 L 287.000 67.800 287.118 70.981 C 287.272 75.111,287.364 75.200,291.449 75.200 L 294.800 75.200 294.800 78.005 C 294.800 81.756,295.139 82.237,297.656 82.060 C 301.279 81.805,302.328 82.204,302.523 83.914 C 302.666 85.163,302.686 85.113,302.647 83.600 L 302.600 81.800 299.104 81.684 C 295.100 81.552,295.282 81.756,295.102 77.200 L 295.000 74.600 291.919 74.400 C 288.125 74.154,287.851 73.892,287.600 70.281 L 287.400 67.400 280.600 67.200 L 273.800 67.000 273.554 63.687 C 273.246 59.553,273.968 59.948,266.383 59.757 C 258.717 59.563,259.202 59.770,259.194 56.676 C 259.184 52.776,259.929 53.028,247.715 52.800 L 237.000 52.600 236.662 49.400 C 236.477 47.640,236.140 45.975,235.913 45.700 C 235.422 45.102,164.984 44.969,164.045 45.564 M104.880 75.280 C 104.594 75.566,104.400 76.942,104.400 78.680 L 104.400 81.600 100.850 81.600 L 97.300 81.600 97.050 82.850 C 96.913 83.538,96.800 85.158,96.800 86.450 L 96.800 88.800 99.700 88.794 C 103.683 88.785,104.007 88.307,104.382 81.900 C 104.392 81.735,104.625 81.600,104.900 81.601 C 105.269 81.602,105.366 80.765,105.270 78.401 L 105.139 75.200 107.537 75.200 C 111.058 75.200,111.200 75.307,111.200 77.963 C 111.200 79.235,110.979 80.474,110.700 80.770 C 110.296 81.198,110.316 81.265,110.800 81.118 C 111.443 80.922,112.261 76.457,111.850 75.385 C 111.562 74.635,105.614 74.546,104.880 75.280 M102.869 82.662 C 103.714 83.427,103.849 85.815,103.136 87.381 C 102.560 88.644,97.900 88.960,97.443 87.767 C 97.133 86.959,97.138 84.071,97.452 82.900 C 97.763 81.739,101.659 81.567,102.869 82.662 M302.873 87.200 C 302.840 87.970,302.944 88.780,303.106 89.000 C 303.437 89.450,303.485 89.457,306.800 89.540 L 309.200 89.600 309.213 92.500 C 309.232 96.547,309.681 97.008,313.600 97.004 L 316.600 97.000 316.705 99.800 C 316.861 103.940,317.094 104.228,320.159 104.068 C 324.103 103.863,324.398 104.425,324.406 112.154 C 324.413 119.418,324.269 119.131,328.012 119.281 L 331.000 119.400 331.115 122.641 C 331.253 126.509,331.499 126.733,335.800 126.895 L 338.600 127.000 338.800 133.800 L 339.000 140.600 342.600 140.800 L 346.200 141.000 346.400 151.800 L 346.600 162.600 349.600 162.639 L 352.600 162.678 349.800 162.439 L 347.000 162.200 346.800 151.400 L 346.600 140.600 343.332 140.400 C 339.166 140.145,339.433 140.623,339.200 132.999 C 338.968 125.404,339.246 125.958,335.563 125.781 C 332.168 125.619,332.014 125.462,332.006 122.162 C 331.998 118.924,331.428 118.400,327.911 118.400 C 324.664 118.400,324.801 118.714,324.795 111.267 C 324.787 103.263,324.931 103.600,321.527 103.600 C 317.463 103.600,317.200 103.373,317.200 99.866 C 317.200 96.254,316.959 96.000,313.534 96.000 C 310.300 96.000,310.000 95.664,310.000 92.040 C 310.000 89.110,309.603 88.800,305.850 88.800 L 303.248 88.800 303.091 87.300 L 302.934 85.800 302.873 87.200 M90.100 89.204 C 89.272 89.545,89.200 89.832,89.200 92.787 L 89.200 96.000 86.449 96.000 C 83.036 96.000,82.745 96.303,82.510 100.108 C 82.294 103.610,82.743 103.226,78.745 103.335 L 75.400 103.427 75.291 110.913 L 75.182 118.400 72.417 118.400 C 67.759 118.400,67.546 118.583,67.684 122.475 L 67.800 125.758 71.095 125.779 C 74.177 125.799,75.457 125.324,74.609 124.476 C 74.494 124.361,74.400 124.477,74.400 124.733 C 74.400 125.441,69.424 125.352,68.828 124.634 C 68.551 124.300,68.408 123.110,68.479 121.734 L 68.600 119.400 71.788 119.282 C 73.541 119.216,75.093 118.973,75.237 118.740 C 75.381 118.507,76.657 118.223,78.072 118.109 C 82.218 117.777,82.167 117.872,82.400 110.084 L 82.600 103.400 85.600 103.172 L 88.600 102.944 85.900 102.872 L 83.200 102.800 83.200 100.045 L 83.200 97.289 84.600 97.026 C 85.370 96.882,86.630 96.882,87.400 97.026 L 88.800 97.289 88.866 100.145 L 88.932 103.000 89.166 99.867 C 89.452 96.031,89.883 95.600,93.427 95.600 C 96.576 95.600,96.872 95.253,96.719 91.736 L 96.600 89.000 93.800 88.917 C 92.260 88.872,90.595 89.001,90.100 89.204 M96.318 92.300 L 96.200 95.000 93.440 95.120 C 90.227 95.259,90.090 95.170,89.753 92.706 C 89.346 89.743,89.506 89.600,93.206 89.600 L 96.437 89.600 96.318 92.300 M266.093 98.800 C 266.093 99.570,266.175 99.885,266.276 99.500 C 266.376 99.115,266.376 98.485,266.276 98.100 C 266.175 97.715,266.093 98.030,266.093 98.800 M82.000 110.168 C 82.000 117.335,81.977 117.379,78.100 117.710 L 75.600 117.924 75.599 110.862 L 75.598 103.800 78.799 103.930 L 82.000 104.061 82.000 110.168 M281.380 117.800 C 281.380 125.500,281.434 128.593,281.499 124.674 C 281.565 120.755,281.565 114.455,281.499 110.674 C 281.434 106.893,281.380 110.100,281.380 117.800 M62.000 125.882 C 60.915 126.312,60.812 126.937,60.800 133.200 C 60.785 140.714,60.993 140.336,56.787 140.482 L 53.400 140.600 53.294 151.500 L 53.187 162.400 50.420 162.400 C 48.897 162.400,47.190 162.576,46.626 162.790 L 45.600 163.180 45.600 202.576 C 45.600 239.687,45.641 241.993,46.300 242.345 C 46.685 242.550,48.220 242.848,49.712 243.007 C 53.292 243.388,53.188 243.044,52.982 253.834 C 52.761 265.424,52.632 265.041,56.865 265.286 C 60.985 265.525,60.878 265.310,60.556 272.742 C 60.248 279.825,60.133 279.585,63.824 279.594 C 67.607 279.603,67.571 279.534,67.694 287.200 L 67.800 293.800 71.184 294.000 C 74.371 294.188,74.584 294.258,74.862 295.200 C 75.136 296.130,75.151 296.116,75.078 295.000 C 75.002 293.835,74.936 293.797,72.800 293.700 C 71.590 293.645,70.006 293.501,69.281 293.379 L 67.961 293.157 68.081 286.748 C 68.222 279.135,68.258 279.200,63.924 279.200 L 61.200 279.200 61.200 272.414 C 61.200 264.559,61.476 265.057,56.871 264.602 C 53.286 264.248,53.616 265.352,53.498 253.320 C 53.387 241.942,53.537 242.442,50.157 242.152 C 48.861 242.041,47.440 241.879,47.000 241.792 C 46.207 241.636,46.200 241.316,46.200 202.417 L 46.200 163.199 47.401 162.974 C 50.375 162.415,52.577 162.911,52.851 164.200 C 53.097 165.361,53.107 165.351,53.153 163.900 L 53.200 162.400 56.100 162.322 L 59.000 162.243 56.293 162.103 L 53.587 161.963 53.693 151.482 L 53.800 141.000 55.773 140.875 C 59.776 140.622,59.600 140.312,59.600 147.584 C 59.600 151.295,59.763 154.054,59.990 154.194 C 60.237 154.347,60.421 151.888,60.490 147.518 L 60.600 140.600 63.000 140.497 C 66.558 140.344,67.204 140.127,67.175 139.092 L 67.149 138.200 66.788 139.100 C 66.469 139.893,66.141 140.000,64.021 140.000 C 61.057 140.000,61.129 140.194,61.285 132.600 L 61.400 127.000 64.200 127.000 L 67.000 127.000 67.223 130.800 L 67.447 134.600 67.523 130.300 L 67.600 126.000 65.900 125.995 C 64.965 125.992,63.840 125.912,63.400 125.817 C 62.960 125.722,62.330 125.751,62.000 125.882 M163.062 162.700 C 162.960 162.865,169.474 163.000,177.538 163.000 L 192.200 163.000 192.319 165.736 C 192.488 169.618,192.948 169.429,182.503 169.791 C 171.478 170.173,171.943 170.167,167.000 170.012 L 163.000 169.888 162.884 173.140 C 162.752 176.846,162.904 176.712,158.600 176.897 L 156.200 177.000 156.200 188.000 L 156.200 199.000 159.600 199.200 L 163.000 199.400 163.118 202.588 C 163.257 206.320,163.321 206.386,166.820 206.394 C 169.999 206.401,170.400 206.060,170.400 203.346 C 170.400 199.712,170.078 199.314,167.293 199.516 C 163.133 199.817,163.200 199.946,163.200 191.600 C 163.200 183.322,163.064 183.600,167.121 183.600 L 169.495 183.600 169.686 180.614 C 169.967 176.238,169.731 176.362,177.557 176.491 L 184.200 176.600 184.411 180.121 C 184.661 184.298,184.748 184.385,188.620 184.394 C 192.513 184.402,192.400 184.163,192.400 192.408 L 192.400 199.457 195.900 199.280 C 199.687 199.089,199.972 199.012,199.308 198.348 C 199.037 198.077,197.706 197.968,195.835 198.062 L 192.800 198.216 192.800 191.740 C 192.800 183.551,192.997 184.000,189.406 184.000 C 185.718 184.000,185.531 183.785,185.682 179.738 L 185.800 176.600 192.400 176.637 C 196.030 176.657,197.920 176.611,196.600 176.534 C 192.325 176.287,192.400 176.342,192.400 173.441 C 192.400 170.153,192.716 169.898,196.581 170.068 C 200.486 170.239,200.512 169.784,196.613 169.490 C 192.768 169.199,192.800 169.228,192.800 166.056 C 192.800 164.493,192.598 163.158,192.320 162.880 C 191.777 162.337,163.394 162.163,163.062 162.700 M258.765 162.700 C 268.946 162.782,272.696 162.939,273.165 163.305 C 273.726 163.743,273.736 163.719,273.251 163.100 C 272.744 162.454,271.633 162.407,258.851 162.495 L 245.000 162.589 258.765 162.700 M353.208 163.035 C 353.746 163.202,353.822 167.745,353.872 202.562 L 353.927 241.901 350.749 242.085 C 346.344 242.340,346.615 241.601,346.504 253.682 C 346.394 265.745,346.805 264.481,342.895 264.777 C 338.536 265.107,338.800 264.614,338.800 272.424 L 338.800 279.200 336.226 279.200 C 334.810 279.200,333.167 279.385,332.573 279.610 L 331.494 280.021 331.781 286.586 L 332.069 293.151 330.735 293.376 C 330.001 293.499,328.410 293.645,327.200 293.700 L 325.000 293.800 324.800 297.400 L 324.600 301.000 321.132 301.200 C 316.996 301.438,317.088 301.367,316.905 304.508 C 316.646 308.983,316.792 308.799,313.492 308.806 C 309.626 308.814,309.441 308.973,309.200 312.485 L 309.000 315.400 306.200 315.520 C 302.709 315.670,302.776 315.593,302.666 319.641 L 302.575 323.000 299.004 323.200 C 294.867 323.432,294.910 323.382,294.840 328.100 L 294.800 330.800 288.080 330.800 C 280.282 330.800,280.400 330.747,280.400 334.266 C 280.400 337.303,280.029 337.600,276.234 337.600 C 273.208 337.600,273.272 337.506,273.102 342.200 L 273.000 345.000 266.000 345.200 L 259.000 345.400 258.885 348.857 C 258.743 353.132,259.784 352.788,246.980 352.795 C 235.570 352.801,236.000 352.671,236.000 356.106 C 236.000 360.453,240.189 360.000,200.000 360.000 C 159.811 360.000,164.000 360.453,164.000 356.106 C 164.000 352.667,164.452 352.801,152.820 352.794 C 140.834 352.787,141.568 353.044,141.248 348.745 L 141.000 345.400 134.000 345.200 L 127.000 345.000 126.800 341.800 C 126.522 337.348,126.950 337.600,119.656 337.600 C 112.283 337.600,112.400 337.659,112.400 333.959 C 112.400 330.834,111.659 330.263,108.096 330.638 C 105.378 330.925,105.102 330.598,104.884 326.831 C 104.669 323.111,104.870 323.271,100.200 323.102 L 97.400 323.000 97.379 320.200 C 97.346 315.756,97.233 315.600,94.053 315.600 C 90.728 315.600,90.400 315.295,90.400 312.200 C 90.400 309.069,90.094 308.800,86.528 308.800 C 83.224 308.800,83.426 309.042,83.045 304.609 C 82.783 301.568,82.298 301.200,78.553 301.200 C 76.141 301.200,75.625 301.083,75.455 300.500 C 75.338 300.096,75.283 300.222,75.326 300.800 C 75.397 301.760,75.519 301.804,78.400 301.913 C 81.930 302.045,82.400 302.438,82.400 305.250 C 82.400 308.744,82.788 309.200,85.757 309.200 C 89.562 309.200,89.600 309.232,89.600 312.429 C 89.600 315.693,89.869 315.934,93.943 316.337 L 96.600 316.600 96.719 319.582 C 96.870 323.364,97.079 323.600,100.275 323.600 C 104.077 323.600,104.400 323.877,104.400 327.138 C 104.400 330.825,104.712 331.149,108.400 331.287 L 111.400 331.400 111.600 334.333 C 111.877 338.390,111.896 338.400,119.396 338.400 C 126.478 338.400,126.400 338.360,126.400 342.000 C 126.400 345.650,126.300 345.600,133.600 345.600 C 140.964 345.600,140.800 345.512,140.800 349.466 C 140.800 353.346,140.357 353.200,152.141 353.200 C 164.008 353.200,163.200 352.963,163.200 356.443 C 163.200 361.274,159.196 360.800,200.000 360.800 C 240.804 360.800,236.800 361.274,236.800 356.443 C 236.800 352.963,235.992 353.200,247.859 353.200 C 259.643 353.200,259.200 353.346,259.200 349.466 C 259.200 345.510,259.032 345.600,266.431 345.600 C 273.765 345.600,273.515 345.739,273.681 341.582 L 273.800 338.600 276.881 338.400 C 280.675 338.154,280.949 337.892,281.200 334.281 L 281.400 331.400 288.200 331.200 L 295.000 331.000 295.241 327.757 C 295.558 323.497,295.455 323.600,299.416 323.600 C 303.285 323.600,303.117 323.790,303.298 319.200 L 303.400 316.600 306.092 316.400 C 309.804 316.124,310.400 315.549,310.400 312.247 C 310.400 309.258,310.473 309.200,314.209 309.200 C 317.248 309.200,317.306 309.132,317.586 305.200 L 317.800 302.200 320.999 302.081 C 324.955 301.935,324.956 301.934,325.200 297.682 L 325.400 294.200 328.000 294.098 C 332.813 293.908,332.400 294.593,332.400 286.800 C 332.400 279.007,331.987 279.692,336.800 279.502 L 339.400 279.400 339.405 272.809 L 339.410 266.219 340.405 265.715 C 340.952 265.438,342.519 265.209,343.886 265.206 C 347.310 265.198,347.236 265.463,346.932 254.327 C 346.625 243.070,346.589 243.200,349.988 243.200 C 351.286 243.200,352.811 243.024,353.376 242.809 L 354.404 242.418 354.302 202.715 C 354.201 163.343,354.193 163.010,353.400 162.928 C 352.960 162.883,352.874 162.931,353.208 163.035 M244.644 169.022 C 244.796 169.450,245.173 170.094,245.481 170.454 C 246.474 171.615,246.024 176.168,244.900 176.328 C 243.952 176.462,243.686 177.029,244.451 177.284 C 244.714 177.371,244.950 178.626,245.017 180.301 C 245.167 184.005,245.162 184.000,248.424 184.000 L 251.200 184.000 251.200 181.226 C 251.200 179.700,251.377 177.986,251.594 177.416 L 251.988 176.381 258.694 176.490 L 265.400 176.600 265.615 179.900 C 265.886 184.071,266.146 184.343,270.227 184.712 L 273.400 185.000 273.400 192.000 L 273.400 199.000 270.600 199.200 C 266.842 199.468,266.800 199.511,266.800 203.010 C 266.800 206.597,267.141 206.893,271.068 206.718 L 273.722 206.600 273.637 203.151 C 273.539 199.142,273.438 199.224,278.100 199.521 L 280.800 199.693 280.856 201.547 L 280.913 203.400 281.196 201.200 C 281.351 199.990,281.332 198.730,281.152 198.400 C 280.940 198.011,280.820 197.976,280.812 198.300 C 280.803 198.660,279.847 198.800,277.400 198.800 L 274.000 198.800 274.000 191.647 C 274.000 183.458,274.294 184.016,269.980 184.005 C 267.132 183.998,266.799 183.622,266.806 180.420 C 266.814 177.050,266.898 176.954,270.081 176.705 C 273.429 176.443,274.048 176.968,274.326 180.306 C 274.520 182.633,275.109 182.351,275.172 179.900 C 275.192 179.132,275.411 178.799,275.900 178.796 C 276.285 178.793,277.250 178.684,278.043 178.552 L 279.487 178.314 279.774 180.853 C 279.932 182.249,280.223 183.587,280.420 183.824 C 280.618 184.062,280.834 187.124,280.901 190.628 C 280.986 195.092,281.042 193.976,281.088 186.900 L 281.154 176.800 277.951 176.800 C 273.472 176.800,273.200 176.597,273.200 173.247 L 273.200 170.522 266.500 170.264 C 262.815 170.123,256.650 169.892,252.800 169.752 C 247.289 169.551,245.647 169.364,245.083 168.871 C 244.421 168.293,244.387 168.305,244.644 169.022 M237.375 188.000 C 237.375 193.830,237.431 196.215,237.499 193.300 C 237.567 190.385,237.567 185.615,237.499 182.700 C 237.431 179.785,237.375 182.170,237.375 188.000 M162.135 190.916 C 162.522 198.668,162.520 198.676,159.495 198.739 C 156.168 198.809,156.269 199.078,156.604 191.031 L 156.899 183.964 159.349 184.082 L 161.800 184.200 162.135 190.916 M186.430 200.164 C 186.144 200.509,186.008 201.791,186.081 203.464 L 186.200 206.200 188.964 206.320 C 192.450 206.471,193.064 205.418,192.150 200.850 C 191.865 199.423,187.481 198.897,186.430 200.164 M244.317 200.500 C 244.793 201.074,245.083 205.450,244.673 205.861 C 244.040 206.493,244.573 206.598,247.700 206.458 C 251.592 206.283,251.436 206.442,251.267 202.841 L 251.134 200.000 247.518 200.000 C 244.669 200.000,243.990 200.106,244.317 200.500 M273.118 203.100 L 273.235 206.000 270.418 206.000 L 267.600 206.000 267.600 203.228 C 267.600 200.101,267.672 200.039,271.200 200.146 L 273.000 200.200 273.118 203.100 M169.601 203.100 L 169.602 205.800 166.898 205.671 L 164.195 205.542 164.398 203.271 L 164.600 201.000 166.600 200.763 C 167.700 200.632,168.825 200.497,169.100 200.463 C 169.457 200.418,169.600 201.174,169.601 203.100 M215.023 221.689 C 214.621 222.263,214.400 223.462,214.400 225.075 C 214.400 228.052,214.797 228.400,218.200 228.400 C 222.067 228.400,222.000 228.276,222.000 235.440 C 222.000 243.259,222.029 243.200,218.214 243.200 C 214.334 243.200,214.000 243.532,214.000 247.386 C 214.000 250.740,213.940 250.800,210.591 250.800 C 209.412 250.800,208.363 250.935,208.260 251.100 C 208.158 251.265,209.317 251.340,210.837 251.267 C 214.407 251.096,214.915 250.505,214.551 246.950 C 214.240 243.913,214.633 243.600,218.760 243.600 C 222.444 243.600,222.400 243.703,222.400 235.026 L 222.400 228.000 219.433 228.000 C 215.223 228.000,215.200 227.984,215.200 224.931 C 215.200 223.510,215.386 221.999,215.614 221.574 C 216.178 220.519,215.789 220.595,215.023 221.689 M243.550 224.800 L 243.400 227.800 240.400 228.000 L 237.400 228.200 240.000 228.475 C 243.546 228.850,244.415 228.295,244.360 225.691 C 244.286 222.154,243.714 221.525,243.550 224.800 M295.181 232.600 L 295.000 235.400 291.932 235.600 C 287.740 235.873,287.663 236.234,291.833 236.059 L 295.200 235.918 295.272 239.059 L 295.344 242.200 295.572 239.200 L 295.800 236.200 299.200 235.983 L 302.600 235.767 299.200 235.583 L 295.800 235.400 295.581 232.600 L 295.362 229.800 295.181 232.600 M229.693 237.200 C 229.693 237.970,229.775 238.285,229.876 237.900 C 229.976 237.515,229.976 236.885,229.876 236.500 C 229.775 236.115,229.693 236.430,229.693 237.200 M229.625 242.020 C 229.579 243.156,230.527 243.600,233.000 243.600 C 236.054 243.600,236.400 243.949,236.400 247.031 C 236.400 248.520,236.599 249.667,236.900 249.916 C 237.472 250.390,243.624 250.757,243.340 250.300 C 243.237 250.135,241.925 250.000,240.425 250.000 C 237.052 250.000,236.662 249.635,237.034 246.826 C 237.429 243.848,236.731 243.200,233.125 243.200 C 230.646 243.200,230.338 243.111,230.012 242.300 C 229.791 241.748,229.641 241.640,229.625 242.020 M280.962 244.554 C 280.845 244.859,280.810 245.894,280.883 246.854 C 281.013 248.544,281.023 248.526,281.209 246.299 C 281.403 243.965,281.345 243.556,280.962 244.554 M281.192 249.500 C 281.597 250.336,281.863 250.394,284.914 250.320 L 288.200 250.239 285.031 250.101 C 282.646 249.998,281.725 249.795,281.309 249.282 C 280.818 248.677,280.805 248.701,281.192 249.500 M288.000 254.200 L 288.000 257.600 281.500 257.685 L 275.000 257.769 281.400 257.985 L 287.800 258.200 287.800 261.062 C 287.800 262.636,287.935 263.841,288.100 263.739 C 288.265 263.636,288.400 262.423,288.400 261.043 C 288.400 259.663,288.516 258.418,288.657 258.276 C 289.176 257.757,289.030 250.801,288.500 250.800 C 288.139 250.800,288.000 251.746,288.000 254.200 M273.434 264.100 C 273.125 265.159,273.012 265.200,270.433 265.200 C 268.608 265.200,267.505 265.398,266.976 265.822 C 266.226 266.423,266.230 266.430,267.074 266.022 C 267.554 265.790,269.129 265.600,270.574 265.600 L 273.200 265.600 273.272 268.700 L 273.344 271.800 273.572 268.800 L 273.800 265.800 276.600 265.571 L 279.400 265.341 276.727 265.271 C 274.133 265.202,274.049 265.167,273.904 264.100 L 273.755 263.000 273.434 264.100 M135.600 272.720 C 133.849 272.994,133.595 273.501,133.677 276.549 L 133.754 279.400 133.898 276.815 C 134.088 273.411,134.311 273.200,137.716 273.200 C 139.265 273.200,140.398 273.065,140.233 272.900 C 139.907 272.574,137.202 272.468,135.600 272.720 M163.680 287.680 C 163.153 288.207,163.003 293.431,163.506 293.742 C 163.674 293.846,163.745 292.605,163.663 290.984 C 163.492 287.587,163.348 287.703,168.000 287.479 C 170.522 287.358,170.504 287.352,167.380 287.277 C 165.313 287.228,163.988 287.372,163.680 287.680 M258.942 305.000 C 258.941 306.980,259.008 307.840,259.092 306.912 C 259.176 305.984,259.177 304.364,259.095 303.312 C 259.012 302.260,258.943 303.020,258.942 305.000 M254.291 309.089 C 255.001 309.177,256.261 309.179,257.091 309.092 C 257.921 309.005,257.340 308.933,255.800 308.931 C 254.260 308.929,253.581 309.000,254.291 309.089 " stroke="none" fill="#848c7c" fill-rule="evenodd"></path></g></svg>