<?xml version="1.0" encoding="UTF-8"?>
<!DOCTYPE svg PUBLIC "-//W3C//DTD SVG 1.1//EN" "http://www.w3.org/Graphics/SVG/1.1/DTD/svg11.dtd">
<!-- Creator: CorelDRAW -->
<svg xmlns="http://www.w3.org/2000/svg" xml:space="preserve" width="11in" height="11in" style="shape-rendering:geometricPrecision; text-rendering:geometricPrecision; image-rendering:optimizeQuality; fill-rule:evenodd; clip-rule:evenodd"
viewBox="0 0 11 11"
 xmlns:xlink="http://www.w3.org/1999/xlink">
 <defs>
  <style type="text/css">
   <![CDATA[
    .str2 {stroke:#974578;stroke-width:0.003}
    .str0 {stroke:white;stroke-width:0.003}
    .str1 {stroke:#8CC63F;stroke-width:0.003}
    .str3 {stroke:#974578;stroke-width:0.11111}
    .fil0 {fill:none}
    .fil2 {fill:#974578}
    .fil1 {fill:#8CC63F}
   ]]>
  </style>
 </defs>
 <g id="Layer_x0020_1">
  <metadata id="CorelCorpID_0Corel-Layer"/>
  <rect class="fil0 str0" width="11" height="11"/>
  <circle class="fil1 str1" cx="3.37342" cy="5.54098" r="1.66962"/>
  <path class="fil2 str2" d="M3.46527 2.25303c0.615669,0 1.1913,0.171492 1.68181,0.46928 -0.20222,0.148701 -0.368858,0.342343 -0.536598,0.581122 -0.351803,-0.186469 -0.752976,-0.292102 -1.17883,-0.292102 -1.39279,0 -2.5223,1.12951 -2.5223,2.52229 0,1.39279 1.1295,2.5223 2.5223,2.5223 1.39279,0 2.52229,-1.12951 2.52229,-2.5223 0.0143858,-0.384492 0.0908543,-0.152567 0.00979134,-0.0413268 -0.0091378,0.447709 0.160673,0.898661 0.510197,1.23006 -0.482988,1.18725 -1.64813,2.02462 -3.00867,2.02462 -1.79294,0 -3.24696,-1.45402 -3.24696,-3.24698 0,-1.79294 1.45402,-3.24697 3.24696,-3.24697z"/>
  <circle class="fil0 str3" cx="7.6078" cy="5.52609" r="0.736537"/>
  <path class="fil1 str1" d="M7.53473 2.25303c1.79294,0 3.24696,1.45402 3.24696,3.24697 0,1.79295 -1.45402,3.24698 -3.24696,3.24698 -0.634362,0 -1.20715,-0.170012 -1.70723,-0.484685 0.138488,-0.0794882 0.388594,-0.287835 0.468657,-0.512398 0.35802,0.19513 0.768547,0.306028 1.20494,0.306028 1.39281,0 2.5223,-1.1295 2.5223,-2.52229 0,-1.3928 -1.12949,-2.5223 -2.5223,-2.5223 -1.27261,0 -2.32519,0.943024 -2.49741,2.16823 -0.0743346,-0.336559 -0.250193,-0.635016 -0.493882,-0.861559 0.472768,-1.20864 1.64899,-2.06497 3.02493,-2.06497z"/>
  <path class="fil2 str2" d="M7.60781 3.87772c0.910209,0 1.64836,0.738154 1.64836,1.64836 0,0.910224 -0.738154,1.64838 -1.64836,1.64838 -0.91022,0 -1.64837,-0.738154 -1.64837,-1.64838 0,-0.910205 0.738154,-1.64836 1.64837,-1.64836zm-3.93701e-006 0.577945c0.591075,0 1.07042,0.479346 1.07042,1.07042 0,0.591087 -0.479346,1.07043 -1.07042,1.07043 -0.591087,0 -1.07043,-0.479339 -1.07043,-1.07043 0,-0.591075 0.479339,-1.07042 1.07043,-1.07042z"/>
 </g>
</svg>
