<?xml version="1.0" encoding="utf-8"?>
<!-- Generator: Adobe Illustrator 26.0.1, SVG Export Plug-In . SVG Version: 6.00 Build 0)  -->
<svg version="1.1" id="圖層_1" xmlns="http://www.w3.org/2000/svg" xmlns:xlink="http://www.w3.org/1999/xlink" x="0px" y="0px"
	 viewBox="0 0 500 500" style="enable-background:new 0 0 500 500;" xml:space="preserve">
<style type="text/css">
	.st0{fill:#6CDEEC;}
	.st1{fill:#7171FF;}
	.st2{fill:#5D5DFB;}
</style>
<g>
	<g>
		<rect x="248.42" y="32.32" class="st0" width="4.17" height="116.05"/>
	</g>
	<g>
		<rect x="244.94" y="346.85" class="st1" width="11.12" height="116.05"/>
	</g>
	<g>
		
			<rect x="108.65" y="109.65" transform="matrix(0.5004 -0.8658 0.8658 0.5004 -90.7698 184.1751)" class="st2" width="11.12" height="122.19"/>
	</g>
	<g>
		
			<rect x="390.72" y="274.46" transform="matrix(0.5099 -0.8603 0.8603 0.5099 -92.2582 500.1769)" class="st2" width="4.17" height="113.18"/>
	</g>
	<g>
		
			<rect x="332.05" y="165.73" transform="matrix(0.8552 -0.5183 0.5183 0.8552 -32.3046 226.9356)" class="st1" width="115.9" height="11.12"/>
	</g>
	<g>
		
			<rect x="51.54" y="328.68" transform="matrix(0.8556 -0.5177 0.5177 0.8556 -155.6421 103.6066)" class="st2" width="112.67" height="4.17"/>
	</g>
	<g>
		<path class="st1" d="M250.5,40.2l181.41,104.74v209.47L250.5,459.15L69.09,354.41V144.93L250.5,40.2 M250.5,27.36L57.97,138.52
			v222.31L250.5,471.98l192.52-111.15V138.52L250.5,27.36L250.5,27.36z"/>
	</g>
	<g>
		<g>
			<g>
				<polyline class="st0" points="147.39,186.39 182.12,166.34 215.65,146.97 250.39,126.92 250.5,126.87 				"/>
			</g>
			<g>
				<polygon class="st0" points="353.61,186.81 318.88,206.86 250.5,167.09 250.5,166.97 250.39,167.04 182.25,203.7 148.86,184.98 
					250.44,126.95 250.5,126.99 				"/>
			</g>
			<g>
				<line class="st0" x1="285.18" y1="146.94" x2="285.12" y2="146.97"/>
			</g>
		</g>
		<g>
			<g>
				<polygon class="st2" points="250.5,324.81 250.5,364.78 250.39,364.85 147.78,305.6 147.5,305.45 147.39,305.38 147.39,183.5 
					182.07,203.52 182.12,206.5 182.12,285.78 182.51,285.55 250.39,324.74 				"/>
			</g>
		</g>
		<g>
			<g>
				<polygon class="st1" points="353.61,186.78 353.61,305.26 353.39,305.38 318.87,325.31 250.5,364.78 250.5,324.68 
					318.65,285.33 318.87,285.46 318.87,246.94 250.5,286.42 250.5,246.3 250.78,246.14 				"/>
			</g>
		</g>
	</g>
</g>
</svg>
