<?xml version="1.0" encoding="utf-8"?>
<!-- Generator: Adobe Illustrator 24.1.0, SVG Export Plug-In . SVG Version: 6.00 Build 0)  -->
<svg version="1.1" id="Layer_1" xmlns="http://www.w3.org/2000/svg" xmlns:xlink="http://www.w3.org/1999/xlink" x="0px" y="0px"
	 viewBox="0 0 364.3 364.3" style="enable-background:new 0 0 364.3 364.3;" xml:space="preserve">
<style type="text/css">
	.st0{fill:#AEC90B;}
</style>
<g>
	<g>
		<path class="st0" d="M188.9,318.2c-7.9-5-16.8-11.7-25.7-20.5c-4.1,1.9-8.4,3.7-12.8,5.4c9.7,7.4,20.7,13.2,32.6,17
			C185,319.5,187,318.9,188.9,318.2z"/>
		<path class="st0" d="M122.3,164.5c-1.1,25.4,2,47,7.5,65.2c9-26.2,22-46.1,35.9-61.2c-4.5-19.3-5.5-34.9-5.7-42.7
			C144.4,135.2,131.4,148.6,122.3,164.5z"/>
		<path class="st0" d="M145.1,298.7c4.8-1.7,9.3-3.6,13.7-5.6c-10.1-10.9-20.5-25.4-28.5-44.3c-2.1,8.4-3.8,17.4-5.1,27
			C130.8,284.4,137.4,292.1,145.1,298.7z"/>
		<path class="st0" d="M164.5,290.4c17.8-8.8,32.4-19.5,44.4-31c-29-1-55.1-8.3-74.1-15.5C142.9,264.2,153.9,279.4,164.5,290.4z"/>
		<path class="st0" d="M108.1,217.7c0,2.6,0.1,5.3,0.3,7.8c2.7,1.5,8.3,4.4,16.2,7.9c-5-16.1-8.3-34.8-8.5-56.4
			C111,189.6,108.1,203.3,108.1,217.7z"/>
		<path class="st0" d="M208.3,253.4c-17.2-19.5-28-40.4-34.7-58.4c-2.5-6.8-4.6-13.4-6.3-19.7c-13.3,15.3-25.6,35.4-33.8,61.7
			C152.1,244.4,178.6,252.3,208.3,253.4z"/>
		<path class="st0" d="M212.7,110.2c-13.6,0.4-26.6,3.3-38.5,8.3c9.1,1.7,22.9,5.3,38.5,12.4V110.2z"/>
		<path class="st0" d="M170.6,163.3c10-10,20.4-17.6,30-23.3c2.6-1.6,5.2-3,7.8-4.4c-19.3-8.5-35.8-11.4-42.4-12.3
			C166,129.1,166.5,144.1,170.6,163.3z"/>
		<path class="st0" d="M172.2,170.2c1.8,7.3,4.1,15.1,7.1,23c6.5,17.3,16.8,37.3,33.3,56.1V140c-3,1.6-6.1,3.3-9.2,5.2
			C193.4,151.2,182.6,159.3,172.2,170.2z"/>
		<path class="st0" d="M126.3,240.7C126.3,240.7,126.3,240.6,126.3,240.7c-7.4-3.2-13.2-6-17.1-8c1.7,12.4,5.6,24.1,11.2,34.8
			C121.9,258,123.9,249,126.3,240.7z"/>
		<path class="st0" d="M218.6,249.2c16.4-18.7,26.7-38.7,33.2-55.9c2.9-7.7,5.2-15.3,7-22.4c-10.4-11-21.3-19.2-31.3-25.3
			c-3-1.8-5.9-3.5-8.8-5V249.2z"/>
		<path class="st0" d="M218.6,304.7c9.8-5.7,18.7-12.2,26.9-19.4c-10.1-6.5-19-13.6-26.9-21.1V304.7z"/>
		<path class="st0" d="M218.6,130.5c15.5-7,29.3-10.4,38.4-12.1c-11.9-5-24.8-7.8-38.4-8.2V130.5z"/>
		<path class="st0" d="M222.4,259.5c8,7.7,17.2,15,27.7,21.6c9.5-9,17.8-19,25.1-29.7C259.8,255.5,241.7,258.8,222.4,259.5z"/>
		<path class="st0" d="M168.9,294.9c9.5,9.2,19.1,15.9,27.1,20.6c5.8-2.3,11.3-4.8,16.6-7.6V264
			C200.8,275.5,186.4,286.1,168.9,294.9z"/>
		<path class="st0" d="M230.3,140.3c9.6,5.9,20,13.6,30.1,23.7c4.2-19.5,4.8-34.8,4.8-40.7c-6.8,0.8-23.5,3.7-43.2,12.3
			C224.8,137,227.6,138.6,230.3,140.3z"/>
		<path class="st0" d="M271.2,125.7c-0.2,7.9-1.1,23.8-5.8,43.5c11.1,12.1,21.5,27.4,29.8,46.4c5.6-12.3,10.2-25.1,13.9-37.8
			c0.1-4.3,0.1-8.7-0.1-13.3C299.9,148.5,286.9,135.2,271.2,125.7z"/>
		<path class="st0" d="M257.5,195.1c-6.7,18-17.5,38.9-34.7,58.4c21.4-0.8,41.1-4.9,57.4-9.7c4.2-6.8,8.1-13.8,11.6-21
			c-7.7-19.1-17.6-34.4-28.2-46.7C261.9,182.2,259.9,188.6,257.5,195.1z"/>
	</g>
	<path class="st0" d="M324.9,17C-23.5,58.5,49.3,287.5,61.4,319.9l-23.5,23.5l5.6,5.6L68,324.5c41.2,6.8,75.9,5.5,105.1-1.7
		c-41.5-16.9-70.9-57.6-70.9-105.2c0-43.6,24.8-81.6,61-100.6l0-0.2c0.1,0,0.2,0,0.3,0c15.6-8.1,33.4-12.8,52.2-12.8
		c18.8,0,36.6,4.6,52.2,12.8c0.1,0,0.2,0,0.2,0l0,0.1c19,9.9,34.9,25.1,45.7,43.6C331.7,87,324.9,17,324.9,17z"/>
</g>
</svg>
