<?xml version="1.0" encoding="utf-8"?>
<!-- Generator: Adobe Illustrator 26.0.1, SVG Export Plug-In . SVG Version: 6.00 Build 0)  -->
<svg version="1.1" id="Layer_1" xmlns="http://www.w3.org/2000/svg" xmlns:xlink="http://www.w3.org/1999/xlink" x="0px" y="0px"
	 viewBox="0 0 512 512" style="enable-background:new 0 0 512 512;" xml:space="preserve">
<style type="text/css">
	.st0{fill:url(#Path_3798_00000039120627541199268270000003919693830974309567_);}
	.st1{fill:url(#Path_3799_00000160868887018443556850000002709060591469004452_);}
	.st2{fill:#09F5C2;}
	.st3{fill:#E112FD;}
</style>
<g id="Group_9384_00000067228366464536683600000010791022339976879758_" transform="translate(-90.8 -100.667)">
	
		<linearGradient id="Path_3798_00000049930321507746854150000009622744737891941018_" gradientUnits="userSpaceOnUse" x1="-248.5775" y1="956.3676" x2="-251.253" y2="955.5327" gradientTransform="matrix(115.1655 0 0 -212.9494 29210.5215 203896.2656)">
		<stop  offset="0" style="stop-color:#EA08FE"/>
		<stop  offset="0.253" style="stop-color:#B73BF9"/>
		<stop  offset="0.541" style="stop-color:#7A7BF5"/>
		<stop  offset="1" style="stop-color:#6192F1"/>
	</linearGradient>
	
		<path id="Path_3798_00000024003923737167936540000006586666256507243140_" style="fill:url(#Path_3798_00000049930321507746854150000009622744737891941018_);" d="
		M580.8,252.5l-35.3,201.2c-2.8,16-13,29.7-27.5,37l-144.9,73c-5.9,3-13.2,0.6-16.2-5.3c-0.8-1.7-1.3-3.5-1.3-5.4V164
		c0-9,7.3-16.3,16.3-16.3c1.8,0,3.6,0.3,5.3,0.9l178.6,61.6C573.4,216.3,584,234.2,580.8,252.5z M422.3,509.9
		c18.1,1.5,34.4-17.3,36.4-41.9c2-24.6-11.1-45.7-29.2-47.2c-18.1-1.5-34.4,17.3-36.4,41.9C391,487.3,404.1,508.4,422.3,509.9
		L422.3,509.9z M399.9,356c-0.6,24.1,13.8,44,32.1,44.4c18.4,0.5,33.8-18.6,34.4-42.7c0.6-24.1-13.8-44-32.1-44.4
		S400.5,331.9,399.9,356z M452.1,201.6c-18.1-1.5-34.4,17.3-36.4,41.9c-2,24.6,11.1,45.7,29.2,47.2c18.1,1.5,34.4-17.3,36.4-41.9
		C483.4,224.2,470.3,203.1,452.1,201.6z M489.6,432.6c-1.5,18.1,3.9,33.3,12,34c8.1,0.7,15.9-13.5,17.3-31.6
		c1.5-18.1-3.9-33.3-12-34C498.9,400.4,491.1,414.5,489.6,432.6z M501.8,352.9c-1.5,18.1,3.9,33.3,12,34
		c8.1,0.7,15.9-13.5,17.3-31.6s-3.9-33.3-12-34C511.1,320.6,503.3,334.8,501.8,352.9L501.8,352.9z M531.3,235.2
		c-8.1-0.7-15.9,13.5-17.3,31.6c-1.5,18.1,3.9,33.3,12,34s15.9-13.5,17.3-31.6S539.4,235.8,531.3,235.2L531.3,235.2z"/>
	
		<linearGradient id="Path_3799_00000178915535795496745510000011869815353369710516_" gradientUnits="userSpaceOnUse" x1="-248.9957" y1="956.1486" x2="-251.3615" y2="955.4097" gradientTransform="matrix(115.1664 0 0 -212.9495 29086.7676 203896.4062)">
		<stop  offset="0" style="stop-color:#6192F1"/>
		<stop  offset="0.198" style="stop-color:#45A3ED"/>
		<stop  offset="0.378" style="stop-color:#33AEEB"/>
		<stop  offset="0.508" style="stop-color:#2DB3EB"/>
		<stop  offset="0.607" style="stop-color:#28B9E6"/>
		<stop  offset="0.75" style="stop-color:#1DCDDA"/>
		<stop  offset="0.92" style="stop-color:#0AECC6"/>
		<stop  offset="1" style="stop-color:#00FEBC"/>
	</linearGradient>
	
		<path id="Path_3799_00000126298912992697735460000009437547149718830759_" style="fill:url(#Path_3799_00000178915535795496745510000011869815353369710516_);" d="
		M320.9,563.8l-144.9-73c-14.5-7.3-24.7-21-27.5-37l-35.3-201.2c-3.2-18.3,7.4-36.2,24.9-42.3l178.6-61.6
		c8.5-2.9,17.8,1.6,20.7,10.1c0.6,1.7,0.9,3.5,0.9,5.3V553c0,6.7-5.4,12.1-12.1,12.1C324.4,565.1,322.6,564.6,320.9,563.8z
		 M198.3,426.5c-1.5-20.9-10.3-37.2-19.7-36.5c-9.3,0.7-15.6,18.2-14.1,39c1.5,20.9,10.3,37.2,19.7,36.5
		C193.5,464.8,199.8,447.3,198.3,426.5L198.3,426.5z M248.8,346.8c-1.6-21.2-12.2-37.7-23.8-36.8c-11.6,0.9-19.7,18.7-18.2,39.9
		c1.6,21.2,12.2,37.7,23.8,36.8S250.3,368,248.8,346.8L248.8,346.8z M307.6,249c-1.7-22.9-15.3-40.5-30.5-39.4
		c-15.2,1.1-26.1,20.6-24.4,43.4c1.7,22.9,15.3,40.5,30.5,39.4C298.4,291.3,309.3,271.9,307.6,249L307.6,249z"/>
	<g id="Group_9376_00000127740290280568671940000014877615930327444864_" transform="translate(119.095 135.179)">
		<g id="Group_9373_00000103231399035471793520000005645050306273734544_" transform="translate(0 92.653)">
			<path id="Path_3800_00000165234027873221384050000003360262569862324866_" class="st2" d="M55.3,200.9c1,14.2,6,25.8,11.8,28.9
				c-0.8,0.5-1.7,0.8-2.6,0.8c-7.3,0.6-14.1-12.8-15.3-29.8c-1.2-17,3.7-31.2,11-31.8c1.2-0.1,2.5,0.2,3.5,0.8
				C57.9,173.3,54.3,186,55.3,200.9z"/>
		</g>
		<g id="Group_9374_00000181792976266660883860000001178542881767046799_" transform="translate(21.994 51.115)">
			<path id="Path_3801_00000120544313685031983400000007267107631681193348_" class="st2" d="M76.8,163.4c1,15.4,7.3,27.9,14.7,30.8
				c-0.8,0.4-1.7,0.6-2.6,0.7c-9.1,0.7-17.4-13.4-18.6-31.5c-1.2-18.1,5.1-33.4,14.2-34.2c1.4-0.1,2.7,0.1,4,0.7
				C80.8,133,75.7,147,76.8,163.4z"/>
		</g>
		<g id="Group_9375_00000004510174678507094740000007690194246571009444_" transform="translate(45.044 0)">
			<path id="Path_3802_00000026863253590058099460000006395712085954354817_" class="st2" d="M100.8,117.6
				c1.2,16.9,10.1,30.5,20.8,33.4c-1,0.3-2,0.5-3,0.6c-13.1,1-24.8-14.2-26.3-33.9s8-36.4,21-37.4c1.8-0.1,3.7,0.1,5.4,0.6
				C107.4,83.9,99.5,99.4,100.8,117.6z"/>
		</g>
	</g>
	<g id="Group_9383_00000029032765830791870860000012826069901613308853_" transform="translate(247.86 130.521)">
		<g id="Group_9377_00000128479715386266506130000003323960789669762702_" transform="translate(40.298 101.876)">
			<path id="Path_3803_00000098197063718540174860000001255315375104669072_" class="st3" d="M228.6,202.4
				c-1.2,15.4-7.8,27.5-14.7,26.9c-0.9-0.1-1.8-0.4-2.6-0.8c5.5-3,10.1-13.4,11.2-26.1c1.1-13.4-2.2-24.9-7.7-28.1
				c1.1-0.6,2.3-0.9,3.6-0.8C225.3,174,229.9,187,228.6,202.4z"/>
		</g>
		<g id="Group_9378_00000047046158092976315190000012184313984705534106_" transform="translate(46.185 61.46)">
			<path id="Path_3804_00000111876358190437279320000000538656502209731971_" class="st3" d="M234.3,163.6
				c-1.2,15.4-7.8,27.5-14.7,26.9c-0.9-0.1-1.8-0.4-2.6-0.8c5.5-3,10.1-13.4,11.2-26.1c1.1-13.4-2.2-24.9-7.6-28.1
				c1.1-0.6,2.3-0.9,3.6-0.8C231,135.2,235.5,148.2,234.3,163.6z"/>
		</g>
		<g id="Group_9379_00000085954466293872105320000011585573543549174698_" transform="translate(51.873 17.317)">
			<path id="Path_3805_00000090994908227634208590000005637510147966442922_" class="st3" d="M239.7,121.3
				c-1.2,15.4-7.8,27.5-14.7,26.9c-0.9-0.1-1.8-0.4-2.6-0.8c5.5-3,10.1-13.4,11.2-26.1c1.1-13.4-2.2-24.9-7.6-28.1
				c1.1-0.6,2.3-0.9,3.6-0.8C236.4,92.9,241,105.8,239.7,121.3z"/>
		</g>
		<g id="Group_9380_00000035500215588709740310000015229345787307669178_" transform="translate(0 111.832)">
			<path id="Path_3806_00000073710778257390310270000008783527995871227826_" class="st3" d="M207.4,225.4
				c-1.8,22-16.4,38.8-32.7,37.5c-0.7-0.1-1.4-0.2-2.2-0.3c13.7-2.6,25.2-17.9,26.7-37.2c1.7-21.1-8.9-39.2-24.1-42
				c2-0.4,3.9-0.5,5.9-0.3C197.5,184.4,209.2,203.3,207.4,225.4z"/>
		</g>
		<g id="Group_9381_00000051381818208349630530000001366663466401346228_" transform="translate(3.825 56.503)">
			<path id="Path_3807_00000179639165528707465700000009713178749569562779_" class="st3" d="M211.1,172.3
				c-1.8,22-16.4,38.8-32.7,37.5c-0.7-0.1-1.4-0.2-2.2-0.3c13.7-2.6,25.2-17.9,26.7-37.2c1.7-21.1-8.9-39.2-24.1-42
				c2-0.4,3.9-0.5,5.9-0.3C201.1,131.3,212.9,150.2,211.1,172.3z"/>
		</g>
		<g id="Group_9382_00000110440227931937271730000004567351000700446851_" transform="translate(11.281 0)">
			<path id="Path_3808_00000047776393677505025140000004062850975075752847_" class="st3" d="M218.2,118
				c-1.8,22-16.4,38.8-32.6,37.5c-0.7-0.1-1.4-0.2-2.2-0.3c13.7-2.6,25.2-17.9,26.7-37.2c1.7-21.1-8.9-39.2-24.1-42
				c2-0.4,3.9-0.5,5.9-0.3C208.3,77,220,96,218.2,118z"/>
		</g>
	</g>
</g>
</svg>
