<svg height="256.001" viewBox="0 0 256 256.001" width="256" xmlns="http://www.w3.org/2000/svg" xmlns:xlink="http://www.w3.org/1999/xlink"><linearGradient id="a" gradientUnits="objectBoundingBox" x1=".843" x2=".206" y1=".135" y2=".886"><stop offset="0" stop-color="#b6509e"/><stop offset="1" stop-color="#2ebac6"/></linearGradient><path d="m128 256a128.976 128.976 0 0 1 -25.8-2.6 127.309 127.309 0 0 1 -45.77-19.261 128.366 128.366 0 0 1 -46.375-56.315 127.357 127.357 0 0 1 -7.455-24.024 129.251 129.251 0 0 1 0-51.593 127.31 127.31 0 0 1 19.26-45.77 128.372 128.372 0 0 1 56.317-46.378 127.33 127.33 0 0 1 24.023-7.459 129.244 129.244 0 0 1 51.593 0 127.308 127.308 0 0 1 45.77 19.26 128.367 128.367 0 0 1 46.375 56.316 127.343 127.343 0 0 1 7.462 24.024 129.248 129.248 0 0 1 0 51.593 127.3 127.3 0 0 1 -19.26 45.77 128.382 128.382 0 0 1 -56.316 46.375 127.4 127.4 0 0 1 -24.024 7.462 128.977 128.977 0 0 1 -25.8 2.6zm0-242.287a115.145 115.145 0 0 0 -23.033 2.322 113.657 113.657 0 0 0 -40.867 17.197 114.622 114.622 0 0 0 -41.4 50.283 113.7 113.7 0 0 0 -6.659 21.452 115.4 115.4 0 0 0 0 46.065 113.66 113.66 0 0 0 17.2 40.866 114.627 114.627 0 0 0 50.282 41.407 113.75 113.75 0 0 0 21.453 6.658 115.381 115.381 0 0 0 46.065 0 113.609 113.609 0 0 0 40.866-17.2 114.622 114.622 0 0 0 41.393-50.278 113.741 113.741 0 0 0 6.659-21.453 115.4 115.4 0 0 0 0-46.065 113.662 113.662 0 0 0 -17.2-40.865 114.619 114.619 0 0 0 -50.274-41.402 113.74 113.74 0 0 0 -21.453-6.659 115.145 115.145 0 0 0 -23.032-2.327z" fill="url(#a)"/><circle cx="128" cy="128" fill="#0e3158" r="98"/><g fill="#fff" transform="translate(70.578 62.922)"><path d="m17.776 27.342 9.566-5.5 1.283 2.222 35.249-20.34-2.574-1.481-2.59-1.502-1.283-.741-57.427 33.173v1.481l16.493-9.534z"/><path d="m17.776 47.794 27.624-15.961 1.294 2.243 35.248-20.342-2.577-1.5-2.587-1.481-1.294-.741-75.484 43.582v1.481l16.493-9.535z" transform="translate(0 .432)"/><path d="m17.776 58.021 36.657-21.177 1.294 2.222 35.249-20.366-2.587-1.45-2.577-1.513-1.293-.737-84.519 48.8v1.513l16.493-9.535z" transform="translate(0 .648)"/><path d="m17.776 68.226 45.952-26.526 1.294 2.222 34.988-20.2-2.587-1.5-2.577-1.481-1.293-.741-93.553 54.027v1.481l16.493-9.535z" transform="translate(0 .863)"/><path d="m17.776 78.422 54.986-31.734 1.294 2.253 34.988-20.217-2.587-1.492-2.577-1.5-1.294-.741-102.586 59.241v1.481l16.493-9.513z" transform="translate(0 1.08)"/><path d="m112.914 30.752-1.294-.762-111.62 64.469v1.481l16.493-9.514 1.283 2.222 54.986-31.733 1.294 2.222 40.788-23.537v-3.722z" transform="translate(0 1.294)"/><path d="m6.832 101.917 9.253-5.331 1.283 2.222 54.893-31.681 1.294 2.243 41.049-23.7v-7.46l-109.034 62.967z" transform="translate(.241 1.65)"/><path d="m71.887 77.137 1.293 2.243 41.049-23.7v-7.46l-100 57.73 1.283.751 9.389-5.425 1.294 2.243" transform="translate(.615 2.084)"/><path d="m24.174 111.5 9.389-5.445 1.294 2.243 36.657-21.171 1.294 2.243 41.049-23.7v-7.46l-91 52.524z" transform="translate(.987 2.515)"/><path d="m32.834 116.28 9.389-5.425 1.294 2.222 27.624-15.94 1.294 2.222 41.049-23.712v-7.427l-81.944 47.319z" transform="translate(1.362 2.947)"/><path d="m40.2 120.313 1.294.741 9.42-5.425 1.262 2.243 18.59-10.755 1.294 2.253 41.049-23.712v-7.448z" transform="translate(1.736 3.378)"/><path d="m50.154 125.858 9.389-5.456 1.294 2.253 9.556-5.55 1.294 2.253 41.049-23.691v-7.447l-63.874 36.9z" transform="translate(2.11 3.81)"/><path d="m72.908 8.725-2.576-1.482-2.588-1.481-1.283-.772-66.461 38.379v1.481l16.493-9.5 1.283 2.222 18.6-10.734 1.314 2.253z" transform="translate(0 .217)"/></g></svg>