<?xml version="1.0" encoding="utf-8"?>
<!-- Generator: Adobe Illustrator 25.0.1, SVG Export Plug-In . SVG Version: 6.00 Build 0)  -->
<svg version="1.1" id="Layer_2" xmlns="http://www.w3.org/2000/svg" xmlns:xlink="http://www.w3.org/1999/xlink" x="0px" y="0px"
	 viewBox="0 0 500 500" style="enable-background:new 0 0 500 500;" xml:space="preserve">
<style type="text/css">
	.st0{fill:#0000FF;}
	.st1{fill:#C9783D;}
	.st2{fill:#F7B370;}
	.st3{fill:#2F0700;}
	.st4{fill:#E48D94;}
</style>
<g>
	<g>
		<path class="st0" d="M168,280.69c-0.24-0.13-0.49-0.27-0.73-0.41l0.21-0.38c0.25,0.13,0.5,0.27,0.74,0.41L168,280.69z"/>
	</g>
	<g>
		<path class="st0" d="M221.2,222.24l-0.21-0.38c0.49-0.28,0.99-0.55,1.51-0.8c0.59-0.29,1.2-0.55,1.8-0.77l0.17,0.4
			c-0.59,0.26-1.18,0.53-1.77,0.81C222.18,221.75,221.68,221.99,221.2,222.24z"/>
	</g>
	<g>
		<path class="st0" d="M99.36,43.66c-0.98-0.65-1.94-1.28-2.86-1.87l0.23-0.37c1,0.56,1.97,1.2,2.89,1.89L99.36,43.66z"/>
	</g>
	<g>
		<path class="st0" d="M157,299.55c-0.41-0.23-0.82-0.5-1.21-0.79l0.25-0.36c0.39,0.25,0.79,0.51,1.19,0.77L157,299.55z M168,280.69
			c-0.24-0.13-0.49-0.27-0.73-0.41l0.21-0.38c0.25,0.13,0.5,0.27,0.74,0.41L168,280.69z M221.2,222.24l-0.21-0.38
			c0.49-0.28,0.99-0.55,1.51-0.8h0c0.59-0.29,1.2-0.55,1.8-0.78l0.17,0.4c-0.59,0.26-1.18,0.53-1.77,0.81
			C222.18,221.75,221.68,221.99,221.2,222.24z"/>
	</g>
	<g>
		<path class="st0" d="M157,299.55c-0.41-0.23-0.82-0.5-1.21-0.79l0.25-0.36c0.39,0.25,0.79,0.51,1.19,0.77L157,299.55z"/>
	</g>
	<g>
		<path class="st0" d="M99.36,43.66c-0.98-0.65-1.94-1.28-2.86-1.87l0.23-0.37c1,0.56,1.97,1.2,2.89,1.89L99.36,43.66z"/>
	</g>
	<g>
		<path class="st0" d="M168,280.69c-0.24-0.13-0.49-0.27-0.73-0.41l0.21-0.38c0.25,0.13,0.5,0.27,0.74,0.41L168,280.69z"/>
	</g>
	<g>
		<path class="st0" d="M157,299.55c-0.41-0.23-0.82-0.5-1.21-0.79l0.25-0.36c0.39,0.25,0.79,0.51,1.19,0.77L157,299.55z"/>
	</g>
	<g>
		<path class="st0" d="M221.2,222.24l-0.21-0.38c0.49-0.28,0.99-0.55,1.51-0.8l0.25-0.12l0.1,0.49l-0.16,0.07
			C222.18,221.75,221.68,221.99,221.2,222.24z"/>
	</g>
	<g>
		<path class="st1" d="M162.14,99.43c-38.33,19.79-69.13,52.13-86.96,91.59C63.42,159.49,57,125.37,57,89.75
			c0-10.51,0.56-20.89,1.65-31.12c0.05,0.02,0.1,0.05,0.15,0.07c2.48-11.65,12.82-20.38,25.21-20.38c4.58,0,8.87,1.19,12.6,3.28
			c0,0,0,0,0.01,0c0.96,0.62,1.91,1.24,2.86,1.87h0C119.07,56.43,137,71.7,152.88,88.9C156.05,92.33,159.13,95.84,162.14,99.43z"/>
	</g>
	<g>
		<path class="st0" d="M99.36,43.66c-0.98-0.65-1.94-1.28-2.86-1.87l0.23-0.37c1,0.56,1.97,1.2,2.89,1.89L99.36,43.66z"/>
	</g>
	<g>
		<path class="st0" d="M157,299.55c-0.41-0.23-0.82-0.5-1.21-0.79l0.25-0.36c0.39,0.25,0.79,0.51,1.19,0.77L157,299.55z M168,280.69
			c-0.24-0.13-0.49-0.27-0.73-0.41l0.21-0.38c0.25,0.13,0.5,0.27,0.74,0.41L168,280.69z M221.2,222.24l-0.21-0.38
			c0.49-0.28,0.99-0.55,1.51-0.8h0c0.59-0.29,1.2-0.55,1.8-0.78l0.17,0.4c-0.59,0.26-1.18,0.53-1.77,0.81
			C222.18,221.75,221.68,221.99,221.2,222.24z"/>
	</g>
	<g>
		<path class="st0" d="M221.2,222.24l-0.21-0.38c0.49-0.28,0.99-0.55,1.51-0.8c0.59-0.29,1.2-0.55,1.8-0.77l0.17,0.4
			c-0.59,0.26-1.18,0.53-1.77,0.81C222.18,221.75,221.68,221.99,221.2,222.24z"/>
	</g>
	<g>
		<path class="st0" d="M157,299.55c-0.41-0.23-0.82-0.5-1.21-0.79l0.25-0.36c0.39,0.25,0.79,0.51,1.19,0.77L157,299.55z"/>
	</g>
	<g>
		<path class="st0" d="M168,280.69c-0.24-0.13-0.49-0.27-0.73-0.41l0.21-0.38c0.25,0.13,0.5,0.27,0.74,0.41L168,280.69z"/>
	</g>
	<g>
		<path class="st0" d="M332,280.69l-0.22-0.38c0.24-0.14,0.49-0.28,0.74-0.41l0.21,0.38C332.49,280.42,332.24,280.56,332,280.69z"/>
	</g>
	<g>
		<path class="st0" d="M278.8,222.24c-0.48-0.25-0.99-0.5-1.5-0.74c-0.59-0.28-1.18-0.55-1.77-0.81l0.17-0.4
			c0.6,0.23,1.21,0.49,1.8,0.78c0.52,0.25,1.02,0.52,1.51,0.8L278.8,222.24z"/>
	</g>
	<g>
		<path class="st0" d="M400.64,43.66l-0.25-0.36c0.92-0.69,1.89-1.32,2.89-1.89l0.23,0.37C402.58,42.38,401.62,43.01,400.64,43.66z"
			/>
	</g>
	<g>
		<path class="st0" d="M343,299.55l-0.23-0.37c0.4-0.26,0.8-0.52,1.19-0.77l0.25,0.36C343.83,299.05,343.42,299.32,343,299.55z
			 M332,280.69l-0.22-0.38c0.24-0.14,0.49-0.28,0.74-0.41l0.21,0.38C332.49,280.42,332.24,280.56,332,280.69z M278.8,222.24
			c-0.48-0.25-0.99-0.5-1.5-0.74c-0.59-0.28-1.18-0.55-1.77-0.81l0.17-0.4c0.6,0.23,1.21,0.49,1.8,0.78
			c0.52,0.25,1.02,0.52,1.51,0.8L278.8,222.24z"/>
	</g>
	<g>
		<path class="st0" d="M343,299.55l-0.23-0.37c0.4-0.26,0.8-0.52,1.19-0.77l0.25,0.36C343.83,299.05,343.42,299.32,343,299.55z"/>
	</g>
	<g>
		<path class="st0" d="M400.64,43.66l-0.25-0.36c0.92-0.69,1.89-1.32,2.89-1.89l0.23,0.37C402.58,42.38,401.62,43.01,400.64,43.66z"
			/>
	</g>
	<g>
		<path class="st0" d="M332,280.69l-0.22-0.38c0.24-0.14,0.49-0.28,0.74-0.41l0.21,0.38C332.49,280.42,332.24,280.56,332,280.69z"/>
	</g>
	<g>
		<path class="st0" d="M343,299.55l-0.23-0.37c0.4-0.26,0.8-0.52,1.19-0.77l0.25,0.36C343.83,299.05,343.42,299.32,343,299.55z"/>
	</g>
	<g>
		<path class="st0" d="M278.8,222.24c-0.48-0.25-0.99-0.5-1.5-0.74l-0.16-0.07l0.1-0.49l0.25,0.12c0.52,0.25,1.02,0.52,1.51,0.8
			L278.8,222.24z"/>
	</g>
	<g>
		<path class="st1" d="M443,89.75c0,35.62-6.42,69.74-18.17,101.27c-17.83-39.46-48.63-71.8-86.96-91.59c3-3.58,6.09-7.1,9.26-10.53
			c15.87-17.2,33.8-32.47,53.4-45.42h0c0.95-0.63,1.91-1.25,2.86-1.87c0,0,0,0,0.01,0c3.72-2.09,8.02-3.28,12.6-3.28
			c12.38,0,22.73,8.74,25.21,20.38c0.05-0.02,0.1-0.05,0.15-0.07C442.44,68.86,443,79.24,443,89.75z"/>
	</g>
	<g>
		<path class="st0" d="M400.64,43.66l-0.25-0.36c0.92-0.69,1.89-1.32,2.89-1.89l0.23,0.37C402.58,42.38,401.62,43.01,400.64,43.66z"
			/>
	</g>
	<g>
		<path class="st0" d="M343,299.55l-0.23-0.37c0.4-0.26,0.8-0.52,1.19-0.77l0.25,0.36C343.83,299.05,343.42,299.32,343,299.55z
			 M332,280.69l-0.22-0.38c0.24-0.14,0.49-0.28,0.74-0.41l0.21,0.38C332.49,280.42,332.24,280.56,332,280.69z M278.8,222.24
			c-0.48-0.25-0.99-0.5-1.5-0.74c-0.59-0.28-1.18-0.55-1.77-0.81l0.17-0.4c0.6,0.23,1.21,0.49,1.8,0.78
			c0.52,0.25,1.02,0.52,1.51,0.8L278.8,222.24z"/>
	</g>
	<g>
		<path class="st2" d="M441.75,268.21c-0.24-27.5-6.27-53.62-16.93-77.2c-17.83-39.46-48.63-71.8-86.96-91.59
			c-4.43-2.29-8.96-4.41-13.59-6.35c-24.2,3.81-49.01,5.79-74.28,5.79s-50.08-1.98-74.28-5.79c-4.62,1.94-9.15,4.06-13.59,6.35
			c-38.33,19.79-69.13,52.13-86.96,91.59c-10.66,23.58-16.69,49.7-16.93,77.2c-0.01,0.57-0.01,1.14-0.01,1.7
			c0,81.11,50.35,150.45,121.5,178.48c19.97,7.87,41.58,12.48,64.17,13.18c2.02,0.06,4.05,0.1,6.08,0.1s4.06-0.03,6.08-0.1
			c22.59-0.7,44.2-5.32,64.17-13.18c71.15-28.03,121.5-97.38,121.5-178.48C441.76,269.35,441.76,268.78,441.75,268.21z
			 M344.09,298.58C344.09,298.58,344.09,298.58,344.09,298.58c-0.38,0.29-0.78,0.54-1.19,0.78c0,0,0,0-0.01,0
			c-17.54,11.49-33.08,25.78-45.99,42.23c-0.86,0.49-1.73,0.98-2.59,1.47c-3.12,7.24-7.96,13.56-14.01,18.45
			c-8.28,6.7-18.82,10.71-30.3,10.71c-11.48,0-22.02-4.01-30.3-10.71c-6.05-4.89-10.89-11.21-14.01-18.45
			c-0.87-0.49-1.73-0.97-2.59-1.47c-12.91-16.45-28.45-30.74-45.99-42.23c0,0,0,0-0.01,0c-0.41-0.23-0.81-0.49-1.19-0.77
			c0,0,0,0-0.01,0c-2.66-1.99-4.38-5.17-4.38-8.74c0-6.03,4.89-10.92,10.92-10.92c1.77,0,3.45,0.42,4.93,1.18
			c0.25,0.13,0.49,0.26,0.73,0.4c0,0,0,0,0,0c5.8,3.17,12.15,5.47,18.87,6.7c3.76,0.69,7.63,1.05,11.59,1.05
			c8.43,0,16.49-1.64,23.85-4.62c2.51-1.02,4.94-2.19,7.27-3.5c0,0.03,0,0.07,0,0.11c6.12-2.84,12.93-4.44,20.12-4.47
			c-0.52-3.2-2.09-6.04-4.35-8.16c-2.57-2.41-6.02-3.88-9.82-3.88c-2.38,0-4.63,0.58-6.6,1.61c-0.04-0.62-0.09-1.24-0.14-1.86
			c-10.74-1.62-18.98-10.89-18.98-22.09c0-8.26,4.48-15.47,11.15-19.34c0,0,0.01,0,0.01-0.01c0.49-0.28,0.98-0.55,1.49-0.79
			c0.58-0.28,1.18-0.54,1.79-0.77c0,0,0,0,0,0c7.84-3.46,16.51-5.37,25.62-5.37s17.79,1.92,25.62,5.37c0,0,0,0,0,0
			c0.61,0.23,1.2,0.49,1.79,0.77c0.51,0.24,1.01,0.51,1.49,0.79c0,0,0.01,0,0.01,0.01c6.66,3.87,11.15,11.08,11.15,19.34
			c0,11.2-8.23,20.47-18.98,22.09c-0.05,0.62-0.09,1.24-0.14,1.86c-1.98-1.03-4.22-1.61-6.6-1.61c-3.8,0-7.25,1.48-9.82,3.88
			c-2.26,2.12-3.83,4.96-4.35,8.16c7.19,0.03,14,1.63,20.12,4.47c0-0.03,0-0.07,0-0.11c2.34,1.32,4.76,2.49,7.27,3.5
			c7.36,2.98,15.42,4.62,23.85,4.62c3.96,0,7.83-0.36,11.59-1.05c6.72-1.24,13.07-3.53,18.87-6.7c0,0,0,0,0,0
			c0.24-0.14,0.48-0.28,0.73-0.4c1.48-0.75,3.16-1.18,4.93-1.18c6.03,0,10.92,4.89,10.92,10.92
			C348.47,293.41,346.75,296.59,344.09,298.58z"/>
	</g>
	<g>
		<path class="st3" d="M290.06,241.39c0,11.2-8.23,20.47-18.98,22.09c-0.05,0.62-0.09,1.24-0.14,1.86c-1.98-1.03-4.22-1.61-6.6-1.61
			c-3.8,0-7.25,1.48-9.82,3.88c-2.26,2.12-3.83,4.96-4.35,8.16c-0.06,0-0.12,0-0.18,0s-0.12,0-0.18,0c-0.52-3.2-2.09-6.04-4.35-8.16
			c-2.57-2.41-6.02-3.88-9.82-3.88c-2.38,0-4.63,0.58-6.6,1.61c-0.04-0.62-0.09-1.24-0.14-1.86c-10.74-1.62-18.98-10.89-18.98-22.09
			c0-8.26,4.48-15.47,11.15-19.34c0,0,0.01,0,0.01-0.01c0.5-0.25,1-0.5,1.5-0.74c0.59-0.28,1.18-0.55,1.78-0.81c0,0,0,0,0,0
			c7.84-3.46,16.51-5.37,25.62-5.37s17.79,1.92,25.62,5.37c0,0,0,0,0,0c0.6,0.26,1.19,0.53,1.78,0.81c0.5,0.24,1.01,0.49,1.5,0.74
			c0,0,0.01,0,0.01,0.01C285.58,225.92,290.06,233.13,290.06,241.39z"/>
	</g>
	<g>
		<path class="st0" d="M278.8,222.24c-0.48-0.25-0.99-0.5-1.5-0.74c-0.59-0.28-1.18-0.55-1.77-0.81l0.17-0.4
			c0.6,0.23,1.21,0.49,1.8,0.78c0.52,0.25,1.02,0.52,1.51,0.8L278.8,222.24z"/>
	</g>
	<g>
		<path class="st3" d="M348.47,289.84c0,3.58-1.72,6.75-4.38,8.74c0,0,0,0-0.01,0c-0.4,0.25-0.79,0.51-1.19,0.77c0,0,0,0-0.01,0
			c-17.54,11.49-33.08,25.78-45.99,42.23c-0.86,0.49-1.73,0.98-2.59,1.47c-3.12,7.24-7.96,13.56-14.01,18.45
			c-8.28,6.7-18.82,10.71-30.3,10.71c-11.48,0-22.02-4.01-30.3-10.71c-6.05-4.89-10.89-11.21-14.01-18.45
			c-0.87-0.49-1.73-0.97-2.59-1.47c-12.91-16.45-28.45-30.74-45.99-42.23c0,0,0,0-0.01,0c-0.4-0.26-0.79-0.52-1.19-0.77
			c0,0,0,0-0.01,0c-2.66-1.99-4.38-5.17-4.38-8.74c0-6.03,4.89-10.92,10.92-10.92c1.77,0,3.45,0.42,4.93,1.18
			c0.24,0.14,0.48,0.27,0.73,0.4c0,0,0,0,0,0c5.8,3.17,12.15,5.47,18.87,6.7c3.76,0.69,7.63,1.05,11.59,1.05
			c8.43,0,16.49-1.64,23.85-4.62c2.51-1.02,4.94-2.19,7.27-3.5c0,0.03,0,0.07,0,0.11c6.12-2.84,12.93-4.44,20.12-4.47
			c0.06,0,0.12,0,0.18,0s0.12,0,0.18,0c7.19,0.03,14,1.63,20.12,4.47c0-0.03,0-0.07,0-0.11c2.34,1.32,4.76,2.49,7.27,3.5
			c7.36,2.98,15.42,4.62,23.85,4.62c3.96,0,7.83-0.36,11.59-1.05c6.72-1.24,13.07-3.53,18.87-6.7c0,0,0,0,0,0
			c0.24-0.13,0.49-0.27,0.73-0.4c1.48-0.75,3.16-1.18,4.93-1.18C343.58,278.92,348.47,283.81,348.47,289.84z"/>
	</g>
	<g>
		<path class="st0" d="M343,299.55l-0.23-0.37c0.4-0.26,0.8-0.52,1.19-0.77l0.25,0.36C343.83,299.05,343.42,299.32,343,299.55z"/>
	</g>
	<g>
		<path class="st0" d="M332,280.69l-0.22-0.38c0.24-0.14,0.49-0.28,0.74-0.41l0.21,0.38C332.49,280.42,332.24,280.56,332,280.69z"/>
	</g>
	<g>
		<path class="st3" d="M199.71,195.95c-0.01-0.02-1.05-1.97-5.14-3.87c-0.64-0.3-2.48-0.64-7.65-0.62
			c-3.95,0.02-8.94,0.23-14.21,0.46c-9.42,0.41-20.09,0.87-27.38,0.27l0.19-2.35c7.14,0.59,17.74,0.13,27.08-0.27
			c12.56-0.54,20.4-0.81,22.96,0.38c4.87,2.27,6.14,4.71,6.27,4.98l-2.13,1.01L199.71,195.95z"/>
	</g>
	<g>
		<path class="st3" d="M300.29,195.95l0.01-0.02l-2.13-1.01c0.13-0.27,1.39-2.71,6.27-4.98c2.57-1.19,10.4-0.92,22.96-0.38
			c9.35,0.4,19.94,0.86,27.08,0.27l0.19,2.35c-7.29,0.6-17.96,0.14-27.38-0.27c-5.28-0.23-10.26-0.44-14.21-0.46
			c-5.17-0.02-7.01,0.33-7.65,0.62C301.34,193.99,300.3,195.93,300.29,195.95z"/>
	</g>
	<g>
		<path class="st3" d="M250.04,363.03H250c-6.23,0-12.27-1.22-17.95-3.62c-5.49-2.32-10.43-5.65-14.66-9.89
			c-4.24-4.24-7.56-9.17-9.89-14.66c-2.41-5.69-3.62-11.73-3.62-17.95c0-2.63,0.22-5.25,0.66-7.81l0-0.03l0.03-0.01
			c4.84-1.51,9.88-2.27,15-2.27c5.6,0,11.1,0.91,16.35,2.71c5.08,1.74,9.82,4.28,14.11,7.54l0.02,0.01V363.03z M204.61,309.13
			c-0.43,2.55-0.65,5.16-0.65,7.77c0,6.22,1.22,12.24,3.62,17.92c2.32,5.48,5.64,10.41,9.87,14.63c4.23,4.23,9.15,7.55,14.63,9.87
			c5.66,2.4,11.68,3.61,17.88,3.62v-45.85c-4.28-3.25-9.01-5.78-14.07-7.51c-5.24-1.8-10.73-2.71-16.33-2.71
			C214.46,306.87,209.43,307.63,204.61,309.13z"/>
	</g>
	<g>
		<path class="st4" d="M296.08,316.9c0,25.45-20.63,46.08-46.08,46.08s-46.08-20.63-46.08-46.08c0-2.66,0.23-5.27,0.66-7.81
			c4.73-1.47,9.77-2.27,14.98-2.27c11.44,0,21.99,3.81,30.44,10.24c8.45-6.43,19-10.24,30.44-10.24c5.22,0,10.25,0.79,14.98,2.27
			C295.86,311.64,296.08,314.24,296.08,316.9z"/>
	</g>
</g>
</svg>
