<svg version="1.2" xmlns="http://www.w3.org/2000/svg" viewBox="0 0 300 300" width="300" height="300">
	<title>Phork</title>
	<defs>
		<linearGradient id="phorkGradientComplete" x1="257.9" y1="58.3" x2="58.5" y2="225.6" gradientUnits="userSpaceOnUse">
			<stop offset="0" stop-color="#ff3232"/>
			<stop offset="1" stop-color="#f41150"/>
		</linearGradient>
		<linearGradient id="phorkGradientBottom3" x1="96" y1="69.4" x2="257.9" y2="231.3" gradientUnits="userSpaceOnUse">
			<stop offset="0" stop-color="#ff3232"/>
			<stop offset="1" stop-color="#ff6020"/>
		</linearGradient>
		<linearGradient id="phorkGradientBottom2" x1="129" y1="88.4" x2="257.9" y2="217.3" gradientUnits="userSpaceOnUse">
			<stop offset="0" stop-color="#ff8e0d"/>
			<stop offset=".7" stop-color="#fca60a"/>
		</linearGradient>
		<linearGradient id="phorkGradientTop3" x1="58.5" y1="123" x2="241.1" y2="123" gradientUnits="userSpaceOnUse">
			<stop offset="0" stop-color="#ff8e0d"/>
			<stop offset="1" stop-color="#ff6020"/>
		</linearGradient>
		<linearGradient id="phorkGradientTop2" x1="213.4" y1="170.5" x2="80.8" y2="42.4" gradientUnits="userSpaceOnUse">
			<stop offset="0" stop-color="#ffffff"/>
			<stop offset="1" stop-color="#ffffff" stop-opacity="0"/>
		</linearGradient>
	</defs>
	<style>
		.phorkGradientComplete { fill: url(#phorkGradientComplete) } 
		.phorkGradientBottom3 { fill: url(#phorkGradientBottom3) } 
		.phorkGradientBottom2 { fill: url(#phorkGradientBottom2) } 
		.phorkGradientTop3 { opacity: .4;fill: url(#phorkGradientTop3) } 
		.phorkGradientTop2 { opacity: .1;fill: url(#phorkGradientTop2) } 
	</style>
	<g id="phorkLogo">
		<path class="phorkGradientComplete" d="m187.4 203.6c-13.6 20.2-33.7 36.4-56.8 37.8h-52.6c-12.3 0-19.7-6.6-19.4-21.9l-0.1-50.1c1-23.5 18.2-42.5 37.9-56.8l98.1-68.4c7.9-5.5 16.6 3 9.1 9c-17.3 13.9-84.4 74.8-84.4 74.8c-6.2 5.8 1.5 13.2 7.3 7.7l85.1-74.5c7.5-6 15.9 2.6 8.9 9.1l-78.5 80c-6.2 6.5 1.3 13.7 7.5 7.5c7-7 80.5-78.9 80.6-79c6.5-6.1 15.2 2.5 8.8 9.2c0 0-73.7 84.1-73.9 84.3c-6.2 6.9 1.3 14.9 7.2 8.4c0 0 74.6-84.7 74.7-84.8c6.3-7 14.6 1.6 9.3 8.6z" />
		<path class="phorkGradientBottom3" d="m187.4 203.6c-13.6 20.2-33.7 36.4-56.8 37.8h-2.8c-19.2-13-31.8-35.1-31.8-60.2c0-22.2 9.9-42.1 25.6-55.4c-1.6 1.4-2.4 2.2-2.4 2.2c-6.2 5.8 1.5 13.2 7.3 7.7l85.1-74.5c7.5-6 15.9 2.6 8.9 9.1l-78.5 80c-6.2 6.5 1.3 13.7 7.5 7.5c7-7 80.5-78.9 80.6-79c6.5-6.1 15.2 2.5 8.8 9.2c0 0-73.7 84.1-73.9 84.3c-6.2 6.9 1.3 14.9 7.2 8.4c0 0 74.6-84.7 74.7-84.8c6.3-7 14.6 1.6 9.3 8.6z" />
		<path class="phorkGradientBottom2" d="m187.4 203.6c-6.7 9.8-14.8 18.7-24.1 25.4c-19.8-5.9-34.3-24.2-34.3-46c0-14.6 6.4-27.6 16.7-36.4l-3.7 3.7c-6.2 6.5 1.3 13.7 7.5 7.5c7-7 80.5-78.9 80.6-79c6.5-6.1 15.2 2.5 8.8 9.2c0 0-73.7 84.1-73.9 84.3c-6.2 6.9 1.3 14.9 7.2 8.4c0 0 74.6-84.7 74.7-84.8c6.3-7 14.6 1.6 9.3 8.6z" />
		<path class="phorkGradientTop3" d="m58.5 169.4c1-23.5 18.2-42.5 37.9-56.8l98.1-68.4c7.9-5.5 16.6 3 9.1 9c-17.3 13.9-84.4 74.8-84.4 74.8c-6.2 5.8 1.5 13.2 7.3 7.7l85.1-74.5c7.5-6 15.9 2.6 8.9 9.1l-78.5 80c-6.2 6.5 1.3 13.7 7.5 7.5c7-7 80.5-78.9 80.6-79c6.5-6.1 15.2 2.5 8.8 9.2c0 0-73.7 84.1-73.9 84.3c-5.4 6-0.3 12.9 5 10.2c-13.2 13-31.3 21-51.3 21c-25 0-47.1-12.6-60.2-31.9z" />
		<path class="phorkGradientTop2" d="m96.4 112.6l98.1-68.4c7.9-5.5 16.6 3 9.1 9c-17.3 13.9-84.4 74.8-84.4 74.8c-6.2 5.8 1.5 13.2 7.3 7.7l85.1-74.5c7.5-6 15.9 2.6 8.9 9.1l-78.5 80c-5.9 6.2 0.7 13.1 6.6 8.3c-8.4 7.4-19.5 11.9-31.6 11.9c-21.6 0-39.9-14.2-45.9-33.9c6.8-9.1 15.7-17.1 25.3-24zm53.1 45.2c0.5-0.5 1.4-1.3 2.5-2.4q-1.2 1.2-2.5 2.4z" />
	</g>
</svg>