<?xml version="1.0" encoding="utf-8"?>
<svg version="1.1" id="Layer_1" x="0px" y="0px" viewBox="0 0 64 64" style="enable-background:new 0 0 512 512;" xmlns="http://www.w3.org/2000/svg">
  <path style="fill: rgb(88, 89, 91);" d="M 46.172 38.473 C 46.172 38.473 41.699 60.105 31.403 62.185 L 31.403 62.185 L 30.89 62.185 L 30.89 62.185 C 26.493 62.185 22.264 60.488 19.085 57.45 L 19.085 57.45 C 14.938 53.484 13.252 47.592 14.672 42.033 L 15.608 38.369 L 46.172 38.473 Z"/>
  <g style="" transform="matrix(0.123561, 0, 0, 0.123561, 0.216366, 0)">
    <path style="fill:#E0A88F;" d="M101.986,304.074h28.38v-87.813h-28.38c-6.053,0-10.96,4.907-10.96,10.96v65.891 C91.025,299.167,95.933,304.074,101.986,304.074z"/>
    <path style="fill:#E0A88F;" d="M394.505,216.262h-30.68v87.813h30.68c6.053,0,10.96-4.907,10.96-10.96v-65.891 C405.466,221.169,400.559,216.262,394.505,216.262z"/>
  </g>
  <path style="fill: rgb(65, 64, 66);" d="M 47.622 42.033 L 46.172 38.473 L 39.979 38.371 L 40.914 42.033 C 42.334 47.592 40.648 53.484 36.5 57.45 L 36.5 57.45 C 34.078 59.766 31.045 61.301 27.793 61.901 C 28.808 62.088 29.844 62.185 30.89 62.185 L 31.403 62.185 L 31.403 62.185 C 35.801 62.185 40.03 60.488 43.207 57.45 L 43.207 57.45 C 47.356 53.484 49.043 47.592 47.622 42.033 Z"/>
  <path style="fill: rgb(242, 198, 160);" d="M 15.608 16.467 L 15.608 38.369 L 19.133 40.028 C 20.79 40.808 22.507 41.415 24.256 41.849 C 24.564 41.926 24.888 41.856 25.14 41.663 C 26.641 40.519 28.663 39.816 30.89 39.816 C 33.133 39.816 35.169 40.528 36.672 41.688 C 36.924 41.883 37.248 41.956 37.556 41.88 C 39.285 41.458 40.981 40.871 42.623 40.112 L 42.531 38.473 L 42.22 17.024 L 15.608 16.467 Z"/>
  <path style="fill: rgb(230, 181, 147);" d="M 15.608 16.467 L 15.608 16.561 L 15.608 28.244 C 15.608 25.515 17.23 22.682 19.248 20.815 C 19.639 20.454 20.27 20.639 20.4 21.155 C 21.205 24.354 23.16 26.558 26.962 26.558 L 31.961 26.558 C 33.725 26.558 35.264 26.604 36.802 26.647 C 39.153 26.713 41.025 28.639 41.025 30.99 L 41.025 34.564 C 41.025 36.948 39.638 39.113 37.474 40.112 L 37.474 40.112 C 36.824 40.414 36.164 40.686 35.498 40.933 C 35.917 41.156 36.311 41.409 36.673 41.689 C 36.925 41.883 37.249 41.956 37.557 41.88 C 39.285 41.458 40.981 40.871 42.623 40.112 L 46.172 38.474 L 46.172 19.222 L 46.172 17.023 L 15.608 16.467 Z"/>
  <path style="fill: rgb(88, 89, 91);" d="M 22.413 1.078 C 21.047 1.078 19.938 2.187 19.938 3.552 L 19.938 3.608 L 19.938 3.608 C 14.704 3.608 10.46 7.852 10.46 13.087 L 10.46 19.435 C 10.46 23.014 12.567 23.688 15.608 25.109 L 15.608 24.084 C 15.608 21.355 17.23 18.522 19.248 16.655 C 19.639 16.293 20.27 16.479 20.4 16.995 C 21.206 20.194 23.16 22.397 26.962 22.397 L 31.961 22.397 C 41.587 22.397 49.391 14.594 49.391 4.969 L 49.391 1.078 L 22.413 1.078 Z"/>
  <g style="" transform="matrix(0.123561, 0, 0, 0.123561, 0.216366, 0)">
    <path style="fill:#414042;" d="M99.823,137.544c-1.052-4.177-6.166-5.677-9.328-2.751c-2.627,2.432-5.171,5.069-7.593,7.871v14.632 c0,28.957,17.055,53.917,41.663,65.421v-27.799c0-6.309,1.076-12.689,2.989-18.936C112.9,168.863,104.233,155.05,99.823,137.544z"/>
    <path style="fill:#414042;" d="M366.206,8.727v31.49c0,77.901-63.152,141.053-141.053,141.053h63.528 c77.901,0,141.053-63.152,141.053-141.053V8.727H366.206z"/>
    <circle style="fill:#414042;" cx="295.471" cy="243.363" r="9.469"/>
    <circle style="fill:#414042;" cx="192.791" cy="243.363" r="9.469"/>
  </g>
  <path d="M 54.394 4.969 L 54.394 1.078 C 54.394 0.482 53.91 0 53.315 0 C 52.719 0 52.237 0.482 52.237 1.078 L 52.237 4.969 C 52.237 13.985 44.902 21.319 35.887 21.319 L 26.962 21.319 C 25.492 21.319 21.017 21.319 21.017 12.768 L 21.017 12.197 C 21.048 10.436 21.039 8.686 21.027 6.969 C 21.022 6.298 21.018 5.614 21.017 4.929 L 21.017 3.552 C 21.017 2.784 21.643 2.157 22.413 2.157 L 47.743 2.157 C 48.34 2.157 48.822 1.674 48.822 1.078 C 48.822 0.482 48.34 0 47.743 0 L 22.413 0 C 20.809 0 19.451 1.069 19.011 2.531 L 18.936 2.531 C 18.745 2.533 18.578 2.573 18.433 2.638 C 14.992 3.148 11.85 5.407 10.327 8.584 C 10.237 8.766 9.874 9.636 9.863 9.664 C 9.501 10.568 9.498 11.435 9.498 12.202 C 9.478 12.753 9.448 13.305 9.417 13.889 C 9.239 17.303 9.037 21.172 10.758 24.456 C 11.036 24.984 11.687 25.188 12.214 24.91 C 12.742 24.633 12.946 23.982 12.668 23.455 C 11.222 20.694 11.399 17.292 11.572 14.002 C 11.602 13.429 11.655 11.016 11.852 10.5 C 11.934 10.328 12.009 10.142 12.082 9.962 C 12.143 9.806 12.209 9.644 12.26 9.539 C 12.263 9.534 12.265 9.528 12.269 9.524 C 13.501 6.946 16.065 5.125 18.858 4.755 C 18.858 4.821 18.859 4.887 18.859 4.952 L 18.859 12.212 C 18.838 13.366 18.799 14.52 18.727 15.666 C 18.554 15.751 17.509 16.704 17.434 16.778 C 15.873 18.34 14.871 20.39 14.54 22.709 C 14.538 22.726 14.536 22.745 14.535 22.762 C 14.444 23.766 14.462 24.72 14.489 25.643 L 12.817 25.643 C 11.477 25.643 10.385 26.734 10.385 28.076 L 10.385 36.218 C 10.385 37.558 11.477 38.649 12.817 38.649 L 14.423 38.649 L 13.627 41.766 C 12.113 47.693 13.918 54.001 18.341 58.228 C 21.736 61.475 26.192 63.263 30.89 63.263 C 30.978 63.263 31.315 63.263 31.403 63.263 C 36.102 63.263 40.559 61.475 43.954 58.228 C 48.375 54.001 50.182 47.693 48.667 41.766 C 48.655 41.718 47.408 38.649 47.408 38.649 L 48.963 38.649 C 50.304 38.649 51.395 37.559 51.395 36.218 L 51.395 28.077 C 51.395 26.734 50.303 25.644 48.963 25.644 L 47.251 25.644 L 47.251 19.808 C 47.251 19.731 47.242 19.657 47.227 19.583 C 51.584 16.195 54.394 10.905 54.394 4.969 Z M 12.542 36.218 L 12.542 28.077 C 12.542 27.924 12.666 27.8 12.817 27.8 L 14.529 27.8 L 14.529 36.493 L 12.817 36.493 C 12.666 36.493 12.542 36.369 12.542 36.218 Z M 42.465 56.67 C 39.472 59.531 35.545 61.107 31.403 61.107 C 31.315 61.107 30.977 61.107 30.89 61.107 C 26.751 61.107 22.823 59.531 19.831 56.67 C 15.971 52.98 14.395 47.473 15.716 42.3 L 16.33 39.901 L 18.674 41.004 C 20.539 41.882 22.507 42.56 24.523 43.023 C 24.859 43.098 25.21 43.012 25.469 42.787 C 26.855 41.582 28.833 40.894 30.89 40.894 C 32.965 40.894 34.95 41.591 36.339 42.81 C 36.537 42.984 36.791 43.076 37.048 43.076 C 37.127 43.076 37.208 43.068 37.285 43.05 C 38.453 42.79 39.612 42.451 40.734 42.051 C 41.526 41.766 42.312 41.443 43.076 41.092 L 45.6 39.926 L 46.595 42.371 C 47.886 47.523 46.306 52.997 42.465 56.67 Z M 48.963 27.8 C 49.114 27.8 49.238 27.924 49.238 28.077 L 49.238 36.218 C 49.238 36.369 49.114 36.493 48.963 36.493 L 47.251 36.493 L 47.251 27.8 L 48.963 27.8 Z M 45.094 26.721 L 45.094 37.572 L 45.094 37.784 L 42.171 39.134 C 41.465 39.46 40.738 39.757 40.006 40.021 C 39.132 40.334 38.23 40.604 37.322 40.826 C 35.573 39.475 33.31 38.738 30.89 38.738 C 28.489 38.738 26.242 39.466 24.495 40.798 C 22.808 40.377 21.161 39.791 19.592 39.053 L 16.687 37.685 L 16.687 37.572 L 16.687 27.519 L 16.687 26.721 C 16.687 26.669 16.681 26.615 16.674 26.563 C 16.668 26.326 16.661 26.093 16.654 25.864 C 16.624 24.882 16.594 23.953 16.681 22.986 C 16.944 21.193 17.697 19.608 18.867 18.397 C 19.15 18.212 19.34 17.982 19.485 17.807 C 19.49 17.801 19.495 17.794 19.501 17.788 C 19.767 18.676 20.113 19.465 20.542 20.15 C 21.924 22.357 24.084 23.477 26.962 23.477 L 35.887 23.477 C 39.237 23.477 42.381 22.582 45.094 21.019 L 45.094 26.721 L 45.094 26.721 Z" style=""/>
  <path d="M 34.092 24.837 C 31.732 24.837 29.812 26.757 29.812 29.117 L 29.812 35.496 C 29.812 36.092 30.294 36.574 30.89 36.574 C 31.485 36.574 31.968 36.092 31.968 35.496 L 31.968 29.117 C 31.968 27.946 32.92 26.994 34.092 26.994 C 34.688 26.994 35.169 26.511 35.169 25.916 C 35.169 25.32 34.688 24.837 34.092 24.837 Z" style=""/>
  <circle cx="36.724" cy="30.07" r="1.17" style=""/>
  <circle cx="24.038" cy="30.07" r="1.17" style=""/>
  <path d="M 33.888 44.796 C 32.995 45.042 32.066 45.174 31.131 45.185 C 30.037 45.198 28.952 45.047 27.912 44.737 C 27.342 44.566 26.741 44.892 26.572 45.461 C 26.4 46.033 26.726 46.633 27.295 46.803 C 28.493 47.161 29.739 47.342 31 47.342 C 31.052 47.342 31.105 47.342 31.156 47.341 C 32.277 47.328 33.391 47.171 34.463 46.874 C 35.037 46.716 35.373 46.121 35.215 45.548 C 35.056 44.974 34.462 44.638 33.888 44.796 Z" style=""/>
  <g style="" transform="matrix(0.112905, 0, 0, 0.112905, 0, 0)"/>
  <g style="" transform="matrix(0.112905, 0, 0, 0.112905, 0, 0)"/>
  <g style="" transform="matrix(0.112905, 0, 0, 0.112905, 0, 0)"/>
  <g style="" transform="matrix(0.112905, 0, 0, 0.112905, 0, 0)"/>
  <g style="" transform="matrix(0.112905, 0, 0, 0.112905, 0, 0)"/>
  <g style="" transform="matrix(0.112905, 0, 0, 0.112905, 0, 0)"/>
  <g style="" transform="matrix(0.112905, 0, 0, 0.112905, 0, 0)"/>
  <g style="" transform="matrix(0.112905, 0, 0, 0.112905, 0, 0)"/>
  <g style="" transform="matrix(0.112905, 0, 0, 0.112905, 0, 0)"/>
  <g style="" transform="matrix(0.112905, 0, 0, 0.112905, 0, 0)"/>
  <g style="" transform="matrix(0.112905, 0, 0, 0.112905, 0, 0)"/>
  <g style="" transform="matrix(0.112905, 0, 0, 0.112905, 0, 0)"/>
  <g style="" transform="matrix(0.112905, 0, 0, 0.112905, 0, 0)"/>
  <g style="" transform="matrix(0.112905, 0, 0, 0.112905, 0, 0)"/>
  <g style="" transform="matrix(0.112905, 0, 0, 0.112905, 0, 0)"/>
</svg>