<?xml version="1.0" standalone="no"?>
<!DOCTYPE svg PUBLIC "-//W3C//DTD SVG 20010904//EN"
 "http://www.w3.org/TR/2001/REC-SVG-20010904/DTD/svg10.dtd">
<svg version="1.0" xmlns="http://www.w3.org/2000/svg"
 width="421.000000pt" height="302.000000pt" viewBox="0 0 421.000000 302.000000"
 preserveAspectRatio="xMidYMid meet">

<g transform="translate(0.000000,302.000000) scale(0.100000,-0.100000)"
fill="#000000" stroke="none">
<path d="M0 1510 l0 -1510 2105 0 2105 0 0 1510 0 1510 -2105 0 -2105 0 0
-1510z m1594 1039 c96 -113 109 -149 69 -201 -15 -21 -34 -37 -40 -38 -7 0
-24 22 -38 49 -13 27 -49 76 -79 109 l-55 59 35 41 c41 49 51 47 108 -19z
m1082 -79 c-29 -30 -65 -79 -82 -107 -16 -29 -33 -53 -39 -53 -15 0 -65 67
-65 88 0 27 51 103 110 164 l52 53 38 -45 39 -44 -53 -56z m-1184 -52 c41 -54
90 -147 83 -158 -12 -20 -25 -9 -51 42 -14 28 -49 75 -76 104 -34 36 -48 59
-44 69 5 15 9 14 34 -4 16 -11 40 -35 54 -53z m1288 50 c0 -6 -22 -34 -48 -62
-27 -28 -61 -73 -77 -101 -36 -63 -33 -61 -46 -48 -16 16 43 125 101 184 44
46 70 56 70 27z m-1389 -115 c29 -32 63 -82 76 -111 l25 -52 -24 -20 c-33 -27
-42 -25 -70 18 -14 20 -38 51 -54 67 -16 17 -42 45 -58 64 l-30 33 34 29 c19
16 38 29 41 29 4 0 31 -26 60 -57z m1497 24 l32 -33 -50 -49 c-27 -27 -64 -70
-82 -97 -18 -26 -37 -48 -43 -48 -5 0 -21 9 -35 20 l-25 19 28 56 c25 51 119
165 136 165 4 0 21 -15 39 -33z m-1794 -219 c58 -51 131 -147 120 -157 -5 -5
-43 -33 -84 -63 -41 -31 -88 -69 -104 -87 -36 -37 -43 -38 -104 -7 -46 24
-154 109 -161 128 -8 23 238 228 275 228 6 0 32 -19 58 -42z m2125 -2 c36 -25
97 -75 134 -112 l68 -67 -33 -34 c-40 -42 -142 -111 -175 -119 -20 -5 -34 2
-71 38 -26 25 -77 66 -114 92 -38 26 -68 50 -68 53 0 27 155 193 181 193 6 0
41 -20 78 -44z m-979 -167 c75 -16 261 -101 248 -114 -2 -2 -44 2 -93 10 -112
19 -235 19 -345 1 -47 -8 -86 -13 -87 -12 -1 1 12 29 28 63 21 45 36 63 52 65
36 5 138 -2 197 -13z m-315 -62 c-15 -34 -31 -57 -40 -57 -17 0 -13 11 32 83
34 54 38 41 8 -26z m-92 -7 c-19 -33 -36 -51 -53 -55 -24 -5 -100 1 -107 9 -9
8 157 94 185 96 2 0 -9 -22 -25 -50z m-1080 -74 c29 -24 76 -58 105 -76 28
-17 52 -34 52 -36 0 -4 -77 -122 -90 -137 -18 -21 -240 84 -240 114 0 20 104
179 117 179 3 0 28 -20 56 -44z m2765 2 c16 -24 41 -64 56 -91 l28 -47 -23
-20 c-29 -24 -154 -86 -190 -94 -23 -5 -31 2 -72 63 -26 37 -47 70 -47 73 0 3
23 21 51 39 28 18 74 52 103 76 28 23 54 43 58 43 4 0 20 -19 36 -42z m-2932
-223 c41 -31 153 -85 177 -85 9 0 17 -7 17 -15 0 -22 -32 -19 -101 9 -67 28
-139 80 -139 102 0 20 8 18 46 -11z m3054 12 c0 -22 -41 -54 -110 -86 -84 -39
-130 -49 -130 -28 0 9 13 18 33 22 38 9 131 56 167 84 29 24 40 26 40 8z
m-3071 -95 c19 -14 66 -38 105 -53 39 -15 72 -31 73 -36 5 -14 -26 -83 -36
-83 -5 0 -41 11 -81 24 -72 25 -145 67 -153 89 -2 7 4 31 14 55 20 47 20 47
78 4z m3127 -57 c-7 -27 -97 -77 -179 -98 l-57 -15 -16 36 c-8 20 -13 41 -11
46 3 6 30 20 60 30 31 10 82 36 114 57 l58 39 18 -36 c11 -20 16 -46 13 -59z
m-1596 -204 c24 -60 107 -114 130 -86 11 14 119 59 126 53 1 -2 -23 -17 -53
-33 -65 -34 -114 -79 -143 -133 -20 -34 -22 -25 -6 23 4 11 -2 4 -13 -15 -11
-19 -23 -56 -27 -82 -5 -36 -11 -48 -24 -48 -13 0 -19 11 -24 48 -6 44 -63
158 -87 172 -5 3 11 23 36 43 25 21 48 49 51 62 8 33 19 31 34 -4z m-360 -1
c9 -18 8 -20 -15 -20 -27 0 -28 1 -19 24 8 22 21 20 34 -4z m714 4 c9 -23 8
-24 -19 -24 -23 0 -24 2 -15 20 13 24 26 26 34 4z m559 -27 c18 -8 65 -22 104
-31 70 -18 73 -19 67 -45 -25 -112 -96 -273 -119 -269 -7 2 -28 -16 -47 -38
-32 -41 -98 -101 -98 -90 0 3 10 29 22 58 30 75 31 186 0 249 -28 58 -28 84 3
121 14 16 25 36 25 44 0 17 3 17 43 1z m-1813 -10 c0 -7 14 -26 30 -42 35 -33
37 -57 11 -108 -40 -78 -36 -176 10 -285 l19 -43 -40 32 c-21 17 -51 49 -66
71 -15 22 -36 44 -46 49 -22 12 -59 83 -86 169 -38 121 -38 118 10 130 24 6
61 17 83 25 52 17 75 18 75 2z m270 -1 c0 -2 -25 -16 -56 -31 -63 -31 -115
-79 -143 -133 -11 -20 -20 -31 -21 -24 0 23 38 86 72 120 36 34 148 86 148 68z
m1390 -178 c0 -13 0 -14 -29 32 l-23 35 26 -28 c14 -15 26 -33 26 -39z m-955
-22 c34 -52 -36 -114 -79 -70 -22 21 -20 70 2 83 30 18 61 12 77 -13z m909 8
c21 -20 20 -53 -1 -76 -21 -24 -48 -23 -74 3 -22 22 -20 66 4 81 20 13 55 9
71 -8z m124 -104 c-4 -62 -11 -92 -40 -151 -19 -41 -45 -85 -57 -99 -17 -20
-16 -13 8 30 48 90 72 175 73 259 0 56 3 70 10 57 6 -10 8 -53 6 -96z m-1158
45 c0 -19 -20 -29 -32 -17 -15 15 -2 43 17 36 8 -3 15 -12 15 -19z m905 -1 c0
-10 -8 -20 -17 -22 -18 -3 -26 27 -11 42 12 11 28 0 28 -20z m-698 -6 c-3 -8
-6 -5 -6 6 -1 11 2 17 5 13 3 -3 4 -12 1 -19z m900 -80 c-3 -8 -6 -5 -6 6 -1
11 2 17 5 13 3 -3 4 -12 1 -19z m-900 -20 c-3 -7 -5 -2 -5 12 0 14 2 19 5 13
2 -7 2 -19 0 -25z m134 -18 c34 -63 79 -167 79 -182 0 -10 4 -18 9 -18 6 0 38
-25 73 -55 35 -31 99 -74 143 -96 70 -36 86 -40 128 -35 30 3 79 21 124 46 41
22 73 36 71 31 -1 -5 -24 -36 -50 -69 -55 -70 -178 -179 -243 -213 -25 -13
-44 -30 -42 -38 5 -33 -200 -91 -319 -91 -111 0 -339 65 -328 93 2 7 -16 23
-41 36 -65 34 -188 142 -243 213 -26 33 -48 64 -50 68 -2 5 36 -11 83 -36 58
-29 98 -44 124 -44 89 0 304 146 346 235 11 22 30 65 45 95 14 30 29 61 33 68
11 17 47 12 58 -8z m730 -75 c-33 -71 -110 -159 -163 -188 -29 -16 -30 -16 -8
-1 79 55 188 207 191 268 1 17 2 18 6 3 3 -10 -9 -47 -26 -82z m-870 -33 c-40
-78 -184 -212 -229 -212 -8 0 14 19 48 42 61 40 129 116 173 190 28 48 35 32
8 -20z m-71 -46 c0 -2 -8 -10 -17 -17 -16 -13 -17 -12 -4 4 13 16 21 21 21 13z"/>
<path d="M2181 1158 c-14 -23 -14 -23 8 -4 22 20 25 26 13 26 -4 0 -13 -10
-21 -22z"/>
<path d="M2027 541 c-80 -96 -4 -283 94 -231 57 31 72 172 23 229 -35 42 -82
43 -117 2z m103 -23 c36 -59 29 -68 -46 -68 l-66 0 6 32 c14 72 72 91 106 36z"/>
<path d="M2033 254 c36 -31 69 -31 104 1 l28 25 -37 -15 c-33 -13 -43 -13 -80
-1 l-43 15 28 -25z"/>
</g>
</svg>
