<?xml version="1.0" encoding="UTF-8" standalone="no"?>
<!-- Created with Inkscape (http://www.inkscape.org/) -->

<svg
   version="1.1"
   id="svg2"
   width="824.70203"
   height="824.70203"
   viewBox="0 0 824.70199 824.70199"
   xmlns="http://www.w3.org/2000/svg"
   xmlns:svg="http://www.w3.org/2000/svg">
  <defs
     id="defs6" />
  <g
     id="g8"
     style="display:inline"
     transform="translate(-81.615051,-98.394806)">
    <g
       id="g5146"
       transform="translate(-2.0535904e-4,-0.00181891)">
      <path
         id="path1072-7"
         style="display:inline;fill:#ff6600;stroke-width:1.44622"
         d="m 369.43359,166.53125 0.18946,83.70117 v 68.66602 68.66601 h 50.64062 50.64063 l 0.35937,-29.66601 0.35938,-29.66602 32,0.10742 c 35.26792,0.12006 40.64938,0.95013 47.99804,7.40235 5.50608,4.83439 7.67185,11.65581 6.47461,20.39062 -1.17464,8.56992 -5.22456,14.14247 -13.14258,18.08399 -6.36901,3.17046 -7.95083,3.33872 -35.66406,3.8125 l -29,0.49609 v 29.70313 29.70507 l 33.00782,0.49219 33.00976,0.49024 7.99024,3.99218 c 11.01867,5.50249 14.6722,11.99092 14.6289,25.99024 -0.0376,12.16271 -3.4657,19.71825 -11.14258,24.56445 -8.35921,5.27695 -13.98204,6.02066 -46.49804,6.15039 l -30.9961,0.125 v 39.37305 39.375 l 72.71485,0.36328 c 23.65094,0.0291 24.54157,-2.10322 31.86718,-3.83203 44.71999,-10.55369 74.30771,-36.83495 82.82813,-73.57422 2.97928,-12.84644 2.65026,-36.03881 -0.69727,-49.07617 -6.1229,-23.8463 -22.59725,-42.65664 -46.41015,-52.99219 l -6.30274,-2.73438 3.3125,-2.20507 c 17.61645,-11.71956 28.5613,-24.37336 32.76758,-37.88672 3.27089,-10.50832 3.92204,-30.34194 1.38867,-42.31641 -5.78785,-27.35739 -24.99106,-47.75377 -53.46289,-56.7832 -21.5555,-6.83602 -28.25715,-7.20099 -132.33984,-7.20899 l -24.08203,-0.002 0.76562,-83.33594 z m -62.1875,394.15625 0.18946,98.47656 72.25,0.006 0.76757,-98.04492 z"
         transform="translate(81.615051,98.394806)" />
      <path
         style="fill:#008000;stroke-width:1.33333"
         d="m 367.90426,682.35083 c -31.68183,-4.29988 -63.55589,-20.50603 -85.70326,-43.57527 -30.24952,-31.5086 -45.60023,-73.06902 -45.62221,-123.51727 -0.0243,-55.64967 15.70401,-97.23568 49.1189,-129.87181 20.4561,-19.97934 45.31072,-33.25007 74.99526,-40.04244 10.08516,-2.30767 7.9167,-21.15781 7.19779,-81.41363 l 74.39083,0.49453 -0.37731,81.72405 v 46.82159 46.82159 l -3.66667,-3.41596 c -14.65612,-13.65399 -35.46392,-17.71439 -56.88737,-11.10091 -31.5371,9.7356 -46.5694,41.99231 -44.39687,95.26794 0.83835,20.55842 2.9126,29.8232 9.86965,44.08336 8.66191,17.75469 23.37831,30.29534 41.08126,35.00761 34.79158,9.26101 66.49464,-3.77333 74.60821,-30.67428 l 0.90483,-3 h -22.08985 -22.08986 v -34.66667 -34.66667 h 66.66667 66.66667 v 39.33334 l -0.46667,91.33334 0.13797,130.26795 -74.52504,-0.11216 0.18712,-92.8014 c 0.0133,-6.61159 -0.29697,-12.02109 -0.65995,-12.02109 -0.36297,0 -4.31084,2.94191 -8.77301,6.53759 -13.85837,11.1672 -30.1667,18.37385 -50.351,22.25013 -9.05355,1.73868 -40.04679,2.31669 -50.21604,0.93651 z"
         id="path852" />
    </g>
    <circle
       style="opacity:1;fill:none;stroke:#ff6600;stroke-width:68;stroke-miterlimit:4;stroke-dasharray:none"
       id="path2036"
       cx="493.96606"
       cy="510.74582"
       r="378.35101" />
  </g>
</svg>
