<svg xmlns="http://www.w3.org/2000/svg" xmlns:xlink="http://www.w3.org/1999/xlink" viewBox="0 0 300 300"><defs><style>.cls-1{fill:#fff;}.cls-2{mask:url(#mask);}.cls-3{fill:#ff9a38;}.cls-4{fill:#6d0c80;}</style><mask id="mask" x="-0.41" y="0" width="300.83" height="300" maskUnits="userSpaceOnUse"><circle class="cls-1" cx="150.42" cy="150" r="150"/></mask></defs><g id="Working"><g class="cls-2"><circle class="cls-3" cx="150.42" cy="150" r="150"/><path id="body" class="cls-1" d="M25.17,146.7c4.1,6.78,17.54,25.42,40.32,22.31,0,0,7.18,34.18,47.45,46.57-8.76,13.18-18.76,28.28-22.81,34.71a1.76,1.76,0,0,0,1.61,2.7c22.63-1.55,43.07-15.32,56.2-32.72a240.7,240.7,0,0,0,38.63-6.9l37.23,18.7c8-5.31-5.25-30.89-5.25-30.89,45.26-22.33,50.88-47.48,47.92-63.28C256.93,87,177.82,71,135,113.78c-15,15-18.19,30-20.55,41.11-2.21,10.36-3.67,17.22-13.38,17.22-7.73,0-13.93-4.12-18.72-9.51,22.92-16.1,15.55-41.72,12.46-49.81a1.52,1.52,0,0,0-2.66-.07c-3.78,5.27-8.77,8.82-13.42,12.13h0C72,129.69,65.86,134,65.22,142.49c-7.09-4.73-13.79-2.83-21.37-.67-5.16,1.46-10.72,3-17.09,2.74C25.54,144.5,24.58,145.72,25.17,146.7Z"/><circle id="eye" class="cls-4" cx="193.97" cy="156.72" r="7.24"/><path class="cls-4" d="M257.74,70.5c-2.54-3.18-28.59,1.34-57.38,9.84A508.2,508.2,0,0,0,150.24,48a380.5,380.5,0,0,0-46.95-22.21A3.28,3.28,0,0,0,99,29.94,273.26,273.26,0,0,1,110.74,73.5c4.59,24.88,5,36,6.34,45.13-24.85,17.12-43.54,35.73-41.34,40.87,3,7,39-5,39-5s2-11,8-18c13.89-16.19,74.34-39.86,86-43,7-1.89,24,3.5,24,3.5S261.74,75.5,257.74,70.5Z"/><path class="cls-4" d="M279.83,181.44a4,4,0,0,0-5-2.56L124.71,227.64c-7.82-3.63-31-13.87-47.86-15.47a1.06,1.06,0,0,0-.56,2A32.54,32.54,0,0,1,85,220c-16.71-5.81-35.69-.54-44.83,3.87a1.38,1.38,0,0,0,.64,2.62c6.64-.18,15.11,0,21.19,2.51-20,0-30.93,8.15-42,17C10.22,253.82-.41,271.53-.41,271.53s11.3,2,21,4.42c4.43,1.11,14.76,4.52,24.67,5.54C60,283,68,280.53,68,280.53L54.58,295S89,294,107,263a19.42,19.42,0,0,1,.54,7.54,1.47,1.47,0,0,0,2.77.71c8.58-11.51,13.39-26.89,15.59-35.59l151.36-49.18A4,4,0,0,0,279.83,181.44Z"/><path id="fin" class="cls-1" d="M112.94,215.58c-8.76,13.18-18.76,28.28-22.81,34.71a1.76,1.76,0,0,0,1.61,2.7c22.63-1.55,43.07-15.32,56.2-32.72"/><path class="cls-1" d="M167.49,51.33c-3.81,6.28-12.21,8.16-18.76,4.19s-8.8-12.28-5-18.56a12.67,12.67,0,0,1,1.8-2.33,1.23,1.23,0,0,0-1.24-2,22.56,22.56,0,1,0,27.36,12.76,1.24,1.24,0,0,0-2.37.42A12.83,12.83,0,0,1,167.49,51.33Z"/><path class="cls-4" d="M272.39,159.29c-2.93-2.83-3.52-7.27-4.95-10.82-.28-.71-.47-1.44-.69-2.17A6,6,0,0,0,255.82,145c-.21.28-.36.52-.47.69a.18.18,0,0,1-.27.05,10.63,10.63,0,0,0-10.86-.5c-6.86,3.74-12,14.28-25.22,22.9a57.34,57.34,0,0,1-15.56,7,1.5,1.5,0,0,0,.33,3c9.81.47,24.8-.22,37.36-6.74,3.88-2,12.43-6.28,14.39-14a.2.2,0,0,1,.37-.06c4.08,6.29,11.15,6.49,15.6,5.32A2,2,0,0,0,272.39,159.29Z"/></g></g></svg>
