<!-- by TradingView --><svg width="18" height="18" xmlns="http://www.w3.org/2000/svg"><path fill="url(#paint0_linear)" d="M0 0h18v18H0z"/><circle cx="9" cy="9" r="5.805" fill="#15181B"/><path d="M12.821 9.065l-.02.002c-.057.005-.114.01-.17.012h-.01a5.069 5.069 0 01-.162.004h-.003c-.032 0-.065 0-.098-.002h-.02a3.407 3.407 0 01-.087-.005l-.015-.001a3.365 3.365 0 01-.21-.021l-.008-.001h-.005a4.832 4.832 0 01-1.016-.269l-.003-.001-.122-.05c-.086-.035-.172-.07-.257-.107a10.564 10.564 0 00-.91-.35 2.542 2.542 0 00-.716-.118h-.026a2.81 2.81 0 00-.751.102c.04-.051.08-.103.118-.155a1.16 1.16 0 00.177-.382.52.52 0 00.008-.315l.026-.024a1.06 1.06 0 00.199-.164c.221-.17.464-.31.722-.418.4-.165.882-.272 1.427-.217 1.448.146 2.006.453 3.026-.675a5.806 5.806 0 00-10.17.62c.257.246.771.492 1.774.267a1.407 1.407 0 011.344 0c1.735.39 2.01-.63 2.01-.63 0 .721-.289 1.04-.725 1.172a.59.59 0 01.094.046c.093.06.11.137.068.281a.985.985 0 01-.144.316c-.166.223-.349.433-.525.648-.001.001-.002 0-.001.006.003.035.034.053.066.038l.029-.013c.297-.144.6-.241.908-.28a2.329 2.329 0 011 .091c.392.124.77.295 1.15.451l.125.05c.349.14.703.259 1.08.284.15.02.303.031.461.031.124 0 .27-.006.387-.017v3.38a.267.267 0 01-.166.257.267.267 0 01-.106.019.272.272 0 01-.259-.26l-.017-.313a4.972 4.972 0 00-.436-1.477l-.252.8-.245.777-.09.305a.238.238 0 01-.32.152.235.235 0 01-.144-.238s.157-1.292.084-1.973c-.661.42-1.381.583-2.151.595l-.06 1.36v.03a.246.246 0 01-.268.245.253.253 0 01-.222-.223l-.057-.407-.146-.937h-.033l-.128.912-.052.422a.25.25 0 01-.295.217.257.257 0 01-.206-.245l-.02-.495c-.016-.336-.032-.667-.05-.998-.002-.035-.032-.07-.053-.102l-.003-.005a3.65 3.65 0 01-.452-.968 129.02 129.02 0 01-.217-.732c.19-.073.367-.215.391-.256.025-.041-.025-.086-.074-.057a.926.926 0 01-.283.105c-.174.015-.35.009-.525.007-.215-.003-.349-.142-.356-.356-.004-.09.003-.185-.028-.265a2.937 2.937 0 01-.226-1.019c-.001-.069-.023-.099-.072-.108a7.937 7.937 0 01-.39.006c-.594-.009-1.086-.119-1.298-.613a5.805 5.805 0 1011.136 1.431 3.537 3.537 0 01-1.936.821" fill="#75C154"/><defs><linearGradient id="paint0_linear" x1="3.349" y1="3.122" x2="21.904" y2="24.434" gradientUnits="userSpaceOnUse"><stop stop-color="#1A1E21"/><stop offset="1" stop-color="#06060A"/></linearGradient></defs></svg>