<svg id="Layer_1" data-name="Layer 1" xmlns="http://www.w3.org/2000/svg" xmlns:xlink="http://www.w3.org/1999/xlink" viewBox="0 0 215.73 215.47"><defs><style>.cls-1,.cls-21,.cls-4{fill:none;}.cls-2{clip-path:url(#clip-path);}.cls-3{fill:#fff;}.cls-4{stroke:#e574ad;stroke-width:21px;}.cls-10,.cls-12,.cls-13,.cls-17,.cls-19,.cls-20,.cls-5{fill-opacity:0.6;}.cls-5{fill:url(#radial-gradient);}.cls-16,.cls-6,.cls-7,.cls-8,.cls-9{fill-opacity:0.9;}.cls-6{fill:url(#radial-gradient-2);}.cls-7{fill:url(#radial-gradient-3);}.cls-8{fill:url(#radial-gradient-4);}.cls-9{fill:url(#radial-gradient-5);}.cls-10{fill:url(#radial-gradient-6);}.cls-11{fill-opacity:0.7;fill:url(#radial-gradient-7);}.cls-12{fill:url(#radial-gradient-8);}.cls-13{fill:url(#radial-gradient-9);}.cls-14{fill-opacity:0.4;fill:url(#radial-gradient-10);}.cls-15{fill:url(#radial-gradient-11);}.cls-16{fill:url(#radial-gradient-12);}.cls-17{fill:url(#radial-gradient-13);}.cls-18{fill-opacity:0.8;fill:url(#radial-gradient-14);}.cls-19{fill:url(#radial-gradient-15);}.cls-20{fill:url(#radial-gradient-16);}.cls-21{stroke:#505050;stroke-width:1.5px;}</style><clipPath id="clip-path" transform="translate(8 7.74)"><rect class="cls-1" width="200" height="200"/></clipPath><radialGradient id="radial-gradient" cx="-850.21" cy="642.93" r="1" gradientTransform="matrix(-13.19, 29.47, 29.51, 13.18, -30009.6, 16627.82)" gradientUnits="userSpaceOnUse"><stop offset="0" stop-color="#b79fcc"/><stop offset="1" stop-color="#8b70b2"/></radialGradient><radialGradient id="radial-gradient-2" cx="-832.16" cy="634.81" r="1" gradientTransform="matrix(0.24, 10.55, 10.56, -0.23, -6452.73, 9001.22)" gradientUnits="userSpaceOnUse"><stop offset="0" stop-color="#f3adcd"/><stop offset="1" stop-color="#e574ad"/></radialGradient><radialGradient id="radial-gradient-3" cx="-815.39" cy="630.94" r="1" gradientTransform="matrix(0.14, 6.49, 6.5, -0.14, -3861.83, 5409.02)" xlink:href="#radial-gradient-2"/><radialGradient id="radial-gradient-4" cx="-841.98" cy="637.08" r="1" gradientTransform="matrix(0.37, 16.63, 16.65, -0.37, -10191.58, 14316.65)" xlink:href="#radial-gradient-2"/><radialGradient id="radial-gradient-5" cx="-841.69" cy="637.01" r="1" gradientTransform="matrix(0.36, 16.35, 16.37, -0.36, -9962.48, 14140.95)" xlink:href="#radial-gradient-2"/><radialGradient id="radial-gradient-6" cx="-839.43" cy="636.49" r="1" gradientTransform="matrix(0.32, 14.46, 14.48, -0.32, -8805.93, 12470.03)" xlink:href="#radial-gradient-2"/><radialGradient id="radial-gradient-7" cx="-835.15" cy="635.5" r="1" gradientTransform="matrix(0.26, 11.87, 11.88, -0.26, -7157.24, 10154)" xlink:href="#radial-gradient-2"/><radialGradient id="radial-gradient-8" cx="-854.3" cy="631.78" r="1" gradientTransform="matrix(21.93, 17.56, 17.59, -21.91, 7774.69, 29010.39)" gradientUnits="userSpaceOnUse"><stop offset="0" stop-color="#99d9e5"/><stop offset="1" stop-color="#5fc7d2"/></radialGradient><radialGradient id="radial-gradient-9" cx="-855.7" cy="634.53" r="1" gradientTransform="matrix(31.24, 25.01, 25.05, -31.2, 10983.74, 41252.98)" xlink:href="#radial-gradient-8"/><radialGradient id="radial-gradient-10" cx="-855.19" cy="633.53" r="1" gradientTransform="matrix(27.08, 21.68, 21.71, -27.04, 9541.76, 35771.2)" xlink:href="#radial-gradient-8"/><radialGradient id="radial-gradient-11" cx="-830.62" cy="647.23" r="1" gradientTransform="matrix(-4.09, 9.13, 9.14, 4.08, -9179.4, 5089.6)" xlink:href="#radial-gradient"/><radialGradient id="radial-gradient-12" cx="-840.14" cy="645.14" r="1" gradientTransform="matrix(-6.15, 13.74, 13.76, 6.14, -13874.33, 7683.4)" xlink:href="#radial-gradient"/><radialGradient id="radial-gradient-13" cx="-845.33" cy="644" r="1" gradientTransform="matrix(-8.49, 18.96, 18.98, 8.48, -19292.64, 10609.49)" xlink:href="#radial-gradient"/><radialGradient id="radial-gradient-14" cx="-842.37" cy="644.65" r="1" gradientTransform="matrix(-6.97, 15.57, 15.59, 6.96, -15845.14, 8694.64)" xlink:href="#radial-gradient"/><radialGradient id="radial-gradient-15" cx="-854.85" cy="632.87" r="1" gradientTransform="matrix(24.86, 19.91, 19.94, -24.83, 8709.02, 32780.85)" xlink:href="#radial-gradient-8"/><radialGradient id="radial-gradient-16" cx="-855.17" cy="633.49" r="1" gradientTransform="matrix(26.94, 21.57, 21.6, -26.91, 9536.9, 35605.92)" xlink:href="#radial-gradient-8"/></defs><title>logoglit</title><g class="cls-2"><path class="cls-3" d="M7.64,0H192.09A7.9,7.9,0,0,1,200,7.89V192.11a7.9,7.9,0,0,1-7.91,7.89H7.64a7.9,7.9,0,0,1-7.9-7.89V7.89A7.9,7.9,0,0,1,7.64,0Z" transform="translate(8 7.74)"/><path class="cls-4" d="M7.64,2.76H192.09a5.14,5.14,0,0,1,5.14,5.13V192.11a5.14,5.14,0,0,1-5.14,5.13H7.64a5.14,5.14,0,0,1-5.14-5.13V7.89A5.14,5.14,0,0,1,7.64,2.76Z" transform="translate(8 7.74)"/><ellipse class="cls-5" cx="169.73" cy="49.78" rx="27.07" ry="27.03"/><ellipse class="cls-6" cx="58" cy="75.17" rx="10.66" ry="10.65"/><ellipse class="cls-7" cx="121.51" cy="26.27" rx="6.56" ry="6.55"/><ellipse class="cls-8" cx="109.77" cy="76.33" rx="16.81" ry="16.79"/><ellipse class="cls-9" cx="163.08" cy="147.09" rx="16.53" ry="16.51"/><ellipse class="cls-10" cx="142.97" cy="125.78" rx="14.62" ry="14.6"/><ellipse class="cls-11" cx="176.11" cy="74.69" rx="12" ry="11.98"/><ellipse class="cls-12" cx="147.09" cy="165.11" rx="14.24" ry="14.22"/><ellipse class="cls-13" cx="145.73" cy="51.52" rx="20.27" ry="20.25"/><ellipse class="cls-14" cx="139.2" cy="94.5" rx="17.57" ry="17.55"/><ellipse class="cls-15" cx="130.32" cy="149.57" rx="8.39" ry="8.37"/><ellipse class="cls-16" cx="166.09" cy="105.28" rx="12.62" ry="12.6"/><ellipse class="cls-17" cx="102.56" cy="45.25" rx="17.41" ry="17.39"/><ellipse class="cls-18" cx="77.42" cy="66.93" rx="14.31" ry="14.29"/><ellipse class="cls-19" cx="71.15" cy="47.27" rx="16.14" ry="16.11"/><ellipse class="cls-20" cx="181.79" cy="111.87" rx="17.48" ry="17.46"/><rect class="cls-1" x="43.87" y="7.86" width="47.76" height="47.7" transform="translate(3.6 19.69) rotate(-9.77)"/><rect class="cls-1" x="100.55" y="4.71" width="56.69" height="56.76" transform="translate(80.61 161.41) rotate(-79.38)"/><polygon class="cls-1" points="84.15 83.88 112.66 43 153.6 71.47 125.08 112.36 84.15 83.88"/><rect class="cls-1" x="135.07" y="110.41" width="54.6" height="54.56" transform="translate(-34.38 87.1) rotate(-24.4)"/><rect class="cls-1" x="162.84" y="84.45" width="28.38" height="28.35" transform="translate(4.92 13.47) rotate(-1.84)"/><rect class="cls-1" x="38.75" y="56.04" width="23.62" height="23.65" transform="translate(-12.64 121.34) rotate(-86.03)"/><path class="cls-21" d="M5.78,194.72c11.38-54.29,27.69-81,59.41-116.13" transform="translate(8 7.74)"/><path class="cls-21" d="M5.93,194.71c35.2-33.77,60.54-43.76,101.49-50.42" transform="translate(8 7.74)"/><path class="cls-21" d="M6.2,194.17c36.62-43,64.17-59.27,109.49-75.7" transform="translate(8 7.74)"/><path class="cls-21" d="M5.87,193.94C28.48,143.7,44.92,119,88.11,87.47" transform="translate(8 7.74)"/><path class="cls-21" d="M5.93,194.37c42.14-25.12,66.79-34.23,114.49-32.11" transform="translate(8 7.74)"/><path class="cls-21" d="M5.79,194.11C38.26,144.71,59.71,121,109.94,93.48" transform="translate(8 7.74)"/></g></svg>