<!-- by TradingView --><svg width="18" height="18" xmlns="http://www.w3.org/2000/svg"><path fill="url(#paint0_linear)" d="M0 0h18v18H0z"/><path d="M4.226 8.444S5.334 6.752 7.5 6.585V6C5.1 6.194 3 8.32 3 8.32S4.2 11.687 7.5 12v-.622c-2.422-.307-3.274-2.934-3.274-2.934zm3.274 1.76v.569c-1.83-.329-2.361-2.246-2.361-2.246s.901-.98 2.361-1.14v.625c-.766-.093-1.39.628-1.39.628s.358 1.214 1.39 1.563zM7.5 5v1c.07-.005.118-.01.189-.012 2.728-.093 4.505 2.333 4.505 2.333s-2.041 2.5-4.168 2.5c-.195 0-.355-.017-.526-.048v.605c.147.019.276.03.434.03 1.98 0 3.41-.956 4.797-2.162.23.186 1.17.637 1.364.834-1.318 1.112-4.39 1.946-6.13 1.946-.168 0-.307-.01-.465-.026v1H15V5H7.5zm0 2.387v-.802c.07-.005.117-.009.189-.01 1.962-.063 3.249 1.777 3.249 1.777s-1.39 1.945-2.88 1.945c-.215 0-.385-.035-.558-.094v-2.19c.764.092.895.432 1.354 1.203l1.02-.867s-.744-.985-2.001-.985c-.137 0-.245.01-.373.023z" fill="#76B900"/><defs><linearGradient id="paint0_linear" x1="3.349" y1="3.122" x2="21.904" y2="24.434" gradientUnits="userSpaceOnUse"><stop stop-color="#1A1E21"/><stop offset="1" stop-color="#06060A"/></linearGradient></defs></svg>