<!-- by TradingView --><svg width="18" height="18" xmlns="http://www.w3.org/2000/svg"><path fill="#E51937" d="M0 0h18v18H0z"/><path d="M14 9.007C14 11.775 11.761 14 8.98 14 6.239 14 4 11.761 4 9.007a5 5 0 1110 0zm-4.886-.66C8.802 8.105 8.64 8 8.327 8c-.556.014-.89.402-.89.958v.74c0 .204.09.302.252.302.163 0 .258-.085.258-.274v-.727c0-.285.163-.434.448-.42.258 0 .42.162.434.434v.713c0 .217.13.274.285.274.155 0 .258-.125.258-.274v-.673c0-.284.176-.474.448-.46.271 0 .416.176.43.474v.645c0 .16.12.288.284.288.163 0 .25-.133.25-.274v-.808c0-.448-.353-.918-.89-.918-.536 0-.78.348-.78.348zm-1.804.774v-.836c0-.176-.095-.271-.258-.285-.923-.081-1.83.389-2.25 1.23-.096.19-.136.292-.177.51-.027.135.054.26.177.26h1.52c.148 0 .244-.125.244-.288 0-.163-.105-.2-.295-.2h-.855c-.095 0-.108-.042-.081-.11.23-.556.771-.713 1.314-.767.095-.013.168.021.168.116v.988c.027.163.126.261.275.261.15-.014.231-.119.231-.295-.013-.23-.013-.584-.013-.584zm4.708.879c.41 0 .69-.145.95-.5.054-.15.075-.257-.06-.31-.136-.055-.258-.052-.326.07-.136.272-.367.364-.665.336-.299-.04-.49-.244-.503-.543-.014-.298.136-.542.421-.61.34-.081.682.023.804.308.04.095.099.167.194.167.203.027.285-.128.23-.272C12.9 8.226 12.41 8 12.018 8c-.559 0-1.062.406-1.062 1 0 .774.651 1 1.062 1z" fill="#fff"/></svg>