<svg 
xmlns="http://www.w3.org/2000/svg" xmlns:xlink="http://www.w3.org/1999/xlink" viewBox="0 0 162.87 212.16">
<title>Kreechures</title>
<desc>kreechure.com</desc>
<defs>
<style>.cls-1{fill:url(#linear-gradient);}</style>
<linearGradient id="linear-gradient" x1="81.43" y1="184.31" x2="81.43" y2="56.55" gradientUnits="userSpaceOnUse">
<stop offset="0" stop-color="#6f1c82"/>
<stop offset="0.99" stop-color="#6f41e8"/>
</linearGradient>
</defs>
<g id="Layer_2" data-name="Layer 2">
<g id="Layer_1-2" data-name="Layer 1"><path class="cls-1" d="M162.87,101.16a81.57,81.57,0,0,0-59-78.26V0H90.74V20.28a79.07,79.07,0,0,0-18.62,0V0H59V22.9A81.57,81.57,0,0,0,0,101.16c0,37.11,25,76,59,88.34v22.66H72.12V192.84a61.39,61.39,0,0,0,18.62,0v19.32h13.15V189.5C137.9,177.12,162.87,138.27,162.87,101.16ZM104.08,139.7c0,2.3.08,10.57.18,19.41.14,12.68-9.91,23.42-22.58,23.48h-.49c-12.68-.06-22.72-10.8-22.58-23.48.09-8.84.18-17.11.18-19.41,0-5.51,4.5-39.08-30.56-56.61,0,0-4.22,51.5-.42,65.34-9.17-14.34-14.66-31.35-14.66-47.27a68.29,68.29,0,0,1,136.57,0c0,15.92-5.49,32.93-14.66,47.27,3.79-13.84-.42-65.34-.42-65.34C99.57,100.62,104.08,134.19,104.08,139.7Z"/>
</g>
</g>
</svg>