<?xml version="1.0" encoding="utf-8"?>
<!-- Generator: Adobe Illustrator 23.0.0, SVG Export Plug-In . SVG Version: 6.00 Build 0)  -->
<svg version="1.1" id="Capa_1" xmlns="http://www.w3.org/2000/svg" xmlns:xlink="http://www.w3.org/1999/xlink" x="0px" y="0px"
	 viewBox="0 0 402.53 500" style="enable-background:new 0 0 402.53 500;" xml:space="preserve">
<style type="text/css">
	.st0{fill:#FFFFFF;}
	.st1{font-family:'AzonixRegular';}
	.st2{font-size:99.8354px;}
	.st3{fill:#ECEDEE;}
	.st4{fill:#D7D8DB;}
	.st5{fill:url(#SVGID_1_);}
	.st6{fill:url(#SVGID_2_);}
	.st7{fill:url(#SVGID_3_);}
	.st8{fill:url(#SVGID_4_);}
	.st9{fill:url(#SVGID_5_);}
	.st10{fill:url(#SVGID_6_);}
	.st11{fill:url(#SVGID_7_);}
</style>
<g>
	<text transform="matrix(1 0 0 1 78.3149 464.4736)" class="st0 st1 st2">ITSC</text>
	<g>
		<path class="st0" d="M148.31,228.17c0-0.12-0.01-0.25-0.01-0.37L148.31,228.17L148.31,228.17
			C148.31,228.17,148.31,228.17,148.31,228.17L148.31,228.17z"/>
		<path class="st0" d="M257.88,235.51c0,0.11-0.01,0.21-0.01,0.32h0.01c0,0,0,0,0,0.01h0V235.51z"/>
		<path class="st3" d="M265.59,228.17h-12.8c-0.81,24.66-21.06,44.5-45.88,44.5c-13.59,0-25.85-6.03-34.29-15.48l-10.47,8.42
			c10.76,12.74,26.83,20.84,44.81,20.84C239.22,286.45,265.37,260.39,265.59,228.17L265.59,228.17
			C265.59,228.17,265.59,228.17,265.59,228.17z"/>
		<polygon class="st0" points="257.88,235.83 257.88,235.84 257.88,235.84 257.88,235.83 		"/>
		<path class="st4" d="M161.02,228.17h-12.71c0,0,0,0.01,0,0.01h0c0.1,14.26,5.27,27.3,13.83,37.43l10.47-8.42
			C165.69,249.41,161.38,239.3,161.02,228.17z"/>
		<polygon class="st0" points="148.31,228.17 148.31,228.17 148.31,228.17 148.31,228.17 		"/>
		<path class="st4" d="M265.59,147.32v65.37h-12.71v-66.39h12.66C265.55,146.62,265.59,146.96,265.59,147.32z"/>
		<rect x="148.31" y="212.68" class="st0" width="117.29" height="15.72"/>
		<path class="st0" d="M148.31,174.96h12.83v18.08c0,0.05,0.02,0.1,0.02,0.14v19.51h0.02v-39.56v-31.34
			c0-7.15,5.89-13.07,13.04-13.07h0.83v-13.28c-14.88,2.62-26.23,15.36-26.71,30.86h-0.05v1.03v65.37h0.01V174.96z"/>
		<path class="st4" d="M161.16,193.03v-18.08h-12.85v37.73h12.87v-19.51C161.19,193.13,161.16,193.08,161.16,193.03z"/>
		<path class="st3" d="M265.55,146.29h-12.66v2c0-10.78-8.78-19.77-19.63-19.77c-1.36,0-2.67,0.14-3.96,0.41
			c-4.46,0.93-8.37,3.41-11.18,6.84c-0.69,0.86-1.34,1.76-1.88,2.74c-0.26,0.48-0.52,0.98-0.76,1.48c0,0.02,0,0.02,0,0.02
			c-0.1,0.19-0.19,0.41-0.26,0.62c-0.14,0.31-0.26,0.6-0.36,0.91c-0.14,0.36-0.26,0.74-0.36,1.12c-0.07,0.17-0.12,0.33-0.17,0.52
			c-0.05,0.12-0.07,0.24-0.07,0.36c-0.1,0.38-0.19,0.76-0.26,1.14c0,0.02,0,0.02,0,0.02c-0.05,0.31-0.1,0.62-0.14,0.93
			c-0.14,0.86-0.19,1.74-0.19,2.65v64.39H200.8v-65.37c0-7.08,2.29-13.62,6.15-18.94c5.89-8.16,15.43-13.47,26.26-13.47
			C250.74,114.91,265,128.88,265.55,146.29z"/>
		<path class="st4" d="M213.63,193.03v-18.08H200.8v37.73h12.85v-19.51C213.65,193.13,213.63,193.08,213.63,193.03z"/>
	</g>
	<g>
		
			<radialGradient id="SVGID_1_" cx="78.441" cy="-243.8385" r="521.2407" gradientTransform="matrix(0.9893 0.1459 -0.1459 0.9893 -22.2367 212.5301)" gradientUnits="userSpaceOnUse">
			<stop  offset="0" style="stop-color:#459F84"/>
			<stop  offset="1" style="stop-color:#994D93"/>
		</radialGradient>
		<path class="st5" d="M274.62,37.9c-88.63-37.31-191.1,4.43-228.41,93.07s4.43,191.1,93.07,228.41s191.1-4.43,228.41-93.07
			S363.25,75.21,274.62,37.9z M151.03,358.01c-1.72-0.6-3.43-1.23-5.14-1.89c-0.02-0.01-0.04-0.02-0.06-0.02
			c-1.48-0.57-2.95-1.16-4.42-1.78c-0.24-0.1-0.48-0.21-0.72-0.31c0,0-0.01,0-0.01-0.01c-1.75-0.75-3.48-1.53-5.2-2.33
			c-81.75-38.13-119.5-134.74-84.2-218.57C87.41,47.26,186.65,6.82,272.49,42.96s126.27,135.38,90.13,221.22
			C327.83,346.83,234.54,387.37,151.03,358.01z"/>
		
			<radialGradient id="SVGID_2_" cx="-167.9431" cy="-237.8626" r="521.1805" gradientTransform="matrix(0.9216 0.388 -0.388 0.9216 210.9454 245.0555)" gradientUnits="userSpaceOnUse">
			<stop  offset="0" style="stop-color:#459F84"/>
			<stop  offset="1" style="stop-color:#994D93"/>
		</radialGradient>
		<path class="st6" d="M222.18,350.93c-0.81-1.28-2.01-2.34-3.52-2.97c-3.8-1.6-8.15,0.08-9.93,3.74
			c-19.15,0.25-38.63-3.1-57.47-10.46c-1.24-0.49-2.48-0.99-3.72-1.51c-0.48-0.2-0.94-0.41-1.42-0.62l0.18-12.33l0.09-6.06
			c-0.02-0.01-0.04-0.02-0.06-0.03c-1.73-0.86-3.45-1.75-5.13-2.67c0,0-0.01,0-0.01-0.01c-1.76-0.97-3.49-1.97-5.19-3.01
			c-14.08-8.57-26.16-19.45-35.98-31.92c0,0,0-0.01,0.01-0.01c1.65-3.93-0.19-8.46-4.12-10.11c-1.15-0.48-2.34-0.66-3.51-0.58
			c-7.96-12.41-13.87-26.05-17.5-40.32c0.53-0.39,1.02-0.82,1.44-1.34c0.44-0.55,0.81-1.16,1.1-1.83c1.56-3.69,0.02-7.91-3.44-9.78
			c-0.22-0.12-0.45-0.23-0.68-0.33c-1.64-0.69-3.38-0.76-4.98-0.34c-0.36,0.1-0.71,0.23-1.06,0.38c-0.21,0.04-0.41,0.06-0.62,0.11
			c0.01,0.05,0.02,0.11,0.03,0.16c-1.51,0.8-2.77,2.11-3.49,3.81c-1.65,3.93,0.19,8.46,4.12,10.11c0.75,0.32,1.52,0.49,2.29,0.56
			c0.04,0.15,0.07,0.3,0.11,0.45c3.72,14.38,9.68,28.13,17.65,40.69c-0.65,0.67-1.19,1.46-1.58,2.38
			c-1.65,3.93,0.19,8.46,4.12,10.11c2.09,0.88,4.34,0.76,6.25-0.12c10.77,13.54,24.14,25.25,39.75,34.28
			c1.7,0.98,3.44,1.93,5.19,2.85l-0.18,12.56l-0.09,6.02c0,0,0.01,0,0.01,0.01c1.51,0.69,3.03,1.37,4.57,2.02
			c0.19,0.08,0.38,0.15,0.56,0.23c0.02,0.01,0.04,0.02,0.06,0.03c1.71,0.71,3.42,1.38,5.14,2.03c18.74,7.05,38.05,10.31,57.06,10.12
			c0.62,2.17,2.18,4.05,4.42,4.99c3.93,1.65,8.46-0.19,10.11-4.12c0.24-0.57,0.4-1.15,0.49-1.73
			c53.38-5.62,102.4-38.19,126.81-89.46l-6.07-0.09C320.01,315.14,273.12,345.75,222.18,350.93z"/>
		
			<radialGradient id="SVGID_3_" cx="-167.9431" cy="-237.8626" r="521.1805" gradientTransform="matrix(0.9216 0.388 -0.388 0.9216 210.9454 245.0555)" gradientUnits="userSpaceOnUse">
			<stop  offset="0" style="stop-color:#459F84"/>
			<stop  offset="1" style="stop-color:#994D93"/>
		</radialGradient>
		<path class="st7" d="M59.94,155.96c0.53-1.82,1.09-3.64,1.69-5.45l9.06,9.01l4.47,4.45c0.02-0.07,0.03-0.13,0.05-0.2
			c0.49-1.85,1.02-3.7,1.59-5.55c0.01-0.02,0.01-0.03,0.02-0.05c0.58-1.85,1.19-3.7,1.85-5.54c0.83-2.3,1.72-4.6,2.68-6.88
			c17.86-42.42,54.82-71.09,96.69-80.24c0.81,1.47,2.1,2.7,3.77,3.4c3.93,1.65,8.46-0.19,10.11-4.12c0.22-0.53,0.38-1.08,0.48-1.63
			c16.12-1.76,32.72-0.66,49.02,3.62c1.9,0.5,3.79,1.03,5.68,1.62c0.02,0.01,0.05,0.02,0.07,0.02c1.81,0.56,3.61,1.16,5.41,1.8
			c0.02,0.01,0.04,0.02,0.07,0.02l4.26-4.28l8.68-8.73c0.25,0.11,0.51,0.2,0.76,0.31c1.46,0.61,2.89,1.25,4.32,1.91
			c18.19,8.32,34.01,19.82,47.07,33.57c-0.23,0.36-0.44,0.75-0.62,1.16c-1.65,3.93,0.19,8.46,4.12,10.11
			c2.05,0.86,4.26,0.77,6.15-0.08c1.69-0.75,3.1-2.11,3.91-3.92c0.02-0.04,0.04-0.08,0.06-0.12c1.65-3.93-0.19-8.46-4.12-10.11
			c-1.66-0.7-3.43-0.77-5.04-0.32c-13.19-14-29.11-25.77-47.41-34.42c-1.66-0.78-3.33-1.54-5.03-2.27
			c-0.02-0.01-0.04-0.02-0.06-0.03c-0.41-0.17-0.81-0.36-1.21-0.53c-1.29-0.54-2.59-1.07-3.89-1.58c-0.02-0.01-0.04-0.02-0.07-0.03
			l-4.25,4.27l-8.83,8.88c-1.86-0.61-3.72-1.18-5.58-1.72c-18.09-5.18-36.58-6.57-54.5-4.55c-0.81-1.33-2.03-2.42-3.58-3.07
			c-3.93-1.65-8.46,0.19-10.11,4.12c-0.17,0.41-0.3,0.83-0.4,1.26c-43.73,9.43-82.36,39.3-101,83.56c-0.66,1.58-1.29,3.17-1.89,4.75
			c-0.69,1.81-1.34,3.62-1.95,5.44L63.58,145l-4.27-4.24c-0.01,0.02-0.01,0.03-0.02,0.05c-0.68,1.73-1.32,3.47-1.93,5.21
			c-0.02,0.06-0.04,0.12-0.06,0.18c-0.63,1.78-1.22,3.57-1.78,5.36c-22.93,73.59,10.86,153.89,80.12,188.7l0.09-6.13
			C71.34,300.35,39.73,225.38,59.94,155.96z"/>
		
			<radialGradient id="SVGID_4_" cx="-167.9431" cy="-237.8626" r="521.1805" gradientTransform="matrix(0.9216 0.388 -0.388 0.9216 210.9454 245.0555)" gradientUnits="userSpaceOnUse">
			<stop  offset="0" style="stop-color:#459F84"/>
			<stop  offset="1" style="stop-color:#994D93"/>
		</radialGradient>
		<path class="st8" d="M257.93,72.26c0.63,0.26,1.27,0.51,1.9,0.77c69.18,29.12,101.8,109.04,72.82,178.25l5.89,0.08
			c28.65-71.46-5.24-153.25-76.41-183.32L257.93,72.26z"/>
		
			<radialGradient id="SVGID_5_" cx="78.4409" cy="-243.8385" r="521.2407" gradientTransform="matrix(0.9893 0.1459 -0.1459 0.9893 -22.2367 212.5301)" gradientUnits="userSpaceOnUse">
			<stop  offset="0" style="stop-color:#459F84"/>
			<stop  offset="1" style="stop-color:#994D93"/>
		</radialGradient>
		<path class="st9" d="M254.95,84.63c-62.86-26.47-135.54,3.15-162,66.01c-26.47,62.86,3.15,135.54,66.01,162
			c62.86,26.47,135.54-3.15,162-66.01C347.42,183.77,317.81,111.1,254.95,84.63z M161.08,307.58
			c-60.07-25.29-88.37-94.74-63.08-154.81s94.74-88.37,154.81-63.08s88.37,94.74,63.08,154.81
			C290.6,304.57,221.15,332.87,161.08,307.58z"/>
		
			<radialGradient id="SVGID_6_" cx="-167.9431" cy="-237.8626" r="521.1805" gradientTransform="matrix(0.9216 0.388 -0.388 0.9216 210.9454 245.0555)" gradientUnits="userSpaceOnUse">
			<stop  offset="0" style="stop-color:#459F84"/>
			<stop  offset="1" style="stop-color:#994D93"/>
		</radialGradient>
		<path class="st10" d="M96.87,92.26c0.12,0.06,0.24,0.12,0.36,0.18c3.93,1.65,8.46-0.19,10.11-4.12c0.83-1.97,0.78-4.09,0.03-5.92
			c39.71-33.91,95.51-46.33,147.51-29.14l4.31-4.33c-54.67-19.12-113.76-6.35-155.57,29.47c-0.13-0.06-0.25-0.13-0.39-0.19
			c-3.93-1.65-8.46,0.19-10.11,4.12c-0.83,1.98-0.78,4.1-0.02,5.94C93.79,89.96,95.1,91.4,96.87,92.26z"/>
		
			<radialGradient id="SVGID_7_" cx="-167.9431" cy="-237.8626" r="521.1805" gradientTransform="matrix(0.9216 0.388 -0.388 0.9216 210.9454 245.0555)" gradientUnits="userSpaceOnUse">
			<stop  offset="0" style="stop-color:#459F84"/>
			<stop  offset="1" style="stop-color:#994D93"/>
		</radialGradient>
		<path class="st11" d="M354.46,256.83c0.01-0.02,0.02-0.04,0.03-0.06c0.67-1.71,1.31-3.42,1.92-5.14
			c5.71-16.08,8.66-32.55,9.07-48.86c1.75-0.76,3.23-2.17,4.03-4.08c1.65-3.93-0.19-8.46-4.12-10.11c-0.07-0.03-0.14-0.05-0.21-0.08
			c-1.84-0.71-3.79-0.67-5.5-0.03c-1.91,0.72-3.54,2.19-4.4,4.22c-1.65,3.93,0.19,8.46,4.12,10.11c0.19,0.08,0.38,0.14,0.57,0.21
			c-0.44,16.21-3.49,32.58-9.37,48.52c-0.63,1.72-1.3,3.43-2,5.14l-12.22-0.17l-6.01-0.09c-0.01,0.02-0.02,0.04-0.03,0.06
			c-0.77,1.64-1.56,3.25-2.38,4.85c-0.05,0.1-0.1,0.19-0.15,0.29c-0.86,1.66-1.76,3.29-2.68,4.9c-10.03,17.49-23.56,32.06-39.3,43.2
			c-0.53-0.42-1.12-0.78-1.77-1.05c-3.93-1.65-8.46,0.19-10.11,4.12c-0.65,1.54-0.75,3.18-0.41,4.69c0.41,1.82,1.47,3.47,3.04,4.59
			c0.46,0.32,0.95,0.61,1.49,0.83c3.93,1.65,8.46-0.19,10.11-4.12c0.6-1.42,0.73-2.92,0.48-4.33
			c17.32-12.18,32.08-28.33,42.72-47.83c0.88-1.61,1.72-3.25,2.54-4.91l12.44,0.18l5.96,0.09c0.04-0.1,0.08-0.19,0.13-0.29
			c0.22-0.5,0.44-1,0.66-1.51C353.57,259.06,354.02,257.94,354.46,256.83z"/>
	</g>
</g>
</svg>
