<svg id="Layer_1" data-name="Layer 1" xmlns="http://www.w3.org/2000/svg" viewBox="0 0 1000 1000"><defs><style>.cls-1{fill:#ffca00;}.cls-2,.cls-8{fill:#011255;}.cls-3,.cls-7{fill:#c1b0e0;}.cls-3,.cls-4,.cls-5,.cls-6,.cls-8{stroke:#011255;stroke-linecap:round;stroke-linejoin:round;}.cls-3,.cls-4,.cls-5,.cls-6{stroke-width:5.51px;}.cls-4{fill:#f3e4e1;}.cls-5{fill:#e09411;}.cls-6{fill:none;}.cls-8{stroke-width:1.33px;}</style></defs><rect class="cls-1" x="-0.19" y="-0.12" width="1002.63" height="1002.63"/><path class="cls-2" d="M877.75,442c-2.28-11.64-7.65-22.92-34.09-46.75S714.4,282.52,714.4,282.52s12.32-10.5,14.84-12.44-17-14.68-17-14.68,17.45-12.14,18.82-28.6-3.93-19.49-27-37.56-20.68-18.52-30.77-25.48-22.38-4.31-55.38,1.19c-1.8.3-3.54.56-5.26.8a111.25,111.25,0,0,0,2-33.43C611.7,100,585.45,62.07,533.3,53c-53.14-9.24-99.19,20-109.21,63.69-36.83,9.56-58.57,63.33-62.46,112l-1.48.88c-12.81,7.88-25.23,19.65-36.51,35.8-55.79,79.84-153.7,245.74-153.7,245.74A133.94,133.94,0,0,0,155.7,622.28l86.59,275.87C265.29,971.43,361,980.7,404.43,919S558,674,558,674c20.79-33.17,27.15-76.11,8-131.31L485.86,286.26a112,112,0,0,0-18.71-36,96,96,0,0,0-10.71-11.54h0c-21-19.15-48.78-26.82-76.45-18.2,4.48-38.92,18.29-76.12,42-87.41-1.11,31.13,13.1,61.56,42.4,80-3.06,14.46-6.49,25-6.49,25l10.5,12.09a273.59,273.59,0,0,0,9.39-29.94,125.28,125.28,0,0,0,33.93,9.33c16.52,2.23,30.74,1.53,42.92-1.43-4.94,24.26-8.32,36.31-7.08,45,1.69,11.91,12.76,16,25.41,29.41s30.24,29.61,48.62,19.11L640,311.18,655,327.87,675.16,314s24.71,22.61,35.47,33.07,16.74,5.18,22.67,12,1.16,14.52,5.14,18.81,6.9-.62,16.38,2.11,2.67,8.67,7.86,15.4,12,12.88,18.83,18.31,13.79-1.26,19.36,2.49-3.5,15.43,1.88,20.67,13.87-2,19.34,2.48-2.55,14.05,6.45,20.51,26,4.09,38,4.88S880,453.63,877.75,442ZM467.21,197.09c-22.13-16.76-34-42-30-67.47C470,129.42,471.6,166.3,467.21,197.09Zm133.22-54.24a91.31,91.31,0,0,1-4.93,25h-.12a84.91,84.91,0,0,0-11.37,2c-12.64,3.36-20.76,11-24.93,34.82-.35,2-.7,3.91-1,5.79-12.55,5.74-27.76,8-45.44,5.32a104,104,0,0,1-31.55-10c7.37-37.77,7.41-86.51-40-90.35C456.76,74,488.5,65.08,523.76,66.9,559.67,68.74,602.88,100.28,600.43,142.85Z"/><path class="cls-3" d="M579.05,531.72,498.86,275.26a112,112,0,0,0-18.71-36,96,96,0,0,0-10.71-11.54h0c-21.34-19.48-49.76-27.1-77.9-17.75a89.09,89.09,0,0,0-18.39,8.65c-12.81,7.88-25.23,19.65-36.51,35.8-55.79,79.84-153.7,245.74-153.7,245.74A133.94,133.94,0,0,0,168.7,611.28l86.59,275.87C278.29,960.43,374,969.7,417.43,908S571,663,571,663C591.79,629.86,598.15,586.92,579.05,531.72ZM416.88,271.54a21.82,21.82,0,0,1,13.77,7.37l.06.07A21.79,21.79,0,0,1,436,293.51v.07a21.66,21.66,0,0,1-.18,2.52,22,22,0,1,1-19-24.56Z"/><path class="cls-4" d="M276.19,805.5c54.28,9.76,82.94,12.74,144.38,20"/><path class="cls-4" d="M283.93,833.59c65.31,10,92.67,7.73,118.19,15.2"/><path class="cls-4" d="M295.27,863.06c31.71,3.81,64.7,7.42,92.29,11.87"/><path class="cls-5" d="M890.75,431c-2.28-11.64-7.65-22.92-34.09-46.75S727.4,271.52,727.4,271.52s12.32-10.5,14.84-12.44-17-14.68-17-14.68,17.45-12.14,18.82-28.6-3.93-19.49-27-37.56-20.68-18.52-30.77-25.48-22.38-4.31-55.38,1.19c-8.43,1.41-15.93,2-22.54,2.87a84.91,84.91,0,0,0-11.37,2c-12.64,3.36-20.76,11-24.93,34.82C565,234.37,559,251,560.56,262.16c1.69,11.91,12.76,16,25.41,29.41s30.24,29.61,48.62,19.11L653,300.18,668,316.87,688.16,303s24.71,22.61,35.47,33.07,16.74,5.18,22.67,12,1.16,14.52,5.14,18.81,6.9-.62,16.38,2.11,2.67,8.67,7.86,15.4,12,12.88,18.83,18.31,13.79-1.26,19.36,2.49-3.5,15.43,1.88,20.67,13.87-2,19.34,2.48-2.55,14.05,6.45,20.51,26,4.09,38,4.88S893,442.63,890.75,431ZM610,190.87c-17.73,7.61-23.35-10.88-12.32-17C612.5,165.71,621.78,185.82,610,190.87Z"/><path class="cls-5" d="M876.26,429.88c-28.37-39.21-104.54-97.06-157.88-147"/><path class="cls-5" d="M577.55,251.13c-3,8.32-1,10.84,8.78,20.05s15.54,14.48,21,19,11.82,14,27.91,3.59,84.57-59.49,91.61-68,4.68-15.48,4.68-15.48"/><path class="cls-5" d="M661.7,291.09c3.39,3.08,8.72,8.69,8.72,8.69s43-29.71,53.49-39.35"/><path class="cls-6" d="M209.48,497.91c37.79-65,113.17-171.57,133.12-208.73s41.56-68.43,78.55-62.54,51.66,29.09,71.53,98.08c20.19,70.11,37.4,121,56.73,182.49s30.68,103.07-4.72,160.94S446,825.83,409.05,884.64s-111.43,46.7-127.53,6.16c-18-45.42-57.91-183.11-78.64-242.53S177,553.74,209.48,497.91Z"/><path class="cls-5" d="M430.71,279s-35.33,30.55-38.92-27,15-132.64,57.94-133.35c56.95-.94,21.17,108.44,21.17,108.44l10.49,12.11s52.41-132.37-31-135c-71-2.21-96.06,150.7-60,188.43,21.16,22.16,45.68.87,45.68.87C435.32,288.8,435.34,284.73,430.71,279Z"/><path class="cls-5" d="M571.05,199.47c-1.19,6.52-2.33,12.38-3.41,17.65-12.18,3-26.4,3.66-42.92,1.43a125.28,125.28,0,0,1-33.93-9.33h0a101.84,101.84,0,0,1-13.4-7.11c-29.3-18.45-43.51-48.88-42.4-80a35.28,35.28,0,0,1,14.74-3.47c.15,0,.3,0,.44,0-4,25.49,7.91,50.71,30,67.47a92.62,92.62,0,0,0,13.84,8.67,104,104,0,0,0,31.55,10C543.28,207.48,558.49,205.21,571.05,199.47Z"/><path class="cls-5" d="M625.66,154.75A92,92,0,0,1,615.31,182c-.63,1.1-1.3,2.18-2,3.24-1.37,2.1-2.84,4.15-4.41,6.13-10.22,3.86-16.13-1.18-16.79-7.07a72.69,72.69,0,0,0,9-11.79,80.86,80.86,0,0,0,7.42-15.66,91.31,91.31,0,0,0,4.93-25c2.45-42.57-40.76-74.11-76.67-75.95-35.26-1.82-67,7.07-82.73,48.51l-.84,2.3a65.64,65.64,0,0,0-3,11.91c-.14,0-.29,0-.44,0A35.28,35.28,0,0,0,435,122.09c.12-2.93.35-5.86.73-8.8a76.12,76.12,0,0,1,1.37-7.61C447.11,62,493.16,32.75,546.3,42c52.15,9.08,78.4,47,81.35,79.33A111.25,111.25,0,0,1,625.66,154.75Z"/><path class="cls-5" d="M477.39,202.1a101.84,101.84,0,0,0,13.4,7.11h0a273.59,273.59,0,0,1-9.39,29.94l-10.5-12.09S474.33,216.56,477.39,202.1Z"/><path class="cls-5" d="M494.05,194.76a92.62,92.62,0,0,1-13.84-8.67c4.39-30.79,2.79-67.67-30-67.47-.14,0-.29,0-.44,0A35.28,35.28,0,0,0,435,122.09c-32.44,15.45-46.34,79.4-43.2,129.88,3.6,57.56,38.92,27,38.92,27,4.64,5.75,4.61,9.82,5.32,14.53,0,0-24.52,21.29-45.68-.87-33.71-35.28-14-171.2,46.74-187a46.42,46.42,0,0,1,13.27-1.47c1.25,0,2.47.11,3.67.2C501.46,108.25,501.42,157,494.05,194.76Z"/><path class="cls-2" d="M272.43,560.78c-1.79-.84-3.49-1.67-5.09-2.51a50.5,50.5,0,0,0-4.81-2.23,14,14,0,0,0-5.33-.95,4.31,4.31,0,0,0-2.79.87,6.08,6.08,0,0,0-1.68,2.12,9.76,9.76,0,0,0-.83,2.57,12.17,12.17,0,0,0-.21,2.2,38.11,38.11,0,0,0,.76,7,41.93,41.93,0,0,0,2.19,7.4,46.67,46.67,0,0,0,3.51,7,29.6,29.6,0,0,0,4.74,6,22.32,22.32,0,0,0,6,4.15,17.2,17.2,0,0,0,7.2,1.63,13.22,13.22,0,0,0,6.75-1.34,15.09,15.09,0,0,0,3.94-3.16,31.7,31.7,0,0,0,2.42-3.19,2.48,2.48,0,0,1,2.11-1.41,1.48,1.48,0,0,1,1.1.64,4.89,4.89,0,0,1,.43,2.86,18.59,18.59,0,0,1-1.65,6.69A23.68,23.68,0,0,1,279.9,609a19.56,19.56,0,0,1-9.16,2,26.29,26.29,0,0,1-10.15-2.1,23.13,23.13,0,0,1-8.33-6.1,31.68,31.68,0,0,1-5.75-10.22,47.81,47.81,0,0,1-2.34-14.41,44.5,44.5,0,0,1,1.29-11.84,34.25,34.25,0,0,1,4.39-10.63,24.27,24.27,0,0,1,7.7-7.66,20.1,20.1,0,0,1,11-2.88,18.59,18.59,0,0,1,3.84.42c1.23.27,2.46.58,3.69.92s2.52.65,3.86,1a21.8,21.8,0,0,0,4.34.5,9.15,9.15,0,0,0,3-.34,14.29,14.29,0,0,0,2.11-.83l1.64-.82a3.16,3.16,0,0,1,1.55-.33,1.39,1.39,0,0,1,1.38.9,4.67,4.67,0,0,1,.2,2.22,14.6,14.6,0,0,1-.71,3,22.05,22.05,0,0,1-1.37,3.15c-.33.67-.75,1.44-1.26,2.29s-2.28,3.9-4.68,5.21C281.3,565,274.22,561.61,272.43,560.78Z"/><path class="cls-2" d="M295.51,571.8c.67-.23,1.83-.7,3.46-1.4s3.41-1.41,5.33-2.12,3.76-1.33,5.56-1.88a12.88,12.88,0,0,1,4.19-.74c1,.05,1.55.34,1.7.86a5.07,5.07,0,0,1,.17,1.73l-2,35.6a17,17,0,0,0,.23,4.53,6.72,6.72,0,0,0,1.59,3.13q-10.74-.63-21.49-1a6.86,6.86,0,0,0,1.88-3,17.8,17.8,0,0,0,.65-4.49l.93-24.52c0-.21,0-.54,0-1a6.76,6.76,0,0,0-.12-1.44,4.33,4.33,0,0,0-.57-1.49,2.63,2.63,0,0,0-1.37-1.07,3.71,3.71,0,0,0-.56-.22.64.64,0,0,1-.41-.71c0-.34.12-.55.33-.63Zm2.12-19.55a8.82,8.82,0,0,1,3-6.66,11.56,11.56,0,0,1,14.54.67,9.8,9.8,0,0,1-.73,13.53,11.45,11.45,0,0,1-14.34-.67A8.9,8.9,0,0,1,297.63,552.25Z"/><path class="cls-2" d="M318.69,566.88a8.81,8.81,0,0,0,3.79-.77,30,30,0,0,0,4.29-2.19c1.46-.88,2.92-1.86,4.4-2.93l4.09-2.94c1.24-.89,2.34-1.62,3.3-2.21a4.14,4.14,0,0,1,2.11-.83c.86.07,1.25.61,1.17,1.63l-.95,11.78,5.76.49c-.11,1.27-.17,1.91-.28,3.18-2.3-.2-3.44-.3-5.74-.48l-2.08,25.73c-.1,1.23-.2,2.48-.31,3.76a28.1,28.1,0,0,0-.06,3.65,9.72,9.72,0,0,0,.62,3.12,4.42,4.42,0,0,0,1.82,2.21,1.46,1.46,0,0,0,.75.32,3.86,3.86,0,0,1,.88.2,2.82,2.82,0,0,1-.93,1.46,6.51,6.51,0,0,1-1.76,1.07,8.88,8.88,0,0,1-2.24.58,11,11,0,0,1-2.35.07,15.19,15.19,0,0,1-7.25-2.11,11.56,11.56,0,0,1-4-4.37,15.24,15.24,0,0,1-1.6-5.87,47,47,0,0,1,0-6.5q.66-10.23,1.31-20.47c0-.46.05-.94.05-1.43a3,3,0,0,0-.25-1.33,2.41,2.41,0,0,0-.84-1,3.41,3.41,0,0,0-1.78-.49l-2.07-.12C318.58,568.79,318.62,568.15,318.69,566.88Z"/><path class="cls-2" d="M347.52,575c.69-.19,1.87-.6,3.54-1.22s3.47-1.23,5.42-1.83,3.83-1.13,5.65-1.59a13,13,0,0,1,4.21-.52c1,.1,1.54.42,1.66.95a5.22,5.22,0,0,1,.08,1.74q-1.93,17.73-3.86,35.45a17.43,17.43,0,0,0,0,4.53,6.67,6.67,0,0,0,1.42,3.21q-10.68-1.2-21.39-2.13a6.8,6.8,0,0,0,2-2.87,17.48,17.48,0,0,0,.89-4.44q1.11-12.22,2.21-24.44l.09-1a7,7,0,0,0,0-1.44,4.32,4.32,0,0,0-.5-1.52,2.64,2.64,0,0,0-1.3-1.15c-.09,0-.27-.13-.55-.24a.63.63,0,0,1-.37-.73c0-.34.15-.55.35-.61Zm3.15-19.41a8.79,8.79,0,0,1,3.34-6.5,11.51,11.51,0,0,1,14.46,1.44,8.77,8.77,0,0,1,2,7A8.91,8.91,0,0,1,367,564a11.42,11.42,0,0,1-14.27-1.42A8.91,8.91,0,0,1,350.67,555.6Z"/><path class="cls-2" d="M367.62,609.59a11.07,11.07,0,0,1,2.68-6.1,26,26,0,0,1,5.51-4.73,44.23,44.23,0,0,1,6.95-3.61c2.49-1,4.79-1.94,6.89-2.72s3.87-1.44,5.3-2,2.2-1.13,2.28-1.68a1,1,0,0,0-.78-1.17,10.33,10.33,0,0,0-1.81-.42c-5-.67-10-1.32-15-1.94a14.24,14.24,0,0,0-3.29-.11,10.38,10.38,0,0,0-1.91.39,8,8,0,0,0-1.22.47,2.18,2.18,0,0,1-1.16.15,1.21,1.21,0,0,1-1-.66,2.21,2.21,0,0,1-.22-1.28l1.43-12.7q18.63,2.16,37.16,4.9l1.23.16a5.22,5.22,0,0,1,1.45.35,3.51,3.51,0,0,1,1.14.72,1.4,1.4,0,0,1,.34,1.29,7.22,7.22,0,0,1-2.22,3.89,33.85,33.85,0,0,1-4.66,3.84q-2.74,1.92-5.84,3.89t-5.79,4a32.48,32.48,0,0,0-4.56,4,7.49,7.49,0,0,0-2.12,4q-.39,2.91,2.32,3.28c3.61.49,5.41.74,9,1.27a8.19,8.19,0,0,0,3.2,0,8.44,8.44,0,0,0,2.13-.84,10.79,10.79,0,0,0,1.4-.95,1.32,1.32,0,0,1,1-.36.56.56,0,0,1,.52.5,5.94,5.94,0,0,1-.12,1.63c-.08.55-.2,1.31-.35,2.28s-.31,1.94-.48,2.93-.33,1.89-.45,2.71-.21,1.36-.25,1.61c-.16,1-.28,1.81-.37,2.4a4.62,4.62,0,0,1-.37,1.33,1,1,0,0,1-.7.54,4.34,4.34,0,0,1-1.36,0q-16.56-2.46-33.19-4.44a2.58,2.58,0,0,1-1.68-.81,4.16,4.16,0,0,1-.89-1.61,7.14,7.14,0,0,1-.28-2.09A21,21,0,0,1,367.62,609.59Z"/><path class="cls-2" d="M440.46,580.58a20.38,20.38,0,0,1,7.59,2.89,17.43,17.43,0,0,1,5,4.85,15.89,15.89,0,0,1,2.47,6,16.78,16.78,0,0,1-.06,6.51,7.52,7.52,0,0,1-1.95,4,7.35,7.35,0,0,1-3.46,1.92,14.83,14.83,0,0,1-4.62.33,45,45,0,0,1-5.37-.7c-1.87-.35-3.79-.75-5.78-1.2s-3.92-.83-5.81-1.17a6,6,0,0,0-1-.08c-.33,0-.55.29-.64.83s.35,1.42,1.34,2.6a26.92,26.92,0,0,0,3.84,3.71,37.21,37.21,0,0,0,5.27,3.53,18.93,18.93,0,0,0,5.64,2.14,11.42,11.42,0,0,0,3.79.22,9.09,9.09,0,0,0,2.49-.68,12,12,0,0,0,1.6-.85,1.45,1.45,0,0,1,1.06-.31,1.16,1.16,0,0,1,.62.39,1.27,1.27,0,0,1,.13,1.13,10.37,10.37,0,0,1-1.87,3.86,14.54,14.54,0,0,1-4,3.72,18.58,18.58,0,0,1-6.11,2.39,20.73,20.73,0,0,1-8.11-.07,24.21,24.21,0,0,1-8.42-3.22,25.46,25.46,0,0,1-6.64-5.87,22.9,22.9,0,0,1-4.05-7.75,19.91,19.91,0,0,1-.56-9,30,30,0,0,1,3-9.38,21.24,21.24,0,0,1,5.75-7,20.68,20.68,0,0,1,8.28-3.82A26.48,26.48,0,0,1,440.46,580.58ZM422,590.39a13.45,13.45,0,0,0-.13,3.41,9.49,9.49,0,0,0,.81,3.15,6.66,6.66,0,0,0,2,2.47,7,7,0,0,0,3.23,1.37c1.51.26,3.07.48,4.66.66a25.62,25.62,0,0,0,4.39.15,8.72,8.72,0,0,0,3.4-.83,3.06,3.06,0,0,0,1.7-2.29,7.46,7.46,0,0,0-.49-4.57,12.1,12.1,0,0,0-2.7-3.82,15.44,15.44,0,0,0-4-2.76,16.53,16.53,0,0,0-4.32-1.45,9.44,9.44,0,0,0-2.81-.06,8.78,8.78,0,0,0-2.63.75,6,6,0,0,0-2,1.54A4.54,4.54,0,0,0,422,590.39Z"/><path class="cls-2" d="M452,629.36a6.69,6.69,0,0,0,2.34-2.61,17,17,0,0,0,1.39-4.31l6-29a16.82,16.82,0,0,0,.42-4.51,6.68,6.68,0,0,0-1.19-3.35q8.06,1.65,16.1,3.45a3,3,0,0,1,2.54,2,8.3,8.3,0,0,1-.1,3.94L479.3,596a3.54,3.54,0,0,0-.17,1.34.4.4,0,0,0,.28.26,2.67,2.67,0,0,0,2.23-.9,29.16,29.16,0,0,1,3.16-2.42,15.39,15.39,0,0,1,4.75-2,14.3,14.3,0,0,1,7,.26,10.94,10.94,0,0,1,5.45,2.79,9.87,9.87,0,0,1,2.5,4.35,14,14,0,0,1,.39,5.11,33.4,33.4,0,0,1-.89,5.08c-1.18,4.74-1.77,7.11-3,11.84l-2.7,10.59a17.2,17.2,0,0,0-.65,4.48,6.69,6.69,0,0,0,1,3.38q-10.42-2.7-20.9-5.14a6.89,6.89,0,0,0,2.42-2.55,17.5,17.5,0,0,0,1.5-4.28q2.4-10.1,4.79-20.2a9.45,9.45,0,0,0,.14-4,3,3,0,0,0-2.52-2.36,5.58,5.58,0,0,0-2.23-.09,4.19,4.19,0,0,0-2.14,1,8.54,8.54,0,0,0-1.88,2.42,16.44,16.44,0,0,0-1.46,4.19l-3.84,17a17.32,17.32,0,0,0-.52,4.5,6.65,6.65,0,0,0,1,3.35Q462.54,631.52,452,629.36Z"/><path class="cls-2" d="M290.37,557.84c5.42-7.11,6.69-22.33,2.38-31.25s-3.57-5.51-12.69-3.81-16.61.55-27.69-3.84-21.26-2-25.49,3.41-1,3.81,2.71,1.92,11.61-.54,24.79,7.82,29.75,5.86,32.15,5.4,4,0,4.25,4.23a6.1,6.1,0,0,1-2.93,5.82Z"/><path class="cls-2" d="M269.41,559.32c10.14,6.43,7.53,10.61,10.94,10.45s9.86-10.19,11.74-15S269.41,559.32,269.41,559.32Z"/><path class="cls-2" d="M393.21,470.13,398,479a1.59,1.59,0,0,0,1.77.78l9.76-2.42a1.58,1.58,0,0,1,2,1.64l-.71,10a1.57,1.57,0,0,0,1.06,1.6l9.53,3.24a1.58,1.58,0,0,1,.75,2.44l-6,8.06a1.58,1.58,0,0,0,0,1.93l6.26,7.88a1.57,1.57,0,0,1-.68,2.45l-9.43,3.53a1.58,1.58,0,0,0-1,1.63l1,10a1.58,1.58,0,0,1-1.9,1.7l-9.84-2.13a1.56,1.56,0,0,0-1.74.82l-4.56,9a1.58,1.58,0,0,1-2.52.4l-7.12-7.11a1.57,1.57,0,0,0-1.91-.25L374,539.25a1.58,1.58,0,0,1-2.34-1l-2.15-9.83a1.57,1.57,0,0,0-1.47-1.24L358,526.73a1.58,1.58,0,0,1-1.41-2.13l3.5-9.43a1.57,1.57,0,0,0-.57-1.84l-8.22-5.8a1.57,1.57,0,0,1,0-2.55l8.05-6a1.57,1.57,0,0,0,.51-1.85l-3.78-9.32a1.58,1.58,0,0,1,1.34-2.17l10-.73a1.57,1.57,0,0,0,1.44-1.28l1.85-9.89a1.58,1.58,0,0,1,2.31-1.09l8.83,4.81a1.58,1.58,0,0,0,1.9-.3l6.91-7.32A1.58,1.58,0,0,1,393.21,470.13Z"/><path class="cls-7" d="M380.27,518.19l3.29-25.57c.08-.62.13-1.15.16-1.59a1.06,1.06,0,0,0-.36-1l-.47-.34a.44.44,0,0,1-.19-.43c0-.27.24-.41.62-.41a14.23,14.23,0,0,0,3.48-.46c1.18-.3,2.27-.63,3.26-1s1.84-.69,2.55-1a3.94,3.94,0,0,1,1.32-.4c.27,0,.4.2.38.51a10.06,10.06,0,0,1-.1,1.08l-4.09,31.82a10.12,10.12,0,0,0-.06,2.66,3.88,3.88,0,0,0,.8,1.9l-12.46-1.6a4,4,0,0,0,1.25-1.64A10.58,10.58,0,0,0,380.27,518.19Z"/><path class="cls-8" d="M327,473.65h-5.07l-.81,1.17,3.41,2.37-.83,1.2-9.05-6.29,2.36-3.4a3.15,3.15,0,0,1,4.72-.78,3.21,3.21,0,0,1,1.19,4.33l5.07,0Zm-10.42-2,3.44,2.39,1.32-1.89c.92-1.33.59-2.34-.44-3.05a1.88,1.88,0,0,0-2.77.32Z"/><path class="cls-8" d="M331.26,466.26l3.53-3.84,1,.91-4.51,4.9-8.1-7.48,4.4-4.77,1,.91-3.43,3.71,2.63,2.43,3-3.24,1,.92-3,3.25Z"/><path class="cls-8" d="M336.06,448.5c2.47-1.94,5.4-1.18,7.33,1.28s1.94,5.46-.53,7.39l-3.36,2.64-6.8-8.68Zm6,7.62c1.83-1.43,1.67-3.59.22-5.44s-3.54-2.56-5.36-1.12l-2.22,1.73,5.15,6.56Z"/><path class="cls-8" d="M351.78,449.6l4.61-2.45.63,1.19-5.88,3.12L346,441.72l5.73-3,.63,1.19-4.46,2.37,1.68,3.16,3.9-2.07.64,1.2-3.9,2.07Z"/><path class="cls-8" d="M362.67,444.67l4.95-1.63.42,1.27-6.32,2.08-3.45-10.47,6.17-2,.42,1.28-4.8,1.58,1.12,3.4,4.2-1.38.42,1.3-4.19,1.37Z"/><path class="cls-8" d="M385.33,441.78l-1.41.14-1.87-8.25-2.76,7.52-1.25.12-4.25-6.8-.15,8.46-1.42.14.22-11.1,1.31-.13,4.74,7.73,3.07-8.53,1.31-.13Z"/><path class="cls-8" d="M397.28,442.91l-.76-2.93-4.71-.52-1.37,2.7-1.51-.17,5.36-10.5,1.53.17,3,11.41Zm-4.85-4.67,3.75.41-1.33-5.18Z"/><path class="cls-8" d="M411.26,443.21a3.1,3.1,0,0,1-4,2.08L403,444l3.09-10.59,4,1.17a2.7,2.7,0,0,1,2.07,3.53,2.33,2.33,0,0,1-2,1.86A2.75,2.75,0,0,1,411.26,443.21Zm-3.88.7a1.88,1.88,0,0,0,2.52-1.23,1.86,1.86,0,0,0-1.37-2.4l-2.71-.79-1.06,3.66Zm2.28-8-2.57-.75-.91,3.12,2.62.76a1.44,1.44,0,0,0,1.88-1.15A1.45,1.45,0,0,0,409.66,435.89Z"/><path class="cls-8" d="M417,447.6l4,2-.59,1.21-5.36-2.63,4.84-9.9,1.31.64Z"/><path class="cls-8" d="M426.33,452.94l4.24,3-.78,1.1-5.41-3.87,6.41-9,5.28,3.77-.78,1.1-4.11-2.94-2.09,2.91,3.6,2.57-.8,1.11-3.59-2.57Z"/><path class="cls-8" d="M450.06,464.19l-3.16-3.82-2.76,2.29,2.51,3-1,.87-2.51-3-3.65,3-.93-1.12,8.5-7,4.09,4.95Z"/><path class="cls-8" d="M449.66,470.69a5.58,5.58,0,1,1-2.13,7.66A5.63,5.63,0,0,1,449.66,470.69Zm4.87,8.4a4.13,4.13,0,1,0-4.14-7.14,4.13,4.13,0,1,0,4.14,7.14Z"/><path class="cls-8" d="M454.58,493.16l2.86-4.19-.51-1.33L453,489.13l-.52-1.36,10.3-3.94,1.48,3.88a3.15,3.15,0,0,1-2,4.33,3.2,3.2,0,0,1-4.24-1.46l-2.82,4.21Zm7.51-7.49-3.92,1.5.82,2.15c.58,1.51,1.6,1.81,2.76,1.36a1.88,1.88,0,0,0,1.31-2.47Z"/><path class="cls-8" d="M236.78,639.53a5.67,5.67,0,0,1,5.54-5.78,5.36,5.36,0,0,1,4.16,1.82l-1,.91a4.05,4.05,0,0,0-3.1-1.39,4.28,4.28,0,0,0-4.09,4.43,4.23,4.23,0,0,0,4.19,4.28,4.06,4.06,0,0,0,3.07-1.45l1.06.88a5.36,5.36,0,0,1-4.12,1.92A5.64,5.64,0,0,1,236.78,639.53Z"/><path class="cls-8" d="M251.8,644.93l0-11h1.45l-.05,11Z"/><path class="cls-8" d="M266.6,634.08l0,1.34-3.36,0-.16,9.67-1.45,0,.15-9.68-3.36-.05,0-1.34Z"/><path class="cls-8" d="M271.46,645.23l.3-11,1.45,0-.3,11Z"/><path class="cls-8" d="M286.32,634.71l-.05,1.25-6.2,8.2,5.88.22-.05,1.34-7.67-.29,0-1.25,6.17-8.2-5.64-.21.05-1.34Z"/><path class="cls-8" d="M292.82,644.7,298,645l-.07,1.35-6.64-.34.55-11,6.49.33-.07,1.34-5.05-.25-.18,3.58,4.41.22-.07,1.36-4.41-.23Z"/><path class="cls-8" d="M310.66,636l1.46.09-.71,11L310,647l-4.54-8.7-.54,8.38-1.45-.1.7-11,1.44.09,4.51,8.67Z"/><path class="cls-8" d="M317.14,644.41l1.44.11a2.28,2.28,0,0,0,2.29,2.15,2,2,0,0,0,2.36-1.73c.08-1.07-.85-1.62-1.76-1.94l-1.39-.45c-2.29-.74-2.55-2.14-2.48-3a3.38,3.38,0,0,1,3.86-2.9,3.22,3.22,0,0,1,3.23,3.46l-1.43-.11a1.93,1.93,0,0,0-1.95-2,2,2,0,0,0-2.26,1.65c0,.39,0,1.16,1.48,1.65l1.4.5c1.83.64,2.87,1.68,2.76,3.24a3.43,3.43,0,0,1-3.93,3A3.62,3.62,0,0,1,317.14,644.41Z"/><path class="cls-8" d="M329.32,647.71a1,1,0,0,1,1.09-.91,1,1,0,0,1,.95,1.08,1,1,0,0,1-1.12.87A1,1,0,0,1,329.32,647.71Z"/><path class="cls-8" d="M336.28,646l1.44.13a2.27,2.27,0,0,0,2.25,2.19,2,2,0,0,0,2.39-1.68c.1-1.07-.82-1.64-1.72-2l-1.39-.48c-2.27-.78-2.51-2.18-2.42-3.08a3.38,3.38,0,0,1,3.91-2.82,3.21,3.21,0,0,1,3.17,3.51l-1.43-.13a1.92,1.92,0,0,0-1.91-2,2,2,0,0,0-2.29,1.62c0,.38,0,1.15,1.45,1.68l1.39.51c1.82.67,2.84,1.74,2.7,3.3a3.42,3.42,0,0,1-4,2.93A3.62,3.62,0,0,1,336.28,646Z"/><path class="cls-8" d="M348.75,644.82a5.58,5.58,0,1,1,4.92,6.24A5.63,5.63,0,0,1,348.75,644.82Zm9.65,1a4.13,4.13,0,1,0-4.58,3.87A4.25,4.25,0,0,0,358.4,645.86Z"/><path class="cls-8" d="M366.31,651l4.48.54-.16,1.34-5.93-.72,1.34-11,1.44.17Z"/><path class="cls-8" d="M375.08,650.26l1.42.19a2.29,2.29,0,0,0,2.17,2.28,2,2,0,0,0,2.46-1.6c.14-1.06-.76-1.67-1.65-2l-1.37-.53c-2.24-.87-2.43-2.28-2.31-3.17a3.39,3.39,0,0,1,4-2.68,3.23,3.23,0,0,1,3,3.63l-1.43-.18a1.92,1.92,0,0,0-1.83-2.12,2,2,0,0,0-2.35,1.53c-.05.38,0,1.16,1.38,1.73l1.38.57c1.79.74,2.78,1.84,2.57,3.39a3.42,3.42,0,0,1-4.08,2.79A3.62,3.62,0,0,1,375.08,650.26Z"/><path class="cls-8" d="M395.78,645.16l-.19,1.33-3.33-.48-1.38,9.57-1.44-.2,1.38-9.58-3.32-.48.19-1.33Z"/><path class="cls-8" d="M400.82,655.72l5.15.8-.21,1.33-6.57-1,1.7-10.89,6.42,1-.21,1.32-5-.78-.56,3.54,4.37.69-.22,1.34-4.36-.68Z"/><path class="cls-8" d="M418,659.9l-.59-3-4.66-.8-1.54,2.62-1.5-.26,6-10.16,1.51.25,2.28,11.58ZM413.45,655l3.73.64-1-5.26Z"/><path class="cls-8" d="M430.36,650.93c3.09.58,4.46,3.27,3.88,6.36s-2.81,5.06-5.89,4.48l-4.2-.78,2-10.84Zm-1.77,9.52c2.28.43,3.79-1.12,4.22-3.43s-.41-4.34-2.69-4.77l-2.77-.51-1.53,8.19Z"/><path class="cls-8" d="M438.6,660.56l1.41.29a2.28,2.28,0,0,0,2,2.41,2,2,0,0,0,2.56-1.42c.21-1.05-.65-1.72-1.51-2.14l-1.33-.63c-2.18-1-2.26-2.43-2.08-3.31a3.38,3.38,0,0,1,4.19-2.4,3.22,3.22,0,0,1,2.78,3.83l-1.41-.28a1.93,1.93,0,0,0-1.68-2.24,2,2,0,0,0-2.45,1.36c-.08.38-.11,1.16,1.26,1.83l1.33.66c1.74.86,2.65,2,2.33,3.56a3.41,3.41,0,0,1-4.26,2.5A3.61,3.61,0,0,1,438.6,660.56Z"/><path class="cls-8" d="M450.25,665.34a1,1,0,0,1,2,.43,1,1,0,0,1-1.22.72A1,1,0,0,1,450.25,665.34Z"/><path class="cls-8" d="M457.44,662.1a5.69,5.69,0,0,1,6.75-4.33,5.38,5.38,0,0,1,3.62,2.76l-1.23.63a4.09,4.09,0,0,0-2.69-2.08,4.37,4.37,0,0,0-2,8.5,4.08,4.08,0,0,0,3.33-.69l.83,1.11a5.39,5.39,0,0,1-4.46.89A5.63,5.63,0,0,1,457.44,662.1Z"/><path class="cls-8" d="M471.19,665.3a5.59,5.59,0,1,1,4,6.88A5.63,5.63,0,0,1,471.19,665.3Zm9.42,2.39a4.14,4.14,0,1,0-5.09,3.18A4.26,4.26,0,0,0,480.61,667.69Z"/><path class="cls-8" d="M498,678.23l-1.37-.39,1.33-8.36-5.36,5.95-1.21-.34-1.42-7.9-3.28,7.8-1.37-.4,4.33-10.23,1.26.37,1.53,8.94,6-6.78,1.27.36Z"/></svg>