<svg width="128" height="128" viewBox="0 0 128 128" fill="none" xmlns="http://www.w3.org/2000/svg">
<circle cx="64" cy="64" r="64" fill="#23C1AA"/>
<path d="M59.6359 72.8247L22.7287 50.7203C20.9933 49.6803 19.4542 48.2002 18.2113 46.3762C16.9684 44.5523 16.0496 42.4252 15.5146 40.1333L15.25 39L15.2766 39.0195L52.0656 60.7319C54.0034 61.8756 55.6976 63.5652 57.0123 65.6652C58.327 67.7653 59.2256 70.2173 59.6359 72.8246L59.6359 72.8247Z" fill="white"/>
<path d="M53.3577 109.911L33.6292 98.3973C32.0174 97.457 30.585 96.1045 29.4266 94.4292C28.2681 92.7539 27.4098 90.7938 26.9084 88.6781C26.7802 88.1374 26.6504 87.5894 26.5189 87.0342L26.656 87.1124V87.1189L54.4376 103.329C54.9121 103.606 55.4393 103.714 55.9607 103.642C56.4821 103.571 56.9771 103.321 57.3908 102.922C57.8045 102.523 58.1205 101.99 58.3038 101.382C58.4871 100.773 58.5304 100.114 58.429 99.4776V99.4776C58.0527 97.1158 57.2354 94.8955 56.0422 92.9939C54.8491 91.0924 53.3132 89.5623 51.5571 88.5257L27.9974 74.6186C26.4118 73.6819 25.0018 72.3461 23.8574 70.6967C22.713 69.0473 21.8594 67.1206 21.3512 65.0397C21.1863 64.3648 21.0344 63.7362 20.9106 63.2127L21.016 63.2714L52.6621 81.9536C55.5212 83.6415 58.0219 86.1327 59.9647 89.2285C61.9075 92.3243 63.2386 95.939 63.8518 99.7842V99.7842C64.1188 101.458 64.005 103.192 63.5233 104.791C63.0415 106.39 62.2105 107.792 61.1229 108.842C60.0352 109.891 58.7335 110.547 57.3626 110.736C55.9916 110.924 54.6053 110.639 53.3577 109.911V109.911Z" fill="white"/>
<path d="M68.3643 72.8247L105.272 50.7203C107.007 49.6803 108.546 48.2002 109.789 46.3762C111.032 44.5523 111.951 42.4252 112.486 40.1333C112.577 39.7433 112.665 39.3656 112.75 39L112.724 39.0195L75.9346 60.7319C73.9968 61.8755 72.3026 63.5652 70.9879 65.6652C69.6732 67.7653 68.7746 70.2173 68.3643 72.8246V72.8247Z" fill="white"/>
<path d="M74.6405 109.911L94.369 98.3973C95.9808 97.4569 97.4132 96.1045 98.5717 94.4292C99.7302 92.7539 100.588 90.7938 101.09 88.6781C101.218 88.1374 101.348 87.5894 101.479 87.0342L101.342 87.1124V87.1189L73.5606 103.329C73.0861 103.606 72.5589 103.714 72.0375 103.642C71.5161 103.571 71.021 103.321 70.6074 102.922C70.1937 102.523 69.8776 101.99 69.6944 101.382C69.5111 100.773 69.4678 100.114 69.5692 99.4775V99.4775C69.9455 97.1157 70.7628 94.8954 71.9559 92.9939C73.1491 91.0923 74.685 89.5622 76.441 88.5256L100.001 74.6185C101.586 73.6818 102.996 72.3461 104.141 70.6967C105.285 69.0473 106.139 67.1205 106.647 65.0397C106.812 64.3648 106.964 63.7362 107.088 63.2127L106.982 63.2714L75.336 81.9536C72.4769 83.6415 69.9762 86.1327 68.0334 89.2285C66.0907 92.3243 64.7596 95.939 64.1464 99.7842V99.7842C63.8794 101.458 63.9931 103.192 64.4749 104.791C64.9566 106.39 65.7876 107.792 66.8753 108.842C67.9629 109.891 69.2647 110.547 70.6356 110.736C72.0066 110.924 73.3929 110.639 74.6405 109.911V109.911Z" fill="white"/>
<circle cx="44" cy="29" r="18" fill="white"/>
<g clip-path="url(#clip0)">
<path d="M35.0787 34.4202C35.2383 34.2606 35.4579 34.1674 35.6907 34.1674H56.8059C57.1917 34.1674 57.3847 34.6331 57.1119 34.9059L52.9408 39.077C52.7811 39.2367 52.5616 39.3298 52.3287 39.3298H31.2135C30.8277 39.3298 30.6348 38.8641 30.9075 38.5914L35.0787 34.4202Z" fill="url(#paint0_linear)"/>
<path d="M35.0787 18.8465C35.245 18.6869 35.4645 18.5938 35.6907 18.5938H56.8059C57.1917 18.5938 57.3847 19.0594 57.1119 19.3322L52.9408 23.5033C52.7811 23.663 52.5616 23.7561 52.3287 23.7561H31.2135C30.8277 23.7561 30.6348 23.2904 30.9075 23.0177L35.0787 18.8465Z" fill="url(#paint1_linear)"/>
<path d="M52.9408 26.5833C52.7811 26.4236 52.5616 26.3305 52.3287 26.3305H31.2135C30.8277 26.3305 30.6348 26.7962 30.9075 27.0689L35.0787 31.2401C35.2383 31.3997 35.4579 31.4929 35.6907 31.4929H56.8059C57.1917 31.4929 57.3847 31.0272 57.1119 30.7545L52.9408 26.5833Z" fill="url(#paint2_linear)"/>
</g>
<path d="M84 46.25C93.5269 46.25 101.25 38.5269 101.25 29C101.25 19.4731 93.5269 11.75 84 11.75C74.4731 11.75 66.75 19.4731 66.75 29C66.75 38.5269 74.4731 46.25 84 46.25Z" fill="white" stroke="black"/>
<mask id="mask0" mask-type="alpha" maskUnits="userSpaceOnUse" x="66" y="11" width="36" height="36">
<path d="M84 47C93.9411 47 102 38.9411 102 29C102 19.0589 93.9411 11 84 11C74.0589 11 66 19.0589 66 29C66 38.9411 74.0589 47 84 47Z" fill="#F7931A"/>
</mask>
<g mask="url(#mask0)">
<path d="M102 26.75H66V31.25H102V26.75Z" fill="#2DD6A0"/>
<path d="M102.375 23.375H65.625V27.125H102.375V23.375Z" fill="#62DDF9" stroke="black" stroke-width="0.5"/>
<path d="M102.375 30.875H65.625V34.625H102.375V30.875Z" fill="#BF88FF" stroke="black" stroke-width="0.5"/>
<path d="M84 46.25C93.5269 46.25 101.25 38.5269 101.25 29C101.25 19.4731 93.5269 11.75 84 11.75C74.4731 11.75 66.75 19.4731 66.75 29C66.75 38.5269 74.4731 46.25 84 46.25Z" stroke="black"/>
<path d="M84 42.125C91.2487 42.125 97.125 36.2487 97.125 29C97.125 21.7512 91.2487 15.875 84 15.875C76.7513 15.875 70.875 21.7512 70.875 29C70.875 36.2487 76.7513 42.125 84 42.125Z" fill="black" stroke="black" stroke-width="0.5"/>
<path d="M77.8153 32.9484C77.9259 32.8329 78.0781 32.7656 78.2394 32.7656H92.871C93.1384 32.7656 93.2721 33.1025 93.0831 33.2997L90.1927 36.3171C90.082 36.4326 89.9299 36.5 89.7687 36.5H75.137C74.8696 36.5 74.7359 36.1631 74.9249 35.9658L77.8153 32.9484Z" fill="url(#paint3_linear)"/>
<path d="M77.8138 21.6828C77.9291 21.5673 78.0812 21.5 78.2379 21.5H92.8696C93.1369 21.5 93.2707 21.8368 93.0817 22.0341L90.1912 25.0515C90.0806 25.167 89.9285 25.2343 89.7671 25.2343H75.1355C74.8682 25.2343 74.7345 24.8975 74.9235 24.7002L77.8138 21.6828Z" fill="url(#paint4_linear)"/>
<path d="M90.1927 27.2797C90.082 27.1642 89.9299 27.0968 89.7687 27.0968H75.137C74.8696 27.0968 74.7359 27.4336 74.9249 27.631L77.8153 30.6482C77.9259 30.7637 78.0781 30.8311 78.2394 30.8311H92.871C93.1384 30.8311 93.2721 30.4943 93.0831 30.2969L90.1927 27.2797Z" fill="url(#paint5_linear)"/>
</g>
<defs>
<linearGradient id="paint0_linear" x1="54.7888" y1="16.1021" x2="40.1754" y2="44.0926" gradientUnits="userSpaceOnUse">
<stop stop-color="#00FFA3"/>
<stop offset="1" stop-color="#DC1FFF"/>
</linearGradient>
<linearGradient id="paint1_linear" x1="48.399" y1="12.766" x2="33.7856" y2="40.7565" gradientUnits="userSpaceOnUse">
<stop stop-color="#00FFA3"/>
<stop offset="1" stop-color="#DC1FFF"/>
</linearGradient>
<linearGradient id="paint2_linear" x1="51.5736" y1="14.4232" x2="36.9602" y2="42.4138" gradientUnits="userSpaceOnUse">
<stop stop-color="#00FFA3"/>
<stop offset="1" stop-color="#DC1FFF"/>
</linearGradient>
<linearGradient id="paint3_linear" x1="91.4733" y1="19.6975" x2="80.6461" y2="39.5633" gradientUnits="userSpaceOnUse">
<stop stop-color="#00FFA3"/>
<stop offset="1" stop-color="#DC1FFF"/>
</linearGradient>
<linearGradient id="paint4_linear" x1="87.044" y1="17.2843" x2="76.2169" y2="37.1501" gradientUnits="userSpaceOnUse">
<stop stop-color="#00FFA3"/>
<stop offset="1" stop-color="#DC1FFF"/>
</linearGradient>
<linearGradient id="paint5_linear" x1="89.2453" y1="18.4833" x2="78.4182" y2="38.3491" gradientUnits="userSpaceOnUse">
<stop stop-color="#00FFA3"/>
<stop offset="1" stop-color="#DC1FFF"/>
</linearGradient>
<clipPath id="clip0">
<rect width="26.4572" height="20.736" fill="white" transform="translate(30.7812 18.5938)"/>
</clipPath>
</defs>
</svg>
