<?xml version="1.0" encoding="UTF-8" standalone="no"?>
<!DOCTYPE svg PUBLIC "-//W3C//DTD SVG 1.1//EN" "http://www.w3.org/Graphics/SVG/1.1/DTD/svg11.dtd">
<svg width="100%" height="100%" viewBox="0 0 801 801" version="1.1" xmlns="http://www.w3.org/2000/svg" xmlns:xlink="http://www.w3.org/1999/xlink" xml:space="preserve" xmlns:serif="http://www.serif.com/" style="fill-rule:evenodd;clip-rule:evenodd;stroke-linejoin:round;stroke-miterlimit:2;">
    <g transform="matrix(1,0,0,1,-0.0001,0.0010047)">
        <g id="Layer1">
            <g transform="matrix(1.06331,0,0,1.06331,-42.5323,-8.11406)">
                <circle cx="416.185" cy="383.815" r="376.185" style="fill:rgb(83,49,238);"/>
            </g>
            <g transform="matrix(1,0,0,1,-46,0.923077)">
                <g transform="matrix(0.96069,0,0,0.964173,67.0897,-121.545)">
                    <path d="M646.317,820L530.567,691.342L311.974,691.342L646.317,820L146.676,820L503.503,201.694L525.571,201.694L646.317,820ZM493.003,349.088L311.974,691.342L521.823,630.136L493.003,349.088Z" style="fill:rgb(42,68,152);fill-rule:nonzero;"/>
                </g>
                <g transform="matrix(0.96069,0,0,0.964173,43.0897,-137.045)">
                    <path d="M646.317,820L530.567,691.342L311.974,691.342L646.317,820L146.676,820L503.503,201.694L525.571,201.694L646.317,820ZM493.003,349.088L311.974,691.342L521.823,630.136L493.003,349.088Z" style="fill:rgb(49,204,236);fill-rule:nonzero;"/>
                </g>
                <g transform="matrix(0.96069,0,0,0.964173,19.0897,-152.545)">
                    <path d="M646.317,820L530.567,691.342L311.974,691.342L646.317,820L146.676,820L503.503,201.694L525.571,201.694L646.317,820ZM493.003,349.088L311.974,691.342L521.823,630.136L493.003,349.088Z" style="fill-rule:nonzero;"/>
                </g>
            </g>
        </g>
    </g>
</svg>
