<!-- by TradingView --><svg width="18" height="18" xmlns="http://www.w3.org/2000/svg"><path fill="url(#paint0_linear)" d="M0 0h18v18H0z"/><path d="M9 8.556H7V7.15c0-.295-.016-.92-.515-.92-.453 0-.485.533-.485.808v4.02c0 .278.039.793.485.793.483 0 .515-.546.515-.852v-.666h-.273V9H9v4H7.977l-.187-.593c-.27.36-.812.593-1.48.593-1.017 0-2.072-.492-2.243-1.435-.045-.25-.067-.622-.067-1.12V7.748C4 6.108 4.538 5 6.485 5 8.52 5 9 5.866 9 7.494v1.062z" fill="#fff"/><path d="M14 7.667h-2v-.741c0-.256-.13-.575-.499-.575-.286 0-.501.177-.501.553 0 .53.292.917.803 1.156C13.241 8.735 14 9.39 14 10.923 14 12.342 12.979 13 11.562 13 9.678 13 9 11.986 9 10.333h2v.715c0 .297.1.635.518.635.317 0 .482-.194.482-.582 0-.426-.132-.704-.28-.835-.15-.131-.42-.529-1.011-.835C9.638 8.87 9 8.428 9 7.176 9 5.684 9.885 5 11.356 5 13.121 5 14 5.644 14 7.176v.49z" fill="#FF4D44"/><defs><linearGradient id="paint0_linear" x1="3.349" y1="3.122" x2="21.904" y2="24.434" gradientUnits="userSpaceOnUse"><stop stop-color="#1A1E21"/><stop offset="1" stop-color="#06060A"/></linearGradient></defs></svg>