<svg xmlns="http://www.w3.org/2000/svg" xmlns:xlink="http://www.w3.org/1999/xlink" width="512" height="512" viewBox="0 0 512 512">
  <defs>
    <linearGradient id="linear-gradient" x1="0.5" x2="0.5" y2="1" gradientUnits="objectBoundingBox">
      <stop offset="0" stop-color="#0cf1a7"/>
      <stop offset="1" stop-color="#d822fd"/>
    </linearGradient>
  </defs>
  <g id="circle_icon" transform="translate(-57 -341)">
    <g id="monero" transform="translate(57 341)">
      <circle id="Ellipse_1" data-name="Ellipse 1" cx="256" cy="256" r="256" fill="url(#linear-gradient)"/>
    </g>
    <g id="artificial-intelligence-ai" transform="translate(103 387)">
      <path id="Path_32" data-name="Path 32" d="M303.879,355.816a14.489,14.489,0,0,0-10.707,0,13.5,13.5,0,0,0-4.4,2.871l-.106.068a12.342,12.342,0,0,0-1.9,2.324,14.092,14.092,0,0,0-.81,1.435H263.728V343.786a49.072,49.072,0,0,1-10.6,3.418c-.634.137-1.233.239-1.867.342V368.53a5.93,5.93,0,0,0,1.831,4.272,6.3,6.3,0,0,0,4.4,1.777h28.669a11.383,11.383,0,0,0,.74,1.23,13.308,13.308,0,0,0,1.691,2.016l.106.1a13.92,13.92,0,0,0,4.543,2.939,14.6,14.6,0,0,0,5.353,1.025,14.162,14.162,0,0,0,5.248-.991l.106-.034a14.3,14.3,0,0,0,4.543-2.939,13.359,13.359,0,0,0,4.086-9.6,13.71,13.71,0,0,0-1.057-5.195,13.454,13.454,0,0,0-3.029-4.409,15.6,15.6,0,0,0-4.614-2.905ZM202.269,227.652H176.206l-3.733,11.894H149.016l28-72.182h25.147l27.894,72.182H206l-3.733-11.894ZM197.409,212l-8.136-25.94L181.1,212Zm39.13-44.669h23.069v72.182H236.538V167.33ZM218.964,93.337a40,40,0,0,0-10.39,10.9,1.6,1.6,0,0,1-.6.581,2.109,2.109,0,0,1-2.818-.581,40,40,0,0,0-10.39-10.9,33.794,33.794,0,0,0-13.031-5.571h-.07a36.533,36.533,0,0,0-13.348-.137,41,41,0,0,0-13.1,4.682,42,42,0,0,0-10.566,8.51,35.589,35.589,0,0,0-6.727,10.971h0c-.247.615-.458,1.265-.669,1.948-.176.615-.387,1.3-.528,1.982a1.986,1.986,0,0,1-1.937,1.572,39.265,39.265,0,0,0-13.771,4.853A46.959,46.959,0,0,0,108.9,132.367a51.193,51.193,0,0,0-8.594,14.559,52.628,52.628,0,0,0-3.416,16.747c-.035.786-.035,1.538-.035,2.324,0,.718.035,1.47.035,2.256A1.979,1.979,0,0,1,96.045,170a72.878,72.878,0,0,0-7.819,6.254,56.407,56.407,0,0,0-6.234,6.87,44.493,44.493,0,0,0-6.516,11.962,39.591,39.591,0,0,0-.6,24.949,44.692,44.692,0,0,0,5.389,11.518h0a53.315,53.315,0,0,0,4.508,6.049,58.944,58.944,0,0,0,5.494,5.537,2,2,0,0,1,.634,1.846,44.947,44.947,0,0,0-.951,7.69,45.9,45.9,0,0,0,.423,7.656,45.065,45.065,0,0,0,3.98,12.987A48.96,48.96,0,0,0,102.174,285a51.311,51.311,0,0,0,10.073,8.749,48.72,48.72,0,0,0,11.623,5.708,43.059,43.059,0,0,0,5.494,1.4,34.839,34.839,0,0,0,5.248.615,2.023,2.023,0,0,1,2.043,1.572,33.478,33.478,0,0,0,4.931,11.347,39.693,39.693,0,0,0,9.016,9.5,41.654,41.654,0,0,0,15.145,7.211,36.548,36.548,0,0,0,15.99.41,34.6,34.6,0,0,0,13.736-6.083,40.805,40.805,0,0,0,10.672-11.859,1.822,1.822,0,0,1,.81-.718,2.069,2.069,0,0,1,2.747.82,36.8,36.8,0,0,0,9.087,11,33.267,33.267,0,0,0,12.186,6.152,37.168,37.168,0,0,0,16.906.342,44.6,44.6,0,0,0,16.73-7.211,42.284,42.284,0,0,0,10.108-9.775,34.982,34.982,0,0,0,5.67-11.586A1.991,1.991,0,0,1,282.043,301a39.194,39.194,0,0,0,14.969-6.083,47.953,47.953,0,0,0,12.433-12.1,51.5,51.5,0,0,0,7.431-15.38,53.041,53.041,0,0,0,2.043-17.089,1.883,1.883,0,0,1,.88-1.777,70.6,70.6,0,0,0,8.1-6.289,54.027,54.027,0,0,0,6.41-7.006h0a43.55,43.55,0,0,0,6.34-11.449,39.926,39.926,0,0,0,2.395-12.338,41.018,41.018,0,0,0-1.444-11.859,44.612,44.612,0,0,0-4.86-11.313l-.07-.068a52.931,52.931,0,0,0-4.9-6.8,57.051,57.051,0,0,0-6.128-6.186,1.973,1.973,0,0,1-.669-1.88,44.307,44.307,0,0,0,.916-7.04,45.864,45.864,0,0,0-.211-6.972,44.556,44.556,0,0,0-3.733-13.466,49.509,49.509,0,0,0-7.819-12.133,52.906,52.906,0,0,0-10.249-9.057,47.659,47.659,0,0,0-11.764-5.844l-.106-.034a40.637,40.637,0,0,0-6.48-1.572h-.07a35.808,35.808,0,0,0-6.3-.444,2.036,2.036,0,0,1-2.113-1.5,32.928,32.928,0,0,0-1.338-4.1,38.469,38.469,0,0,0-1.937-4.033,37.528,37.528,0,0,0-7.326-9.262,42.923,42.923,0,0,0-10.073-6.938,40.121,40.121,0,0,0-12.116-3.725,36.534,36.534,0,0,0-12.186.342,37.349,37.349,0,0,0-13.1,5.742Zm57.585,38.483a2.083,2.083,0,0,1,1.831-1.4,20.04,20.04,0,0,1,4.508.205,28.762,28.762,0,0,1,4.649,1.128,34.448,34.448,0,0,1,8.558,4.272,37.871,37.871,0,0,1,7.4,6.562l.035.068a35.726,35.726,0,0,1,5.67,8.783,31.722,31.722,0,0,1,2.677,9.6,31.1,31.1,0,0,1-.035,7.006,30.571,30.571,0,0,1-1.585,6.8l-.035.137a6.573,6.573,0,0,0,0,4.272,6.693,6.693,0,0,0,2.712,3.418l.106.068a44.1,44.1,0,0,1,6.551,5.776,39.508,39.508,0,0,1,5.072,6.665,31.22,31.22,0,0,1,3.487,7.963,26.25,26.25,0,0,1-.634,16.507,31.112,31.112,0,0,1-4.332,7.758l-.035.034a41.288,41.288,0,0,1-6.48,6.7,60.4,60.4,0,0,1-8.594,5.878l-.106.068a6.51,6.51,0,0,0-2.818,3.076,6.609,6.609,0,0,0-.458,4.033l.035.273a40.929,40.929,0,0,1-.74,14.764A37.958,37.958,0,0,1,298,275.432a35.088,35.088,0,0,1-7.044,7.382,27.059,27.059,0,0,1-8.418,4.477H282.5a2.061,2.061,0,0,1-2.536-1.3c-3.98-12.611-10.848-16.678-22.47-22.488l-.247-.137a6.97,6.97,0,0,0-4.966-.342,6.263,6.263,0,0,0-3.769,3.076l-.106.205a6.4,6.4,0,0,0-.352,4.819,6.577,6.577,0,0,0,3.275,3.725c9.721,4.819,16.906,8.476,16.8,20.3a19.447,19.447,0,0,1-3.064,10.014,29.9,29.9,0,0,1-8.241,8.51,31.238,31.238,0,0,1-11.2,4.99,23.7,23.7,0,0,1-11.27-.068c-6.128-1.641-10.108-5.6-12.785-10.424-2.536-4.58-3.945-9.911-4.966-14.764a1.463,1.463,0,0,1-.07-.547c0-2.461-1.972-4.067-4.543-4.785a12.4,12.4,0,0,0-3.557-.478,13.522,13.522,0,0,0-3.557.478c-2.536.752-4.508,2.358-4.508,4.785a2.243,2.243,0,0,1-.07.478c-1.972,7.587-4.825,13.295-8.171,17.4a22.726,22.726,0,0,1-13.208,8.408,23.688,23.688,0,0,1-10.39-.342,29.054,29.054,0,0,1-9.9-4.785,25.957,25.957,0,0,1-7.044-7.963,19.354,19.354,0,0,1-2.571-9.4c0-12.44,7.748-16.61,18-21.7a6.577,6.577,0,0,0,3.275-3.725,6.348,6.348,0,0,0-.387-4.922,6.67,6.67,0,0,0-3.839-3.178,6.97,6.97,0,0,0-4.966.342l-.106.034c-12.08,5.981-19.3,10.356-23.633,23.377a2.076,2.076,0,0,1-2.043,1.47,22.268,22.268,0,0,1-3.628-.41,24.251,24.251,0,0,1-3.522-.957,35.942,35.942,0,0,1-8.382-4.135,38.365,38.365,0,0,1-7.291-6.357,36.026,36.026,0,0,1-5.67-8.476,32.33,32.33,0,0,1-2.888-9.262v-.068a29.166,29.166,0,0,1-.141-7.451,31.437,31.437,0,0,1,1.655-7.348l.035-.1a6.5,6.5,0,0,0,.035-4.17l-.035-.068a6.693,6.693,0,0,0-2.642-3.418l-.07-.068a42.967,42.967,0,0,1-6.093-5.3,38.952,38.952,0,0,1-4.79-6.083,33.135,33.135,0,0,1-3.733-8.1,28.241,28.241,0,0,1-1.2-8.408,26.656,26.656,0,0,1,1.62-8.783,31.941,31.941,0,0,1,4.543-8.237,41.922,41.922,0,0,1,6.375-6.7,58.771,58.771,0,0,1,8.347-5.947,6.679,6.679,0,0,0,2.571-2.734l.035-.1a6.228,6.228,0,0,0,.6-3.657,1.616,1.616,0,0,1-.035-.41v-.068c-.176-1.2-.282-2.392-.352-3.554-.07-1.265-.07-2.529-.035-3.759a39.4,39.4,0,0,1,2.5-12.475,37.9,37.9,0,0,1,6.34-10.834,32.785,32.785,0,0,1,7.185-6.391,26.277,26.277,0,0,1,8.065-3.554h0a2.061,2.061,0,0,1,2.536,1.3,32.687,32.687,0,0,0,10.179,15.653l.211.171a6.581,6.581,0,0,0,4.649,1.64,6.477,6.477,0,0,0,4.473-1.982l.106-.137a6.162,6.162,0,0,0,1.691-4.511,6.415,6.415,0,0,0-2.113-4.443,19.082,19.082,0,0,1-6.445-9.98,18.42,18.42,0,0,1,.211-12.543,22.47,22.47,0,0,1,4.508-7.245,27.6,27.6,0,0,1,6.9-5.537l.106-.068a27.693,27.693,0,0,1,8.559-3.144,22.9,22.9,0,0,1,8.629.034,22.176,22.176,0,0,1,11.447,6.425,37.113,37.113,0,0,1,7.924,13.09l.035.068c.74,2.221,3.135,3.52,5.952,4.033a16.6,16.6,0,0,0,3.909.239h.035a15.252,15.252,0,0,0,3.8-.684c2.113-.684,3.769-1.777,4.156-3.178v-.786c0-3.965,2.43-8.168,5.776-11.62,3.663-3.759,8.559-6.733,12.679-7.553a23.135,23.135,0,0,1,7.819-.171,27.173,27.173,0,0,1,7.748,2.427l.211.068a28.9,28.9,0,0,1,6.8,4.648,25.517,25.517,0,0,1,4.931,6.22,18.783,18.783,0,0,1,2.289,12.03c-.564,3.794-.7,6.186-3.98,9.98l-.035.034a6.223,6.223,0,0,0,.669,8.852l.211.171a6.649,6.649,0,0,0,4.719,1.4,6.534,6.534,0,0,0,4.332-2.119l.176-.239c3.381-3.9,4.473-6.767,6.023-11.689Zm77.343,167.262a13.3,13.3,0,0,1,0-10.39,13.05,13.05,0,0,1,2.958-4.272l.07-.1a12.6,12.6,0,0,1,2.395-1.846,14.784,14.784,0,0,1,1.479-.786V260.12H333.464c.035-1.4.035-2.8-.035-4.238a2.143,2.143,0,0,1,.986-2.016,76.788,76.788,0,0,0,7.713-5.844h24.865a6.3,6.3,0,0,1,4.4,1.777,5.93,5.93,0,0,1,1.831,4.272v27.82a11.9,11.9,0,0,1,1.268.718,13.557,13.557,0,0,1,2.078,1.641l.106.1a13.36,13.36,0,0,1,4.086,9.6,13.165,13.165,0,0,1-1.021,5.092l-.035.1a13.722,13.722,0,0,1-7.572,7.348,14.6,14.6,0,0,1-5.353,1.025,14.886,14.886,0,0,1-5.353-1.025,13.918,13.918,0,0,1-4.543-2.939,15.042,15.042,0,0,1-2.994-4.477Zm39.587-69.208H356.322c.634-1.333,1.2-2.666,1.691-4.033a41.946,41.946,0,0,0,2.113-8.066h33.353c.247-.444.493-.889.775-1.333a12.752,12.752,0,0,1,1.831-2.221,13.74,13.74,0,0,1,4.543-2.939,14.6,14.6,0,0,1,5.353-1.025,14.3,14.3,0,0,1,5.248.991l.106.034a14.3,14.3,0,0,1,4.543,2.939,13.359,13.359,0,0,1,4.086,9.6,13.709,13.709,0,0,1-1.057,5.195,13.453,13.453,0,0,1-3.029,4.409,13.921,13.921,0,0,1-4.543,2.939,14.6,14.6,0,0,1-5.353,1.025,14.3,14.3,0,0,1-5.248-.991l-.106-.034a14.3,14.3,0,0,1-4.543-2.939,13.424,13.424,0,0,1-1.8-2.153l-.07-.1c-.247-.41-.493-.854-.74-1.3Zm11.834-33.083H358.576a52.391,52.391,0,0,0-5-11.108l-.07-.1c-.176-.308-.352-.581-.528-.889h46.138V145.218c-.352-.205-.7-.41-1.057-.649A14.224,14.224,0,0,1,396.121,143a13.32,13.32,0,0,1-3.029-14.8,13.722,13.722,0,0,1,7.572-7.348,14.6,14.6,0,0,1,5.353-1.025,14.886,14.886,0,0,1,5.353,1.025,13.92,13.92,0,0,1,4.543,2.939,13.359,13.359,0,0,1,4.086,9.6,13.166,13.166,0,0,1-1.021,5.092l-.035.1A13.82,13.82,0,0,1,415.914,143a15.213,15.213,0,0,1-2.641,2.016,15.569,15.569,0,0,1-1.691.854v44.84a5.93,5.93,0,0,1-1.831,4.272,6.326,6.326,0,0,1-4.438,1.811ZM356.463,167.6H340.543a49.153,49.153,0,0,0,.775-6.767c.07-1.811.07-3.589-.035-5.332h8.946v-17.84a11.306,11.306,0,0,1-1.409-.786,13.241,13.241,0,0,1-2.36-1.846h0a13.36,13.36,0,0,1-4.086-9.57,13.71,13.71,0,0,1,1.057-5.195,14.051,14.051,0,0,1,2.923-4.306l.106-.1A13.92,13.92,0,0,1,351,112.921a14.489,14.489,0,0,1,10.707,0,14.033,14.033,0,0,1,4.438,2.871l.106.068a13.289,13.289,0,0,1,2.994,4.306l.035.1a13.3,13.3,0,0,1,0,10.39,14.051,14.051,0,0,1-2.923,4.306l-.106.1A14.521,14.521,0,0,1,364,136.844a9.61,9.61,0,0,1-1.3.718v23.992a5.93,5.93,0,0,1-1.831,4.272,6.361,6.361,0,0,1-4.4,1.777ZM109.64,64.15a14.489,14.489,0,0,0,10.707,0,13.5,13.5,0,0,0,4.4-2.871l.106-.068a12.34,12.34,0,0,0,1.9-2.324,14.1,14.1,0,0,0,.81-1.435h22.224V76.078a47.222,47.222,0,0,1,12.468-4.34V51.4a5.93,5.93,0,0,0-1.831-4.272,6.3,6.3,0,0,0-4.4-1.777H127.356a11.387,11.387,0,0,0-.74-1.23,13.31,13.31,0,0,0-1.691-2.016l-.106-.1a13.92,13.92,0,0,0-4.543-2.939,14.6,14.6,0,0,0-5.353-1.025,14.162,14.162,0,0,0-5.248.991l-.106.034A14.3,14.3,0,0,0,105.026,42a13.359,13.359,0,0,0-4.086,9.6A13.709,13.709,0,0,0,102,56.8a13.453,13.453,0,0,0,3.029,4.409,15.459,15.459,0,0,0,4.614,2.939ZM181,25.735V72.421a39.213,39.213,0,0,1,12.01,5.673l.423.308c0-.1.035-.205.035-.308V25.735c.458-.239.916-.478,1.374-.752a13,13,0,0,0,2.289-1.777,13.819,13.819,0,0,0,3.029-4.409,13.446,13.446,0,0,0,1.057-5.195,13.166,13.166,0,0,0-1.021-5.092l-.035-.1a13.722,13.722,0,0,0-7.572-7.348A14.6,14.6,0,0,0,187.23.034a14.887,14.887,0,0,0-5.353,1.025A13.92,13.92,0,0,0,177.333,4a13.359,13.359,0,0,0-4.086,9.6,13.166,13.166,0,0,0,1.021,5.092l.035.1a13.82,13.82,0,0,0,3.029,4.409,13.678,13.678,0,0,0,2.219,1.743l.07.034c.458.273.88.513,1.374.752Zm34.058-11.483V82.537a42.321,42.321,0,0,1,5.318-4.443,37.641,37.641,0,0,1,7.15-3.965V20.267H268.2c.211.342.423.684.669,1.025a13.9,13.9,0,0,0,6.163,4.819,14.6,14.6,0,0,0,5.353,1.025,14.742,14.742,0,0,0,5.353-1.025,13.921,13.921,0,0,0,4.543-2.939,13.359,13.359,0,0,0,4.086-9.6,13.71,13.71,0,0,0-1.057-5.195,13.454,13.454,0,0,0-3.029-4.409,15.028,15.028,0,0,0-4.614-2.939A14.556,14.556,0,0,0,280.352,0,14.3,14.3,0,0,0,275.1.991L275,1.025a14.3,14.3,0,0,0-4.543,2.939,14.9,14.9,0,0,0-2.078,2.563,14.791,14.791,0,0,0-.88,1.64H221.288a6.3,6.3,0,0,0-4.4,1.777,6.068,6.068,0,0,0-1.831,4.306Zm30.078,47.4V71.02a36.477,36.477,0,0,1,3.839.376,43.521,43.521,0,0,1,8.629,2.119V67.739h18.385a10.8,10.8,0,0,0,.81,1.367,12.989,12.989,0,0,0,1.9,2.29h0a13.921,13.921,0,0,0,4.543,2.939,14.555,14.555,0,0,0,5.318,1.025,14.887,14.887,0,0,0,5.353-1.025A14.554,14.554,0,0,0,298.35,71.5l.106-.1a13.267,13.267,0,0,0,.07-19.1l-.07-.1a13.739,13.739,0,0,0-4.438-2.905l-.106-.034a14.3,14.3,0,0,0-15.145,2.837l-.106.1a14.253,14.253,0,0,0-1.831,2.187,9.176,9.176,0,0,0-.74,1.265H251.366a6.3,6.3,0,0,0-4.4,1.777,5.794,5.794,0,0,0-1.832,4.238ZM66.108,120.3a13.3,13.3,0,0,1,0,10.39,13.049,13.049,0,0,1-2.958,4.272l-.07.1a12.594,12.594,0,0,1-2.395,1.846,14.8,14.8,0,0,1-1.479.786v21.566H82.274v1.059c0,.82.035,1.675.07,2.563a2.2,2.2,0,0,1-.951,1.982,79.931,79.931,0,0,0-8.206,6.494H53.042a6.3,6.3,0,0,1-4.4-1.777,5.93,5.93,0,0,1-1.831-4.272v-27.82a11.9,11.9,0,0,1-1.268-.718,13.556,13.556,0,0,1-2.078-1.64l-.106-.1a13.359,13.359,0,0,1-4.086-9.6,13.166,13.166,0,0,1,1.021-5.092l.035-.1a13.722,13.722,0,0,1,7.572-7.348,14.6,14.6,0,0,1,5.353-1.025,14.887,14.887,0,0,1,5.353,1.025,13.92,13.92,0,0,1,4.543,2.939,15.631,15.631,0,0,1,2.958,4.477ZM26.521,189.511H59.628c-.564,1.23-1.057,2.495-1.514,3.725A44.576,44.576,0,0,0,56,201.575H26.521c-.247.444-.493.889-.775,1.333a12.748,12.748,0,0,1-1.831,2.222,13.74,13.74,0,0,1-4.543,2.939,14.6,14.6,0,0,1-5.353,1.025A14.3,14.3,0,0,1,8.77,208.1l-.106-.034a14.3,14.3,0,0,1-4.543-2.939,13.359,13.359,0,0,1-4.086-9.6,13.709,13.709,0,0,1,1.057-5.195,13.453,13.453,0,0,1,3.029-4.409,13.92,13.92,0,0,1,4.543-2.939,14.6,14.6,0,0,1,5.353-1.025,14.3,14.3,0,0,1,5.248.991l.106.034a14.3,14.3,0,0,1,4.543,2.939,13.423,13.423,0,0,1,1.8,2.153l.07.1.74,1.333ZM14.687,222.594H57.761A50.4,50.4,0,0,0,63.5,234.522v.034l.07.137H20.886v39.474c.352.205.7.41,1.057.649a14.22,14.22,0,0,1,1.937,1.572,13.32,13.32,0,0,1,3.029,14.8,13.722,13.722,0,0,1-7.572,7.348,14.6,14.6,0,0,1-5.353,1.025,14.886,14.886,0,0,1-5.353-1.025A13.92,13.92,0,0,1,4.086,295.6a15.358,15.358,0,0,1-3.029-4.477A13.446,13.446,0,0,1,0,285.924a13.165,13.165,0,0,1,1.021-5.092l.035-.1a13.82,13.82,0,0,1,3.029-4.409A15.217,15.217,0,0,1,6.727,274.3a15.584,15.584,0,0,1,1.691-.854v-44.84a5.93,5.93,0,0,1,1.831-4.272,6.577,6.577,0,0,1,4.438-1.743Zm48.85,29.187H75.16a48.514,48.514,0,0,0-.669,6.664,46.348,46.348,0,0,0,.106,5.434H69.771v17.84a11.3,11.3,0,0,1,1.409.786,13.243,13.243,0,0,1,2.36,1.846h0a13.32,13.32,0,0,1,3.029,14.8,14.052,14.052,0,0,1-2.923,4.306l-.106.1A13.921,13.921,0,0,1,69,306.5a14.489,14.489,0,0,1-10.707,0,14.033,14.033,0,0,1-4.438-2.871l-.106-.068a13.29,13.29,0,0,1-2.994-4.306l-.035-.1a13.3,13.3,0,0,1,0-10.39,14.051,14.051,0,0,1,2.923-4.306l.106-.1A14.519,14.519,0,0,1,56,282.575a9.612,9.612,0,0,1,1.3-.718V257.865a5.93,5.93,0,0,1,1.831-4.272,6.043,6.043,0,0,1,4.4-1.811ZM232.559,394.231V346.417a36.71,36.71,0,0,1-12.362-6.528l-.07-.068v54.444c-.458.239-.916.478-1.374.752a13.005,13.005,0,0,0-2.289,1.777,13.821,13.821,0,0,0-3.029,4.409,13.447,13.447,0,0,0-1.057,5.195,13.165,13.165,0,0,0,1.021,5.092l.035.1a13.722,13.722,0,0,0,7.572,7.348,14.6,14.6,0,0,0,5.353,1.025,14.886,14.886,0,0,0,5.353-1.025A13.919,13.919,0,0,0,236.257,416a13.359,13.359,0,0,0,4.086-9.6,13.166,13.166,0,0,0-1.021-5.092l-.035-.1a13.82,13.82,0,0,0-3.029-4.409,13.675,13.675,0,0,0-2.219-1.743l-.106-.068c-.458-.273-.916-.513-1.374-.752Zm-34.093,11.483v-68.9a41.612,41.612,0,0,1-4.649,3.965A38.882,38.882,0,0,1,186,345.255v54.478H145.318c-.211-.342-.423-.684-.669-1.025a13.9,13.9,0,0,0-6.164-4.819,14.489,14.489,0,0,0-10.707,0,14.3,14.3,0,0,0-4.543,2.939,13.359,13.359,0,0,0-4.086,9.6,13.709,13.709,0,0,0,1.057,5.195,13.453,13.453,0,0,0,3.029,4.409,13.92,13.92,0,0,0,4.543,2.939A14.6,14.6,0,0,0,133.132,420a14.3,14.3,0,0,0,5.248-.991l.106-.034a14.3,14.3,0,0,0,4.543-2.939,13.708,13.708,0,0,0,2.958-4.2H192.2a6.3,6.3,0,0,0,4.4-1.777,6.1,6.1,0,0,0,1.867-4.34Zm-30.078-47.4v-9.945a44.03,44.03,0,0,1-8.171-1.2c-1.444-.342-2.888-.786-4.3-1.265V352.3H137.535a10.807,10.807,0,0,0-.81-1.367,12.987,12.987,0,0,0-1.9-2.29h0a13.919,13.919,0,0,0-4.543-2.939,14.555,14.555,0,0,0-5.318-1.025,14.886,14.886,0,0,0-5.353,1.025,14.553,14.553,0,0,0-4.438,2.837l-.106.068a13.267,13.267,0,0,0-.07,19.1l.07.1a13.738,13.738,0,0,0,4.438,2.905l.106.034a14.6,14.6,0,0,0,5.353,1.025,14.887,14.887,0,0,0,5.353-1.025,14.552,14.552,0,0,0,4.438-2.837l.106-.1a14.261,14.261,0,0,0,1.831-2.187,9.178,9.178,0,0,0,.74-1.265h24.725a6.3,6.3,0,0,0,4.4-1.777,5.93,5.93,0,0,0,1.831-4.272Z" fill="#00ffb0"/>
    </g>
  </g>
</svg>
