<svg xmlns="http://www.w3.org/2000/svg" xmlns:xlink="http://www.w3.org/1999/xlink" viewBox="0 0 470 470"><defs><style>.cls-1{fill:url(#linear-gradient);}.cls-2{fill:url(#linear-gradient-2);}.cls-3{fill:url(#linear-gradient-3);}</style><linearGradient id="linear-gradient" x1="-25.98" y1="451.15" x2="501.48" y2="14.3" gradientUnits="userSpaceOnUse"><stop offset="0" stop-color="#03e1ff"/><stop offset="0.5" stop-color="#00ffa3"/><stop offset="1" stop-color="#dc1fff"/></linearGradient><linearGradient id="linear-gradient-2" x1="-14.37" y1="465.18" x2="513.09" y2="28.33" xlink:href="#linear-gradient"/><linearGradient id="linear-gradient-3" x1="-22.25" y1="455.66" x2="505.21" y2="18.81" xlink:href="#linear-gradient"/></defs><g id="Layer_2" data-name="Layer 2"><g id="Layer_5" data-name="Layer 5"><rect class="cls-1" width="470" height="470"/><path d="M134.72,105.5l-.15,56.11v32.31h-24V114.26a16.07,16.07,0,0,1,16.07-16.07h.73A7.34,7.34,0,0,1,134.72,105.5Z"/><path d="M343,105.26V336.41a17.89,17.89,0,0,1-7.17,14.32l-79.63,59.52a17.89,17.89,0,0,1-21.14.2L152,350.72a17.88,17.88,0,0,1-7.44-14.52V161.61l.15-56.08a17.34,17.34,0,0,0-17.34-17.34l198.3-.27A17.34,17.34,0,0,1,343,105.26Z"/><path class="cls-2" d="M186.88,312.58a9,9,0,0,0,12.62-1.9l40.19-54.42-11.22-15.18L185,300A9,9,0,0,0,186.88,312.58Z"/><path class="cls-3" d="M255.39,235l4.49-6.07L303.36,170a9,9,0,1,0-14.51-10.72l-40.19,54.42-4.49,6.08-44.67-60.5a9,9,0,0,0-12.31-2.11l-.31.21-.08.07A9,9,0,0,0,185,170l48,65,11.21,15.18,44.68,60.5A9,9,0,1,0,303.36,300Z"/></g></g></svg>