<svg id="Layer_1" data-name="Layer 1" xmlns="http://www.w3.org/2000/svg" xmlns:xlink="http://www.w3.org/1999/xlink" viewBox="0 0 120 120"><defs><linearGradient id="New_Gradient_Swatch_1" x1="93.287" y1="37.607" x2="26.785" y2="82.463" gradientUnits="userSpaceOnUse"><stop offset="0" stop-color="#f1d961"/><stop offset="1" stop-color="#cda146"/></linearGradient><linearGradient id="New_Gradient_Swatch_1-2" x1="124.059" y1="16.845" x2="-3.995" y2="103.219" xlink:href="#New_Gradient_Swatch_1"/></defs><title>Coin98 Insights App</title><path d="M40.427,30.022a18.745,18.745,0,1,0,18.76,18.76A18.77,18.77,0,0,0,40.427,30.022Zm0,29.82a11.06,11.06,0,1,1,11.06-11.06A11.1,11.1,0,0,1,40.427,59.842Zm55.26-13.78a15.78,15.78,0,0,1-1.97,7.67,21.578,21.578,0,0,0-6.73-3.71,8.432,8.432,0,0,0,1-3.96,8.345,8.345,0,0,0-16.69,0,8.092,8.092,0,0,0,1,3.96,21.578,21.578,0,0,0-6.73,3.71,16.015,16.015,0,0,1,14.08-23.71A16.058,16.058,0,0,1,95.687,46.062Zm-16.04,6.49a18.745,18.745,0,1,0,18.73,18.76A18.782,18.782,0,0,0,79.647,52.552Zm0,29.79a11.045,11.045,0,1,1,11.06-11.03A11.06,11.06,0,0,1,79.647,82.342ZM56.467,74a16.045,16.045,0,0,1-32.09,0h7.7a8.345,8.345,0,1,0,16.69,0Z" fill="url(#New_Gradient_Swatch_1)"/><rect width="120.064" height="120.064" rx="15.736" fill="url(#New_Gradient_Swatch_1-2)"/><path d="M40.4,29.99a18.745,18.745,0,1,0,18.76,18.76A18.77,18.77,0,0,0,40.4,29.99Zm0,29.82a11.06,11.06,0,1,1,11.06-11.06A11.1,11.1,0,0,1,40.4,59.81Zm55.26-13.78a15.78,15.78,0,0,1-1.97,7.67,21.578,21.578,0,0,0-6.73-3.71,8.432,8.432,0,0,0,1-3.96,8.345,8.345,0,0,0-16.69,0,8.092,8.092,0,0,0,1,3.96,21.578,21.578,0,0,0-6.73,3.71,16.015,16.015,0,0,1,14.08-23.71A16.058,16.058,0,0,1,95.655,46.03Zm-16.04,6.49a18.745,18.745,0,1,0,18.73,18.76A18.782,18.782,0,0,0,79.615,52.52Zm0,29.79a11.045,11.045,0,1,1,11.06-11.03A11.06,11.06,0,0,1,79.615,82.31Zm-23.18-8.34a16.045,16.045,0,0,1-32.09,0h7.7a8.345,8.345,0,1,0,16.69,0Z"/></svg>