<svg xmlns="http://www.w3.org/2000/svg" width="256" height="256" viewBox="0 0 100 100"><defs><linearGradient id="hoofGradient" x1="0%" y1="0%" x2="100%" y2="100%"><stop offset="0%" stop-color="#FFD700"/><stop offset="50%" stop-color="#FFA500"/><stop offset="100%" stop-color="#FF8C00"/></linearGradient></defs><circle cx="50" cy="50" r="45" fill="#1a1a1a" stroke="url(#hoofGradient)" stroke-width="3"/><path d="M25 25 L25 45 L30 50 L25 55 L25 75 Q25 78 28 78 L32 78 Q35 78 35 75 L35 55 L40 50 L35 45 L35 25 Q35 22 32 22 L28 22 Q25 22 25 25 Z" fill="url(#hoofGradient)"/><path d="M65 25 L65 45 L60 50 L65 55 L65 75 Q65 78 68 78 L72 78 Q75 78 75 75 L75 55 L70 50 L75 45 L75 25 Q75 22 72 22 L68 22 Q65 22 65 25 Z" fill="url(#hoofGradient)"/><rect x="35" y="47" width="30" height="6" rx="3" fill="url(#hoofGradient)"/></svg>