<svg xmlns="http://www.w3.org/2000/svg" xmlns:xlink="http://www.w3.org/1999/xlink" viewBox="0 0 75 75"><defs><clipPath id="clip-path" transform="translate(0)"><rect width="75" height="75" style="fill:none"/></clipPath></defs><title>Asset 2</title><g id="Layer_2" data-name="Layer 2"><g id="Layer_1-2" data-name="Layer 1"><g style="clip-path:url(#clip-path)"><path d="M40.52,39.27,53.67,52.42a2.51,2.51,0,0,1-.25,3.76,23.76,23.76,0,1,1,.09-37.3,2.48,2.48,0,0,1,.16,3.69L40.51,35.73a2.5,2.5,0,0,0-.54.81,2.65,2.65,0,0,0-.19,1,2.46,2.46,0,0,0,.2,1,2.4,2.4,0,0,0,.54.81ZM37.5,0A37.5,37.5,0,1,0,75,37.5,37.5,37.5,0,0,0,37.5,0Z" transform="translate(0)" style="fill:#69e2dc"/></g></g></g></svg>