<?xml version="1.0" encoding="utf-8"?>
<!-- Generator: Adobe Illustrator 25.4.1, SVG Export Plug-In . SVG Version: 6.00 Build 0)  -->
<svg version="1.1" id="Layer_1" xmlns="http://www.w3.org/2000/svg" xmlns:xlink="http://www.w3.org/1999/xlink" x="0px" y="0px"
	 viewBox="0 0 256 256" style="enable-background:new 0 0 256 256;" xml:space="preserve">
<style type="text/css">
	.st0{fill:url(#SVGID_1_);}
	.st1{fill:url(#SVGID_00000011725153839967850090000018290542726470251166_);}
</style>
<g>
	<path d="M216.1,40.2C167.5-8.5,88.4-8.8,39.9,39.7c-10.8,10.7-19.1,23-25.1,36.1c-0.1,0.1-0.1,0.2-0.1,0.3c-1.6,3.5-3,7-4.2,10.5
		c-0.1,0.3-0.2,0.6-0.3,0.9c-0.6,1.7-1.1,3.3-1.6,5c-0.1,0.3-0.2,0.7-0.3,1c-0.4,1.4-0.7,2.7-1.1,4.1c-0.1,0.5-0.2,1-0.4,1.5
		c-0.3,1.5-0.7,3-1,4.5c-0.1,0.7-0.3,1.4-0.4,2.1c-0.2,1-0.3,2-0.5,3c-0.2,1.2-0.3,2.4-0.5,3.5c-0.1,0.8-0.2,1.7-0.3,2.5
		c-0.1,0.9-0.2,1.9-0.3,2.8c0,0.5-0.1,1.1-0.1,1.6c-0.1,1.8-0.2,3.6-0.2,5.4c0,0.4,0,0.8,0,1.2c-0.1,3.6,0,7.1,0.3,10.7
		c0,0,0,0.1,0,0.1c2.1,28.9,14.1,57.2,36.1,79.3c46.2,46.3,119.8,48.8,168.7,7.4l0,0c0.5-0.4,0.9-0.8,1.4-1.2
		c0.4-0.3,0.8-0.7,1.2-1.1c1.7-1.5,3.3-3,4.9-4.6C264.6,167.9,264.6,88.9,216.1,40.2z"/>
	<g>
		<linearGradient id="SVGID_1_" gradientUnits="userSpaceOnUse" x1="128" y1="31.8938" x2="128" y2="258.8694">
			<stop  offset="0" style="stop-color:#FFEC38"/>
			<stop  offset="0.6156" style="stop-color:#F85F57"/>
			<stop  offset="1" style="stop-color:#F0297A"/>
		</linearGradient>
		<path class="st0" d="M216.4,39.8C167.6-9.1,88.3-9.3,39.5,39.3C28.7,50.1,20.3,62.4,14.3,75.5c-0.1,0.1-0.1,0.2-0.2,0.3
			c-1.6,3.5-3,7-4.2,10.6c-0.1,0.3-0.2,0.6-0.3,0.9c-0.6,1.7-1.1,3.3-1.6,5c-0.1,0.3-0.2,0.7-0.3,1c-0.4,1.4-0.7,2.7-1.1,4.1
			c-0.1,0.5-0.2,1-0.4,1.5c-0.4,1.5-0.7,3-1,4.5c-0.1,0.7-0.3,1.4-0.4,2.1c-0.2,1-0.3,2-0.5,3c-0.2,1.2-0.3,2.4-0.5,3.6
			c-0.1,0.8-0.2,1.7-0.3,2.5c-0.1,1-0.2,1.9-0.3,2.9c0,0.6-0.1,1.1-0.1,1.7c-0.1,1.8-0.2,3.6-0.2,5.4c0,0.4,0,0.8,0,1.2
			c-0.1,3.6,0,7.1,0.3,10.7c0,0,0,0.1,0,0.1c2.1,29,14.1,57.4,36.2,79.6c46.3,46.5,120.2,49,169.3,7.4l0,0c0.5-0.4,0.9-0.8,1.4-1.2
			c0.4-0.4,0.8-0.7,1.2-1.1c1.7-1.5,3.3-3,4.9-4.6C265.2,168.1,265.2,88.8,216.4,39.8z M210.6,210.9c-0.4,0.4-0.8,0.7-1.1,1.1
			c-1.2,1.2-2.5,2.4-3.8,3.5c-0.5,0.5-1,0.9-1.6,1.4c-25.1,21.5-57.2,30.7-88.3,27.5l-3-0.4c-0.3,0-0.6-0.1-0.9-0.1
			c-8.1-1.1-16.2-3.1-24-5.9c-15.7-5.7-30.3-14.7-42.9-27.3c-18.1-18.1-28.9-40.7-32.6-64.3c-0.1-0.9-0.3-1.8-0.4-2.6
			c-0.1-0.8-0.2-1.5-0.3-2.3c-0.1-1.2-0.3-2.4-0.4-3.7c-0.1-0.8-0.1-1.5-0.2-2.3c0-0.8-0.1-1.5-0.1-2.3c-0.1-1.3-0.1-2.6-0.1-3.9
			c0-0.7,0-1.4,0-2.1c0-1.2,0-2.4,0.1-3.6c0-0.7,0.1-1.3,0.1-2c0.1-1.2,0.1-2.3,0.2-3.5c0-0.5,0.1-1,0.1-1.5c0.1-1.5,0.3-3,0.5-4.5
			c0.1-0.4,0.1-0.9,0.2-1.3c0.2-1.6,0.5-3.2,0.8-4.7c0-0.1,0-0.1,0-0.2c0.3-1.7,0.7-3.3,1.1-4.9c0.1-0.3,0.1-0.5,0.2-0.8
			c0.4-1.7,0.8-3.3,1.3-5c0-0.1,0.1-0.3,0.1-0.4c1-3.5,2.2-6.9,3.6-10.3c0,0,0-0.1,0.1-0.1c5.6-14,14-27.2,25.3-38.5l0,0
			c0.2-0.2,0.5-0.5,0.7-0.7C91-0.4,165.3-0.3,210.8,45.4C256.4,91.1,256.3,165.3,210.6,210.9z"/>
		
			<linearGradient id="SVGID_00000109710558723656265970000015746445181066768046_" gradientUnits="userSpaceOnUse" x1="128.7334" y1="41.1249" x2="128.7334" y2="225.5202">
			<stop  offset="0" style="stop-color:#FFEC38"/>
			<stop  offset="0.6156" style="stop-color:#F85F57"/>
			<stop  offset="1" style="stop-color:#F0297A"/>
		</linearGradient>
		<path style="fill:url(#SVGID_00000109710558723656265970000015746445181066768046_);" d="M175.3,80.8c-5.4-2.9-11.6-4.4-18.7-4.4
			l-60.2-0.1c-0.6,0-1,0.2-1.4,0.6c-0.4,0.4-0.6,0.9-0.6,1.4l-0.1,52l-27.6-0.1c-0.7,0-1.3,0.6-1.3,1.3l0,13.1
			c0,0.7,0.6,1.3,1.3,1.3l27.7,0.1l-0.1,53.8c0,0.5,0.4,1,0.9,1.1l17.2,4.3c0.7,0.2,1.4-0.4,1.4-1.1l0.1-57.1c0-0.5,0.4-0.8,0.8-0.8
			l40.8,0.1c7.3,0,13.7-1.4,19.3-4.3c5.6-2.9,9.9-6.9,12.9-12.2c3-5.3,4.6-11.3,4.6-18.2c0-7-1.5-13.1-4.4-18.5
			C184.8,87.8,180.7,83.7,175.3,80.8z M167.4,125.4c-3.5,3.4-8.1,5-13.8,5l-27.8,0l-11.3,0c-0.5,0-0.7-0.3-0.7-0.8l0.1-35.6
			c0-0.6,0.3-0.8,0.8-0.8l39,0.1c5.7,0,10.3,1.8,13.8,5.2c3.5,3.5,5.2,8,5.2,13.7C172.7,117.6,170.9,122,167.4,125.4z"/>
	</g>
</g>
</svg>
