<?xml version="1.0" encoding="UTF-8" standalone="no"?>
<!-- Created with Inkscape (http://www.inkscape.org/) -->

<svg
   width="72.890335mm"
   height="72.890335mm"
   viewBox="0 0 72.890335 72.890335"
   version="1.1"
   id="svg5"
   xmlns:xlink="http://www.w3.org/1999/xlink"
   xmlns="http://www.w3.org/2000/svg"
   xmlns:svg="http://www.w3.org/2000/svg">
  <defs
     id="defs2">
    <linearGradient
       id="linearGradient19003">
      <stop
         style="stop-color:#dc1fff;stop-opacity:1"
         offset="0"
         id="stop19307" />
      <stop
         style="stop-color:#00ffa3;stop-opacity:1"
         offset="1"
         id="stop19305" />
    </linearGradient>
    <rect
       x="205.14043"
       y="433.44772"
       width="181.9962"
       height="183.98108"
       id="rect7899" />
    <linearGradient
       xlink:href="#linearGradient19003"
       id="linearGradient19005"
       x1="105.76377"
       y1="161.67578"
       x2="126.66224"
       y2="121.42966"
       gradientUnits="userSpaceOnUse" />
  </defs>
  <g
     id="layer1"
     transform="translate(-73.547699,-100.78959)">
    <circle
       style="fill:#000000;fill-opacity:1;stroke:none;stroke-width:6.966;stroke-miterlimit:4;stroke-dasharray:none;stroke-dashoffset:0"
       id="path846"
       cx="109.99287"
       cy="137.23476"
       r="36.445168" />
    <path
       id="path14279"
       style="fill:url(#linearGradient19005);fill-opacity:1;fill-rule:nonzero;stroke:none;stroke-width:9.51582;stroke-miterlimit:4;stroke-dasharray:none;stroke-dashoffset:0"
       d="m 109.97592,111.33673 a 20.935375,25.457346 0 0 0 -16.682176,10.09293 h 33.368496 a 20.935375,25.457346 0 0 0 -16.68632,-10.09293 z m -20.070083,18.32498 a 20.935375,25.457346 0 0 0 -0.865063,7.13238 20.935375,25.457346 0 0 0 16.722996,24.88169 v -32.01407 z m 24.090503,0 v 32.06006 a 20.935375,25.457346 0 0 0 16.91525,-24.92768 20.935375,25.457346 0 0 0 -0.84336,-7.13238 z" />
    <text
       xml:space="preserve"
       transform="scale(0.26458333)"
       id="text7897"
       style="font-size:40px;line-height:1.25;font-family:sans-serif;word-spacing:0px;white-space:pre;shape-inside:url(#rect7899)" />
  </g>
</svg>
